<svg width="51" height="52" viewBox="0 0 51 52" fill="none" xmlns="http://www.w3.org/2000/svg">
<path d="M2.31126 16.1316C1.94689 16.1316 1.611 15.8927 1.50432 15.5252C1.37473 15.0793 1.63122 14.6129 2.07708 14.4835C4.84084 13.6805 8.4462 14.4361 8.5983 14.4686C9.05232 14.5659 9.34159 15.0127 9.24447 15.4665C9.14725 15.9203 8.7006 16.2094 8.24698 16.1128C8.21391 16.1057 4.89911 15.4146 2.54604 16.0978C2.46784 16.1209 2.38885 16.1316 2.31126 16.1316Z" fill="#83674D"/>
<path d="M47.9165 16.1315C47.7876 16.1315 47.6569 16.1017 47.5342 16.0391C45.0622 14.774 41.8095 15.7491 41.7768 15.7593C41.3332 15.8954 40.863 15.6468 40.7262 15.2038C40.5894 14.7609 40.8364 14.2909 41.2792 14.1533C41.4383 14.1039 45.2097 12.9609 48.3001 14.5423C48.7134 14.7538 48.877 15.2602 48.6655 15.6736C48.5169 15.9643 48.222 16.1315 47.9165 16.1315Z" fill="#83674D"/>
<path d="M38.7063 34.5924C38.4976 34.4128 38.2143 34.3465 37.9473 34.4154C35.6638 35.0056 33.0202 35.4039 30.0904 35.5997C29.9062 35.6121 29.7312 35.6847 29.5924 35.8063C26.458 38.5534 26.8831 43.5913 26.9027 43.8044C26.9245 44.0416 27.0462 44.2587 27.2373 44.4011C27.3837 44.5103 27.5602 44.5678 27.7398 44.5678C27.7947 44.5678 27.85 44.5624 27.9047 44.5515C31.9971 43.733 35.0533 42.1355 36.9882 39.8034C38.5745 37.8913 38.9192 36.0288 38.9938 35.317C39.0225 35.0429 38.9151 34.7722 38.7063 34.5924Z" fill="#00A35C"/>
<path d="M38.7062 34.5924C38.4975 34.4128 38.2141 34.3465 37.9472 34.4154C37.2321 34.6003 36.4816 34.7661 35.6982 34.9129C35.7494 35.039 35.7705 35.1775 35.7558 35.317C35.6813 36.0289 35.3365 37.8914 33.7501 39.8034C32.1923 41.6812 29.9069 43.0823 26.9395 43.9844C26.9924 44.1495 27.0956 44.2957 27.2369 44.4012C27.3833 44.5104 27.5598 44.5679 27.7394 44.5679C27.7943 44.5679 27.8496 44.5625 27.9043 44.5516C31.9967 43.733 35.0528 42.1356 36.9878 39.8035C38.5741 37.8914 38.9188 36.0289 38.9934 35.3171C39.0224 35.0429 38.915 34.7722 38.7062 34.5924Z" fill="#007F42"/>
<path d="M50.7994 41.3505C49.6619 38.2481 48.1147 36.0106 46.201 34.7001C44.7224 33.6878 43.0656 33.2386 41.2745 33.3675C41.1888 33.3737 41.1047 33.3928 41.0249 33.4245C40.1527 33.77 39.2058 34.0805 38.2102 34.3473C37.9764 34.4099 37.7808 34.5703 37.6737 34.7876C36.7646 36.6317 36.747 38.2199 37.6216 39.5076C38.717 41.121 41.1816 42.1061 44.9462 42.4356C45.9785 42.526 46.9629 42.5542 47.7884 42.5542C49.1041 42.5542 50.0167 42.4827 50.0775 42.4778C50.3393 42.4567 50.5764 42.3144 50.7181 42.0931C50.8598 41.872 50.89 41.5973 50.7994 41.3505Z" fill="#00A35C"/>
<path d="M50.7991 41.3505C49.6616 38.2481 48.1143 36.0106 46.2006 34.7001C44.722 33.6878 43.0652 33.2386 41.2742 33.3675C41.1885 33.3737 41.1043 33.3928 41.0246 33.4245C40.8253 33.5034 40.6217 33.5803 40.415 33.6555C41.176 33.8811 41.9031 34.2289 42.5912 34.7002C44.5316 36.0289 46.095 38.3104 47.2368 41.4803C47.308 42.0332 46.926 42.4412 46.4679 42.478C46.4429 42.48 46.2728 42.4932 45.9921 42.5082C46.6379 42.542 47.2474 42.5545 47.7881 42.5545C49.1038 42.5545 50.0164 42.483 50.0771 42.4781C50.339 42.457 50.5761 42.3147 50.7177 42.0934C50.8595 41.872 50.8897 41.5973 50.7991 41.3505Z" fill="#007F42"/>
<path d="M39.4776 13.5509C39.1885 13.4851 38.8859 13.5765 38.6815 13.7915C38.4772 14.0065 38.4013 14.3133 38.4819 14.5988C39.0145 16.4864 39.0012 18.7686 38.4462 20.7038C38.3302 21.1083 38.1914 21.4898 38.0322 21.8426C35.3552 22.4218 32.6429 22.8277 29.9582 23.0506C29.758 22.8199 29.5867 22.5704 29.4466 22.3057C29.3259 22.0775 29.1072 21.9174 28.8531 21.8715C28.5992 21.8251 28.3381 21.8987 28.1451 22.0702C27.3332 22.7916 26.2247 23.1731 24.9395 23.1731C23.6544 23.1731 22.5459 22.7918 21.7339 22.0702C21.5409 21.8988 21.2799 21.8251 21.0258 21.8715C20.7718 21.9174 20.5531 22.0776 20.4324 22.3057C20.2924 22.5705 20.121 22.8201 19.9208 23.0506C17.1349 22.8164 14.4131 22.3886 11.8187 21.7774C11.6706 21.4416 11.5413 21.082 11.433 20.7039C10.9094 18.8784 10.8694 16.6965 11.3259 14.8675C11.3978 14.5793 11.3122 14.2745 11.101 14.0658C10.8896 13.8572 10.5837 13.7753 10.2964 13.851C1.78629 16.0906 0 19.8882 0 22.6795C0 26.8032 1.79695 30.2867 5.19662 32.7534C9.47205 35.8555 16.303 37.4283 25.5 37.4283C34.6969 37.4283 41.528 35.8554 45.8034 32.7534C49.203 30.2868 51 26.8032 51 22.6795C51 19.7118 49.0009 15.7191 39.4776 13.5509Z" fill="#B79274"/>
<path d="M39.4782 13.5509C39.1891 13.4851 38.8865 13.5765 38.6821 13.7915C38.57 13.9094 38.4983 14.0552 38.468 14.2096C45.8552 16.462 47.4955 19.9912 47.4955 22.6794C47.4955 26.8031 45.6986 30.2866 42.2989 32.7533C38.2997 35.6549 32.064 37.2182 23.748 37.4082C24.3225 37.4214 24.9064 37.4282 25.5006 37.4282C34.6975 37.4282 41.5286 35.8553 45.804 32.7533C49.2036 30.2868 51.0006 26.8032 51.0006 22.6795C51.0006 19.7118 49.0015 15.7191 39.4782 13.5509Z" fill="#614B35"/>
<path d="M7.82089 14.8677C7.36438 16.6966 7.40452 18.8786 7.92807 20.7041C8.03644 21.082 8.16584 21.4416 8.31376 21.7776C10.9083 22.3888 13.6302 22.8166 16.4159 23.0508C16.5168 22.9346 16.6101 22.8137 16.6961 22.6883C15.0326 22.4543 13.4017 22.1506 11.8187 21.7776C11.6707 21.4417 11.5414 21.0821 11.433 20.7041C10.9095 18.8786 10.8694 16.6966 11.3259 14.8677C11.3979 14.5795 11.3123 14.2746 11.101 14.066C10.8897 13.8574 10.5838 13.7755 10.2965 13.8512C9.40637 14.0855 8.59077 14.337 7.84211 14.6025C7.84848 14.6903 7.8429 14.7798 7.82089 14.8677Z" fill="#614B35"/>
<path d="M31.7748 32.9122C29.8629 32.9122 27.9897 32.8365 26.1586 32.6848C20.9163 32.2505 16.0076 31.1958 11.5684 29.5499C3.95904 26.7288 0.390931 23.1756 0.242812 23.0256C-0.0836079 22.6955 -0.08052 22.1632 0.249685 21.8367C0.579791 21.5104 1.112 21.5135 1.43842 21.8435C1.50905 21.9139 4.99717 25.3413 12.2603 28.0132C16.5517 29.5919 21.3025 30.6024 26.381 31.0162C32.7405 31.5345 39.6349 31.1141 46.873 29.7663C47.3297 29.6807 47.7684 29.9825 47.8534 30.4389C47.9384 30.8953 47.6372 31.3343 47.1808 31.4193C41.843 32.413 36.6829 32.9122 31.7748 32.9122Z" fill="#83674D"/>
<path d="M17.6935 31.3553C17.2451 31.3553 16.8726 31.0011 16.8542 30.5489C16.8353 30.085 17.1961 29.6936 17.6599 29.6747C40.8539 28.7297 49.357 21.1392 49.4401 21.0626C49.7817 20.7483 50.3135 20.7704 50.6281 21.1118C50.9424 21.4535 50.9204 21.9852 50.5789 22.2998C50.4872 22.3842 48.2717 24.3928 43.0839 26.513C38.3615 28.4429 30.1293 30.8496 17.7285 31.3547C17.7167 31.355 17.7051 31.3553 17.6935 31.3553Z" fill="#83674D"/>
<path d="M29.9846 30.0992C29.9581 30.0992 29.9315 30.0978 29.9046 30.0955C29.8776 30.093 27.1675 29.8342 24.1541 29.3134C20.0138 28.598 17.2762 27.7395 16.0174 26.7615C15.6507 26.4767 15.5844 25.9485 15.8692 25.5821C16.1539 25.2152 16.6819 25.149 17.0487 25.4338C19.1616 27.0751 27.1593 28.147 30.0626 28.4215C30.5249 28.4653 30.8642 28.8753 30.8204 29.3376C30.7794 29.7729 30.413 30.0992 29.9846 30.0992Z" fill="#83674D"/>
<path d="M21.7337 22.0698C20.7041 21.1551 20.16 19.6896 20.16 17.8316C20.16 16.8116 20.3228 15.7124 20.6311 14.6526C20.7003 14.4146 20.661 14.1584 20.5235 13.952C18.4327 10.8126 15.5964 9.20986 13.2976 9.86947C11.6054 10.3547 10.3308 11.9644 9.70845 14.4021C9.16817 16.5183 9.20851 19.0472 9.81653 21.167C9.99204 21.779 10.2155 22.3552 10.4804 22.8796C10.5913 23.0989 10.7927 23.2589 11.0316 23.317C13.953 24.0294 17.0337 24.5145 20.1881 24.7584C20.2097 24.7601 20.2313 24.7609 20.253 24.7609C20.4701 24.7609 20.6799 24.6767 20.8372 24.5247C21.276 24.1005 21.64 23.6181 21.9187 23.091C22.0996 22.7489 22.0233 22.327 21.7337 22.0698Z" fill="#FFDCAF"/>
<path d="M20.1606 17.8319C20.1606 16.8119 20.3234 15.7126 20.6317 14.6529C20.701 14.4149 20.6616 14.1586 20.5242 13.9522C20.0016 13.1675 19.4324 12.4788 18.8367 11.8976C17.9309 13.6846 17.3994 15.8531 17.3994 17.832C17.3994 20.0347 18.0535 21.8545 19.291 23.0948C19.8 23.605 20.3942 24.008 21.0579 24.2992C21.399 23.9321 21.6887 23.5274 21.9192 23.0915C22.1002 22.749 22.0239 22.3274 21.7343 22.0701C20.7049 21.1553 20.1606 19.6897 20.1606 17.8319Z" fill="#D3B492"/>
<path d="M40.1699 14.4027C39.5476 11.9651 38.273 10.3553 36.5808 9.87011C34.2821 9.21039 31.4455 10.8133 29.3548 13.9526C29.2174 14.159 29.178 14.4153 29.2473 14.6533C29.5555 15.7129 29.7184 16.8122 29.7184 17.8323C29.7184 19.69 29.1742 21.1557 28.1447 22.0705C27.8551 22.3278 27.7788 22.7495 27.9598 23.0919C28.2383 23.6186 28.602 24.1009 29.0407 24.5251C29.198 24.6772 29.4077 24.7614 29.625 24.7614C29.6463 24.7614 29.6677 24.7606 29.6891 24.759C32.7151 24.5276 35.7779 24.0694 38.793 23.397C39.0355 23.343 39.2416 23.1842 39.356 22.964C39.6385 22.42 39.8759 21.8159 40.0618 21.1679V21.1678C40.6698 19.0479 40.7102 16.5189 40.1699 14.4027Z" fill="#FFDCAF"/>
<path d="M32.4456 17.8322C32.4456 15.8617 31.9187 13.703 31.0198 11.9205C30.4323 12.4973 29.8708 13.1779 29.3548 13.9526C29.2174 14.159 29.178 14.4152 29.2472 14.6533C29.5555 15.7129 29.7184 16.8121 29.7184 17.8322C29.7184 19.69 29.1742 21.1556 28.1447 22.0704C27.8551 22.3277 27.7788 22.7495 27.9598 23.0918C28.1881 23.5236 28.4745 23.9249 28.8117 24.2893C29.4656 23.9989 30.051 23.5991 30.5538 23.0951C31.7914 21.8548 32.4456 20.035 32.4456 17.8322Z" fill="#D3B492"/>
<path d="M29.6398 11.3002C28.3695 9.12851 26.7006 7.9325 24.9402 7.9325C23.1798 7.9325 21.5108 9.12851 20.2405 11.3002C19.1378 13.1855 18.4795 15.6275 18.4795 17.8326C18.4795 20.0352 19.1336 21.8551 20.3711 23.0953C21.5196 24.2463 23.0994 24.8547 24.9402 24.8547C26.7808 24.8547 28.3607 24.2463 29.5092 23.0953C30.7467 21.8551 31.4008 20.0352 31.4008 17.8326C31.4008 15.6275 30.7425 13.1855 29.6398 11.3002Z" fill="#FFDCAF"/>
<path d="M29.6396 11.3002C28.3693 9.12851 26.7003 7.9325 24.9399 7.9325C24.4039 7.9325 23.8766 8.04406 23.3662 8.25941C24.532 8.75178 25.6085 9.78961 26.4921 11.3C27.5947 13.1853 28.2531 15.6273 28.2531 17.8324C28.2531 20.035 27.599 21.8549 26.3615 23.0951C25.5559 23.9025 24.5374 24.4418 23.3662 24.6925C23.8647 24.7992 24.3904 24.8546 24.9399 24.8546C26.7805 24.8546 28.3605 24.2462 29.509 23.0952C30.7465 21.855 31.4006 20.0351 31.4006 17.8325C31.4006 15.6275 30.7423 13.1855 29.6396 11.3002Z" fill="#D3B492"/>
<path d="M24.8578 24.9332C21.7863 24.9332 19.073 24.7075 16.8065 24.4019C9.66286 23.4386 5.38663 21.5416 5.20803 21.4616C4.78459 21.2711 4.59573 20.7735 4.78599 20.35C4.97644 19.9268 5.47399 19.738 5.89743 19.928C5.96696 19.9589 10.201 21.8232 17.1003 22.7451C23.4791 23.5972 33.5108 23.795 45.077 19.8982C45.517 19.7498 45.9938 19.9864 46.142 20.4264C46.2903 20.8664 46.0537 21.3433 45.6138 21.4914C37.8154 24.1189 30.6914 24.9332 24.8578 24.9332Z" fill="#83674D"/>
</svg>
