<svg width="174" height="189" viewBox="0 0 174 189" fill="none" xmlns="http://www.w3.org/2000/svg">
<circle cx="87.1933" cy="106.678" r="82.3222" fill="#39765A" fill-opacity="0.1"/>
<path d="M72.3867 65.1408L75.9247 50.2308C89.7396 34.31 119.694 5.29868 128.994 16.6202C138.294 27.9416 132.869 39.1957 128.994 43.4076L72.3867 65.1408Z" fill="#B6CDF0"/>
<path d="M107.514 32.7926C96.6635 36.4514 80.4743 54.1893 75.1674 61.0968C74.325 63.4553 72.5897 64.9881 72.3875 52.2514C72.1348 36.3306 130.764 2.21496 135.818 0.445979C140.872 -1.323 141.778 2.17857 138.851 10.8072C134.048 24.9622 129.247 25.464 107.514 32.7926Z" fill="#6172A9"/>
<path d="M7.94629 40.3775L41.0515 53.5186L34.9864 39.3667L7.94629 40.3775Z" fill="#D07845"/>
<path d="M0.615589 40.6309C1.37412 40.6306 26.4764 41.8102 39.2805 42.1472L40.0392 31.0279C39.618 29.4274 38.1692 26.6307 35.7431 28.248C32.7106 30.2697 6.93338 37.5984 2.88999 38.3565C-1.15339 39.1147 0.0505088 40.6311 0.615589 40.6309Z" fill="#F6B86E"/>
<path d="M95.3921 175.55C91.7376 168.265 92.3998 148.155 93.6542 138.745C96.8571 110.442 111.287 112.535 114.95 124.746C118.614 136.958 113.425 170.929 109.048 178.341C104.671 185.752 100.467 185.665 95.3921 175.55Z" fill="#6172A9"/>
<path d="M116.631 177.677C110.471 172.341 103.402 153.503 100.967 144.327C93.1164 116.946 107.252 113.369 115.301 123.255C123.351 133.141 131.531 166.52 130.317 175.041C129.103 183.562 125.184 185.087 116.631 177.677Z" fill="#7192CE"/>
<path d="M136.575 175.831C129.476 171.827 118.801 154.771 114.589 146.263C101.448 120.992 114.589 114.675 124.444 122.761C134.3 130.848 148.957 161.932 149.463 170.524C149.968 179.116 146.431 181.391 136.575 175.831Z" fill="#91B9ED"/>
<path d="M96.647 134.891C74.2062 133.475 66.5743 112.736 65.5634 102.543C60.7619 76.2615 99.6795 90.1606 111.052 98.2474C122.424 106.334 125.709 118.464 126.72 124.529C127.731 130.594 124.698 136.66 96.647 134.891Z" fill="#91B9ED"/>
<path fill-rule="evenodd" clip-rule="evenodd" d="M43.7191 57.5606C37.028 54.1244 32.4502 47.1545 32.4502 39.1153C32.4502 27.6707 41.7279 18.3929 53.1726 18.3929C59.4126 18.3929 65.0085 21.1511 68.8076 25.5147C69.6621 26.2737 70.4368 27.2596 71.1142 28.5015C76.7615 38.8549 79.3252 53.5294 80.2693 63.5997C90.6063 69.0666 97.65 79.9289 97.65 92.4364C97.65 110.441 83.0546 125.036 65.0502 125.036C47.0458 125.036 32.4504 110.441 32.4504 92.4364C32.4504 85.5707 34.5728 79.2008 38.1973 73.9468C38.198 73.8811 38.2192 73.8112 38.2617 73.7369C40.2833 70.199 43.0632 65.1447 44.074 61.8595C44.1188 61.714 44.1462 61.5627 44.1576 61.4064C44.2545 60.081 44.0757 58.8053 43.7191 57.5606Z" fill="#91B9ED"/>
<path d="M32.4561 39.1145C32.4561 46.0572 35.8696 52.2022 41.1114 55.9623C41.2891 56.1785 41.4727 56.3917 41.6583 56.602C43.2851 58.4341 44.5211 60.4292 44.0808 61.8586C43.0699 65.1438 40.2901 70.1981 38.2684 73.736C38.227 73.8101 38.2052 73.8802 38.2033 73.9453C34.5784 79.1999 32.4561 85.57 32.4561 92.4367C32.4561 110.441 47.0521 125.036 65.0559 125.036C75.7566 125.036 85.255 119.88 91.1997 111.915L87.7999 105.325C77.186 105.325 56.5644 101.181 58.9908 84.6026C61.8812 64.8536 61.5574 64.1557 53.6463 47.071L52.4203 44.4215C52.1439 43.8233 51.8576 43.2487 51.5575 42.6969C53.441 41.541 54.6947 39.464 54.6947 37.0928C54.6947 33.4641 51.753 30.5223 48.1242 30.5223C46.6948 30.5223 45.372 30.9784 44.294 31.7533C43.6583 32.2104 43.1094 32.78 42.6711 33.4295C39.9249 31.8876 37.0246 31.0564 34.2349 30.703C33.0918 33.2735 32.4561 36.1195 32.4561 39.1145Z" fill="#DCEDFD"/>
<path d="M143.399 70.9575C154.519 64.6902 155.614 54.8681 154.771 50.7405L127.731 47.9607L97.6587 60.3436L71.6292 76.5171C63.7951 80.9817 52.9285 93.3477 72.1346 107.095C91.3407 120.843 107.261 109.791 112.821 102.546C121.11 99.7161 127.563 92.2695 129.753 88.9C138.244 85.8675 142.388 75.6747 143.399 70.9575Z" fill="#DCEDFD"/>
<path d="M124.204 130.847C123.396 138.529 112.59 142.724 108.547 141.714C102.903 138.091 106.756 137.165 105.244 135.396C117.048 134.417 116.623 135.649 124.204 130.847Z" fill="#7192CE"/>
<path fill-rule="evenodd" clip-rule="evenodd" d="M73.9005 72.725C63.792 77.1732 53.1782 76.7684 49.1348 76.0103C49.7074 77.7393 50.2543 79.4114 50.7816 81.0232L50.7816 81.0232C54.3176 91.8327 56.9668 99.9311 60.5068 104.314C60.8589 104.75 61.1899 105.161 61.5033 105.551C65.912 111.032 66.8222 112.164 73.9005 115.939C89.5023 124.26 108.411 127.237 114.293 118.692C115.74 116.589 116.407 114.092 116.37 111.372L116.415 111.383C118.597 111.903 119.389 111.952 120.89 112.044C121.324 112.071 121.817 112.101 122.421 112.148L115.093 101.534C115.092 101.534 115.092 101.535 115.092 101.535L115.092 101.533L97.1912 94.828C96.1894 94.4527 95.06 94.7223 94.3357 95.5096C93.1139 96.8377 93.5638 98.974 95.2175 99.6965L108.223 105.379C101.599 108.684 94.4453 111.137 89.0632 111.137C81.7346 111.137 70.6153 107.347 66.3192 100.776C62.0231 94.2055 70.1098 93.7001 73.9005 93.9528C76.9331 94.155 77.5227 92.8577 77.4385 92.1838C77.2363 90.1621 74.3217 89.8252 72.8897 89.9094C68.2288 84.6893 79.5425 83.3661 87.2111 83.3238L109.103 87.4457L129.327 90.9679C130.464 91.166 131.536 90.3717 131.677 89.2257C131.809 88.1577 131.08 87.1741 130.02 86.9894L109.598 83.4327L86.4991 79.0836C85.5574 73.0196 95.6942 72.6475 100.941 73.2305L100.94 73.2297L144.914 71.9947C146.018 71.9637 146.903 71.0717 146.926 69.9677C146.949 68.8241 146.04 67.8784 144.897 67.8559L99.9267 66.9679C99.9335 65.3768 100.092 63.8444 100.242 62.3881C100.314 61.6879 100.384 61.0053 100.435 60.3422C95.8015 62.6166 84.009 68.2769 73.9005 72.725Z" fill="#ADC3E5"/>
<path d="M152.498 33.5504C120.151 35.1677 70.9561 62.783 49.1387 76.0082C52.9293 77.0192 63.0378 81.0625 88.0563 67.161C116.833 51.1714 152.648 53.4754 157.552 52.251C164.628 50.4843 192.932 31.5287 152.498 33.5504Z" fill="#91B9ED"/>
<circle cx="48.1249" cy="37.0917" r="3.53796" fill="#524F4F"/>
<path fill-rule="evenodd" clip-rule="evenodd" d="M122.952 112.526C120.811 112.288 118.622 111.909 116.411 111.382L116.366 111.371C116.403 114.091 115.736 116.588 114.289 118.691C108.407 127.236 89.4982 124.259 73.8964 115.938C71.1831 114.491 69.3761 113.432 67.931 112.368C66.5677 108.721 65.8288 105.258 65.5595 102.543C65.2633 100.922 65.1335 99.4537 65.1533 98.1274C65.3906 99.0481 65.7692 99.9401 66.3151 100.775C70.6112 107.345 81.7305 111.136 89.0591 111.136C96.3775 111.136 106.972 106.6 115.054 101.554C115.159 101.654 115.262 101.754 115.365 101.854L119.403 106.546C120.837 108.529 122.003 110.552 122.952 112.526Z" fill="#7192CE"/>
</svg>
