<svg width="137" height="137" viewBox="0 0 137 137" fill="none" xmlns="http://www.w3.org/2000/svg">
<path d="M62.5 74C61.3 71.6 59.6667 60.3333 59 55L64.5 53C64.3333 56.1667 64.1 62.9 64.5 64.5C64.9 66.1 66.3333 71.1667 67 73.5C66 74.6667 63.7 76.4 62.5 74Z" fill="#EB755A"/>
<path d="M75.5 74.5L67 52.5L69.5 50.5L76.5 64.5C77.3 66.1 80.1667 72.8333 81.5 76L75.5 74.5Z" fill="#EB755A"/>
<path d="M107.501 9.5C106.701 7.9 98.6667 5.83333 95 5C93.6667 9.16667 91.8005 17.3 93.0005 16.5C94.5005 15.5 104.001 14 106.001 14C108.001 14 108.501 11.5 107.501 9.5Z" fill="#F7CE6B"/>
<path fill-rule="evenodd" clip-rule="evenodd" d="M77.7842 120.905C98.4021 120.365 114 117.149 114 102C114 84.8792 94.0767 71 69.5 71C44.9233 71 25 84.8792 25 102C25 116.899 40.0878 120.256 60.2003 120.876C61.3761 123.054 62 125.501 62 128V128.091C62 129.698 63.3024 131 64.9091 131H73.0909C74.6976 131 76 129.698 76 128.091V128C76 125.512 76.6184 123.076 77.7842 120.905Z" fill="#C4C4C4"/>
<circle cx="28.5" cy="108.5" r="28.5" fill="#656C76"/>
<path fill-rule="evenodd" clip-rule="evenodd" d="M25 136.787C39.089 135.062 50 123.055 50 108.5C50 93.9448 39.089 81.9381 25 80.2128C26.147 80.0723 27.3151 80 28.5 80C44.2401 80 57 92.7599 57 108.5C57 124.24 44.2401 137 28.5 137C27.3151 137 26.147 136.928 25 136.787Z" fill="#545C65"/>
<circle cx="28.5" cy="108.5" r="19.5" fill="#6BBFE4"/>
<path fill-rule="evenodd" clip-rule="evenodd" d="M28.5753 97.0011C29.7402 96.9599 30.5479 98.0475 30.3847 99.2016C30.2215 100.356 29.1408 101.129 27.9851 101.281C27.4628 101.35 26.9471 101.472 26.4461 101.646C25.2773 102.052 24.2222 102.732 23.3685 103.627C22.5149 104.523 21.8872 105.61 21.5378 106.797C21.388 107.306 21.2912 107.827 21.2477 108.352C21.1515 109.513 20.4311 110.63 19.2861 110.849C18.1412 111.067 17.0159 110.313 17.001 109.147C16.9857 107.953 17.1488 106.759 17.4884 105.605C18.0275 103.774 18.9957 102.097 20.3126 100.715C21.6295 99.3334 23.2571 98.2855 25.0603 97.6588C26.1963 97.2639 27.3813 97.0434 28.5753 97.0011ZM28.4247 119.986C27.2598 120.027 26.4521 118.94 26.6153 117.786C26.7785 116.631 27.8592 115.858 29.0149 115.706C29.5372 115.637 30.0529 115.515 30.5539 115.341C31.7227 114.935 32.7778 114.256 33.6315 113.36C34.4851 112.464 35.1128 111.377 35.4622 110.19C35.612 109.682 35.7088 109.161 35.7523 108.636C35.8485 107.474 36.5689 106.357 37.7139 106.139C38.8588 105.92 39.9841 106.674 39.999 107.84C40.0143 109.034 39.8512 110.229 39.5116 111.382C38.9725 113.214 38.0043 114.89 36.6874 116.272C35.3705 117.654 33.7429 118.702 31.9397 119.328C30.8037 119.723 29.6187 119.944 28.4247 119.986Z" fill="#7FD1ED"/>
<circle cx="108.5" cy="108.5" r="28.5" fill="#656C76"/>
<path fill-rule="evenodd" clip-rule="evenodd" d="M105 136.787C119.089 135.062 130 123.055 130 108.5C130 93.9448 119.089 81.9381 105 80.2128C106.147 80.0723 107.315 80 108.5 80C124.24 80 137 92.7599 137 108.5C137 124.24 124.24 137 108.5 137C107.315 137 106.147 136.928 105 136.787Z" fill="#545C65"/>
<circle cx="108.5" cy="108.5" r="19.5" fill="#6BBFE4"/>
<path fill-rule="evenodd" clip-rule="evenodd" d="M108.575 97.0011C109.74 96.9599 110.548 98.0475 110.385 99.2016C110.222 100.356 109.141 101.129 107.985 101.281C107.463 101.35 106.947 101.472 106.446 101.646C105.277 102.052 104.222 102.732 103.369 103.627C102.515 104.523 101.887 105.61 101.538 106.797C101.388 107.306 101.291 107.827 101.248 108.352C101.152 109.513 100.431 110.63 99.2861 110.849C98.1412 111.067 97.0159 110.313 97.001 109.147C96.9857 107.953 97.1488 106.759 97.4884 105.605C98.0275 103.774 98.9957 102.097 100.313 100.715C101.63 99.3334 103.257 98.2855 105.06 97.6588C106.196 97.2639 107.381 97.0434 108.575 97.0011ZM108.425 119.986C107.26 120.027 106.452 118.94 106.615 117.786C106.778 116.631 107.859 115.858 109.015 115.706C109.537 115.637 110.053 115.515 110.554 115.341C111.723 114.935 112.778 114.256 113.631 113.36C114.485 112.464 115.113 111.377 115.462 110.19C115.612 109.682 115.709 109.161 115.752 108.636C115.848 107.474 116.569 106.357 117.714 106.139C118.859 105.92 119.984 106.674 119.999 107.84C120.014 109.034 119.851 110.229 119.512 111.382C118.972 113.214 118.004 114.89 116.687 116.272C115.37 117.654 113.743 118.702 111.94 119.328C110.804 119.723 109.619 119.944 108.425 119.986Z" fill="#7FD1ED"/>
<circle cx="68.5" cy="86.5" r="7.5" fill="#E5E5E5"/>
<rect x="64" y="101" width="9" height="5" rx="2.5" fill="#636A74"/>
<rect x="64" y="110" width="9" height="5" rx="2.5" fill="#636A74"/>
<path d="M93.5179 31.5C93.5179 45.031 78.9672 56 61.0179 56C43.0687 56 38.3752 44 38.3752 44C64.0181 19 66.5181 19 77.5179 9.5C95.4672 9.5 93.5179 17.969 93.5179 31.5Z" fill="#699CE4"/>
<path d="M96.5179 9.5C96.5179 14.7467 92.2646 19 87.0179 19C81.7712 19 77.5179 14.7467 77.5179 9.5C77.5179 4.25329 81.7712 0 87.0179 0C92.2646 0 96.5179 4.25329 96.5179 9.5Z" fill="#699CE4"/>
<path d="M93.5179 31.5V13.5L84.5179 22.5L93.5179 31.5Z" fill="#699CE4"/>
<path d="M11.4937 61.4084C10.8259 60.9975 10.8379 60.0226 11.5157 59.6283L38.3752 44L45.0176 51.4999L21.885 62.0518C18.5304 63.582 14.6339 63.3408 11.4937 61.4084Z" fill="#699CE4"/>
<mask id="mask0" mask-type="alpha" maskUnits="userSpaceOnUse" x="11" y="0" width="86" height="64">
<path d="M93.5179 31.5C93.5179 45.031 78.9672 56 61.0179 56C43.0687 56 38.3752 44 38.3752 44C64.0181 19 66.5181 19 77.5179 9.5C95.4672 9.5 93.5179 17.969 93.5179 31.5Z" fill="#699CE4"/>
<path d="M96.5179 9.5C96.5179 14.7467 92.2646 19 87.0179 19C81.7712 19 77.5179 14.7467 77.5179 9.5C77.5179 4.25329 81.7712 0 87.0179 0C92.2646 0 96.5179 4.25329 96.5179 9.5Z" fill="#699CE4"/>
<path d="M93.5179 31.5V13.5L84.5179 22.5L93.5179 31.5Z" fill="#699CE4"/>
<path d="M11.4937 61.4084C10.8259 60.9975 10.8379 60.0226 11.5157 59.6283L38.3752 44L45.0176 51.4999L21.885 62.0518C18.5304 63.582 14.6339 63.3408 11.4937 61.4084Z" fill="#699CE4"/>
</mask>
<g mask="url(#mask0)">
<path fill-rule="evenodd" clip-rule="evenodd" d="M77.4267 26.3127C78.3586 25.7197 79.5947 25.9944 80.1878 26.9263C82.1812 30.0589 82.7676 33.3312 81.694 36.3043C80.6345 39.2385 78.1108 41.454 74.7697 42.8462C73.27 43.471 67.1592 46.882 61.1566 50.4849C58.1896 52.2657 55.3136 54.0546 53.1275 55.5145C52.0311 56.2467 51.1343 56.8787 50.4941 57.3754C50.1722 57.6252 49.9425 57.8196 49.794 57.9599C49.7516 57.9999 49.7221 58.0298 49.7027 58.0501C49.1655 58.9232 48.0403 59.256 47.106 58.7889C46.1181 58.2949 45.7176 57.0935 46.2116 56.1056C46.4449 55.639 46.8208 55.266 47.0473 55.052C47.3277 54.7872 47.6695 54.5042 48.0423 54.2149C48.7917 53.6336 49.7781 52.9413 50.9061 52.188C53.1686 50.6771 56.1062 48.851 59.0981 47.0552C65.0134 43.5048 71.4027 39.9158 73.2312 39.1539C75.89 38.046 77.3664 36.5115 77.9318 34.9457C78.4832 33.4188 78.3196 31.4411 76.8131 29.0738C76.2201 28.1419 76.4948 26.9057 77.4267 26.3127Z" fill="#5588D4"/>
</g>
<path fill-rule="evenodd" clip-rule="evenodd" d="M92.4427 9.5C92.4427 12.2323 91.2893 14.6952 89.4427 16.4282V21.7882C89.5341 23.6396 89.5059 25.674 89.4755 27.8732C89.4595 29.0369 89.4427 30.2467 89.4427 31.5C89.4427 44.5101 75.9908 55.1516 59 55.9517C59.6296 55.9835 60.2771 56 60.9427 56C78.892 56 93.4427 45.031 93.4427 31.5C93.4427 30.2467 93.4595 29.0369 93.4756 27.8732V27.873C93.506 25.6739 93.5341 23.6395 93.4427 21.7881V16.4282C95.2893 14.6952 96.4427 12.2323 96.4427 9.5C96.4427 4.25329 92.1894 0 86.9427 0C86.2567 0 85.5876 0.0727289 84.9427 0.210897C89.2291 1.12935 92.4427 4.93938 92.4427 9.5Z" fill="#5588D4"/>
</svg>
