<svg width="51" height="52" viewBox="0 0 51 52" fill="none" xmlns="http://www.w3.org/2000/svg">
<path d="M27.89 26.5469V24.6479L29.9244 25.6647L30.6369 24.2391L28.6781 23.2598L29.9268 22.427L29.0423 21.101L27.0366 22.4382L25.5608 21.7003L28.3004 20.0563L27.4812 18.6897L23.8714 20.8556L22.3741 20.1065L25.1137 18.4626C25.3544 18.3183 25.501 18.0594 25.5002 17.7789C25.5002 17.4992 25.3536 17.2394 25.1137 17.0959L22.3741 15.452L23.8722 14.7029L27.482 16.8688L28.3012 15.5022L25.5616 13.8582L27.0366 13.1211L29.0423 14.4583L29.9268 13.1315L28.6781 12.2995L30.6369 11.3202L29.9244 9.89458L27.89 10.913V9.01562H26.2963V11.7107L24.7025 12.5075V9.01562H23.1088V13.3044L21.5142 14.1013V9.8125C21.5142 9.51845 21.3533 9.24831 21.0943 9.10966C20.8345 8.971 20.5205 8.98694 20.2759 9.1487L16.7338 11.5106V9.38856L21.2289 5.64245L20.2089 4.41766L16.7346 7.3135V5.36195L18.8925 3.20402L17.7649 2.07644L16.7346 3.10759V1.84375H15.14V3.1068L14.1097 2.07644L12.9821 3.20402L15.14 5.36195V7.3143L11.6656 4.41925L10.6456 5.64405L15.14 9.38856V11.5106L11.5963 9.1487C11.3525 8.98694 11.0401 8.9702 10.7787 9.10966C10.5197 9.24831 10.358 9.51845 10.358 9.8125L10.3588 14.1013L8.76502 13.3044V9.01562H7.17127V12.5075L5.57593 11.7099V9.01562H3.98218V10.913L1.94855 9.89617L1.23615 11.3218L3.19487 12.3011L1.94537 13.1339L2.8299 14.4599L4.83643 13.1219L6.31304 13.8598L3.57259 15.5038L4.39177 16.8704L8.00241 14.7045L9.49974 15.4536L6.76009 17.0975C6.52102 17.241 6.3744 17.5008 6.3744 17.7805C6.3736 18.061 6.52102 18.3199 6.76088 18.4642L9.49974 20.1081L8.00162 20.8572L4.39177 18.6913L3.57259 20.0579L6.31145 21.7019L4.83563 22.4398L2.8307 21.1026L1.94616 22.4286L3.19407 23.2614L1.23535 24.2407L1.94776 25.6663L3.98138 24.6495V26.5469H5.57513V23.8518L7.16968 23.055V26.5469H8.76343L8.76423 22.2573L10.358 21.4604L10.3572 25.75C10.3572 26.044 10.5189 26.3142 10.7779 26.4528C11.0393 26.5923 11.3525 26.5764 11.5955 26.4138L15.14 24.0511V26.1731L10.6441 29.9192L11.6641 31.144L15.14 28.2466V30.199L12.9813 32.3577L14.1089 33.4853L15.14 32.4541V33.718H16.733V32.4549L17.7641 33.4853L18.8901 32.3577L16.733 30.2013V28.2474L20.2073 31.1433L21.2274 29.9185L16.7322 26.1723V24.0511L20.2743 26.413C20.409 26.5015 20.5636 26.5469 20.7181 26.5469C20.8464 26.5469 20.9755 26.515 21.0943 26.452C21.3533 26.3134 21.5142 26.0432 21.5142 25.75V21.4604L23.108 22.2573V26.5469H24.7017V23.0542L26.2963 23.851V26.5469H27.89ZM23.1534 17.7812L20.6831 19.2634L17.7179 17.7812L20.6831 16.2991L23.1534 17.7812ZM19.9205 11.3011V14.8982L16.733 16.4919V13.4263L19.9205 11.3011ZM11.9517 11.3011L15.14 13.4263V16.4919L11.9525 14.8982L11.9517 11.3011ZM8.7196 17.7812L11.1899 16.2983L14.1551 17.7805L11.1899 19.2626L8.7196 17.7812ZM11.9517 24.2606L11.9525 20.6635L15.14 19.0698V22.1362L11.9517 24.2606ZM19.9205 24.2606L16.733 22.1346V19.069L19.9205 20.6628V24.2606Z" fill="#92C0CF"/>
<path d="M49.0502 39.9599L48.1656 38.6331L45.9264 40.1256L44.0036 39.3017L45.7774 38.4147C46.0468 38.2801 46.2181 38.0035 46.2173 37.7015C46.2173 37.4003 46.0468 37.1238 45.7766 36.9891L44.0036 36.1022L45.9264 35.2782L48.1656 36.7708L49.0502 35.444L47.6756 34.5276L49.7188 33.6518L49.0908 32.1872L47.015 33.0773V31.3281H45.4212V33.7618L43.0306 34.7866L43.0298 32.1242C43.0298 31.8596 42.8991 31.6126 42.6808 31.4644C42.4624 31.317 42.1859 31.2875 41.9373 31.3839L39.0462 32.5402V30.2253L41.7922 28.8522L41.0798 27.4266L39.0454 28.4434V25.75H37.4525V28.445L35.4164 27.4274L34.704 28.853L37.4525 30.2268V32.5418L34.5598 31.3847C34.3128 31.2875 34.0355 31.317 33.8163 31.4652C33.598 31.6134 33.4673 31.8604 33.4673 32.125V34.7866L31.0767 33.7618V31.3281H29.4829V33.0797L27.4063 32.1895L26.7783 33.6542L28.8223 34.53L27.4477 35.4464L28.3322 36.7732L30.5714 35.2806L32.4935 36.1046L30.7205 36.9915C30.4503 37.1262 30.2798 37.4027 30.2798 37.7039C30.279 38.0059 30.4503 38.2817 30.7197 38.4171L32.4935 39.304L30.5706 40.128L28.3322 38.6355L27.4477 39.9615L28.8223 40.8779L26.7791 41.7536L27.4071 43.2183L29.4837 42.3282V44.0781H31.0775V41.6429L33.4681 40.6181V43.2812C33.4681 43.5458 33.5988 43.7928 33.8171 43.9411C33.9502 44.0311 34.1072 44.0781 34.2642 44.0781C34.3638 44.0781 34.4642 44.059 34.5598 44.0208L37.4525 42.8637V45.1786L34.7048 46.5524L35.4172 47.978L37.4525 46.9604V49.6555H39.0454V46.9604L41.0798 47.9772L41.7922 46.5516L39.0462 45.1786V42.8637L41.9373 44.02C42.0321 44.059 42.1325 44.0781 42.2321 44.0781C42.3891 44.0781 42.5461 44.0311 42.68 43.9411C42.8983 43.7928 43.029 43.5458 43.029 43.2812L43.0298 40.6189L45.4204 41.6437V44.0781H47.0142V42.3266L49.09 43.2167L49.718 41.752L47.6756 40.8763L49.0502 39.9599ZM43.6386 37.7031L42.0847 38.4801L40.2718 37.7031L42.0847 36.9262L43.6386 37.7031ZM41.436 33.3012L41.4368 35.4687L39.0454 36.4935V34.2574L41.436 33.3012ZM35.0602 33.3012L37.4525 34.2582V36.4943L35.0602 35.4687V33.3012ZM32.8577 37.7031L34.4116 36.9262L36.2245 37.7031L34.4116 38.4801L32.8577 37.7031ZM35.0602 42.1043V39.936L37.4525 38.9104V41.1472L35.0602 42.1043ZM41.436 42.1043L39.0454 41.148V38.9112L41.4368 39.936L41.436 42.1043Z" fill="#92C0CF"/>
<path d="M36.9286 13.1928L38.0562 14.3204L40.6404 11.7354V15.3898H42.2334V11.7362L44.8169 14.3204L45.9444 13.1928L43.361 10.6094H47.0146L47.0154 9.01562H43.3602L45.9444 6.43136L44.8169 5.30378L42.2334 7.88805V4.23438H40.6404V7.88884L38.0562 5.30378L36.9286 6.43136L39.5121 9.01562H35.8592L35.8584 10.6086H39.5121L36.9286 13.1928Z" fill="#92C0CF"/>
<path d="M14.0694 38.3064L12.9419 37.1788L10.3584 39.763V36.1094H8.76544V39.7638L6.18118 37.1788L5.0536 38.3064L7.63707 40.8906H3.9842L3.9834 42.4836H7.63707L5.0536 45.0678L6.18118 46.1954L8.76544 43.6104V47.2648H10.3584V43.6112L12.9419 46.1954L14.0694 45.0678L11.486 42.4844H15.1396L15.1404 40.8906H11.4852L14.0694 38.3064Z" fill="#92C0CF"/>
<path d="M33.4678 19.3739C34.3467 19.3739 35.0607 18.6591 35.0607 17.7802C35.0607 16.9012 34.3467 16.1864 33.4678 16.1864C32.588 16.1864 31.874 16.9012 31.874 17.7802C31.874 18.6591 32.588 19.3739 33.4678 19.3739Z" fill="#39829B"/>
<path d="M43.8271 25.75C43.8271 26.629 44.5411 27.3438 45.4209 27.3438C46.2999 27.3438 47.0139 26.629 47.0139 25.75C47.0139 24.871 46.2999 24.1562 45.4209 24.1562C44.5411 24.1562 43.8271 24.8703 43.8271 25.75Z" fill="#39829B"/>
<path d="M21.5146 40.0938C20.6349 40.0938 19.9209 40.8085 19.9209 41.6875C19.9209 42.5665 20.6349 43.2812 21.5146 43.2812C22.3936 43.2812 23.1076 42.5665 23.1076 41.6875C23.1076 40.8078 22.3936 40.0938 21.5146 40.0938Z" fill="#39829B"/>
<path d="M7.1701 31.3281C7.1701 30.4492 6.4561 29.7344 5.57715 29.7344C4.6974 29.7344 3.9834 30.4492 3.9834 31.3281C3.9834 32.2071 4.6974 32.9219 5.57715 32.9219C6.4561 32.9211 7.1701 32.2063 7.1701 31.3281Z" fill="#39829B"/>
<path d="M34.7149 16.8011C34.4232 16.4305 33.9754 16.1875 33.4678 16.1875C32.588 16.1875 31.874 16.9023 31.874 17.7813C31.874 18.2395 32.0709 18.649 32.3808 18.9399C33.5108 18.7335 34.4089 17.8936 34.7149 16.8011Z" fill="#92C0CF"/>
<path d="M46.668 24.7698C46.3763 24.3993 45.9285 24.1562 45.4209 24.1562C44.5411 24.1562 43.8271 24.871 43.8271 25.75C43.8271 26.2082 44.024 26.6178 44.334 26.9087C45.4639 26.7023 46.362 25.8624 46.668 24.7698Z" fill="#92C0CF"/>
<path d="M22.7618 40.7073C22.4701 40.3368 22.0223 40.0938 21.5146 40.0938C20.6349 40.0938 19.9209 40.8085 19.9209 41.6875C19.9209 42.1457 20.1177 42.5553 20.4277 42.8462C21.5577 42.6398 22.4558 41.7999 22.7618 40.7073Z" fill="#92C0CF"/>
<path d="M6.82426 30.348C6.5326 29.9774 6.08476 29.7344 5.57715 29.7344C4.6974 29.7344 3.9834 30.4492 3.9834 31.3281C3.9834 31.7863 4.18023 32.1959 4.49021 32.4868C5.62018 32.2804 6.51826 31.4405 6.82426 30.348Z" fill="#92C0CF"/>
</svg>
