<svg width="24" height="24" viewBox="0 0 24 24" fill="none" xmlns="http://www.w3.org/2000/svg">
<path d="M13.225 12L18.7375 6.4875C19.0875 6.1375 19.0875 5.6125 18.7375 5.2625C18.3875 4.9125 17.8625 4.9125 17.5125 5.2625L12 10.775L6.4875 5.2625C6.1375 4.9125 5.6125 4.9125 5.2625 5.2625C4.9125 5.6125 4.9125 6.1375 5.2625 6.4875L10.775 12L5.2625 17.5125C5.0875 17.6875 5 17.8625 5 18.125C5 18.65 5.35 19 5.875 19C6.1375 19 6.3125 18.9125 6.4875 18.7375L12 13.225L17.5125 18.7375C17.6875 18.9125 17.8625 19 18.125 19C18.3875 19 18.5625 18.9125 18.7375 18.7375C19.0875 18.3875 19.0875 17.8625 18.7375 17.5125L13.225 12Z" fill="black"/>
</svg>
