<svg width="24" height="24" viewBox="0 0 24 24" fill="none" xmlns="http://www.w3.org/2000/svg">
<path fill-rule="evenodd" clip-rule="evenodd" d="M0 12C0 5.36705 5.36794 0 12 0C18.633 0 24 5.36794 24 12C24 18.633 18.632 24 12 24H0.9375C0.419719 24 0 23.5803 0 23.0625V12ZM1.875 22.125H12C17.5965 22.125 22.125 17.5958 22.125 12C22.125 6.40345 17.5958 1.875 12 1.875C6.40345 1.875 1.875 6.4042 1.875 12V22.125ZM11.8448 6.56259C9.63905 6.56259 8.62604 7.8697 8.62604 8.75203C8.62604 9.3893 9.16519 9.68339 9.60638 9.68339C9.97796 9.68339 10.1293 9.46023 10.3045 9.20188C10.5453 8.84681 10.8311 8.42527 11.7958 8.42527C12.6128 8.42527 13.2664 8.78475 13.2664 9.53634C13.2664 10.2583 12.6538 10.7287 12.1357 11.1264L12.1356 11.1265C12.0206 11.2148 11.9102 11.2996 11.8122 11.3827C11.3384 11.7912 10.7175 12.4611 10.7175 13.8663C10.7175 14.7159 10.9462 14.961 11.6161 14.961C12.4167 14.961 12.5801 14.6016 12.5801 14.2911C12.5801 13.4415 12.5965 12.9513 13.4951 12.2487C13.9363 11.9056 15.3251 10.7945 15.3251 9.25861C15.3251 7.7227 13.9363 6.56259 11.8448 6.56259ZM11.6324 16.0884C10.9462 16.0884 10.3906 16.6603 10.3906 17.3466C10.3906 18.0165 10.9298 18.6047 11.6324 18.6047C12.3349 18.6047 12.8905 18.0165 12.8905 17.3466C12.8905 16.6603 12.3187 16.0884 11.6324 16.0884Z" fill="#FCFCFC"/>
</svg>
