<svg width="24" height="24" viewBox="0 0 24 24" fill="none" xmlns="http://www.w3.org/2000/svg">
<path d="M9.69179 5C9.96793 5 10.1918 5.22386 10.1918 5.5V6.64773C10.1918 6.92387 9.96793 7.14773 9.69179 7.14773H5.16091C4.88476 7.14773 4.66091 7.37159 4.66091 7.64773V10.0499C4.66091 10.326 4.88476 10.5499 5.16091 10.5499H8.39935C8.67549 10.5499 8.89935 10.7737 8.89935 11.0499V12.1596C8.89935 12.4357 8.67549 12.6596 8.39935 12.6596H5.16091C4.88476 12.6596 4.66091 12.8835 4.66091 13.1596V17.7665C4.66091 18.0427 4.43705 18.2665 4.16091 18.2665H2.5C2.22386 18.2665 2 18.0427 2 17.7665V5.5C2 5.22386 2.22386 5 2.5 5H9.69179Z" fill="#FCFCFC"/>
<path d="M19.2124 18.2665C19.0323 18.2665 18.8661 18.1696 18.7773 18.0129L16.1376 13.3504C16.0488 13.1937 15.8826 13.0968 15.7025 13.0968H15.2395C14.9634 13.0968 14.7395 13.3206 14.7395 13.5968V17.7665C14.7395 18.0427 14.5157 18.2665 14.2395 18.2665H12.5786C12.3025 18.2665 12.0786 18.0427 12.0786 17.7665V5.5C12.0786 5.22386 12.3025 5 12.5786 5H17.0583C18.0847 5 18.959 5.18373 19.6812 5.55119C20.4035 5.90597 20.942 6.39381 21.2968 7.01469C21.6642 7.62289 21.8479 8.30712 21.8479 9.06738C21.8479 9.94168 21.5945 10.7336 21.0877 11.4432C20.5809 12.1401 19.8269 12.6216 18.8259 12.8877L21.555 17.5124C21.7517 17.8457 21.5114 18.2665 21.1244 18.2665H19.2124ZM14.7395 10.6011C14.7395 10.8772 14.9634 11.1011 15.2395 11.1011H16.9633C17.6855 11.1011 18.224 10.93 18.5788 10.5879C18.9336 10.2331 19.111 9.74528 19.111 9.1244C19.111 8.5162 18.9336 8.04737 18.5788 7.71792C18.224 7.37581 17.6855 7.20475 16.9633 7.20475H15.2395C14.9634 7.20475 14.7395 7.42861 14.7395 7.70475V10.6011Z" fill="#FCFCFC"/>
</svg>
