<svg width="80" height="80" viewBox="0 0 80 80" fill="none" xmlns="http://www.w3.org/2000/svg">
<g clip-path="url(#clip0)">
<path d="M27.2459 17.6857L24.8103 14.8892C22.5754 12.3193 19.3387 10.8531 15.9467 10.8531C15.8172 10.8531 15.6877 10.8547 15.5583 10.8596C11.7196 10.9858 8.18515 12.978 6.09103 16.1969L4.23804 19.0435L5.00836 22.1216V25.122L9.14482 27.8925L17.0387 31.9683L48.6891 54.9791C50.8128 54.4992 52.9188 53.7904 54.9744 52.8359L57.5475 51.6416L27.2459 17.6857Z" fill="black" fill-opacity="0.1"/>
<path d="M50.4855 48.5479C49.9267 48.1773 49.1735 48.3301 48.8031 48.8887L44.704 55.0716C44.6977 55.0811 44.6915 55.0906 44.6855 55.1002L37.4427 66.7203H34.4949C33.8246 66.7203 33.2811 67.2638 33.2811 67.9341C33.2811 68.6044 33.8246 69.1478 34.4949 69.1478H38.1164C38.5354 69.1478 38.9247 68.9318 39.1465 68.5761L39.9281 67.3222L40.8587 68.6356C41.0862 68.9569 41.4555 69.1478 41.8491 69.1478H44.5721C45.2424 69.1478 45.7858 68.6044 45.7858 67.9341C45.7858 67.2638 45.2424 66.7203 44.5721 66.7203H42.4767L41.3205 65.0882L46.7366 56.3987L50.8263 50.2301C51.1969 49.6715 51.0441 48.9183 50.4855 48.5479Z" fill="#DEDEDE"/>
<path d="M44.2022 50.0252C44.5658 49.462 44.4038 48.7106 43.8407 48.3471C43.2776 47.9835 42.5262 48.1453 42.1626 48.7086L38.0394 55.0967L34.6142 60.555C34.6121 60.5584 34.61 60.5616 34.6081 60.5649L33.2179 62.78H30.2677C29.5974 62.78 29.054 63.3235 29.054 63.9938C29.054 64.6641 29.5974 65.2076 30.2677 65.2076H33.8892C34.3069 65.2076 34.6953 64.9928 34.9173 64.6389L35.7037 63.3858L36.6313 64.6954C36.8588 65.0166 37.2282 65.2076 37.6217 65.2076H40.3447C41.015 65.2076 41.5585 64.6641 41.5585 63.9938C41.5585 63.3235 41.015 62.78 40.3447 62.78H38.2493L37.1009 61.159L40.0873 56.4001L44.2022 50.0252Z" fill="#DEDEDE"/>
<path d="M5.00878 25.1219L0.241014 24.4097C0.0647771 24.3833 -0.0436511 24.2025 0.0162272 24.0347L0.341674 23.1224C1.00228 21.2706 2.41945 19.7874 4.23927 19.0433L9.86928 17.0408L9.75292 26.7893L5.00878 25.1219Z" fill="#918291"/>
<path d="M9.14526 27.8926L9.37458 28.3985L12.3457 25.7026L14.7369 24.5701C14.4293 24.1107 14.0721 23.6844 13.6683 23.3023L12.1524 21.8677C9.62316 19.4742 9.12908 15.3814 11.0033 12.3482L11.3506 11.7881C9.22796 12.69 7.38403 14.2105 6.09163 16.197L4.23718 19.0447L4.68967 20.8454C4.90183 21.6931 5.00913 22.5637 5.00913 23.4375V25.1221L9.14526 27.8926Z" fill="#C1C1C1"/>
<path d="M38.3302 30.1068L57.5479 51.6419L54.9747 52.8363C46.3442 56.8432 36.8268 56.5617 28.8176 52.8767L29.3387 52.5239C31.2743 51.2179 32.6693 49.2549 33.268 46.9989L38.3302 30.1068Z" fill="#9F9F9F"/>
<path d="M10.4954 20.058C9.82505 20.058 9.28162 19.5146 9.28162 18.8443V18.3261C9.28162 17.6558 9.82505 17.1123 10.4954 17.1123C11.1657 17.1123 11.7091 17.6558 11.7091 18.3261V18.8443C11.7091 19.5146 11.1657 20.058 10.4954 20.058Z" fill="#918291"/>
<path d="M54.9741 52.8363C58.8185 58.9288 63.1363 64.1311 68.2721 67.7957C68.6247 68.0473 69.1172 67.9449 69.3389 67.5728L69.9171 66.6025L72.0197 67.3157C73.4244 67.7921 74.9247 67.9164 76.3887 67.6777L79.5417 67.1636C80.022 67.0852 80.1665 66.4643 79.7699 66.182L58.9848 51.3877L51.6136 46.6921L54.9741 52.8363Z" fill="#A8A8A8"/>
<path d="M28.1862 18.7389L24.0805 19.1904C19.5767 19.5141 15.3496 21.4852 12.2084 24.7283L9.1449 27.8922L10.8247 27.3363L17.685 40.4937L22.1903 46.6917L30.1177 51.9359C31.6478 50.6607 32.7528 48.9384 33.2678 46.9984L38.3299 30.1062L28.1862 18.7389Z" fill="#C1C1C1"/>
<path d="M59.4359 50.5118L52.7619 35.6862L45.3501 29.2498L28.0679 26.2423L21.7239 31.3638C23.4377 39.0186 28.8364 45.521 36.3908 48.4971L39.2035 49.6041C45.4907 52.0817 52.3557 52.6999 58.9844 51.3875C59.2902 51.326 59.4925 51.0589 59.4925 50.7709C59.4925 50.685 59.4747 50.5959 59.4359 50.5118Z" fill="#8C8C8C"/>
<path d="M51.0464 31.8751L52.7618 35.6863L51.4995 35.1814C43.3124 31.9188 34.5006 30.5255 25.7049 31.1032L21.7238 31.3637C21.3403 29.6596 21.1412 27.8989 21.1412 26.1058C21.1412 25.6834 21.1526 25.2594 21.1752 24.8338C21.3921 20.7248 24.7873 17.506 28.8979 17.506H28.9351C38.4849 17.5513 47.1268 23.1669 51.0464 31.8751Z" fill="#A8A8A8"/>
<path d="M19.2655 35.1452L15.4327 25.8684C15.0393 24.9162 14.4523 24.0559 13.71 23.3422C13.1868 23.774 12.6848 24.2372 12.2086 24.7288L9.14514 27.8926L13.4742 37.4424C16.6963 44.5469 22.2488 49.855 28.816 52.8765H28.8176L29.3387 52.5237C30.1818 51.9547 30.9222 51.261 31.5391 50.4727C26.3301 46.9393 21.9864 41.7294 19.2655 35.1452Z" fill="#A9A9A9"/>
<path d="M31.5396 50.4725C30.9227 51.2606 30.1823 51.9544 29.3391 52.5234L28.8164 52.8762C33.8732 55.2029 39.5359 56.1716 45.1926 55.5618C40.3483 55.0239 35.6705 53.2746 31.5396 50.4725Z" fill="#8C8C8C"/>
</g>
<defs>
<clipPath id="clip0">
<rect width="80" height="80" fill="white"/>
</clipPath>
</defs>
</svg>
