<svg width="153" height="48" viewBox="0 0 153 48" fill="none" xmlns="http://www.w3.org/2000/svg">
<path d="M36.3228 27.3998C38.1086 24.4266 38.7266 22.1857 38.7266 22.1857C38.8227 21.7717 38.9582 21.4662 39.1034 21.2407C39.4071 20.765 40.5105 20.4322 41.2188 20.0483C44.7155 18.1535 44.6741 14.5024 44.6741 14.5024C44.701 12.9046 45.3949 11.9877 46.0725 11.4722C46.7146 10.9848 47.1153 10.7506 46.778 10.6694C46.4407 10.5901 46.061 10.1819 45.7467 9.89083C45.4132 9.58133 45.0595 9.55614 45.0595 9.55614C44.2685 9.47685 42.8537 10.5156 42.0954 11.1298C41.7609 10.5611 40.9448 9.99045 40.4518 9.54654C39.6993 8.86655 38.7632 7.84045 38.2634 6.60721C37.9606 5.85763 37.7405 4.80342 37.5463 5.0317C37.4732 5.11868 37.3906 5.26767 37.2974 5.51526C37.2974 5.51526 37.183 5.84024 37.1897 6.2523C37.1964 6.66628 36.5794 6.40694 36.4304 6.95534C36.2814 7.50283 35.9191 7.7919 36.1468 8.28336C36.3746 8.77663 35.8441 8.86847 35.9719 9.4014C36.0565 9.74872 36.1776 9.96628 36.1613 10.1568C35.8489 10.0911 35.6903 10.1056 35.6903 10.1056C34.2265 10.2361 33.0145 10.0002 32.1658 9.73122C31.3988 9.48757 29.4564 8.73992 29.9927 9.34051C30.0533 9.40827 30.1273 9.4817 30.208 9.55817C30.7952 10.1114 30.5655 10.8764 31.2873 11.2352C31.2931 11.2372 31.2998 11.2411 31.3056 11.2449C32.0283 11.5999 31.2748 12.2402 31.9898 12.6029C32.705 12.9674 32.1571 13.4318 32.9106 13.6851C33.6641 13.9404 33.3355 14.6242 34.0092 14.7732C34.6811 14.9241 34.1793 15.3081 34.7157 15.7123C35.2529 16.1166 35.1174 16.4696 35.7306 16.5568C36.3428 16.6438 35.9229 16.9871 36.5284 17.1139C37.1348 17.2424 37.0598 17.346 37.2895 17.8867C37.5202 18.4254 37.822 18.1111 37.5654 18.7175C37.3098 19.3239 37.032 20.5067 36.4092 21.0164C35.4645 21.7912 33.9026 22.5978 32.7839 23.1288C32.0563 23.4731 30.6982 23.9693 30.8799 24.5158C31.0625 25.0612 31.1087 25.6376 31.6104 25.9404C32.1112 26.2413 32.3245 26.5527 32.7638 26.8777C33.203 27.2026 33.5712 27.488 34.1056 27.6224C34.6419 27.7568 35.0292 27.8999 35.577 27.9948C35.9797 28.0652 36.3228 27.3998 36.3228 27.3998Z" fill="black"/>
<path d="M87.8285 26.88C87.5902 26.906 87.1298 26.7902 86.7951 26.7037C86.4604 26.614 86.1894 26.5437 86.1894 26.5437C85.5593 26.4099 85.0598 26.5813 84.7056 26.8017C84.3008 27.0596 83.9694 27.7386 83.6983 28.0766C83.4274 28.4178 83.1334 28.6219 83.1334 28.6219C80.7697 30.3654 78.8253 27.5151 78.8253 27.5151C78.5577 27.1069 78.303 26.689 78.0598 26.2613C77.8932 25.9641 77.7268 25.6686 77.5701 25.3651C76.9596 24.1782 76.473 22.9359 76.6608 21.5809C76.7491 20.9558 76.8812 20.3468 76.8128 19.715C76.7359 18.9983 76.4698 18.3125 76.1826 17.658C75.9296 17.0866 75.6242 16.5331 75.3337 15.9781C75.0202 15.3789 74.6496 14.7913 74.266 14.2378C73.5182 13.2241 72.9796 10.9387 72.9796 10.9387C72.9127 10.6417 72.8393 10.423 72.7642 10.2529C72.6025 9.89221 71.9184 9.90518 71.8059 10.3704C71.7699 10.5141 71.7406 10.6674 71.7177 10.8194C71.6458 11.2943 71.267 11.9065 71.1528 12.3719C71.0792 12.6723 71.0761 13.0184 71.099 13.3253C71.1331 13.8037 70.8279 14.3423 70.6124 14.7701C70.3495 15.2958 70.4247 15.9911 70.552 16.5266C70.6614 16.992 70.6483 17.7135 70.6124 18.1901C70.5699 18.7958 70.7103 19.4111 70.867 19.8765C71.0172 20.332 71.0841 21.0568 71.0792 21.5352C71.0662 22.7056 71.626 23.8059 72.0653 24.4883C72.3232 24.89 72.07 25.2148 71.8906 25.6587C71.711 26.1044 72.0555 26.7428 72.3966 27.2209C72.6759 27.6127 72.6546 27.6259 72.217 27.4348C71.6979 27.2015 71.0759 27.0366 70.6613 26.8993C69.7976 26.6087 68.9276 26.3508 68.0771 26.0261C66.7938 25.538 65.4356 24.9258 64.3648 24.0425C64.0318 23.7455 60.4909 20.6404 60.0486 21.3897C59.5914 22.1651 60.2852 23.0793 60.8663 23.6541C61.2076 23.992 61.0068 24.4671 61.2387 24.885C61.4232 25.2229 61.8802 25.6049 62.2817 25.8987C62.6688 26.1828 62.8335 26.7851 63.1551 27.1426C63.4179 27.4331 63.8358 27.7288 64.2032 27.9588C64.6081 28.2167 64.8236 28.8192 65.1093 29.206C65.4977 29.7317 66.3597 30.1889 67.0031 30.4747C67.4405 30.6689 67.7343 30.953 67.7099 31.1603C67.6839 31.3677 68.0757 31.7888 68.5213 31.9602C69.2412 32.2344 70.2975 32.4548 71.0355 32.5856C71.5056 32.6687 71.695 33.0769 71.8974 33.4492C72.0738 33.7774 72.4036 34.0206 72.4036 34.0206C73.4549 34.716 75.7746 34.7064 77.0415 34.6427C77.5199 34.6166 77.6619 34.8826 77.3483 35.245C76.2612 36.507 75.0825 37.6938 73.9496 38.9117C73.4109 39.4928 72.877 40.0755 72.3579 40.6747C72.0379 41.0484 71.5743 41.4747 71.3392 41.9023C71.22 42.1227 71.1434 42.2972 71.0959 42.4377C70.9899 42.7479 70.9033 43.1872 70.9344 43.4581C70.9655 43.7324 71.4469 43.5824 71.6021 43.6051C71.7588 43.628 71.4389 43.9969 71.4257 44.2402C71.4111 44.5078 71.6118 44.6139 71.6118 44.6139C71.7621 44.6775 71.9596 44.7037 72.1424 44.7136C72.4429 44.7298 72.5962 44.774 72.5962 44.8947C72.5962 44.9519 72.6273 45.0121 72.7203 45.0613C72.8297 45.112 72.9685 45.0613 73.0926 44.9812C73.277 44.867 73.4909 44.9177 73.6966 44.8851C73.9024 44.8525 74.1912 44.6842 74.3691 44.611C74.5487 44.5374 74.7022 44.655 74.8294 44.815C74.955 44.9749 75.5069 45.112 75.8007 44.8247C76.0945 44.5374 76.305 43.8339 76.452 43.3799C76.6511 42.7776 76.8698 42.2096 76.8698 42.2096C77.278 41.1567 77.7497 40.1363 77.9571 39.0343C78.0453 38.5624 78.4402 38.1039 78.9121 38.0206C79.379 37.934 79.8867 37.8427 79.9879 37.8166C80.6899 37.6533 81.4016 37.469 82.022 37.0934C83.4228 36.243 84.8104 34.9321 85.7768 33.6114C86.2582 32.9552 87.0306 31.7455 86.882 30.869C86.7776 30.2469 86.7383 29.7817 86.7335 29.4372C86.727 28.9588 86.9621 28.1998 87.3196 27.8814C87.3621 27.8439 87.4094 27.8048 87.4551 27.7672C87.8288 27.4668 88.335 27.1958 88.4475 27.0147C88.5599 26.8343 88.0636 26.8505 87.8285 26.88Z" fill="black"/>
<path d="M125.373 14.2927C124.278 14.8739 123.054 15.6415 123.054 15.6415C121.79 16.315 120.703 17.2926 119.653 18.2559C118.702 19.1292 117.697 20.0739 116.893 21.0905C116.752 21.2693 116.26 21.6131 116.253 21.9224C116.206 21.9241 116.159 21.9173 116.114 21.9224C115.94 21.9377 115.602 21.9936 115.591 21.7301C115.546 20.5204 115.467 19.3122 115.342 18.1101C115.203 16.7784 114.996 15.4645 114.728 14.1539C114.37 12.4054 113.198 11.0465 112.058 9.74608C111.482 9.08952 111.395 9.22002 111.464 9.54276C111.584 10.1002 111.694 10.9457 111.272 10.7559C110.85 10.5653 110.046 9.74528 109.238 9.29452C108.43 8.84474 108.165 9.4648 107.815 9.07933C107.465 8.69218 107.006 9.81554 107.045 10.4314C107.084 11.0473 106.513 11.5319 106.627 12.1275C106.741 12.7214 106.33 13.0559 106.5 13.7337C106.669 14.4123 106.238 15.1832 106.15 15.8949C106.064 16.6065 106.027 17.1428 105.909 17.7645C105.789 18.388 105.799 19.5529 106.025 20.4619C106.068 20.6339 106.135 20.783 106.219 20.9151C106.721 21.703 106.889 22.3993 107.249 23.106C107.61 23.8125 107.989 23.9963 108.194 24.4843C108.399 24.9739 108.664 24.9689 108.929 25.3866C109.194 25.8034 109.267 26.0398 108.631 26.7235C107.616 27.8155 106.944 28.4492 106.944 28.4492C103.735 31.0067 99.5454 33.029 99.5454 33.029C97.5135 33.9506 97.6911 34.187 98.3475 34.1988C99.2814 34.2158 100.121 34.5267 100.661 34.4555C101.203 34.3843 101.722 34.4538 102.007 34.5249C102.292 34.5962 102.451 34.907 102.726 35.1307C103.001 35.3543 103.346 35.395 103.567 35.5162C103.787 35.6391 104.186 36.0354 104.625 35.9974C105.065 35.9576 105.601 34.98 106.005 34.1362C107.261 31.5099 108.449 31.1676 108.449 31.1676C111.828 30.1816 113.524 29.1175 113.524 29.1175C114.951 28.1712 115.895 27.1716 116.492 26.3888C117.058 25.6441 117.683 24.5987 118.155 24.7223C118.56 24.83 118.949 25.101 118.949 25.101C118.979 25.1222 119.097 24.0505 119.095 23.9658C119.084 23.6567 119.035 23.3499 118.963 23.0475C119.134 22.9484 119.296 22.7959 119.296 22.7959C119.501 22.5993 119.658 22.3859 119.776 22.1867C119.994 21.8174 120.37 21.2202 120.598 20.8203C120.828 20.4179 121.245 20.079 121.641 19.9503C122.14 19.7867 122.175 19.4657 122.175 19.4657C122.179 19.4293 122.933 19.1547 123.023 19.0039C123.147 18.7955 122.731 18.3076 123.08 18.2728C123.449 18.2347 123.874 18.1491 124.197 17.9619C124.331 17.8839 124.5 17.7518 124.495 17.5781C124.492 17.4901 124.418 17.3909 124.378 17.2968C124.312 17.1409 124.675 17.0189 124.803 16.8351C124.932 16.6529 125.251 16.2591 125.554 15.9219C125.855 15.5846 126.064 14.9824 126.247 14.7274C126.422 14.4825 126.603 14.2826 126.603 14.2826C126.729 14.1538 126.82 14.0513 126.884 13.97C127.026 13.7853 126.199 13.8547 125.373 14.2927Z" fill="black"/>
</svg>
