<svg width="73" height="30" viewBox="0 0 73 30" fill="none" xmlns="http://www.w3.org/2000/svg">
<path fill-rule="evenodd" clip-rule="evenodd" d="M44.9375 6.528C44.9375 7.0901 45.3932 7.54553 45.955 7.54553C46.5168 7.54553 46.9725 7.0901 46.9725 6.528C46.9725 5.96618 46.5168 5.51047 45.955 5.51047C45.3932 5.51047 44.9375 5.96618 44.9375 6.528ZM59.9067 0.267782C68.8403 0.509315 71.5085 3.79847 72.1513 4.88978C72.7206 5.85536 72.5846 6.06262 71.4961 6.1657C69.9751 6.30996 62.1833 7.21198 57.2164 8.85627C52.3807 10.4569 50.6859 11.213 50.0691 12.5785C49.61 13.5938 49.5249 14.7887 50.8354 17.7548C52.1461 20.7212 52.942 22.7444 52.3741 24.987C51.8032 27.2412 49.6247 29.9995 46.6586 29.9995H26.1394C26.1394 29.9995 25.0013 30.0686 25.3462 28.6199C25.6911 27.1713 27.9677 23.9634 31.072 20.9282C34.176 17.893 37.9009 15.3406 37.9009 15.3406C37.9009 15.3406 37.9009 10.0634 39.9363 6.92457C41.9711 3.78603 45.4202 2.71654 47.6278 3.50995C47.6278 3.50995 50.9736 0.0262508 59.9067 0.267782ZM17.8194 8.94244C17.8194 9.50454 18.2749 9.95997 18.837 9.95997C19.3988 9.95997 19.8545 9.50454 19.8545 8.94244C19.8545 8.38062 19.3988 7.92491 18.837 7.92491C18.2749 7.92491 17.8194 8.38062 17.8194 8.94244ZM35.1155 0.413855C35.9326 0.125105 36.4402 -0.054245 36.8206 0.014883C37.5792 0.153059 37.1152 1.68764 35.435 2.83754C34.0872 3.75973 31.3306 5.02763 31.3306 5.02763C31.3306 5.02763 31.463 6.10845 29.1173 7.02815C28.824 7.14318 28.5599 7.24599 28.3221 7.33854C26.658 7.9862 26.2833 8.13202 26.2429 8.45385C26.2324 8.5382 26.299 8.65823 26.3936 8.82895C26.6472 9.28634 27.1025 10.1076 26.8178 11.581C26.427 13.6045 26.3529 15.4317 27.5075 17.1227C28.3436 18.3468 28.8705 18.9111 29.1632 19.2246C29.2086 19.2733 29.2484 19.3159 29.2828 19.354C29.6147 19.721 29.675 20.3334 29.2488 20.7946C29.1975 20.8502 29.1203 20.9307 29.0211 21.0341C28.3252 21.7598 26.5496 23.6113 25.0704 25.8607C24.857 26.185 24.6554 26.505 24.4603 26.8145C23.3512 28.5746 22.4529 30.0001 20.8071 29.9996C18.8721 29.9991 17.9421 27.9991 17.6431 24.251C17.5156 22.6523 17.6098 21.221 17.6974 19.8911C17.8151 18.1028 17.9207 16.4977 17.4591 14.9152C16.6543 12.1559 14.6309 11.9721 12.7453 12.1329C10.8598 12.294 7.31858 13.1446 5.22631 14.0185C3.13377 14.8923 1.43199 15.7891 1.06416 15.996C0.696059 16.203 0.0524333 15.9844 0.972136 15.128C1.89211 14.2716 4.67416 12.6157 8.39939 11.3052C9.85148 10.7943 10.9192 10.472 11.7048 10.2349C12.9344 9.86379 13.4726 9.70135 13.7112 9.35061C13.7719 9.26128 13.8454 9.11752 13.9393 8.93392C14.4494 7.93611 15.5613 5.76155 18.494 4.75183C21.4263 3.74195 26.4417 2.61736 29.8692 1.84881C30.5001 1.70733 31.0772 1.57793 31.5777 1.46352C33.1831 1.09665 34.3025 0.701115 35.1155 0.413855Z" fill="#EB6A0A"/>
</svg>
