<svg width="114" height="30" viewBox="0 0 114 30" fill="none" xmlns="http://www.w3.org/2000/svg">
<path d="M10.0191 4.09097C10.0191 3.29447 10.1415 2.62597 10.3864 2.08549C10.5691 1.68724 10.8176 1.32988 11.1319 1.01341C11.4499 0.69694 11.7971 0.462256 12.1735 0.309356C12.6742 0.103119 13.2516 0 13.9058 0C15.0899 0 16.0364 0.35736 16.7454 1.07208C17.4581 1.7868 17.8144 2.78065 17.8144 4.05363C17.8144 5.31595 17.4617 6.30447 16.7564 7.01919C16.051 7.73035 15.1081 8.08593 13.9277 8.08593C12.7327 8.08593 11.7825 7.73213 11.0771 7.02452C10.3718 6.31336 10.0191 5.33551 10.0191 4.09097ZM11.6911 4.03763C11.6911 4.92303 11.9012 5.59508 12.3215 6.05378C12.7418 6.50893 13.2754 6.7365 13.9222 6.7365C14.5691 6.7365 15.099 6.5107 15.512 6.05911C15.9286 5.60397 16.1369 4.92303 16.1369 4.0163C16.1369 3.12023 15.9341 2.45174 15.5284 2.01082C15.1264 1.56989 14.591 1.34943 13.9222 1.34943C13.2534 1.34943 12.7144 1.57345 12.3051 2.02148C11.8957 2.46596 11.6911 3.13801 11.6911 4.03763Z" fill="black"/>
<path d="M19.0917 0.133343H22.3041C22.94 0.133343 23.4132 0.160012 23.7239 0.213349C24.0382 0.263131 24.3177 0.369805 24.5626 0.533373C24.8111 0.69694 25.0176 0.915623 25.1821 1.18942C25.3465 1.45966 25.4287 1.76369 25.4287 2.10149C25.4287 2.46774 25.3264 2.80376 25.1218 3.10956C24.9208 3.41536 24.6467 3.64471 24.2995 3.79761C24.7892 3.93629 25.1656 4.17275 25.4287 4.507C25.6919 4.84125 25.8234 5.23417 25.8234 5.68575C25.8234 6.04134 25.7376 6.38803 25.5658 6.72583C25.3977 7.06008 25.1656 7.32854 24.8696 7.53122C24.5772 7.73035 24.2154 7.85303 23.7842 7.89925C23.5137 7.9277 22.8614 7.94548 21.8271 7.95259H19.0917V0.133343ZM20.7143 1.43477V3.24291H21.7778C22.41 3.24291 22.8029 3.23402 22.9564 3.21624C23.2342 3.18424 23.4516 3.09178 23.6088 2.93888C23.7696 2.78243 23.85 2.57797 23.85 2.32551C23.85 2.08371 23.7805 1.88814 23.6416 1.7388C23.5064 1.5859 23.3036 1.49344 23.0332 1.46144C22.8724 1.44366 22.41 1.43477 21.6462 1.43477H20.7143ZM20.7143 4.54434V6.63516H22.2163C22.8011 6.63516 23.172 6.61916 23.3292 6.58715C23.5704 6.54448 23.7659 6.44137 23.9157 6.2778C24.0692 6.11067 24.146 5.88844 24.146 5.61108C24.146 5.3764 24.0875 5.17727 23.9706 5.0137C23.8536 4.85014 23.6837 4.73102 23.4607 4.65634C23.2415 4.58167 22.7627 4.54434 22.0245 4.54434H20.7143Z" fill="black"/>
<path d="M26.7883 5.4084L28.367 5.25906C28.4621 5.77465 28.6539 6.15334 28.9426 6.39514C29.235 6.63694 29.6279 6.75783 30.1213 6.75783C30.6439 6.75783 31.0367 6.65116 31.2999 6.43781C31.5667 6.2209 31.7 5.96844 31.7 5.68042C31.7 5.49552 31.6434 5.33906 31.5301 5.21105C31.4205 5.07949 31.2268 4.9657 30.949 4.86969C30.759 4.80569 30.3259 4.6919 29.6498 4.52834C28.78 4.31854 28.1697 4.06074 27.8189 3.75494C27.3255 3.32469 27.0788 2.80021 27.0788 2.18149C27.0788 1.78324 27.1939 1.41166 27.4242 1.06675C27.6581 0.718275 27.9925 0.453367 28.4273 0.27202C28.8659 0.0906734 29.394 0 30.0116 0C31.0203 0 31.7786 0.215127 32.2866 0.645381C32.7983 1.07564 33.0669 1.6499 33.0924 2.36818L31.4698 2.43751C31.4004 2.03571 31.2505 1.74768 31.0203 1.57345C30.7937 1.39566 30.452 1.30676 29.9952 1.30676C29.5237 1.30676 29.1546 1.40099 28.8878 1.58945C28.7161 1.71035 28.6302 1.87214 28.6302 2.07482C28.6302 2.25972 28.7106 2.41796 28.8714 2.54952C29.076 2.71665 29.5731 2.89088 30.3625 3.07223C31.1519 3.25357 31.7348 3.44203 32.1112 3.6376C32.4913 3.82962 32.7873 4.09453 32.9993 4.43233C33.2149 4.76658 33.3227 5.18083 33.3227 5.67509C33.3227 6.12312 33.1948 6.54271 32.939 6.93385C32.6831 7.32499 32.3213 7.61656 31.8535 7.80858C31.3858 7.99704 30.8028 8.09127 30.1048 8.09127C29.0888 8.09127 28.3086 7.86369 27.764 7.40855C27.2195 6.94985 26.8942 6.28313 26.7883 5.4084Z" fill="black"/>
<path d="M34.6877 7.95259V0.133343H40.6465V1.45611H36.3103V3.18957H40.345V4.507H36.3103V6.63516H40.8V7.95259H34.6877Z" fill="black"/>
<path d="M42.1814 7.95259V0.133343H45.5967C46.4555 0.133343 47.0786 0.20446 47.466 0.346692C47.857 0.485369 48.1695 0.734277 48.4034 1.09341C48.6373 1.45255 48.7543 1.86325 48.7543 2.32551C48.7543 2.91222 48.577 3.39758 48.2225 3.78161C47.868 4.16209 47.3381 4.4021 46.6328 4.50167C46.9836 4.70079 47.2723 4.91948 47.4989 5.15771C47.7291 5.39595 48.038 5.8191 48.4253 6.42714L49.4066 7.95259H47.466L46.2929 6.25113C45.8763 5.64308 45.5912 5.26083 45.4377 5.10438C45.2842 4.94437 45.1216 4.83591 44.9498 4.77902C44.778 4.71857 44.5058 4.68835 44.133 4.68835H43.8041V7.95259H42.1814ZM43.8041 3.44025H45.0046C45.7831 3.44025 46.2691 3.40825 46.4628 3.34425C46.6565 3.28024 46.8082 3.17001 46.9178 3.01356C47.0275 2.8571 47.0823 2.66153 47.0823 2.42685C47.0823 2.16372 47.0092 1.95214 46.863 1.79213C46.7205 1.62856 46.5176 1.52545 46.2545 1.48278C46.1229 1.465 45.7282 1.45611 45.0704 1.45611H43.8041V3.44025Z" fill="black"/>
<path d="M52.1311 7.95259L49.2586 0.133343H51.0183L53.0521 5.92044L55.0201 0.133343H56.7414L53.8634 7.95259H52.1311Z" fill="black"/>
<path d="M63.983 7.95259H62.2178L61.5161 6.17646H58.3037L57.6404 7.95259H55.9191L59.0493 0.133343H60.7651L63.983 7.95259ZM60.9954 4.85903L59.888 1.95748L58.8026 4.85903H60.9954Z" fill="black"/>
<path d="M65.8249 7.95259V1.45611H63.4403V0.133343H69.8267V1.45611H67.4476V7.95259H65.8249Z" fill="black"/>
<path d="M70.342 4.09097C70.342 3.29447 70.4644 2.62597 70.7093 2.08549C70.892 1.68724 71.1405 1.32988 71.4548 1.01341C71.7728 0.69694 72.12 0.462256 72.4964 0.309356C72.9971 0.103119 73.5745 0 74.2287 0C75.4128 0 76.3593 0.35736 77.0683 1.07208C77.7809 1.7868 78.1373 2.78065 78.1373 4.05363C78.1373 5.31595 77.7846 6.30447 77.0793 7.01919C76.3739 7.73035 75.431 8.08593 74.2506 8.08593C73.0555 8.08593 72.1053 7.73213 71.4 7.02452C70.6947 6.31336 70.342 5.33551 70.342 4.09097ZM72.014 4.03763C72.014 4.92303 72.2241 5.59508 72.6444 6.05378C73.0647 6.50893 73.5983 6.7365 74.2451 6.7365C74.892 6.7365 75.4219 6.5107 75.8349 6.05911C76.2515 5.60397 76.4598 4.92303 76.4598 4.0163C76.4598 3.12023 76.257 2.45174 75.8513 2.01082C75.4493 1.56989 74.9139 1.34943 74.2451 1.34943C73.5763 1.34943 73.0373 1.57345 72.628 2.02148C72.2186 2.46596 72.014 3.13801 72.014 4.03763Z" fill="black"/>
<path d="M79.3597 7.95259V0.133343H80.9824V7.95259H79.3597Z" fill="black"/>
<path d="M82.5392 7.95259V0.133343H85.9545C86.8133 0.133343 87.4364 0.20446 87.8238 0.346692C88.2148 0.485369 88.5273 0.734277 88.7612 1.09341C88.9951 1.45255 89.1121 1.86325 89.1121 2.32551C89.1121 2.91222 88.9348 3.39758 88.5803 3.78161C88.2258 4.16209 87.6959 4.4021 86.9906 4.50167C87.3414 4.70079 87.6301 4.91948 87.8567 5.15771C88.0869 5.39595 88.3957 5.8191 88.7831 6.42714L89.7644 7.95259H87.8238L86.6507 6.25113C86.234 5.64308 85.949 5.26083 85.7955 5.10438C85.642 4.94437 85.4794 4.83591 85.3076 4.77902C85.1358 4.71857 84.8636 4.68835 84.4908 4.68835H84.1619V7.95259H82.5392ZM84.1619 3.44025H85.3624C86.1409 3.44025 86.6269 3.40825 86.8206 3.34425C87.0143 3.28024 87.166 3.17001 87.2756 3.01356C87.3852 2.8571 87.4401 2.66153 87.4401 2.42685C87.4401 2.16372 87.367 1.95214 87.2208 1.79213C87.0783 1.62856 86.8754 1.52545 86.6123 1.48278C86.4807 1.465 86.086 1.45611 85.4282 1.45611H84.1619V3.44025Z" fill="black"/>
<path d="M90.647 7.95259V0.133343H96.6058V1.45611H92.2696V3.18957H96.3043V4.507H92.2696V6.63516H96.7593V7.95259H90.647Z" fill="black"/>
<path d="M97.7241 5.4084L99.3029 5.25906C99.3979 5.77465 99.5898 6.15334 99.8785 6.39514C100.171 6.63694 100.564 6.75783 101.057 6.75783C101.58 6.75783 101.973 6.65116 102.236 6.43781C102.503 6.2209 102.636 5.96844 102.636 5.68042C102.636 5.49552 102.579 5.33906 102.466 5.21105C102.356 5.07949 102.163 4.9657 101.885 4.86969C101.695 4.80569 101.262 4.6919 100.586 4.52834C99.7159 4.31854 99.1056 4.06074 98.7547 3.75494C98.2614 3.32469 98.0147 2.80021 98.0147 2.18149C98.0147 1.78324 98.1298 1.41166 98.36 1.06675C98.5939 0.718275 98.9283 0.453367 99.3632 0.27202C99.8018 0.0906734 100.33 0 100.947 0C101.956 0 102.714 0.215127 103.222 0.645381C103.734 1.07564 104.003 1.6499 104.028 2.36818L102.406 2.43751C102.336 2.03571 102.186 1.74768 101.956 1.57345C101.73 1.39566 101.388 1.30676 100.931 1.30676C100.46 1.30676 100.09 1.40099 99.8237 1.58945C99.6519 1.71035 99.566 1.87214 99.566 2.07482C99.566 2.25972 99.6464 2.41796 99.8073 2.54952C100.012 2.71665 100.509 2.89088 101.298 3.07223C102.088 3.25357 102.671 3.44203 103.047 3.6376C103.427 3.82962 103.723 4.09453 103.935 4.43233C104.151 4.76658 104.259 5.18083 104.259 5.67509C104.259 6.12312 104.131 6.54271 103.875 6.93385C103.619 7.32499 103.257 7.61656 102.789 7.80858C102.322 7.99704 101.739 8.09127 101.041 8.09127C100.025 8.09127 99.2444 7.86369 98.6999 7.40855C98.1554 6.94985 97.8301 6.28313 97.7241 5.4084Z" fill="black"/>
<path d="M0.5 29.6898V12.1972H7.83902C9.68457 12.1972 11.0236 12.3563 11.856 12.6745C12.6964 12.9847 13.3678 13.5416 13.8704 14.345C14.3731 15.1484 14.6244 16.0672 14.6244 17.1013C14.6244 18.4139 14.2435 19.4997 13.4817 20.3588C12.7199 21.21 11.5812 21.7469 10.0655 21.9696C10.8194 22.4151 11.4398 22.9043 11.9267 23.4373C12.4215 23.9703 13.0851 24.9169 13.9176 26.2772L16.0262 29.6898H11.856L9.3351 25.8834C8.43981 24.5231 7.82724 23.668 7.4974 23.318C7.16755 22.96 6.81808 22.7174 6.44897 22.5901C6.07985 22.4549 5.49477 22.3873 4.69373 22.3873H3.98692V29.6898H0.5ZM3.98692 19.5951H6.56677C8.23954 19.5951 9.28405 19.5236 9.70028 19.3804C10.1165 19.2372 10.4424 18.9906 10.678 18.6406C10.9136 18.2906 11.0314 17.8531 11.0314 17.328C11.0314 16.7394 10.8744 16.2661 10.5602 15.9081C10.2539 15.5422 9.81808 15.3115 9.25264 15.216C8.96991 15.1763 8.12174 15.1564 6.70813 15.1564H3.98692V19.5951Z" fill="black"/>
<path d="M33.4961 29.6898H29.7029L28.1951 25.7163H21.2919L19.8665 29.6898H16.1676L22.894 12.1972H26.5812L33.4961 29.6898ZM27.076 22.7691L24.6964 16.278L22.3639 22.7691H27.076Z" fill="black"/>
<path d="M35.3574 29.6898V12.1972H40.953C43.0734 12.1972 44.4556 12.2847 45.0996 12.4597C46.0891 12.7222 46.9176 13.295 47.5852 14.1779C48.2527 15.053 48.5865 16.1865 48.5865 17.5786C48.5865 18.6525 48.3941 19.5554 48.0093 20.2872C47.6244 21.0191 47.1336 21.5958 46.5367 22.0174C45.9477 22.431 45.347 22.7055 44.7344 22.8407C43.9019 23.0077 42.6964 23.0913 41.1179 23.0913H38.8443V29.6898H35.3574ZM38.8443 15.1564V20.1202H40.7527C42.127 20.1202 43.0459 20.0287 43.5093 19.8457C43.9726 19.6628 44.3339 19.3764 44.593 18.9866C44.86 18.5968 44.9935 18.1434 44.9935 17.6263C44.9935 16.99 44.809 16.4649 44.4399 16.0513C44.0708 15.6377 43.6035 15.3791 43.038 15.2757C42.6218 15.1962 41.7854 15.1564 40.5289 15.1564H38.8443Z" fill="black"/>
<path d="M65.2318 29.6898H61.4386L59.9308 25.7163H53.0276L51.6022 29.6898H47.9032L54.6297 12.1972H58.3169L65.2318 29.6898ZM58.8116 22.7691L56.4321 16.278L54.0996 22.7691H58.8116Z" fill="black"/>
<path d="M78.1428 23.2583L81.5237 24.3441C81.0054 26.2533 80.1415 27.6732 78.9321 28.6039C77.7305 29.5267 76.203 29.9881 74.3496 29.9881C72.0564 29.9881 70.1716 29.1966 68.6952 27.6136C67.2187 26.0226 66.4805 23.851 66.4805 21.0986C66.4805 18.1872 67.2226 15.928 68.7069 14.3211C70.1912 12.7063 72.1428 11.8989 74.5617 11.8989C76.6742 11.8989 78.3902 12.5313 79.7096 13.7961C80.4949 14.5439 81.0839 15.6178 81.4766 17.0178L78.025 17.8531C77.8208 16.9462 77.3928 16.2303 76.741 15.7053C76.097 15.1803 75.3117 14.9177 74.385 14.9177C73.1049 14.9177 72.0643 15.3831 71.2632 16.3138C70.47 17.2445 70.0734 18.7519 70.0734 20.8361C70.0734 23.0475 70.4661 24.6226 71.2515 25.5612C72.0368 26.4999 73.0577 26.9692 74.3143 26.9692C75.241 26.9692 76.0381 26.6709 76.7057 26.0743C77.3732 25.4777 77.8523 24.539 78.1428 23.2583Z" fill="black"/>
<path d="M84.5277 29.6898V12.1972H97.3327V15.1564H88.0146V19.0343H96.6848V21.9816H88.0146V26.7425H97.6625V29.6898H84.5277Z" fill="black"/>
<path d="M99.7358 23.9981L103.128 23.664C103.333 24.8175 103.745 25.6646 104.365 26.2056C104.994 26.7465 105.838 27.0169 106.898 27.0169C108.021 27.0169 108.865 26.7783 109.431 26.301C110.004 25.8158 110.291 25.251 110.291 24.6067C110.291 24.193 110.169 23.843 109.926 23.5566C109.69 23.2623 109.274 23.0077 108.677 22.793C108.269 22.6498 107.338 22.3952 105.885 22.0293C104.016 21.56 102.704 20.9833 101.95 20.2991C100.89 19.3366 100.36 18.1633 100.36 16.7792C100.36 15.8882 100.608 15.057 101.102 14.2853C101.605 13.5058 102.324 12.9131 103.258 12.5074C104.2 12.1018 105.335 11.8989 106.663 11.8989C108.83 11.8989 110.46 12.3802 111.551 13.3427C112.651 14.3052 113.228 15.5899 113.283 17.1968L109.796 17.3519C109.647 16.453 109.325 15.8087 108.83 15.4189C108.343 15.0212 107.609 14.8223 106.627 14.8223C105.614 14.8223 104.821 15.0331 104.248 15.4547C103.878 15.7252 103.694 16.0871 103.694 16.5405C103.694 16.9542 103.867 17.3082 104.212 17.6025C104.652 17.9764 105.72 18.3661 107.416 18.7718C109.113 19.1775 110.365 19.5991 111.174 20.0366C111.991 20.4662 112.627 21.0588 113.083 21.8145C113.546 22.5623 113.778 23.489 113.778 24.5947C113.778 25.597 113.503 26.5357 112.953 27.4107C112.403 28.2857 111.626 28.938 110.621 29.3676C109.615 29.7892 108.363 30 106.863 30C104.68 30 103.003 29.4909 101.833 28.4727C100.663 27.4465 99.9636 25.955 99.7358 23.9981Z" fill="black"/>
</svg>
