<svg width="80" height="80" viewBox="0 0 80 80" fill="none" xmlns="http://www.w3.org/2000/svg">
<path d="M42.8316 80C42.088 80 41.5322 79.33 41.6586 78.6061L44.9944 59.4883L43.9247 55.1264C43.7681 54.4886 44.1586 53.8444 44.7966 53.688C45.4344 53.5308 46.0786 53.9217 46.235 54.5598L47.3642 59.1639C47.4034 59.3236 47.4089 59.4895 47.3808 59.6515L44.0022 79.015C43.9011 79.5928 43.3988 80 42.8316 80Z" fill="#EDA024"/>
<path d="M46.209 79.9998H36.2582C35.6013 79.9998 35.0688 79.4673 35.0688 78.8104C35.0688 78.1536 35.6013 77.6211 36.2582 77.6211H46.209C46.8659 77.6211 47.3984 78.1536 47.3984 78.8104C47.3984 79.4673 46.8659 79.9998 46.209 79.9998Z" fill="#EDA024"/>
<path d="M16.6051 5.06876C16.6051 5.06876 12.285 6.5036 17.1567 6.5036H28.3542C26.5173 5.54704 25.5476 3.88845 26.7278 2.28829L16.6051 5.06876Z" fill="#F6B138"/>
<path d="M26.5801 4.9678C17.0843 6.35999 16.9468 6.4128 16.1565 6.47733C16.9262 6.5239 16.7181 6.49452 28.3541 6.50358C27.5571 6.08858 26.942 5.56202 26.5801 4.9678Z" fill="#EDA024"/>
<path d="M62.6931 52.2917C62.6931 52.2917 65.7974 53.5234 65.0435 50.6233C63.473 45.1803 59.2733 33.7169 50.457 27.3802C38.6169 18.8702 34.5469 25.7152 34.5469 25.7152C27.1469 20.9052 42.6869 14.8002 42.6869 7.03C42.6869 3.68891 38.9077 1.92844 37.5531 1.40469C36.3539 0.54875 34.5113 0 32.4432 0C28.8292 0 25.8996 1.67406 25.8996 3.73922C25.8996 5.80438 28.8292 7.47844 32.4432 7.47844C33.7792 7.47844 35.0213 7.24906 36.0569 6.85625C38.6985 8.88453 34.0602 11.9567 30.2917 15.725C25.4817 20.535 25.4817 26.085 25.4817 26.085C24.4642 46.1577 47.2599 47.9428 53.2319 49.2102C56.5588 49.9161 60.1902 51.265 62.6931 52.2917Z" fill="#EAEAEA"/>
<path d="M64.3655 48.4386C63.8871 48.3694 63.486 48.2109 63.486 48.2109V48.2111C60.9832 47.1844 57.3516 45.8355 54.0249 45.1295C48.0657 43.865 25.3575 42.0831 26.2705 22.1325C25.4838 24.4236 25.4817 26.0851 25.4817 26.0851C24.4642 46.1578 47.2599 47.943 53.2319 49.2103C56.5588 49.9162 60.1902 51.2652 62.693 52.2919V52.2917C62.693 52.2917 65.7971 53.5234 65.0432 50.6233C64.8563 49.975 64.6307 49.2391 64.3655 48.4386Z" fill="#BDBDC1"/>
<path d="M50.4568 27.3802C38.6168 18.8702 34.5468 25.7152 34.5468 25.7152C34.5468 25.7152 30.8468 34.1327 45.9243 39.0352C55.1893 42.0477 63.3066 50.5259 64.8835 52.2441C65.1518 51.9694 65.2649 51.4758 65.0432 50.6233C63.4727 45.1803 59.273 33.7169 50.4568 27.3802Z" fill="#8AC1F9"/>
<path d="M62.5894 43.7451C59.1519 40.9441 54.6491 37.9044 49.8361 36.3394C36.3461 31.9531 37.8874 24.754 38.3615 23.2864C35.646 23.8686 34.5468 25.7151 34.5468 25.7151C34.5468 25.7151 30.8468 34.1326 45.9243 39.0351C55.1893 42.0476 63.3066 50.5259 64.8835 52.2441C65.1518 51.9694 65.2649 51.4758 65.0432 50.6233C64.5301 48.8445 63.7336 46.4209 62.5894 43.7451Z" fill="#67A9F9"/>
<path d="M47.4104 80C47.3424 80 47.2736 79.9942 47.2046 79.9822C46.5574 79.8692 46.1244 79.2531 46.2374 78.6061L49.5732 59.4883L48.5033 55.1264C48.3468 54.4886 48.7372 53.8444 49.3752 53.688C50.0133 53.5308 50.6572 53.9217 50.8137 54.5598L51.9429 59.1639C51.9821 59.3236 51.9876 59.4895 51.9594 59.6515L48.5808 79.015C48.4797 79.5928 47.9776 80 47.4104 80Z" fill="#F6B138"/>
<path d="M50.7876 79.9998H40.8368C40.18 79.9998 39.6475 79.4673 39.6475 78.8104C39.6475 78.1536 40.18 77.6211 40.8368 77.6211H50.7876C51.4445 77.6211 51.977 78.1536 51.977 78.8104C51.977 79.4673 51.4445 79.9998 50.7876 79.9998Z" fill="#F6B138"/>
<path d="M50.3192 48.6824C48.7026 48.3989 46.7454 48.0367 44.647 47.5092L46.4878 53.2185C46.9129 54.5372 48.3398 55.2683 49.6585 54.843C50.9773 54.4178 51.7084 52.991 51.2831 51.6722L50.3192 48.6824Z" fill="#EAEAEA"/>
<path d="M44.647 47.5092C43.2298 47.153 41.7487 46.7212 40.2642 46.187L42.4928 53.2183C42.9179 54.537 44.3448 55.2681 45.6635 54.8428C46.169 54.6798 46.5871 54.3689 46.8879 53.9741C46.4131 53.3572 46.5715 53.3136 44.647 47.5092Z" fill="#BDBDC1"/>
</svg>
