<svg width="80" height="80" viewBox="0 0 80 80" fill="none" xmlns="http://www.w3.org/2000/svg">
<path d="M34.839 69.0318H32.2584V63.8706H29.6778V69.0318H23.2262C22.5129 69.0318 21.9359 69.6096 21.9359 70.3221C21.9359 71.0346 22.5131 71.6124 23.2262 71.6124H34.8392C35.5525 71.6124 36.1295 71.0346 36.1295 70.3221C36.1295 69.6096 35.5522 69.0318 34.839 69.0318Z" fill="#9C969E"/>
<path d="M24.5163 71.6133H23.226C22.5163 71.6133 21.9357 71.0327 21.9357 70.323C21.9357 69.6133 22.5163 69.0327 23.226 69.0327H24.5163C25.226 69.0327 25.8066 69.6133 25.8066 70.323C25.8066 71.0325 25.226 71.6133 24.5163 71.6133Z" fill="#867E88"/>
<path d="M34.8388 71.6133C34.1291 71.6133 33.5485 71.0327 33.5485 70.323C33.5485 69.6133 34.1291 69.0327 34.8388 69.0327C35.5485 69.0327 36.1291 69.6133 36.1291 70.323C36.1291 71.0325 35.5485 71.6133 34.8388 71.6133Z" fill="#867E88"/>
<path d="M20.161 47.9842L27.6852 63.6938C28.1138 64.5907 29.0196 65.1617 30.0135 65.1617H32.0296C32.9668 65.1617 33.8304 64.6535 34.2855 63.8343L41.532 50.8068L20.161 47.9842Z" fill="#696263"/>
<path d="M25.8064 22.5808L22.1053 14.4383C20.4302 10.7532 16.7559 8.38723 12.708 8.38723H9.03219C6.89437 8.38723 5.16125 10.1204 5.16125 12.2582H3.87094C1.73312 12.2583 0 13.9913 0 16.1293V17.4196H5.16125C6.58641 17.4196 7.74188 18.5749 7.74188 20.0002V29.0324C7.74188 39.2127 13.6053 48.0811 22.1994 52.2158C27.2042 54.6238 34.6152 54.6966 36.8573 54.3975L58.2056 51.5324L25.8064 22.5808Z" fill="#A6A6A6"/>
<path d="M53.3809 48.3872H33.5484C21.4338 48.3872 11.613 38.5664 11.613 26.4518V20.0002C11.613 17.1497 9.30219 14.8389 6.45172 14.8389H0.237031C0.0929687 15.2444 0 15.6744 0 16.1293V17.4196H5.16125C6.58641 17.4196 7.74188 18.5749 7.74188 20.0002V29.0324C7.74188 39.2127 13.6053 48.0811 22.1994 52.2158C27.2042 54.6238 34.6152 54.6966 36.8573 54.3975L58.2056 51.5324L53.3809 48.3872Z" fill="#797979"/>
<path d="M74.4352 50.5648L68.3186 53.9145C67.741 54.232 67.0636 54.3163 66.4257 54.1503L28.0641 43.3873L41.2899 37.984L74.4352 50.5648Z" fill="#4D4D4D"/>
<path d="M78.8992 47.6163L63.7097 37.0158L43.75 42.2579L78.3259 53.0267C79.1566 53.2855 80 52.6647 80 51.7949V49.7305C80 48.8883 79.5891 48.0993 78.8992 47.6163Z" fill="#696263"/>
<path d="M12.9034 13.5482H9.03226C8.31897 13.5482 7.74194 12.9703 7.74194 12.2578C7.74194 11.5453 8.31913 10.9675 9.03226 10.9675H12.9032C13.6165 10.9675 14.1935 11.5453 14.1935 12.2578C14.1935 12.9703 13.6165 13.5482 12.9034 13.5482Z" fill="#797979"/>
<path d="M5.16125 13.5483V12.258H3.87094C1.73312 12.258 0 13.991 0 16.1289V17.4193C0 18.1319 0.577656 18.7096 1.29031 18.7096C2.00297 18.7096 2.58063 18.1319 2.58063 17.4193H6.45156C7.16422 17.4193 7.74188 16.8416 7.74188 16.1289C7.74188 15.4163 7.16422 14.8386 6.45156 14.8386C5.73906 14.8386 5.16125 14.2608 5.16125 13.5483Z" fill="#6F6571"/>
<path d="M10.3228 14.8386C9.6131 14.8386 9.03247 14.258 9.03247 13.5483C9.03247 12.8386 9.6131 12.258 10.3228 12.258C11.0325 12.258 11.6131 12.8386 11.6131 13.5483C11.6133 14.258 11.0325 14.8386 10.3228 14.8386Z" fill="#4B3F4E"/>
<path d="M1.29031 18.7099C2.00297 18.7099 2.58063 18.1321 2.58063 17.4196H6.45156C7.16422 17.4196 7.74188 16.8418 7.74188 16.1293C7.74188 15.4166 7.16422 14.8389 6.45156 14.8389H2.58063C1.15547 14.8389 0 15.9943 0 17.4196C0 18.1321 0.577656 18.7099 1.29031 18.7099Z" fill="#5D5360"/>
<path d="M75.3675 37.5267C74.5989 36.8495 56.5064 21.2664 25.2028 21.7289C24.0306 21.7462 23.095 22.5028 22.4275 23.4664C20.8061 25.8066 19.1902 30.5106 19.79 33.6591C20.9674 39.8387 70.4172 37.063 70.4172 37.063L71.5997 37.8819C72.9253 38.83 73.6288 39.4337 73.6639 39.4645C73.9097 39.6794 74.2121 39.7845 74.5146 39.7845C74.8736 39.7845 75.2303 39.6364 75.4849 39.3461C75.9547 38.8114 75.903 37.9967 75.3675 37.5267Z" fill="#C5C5C5"/>
<path d="M65.0455 33.8206L60.5457 31.5764C58.0518 30.435 55.2228 29.3045 52.0775 28.287C44.2886 25.7672 34.6608 25.014 27.2043 26.5054C25.0538 26.9356 19.8386 28.4947 19.7903 33.659C19.765 36.3637 20.8564 39.6893 24.086 42.0431C31.6925 47.5868 52.0466 46.8158 70.4175 37.0629C69.0441 36.1361 67.2467 35.0145 65.0455 33.8206Z" fill="#777777"/>
</svg>
