<svg width="80" height="80" viewBox="0 0 80 80" fill="none" xmlns="http://www.w3.org/2000/svg">
<g clip-path="url(#clip0)">
<path d="M34.7469 74.8948C37.7469 74.2282 39.6775 71.6309 40.2677 70.4157L42.7677 68.9573C43.2538 69.4782 44.5177 69.9573 45.2677 71.0407C46.2052 72.3948 47.0386 73.3323 47.1427 74.5823C47.2469 75.8323 45.6844 77.6032 44.7469 78.749C43.8094 79.8948 38.3927 79.999 35.9969 79.999C33.6011 79.999 29.8511 79.2698 29.8511 77.6032C29.8511 75.9365 30.9969 75.7282 34.7469 74.8948Z" fill="#EF9B4E"/>
<path d="M40.1636 56.6657H45.1636L45.2677 71.0407L40.2677 70.4157L40.1636 56.6657Z" fill="#EF9B4E"/>
<path d="M29.9561 74.8968C32.9562 74.2301 34.8867 71.6329 35.477 70.4176L37.977 68.9593C38.4631 69.4801 39.727 69.9593 40.477 71.0426C41.4145 72.3968 42.2478 73.3343 42.352 74.5843C42.4562 75.8343 40.8937 77.6051 39.9562 78.7509C39.0187 79.8968 33.602 80.0009 31.2061 80.0009C28.8103 80.0009 25.0603 79.2718 25.0603 77.6051C25.0603 75.9384 26.2061 75.7301 29.9561 74.8968Z" fill="#F1AB6A"/>
<path d="M35.3728 58.3343H40.3728L40.477 71.0426L35.477 70.4176L35.3728 58.3343Z" fill="#F1AB6A"/>
<path d="M25.1638 31.1462C25.9971 30.3129 25.7193 26.5629 25.4763 24.7921C32.386 20.7643 45.5595 14.0629 42.9762 19.4796C40.3929 24.8962 40.3026 30.4865 40.5804 32.6046C44.997 30.0212 55.372 28.542 60.4762 28.1254C60.9762 29.3754 60.372 32.3615 60.1637 33.3337C62.0804 31.0837 69.5734 29.6532 72.4554 29.5837C74.122 49.1671 54.747 57.9171 41.4137 60.8337C28.0804 63.7504 18.1846 58.7504 16.9346 49.6879C15.6846 40.6254 24.1221 32.1879 25.1638 31.1462Z" fill="#D89B7A"/>
<path d="M36.398 45.4169C34.9814 45.0836 35.5648 43.4377 35.773 41.7711C37.3356 36.1461 42.1966 29.4447 45.9813 26.3544C50.4952 23.16 59.7313 19.1044 60.5646 28.4378C61.6063 40.1044 57.1273 42.0178 53.0646 44.5836C49.3771 46.9125 38.1689 45.8336 36.398 45.4169Z" fill="#C27C50"/>
<path fill-rule="evenodd" clip-rule="evenodd" d="M56.8484 22.8534C56.9252 23.24 56.9843 23.6557 57.0241 24.102C57.9985 35.0145 54.1427 37.3939 50.3155 39.7556C50.0511 39.9188 49.7867 40.082 49.5241 40.2478C46.7965 41.9705 39.9541 41.8286 35.8599 41.4694C37.5087 35.9084 42.2642 29.3897 45.9815 26.3544C48.8237 24.343 53.5383 21.9901 56.8484 22.8534Z" fill="#D28A61"/>
<path fill-rule="evenodd" clip-rule="evenodd" d="M29.098 59.1923C31.2843 60.4266 33.9318 61.2324 36.9367 61.5328C30.1801 62.1499 24.6095 60.5734 21.0533 57.4164C23.3499 58.4511 26.0633 59.0666 29.098 59.1923Z" fill="#CAC4CB"/>
<path fill-rule="evenodd" clip-rule="evenodd" d="M31.0187 24.7921C31.2618 26.5629 31.5396 30.3129 30.7062 31.1462C29.6646 32.1879 21.2271 40.6254 22.4771 49.6879C23.3868 56.2838 28.8765 60.7277 36.938 61.5336C25.9092 62.5408 18.0402 57.7034 16.9346 49.6879C15.6846 40.6254 24.1221 32.1879 25.1638 31.1462C25.9971 30.3129 25.7193 26.5629 25.4763 24.7921C31.9606 21.0123 43.9612 14.8779 43.2793 18.6135C39.4515 20.1188 34.4588 22.7868 31.0187 24.7921Z" fill="#CD8255"/>
<path fill-rule="evenodd" clip-rule="evenodd" d="M21.0511 57.4154C25.3652 61.2472 32.6459 62.752 41.4128 60.8342C54.7461 57.9176 74.1211 49.1676 72.4545 29.5843C71.4892 29.6075 70.1469 29.7601 68.7163 30.0373C68.3346 47.5924 50.2357 55.6163 37.58 58.3848C31.0377 59.8159 25.3229 59.341 21.0511 57.4154Z" fill="#E1DEE2"/>
<path d="M14.1219 12.3958C15.0386 12.3125 17.6983 9.93056 18.9136 8.75L20.5803 18.6458C19.3303 18.75 16.2886 18.9583 14.1219 18.9583C11.4136 18.9583 7.14276 16.3542 7.3511 14.1667C7.55943 11.9792 12.9761 12.5 14.1219 12.3958Z" fill="#F8DF57"/>
<path fill-rule="evenodd" clip-rule="evenodd" d="M25.4755 24.7922C25.7185 26.563 25.9963 30.313 25.163 31.1464C24.8951 31.4142 24.1383 32.1711 23.1829 33.3018C28.4595 32.1893 35.392 30.326 40.5415 28.8517C40.7192 26.4595 41.2727 23.4067 42.5831 20.3472C37.5231 22.9454 32.1351 23.3436 28.0054 23.3571C27.104 23.8552 26.2503 24.3405 25.4755 24.7922Z" fill="#F2F0F3"/>
<path fill-rule="evenodd" clip-rule="evenodd" d="M25.1629 31.1459C25.9962 30.3126 25.7184 26.5626 25.4754 24.7917C25.5383 24.7551 25.6017 24.7182 25.6656 24.6811L30.684 25.1052C31.2721 26.5291 32.1694 29.5372 31.5895 31.295C28.6592 32.0532 25.7283 32.7647 23.1827 33.3014C24.1382 32.1706 24.895 31.4137 25.1629 31.1459Z" fill="#E1DEE2"/>
<ellipse cx="31.3095" cy="13.3333" rx="13.3333" ry="13.3333" fill="#92CE6F"/>
<path fill-rule="evenodd" clip-rule="evenodd" d="M34.122 0.297174C28.1089 1.5883 23.6012 6.93441 23.6012 13.3333C23.6012 19.7323 28.1089 25.0784 34.122 26.3695C33.2153 26.5642 32.2744 26.6667 31.3095 26.6667C23.9457 26.6667 17.9762 20.6971 17.9762 13.3333C17.9762 5.96954 23.9457 0 31.3095 0C32.2744 0 33.2153 0.102489 34.122 0.297174Z" fill="#7FC658"/>
<ellipse cx="27.6628" cy="9.4801" rx="1.77084" ry="1.77083" fill="#887D89"/>
</g>
<defs>
<clipPath id="clip0">
<rect width="80" height="80" fill="white"/>
</clipPath>
</defs>
</svg>
