<svg width="15" height="12" viewBox="0 0 15 12" fill="none" xmlns="http://www.w3.org/2000/svg">
<path d="M14.2104 1.20986C14.1175 1.11613 14.0069 1.04174 13.885 0.990969C13.7632 0.940201 13.6324 0.914062 13.5004 0.914062C13.3684 0.914062 13.2377 0.940201 13.1159 0.990969C12.994 1.04174 12.8834 1.11613 12.7904 1.20986L5.34044 8.66986L2.21044 5.52986C2.11392 5.43662 1.99998 5.36331 1.87512 5.3141C1.75026 5.2649 1.61694 5.24077 1.48276 5.24309C1.34858 5.24541 1.21617 5.27414 1.09309 5.32763C0.970013 5.38113 0.858676 5.45834 0.765438 5.55486C0.672199 5.65138 0.598885 5.76532 0.549682 5.89018C0.500478 6.01503 0.476347 6.14836 0.478669 6.28254C0.48099 6.41672 0.509718 6.54913 0.563211 6.67221C0.616705 6.79529 0.693916 6.90662 0.790438 6.99986L4.63044 10.8399C4.7234 10.9336 4.834 11.008 4.95586 11.0588C5.07772 11.1095 5.20843 11.1357 5.34044 11.1357C5.47245 11.1357 5.60316 11.1095 5.72502 11.0588C5.84687 11.008 5.95748 10.9336 6.05044 10.8399L14.2104 2.67986C14.3119 2.58622 14.393 2.47257 14.4484 2.34607C14.5038 2.21957 14.5324 2.08296 14.5324 1.94486C14.5324 1.80676 14.5038 1.67015 14.4484 1.54365C14.393 1.41715 14.3119 1.3035 14.2104 1.20986Z" fill="#39765A"/>
</svg>
