<svg width="21" height="21" viewBox="0 0 21 21" fill="none" xmlns="http://www.w3.org/2000/svg">
<path fill-rule="evenodd" clip-rule="evenodd" d="M13.9469 0.811868C15.167 1.33596 16.2704 2.09778 17.1929 3.05288C18.148 3.97535 18.9098 5.0788 19.4339 6.29884C19.958 7.51888 20.2339 8.83108 20.2454 10.1589C20.2569 11.4867 20.0039 12.8035 19.5011 14.0324C18.9983 15.2614 18.2558 16.3779 17.3168 17.3168C16.3779 18.2558 15.2614 18.9983 14.0324 19.5011C12.8035 20.0039 11.4867 20.2569 10.1589 20.2454C8.83108 20.2339 7.51888 19.958 6.29884 19.4339C5.0788 18.9098 3.97535 18.148 3.05288 17.1929C2.09778 16.2704 1.33596 15.167 0.811868 13.9469C0.287778 12.7269 0.0119157 11.4147 0.000377568 10.0869C-0.0111606 8.7591 0.241856 7.44231 0.744665 6.21334C1.24747 4.98438 1.99001 3.86786 2.92893 2.92893C3.86786 1.99001 4.98438 1.24747 6.21334 0.744665C7.44231 0.241856 8.7591 -0.0111606 10.0869 0.000377568C11.4147 0.0119157 12.7269 0.287778 13.9469 0.811868ZM13.7158 6.2958C13.6228 6.20207 13.5122 6.12768 13.3904 6.07691C13.2685 6.02614 13.1378 6 13.0058 6C12.8738 6 12.7431 6.02614 12.6212 6.07691C12.4994 6.12768 12.3888 6.20207 12.2958 6.2958L10.0058 8.5958L7.7158 6.2958C7.52749 6.10749 7.2721 6.00171 7.0058 6.00171C6.7395 6.00171 6.4841 6.10749 6.2958 6.2958C6.10749 6.4841 6.00171 6.7395 6.00171 7.0058C6.00171 7.2721 6.10749 7.52749 6.2958 7.7158L8.5958 10.0058L6.2958 12.2958C6.20207 12.3888 6.12768 12.4994 6.07691 12.6212C6.02614 12.7431 6 12.8738 6 13.0058C6 13.1378 6.02614 13.2685 6.07691 13.3904C6.12768 13.5122 6.20207 13.6228 6.2958 13.7158C6.38876 13.8095 6.49936 13.8839 6.62122 13.9347C6.74308 13.9855 6.87379 14.0116 7.0058 14.0116C7.13781 14.0116 7.26852 13.9855 7.39038 13.9347C7.51223 13.8839 7.62284 13.8095 7.7158 13.7158L10.0058 11.4158L12.2958 13.7158C12.3888 13.8095 12.4994 13.8839 12.6212 13.9347C12.7431 13.9855 12.8738 14.0116 13.0058 14.0116C13.1378 14.0116 13.2685 13.9855 13.3904 13.9347C13.5122 13.8839 13.6228 13.8095 13.7158 13.7158C13.8095 13.6228 13.8839 13.5122 13.9347 13.3904C13.9855 13.2685 14.0116 13.1378 14.0116 13.0058C14.0116 12.8738 13.9855 12.7431 13.9347 12.6212C13.8839 12.4994 13.8095 12.3888 13.7158 12.2958L11.4158 10.0058L13.7158 7.7158C13.8095 7.62284 13.8839 7.51223 13.9347 7.39038C13.9855 7.26852 14.0116 7.13781 14.0116 7.0058C14.0116 6.87379 13.9855 6.74308 13.9347 6.62122C13.8839 6.49936 13.8095 6.38876 13.7158 6.2958Z" fill="#9F9F9F"/>
</svg>
