<svg width="280" height="224" viewBox="0 0 280 224" fill="none" xmlns="http://www.w3.org/2000/svg">
<path d="M210.055 25.1652C215.034 25.1652 219.07 21.1123 219.07 16.1129C219.07 11.1134 215.034 7.06055 210.055 7.06055C205.075 7.06055 201.039 11.1134 201.039 16.1129C201.039 21.1123 205.075 25.1652 210.055 25.1652Z" fill="#2F2E41"/>
<path d="M203.683 21.6357C203.683 21.6357 202.379 38.1243 200.815 38.1243C199.25 38.1243 219.071 37.3484 219.071 37.3484C219.071 37.3484 210.725 26.4853 214.898 22.9936C219.071 19.5019 203.683 21.6357 203.683 21.6357Z" fill="#9F616A"/>
<path opacity="0.1" d="M203.683 21.6357C203.683 21.6357 202.379 38.1243 200.815 38.1243C199.25 38.1243 219.071 37.3484 219.071 37.3484C219.071 37.3484 210.725 26.4853 214.898 22.9936C219.071 19.5019 203.683 21.6357 203.683 21.6357Z" fill="black"/>
<path d="M167.216 211.231C149.079 211.232 131.503 204.917 117.482 193.364C103.462 181.811 93.8653 165.735 90.3268 147.874C86.7884 130.013 89.5274 111.472 98.0771 95.4116C106.627 79.3509 120.458 66.7637 137.215 59.7946C153.971 52.8255 172.616 51.9058 189.972 57.1921C207.328 62.4785 222.322 73.6438 232.398 88.7857C242.475 103.928 247.011 122.109 245.233 140.232C243.455 158.356 235.474 175.299 222.649 188.177C215.386 195.509 206.747 201.322 197.232 205.279C187.717 209.237 177.515 211.26 167.216 211.231ZM167.216 54.6192C124.437 54.6192 89.6335 89.5642 89.6335 132.517C89.6335 175.471 124.437 210.416 167.216 210.416C209.995 210.416 244.798 175.471 244.798 132.517C244.798 89.5642 209.995 54.6192 167.216 54.6192Z" fill="#3F3D56"/>
<path d="M227.102 57.7109L217.989 60.3292L230.719 59.7462C233.58 59.5901 236.392 60.5401 238.577 62.4011C240.845 64.3724 242.673 67.4992 240.913 72.1214C237.392 81.3659 231.977 90.0666 231.977 90.0666L228.456 96.864C228.456 96.864 221.145 97.9516 220.874 95.7764C220.603 93.6012 220.874 92.5137 222.228 91.4261C223.582 90.3385 224.394 88.1633 224.394 87.0757C224.394 85.9881 224.124 84.9006 224.936 84.3568C225.748 83.813 226.019 82.9973 226.019 81.3659C226.019 79.7345 230.717 72.5645 230.717 72.5645C230.717 72.5645 220.874 69.1306 216.635 72.0207C212.397 74.9109 203.814 87.6195 203.814 87.6195C203.251 88.2109 202.779 88.8838 202.415 89.6157C201.98 90.4652 201.378 91.2173 200.645 91.8262C199.857 92.521 200.583 94.4349 200.835 94.6888C201.106 94.9607 203.814 105.837 203.814 105.837C203.814 105.837 206.793 111.003 203.543 111.275C200.294 111.546 197.315 111.818 197.044 111.275C196.743 110.521 196.381 109.793 195.961 109.099C195.149 107.74 195.961 104.749 195.961 104.749C195.961 104.749 188.108 94.6888 190.545 88.4352C192.982 82.1816 198.127 68.043 198.127 68.043L205.98 64.7802L220.333 59.6142L227.102 57.7109Z" fill="#2F2E41"/>
<path d="M172.401 28.3468L161.298 26.1716C161.298 26.1716 158.591 16.9271 155.341 18.0147C152.092 19.1023 157.507 28.3468 157.507 28.3468L172.943 35.4161L172.401 28.3468Z" fill="#A0616A"/>
<path d="M239.829 37.5918L244.704 43.8454C244.704 43.8454 251.744 43.5735 249.578 47.3801C247.411 51.1866 242.537 49.0114 242.266 48.1958C241.996 47.3801 234.143 40.3108 234.143 40.3108L239.829 37.5918Z" fill="#A0616A"/>
<path d="M214.467 29.3346L207.427 34.7725L203.094 28.247L169.516 26.3438V37.4915C177.779 35.0957 185.386 34.3536 191.45 37.4915C199.126 47.7541 200.815 58.8983 195.959 71.0062L235.589 57.068C223.711 52.6271 218.198 46.1889 219.883 37.4915L233.694 42.3856L242.088 36.132C234.581 31.0601 223.409 27.879 214.467 29.3346Z" fill="#EECE25"/>
<path d="M140 223.999C217.32 223.999 280 219.251 280 213.395C280 207.539 217.32 202.791 140 202.791C62.6801 202.791 0 207.539 0 213.395C0 219.251 62.6801 223.999 140 223.999Z" fill="#3F3D56"/>
<path opacity="0.1" d="M100.871 220.193C153.14 220.193 195.513 217.028 195.513 213.124C195.513 209.22 153.14 206.055 100.871 206.055C48.6013 206.055 6.22852 209.22 6.22852 213.124C6.22852 217.028 48.6013 220.193 100.871 220.193Z" fill="black"/>
<path d="M253.235 199.002C252.333 206.938 257.192 214.013 257.192 214.013C257.192 214.013 263.514 208.22 264.416 200.283C265.318 192.346 260.459 185.271 260.459 185.271C260.459 185.271 254.137 191.065 253.235 199.002Z" fill="#2F2E41"/>
<path d="M256.681 198.593C259.933 205.884 257.433 214.103 257.433 214.103C257.433 214.103 249.661 210.502 246.41 203.211C243.158 195.921 245.658 187.701 245.658 187.701C245.658 187.701 253.43 191.302 256.681 198.593Z" fill="#EECE25"/>
<path d="M169.397 212.978C186.155 212.978 199.741 199.337 199.741 182.51C199.741 165.684 186.155 152.043 169.397 152.043C152.638 152.043 139.053 165.684 139.053 182.51C139.053 199.337 152.638 212.978 169.397 212.978Z" fill="#F2F2F2"/>
<path d="M169.396 135.539L161.921 154.303L134.891 154.521L126.085 154.592L105.188 154.761L96.3863 154.832L75.4895 155.001L66.6875 155.072L45.7907 155.245L36.9887 155.316L22.883 155.429L20.1546 149.822L16.6151 142.56L14.6603 138.541L13.5391 135.539L20.248 114.204C20.9039 112.12 22.2043 110.299 23.9604 109.007C25.7166 107.715 27.8371 107.018 30.0143 107.018H152.076C154.19 107.019 156.252 107.677 157.979 108.901C159.706 110.125 161.014 111.855 161.723 113.855L162.5 116.054L169.396 135.539Z" fill="#EECE25"/>
<path d="M169.396 135.539H13.5391V174.944H169.396V135.539Z" fill="#EECE25"/>
<path opacity="0.1" d="M169.396 135.539H13.5391V174.944H169.396V135.539Z" fill="black"/>
<path d="M171.695 81.4141H167.098V86.0303H171.695V81.4141Z" fill="#3F3D56"/>
<path d="M184.109 180.201H179.512V184.817H184.109V180.201Z" fill="#3F3D56"/>
<path d="M141.178 84.6875H41.3848V210.782H141.178V84.6875Z" fill="#F2F2F2"/>
<path d="M91.4676 93.6953H62.3145V97.8234H91.4676V93.6953Z" fill="#3F3D56"/>
<path d="M134.823 110.582H46.9902V112.458H134.823V110.582Z" fill="#E6E6E6"/>
<path d="M134.823 116.588H46.9902V118.464H134.823V116.588Z" fill="#E6E6E6"/>
<path d="M134.823 122.592H46.9902V124.468H134.823V122.592Z" fill="#E6E6E6"/>
<path d="M134.823 128.596H46.9902V130.472H134.823V128.596Z" fill="#E6E6E6"/>
<path d="M134.823 134.6H46.9902V136.476H134.823V134.6Z" fill="#E6E6E6"/>
<path d="M134.823 140.605H46.9902V142.482H134.823V140.605Z" fill="#E6E6E6"/>
<path d="M50.7289 101.201C49.4722 101.201 48.2438 100.827 47.1989 100.126C46.154 99.4248 45.3396 98.4284 44.8587 97.2626C44.3778 96.0969 44.2519 94.8141 44.4971 93.5766C44.7423 92.339 45.3474 91.2022 46.236 90.31C47.1246 89.4178 48.2568 88.8102 49.4893 88.564C50.7218 88.3178 51.9994 88.4442 53.1604 88.927C54.3214 89.4099 55.3138 90.2276 56.012 91.2768C56.7101 92.3259 57.0828 93.5594 57.0828 94.8212C57.0809 96.5126 56.4109 98.1342 55.2197 99.3303C54.0285 100.526 52.4135 101.199 50.7289 101.201ZM50.7289 89.192C49.6201 89.192 48.5361 89.5221 47.6142 90.1407C46.6922 90.7592 45.9736 91.6384 45.5493 92.667C45.1249 93.6956 45.0139 94.8274 45.2302 95.9194C45.4466 97.0113 45.9805 98.0144 46.7646 98.8016C47.5487 99.5889 48.5476 100.125 49.6351 100.342C50.7227 100.559 51.8499 100.448 52.8744 100.022C53.8988 99.5958 54.7744 98.8743 55.3904 97.9486C56.0065 97.0229 56.3353 95.9345 56.3353 94.8212C56.3336 93.3287 55.7424 91.8979 54.6913 90.8426C53.6403 89.7873 52.2153 89.1936 50.7289 89.192Z" fill="#EECE25"/>
<path d="M169.396 213.973H13.5391V135.539L33.7221 151.301L149.961 150.55L169.396 135.539V213.973Z" fill="#3F3D56"/>
<path d="M50.7274 195.771H21.5742V199.9H50.7274V195.771Z" fill="#F2F2F2"/>
<path d="M36.8745 188.02C36.2318 188.02 35.6036 187.828 35.0692 187.47C34.5348 187.111 34.1183 186.602 33.8724 186.005C33.6264 185.409 33.5621 184.753 33.6874 184.12C33.8128 183.487 34.1223 182.906 34.5768 182.45C35.0312 181.993 35.6102 181.683 36.2406 181.557C36.8709 181.431 37.5243 181.496 38.118 181.743C38.7118 181.989 39.2193 182.408 39.5764 182.944C39.9334 183.481 40.124 184.112 40.124 184.757C40.123 185.622 39.7804 186.451 39.1712 187.063C38.562 187.675 37.736 188.019 36.8745 188.02ZM36.8745 182.038C36.3389 182.038 35.8154 182.197 35.3701 182.496C34.9248 182.795 34.5777 183.22 34.3727 183.716C34.1678 184.213 34.1141 184.76 34.2186 185.287C34.3231 185.815 34.581 186.299 34.9597 186.679C35.3384 187.06 35.8209 187.319 36.3462 187.424C36.8715 187.529 37.416 187.475 37.9108 187.269C38.4056 187.063 38.8285 186.715 39.1261 186.267C39.4236 185.82 39.5824 185.295 39.5824 184.757C39.5816 184.036 39.2961 183.345 38.7884 182.835C38.2808 182.325 37.5925 182.039 36.8745 182.038Z" fill="white"/>
<path d="M227.643 95.5054C227.643 95.5054 229.268 101.759 229.81 102.031C230.351 102.303 236.309 107.469 232.247 108.284C228.185 109.1 225.206 108.828 224.394 108.013C223.581 107.197 223.852 106.381 222.498 106.109C221.144 105.837 218.707 105.022 218.978 103.118C219.249 101.215 220.603 96.0492 221.415 95.5054C222.227 94.9616 227.643 95.5054 227.643 95.5054Z" fill="#2F2E41"/>
<path d="M204.084 109.371C204.084 109.371 206.521 111.274 205.167 114.809C203.813 118.344 201.917 122.15 201.917 122.15C201.917 122.15 199.751 128.948 196.231 127.86C194.8 127.418 194.085 126.214 193.74 124.939C193.492 123.975 193.451 122.97 193.62 121.989C193.79 121.009 194.166 120.076 194.724 119.253L196.772 116.169L198.938 110.459L204.084 109.371Z" fill="#2F2E41"/>
<path d="M198.14 135.695C202.994 135.695 209 134.08 214.853 128.244C229.181 113.956 242.792 112.523 242.928 112.51L242.878 111.969C242.74 111.982 228.935 113.434 214.471 127.858C207.039 135.27 199.367 135.724 194.241 134.799C190.855 134.181 187.63 132.876 184.763 130.964L184.443 131.402C187.37 133.359 190.664 134.696 194.124 135.33C195.449 135.571 196.793 135.693 198.14 135.695Z" fill="#2F2E41"/>
<path d="M235.632 123.918C237.427 123.918 238.882 122.457 238.882 120.655C238.882 118.853 237.427 117.393 235.632 117.393C233.838 117.393 232.383 118.853 232.383 120.655C232.383 122.457 233.838 123.918 235.632 123.918Z" fill="#2F2E41"/>
<path d="M212.615 139.145C214.409 139.145 215.864 137.684 215.864 135.882C215.864 134.08 214.409 132.619 212.615 132.619C210.82 132.619 209.365 134.08 209.365 135.882C209.365 137.684 210.82 139.145 212.615 139.145Z" fill="#2F2E41"/>
<path d="M209.326 27.7636C212.915 27.7636 215.824 24.8425 215.824 21.2392C215.824 17.6359 212.915 14.7148 209.326 14.7148C205.737 14.7148 202.828 17.6359 202.828 21.2392C202.828 24.8425 205.737 27.7636 209.326 27.7636Z" fill="#A0616A"/>
<path d="M214.761 0C214.079 0.976952 213.07 1.67397 211.917 1.96277C209.929 2.49739 211.901 5.49762 211.901 5.49762C211.901 5.49762 211.184 4.40663 212.218 3.25124C213.253 2.09584 214.917 1.30593 214.761 0Z" fill="#2F2E41"/>
<path d="M211.548 8.74086C212.935 8.74086 214.06 7.61138 214.06 6.21809C214.06 4.8248 212.935 3.69531 211.548 3.69531C210.16 3.69531 209.035 4.8248 209.035 6.21809C209.035 7.61138 210.16 8.74086 211.548 8.74086Z" fill="#2F2E41"/>
<path d="M214.756 8.33303C212.708 7.55513 209.298 7.16071 207.543 7.43033L207.784 5.66602C209.47 6.54139 212.865 6.95277 214.997 6.56871L214.756 8.33303Z" fill="#3F3D56"/>
<path d="M210.251 10.3223C210.251 10.3223 207.684 14.6095 201.715 16.2144C195.745 17.8194 201.666 26.826 201.666 26.826C201.666 26.826 199.513 23.5509 202.618 20.0824C205.723 16.614 210.721 14.2426 210.251 10.3223Z" fill="#2F2E41"/>
<path d="M210.456 10.0625C210.456 10.0625 212.922 15.9512 215.629 16.508C218.337 17.0647 218.131 26.3695 213.898 27.7648C213.898 27.7648 216.985 22.3099 214.346 18.6516C211.707 14.9933 210.04 12.1013 210.456 10.0625Z" fill="#2F2E41"/>
</svg>
