<svg width="16" height="16" viewBox="0 0 16 16" fill="none" xmlns="http://www.w3.org/2000/svg">
<path d="M14.0007 9.3335C13.8238 9.3335 13.6543 9.40373 13.5292 9.52876C13.4042 9.65378 13.334 9.82335 13.334 10.0002V12.6668C13.334 12.8436 13.2637 13.0132 13.1387 13.1382C13.0137 13.2633 12.8441 13.3335 12.6673 13.3335H3.33398C3.15717 13.3335 2.9876 13.2633 2.86258 13.1382C2.73756 13.0132 2.66732 12.8436 2.66732 12.6668V10.0002C2.66732 9.82335 2.59708 9.65378 2.47206 9.52876C2.34703 9.40373 2.17746 9.3335 2.00065 9.3335C1.82384 9.3335 1.65427 9.40373 1.52925 9.52876C1.40422 9.65378 1.33398 9.82335 1.33398 10.0002V12.6668C1.33398 13.1973 1.5447 13.706 1.91977 14.081C2.29484 14.4561 2.80355 14.6668 3.33398 14.6668H12.6673C13.1978 14.6668 13.7065 14.4561 14.0815 14.081C14.4566 13.706 14.6673 13.1973 14.6673 12.6668V10.0002C14.6673 9.82335 14.5971 9.65378 14.4721 9.52876C14.347 9.40373 14.1775 9.3335 14.0007 9.3335ZM7.52732 10.4735C7.59072 10.5342 7.66548 10.5818 7.74732 10.6135C7.82712 10.6488 7.9134 10.667 8.00065 10.667C8.0879 10.667 8.17418 10.6488 8.25398 10.6135C8.33582 10.5818 8.41058 10.5342 8.47398 10.4735L11.1407 7.80683C11.2662 7.68129 11.3367 7.51103 11.3367 7.3335C11.3367 7.15596 11.2662 6.9857 11.1407 6.86016C11.0151 6.73463 10.8449 6.6641 10.6673 6.6641C10.4898 6.6641 10.3195 6.73463 10.194 6.86016L8.66732 8.3935V2.00016C8.66732 1.82335 8.59708 1.65378 8.47206 1.52876C8.34703 1.40373 8.17746 1.3335 8.00065 1.3335C7.82384 1.3335 7.65427 1.40373 7.52925 1.52876C7.40422 1.65378 7.33398 1.82335 7.33398 2.00016V8.3935L5.80732 6.86016C5.74516 6.798 5.67137 6.7487 5.59015 6.71506C5.50894 6.68142 5.42189 6.6641 5.33398 6.6641C5.24608 6.6641 5.15903 6.68142 5.07782 6.71506C4.9966 6.7487 4.92281 6.798 4.86065 6.86016C4.79849 6.92232 4.74919 6.99612 4.71554 7.07733C4.6819 7.15854 4.66459 7.24559 4.66459 7.3335C4.66459 7.4214 4.6819 7.50845 4.71554 7.58966C4.74919 7.67088 4.79849 7.74467 4.86065 7.80683L7.52732 10.4735Z" fill="#39765A"/>
</svg>
