<svg width="17" height="17" viewBox="0 0 17 17" fill="none" xmlns="http://www.w3.org/2000/svg">
<path d="M15.1319 8.23335C13.7853 5.10669 11.2519 3.16669 8.5186 3.16669C5.78527 3.16669 3.25193 5.10669 1.90527 8.23335C1.86856 8.31746 1.84961 8.40825 1.84961 8.50002C1.84961 8.59179 1.86856 8.68258 1.90527 8.76669C3.25193 11.8934 5.78527 13.8334 8.5186 13.8334C11.2519 13.8334 13.7853 11.8934 15.1319 8.76669C15.1686 8.68258 15.1876 8.59179 15.1876 8.50002C15.1876 8.40825 15.1686 8.31746 15.1319 8.23335V8.23335ZM8.5186 12.5C6.3986 12.5 4.40527 10.9734 3.25193 8.50002C4.40527 6.02669 6.3986 4.50002 8.5186 4.50002C10.6386 4.50002 12.6319 6.02669 13.7853 8.50002C12.6319 10.9734 10.6386 12.5 8.5186 12.5ZM8.5186 5.83335C7.99118 5.83335 7.47561 5.98975 7.03708 6.28277C6.59855 6.57579 6.25675 6.99226 6.05492 7.47953C5.85309 7.9668 5.80028 8.50298 5.90317 9.02026C6.00607 9.53754 6.26004 10.0127 6.63298 10.3856C7.00592 10.7586 7.48108 11.0126 7.99836 11.1154C8.51564 11.2183 9.05182 11.1655 9.53909 10.9637C10.0264 10.7619 10.4428 10.4201 10.7359 9.98154C11.0289 9.54301 11.1853 9.02744 11.1853 8.50002C11.1853 7.79278 10.9043 7.1145 10.4042 6.6144C9.90412 6.1143 9.22584 5.83335 8.5186 5.83335V5.83335ZM8.5186 9.83335C8.25489 9.83335 7.9971 9.75515 7.77784 9.60865C7.55857 9.46214 7.38768 9.2539 7.28676 9.01026C7.18584 8.76663 7.15944 8.49854 7.21089 8.2399C7.26233 7.98126 7.38932 7.74368 7.57579 7.55721C7.76226 7.37074 7.99984 7.24375 8.25848 7.19231C8.51712 7.14086 8.78521 7.16726 9.02884 7.26818C9.27248 7.3691 9.48072 7.53999 9.62722 7.75926C9.77373 7.97853 9.85193 8.23631 9.85193 8.50002C9.85193 8.85364 9.71146 9.19278 9.46141 9.44283C9.21136 9.69288 8.87222 9.83335 8.5186 9.83335Z" fill="#39765A"/>
</svg>
