<svg width="24" height="24" viewBox="0 0 24 24" fill="none" xmlns="http://www.w3.org/2000/svg">
<path fill-rule="evenodd" clip-rule="evenodd" d="M12 2.2998C11.4477 2.2998 11 2.74752 11 3.2998V4.06255C9.77211 4.21725 8.59203 4.65542 7.55544 5.34805C6.23985 6.2271 5.21447 7.47653 4.60897 8.93834C4.32773 9.6173 4.14294 10.3279 4.05661 11.0498H3.25C2.69772 11.0498 2.25 11.4975 2.25 12.0498C2.25 12.6021 2.69772 13.0498 3.25 13.0498H4.06921C4.09181 13.2205 4.11998 13.3909 4.15372 13.5605C4.4624 15.1124 5.22433 16.5378 6.34315 17.6567C7.46197 18.7755 8.88743 19.5374 10.4393 19.8461C10.6255 19.8831 10.8125 19.9134 11 19.9371V20.7998C11 21.3521 11.4477 21.7998 12 21.7998C12.5523 21.7998 13 21.3521 13 20.7998V19.9371C13.7047 19.8483 14.3982 19.6656 15.0615 19.3908C16.5233 18.7853 17.7727 17.76 18.6518 16.4444C19.335 15.4219 19.7706 14.2597 19.9308 13.0498H20.75C21.3023 13.0498 21.75 12.6021 21.75 12.0498C21.75 11.4975 21.3023 11.0498 20.75 11.0498H19.9434C19.8568 10.3255 19.6713 9.615 19.391 8.93834C18.989 7.96773 18.3997 7.08582 17.6569 6.34295C16.914 5.60008 16.0321 5.01081 15.0615 4.60877C14.4004 4.33494 13.707 4.15162 13 4.06255V3.2998C13 2.74752 12.5523 2.2998 12 2.2998ZM17.75 11.0498H18.3232C18.1193 9.69899 17.4882 8.44733 16.5203 7.47947C15.5644 6.52356 14.3317 5.89614 13 5.68438V6.2998C13 6.85209 12.5523 7.2998 12 7.2998C11.4477 7.2998 11 6.85209 11 6.2998V5.68438C9.66831 5.89614 8.43558 6.52356 7.47967 7.47947C6.51181 8.44733 5.8807 9.69899 5.67683 11.0498H6.25C6.80228 11.0498 7.25 11.4975 7.25 12.0498C7.25 12.6021 6.80228 13.0498 6.25 13.0498H5.69273C5.91211 14.3623 6.53574 15.5762 7.47967 16.5201C8.43558 17.476 9.66831 18.1035 11 18.3152V17.7998C11 17.2483 11.4464 16.8011 11.9975 16.7998L12 16.7998C12.5523 16.7998 13 17.2475 13 17.7998V18.3152C14.3317 18.1035 15.5644 17.476 16.5203 16.5201C17.4643 15.5762 18.0879 14.3623 18.3073 13.0498H17.75C17.1977 13.0498 16.75 12.6021 16.75 12.0498C16.75 11.4975 17.1977 11.0498 17.75 11.0498ZM12 13.9998C13.1046 13.9998 14 13.1044 14 11.9998C14 10.8952 13.1046 9.99981 12 9.99981C10.8954 9.99981 10 10.8952 10 11.9998C10 13.1044 10.8954 13.9998 12 13.9998Z" fill="black"/>
</svg>
