<svg width="16" height="16" viewBox="0 0 16 16" fill="none" xmlns="http://www.w3.org/2000/svg">
<path d="M6.66634 8.66683H1.99967C1.82286 8.66683 1.65329 8.73707 1.52827 8.86209C1.40325 8.98712 1.33301 9.15669 1.33301 9.3335V14.0002C1.33301 14.177 1.40325 14.3465 1.52827 14.4716C1.65329 14.5966 1.82286 14.6668 1.99967 14.6668H6.66634C6.84315 14.6668 7.01272 14.5966 7.13775 14.4716C7.26277 14.3465 7.33301 14.177 7.33301 14.0002V9.3335C7.33301 9.15669 7.26277 8.98712 7.13775 8.86209C7.01272 8.73707 6.84315 8.66683 6.66634 8.66683ZM5.99967 13.3335H2.66634V10.0002H5.99967V13.3335ZM13.9997 1.3335H9.33301C9.1562 1.3335 8.98663 1.40373 8.8616 1.52876C8.73658 1.65378 8.66634 1.82335 8.66634 2.00016V6.66683C8.66634 6.84364 8.73658 7.01321 8.8616 7.13823C8.98663 7.26326 9.1562 7.3335 9.33301 7.3335H13.9997C14.1765 7.3335 14.3461 7.26326 14.4711 7.13823C14.5961 7.01321 14.6663 6.84364 14.6663 6.66683V2.00016C14.6663 1.82335 14.5961 1.65378 14.4711 1.52876C14.3461 1.40373 14.1765 1.3335 13.9997 1.3335ZM13.333 6.00016H9.99967V2.66683H13.333V6.00016ZM13.9997 8.66683H9.33301C9.1562 8.66683 8.98663 8.73707 8.8616 8.86209C8.73658 8.98712 8.66634 9.15669 8.66634 9.3335V14.0002C8.66634 14.177 8.73658 14.3465 8.8616 14.4716C8.98663 14.5966 9.1562 14.6668 9.33301 14.6668H13.9997C14.1765 14.6668 14.3461 14.5966 14.4711 14.4716C14.5961 14.3465 14.6663 14.177 14.6663 14.0002V9.3335C14.6663 9.15669 14.5961 8.98712 14.4711 8.86209C14.3461 8.73707 14.1765 8.66683 13.9997 8.66683ZM13.333 13.3335H9.99967V10.0002H13.333V13.3335ZM6.66634 1.3335H1.99967C1.82286 1.3335 1.65329 1.40373 1.52827 1.52876C1.40325 1.65378 1.33301 1.82335 1.33301 2.00016V6.66683C1.33301 6.84364 1.40325 7.01321 1.52827 7.13823C1.65329 7.26326 1.82286 7.3335 1.99967 7.3335H6.66634C6.84315 7.3335 7.01272 7.26326 7.13775 7.13823C7.26277 7.01321 7.33301 6.84364 7.33301 6.66683V2.00016C7.33301 1.82335 7.26277 1.65378 7.13775 1.52876C7.01272 1.40373 6.84315 1.3335 6.66634 1.3335ZM5.99967 6.00016H2.66634V2.66683H5.99967V6.00016Z" fill="#262626"/>
</svg>
