<svg width="16" height="16" viewBox="0 0 16 16" fill="none" xmlns="http://www.w3.org/2000/svg">
<path d="M13.3334 5.33236L9.3334 1.82569C8.96671 1.49772 8.49202 1.31641 8.00006 1.31641C7.50811 1.31641 7.03341 1.49772 6.66673 1.82569L2.66673 5.33236C2.45498 5.52174 2.286 5.75407 2.17104 6.01386C2.05609 6.27365 1.9978 6.55495 2.00006 6.83903V12.6657C2.00006 13.1961 2.21078 13.7048 2.58585 14.0799C2.96092 14.455 3.46963 14.6657 4.00006 14.6657H12.0001C12.5305 14.6657 13.0392 14.455 13.4143 14.0799C13.7894 13.7048 14.0001 13.1961 14.0001 12.6657V6.83236C14.0014 6.5494 13.9426 6.26939 13.8277 6.01081C13.7128 5.75224 13.5443 5.521 13.3334 5.33236ZM9.3334 13.3324H6.66673V9.99903C6.66673 9.82222 6.73697 9.65265 6.86199 9.52762C6.98702 9.4026 7.15659 9.33236 7.3334 9.33236H8.66673C8.84354 9.33236 9.01311 9.4026 9.13813 9.52762C9.26316 9.65265 9.3334 9.82222 9.3334 9.99903V13.3324ZM12.6667 12.6657C12.6667 12.8425 12.5965 13.0121 12.4715 13.1371C12.3464 13.2621 12.1769 13.3324 12.0001 13.3324H10.6667V9.99903C10.6667 9.46859 10.456 8.95989 10.0809 8.58481C9.70587 8.20974 9.19716 7.99903 8.66673 7.99903H7.3334C6.80296 7.99903 6.29426 8.20974 5.91918 8.58481C5.54411 8.95989 5.3334 9.46859 5.3334 9.99903V13.3324H4.00006C3.82325 13.3324 3.65368 13.2621 3.52866 13.1371C3.40363 13.0121 3.3334 12.8425 3.3334 12.6657V6.83236C3.33352 6.7377 3.35379 6.64416 3.39287 6.55795C3.43196 6.47174 3.48895 6.39483 3.56006 6.33236L7.56006 2.83236C7.68172 2.72548 7.83812 2.66654 8.00006 2.66654C8.162 2.66654 8.3184 2.72548 8.44006 2.83236L12.4401 6.33236C12.5112 6.39483 12.5682 6.47174 12.6073 6.55795C12.6463 6.64416 12.6666 6.7377 12.6667 6.83236V12.6657Z" fill="black"/>
</svg>
