<svg width="512" height="512" viewBox="0 0 512 512" fill="none" xmlns="http://www.w3.org/2000/svg">
<rect width="512" height="512" fill="#EB6A0A"/>
<path fill-rule="evenodd" clip-rule="evenodd" d="M168.541 230.099C168.541 232.635 170.607 234.69 173.156 234.69C175.704 234.69 177.77 232.635 177.77 230.099C177.77 227.564 175.704 225.507 173.156 225.507C170.607 225.507 168.541 227.564 168.541 230.099ZM246.977 191.615C250.682 190.312 252.984 189.502 254.709 189.814C258.149 190.438 256.045 197.362 248.426 202.551C242.314 206.712 229.813 212.434 229.813 212.434C229.813 212.434 230.413 217.311 219.776 221.461C218.446 221.98 217.248 222.444 216.169 222.861C208.623 225.784 206.924 226.442 206.741 227.894C206.693 228.275 206.995 228.816 207.424 229.587C208.574 231.651 210.639 235.356 209.348 242.005C207.576 251.136 207.24 259.381 212.476 267.011C216.267 272.535 218.656 275.081 219.984 276.496C220.19 276.715 220.37 276.908 220.526 277.08C222.031 278.736 222.305 281.499 220.372 283.58C220.139 283.831 219.789 284.194 219.34 284.661C216.184 287.935 208.131 296.29 201.423 306.44C200.456 307.904 199.542 309.348 198.657 310.744C193.627 318.686 189.554 325.119 182.09 325.117C173.315 325.114 169.098 316.09 167.742 299.177C167.163 291.963 167.591 285.504 167.988 279.503C168.522 271.434 169.001 264.191 166.907 257.05C163.258 244.599 154.082 243.77 145.531 244.495C136.98 245.222 120.921 249.061 111.433 253.004C101.944 256.947 94.2264 260.993 92.5584 261.927C90.8891 262.861 87.9703 261.875 92.1411 258.01C96.3131 254.146 108.929 246.674 125.823 240.761C132.408 238.455 137.25 237.001 140.812 235.931C146.388 234.256 148.829 233.523 149.911 231.941C150.186 231.537 150.52 230.889 150.945 230.06C153.259 225.558 158.301 215.745 171.6 211.189C184.898 206.632 207.642 201.558 223.185 198.09C226.047 197.451 228.664 196.867 230.933 196.351C238.214 194.696 243.29 192.911 246.977 191.615ZM291.881 218.492C291.881 221.045 293.951 223.114 296.504 223.114C299.056 223.114 301.126 221.045 301.126 218.492C301.126 215.94 299.056 213.87 296.504 213.87C293.951 213.87 291.881 215.94 291.881 218.492ZM359.88 190.055C400.461 191.152 412.582 206.093 415.502 211.05C418.088 215.436 417.47 216.378 412.525 216.846C405.616 217.501 370.221 221.599 347.659 229.068C325.693 236.339 317.994 239.774 315.192 245.977C313.107 250.589 312.72 256.017 318.673 269.49C324.627 282.965 328.243 292.156 325.663 302.343C323.069 312.583 313.173 325.112 299.7 325.112H206.49C206.49 325.112 201.32 325.426 202.887 318.846C204.454 312.265 214.795 297.693 228.897 283.906C242.997 270.118 259.918 258.524 259.918 258.524C259.918 258.524 259.918 234.552 269.163 220.293C278.406 206.036 294.074 201.178 304.102 204.782C304.102 204.782 319.301 188.957 359.88 190.055Z" fill="white"/>
</svg>
