<svg width="24" height="24" viewBox="0 0 24 24" fill="none" xmlns="http://www.w3.org/2000/svg">
<path fill-rule="evenodd" clip-rule="evenodd" d="M21.4219 9.46875H14.5312V3.72853L16.2882 1.09317C16.432 0.877406 16.4454 0.6 16.323 0.371391C16.2007 0.142734 15.9624 0 15.7031 0H2.57812C1.15655 0 0 1.15655 0 2.57812V11.9531C0 13.3747 1.15655 14.5312 2.57812 14.5312H9.46875V20.2715L7.71183 22.9068C7.56802 23.1226 7.55461 23.4 7.67695 23.6286C7.7993 23.8572 8.03756 24 8.29688 24H21.4219C22.8435 24 24 22.8434 24 21.4218V12.0469C24 10.6253 22.8435 9.46875 21.4219 9.46875ZM2.57812 13.125C1.93195 13.125 1.40625 12.5993 1.40625 11.9531V2.57812C1.40625 1.93195 1.93195 1.40625 2.57812 1.40625H14.3893L13.2431 3.12563C13.1661 3.24113 13.125 3.37683 13.125 3.51562V11.9531C13.125 12.5993 12.5993 13.125 11.9531 13.125H2.57812ZM22.5938 21.4219C22.5938 22.068 22.068 22.5938 21.4219 22.5938H9.61069L10.7569 20.8744C10.8339 20.7589 10.875 20.6232 10.875 20.4844V14.5312H11.9531C13.3747 14.5312 14.5312 13.3747 14.5312 11.9531V10.875H21.4219C22.068 10.875 22.5938 11.4007 22.5938 12.0469V21.4219ZM10.5469 4.6875H7.96875V3.51562C7.96875 3.12731 7.65394 2.8125 7.26562 2.8125C6.87731 2.8125 6.5625 3.12731 6.5625 3.51562V4.6875H3.98438C3.59606 4.6875 3.28125 5.00231 3.28125 5.39062C3.28125 5.77894 3.59606 6.09375 3.98438 6.09375H4.45341C4.45983 7.61105 5.05884 8.99475 6.04191 10.0135C5.6692 10.1678 5.26889 10.2721 4.84828 10.3164C4.46208 10.357 4.182 10.7031 4.22264 11.0893C4.26066 11.4504 4.56577 11.7188 4.92103 11.7188C4.94564 11.7188 4.97048 11.7176 4.99552 11.715C5.82155 11.628 6.58955 11.3684 7.26567 10.9744C7.9418 11.3684 8.70975 11.628 9.53583 11.715C9.56086 11.7176 9.58566 11.7188 9.61031 11.7188C9.96553 11.7188 10.2707 11.4504 10.3087 11.0893C10.3493 10.7031 10.0693 10.357 9.68306 10.3164C9.26245 10.2721 8.86214 10.1678 8.48944 10.0135C9.47245 8.99475 10.0715 7.61105 10.0779 6.09375H10.5469C10.9352 6.09375 11.25 5.77894 11.25 5.39062C11.25 5.00231 10.9352 4.6875 10.5469 4.6875ZM7.26562 9.23977C6.40331 8.46094 5.86697 7.33744 5.85994 6.09375H8.67127C8.66428 7.33744 8.12794 8.46094 7.26562 9.23977ZM16.7464 12.5156C17.1043 12.5152 17.4239 12.7349 17.5517 13.0692L20.1678 20.0017C20.305 20.365 20.1215 20.7707 19.7583 20.9078C19.4044 21.0441 18.9889 20.8652 18.8522 20.4982L18.3723 19.2266H15.1008L14.6157 20.5002C14.4775 20.8631 14.0713 21.0453 13.7084 20.907C13.3455 20.7688 13.1633 20.3626 13.3016 19.9997L15.9418 13.0675C16.0702 12.7341 16.3892 12.5153 16.7464 12.5156ZM16.7441 14.9122L15.6364 17.8204H17.8416L16.7441 14.9122Z" fill="black"/>
</svg>
