<svg width="16" height="16" viewBox="0 0 16 16" fill="none" xmlns="http://www.w3.org/2000/svg">
<path d="M1.66661 5.90675L7.66661 9.37342C7.76795 9.43193 7.88291 9.46273 7.99994 9.46273C8.11696 9.46273 8.23193 9.43193 8.33327 9.37342L14.3333 5.90675C14.434 5.84858 14.5178 5.76506 14.5763 5.66447C14.6348 5.56389 14.6659 5.44976 14.6666 5.33342C14.6671 5.21594 14.6365 5.10043 14.578 4.99858C14.5194 4.89673 14.435 4.81215 14.3333 4.75342L8.33327 1.29342C8.23193 1.23491 8.11696 1.2041 7.99994 1.2041C7.88291 1.2041 7.76795 1.23491 7.66661 1.29342L1.66661 4.75342C1.56487 4.81215 1.48046 4.89673 1.42192 4.99858C1.36339 5.10043 1.33281 5.21594 1.33327 5.33342C1.33397 5.44976 1.36511 5.56389 1.42359 5.66447C1.48207 5.76506 1.56585 5.84858 1.66661 5.90675ZM7.99994 2.66675L12.6666 5.33342L7.99994 8.00008L3.33327 5.33342L7.99994 2.66675ZM13.6666 7.44675L7.99994 10.6668L2.33327 7.42008C2.25718 7.376 2.17313 7.34741 2.08594 7.33596C1.99875 7.3245 1.91016 7.33041 1.82527 7.35334C1.74038 7.37626 1.66086 7.41576 1.59129 7.46955C1.52173 7.52334 1.46349 7.59036 1.41994 7.66675C1.33302 7.81983 1.31018 8.00107 1.35639 8.17093C1.4026 8.34078 1.51412 8.48547 1.66661 8.57342L7.66661 12.0401C7.76795 12.0986 7.88291 12.1294 7.99994 12.1294C8.11696 12.1294 8.23193 12.0986 8.33327 12.0401L14.3333 8.57342C14.4858 8.48547 14.5973 8.34078 14.6435 8.17093C14.6897 8.00107 14.6669 7.81983 14.5799 7.66675C14.5364 7.59036 14.4781 7.52334 14.4086 7.46955C14.339 7.41576 14.2595 7.37626 14.1746 7.35334C14.0897 7.33041 14.0011 7.3245 13.9139 7.33596C13.8268 7.34741 13.7427 7.376 13.6666 7.42008V7.44675ZM13.6666 10.1134L7.99994 13.3334L2.33327 10.0868C2.25718 10.0427 2.17313 10.0141 2.08594 10.0026C1.99875 9.99117 1.91016 9.99708 1.82527 10.02C1.74038 10.0429 1.66086 10.0824 1.59129 10.1362C1.52173 10.19 1.46349 10.257 1.41994 10.3334C1.33302 10.4865 1.31018 10.6677 1.35639 10.8376C1.4026 11.0075 1.51412 11.1521 1.66661 11.2401L7.66661 14.7068C7.76795 14.7653 7.88291 14.7961 7.99994 14.7961C8.11696 14.7961 8.23193 14.7653 8.33327 14.7068L14.3333 11.2401C14.4858 11.1521 14.5973 11.0075 14.6435 10.8376C14.6897 10.6677 14.6669 10.4865 14.5799 10.3334C14.5364 10.257 14.4781 10.19 14.4086 10.1362C14.339 10.0824 14.2595 10.0429 14.1746 10.02C14.0897 9.99708 14.0011 9.99117 13.9139 10.0026C13.8268 10.0141 13.7427 10.0427 13.6666 10.0868V10.1134Z" fill="#262626"/>
</svg>
