<svg width="16" height="16" viewBox="0 0 16 16" fill="none" xmlns="http://www.w3.org/2000/svg">
<path d="M2.47316 10.86C2.40976 10.7993 2.335 10.7517 2.25316 10.72C2.09086 10.6533 1.9088 10.6533 1.7465 10.72C1.66466 10.7517 1.5899 10.7993 1.5265 10.86C1.4658 10.9234 1.41823 10.9982 1.3865 11.08C1.33544 11.2014 1.32149 11.3352 1.34641 11.4645C1.37133 11.5939 1.43399 11.7129 1.5265 11.8067C1.5913 11.8656 1.66571 11.9129 1.7465 11.9467C1.8263 11.9819 1.91258 12.0002 1.99983 12.0002C2.08708 12.0002 2.17336 11.9819 2.25316 11.9467C2.33395 11.9129 2.40836 11.8656 2.47316 11.8067C2.56567 11.7129 2.62833 11.5939 2.65325 11.4645C2.67816 11.3352 2.66422 11.2014 2.61316 11.08C2.58143 10.9982 2.53386 10.9234 2.47316 10.86ZM4.6665 5.33333H13.9998C14.1766 5.33333 14.3462 5.2631 14.4712 5.13807C14.5963 5.01305 14.6665 4.84348 14.6665 4.66667C14.6665 4.48986 14.5963 4.32029 14.4712 4.19526C14.3462 4.07024 14.1766 4 13.9998 4H4.6665C4.48969 4 4.32012 4.07024 4.19509 4.19526C4.07007 4.32029 3.99983 4.48986 3.99983 4.66667C3.99983 4.84348 4.07007 5.01305 4.19509 5.13807C4.32012 5.2631 4.48969 5.33333 4.6665 5.33333ZM2.47316 7.52667C2.37941 7.43416 2.26036 7.3715 2.13104 7.34658C2.00171 7.32167 1.8679 7.33561 1.7465 7.38667C1.66571 7.42043 1.5913 7.46778 1.5265 7.52667C1.4658 7.59007 1.41823 7.66483 1.3865 7.74667C1.35123 7.82647 1.33301 7.91275 1.33301 8C1.33301 8.08725 1.35123 8.17353 1.3865 8.25333C1.42026 8.33412 1.46761 8.40853 1.5265 8.47333C1.5913 8.53222 1.66571 8.57957 1.7465 8.61333C1.8263 8.6486 1.91258 8.66682 1.99983 8.66682C2.08708 8.66682 2.17336 8.6486 2.25316 8.61333C2.33395 8.57957 2.40836 8.53222 2.47316 8.47333C2.53205 8.40853 2.5794 8.33412 2.61316 8.25333C2.64843 8.17353 2.66665 8.08725 2.66665 8C2.66665 7.91275 2.64843 7.82647 2.61316 7.74667C2.58143 7.66483 2.53386 7.59007 2.47316 7.52667ZM13.9998 7.33333H4.6665C4.48969 7.33333 4.32012 7.40357 4.19509 7.5286C4.07007 7.65362 3.99983 7.82319 3.99983 8C3.99983 8.17681 4.07007 8.34638 4.19509 8.4714C4.32012 8.59643 4.48969 8.66667 4.6665 8.66667H13.9998C14.1766 8.66667 14.3462 8.59643 14.4712 8.4714C14.5963 8.34638 14.6665 8.17681 14.6665 8C14.6665 7.82319 14.5963 7.65362 14.4712 7.5286C14.3462 7.40357 14.1766 7.33333 13.9998 7.33333ZM2.47316 4.19333C2.40976 4.13264 2.335 4.08506 2.25316 4.05333C2.13176 4.00228 1.99795 3.98833 1.86862 4.01325C1.73929 4.03816 1.62025 4.10083 1.5265 4.19333C1.46761 4.25813 1.42026 4.33254 1.3865 4.41333C1.35123 4.49313 1.33301 4.57942 1.33301 4.66667C1.33301 4.75391 1.35123 4.8402 1.3865 4.92C1.42026 5.00079 1.46761 5.0752 1.5265 5.14C1.5913 5.19889 1.66571 5.24624 1.7465 5.28C1.8679 5.33105 2.00171 5.345 2.13104 5.32009C2.26036 5.29517 2.37941 5.23251 2.47316 5.14C2.53205 5.0752 2.5794 5.00079 2.61316 4.92C2.64843 4.8402 2.66665 4.75391 2.66665 4.66667C2.66665 4.57942 2.64843 4.49313 2.61316 4.41333C2.5794 4.33254 2.53205 4.25813 2.47316 4.19333ZM13.9998 10.6667H4.6665C4.48969 10.6667 4.32012 10.7369 4.19509 10.8619C4.07007 10.987 3.99983 11.1565 3.99983 11.3333C3.99983 11.5101 4.07007 11.6797 4.19509 11.8047C4.32012 11.9298 4.48969 12 4.6665 12H13.9998C14.1766 12 14.3462 11.9298 14.4712 11.8047C14.5963 11.6797 14.6665 11.5101 14.6665 11.3333C14.6665 11.1565 14.5963 10.987 14.4712 10.8619C14.3462 10.7369 14.1766 10.6667 13.9998 10.6667Z" fill="black"/>
</svg>
