<svg width="16" height="16" viewBox="0 0 16 16" fill="none" xmlns="http://www.w3.org/2000/svg">
<path d="M8.00033 1.3335C6.58584 1.3335 5.22928 1.8954 4.22909 2.89559C3.2289 3.89579 2.66699 5.25234 2.66699 6.66683C2.66699 10.2668 7.36699 14.3335 7.56699 14.5068C7.68775 14.6101 7.84142 14.6669 8.00033 14.6669C8.15923 14.6669 8.3129 14.6101 8.43366 14.5068C8.66699 14.3335 13.3337 10.2668 13.3337 6.66683C13.3337 5.25234 12.7718 3.89579 11.7716 2.89559C10.7714 1.8954 9.41481 1.3335 8.00033 1.3335ZM8.00033 13.1002C6.58033 11.7668 4.00033 8.8935 4.00033 6.66683C4.00033 5.60596 4.42175 4.58855 5.1719 3.8384C5.92204 3.08826 6.93946 2.66683 8.00033 2.66683C9.06119 2.66683 10.0786 3.08826 10.8288 3.8384C11.5789 4.58855 12.0003 5.60596 12.0003 6.66683C12.0003 8.8935 9.42033 11.7735 8.00033 13.1002ZM8.00033 4.00016C7.47291 4.00016 6.95734 4.15656 6.51881 4.44958C6.08027 4.74259 5.73848 5.15907 5.53665 5.64634C5.33481 6.13361 5.282 6.66979 5.3849 7.18707C5.48779 7.70435 5.74177 8.17951 6.11471 8.55245C6.48765 8.92539 6.9628 9.17936 7.48008 9.28226C7.99737 9.38515 8.53355 9.33234 9.02081 9.13051C9.50808 8.92868 9.92456 8.58688 10.2176 8.14835C10.5106 7.70982 10.667 7.19425 10.667 6.66683C10.667 5.95959 10.386 5.28131 9.88594 4.78121C9.38585 4.28111 8.70757 4.00016 8.00033 4.00016ZM8.00033 8.00016C7.73662 8.00016 7.47883 7.92196 7.25956 7.77546C7.0403 7.62895 6.8694 7.42071 6.76849 7.17707C6.66757 6.93344 6.64116 6.66535 6.69261 6.40671C6.74406 6.14807 6.87105 5.91049 7.05752 5.72402C7.24399 5.53755 7.48156 5.41056 7.7402 5.35912C7.99885 5.30767 8.26693 5.33407 8.51057 5.43499C8.7542 5.53591 8.96244 5.7068 9.10895 5.92607C9.25546 6.14533 9.33366 6.40312 9.33366 6.66683C9.33366 7.02045 9.19318 7.35959 8.94313 7.60964C8.69309 7.85969 8.35395 8.00016 8.00033 8.00016Z" fill="#262626"/>
</svg>
