<svg width="16" height="16" viewBox="0 0 16 16" fill="none" xmlns="http://www.w3.org/2000/svg">
<path fill-rule="evenodd" clip-rule="evenodd" d="M3.33301 2.66675H12.6663C13.1968 2.66675 13.7055 2.87746 14.0806 3.25253C14.3077 3.4797 14.4746 3.75588 14.5709 4.05621L7.99967 7.92008L1.42847 4.05621C1.52476 3.75588 1.69163 3.4797 1.91879 3.25253C2.29387 2.87746 2.80257 2.66675 3.33301 2.66675ZM1.33301 5.52008V11.3334C1.33301 11.8638 1.54372 12.3726 1.91879 12.7476C2.29387 13.1227 2.80257 13.3334 3.33301 13.3334H12.6663C13.1968 13.3334 13.7055 13.1227 14.0806 12.7476C14.4556 12.3726 14.6663 11.8638 14.6663 11.3334V5.52008L8.31967 9.23341C8.21833 9.29193 8.10337 9.32273 7.98634 9.32273C7.86932 9.32273 7.75435 9.29193 7.65301 9.23341L1.33301 5.52008Z" fill="#39765A"/>
</svg>
