<svg width="24" height="24" viewBox="0 0 24 24" fill="none" xmlns="http://www.w3.org/2000/svg">
<path fill-rule="evenodd" clip-rule="evenodd" d="M5 4H19C19.7956 4 20.5587 4.31607 21.1213 4.87868C21.4621 5.21942 21.7124 5.63369 21.8568 6.0842L12 11.88L2.1432 6.0842C2.28763 5.63369 2.53794 5.21942 2.87868 4.87868C3.44129 4.31607 4.20435 4 5 4ZM2 8.28V17C2 17.7956 2.31607 18.5587 2.87868 19.1213C3.44129 19.6839 4.20435 20 5 20H19C19.7956 20 20.5587 19.6839 21.1213 19.1213C21.6839 18.5587 22 17.7956 22 17V8.28L12.48 13.85C12.328 13.9378 12.1555 13.984 11.98 13.984C11.8045 13.984 11.632 13.9378 11.48 13.85L2 8.28Z" fill="black"/>
</svg>
