<svg width="130" height="130" viewBox="0 0 130 130" fill="none" xmlns="http://www.w3.org/2000/svg">
<path fill-rule="evenodd" clip-rule="evenodd" d="M78.7888 29.1487C78.1673 29.1487 77.6631 28.6449 77.6631 28.023C77.6631 27.4014 78.1673 26.8972 78.7888 26.8972C79.4104 26.8972 79.9146 27.4014 79.9146 28.023C79.9146 28.6449 79.4104 29.1487 78.7888 29.1487ZM107.771 26.2106C107.06 25.0032 104.108 21.3643 94.2242 21.097C84.3411 20.8298 80.6395 24.684 80.6395 24.684C78.1972 23.8062 74.3813 24.9894 72.1301 28.4617C69.8783 31.9343 69.8783 37.7727 69.8783 37.7727C69.8783 37.7727 65.7572 40.5966 62.3231 43.9545C58.8888 47.3125 56.3701 50.8615 55.9885 52.4642C55.6069 54.0669 56.866 53.9905 56.866 53.9905H79.5673C82.8488 53.9905 85.2589 50.9389 85.8906 48.4449C86.5189 45.9638 85.6384 43.7255 84.1882 40.4437C82.7384 37.1622 82.8326 35.8402 83.3404 34.7169C84.0228 33.2062 85.8979 32.3697 91.2478 30.5988C96.7429 28.7797 105.363 27.7818 107.046 27.6222C108.25 27.5081 108.401 27.2788 107.771 26.2106ZM48.7871 31.8198C48.1652 31.8198 47.6613 31.316 47.6613 30.6941C47.6613 30.0725 48.1652 29.5684 48.7871 29.5684C49.4086 29.5684 49.9128 30.0725 49.9128 30.6941C49.9128 31.316 49.4086 31.8198 48.7871 31.8198ZM68.6831 20.8172C68.2623 20.7407 67.7007 20.9391 66.7966 21.2586C65.8972 21.5764 64.6588 22.014 62.8826 22.4199C62.3291 22.5464 61.6907 22.6896 60.9929 22.846L60.9925 22.8461L60.9925 22.8461L60.9924 22.8461C57.2004 23.6964 51.6518 24.9406 48.4076 26.0579C45.163 27.1749 43.933 29.5808 43.3685 30.6847C43.2647 30.8878 43.1834 31.0469 43.1162 31.1457C42.8522 31.5337 42.2568 31.7134 40.8964 32.124C40.0273 32.3863 38.846 32.7429 37.2395 33.3082C33.1182 34.758 30.0403 36.59 29.0225 37.5375C28.005 38.485 28.717 38.7268 29.1243 38.4978C29.5312 38.2688 31.414 37.2767 33.729 36.3099C36.0438 35.3432 39.9616 34.4021 42.0476 34.2239C44.1337 34.0459 46.3723 34.2492 47.2626 37.3021C47.7734 39.0528 47.6565 40.8286 47.5263 42.807V42.807C47.4294 44.2784 47.3252 45.8619 47.4663 47.6306C47.7971 51.7773 48.8259 53.9899 50.9667 53.9906C52.7875 53.9911 53.7814 52.4139 55.0084 50.4668C55.2243 50.1243 55.4473 49.7703 55.6833 49.4115C57.3198 46.9229 59.2843 44.8745 60.0542 44.0716C60.1639 43.9573 60.2493 43.8682 60.3061 43.8067C60.7776 43.2964 60.7109 42.6189 60.3438 42.2129C60.3057 42.1707 60.2616 42.1235 60.2114 42.0697C59.8876 41.7229 59.3046 41.0985 58.3797 39.7443C57.1023 37.8735 57.1842 35.8519 57.6165 33.6133C57.9316 31.9831 57.4279 31.0746 57.1473 30.5685C57.0426 30.3797 56.969 30.2469 56.9806 30.1536C57.0253 29.7975 57.4398 29.6362 59.2808 28.9197C59.5439 28.8173 59.8362 28.7035 60.1606 28.5762C62.7557 27.5587 62.6093 26.363 62.6093 26.363C62.6093 26.363 65.6591 24.9603 67.1502 23.94C69.0091 22.6678 69.5224 20.97 68.6831 20.8172ZM84.4195 93.3254L76.5739 84.8127L76.1703 84.374V93.1148H74.4851V80.267H74.5025L82.3484 88.7794L82.752 89.2181V80.4776H84.4372V93.3254H84.4195ZM29.717 93.1147V84.9818H34.6195V85.7049H30.5755V88.6305H33.9983V89.3645H30.5755V92.392H34.7889V93.1147H29.717ZM21.9347 92.3917V85.7045H23.313C25.267 85.7045 26.7355 87.0033 26.7355 89.0484C26.7355 91.0929 25.2786 92.3917 23.3693 92.3917H21.9347ZM21.0762 84.9818V93.1144H23.3693C25.7755 93.1144 27.6166 91.5558 27.6166 89.0484C27.6166 86.5404 25.7528 84.9818 23.324 84.9818H21.0762ZM46.3532 68.7347C43.6761 67.8732 41.645 66.6419 41.645 64.0263C41.645 61.4725 43.9222 59.7799 47.061 59.7799C48.6303 59.7799 50.2612 60.1801 51.3383 60.7029V62.8263C50.1997 62.2111 48.6303 61.7492 47.2762 61.7492C45.2452 61.7492 43.8299 62.5493 43.8299 64.0572C43.8299 65.4728 44.999 66.1497 47.3071 66.8881C50.5996 67.9649 52.2304 69.1652 52.2304 71.6885C52.2304 74.4579 49.9224 75.9044 46.7531 75.9044C44.8452 75.9044 43.0297 75.5044 41.7374 74.8887V72.7656C43.3067 73.4731 45.2143 73.9656 46.6607 73.9656C48.4762 73.9656 50.0765 73.2887 50.0765 71.6885C50.0765 70.15 48.8764 69.5342 46.3532 68.7347ZM27.9214 64.4574C27.9214 69.7195 24.2289 73.7195 19.0592 73.7195C13.9203 73.7195 10.1664 69.7195 10.1664 64.4574C10.1664 59.1953 13.9203 55.195 19.0592 55.195C24.2289 55.195 27.9214 59.1953 27.9214 64.4574ZM30.3214 64.4574C30.3214 58.0567 25.429 53.0101 19.0592 53.0101C12.6585 53.0101 7.79692 58.1182 7.79692 64.4574C7.79692 70.8886 12.6585 75.9043 19.0592 75.9043C25.4904 75.9043 30.3214 70.8886 30.3214 64.4574ZM34.7526 60.1496V75.5353H37.0298V60.1496H34.7526ZM37.3991 55.6567C37.3991 54.7951 36.7527 54.1797 35.8912 54.1797C34.9681 54.1797 34.3832 54.7951 34.3832 55.6567C34.3832 56.5186 34.9681 57.1337 35.8912 57.1337C36.7527 57.1337 37.3991 56.5186 37.3991 55.6567ZM57.7691 66.519C58.0461 64.0572 59.8307 61.7492 62.7542 61.7492C65.8006 61.7492 67.4005 64.0572 67.37 66.519H57.7691ZM69.6284 67.7349C69.637 67.5023 69.6471 67.2308 69.6471 66.9495C69.6471 63.1648 67.2162 59.7799 62.7848 59.7799C58.5998 59.7799 55.3381 63.1956 55.3381 67.842C55.3381 72.6115 58.6307 75.9044 63.3388 75.9044C65.7391 75.9044 67.8007 75.258 69.0928 74.4888V72.3345C67.647 73.2884 65.4927 73.873 63.4311 73.873C60.0154 73.873 57.7691 71.6576 57.7076 68.3036V68.1804H69.6162C69.6162 68.0619 69.6219 67.9093 69.6284 67.7349ZM83.5858 68.4265C78.3236 67.5961 75.6159 69.0114 75.6159 71.4424C75.6159 72.9503 76.724 73.9965 78.4777 73.9965C81.4009 73.9965 83.5858 71.1036 83.5858 68.4265ZM74.2924 60.949C75.1543 60.4568 77.185 59.7799 79.6163 59.7799C83.8319 59.7799 85.863 61.8109 85.863 65.6571V75.535H83.7396V73.5657C83.7087 72.7965 83.8319 72.2734 83.8319 72.2734H83.7705C83.6781 72.5501 81.8623 75.9044 78.1393 75.9044C75.308 75.9044 73.3384 74.1809 73.3384 71.5347C73.3384 67.7191 77.2468 65.8418 83.6473 66.7343V65.7804C83.6473 62.8263 81.9241 61.8109 79.3699 61.8109C77.1544 61.8109 75.1848 62.5493 74.2924 63.1033V60.949ZM93.1248 60.1493H90.8783V69.8425C90.8783 73.7195 92.2938 75.9044 96.0789 75.9044C99.4638 75.9044 101.464 73.3811 102.049 71.9655H102.11C102.11 71.9709 102.106 71.9906 102.1 72.023L102.1 72.0231C102.071 72.1753 101.987 72.6075 101.987 73.1655L102.018 75.535H104.172V60.1493H101.894V67.6882C101.894 71.0116 99.6793 73.7813 96.3865 73.7813C93.4942 73.7813 93.1248 71.6579 93.1248 69.3193V60.1493ZM116.449 67.5961L122.204 75.5349H119.588L115.126 69.2886L110.695 75.5349H108.111L113.772 67.719L108.356 60.1491H110.972L115.095 66.1187L119.249 60.1491H121.896L116.449 67.5961ZM41.5387 86.094V81.8989H47.2255V80.4775H39.8537V93.1147H41.5387V87.5157H46.3303V86.094H41.5387ZM51.8949 81.8989V86.7785H54.3873C56.0548 86.7785 57.0552 85.8659 57.0552 84.3387C57.0552 82.8118 56.0022 81.8989 54.2469 81.8989H51.8949ZM54.2995 80.4775C57.0729 80.4775 58.7401 81.9166 58.7401 84.3387C58.7401 86.2343 57.5117 87.4628 56.16 87.8841L59.0211 93.1147H57.1429L54.5276 88.1651H51.8949V93.1147H50.2099V80.4775H54.2995ZM66.2705 83.6893C66.9551 85.4797 67.6045 86.9895 68.4645 88.9199H64.0588C64.9188 86.9895 65.5682 85.4797 66.2705 83.6893ZM66.288 80.2669H66.2528L60.4257 93.1147H62.2161L63.4449 90.3065H69.0791L70.3253 93.1147H72.1154L66.288 80.2669ZM94.1618 81.829C95.7764 81.829 97.0929 82.3555 97.9177 82.7768V81.1793C97.4964 80.9338 96.0748 80.267 94.1618 80.267C90.3356 80.267 87.5097 83.04 87.5097 86.7961C87.5097 90.5521 90.3356 93.3254 94.1618 93.3254C96.1625 93.3254 97.5842 92.6761 98.0055 92.4302V90.8331C97.1806 91.2544 95.8644 91.7634 94.1618 91.7634C91.2833 91.7634 89.212 89.6572 89.212 86.7961C89.212 83.9352 91.2833 81.829 94.1618 81.829ZM100.903 93.1147V80.4776H108.661V81.899H102.588V86.0066H107.713V87.428H102.588V91.6933H108.924V93.1147H100.903ZM7.79688 97.6848H122.204V98.1411H7.79688V97.6848ZM19.4362 106.043C19.4362 105.345 19.0198 104.828 18.3952 104.828C17.8913 104.828 17.3407 105.204 17.3407 106.043C17.3407 106.883 17.8913 107.259 18.3952 107.259C19.0198 107.259 19.4362 106.756 19.4362 106.043ZM16.7093 104.364H17.2869L17.3003 104.714C17.3003 104.862 17.2802 104.962 17.2802 104.962H17.2936C17.4682 104.613 17.9384 104.284 18.4823 104.284C19.369 104.284 20.041 105.003 20.041 106.043C20.041 107.098 19.369 107.803 18.4958 107.803C17.9519 107.803 17.5085 107.488 17.3272 107.145H17.3138C17.3138 107.145 17.334 107.246 17.334 107.421V109.2H16.7093V104.364ZM15.2319 102.806H14.4193L13.7879 103.941H14.3587L15.2319 102.806ZM13.1364 105.735C13.1899 105.251 13.5394 104.808 14.1169 104.808C14.7149 104.808 15.0304 105.251 15.0237 105.735H13.1364ZM15.6333 106.067C15.6372 106.004 15.6419 105.928 15.6419 105.849C15.6419 105.023 15.1112 104.284 14.1236 104.284C13.1966 104.284 12.4778 105.029 12.4778 106.044C12.4778 107.085 13.1966 107.804 14.2582 107.804C14.8021 107.804 15.2521 107.663 15.5141 107.515V106.944C15.2319 107.125 14.755 107.259 14.2982 107.259C13.5929 107.259 13.1498 106.843 13.1297 106.185V106.178H15.6282C15.6282 106.15 15.6305 106.112 15.6333 106.067ZM9.07995 105.298V103.431H9.98005C10.6518 103.431 11.0547 103.78 11.0547 104.365C11.0547 104.949 10.6719 105.298 10.0339 105.298H9.07995ZM11.6995 104.365C11.6995 103.438 11.0614 102.887 10.0002 102.887H8.43515V107.723H9.07995V105.829H10.0874L11.0884 107.723H11.8068L10.712 105.721C11.2293 105.56 11.6995 105.09 11.6995 104.365ZM21.4238 106.796C21.4238 106.339 21.8873 106.044 22.9822 106.218C22.9822 106.742 22.5456 107.3 21.9748 107.3C21.6387 107.3 21.4238 107.091 21.4238 106.796ZM22.2031 104.284C21.6522 104.284 21.2089 104.432 21.0208 104.532V105.11C21.2223 104.989 21.6522 104.828 22.1157 104.828C22.6465 104.828 22.9956 105.029 22.9956 105.614V105.782C21.592 105.587 20.8059 105.997 20.8059 106.816C20.8059 107.434 21.2492 107.804 21.8674 107.804C22.6263 107.804 22.9956 107.152 23.036 107.058H23.0494C23.0494 107.058 23.0225 107.166 23.0293 107.327L23.036 107.723H23.6135V105.58C23.6135 104.741 23.1503 104.284 22.2031 104.284ZM24.8086 104.364H25.3932L25.3999 104.835C25.4038 104.91 25.3985 104.976 25.3948 105.021C25.3922 105.053 25.3904 105.075 25.3932 105.083H25.3999C25.5946 104.607 25.9505 104.284 26.4339 104.284C26.528 104.284 26.6087 104.297 26.6356 104.304V104.908C26.6087 104.902 26.5482 104.889 26.4611 104.889C25.8096 104.889 25.4332 105.607 25.4332 106.259V107.723H24.8086V104.364ZM27.7836 103.357V104.364H27.2262V104.875H27.7769V106.803C27.7769 107.555 28.2874 107.803 28.7711 107.803C29.1004 107.803 29.3756 107.73 29.5232 107.649V107.105C29.3355 107.192 29.1004 107.253 28.8919 107.253C28.61 107.253 28.3951 107.091 28.3951 106.614V104.875H29.4092V104.364H28.3951V103.357H27.7836ZM30.9805 107.723H30.3558V104.365H30.9805V107.723ZM30.6649 103.008C30.8933 103.008 31.0545 103.162 31.0545 103.391C31.0545 103.612 30.8933 103.767 30.6649 103.767C30.4295 103.767 30.2751 103.612 30.2751 103.391C30.2751 103.162 30.4295 103.008 30.6649 103.008ZM32.4109 103.357V104.364H31.8536V104.875H32.4042V106.803C32.4042 107.555 32.9148 107.803 33.3982 107.803C33.7277 107.803 34.0029 107.73 34.1506 107.649V107.105C33.9626 107.192 33.7277 107.253 33.5192 107.253C33.2373 107.253 33.0224 107.091 33.0224 106.614V104.875H34.0365V104.364H33.0224V103.357H32.4109ZM35.6082 107.723H34.9835V104.365H35.6082V107.723ZM35.2926 103.008C35.521 103.008 35.6822 103.162 35.6822 103.391C35.6822 103.612 35.521 103.767 35.2926 103.767C35.0572 103.767 34.9028 103.612 34.9028 103.391C34.9028 103.162 35.0572 103.008 35.2926 103.008ZM38.4152 104.828C39.0668 104.828 39.5437 105.332 39.5437 106.044C39.5437 106.756 39.0668 107.26 38.4152 107.26C37.7704 107.26 37.2935 106.756 37.2935 106.044C37.2935 105.332 37.7704 104.828 38.4152 104.828ZM38.4152 107.804C39.4162 107.804 40.1482 107.058 40.1482 106.044C40.1482 105.03 39.4162 104.284 38.4152 104.284C37.4213 104.284 36.689 105.03 36.689 106.044C36.689 107.058 37.4213 107.804 38.4152 107.804ZM41.8135 104.364L41.8269 104.835C41.8269 104.976 41.8067 105.077 41.8003 105.09H41.8135C41.9409 104.788 42.3846 104.284 43.0963 104.284C43.9227 104.284 44.2453 104.774 44.2453 105.614V107.723H43.6204V105.742C43.6204 105.278 43.5397 104.862 42.9823 104.862C42.324 104.862 41.8538 105.386 41.8538 106.071V107.723H41.2292V104.364H41.8135ZM45.225 105.231C45.225 105.835 45.6414 106.091 46.2392 106.286C46.7363 106.447 46.9849 106.561 46.9849 106.85C46.9849 107.166 46.669 107.286 46.3199 107.286C46.0041 107.286 45.5742 107.172 45.2452 107.011V107.582C45.514 107.71 45.9035 107.804 46.3401 107.804C47.0656 107.804 47.5627 107.468 47.5627 106.856C47.5627 106.292 47.2132 106.03 46.5012 105.795C46.0444 105.647 45.8093 105.52 45.8093 105.251C45.8093 104.949 46.1117 104.815 46.4944 104.815C46.7968 104.815 47.1325 104.922 47.3744 105.05V104.485C47.146 104.378 46.7901 104.284 46.4272 104.284C45.7289 104.284 45.225 104.674 45.225 105.231ZM48.5091 108.731H48.0255L48.4352 107.333H49.0534L48.5091 108.731ZM53.2844 107.723V103.431H54.7621V102.887H51.1687V103.431H52.6396V107.723H53.2844ZM56.4009 104.808C55.8234 104.808 55.4739 105.251 55.4201 105.735H57.3078C57.3145 105.251 56.999 104.808 56.4009 104.808ZM57.9172 106.067V106.067C57.9145 106.112 57.9122 106.15 57.9122 106.178H55.4137V106.185C55.4336 106.843 55.8769 107.26 56.5823 107.26C57.039 107.26 57.516 107.125 57.7979 106.944V107.515C57.5362 107.663 57.0861 107.804 56.5419 107.804C55.4807 107.804 54.7619 107.085 54.7619 106.044C54.7619 105.03 55.4807 104.284 56.4077 104.284C57.3952 104.284 57.9257 105.023 57.9257 105.849C57.9257 105.928 57.9211 106.004 57.9172 106.067L57.9172 106.067ZM59.584 104.835L59.5706 104.364H58.9863V107.723H59.6109V106.071C59.6109 105.386 60.0811 104.862 60.7394 104.862C61.2967 104.862 61.3775 105.278 61.3775 105.742V107.723H62.0021V105.614C62.0021 104.774 61.6798 104.284 60.8534 104.284C60.1417 104.284 59.6981 104.788 59.5706 105.09H59.5571C59.5638 105.077 59.584 104.976 59.584 104.835ZM63.5866 106.044C63.5866 106.742 64.003 107.26 64.6276 107.26C65.1315 107.26 65.6821 106.884 65.6821 106.044C65.6821 105.204 65.1315 104.828 64.6276 104.828C64.003 104.828 63.5866 105.332 63.5866 106.044ZM66.3138 107.723H65.736L65.7225 107.327C65.7225 107.179 65.7427 107.078 65.7427 107.078H65.7292C65.5546 107.454 65.0844 107.804 64.5405 107.804C63.6538 107.804 62.9821 107.085 62.9821 106.044C62.9821 104.989 63.6538 104.284 64.527 104.284C65.071 104.284 65.5143 104.579 65.6956 104.895H65.709C65.709 104.895 65.6889 104.794 65.6889 104.62V102.887H66.3138V107.723ZM67.9851 106.796C67.9851 106.339 68.4489 106.044 69.5434 106.218C69.5434 106.742 69.1071 107.3 68.536 107.3C68.2 107.3 67.9851 107.091 67.9851 106.796ZM68.7644 104.284C68.2135 104.284 67.7702 104.432 67.5821 104.532V105.11C67.7836 104.989 68.2135 104.828 68.6773 104.828C69.2077 104.828 69.5572 105.029 69.5572 105.614V105.782C68.1532 105.587 67.3672 105.997 67.3672 106.816C67.3672 107.434 67.8105 107.804 68.4287 107.804C69.1875 107.804 69.5572 107.152 69.5975 107.058H69.611C69.611 107.058 69.5841 107.166 69.5905 107.327L69.5975 107.723H70.1747V105.58C70.1747 104.741 69.7116 104.284 68.7644 104.284ZM72.0019 104.364L72.0154 104.835C72.0154 104.976 71.9952 105.077 71.9882 105.09H72.0019C72.1294 104.788 72.5727 104.284 73.2845 104.284C74.1106 104.284 74.4331 104.774 74.4331 105.614V107.723H73.8085V105.742C73.8085 105.278 73.7281 104.862 73.1704 104.862C72.5122 104.862 72.0423 105.386 72.0423 106.071V107.723H71.4174V104.364H72.0019ZM78.2208 106.951C78.0126 107.078 77.6635 107.246 77.1997 107.246C76.5215 107.246 76.0513 106.749 76.0513 106.043C76.0513 105.338 76.5282 104.841 77.1997 104.841C77.6366 104.841 77.9655 104.989 78.2007 105.137V104.546C77.9992 104.438 77.6836 104.284 77.1663 104.284C76.132 104.284 75.4129 105.029 75.4129 106.043C75.4129 107.058 76.132 107.803 77.1663 107.803C77.6901 107.803 78.0193 107.642 78.2208 107.535V106.951ZM80.6115 104.808C80.0336 104.808 79.6844 105.251 79.6306 105.735H81.5181C81.5248 105.251 81.2093 104.808 80.6115 104.808ZM82.1276 106.067V106.067C82.1249 106.112 82.1226 106.15 82.1226 106.178H79.6242V106.185C79.6441 106.843 80.0874 107.26 80.7928 107.26C81.2496 107.26 81.7263 107.125 82.0085 106.944V107.515C81.7465 107.663 81.2964 107.804 80.7524 107.804C79.6912 107.804 78.9723 107.085 78.9723 106.044C78.9723 105.03 79.6912 104.284 80.6179 104.284C81.6055 104.284 82.136 105.023 82.136 105.849C82.136 105.928 82.1314 106.004 82.1276 106.067L82.1276 106.067V106.067V106.067ZM82.9149 105.231C82.9149 105.835 83.3314 106.091 83.9291 106.286C84.4262 106.447 84.6745 106.561 84.6745 106.85C84.6745 107.166 84.359 107.286 84.0101 107.286C83.694 107.286 83.2641 107.172 82.9351 107.011V107.582C83.2039 107.71 83.5934 107.804 84.03 107.804C84.7555 107.804 85.2524 107.468 85.2524 106.856C85.2524 106.292 84.9032 106.03 84.1911 105.795C83.7343 105.647 83.4992 105.52 83.4992 105.251C83.4992 104.949 83.8016 104.815 84.1844 104.815C84.4865 104.815 84.8225 104.922 85.0643 105.05V104.485C84.8359 104.378 84.4801 104.284 84.1171 104.284C83.4188 104.284 82.9149 104.674 82.9149 105.231ZM89.2486 104.808C88.6707 104.808 88.3216 105.251 88.2677 105.735H90.1551C90.1618 105.251 89.8463 104.808 89.2486 104.808ZM90.7646 106.067V106.067V106.067C90.7619 106.112 90.7596 106.15 90.7596 106.178H88.2613V106.185C88.2812 106.843 88.7245 107.26 89.4299 107.26C89.8867 107.26 90.3633 107.125 90.6455 106.944V107.515C90.3835 107.663 89.9334 107.804 89.3895 107.804C88.3283 107.804 87.6095 107.085 87.6095 106.044C87.6095 105.03 88.3283 104.284 89.255 104.284C90.2426 104.284 90.773 105.023 90.773 105.849C90.773 105.928 90.7684 106.004 90.7646 106.067ZM92.0691 103.357V104.364H91.5114V104.875H92.0623V106.803C92.0623 107.555 92.5726 107.803 93.0564 107.803C93.3857 107.803 93.6609 107.73 93.8085 107.649V107.105C93.6205 107.192 93.3857 107.253 93.1771 107.253C92.8949 107.253 92.68 107.091 92.68 106.614V104.875H93.6942V104.364H92.68V103.357H92.0691ZM96.2661 107.723V102.887H99.235V103.431H96.9109V105.003H98.8724V105.547H96.9109V107.179H99.3356V107.723H96.2661ZM100.471 103.989V104.364H99.9532V104.875H100.451V107.723H101.075V104.875H101.948V104.364H101.055V104.042C101.055 103.592 101.317 103.35 101.747 103.35C101.908 103.35 102.043 103.377 102.096 103.39V102.846C102.043 102.833 101.881 102.806 101.687 102.806C100.927 102.806 100.471 103.276 100.471 103.989ZM102.895 104.364V103.989C102.895 103.276 103.352 102.806 104.111 102.806C104.305 102.806 104.467 102.833 104.52 102.846V103.39C104.467 103.377 104.332 103.35 104.171 103.35C103.741 103.35 103.479 103.592 103.479 104.042V104.364H104.373V104.875H103.499V107.723H102.875V104.875H102.378V104.364H102.895ZM105.581 105.735C105.635 105.251 105.984 104.808 106.562 104.808C107.16 104.808 107.475 105.251 107.468 105.735H105.581ZM108.078 106.067V106.067V106.067V106.067V106.067C108.082 106.004 108.086 105.928 108.086 105.849C108.086 105.023 107.556 104.284 106.568 104.284C105.641 104.284 104.923 105.03 104.923 106.044C104.923 107.085 105.641 107.804 106.703 107.804C107.247 107.804 107.697 107.663 107.959 107.515V106.944C107.677 107.125 107.2 107.26 106.743 107.26C106.037 107.26 105.594 106.843 105.575 106.185V106.178H108.073C108.073 106.15 108.075 106.112 108.078 106.067ZM110.685 107.246C111.149 107.246 111.498 107.078 111.706 106.951V107.535C111.505 107.642 111.176 107.803 110.652 107.803C109.617 107.803 108.899 107.058 108.899 106.043C108.899 105.029 109.617 104.284 110.652 104.284C111.169 104.284 111.485 104.438 111.686 104.546V105.137C111.451 104.989 111.122 104.841 110.685 104.841C110.014 104.841 109.537 105.338 109.537 106.043C109.537 106.749 110.007 107.246 110.685 107.246ZM112.875 103.357V104.364H112.317V104.875H112.868V106.803C112.868 107.555 113.379 107.803 113.862 107.803C114.191 107.803 114.467 107.73 114.614 107.649V107.105C114.426 107.192 114.191 107.253 113.983 107.253C113.701 107.253 113.486 107.091 113.486 106.614V104.875H114.5V104.364H113.486V103.357H112.875ZM116.072 107.723H115.447V104.365H116.072V107.723ZM115.756 103.008C115.984 103.008 116.146 103.162 116.146 103.391C116.146 103.612 115.984 103.767 115.756 103.767C115.521 103.767 115.366 103.612 115.366 103.391C115.366 103.162 115.521 103.008 115.756 103.008ZM117.549 103.989V104.364H117.032V104.875H117.529V107.723H118.154V104.875H119.027V104.364H118.134V104.042C118.134 103.592 118.395 103.35 118.825 103.35C118.986 103.35 119.121 103.377 119.174 103.39V102.846C119.121 102.833 118.959 102.806 118.765 102.806C118.005 102.806 117.549 103.276 117.549 103.989ZM120.591 106.286C119.993 106.091 119.577 105.835 119.577 105.231C119.577 104.674 120.081 104.284 120.779 104.284C121.142 104.284 121.498 104.378 121.726 104.485V105.05C121.484 104.922 121.148 104.815 120.846 104.815C120.463 104.815 120.161 104.949 120.161 105.251C120.161 105.52 120.396 105.647 120.853 105.795C121.565 106.03 121.914 106.292 121.914 106.856C121.914 107.468 121.417 107.804 120.692 107.804C120.255 107.804 119.866 107.71 119.597 107.582V107.011C119.926 107.172 120.356 107.286 120.672 107.286C121.021 107.286 121.336 107.166 121.336 106.85C121.336 106.561 121.088 106.447 120.591 106.286Z" fill="#EB6A0A"/>
</svg>
