<svg width="147" height="40" viewBox="0 0 147 40" fill="none" xmlns="http://www.w3.org/2000/svg">
<path d="M58.304 17.112C57.248 17.112 56.2773 16.8667 55.392 16.376C54.5173 15.8853 53.8187 15.2027 53.296 14.328C52.784 13.4427 52.528 12.4507 52.528 11.352C52.528 10.2533 52.784 9.26667 53.296 8.392C53.8187 7.51733 54.5173 6.83467 55.392 6.344C56.2773 5.85333 57.248 5.608 58.304 5.608C59.36 5.608 60.3253 5.85333 61.2 6.344C62.0853 6.83467 62.7787 7.51733 63.28 8.392C63.792 9.26667 64.048 10.2533 64.048 11.352C64.048 12.4507 63.792 13.4427 63.28 14.328C62.768 15.2027 62.0747 15.8853 61.2 16.376C60.3253 16.8667 59.36 17.112 58.304 17.112ZM58.304 14.616C59.2 14.616 59.9147 14.3173 60.448 13.72C60.992 13.1227 61.264 12.3333 61.264 11.352C61.264 10.36 60.992 9.57067 60.448 8.984C59.9147 8.38667 59.2 8.088 58.304 8.088C57.3973 8.088 56.672 8.38133 56.128 8.968C55.5947 9.55467 55.328 10.3493 55.328 11.352C55.328 12.344 55.5947 13.1387 56.128 13.736C56.672 14.3227 57.3973 14.616 58.304 14.616ZM66.9461 7.144C66.4661 7.144 66.0715 7.00533 65.7621 6.728C65.4635 6.44 65.3141 6.088 65.3141 5.672C65.3141 5.24533 65.4635 4.89333 65.7621 4.616C66.0715 4.328 66.4661 4.184 66.9461 4.184C67.4155 4.184 67.7995 4.328 68.0981 4.616C68.4075 4.89333 68.5621 5.24533 68.5621 5.672C68.5621 6.088 68.4075 6.44 68.0981 6.728C67.7995 7.00533 67.4155 7.144 66.9461 7.144ZM68.3061 8.072V17H65.5701V8.072H68.3061ZM73.9209 17.128C73.1422 17.128 72.4489 16.9947 71.8409 16.728C71.2329 16.4613 70.7529 16.0987 70.4009 15.64C70.0489 15.1707 69.8515 14.648 69.8089 14.072H72.5129C72.5449 14.3813 72.6889 14.632 72.9449 14.824C73.2009 15.016 73.5155 15.112 73.8889 15.112C74.2302 15.112 74.4915 15.048 74.6729 14.92C74.8649 14.7813 74.9609 14.6053 74.9609 14.392C74.9609 14.136 74.8275 13.9493 74.5609 13.832C74.2942 13.704 73.8622 13.5653 73.2649 13.416C72.6249 13.2667 72.0915 13.112 71.6649 12.952C71.2382 12.7813 70.8702 12.52 70.5609 12.168C70.2515 11.8053 70.0969 11.32 70.0969 10.712C70.0969 10.2 70.2355 9.736 70.5129 9.32C70.8009 8.89333 71.2169 8.55733 71.7609 8.312C72.3155 8.06667 72.9715 7.944 73.7289 7.944C74.8489 7.944 75.7289 8.22133 76.3689 8.776C77.0195 9.33067 77.3929 10.0667 77.4889 10.984H74.9609C74.9182 10.6747 74.7795 10.4293 74.5449 10.248C74.3209 10.0667 74.0222 9.976 73.6489 9.976C73.3289 9.976 73.0835 10.04 72.9129 10.168C72.7422 10.2853 72.6569 10.4507 72.6569 10.664C72.6569 10.92 72.7902 11.112 73.0569 11.24C73.3342 11.368 73.7609 11.496 74.3369 11.624C74.9982 11.7947 75.5369 11.9653 75.9529 12.136C76.3689 12.296 76.7315 12.5627 77.0409 12.936C77.3609 13.2987 77.5262 13.7893 77.5369 14.408C77.5369 14.9307 77.3875 15.4 77.0889 15.816C76.8009 16.2213 76.3795 16.5413 75.8249 16.776C75.2809 17.0107 74.6462 17.128 73.9209 17.128ZM87.6267 12.392C87.6267 12.648 87.6108 12.9147 87.5788 13.192H81.3868C81.4294 13.7467 81.6054 14.1733 81.9148 14.472C82.2348 14.76 82.6241 14.904 83.0828 14.904C83.7654 14.904 84.2401 14.616 84.5068 14.04H87.4188C87.2694 14.6267 86.9974 15.1547 86.6028 15.624C86.2188 16.0933 85.7334 16.4613 85.1468 16.728C84.5601 16.9947 83.9041 17.128 83.1788 17.128C82.3041 17.128 81.5254 16.9413 80.8428 16.568C80.1601 16.1947 79.6268 15.6613 79.2428 14.968C78.8588 14.2747 78.6668 13.464 78.6668 12.536C78.6668 11.608 78.8534 10.7973 79.2268 10.104C79.6108 9.41067 80.1441 8.87733 80.8268 8.504C81.5094 8.13067 82.2934 7.944 83.1788 7.944C84.0428 7.944 84.8108 8.12533 85.4828 8.488C86.1548 8.85067 86.6774 9.368 87.0508 10.04C87.4348 10.712 87.6267 11.496 87.6267 12.392ZM84.8268 11.672C84.8268 11.2027 84.6668 10.8293 84.3468 10.552C84.0268 10.2747 83.6268 10.136 83.1468 10.136C82.6881 10.136 82.2988 10.2693 81.9788 10.536C81.6694 10.8027 81.4774 11.1813 81.4028 11.672H84.8268ZM88.5261 12.52C88.5261 11.6027 88.6968 10.7973 89.0381 10.104C89.3901 9.41067 89.8648 8.87733 90.4621 8.504C91.0595 8.13067 91.7261 7.944 92.4621 7.944C93.0915 7.944 93.6408 8.072 94.1101 8.328C94.5901 8.584 94.9581 8.92 95.2141 9.336V8.072H97.9501V17H95.2141V15.736C94.9475 16.152 94.5741 16.488 94.0941 16.744C93.6248 17 93.0755 17.128 92.4461 17.128C91.7208 17.128 91.0595 16.9413 90.4621 16.568C89.8648 16.184 89.3901 15.6453 89.0381 14.952C88.6968 14.248 88.5261 13.4373 88.5261 12.52ZM95.2141 12.536C95.2141 11.8533 95.0221 11.3147 94.6381 10.92C94.2648 10.5253 93.8061 10.328 93.2621 10.328C92.7181 10.328 92.2541 10.5253 91.8701 10.92C91.4968 11.304 91.3101 11.8373 91.3101 12.52C91.3101 13.2027 91.4968 13.7467 91.8701 14.152C92.2541 14.5467 92.7181 14.744 93.2621 14.744C93.8061 14.744 94.2648 14.5467 94.6381 14.152C95.0221 13.7573 95.2141 13.2187 95.2141 12.536ZM108.746 8.072V17H106.01V15.784C105.732 16.1787 105.354 16.4987 104.874 16.744C104.404 16.9787 103.882 17.096 103.306 17.096C102.623 17.096 102.02 16.9467 101.498 16.648C100.975 16.3387 100.57 15.896 100.282 15.32C99.9935 14.744 99.8495 14.0667 99.8495 13.288V8.072H102.57V12.92C102.57 13.5173 102.724 13.9813 103.034 14.312C103.343 14.6427 103.759 14.808 104.282 14.808C104.815 14.808 105.236 14.6427 105.546 14.312C105.855 13.9813 106.01 13.5173 106.01 12.92V8.072H108.746ZM115.991 17L114.279 14.52L112.839 17H109.879L112.823 12.44L109.799 8.072H112.871L114.583 10.536L116.023 8.072H118.983L115.991 12.568L119.063 17H115.991ZM122.964 12.52C122.964 11.6027 123.134 10.7973 123.476 10.104C123.828 9.41067 124.302 8.87733 124.9 8.504C125.497 8.13067 126.164 7.944 126.9 7.944C127.486 7.944 128.02 8.06667 128.5 8.312C128.99 8.55733 129.374 8.888 129.652 9.304V5.16H132.388V17H129.652V15.72C129.396 16.1467 129.028 16.488 128.548 16.744C128.078 17 127.529 17.128 126.9 17.128C126.164 17.128 125.497 16.9413 124.9 16.568C124.302 16.184 123.828 15.6453 123.476 14.952C123.134 14.248 122.964 13.4373 122.964 12.52ZM129.652 12.536C129.652 11.8533 129.46 11.3147 129.076 10.92C128.702 10.5253 128.244 10.328 127.7 10.328C127.156 10.328 126.692 10.5253 126.308 10.92C125.934 11.304 125.748 11.8373 125.748 12.52C125.748 13.2027 125.934 13.7467 126.308 14.152C126.692 14.5467 127.156 14.744 127.7 14.744C128.244 14.744 128.702 14.5467 129.076 14.152C129.46 13.7573 129.652 13.2187 129.652 12.536ZM142.783 12.392C142.783 12.648 142.767 12.9147 142.735 13.192H136.543C136.586 13.7467 136.762 14.1733 137.071 14.472C137.391 14.76 137.78 14.904 138.239 14.904C138.922 14.904 139.396 14.616 139.663 14.04H142.575C142.426 14.6267 142.154 15.1547 141.759 15.624C141.375 16.0933 140.89 16.4613 140.303 16.728C139.716 16.9947 139.06 17.128 138.335 17.128C137.46 17.128 136.682 16.9413 135.999 16.568C135.316 16.1947 134.783 15.6613 134.399 14.968C134.015 14.2747 133.823 13.464 133.823 12.536C133.823 11.608 134.01 10.7973 134.383 10.104C134.767 9.41067 135.3 8.87733 135.983 8.504C136.666 8.13067 137.45 7.944 138.335 7.944C139.199 7.944 139.967 8.12533 140.639 8.488C141.311 8.85067 141.834 9.368 142.207 10.04C142.591 10.712 142.783 11.496 142.783 12.392ZM139.983 11.672C139.983 11.2027 139.823 10.8293 139.503 10.552C139.183 10.2747 138.783 10.136 138.303 10.136C137.844 10.136 137.455 10.2693 137.135 10.536C136.826 10.8027 136.634 11.1813 136.559 11.672H139.983ZM60.304 23.768V25.96H55.728V28.328H59.152V30.456H55.728V35H52.992V23.768H60.304ZM64.478 27.56C64.798 27.0693 65.198 26.6853 65.678 26.408C66.158 26.12 66.6913 25.976 67.278 25.976V28.872H66.526C65.8433 28.872 65.3313 29.0213 64.99 29.32C64.6487 29.608 64.478 30.12 64.478 30.856V35H61.742V26.072H64.478V27.56ZM68.0418 30.52C68.0418 29.6027 68.2124 28.7973 68.5538 28.104C68.9058 27.4107 69.3804 26.8773 69.9778 26.504C70.5751 26.1307 71.2418 25.944 71.9778 25.944C72.6071 25.944 73.1564 26.072 73.6258 26.328C74.1058 26.584 74.4738 26.92 74.7298 27.336V26.072H77.4658V35H74.7298V33.736C74.4631 34.152 74.0898 34.488 73.6098 34.744C73.1404 35 72.5911 35.128 71.9618 35.128C71.2364 35.128 70.5751 34.9413 69.9778 34.568C69.3804 34.184 68.9058 33.6453 68.5538 32.952C68.2124 32.248 68.0418 31.4373 68.0418 30.52ZM74.7298 30.536C74.7298 29.8533 74.5378 29.3147 74.1538 28.92C73.7804 28.5253 73.3218 28.328 72.7778 28.328C72.2338 28.328 71.7698 28.5253 71.3858 28.92C71.0124 29.304 70.8258 29.8373 70.8258 30.52C70.8258 31.2027 71.0124 31.7467 71.3858 32.152C71.7698 32.5467 72.2338 32.744 72.7778 32.744C73.3218 32.744 73.7804 32.5467 74.1538 32.152C74.5378 31.7573 74.7298 31.2187 74.7298 30.536ZM84.8851 25.976C85.9305 25.976 86.7625 26.3173 87.3811 27C88.0105 27.672 88.3251 28.6 88.3251 29.784V35H85.6051V30.152C85.6051 29.5547 85.4505 29.0907 85.1411 28.76C84.8318 28.4293 84.4158 28.264 83.8931 28.264C83.3705 28.264 82.9545 28.4293 82.6451 28.76C82.3358 29.0907 82.1811 29.5547 82.1811 30.152V35H79.4451V26.072H82.1811V27.256C82.4585 26.8613 82.8318 26.552 83.3011 26.328C83.7705 26.0933 84.2985 25.976 84.8851 25.976ZM89.6824 30.536C89.6824 29.608 89.869 28.7973 90.2424 28.104C90.6264 27.4107 91.1544 26.8773 91.8264 26.504C92.509 26.1307 93.2877 25.944 94.1624 25.944C95.2824 25.944 96.2157 26.2373 96.9624 26.824C97.7197 27.4107 98.2157 28.2373 98.4504 29.304H95.5384C95.293 28.6213 94.8184 28.28 94.1144 28.28C93.613 28.28 93.213 28.4773 92.9144 28.872C92.6157 29.256 92.4664 29.8107 92.4664 30.536C92.4664 31.2613 92.6157 31.8213 92.9144 32.216C93.213 32.6 93.613 32.792 94.1144 32.792C94.8184 32.792 95.293 32.4507 95.5384 31.768H98.4504C98.2157 32.8133 97.7197 33.6347 96.9624 34.232C96.205 34.8293 95.2717 35.128 94.1624 35.128C93.2877 35.128 92.509 34.9413 91.8264 34.568C91.1544 34.1947 90.6264 33.6613 90.2424 32.968C89.869 32.2747 89.6824 31.464 89.6824 30.536ZM108.33 30.392C108.33 30.648 108.314 30.9147 108.282 31.192H102.09C102.133 31.7467 102.309 32.1733 102.618 32.472C102.938 32.76 103.327 32.904 103.786 32.904C104.469 32.904 104.943 32.616 105.21 32.04H108.122C107.973 32.6267 107.701 33.1547 107.306 33.624C106.922 34.0933 106.437 34.4613 105.85 34.728C105.263 34.9947 104.607 35.128 103.882 35.128C103.007 35.128 102.229 34.9413 101.546 34.568C100.863 34.1947 100.33 33.6613 99.9459 32.968C99.5619 32.2747 99.3699 31.464 99.3699 30.536C99.3699 29.608 99.5565 28.7973 99.9299 28.104C100.314 27.4107 100.847 26.8773 101.53 26.504C102.213 26.1307 102.997 25.944 103.882 25.944C104.746 25.944 105.514 26.1253 106.186 26.488C106.858 26.8507 107.381 27.368 107.754 28.04C108.138 28.712 108.33 29.496 108.33 30.392ZM105.53 29.672C105.53 29.2027 105.37 28.8293 105.05 28.552C104.73 28.2747 104.33 28.136 103.85 28.136C103.391 28.136 103.002 28.2693 102.682 28.536C102.373 28.8027 102.181 29.1813 102.106 29.672H105.53Z" fill="white"/>
<mask id="mask0" mask-type="alpha" maskUnits="userSpaceOnUse" x="0" y="0" width="40" height="40">
<circle cx="20" cy="20" r="20" fill="#C4C4C4"/>
</mask>
<g mask="url(#mask0)">
<rect width="40" height="40" fill="#EB6A0A"/>
<path fill-rule="evenodd" clip-rule="evenodd" d="M10.3814 16.9055C10.3814 17.1926 10.6153 17.4253 10.9038 17.4253C11.1923 17.4253 11.4263 17.1926 11.4263 16.9055C11.4263 16.6185 11.1923 16.3857 10.9038 16.3857C10.6153 16.3857 10.3814 16.6185 10.3814 16.9055ZM19.2615 12.5485C19.681 12.401 19.9416 12.3094 20.1369 12.3447C20.5264 12.4153 20.2882 13.1992 19.4255 13.7867C18.7335 14.2578 17.3183 14.9055 17.3183 14.9055C17.3183 14.9055 17.3862 15.4577 16.1819 15.9275C16.0313 15.9863 15.8957 16.0388 15.7736 16.0861C14.9193 16.417 14.7269 16.4915 14.7062 16.6559C14.7008 16.699 14.735 16.7603 14.7835 16.8475C14.9137 17.0812 15.1475 17.5007 15.0013 18.2535C14.8007 19.2872 14.7627 20.2207 15.3554 21.0845C15.7847 21.7098 16.0552 21.9982 16.2055 22.1583C16.2288 22.1832 16.2492 22.2049 16.2669 22.2244C16.4373 22.4119 16.4682 22.7248 16.2495 22.9604C16.2231 22.9888 16.1834 23.0299 16.1326 23.0827C15.7752 23.4535 14.8636 24.3993 14.1042 25.5485C13.9946 25.7142 13.8911 25.8776 13.791 26.0358C13.2215 26.9349 12.7603 27.6632 11.9153 27.6629C10.9219 27.6627 10.4444 26.6409 10.2909 24.7261C10.2254 23.9094 10.2738 23.1782 10.3188 22.4988C10.3792 21.5852 10.4334 20.7652 10.1964 19.9568C9.78325 18.5471 8.74438 18.4532 7.7763 18.5354C6.80823 18.6177 4.99014 19.0523 3.91594 19.4987C2.84159 19.9451 1.96788 20.4032 1.77903 20.5089C1.59004 20.6147 1.25959 20.503 1.73178 20.0655C2.20411 19.628 3.63245 18.782 5.54504 18.1126C6.29057 17.8515 6.83876 17.6869 7.24208 17.5658C7.87336 17.3762 8.14969 17.2932 8.27219 17.114C8.30337 17.0684 8.3411 16.9949 8.3893 16.9011C8.65123 16.3914 9.22205 15.2805 10.7278 14.7646C12.2333 14.2487 14.8082 13.6742 16.568 13.2816C16.8919 13.2093 17.1882 13.1432 17.4451 13.0847C18.2694 12.8973 18.8441 12.6952 19.2615 12.5485ZM24.3453 15.5916C24.3453 15.8807 24.5797 16.1149 24.8686 16.1149C25.1576 16.1149 25.3919 15.8807 25.3919 15.5916C25.3919 15.3027 25.1576 15.0683 24.8686 15.0683C24.5797 15.0683 24.3453 15.3027 24.3453 15.5916ZM32.0438 12.3721C36.6382 12.4963 38.0104 14.1878 38.341 14.7491C38.6338 15.2457 38.5638 15.3523 38.004 15.4053C37.2218 15.4795 33.2146 15.9434 30.6602 16.789C28.1733 17.6122 27.3016 18.001 26.9844 18.7033C26.7484 19.2254 26.7046 19.84 27.3785 21.3654C28.0526 22.891 28.4619 23.9314 28.1699 25.0848C27.8762 26.2441 26.7559 27.6626 25.2305 27.6626H14.6777C14.6777 27.6626 14.0925 27.6982 14.2699 26.9531C14.4472 26.2081 15.618 24.5584 17.2145 22.9974C18.8109 21.4365 20.7266 20.1238 20.7266 20.1238C20.7266 20.1238 20.7266 17.4098 21.7733 15.7955C22.8198 14.1814 24.5936 13.6314 25.7289 14.0395C25.7289 14.0395 27.4496 12.2478 32.0438 12.3721Z" fill="white"/>
</g>
</svg>
