<svg width="91" height="91" viewBox="0 0 91 91" fill="none" xmlns="http://www.w3.org/2000/svg">
<path d="M0 91H91V0H0V91Z" fill="#EB6A0A"/>
<path d="M55.1512 20.4034C54.7161 20.4034 54.3632 20.0506 54.3632 19.6153C54.3632 19.1802 54.7161 18.8273 55.1512 18.8273C55.5863 18.8273 55.9393 19.1802 55.9393 19.6153C55.9393 20.0506 55.5863 20.4034 55.1512 20.4034ZM75.4387 18.3466C74.9409 17.5015 72.8745 14.9542 65.956 14.7672C59.0378 14.5801 56.4467 17.278 56.4467 17.278C54.7371 16.6636 52.066 17.4918 50.4901 19.9225C48.9139 22.3533 48.9139 26.4402 48.9139 26.4402C48.9139 26.4402 46.0291 28.4168 43.6253 30.7674C41.2212 33.118 39.4581 35.6023 39.191 36.7242C38.9239 37.8461 39.8053 37.7926 39.8053 37.7926H55.6961C57.9932 37.7926 59.6803 35.6564 60.1225 33.9107C60.5623 32.1739 59.9459 30.6071 58.9308 28.3098C57.9159 26.0128 57.9818 25.0874 58.3373 24.3011C58.815 23.2436 60.1276 22.658 63.8725 21.4184C67.719 20.145 73.7533 19.4465 74.9313 19.3348C75.7743 19.2549 75.8796 19.0944 75.4387 18.3466Z" fill="white"/>
<path d="M34.1501 22.2732C33.7148 22.2732 33.3621 21.9205 33.3621 21.4852C33.3621 21.0501 33.7148 20.6972 34.1501 20.6972C34.5852 20.6972 34.9381 21.0501 34.9381 21.4852C34.9381 21.9205 34.5852 22.2732 34.1501 22.2732ZM48.0773 14.5714C47.4896 14.4646 46.5101 15.1235 44.017 15.6932C41.5241 16.2632 36.5734 17.3138 33.8845 18.2398C31.1953 19.1657 30.4831 21.3561 30.1805 21.8013C29.8776 22.2465 28.9516 22.3 26.0668 23.3151C23.1818 24.3299 21.0273 25.6123 20.3149 26.2756C19.6026 26.9388 20.1011 27.1081 20.3861 26.9478C20.671 26.7875 21.9889 26.093 23.6095 25.4163C25.2298 24.7396 27.9722 24.0808 29.4325 23.956C30.8927 23.8315 32.4598 23.9738 33.083 26.1108C33.7064 28.2477 32.994 30.438 33.2255 33.3407C33.4571 36.2434 34.1773 37.7923 35.6758 37.7927C37.1746 37.7932 37.8729 36.2666 38.9775 34.5874C40.2862 32.5972 41.8946 31.0092 42.2134 30.664C42.5435 30.3068 42.4968 29.8325 42.2398 29.5483C42.0414 29.3287 41.6129 28.9155 40.8649 27.8203C39.9707 26.5108 40.0281 25.0957 40.3307 23.5286C40.6336 21.9616 39.8556 21.3472 39.8856 21.1068C39.9213 20.822 40.2952 20.7152 42.1116 20.0027C43.9282 19.2904 43.8256 18.4534 43.8256 18.4534C43.8256 18.4534 45.9605 17.4715 47.0042 16.7573C48.3055 15.8668 48.6648 14.6784 48.0773 14.5714Z" fill="white"/>
<path d="M13.3406 51.6029C16.9595 51.6029 19.5442 48.8029 19.5442 45.1195C19.5442 41.436 16.9595 38.6358 13.3406 38.6358C9.74339 38.6358 7.11567 41.436 7.11567 45.1195C7.11567 48.8029 9.74339 51.6029 13.3406 51.6029ZM13.3406 37.1064C17.7995 37.1064 21.2242 40.639 21.2242 45.1195C21.2242 49.6214 17.8425 53.1323 13.3406 53.1323C8.86014 53.1323 5.45703 49.6214 5.45703 45.1195C5.45703 40.682 8.86014 37.1064 13.3406 37.1064Z" fill="white"/>
<path d="M25.9199 52.8738H24.3259V42.1038H25.9199V52.8738ZM25.1229 37.9248C25.726 37.9248 26.1784 38.3557 26.1784 38.9588C26.1784 39.5621 25.726 39.9927 25.1229 39.9927C24.4768 39.9927 24.0674 39.5621 24.0674 38.9588C24.0674 38.3557 24.4768 37.9248 25.1229 37.9248Z" fill="white"/>
<path d="M32.447 48.1136C30.5731 47.5105 29.1514 46.6486 29.1514 44.8177C29.1514 43.03 30.7454 41.8452 32.9425 41.8452C34.0411 41.8452 35.1826 42.1253 35.9366 42.4913V43.9777C35.1396 43.5471 34.0411 43.2237 33.0932 43.2237C31.6714 43.2237 30.6807 43.7838 30.6807 44.8393C30.6807 45.8302 31.4992 46.3041 33.1148 46.8209C35.4196 47.5747 36.5611 48.4149 36.5611 50.1812C36.5611 52.1198 34.9455 53.1323 32.727 53.1323C31.3915 53.1323 30.1207 52.8524 29.216 52.4214V50.9352C30.3146 51.4304 31.6498 51.7752 32.6623 51.7752C33.9332 51.7752 35.0534 51.3014 35.0534 50.1812C35.0534 49.1043 34.2133 48.6732 32.447 48.1136Z" fill="white"/>
<path d="M43.9276 43.2237C41.8811 43.2237 40.6319 44.8393 40.438 46.5626H47.1586C47.18 44.8393 46.06 43.2237 43.9276 43.2237ZM48.7526 46.8639C48.7526 47.2085 48.731 47.5319 48.731 47.7256H40.395V47.8118C40.438 50.1596 42.0104 51.7104 44.4014 51.7104C45.8445 51.7104 47.3525 51.3012 48.3646 50.6334V52.1414C47.4602 52.6799 46.017 53.1323 44.3368 53.1323C41.0411 53.1323 38.7363 50.8273 38.7363 47.4887C38.7363 44.2362 41.0195 41.8452 43.949 41.8452C47.0509 41.8452 48.7526 44.2146 48.7526 46.8639Z" fill="white"/>
<path d="M58.5099 47.8981C54.8265 47.3168 52.9311 48.3075 52.9311 50.0092C52.9311 51.0647 53.7067 51.7971 54.9343 51.7971C56.9805 51.7971 58.5099 49.772 58.5099 47.8981ZM52.0046 42.6638C52.608 42.3193 54.0295 41.8454 55.7313 41.8454C58.6822 41.8454 60.1039 43.2672 60.1039 45.9595V52.874H58.6175V51.4955C58.5959 50.9571 58.6822 50.5909 58.6822 50.5909H58.6392C58.5745 50.7846 57.3035 53.1326 54.6974 53.1326C52.7156 53.1326 51.3369 51.9261 51.3369 50.0738C51.3369 47.4029 54.0727 46.0888 58.5529 46.7135V46.0458C58.5529 43.9779 57.3467 43.2672 55.5588 43.2672C54.0081 43.2672 52.6294 43.784 52.0046 44.1718V42.6638Z" fill="white"/>
<path d="M63.6143 42.1037H65.1868V48.5228C65.1868 50.1598 65.4454 51.6462 67.47 51.6462C69.7749 51.6462 71.3255 49.7074 71.3255 47.381V42.1037H72.9197V52.8738H71.4119L71.3903 51.2151C71.3903 50.7411 71.4764 50.3967 71.4764 50.3751H71.4333C71.0239 51.366 69.624 53.1323 67.2547 53.1323C64.6052 53.1323 63.6143 51.6029 63.6143 48.889V42.1037Z" fill="white"/>
<path d="M81.5138 47.3164L85.5418 52.8735H83.7109L80.5876 48.5012L77.4858 52.8735H75.6768L79.6399 47.4025L75.8486 42.1037H77.6797L80.566 46.2823L83.474 42.1037H85.3263L81.5138 47.3164Z" fill="white"/>
<path d="M15.3539 59.9925V64.6735H16.3581C17.6946 64.6735 18.7144 63.7644 18.7144 62.3332C18.7144 60.9017 17.6865 59.9925 16.3187 59.9925H15.3539ZM14.7529 65.1794V59.4866H16.3264C18.0266 59.4866 19.3312 60.5776 19.3312 62.3332C19.3312 64.0884 18.0424 65.1794 16.3581 65.1794H14.7529Z" fill="white"/>
<path d="M20.8018 65.1797V59.4866H24.2335V59.9928H21.4027V62.0407H23.7987V62.5546H21.4027V64.6738H24.3521V65.1797H20.8018Z" fill="white"/>
<path d="M29.0759 57.3285V60.265H32.4301V61.2602H29.0759V65.1794H27.8965V56.3335H33.0567V57.3285H29.0759Z" fill="white"/>
<path d="M36.3259 57.3285V60.7442H38.0706C39.2379 60.7442 39.9382 60.1053 39.9382 59.0363C39.9382 57.9675 39.2011 57.3285 37.9724 57.3285H36.3259ZM38.0092 56.3335C39.9506 56.3335 41.1176 57.3409 41.1176 59.0363C41.1176 60.3632 40.2577 61.2231 39.3115 61.518L41.3143 65.1794H39.9996L38.1689 61.7147H36.3259V65.1794H35.1465V56.3335H38.0092Z" fill="white"/>
<path d="M47.9241 62.2436C47.322 60.8923 46.8675 59.8355 46.3883 58.5822C45.8967 59.8355 45.4421 60.8923 44.8401 62.2436H47.9241ZM46.3759 56.1864H46.4005L50.4797 65.1799H49.2266L48.3542 63.2142H44.4103L43.5502 65.1799H42.2969L46.3759 56.1864Z" fill="white"/>
<path d="M59.0929 65.3271L53.6009 59.3682L53.3184 59.0611V65.1797H52.1387V56.1862H52.1509L57.6431 62.1449L57.9256 62.452V56.3337H59.1053V65.3271H59.0929Z" fill="white"/>
<path d="M68.5416 57.9431C67.9642 57.6482 67.0427 57.2796 65.9124 57.2796C63.8975 57.2796 62.4475 58.754 62.4475 60.7566C62.4475 62.7594 63.8975 64.2337 65.9124 64.2337C67.1043 64.2337 68.0257 63.8774 68.6031 63.5825V64.7005C68.3082 64.8726 67.313 65.3271 65.9124 65.3271C63.234 65.3271 61.2559 63.3858 61.2559 60.7566C61.2559 58.1274 63.234 56.1862 65.9124 56.1862C67.2516 56.1862 68.2467 56.653 68.5416 56.8248V57.9431Z" fill="white"/>
<path d="M70.6318 65.1797V56.3337H76.0623V57.3287H71.8113V60.204H75.3988V61.199H71.8113V64.1847H76.2466V65.1797H70.6318Z" fill="white"/>
<rect x="5.45703" y="68.3789" width="80.0852" height="0.319443" fill="white"/>
<path d="M6.35469 72.4009V73.7077H7.02242C7.46908 73.7077 7.73703 73.4635 7.73703 73.0543C7.73703 72.6453 7.45496 72.4009 6.98476 72.4009H6.35469ZM6.99888 72.0199C7.74174 72.0199 8.1884 72.4054 8.1884 73.0543C8.1884 73.5621 7.85924 73.8913 7.49712 74.0041L8.26352 75.4053H7.76057L7.05988 74.0792H6.35469V75.4053H5.90332V72.0199H6.99888Z" fill="white"/>
<path d="M10.0924 71.9636H10.6613L10.05 72.7582H9.65047L10.0924 71.9636ZM9.88075 73.3647C9.47647 73.3647 9.23185 73.6748 9.19439 74.0136H10.5155C10.5202 73.6748 10.2994 73.3647 9.88075 73.3647ZM10.9483 74.0935C10.9483 74.1876 10.9386 74.2769 10.9386 74.324H9.18968V74.3287C9.20381 74.7892 9.51392 75.0807 10.0077 75.0807C10.3274 75.0807 10.6613 74.987 10.8588 74.8599V75.2596C10.6754 75.363 10.3604 75.4617 9.97962 75.4617C9.23655 75.4617 8.7334 74.9587 8.7334 74.2298C8.7334 73.5197 9.23655 72.9979 9.88546 72.9979C10.5767 72.9979 10.9483 73.515 10.9483 74.0935Z" fill="white"/>
<path d="M13.6041 74.2297C13.6041 73.7409 13.3126 73.3786 12.8754 73.3786C12.5227 73.3786 12.1373 73.6422 12.1373 74.2297C12.1373 74.8176 12.5227 75.0809 12.8754 75.0809C13.3126 75.0809 13.6041 74.7284 13.6041 74.2297ZM11.6953 73.0543H12.0996L12.109 73.2987C12.109 73.4023 12.0949 73.4729 12.0949 73.4729H12.1043C12.2265 73.2283 12.5557 72.9978 12.9364 72.9978C13.5571 72.9978 14.0275 73.5012 14.0275 74.2297C14.0275 74.9681 13.5571 75.4616 12.9458 75.4616C12.5651 75.4616 12.2548 75.2408 12.1278 75.0011H12.1184C12.1184 75.0011 12.1326 75.0715 12.1326 75.1937V76.4397H11.6953V73.0543Z" fill="white"/>
<path d="M16.0869 74.3522C15.3205 74.23 14.996 74.437 14.996 74.7567C14.996 74.9635 15.1465 75.1094 15.3817 75.1094C15.7812 75.1094 16.0869 74.7191 16.0869 74.3522ZM14.7139 73.1721C14.8456 73.1015 15.1559 72.9981 15.5415 72.9981C16.2046 72.9981 16.5288 73.3179 16.5288 73.9058V75.4056H16.1245L16.1198 75.1283C16.1151 75.0155 16.1339 74.9399 16.1339 74.9399H16.1245C16.0963 75.0061 15.8377 75.4619 15.3065 75.4619C14.8738 75.4619 14.5635 75.2034 14.5635 74.7706C14.5635 74.1971 15.1137 73.9105 16.0963 74.0466V73.9289C16.0963 73.5199 15.8519 73.3789 15.4803 73.3789C15.1559 73.3789 14.855 73.4919 14.7139 73.5764V73.1721Z" fill="white"/>
<path d="M17.3652 73.0542H17.7744L17.7791 73.3834C17.7839 73.4729 17.7697 73.5433 17.7744 73.5574H17.7791C17.9155 73.2237 18.1646 72.9977 18.5029 72.9977C18.5689 72.9977 18.6254 73.0072 18.6442 73.0121V73.435C18.6254 73.4305 18.583 73.4211 18.522 73.4211C18.0659 73.4211 17.8025 73.9242 17.8025 74.3801V75.4053H17.3652V73.0542Z" fill="white"/>
<path d="M19.4478 73.0544V72.3493H19.8758V73.0544H20.5857V73.4118H19.8758V74.6294C19.8758 74.9634 20.0263 75.0762 20.2236 75.0762C20.3695 75.0762 20.5341 75.0339 20.6655 74.9729V75.3536C20.5622 75.4103 20.3695 75.4617 20.1391 75.4617C19.8005 75.4617 19.4431 75.2881 19.4431 74.7612V73.4118H19.0576V73.0544H19.4478Z" fill="white"/>
<path d="M21.6851 75.4053H21.2479V73.0543H21.6851V75.4053ZM21.4643 72.1046C21.6241 72.1046 21.7369 72.2126 21.7369 72.3725C21.7369 72.5279 21.6241 72.6359 21.4643 72.6359C21.2995 72.6359 21.1914 72.5279 21.1914 72.3725C21.1914 72.2126 21.2995 72.1046 21.4643 72.1046Z" fill="white"/>
<path d="M22.687 73.0544V72.3493H23.1151V73.0544H23.825V73.4118H23.1151V74.6294C23.1151 74.9634 23.2655 75.0762 23.4628 75.0762C23.6088 75.0762 23.7732 75.0339 23.9048 74.9729V75.3536C23.8014 75.4103 23.6088 75.4617 23.3781 75.4617C23.0397 75.4617 22.6823 75.2881 22.6823 74.7612V73.4118H22.2969V73.0544H22.687Z" fill="white"/>
<path d="M24.9244 75.4053H24.4872V73.0543H24.9244V75.4053ZM24.7035 72.1046C24.8634 72.1046 24.9762 72.2126 24.9762 72.3725C24.9762 72.5279 24.8634 72.6359 24.7035 72.6359C24.5387 72.6359 24.4307 72.5279 24.4307 72.3725C24.4307 72.2126 24.5387 72.1046 24.7035 72.1046Z" fill="white"/>
<path d="M27.6799 74.2298C27.6799 73.7315 27.3461 73.3786 26.89 73.3786C26.4386 73.3786 26.1048 73.7315 26.1048 74.2298C26.1048 74.7284 26.4386 75.0809 26.89 75.0809C27.3461 75.0809 27.6799 74.7284 27.6799 74.2298ZM28.1031 74.2298C28.1031 74.9397 27.5907 75.4617 26.89 75.4617C26.1942 75.4617 25.6816 74.9397 25.6816 74.2298C25.6816 73.5199 26.1942 72.9979 26.89 72.9979C27.5907 72.9979 28.1031 73.5199 28.1031 74.2298Z" fill="white"/>
<path d="M29.2684 73.0542L29.2778 73.3834C29.2778 73.4823 29.2637 73.5527 29.2592 73.5621H29.2684C29.3576 73.3507 29.6682 72.9977 30.1664 72.9977C30.7449 72.9977 30.9707 73.3412 30.9707 73.9287V75.4053H30.5332V74.0182C30.5332 73.6937 30.4767 73.4022 30.0866 73.4022C29.6258 73.4022 29.2966 73.7691 29.2966 74.2485V75.4053H28.8594V73.0542H29.2684Z" fill="white"/>
<path d="M32.3671 74.399C31.9487 74.2627 31.6572 74.084 31.6572 73.6608C31.6572 73.2707 32.0099 72.9978 32.4987 72.9978C32.7528 72.9978 33.0019 73.0637 33.1618 73.1388V73.5339C32.9925 73.4445 32.7575 73.3693 32.5458 73.3693C32.2779 73.3693 32.0662 73.4635 32.0662 73.6748C32.0662 73.8631 32.2308 73.9523 32.5505 74.0559C33.049 74.2203 33.2936 74.4037 33.2936 74.7986C33.2936 75.2267 32.9456 75.4617 32.4377 75.4617C32.1321 75.4617 31.8595 75.396 31.6714 75.3065V74.9069C31.9016 75.0197 32.2025 75.0995 32.4236 75.0995C32.668 75.0995 32.8891 75.0152 32.8891 74.7941C32.8891 74.5919 32.7151 74.5118 32.3671 74.399Z" fill="white"/>
<path d="M33.9558 76.1106H33.6172L33.904 75.1326H34.3367L33.9558 76.1106Z" fill="white"/>
<path d="M37.2984 72.4009V75.4053H36.847V72.4009H35.8174V72.0199H38.3327V72.4009H37.2984Z" fill="white"/>
<path d="M39.4794 73.3647C39.0751 73.3647 38.8305 73.6748 38.7928 74.0136H40.1142C40.1189 73.6748 39.898 73.3647 39.4794 73.3647ZM40.5467 74.0935C40.5467 74.1876 40.5373 74.2769 40.5373 74.3239H38.7883V74.3287C38.8022 74.7892 39.1126 75.0809 39.6063 75.0809C39.926 75.0809 40.2599 74.987 40.4572 74.8599V75.2596C40.274 75.363 39.959 75.4617 39.578 75.4617C38.8352 75.4617 38.332 74.9587 38.332 74.2298C38.332 73.5199 38.8352 72.9979 39.4841 72.9979C40.1754 72.9979 40.5467 73.515 40.5467 74.0935Z" fill="white"/>
<path d="M41.699 73.0542L41.7084 73.3834C41.7084 73.4823 41.6943 73.5527 41.6896 73.5621H41.699C41.7883 73.3507 42.0988 72.9977 42.597 72.9977C43.1755 72.9977 43.4011 73.3412 43.4011 73.9287V75.4053H42.9639V74.0182C42.9639 73.6937 42.9074 73.4022 42.5172 73.4022C42.0564 73.4022 41.7273 73.7691 41.7273 74.2485V75.4053H41.29V73.0542H41.699Z" fill="white"/>
<path d="M44.51 74.2298C44.51 74.7188 44.8015 75.0809 45.2388 75.0809C45.5915 75.0809 45.9769 74.8177 45.9769 74.2298C45.9769 73.6423 45.5915 73.3786 45.2388 73.3786C44.8015 73.3786 44.51 73.7315 44.51 74.2298ZM46.4191 75.4054H46.0146L46.0052 75.128C46.0052 75.0244 46.0193 74.954 46.0193 74.954H46.0099C45.8877 75.2173 45.5585 75.4617 45.1778 75.4617C44.5571 75.4617 44.0869 74.9587 44.0869 74.2298C44.0869 73.4918 44.5571 72.9978 45.1684 72.9978C45.5491 72.9978 45.8594 73.2048 45.9863 73.4257H45.9958C45.9958 73.4257 45.9816 73.3553 45.9816 73.2333V72.02H46.4191V75.4054Z" fill="white"/>
<path d="M48.6797 74.3522C47.9135 74.23 47.5888 74.437 47.5888 74.7567C47.5888 74.9635 47.7392 75.1094 47.9745 75.1094C48.3743 75.1094 48.6797 74.7191 48.6797 74.3522ZM47.3067 73.1721C47.4383 73.1015 47.7487 72.9981 48.1343 72.9981C48.7974 72.9981 49.1216 73.3179 49.1216 73.9058V75.4056H48.7175L48.7126 75.1283C48.7081 75.0155 48.727 74.9399 48.727 74.9399H48.7175C48.6893 75.0061 48.4305 75.4619 47.8993 75.4619C47.4666 75.4619 47.1562 75.2034 47.1562 74.7706C47.1562 74.1971 47.7065 73.9105 48.6893 74.0466V73.9289C48.6893 73.5199 48.4447 73.3789 48.0733 73.3789C47.7487 73.3789 47.4477 73.4919 47.3067 73.5764V73.1721Z" fill="white"/>
<path d="M50.4004 73.0542L50.4098 73.3834C50.4098 73.4823 50.3957 73.5527 50.3908 73.5621H50.4004C50.4897 73.3507 50.8 72.9977 51.2983 72.9977C51.8766 72.9977 52.1024 73.3412 52.1024 73.9287V75.4053H51.6651V74.0182C51.6651 73.6937 51.6088 73.4022 51.2184 73.4022C50.7576 73.4022 50.4287 73.7691 50.4287 74.2485V75.4053H49.9912V73.0542H50.4004Z" fill="white"/>
<path d="M54.0388 75.0715C54.3635 75.0715 54.6079 74.954 54.7536 74.8648V75.2738C54.6126 75.3491 54.3821 75.4617 54.0155 75.4617C53.2915 75.4617 52.7881 74.9399 52.7881 74.2298C52.7881 73.5198 53.2915 72.9981 54.0155 72.9981C54.3776 72.9981 54.5985 73.1059 54.7395 73.1815V73.5952C54.5749 73.4918 54.3446 73.3882 54.0388 73.3882C53.5688 73.3882 53.235 73.7362 53.235 74.2298C53.235 74.7237 53.5641 75.0715 54.0388 75.0715Z" fill="white"/>
<path d="M56.4276 73.3647C56.0231 73.3647 55.7787 73.6748 55.7411 74.0136H57.0622C57.0669 73.6748 56.8461 73.3647 56.4276 73.3647ZM57.4948 74.0935C57.4948 74.1876 57.4853 74.2769 57.4853 74.3239H55.7366V74.3287C55.7505 74.7892 56.0608 75.0809 56.5546 75.0809C56.8743 75.0809 57.208 74.987 57.4055 74.8599V75.2596C57.2221 75.363 56.9071 75.4617 56.5263 75.4617C55.7834 75.4617 55.2803 74.9587 55.2803 74.2298C55.2803 73.5199 55.7834 72.9979 56.4321 72.9979C57.1234 72.9979 57.4948 73.515 57.4948 74.0935Z" fill="white"/>
<path d="M58.7499 74.399C58.3315 74.2627 58.04 74.084 58.04 73.6608C58.04 73.2707 58.3927 72.9978 58.8815 72.9978C59.1355 72.9978 59.3846 73.0637 59.5445 73.1388V73.5339C59.3752 73.4445 59.14 73.3693 58.9286 73.3693C58.6607 73.3693 58.449 73.4635 58.449 73.6748C58.449 73.8631 58.6136 73.9523 58.9333 74.0559C59.4317 74.2203 59.6761 74.4037 59.6761 74.7986C59.6761 75.2267 59.3284 75.4617 58.8205 75.4617C58.5149 75.4617 58.2423 75.396 58.0542 75.3065V74.9069C58.2844 75.0197 58.5853 75.0995 58.8066 75.0995C59.0508 75.0995 59.2716 75.0152 59.2716 74.7941C59.2716 74.5919 59.0979 74.5118 58.7499 74.399Z" fill="white"/>
<path d="M62.4735 73.3647C62.069 73.3647 61.8246 73.6748 61.7869 74.0136H63.108C63.1127 73.6748 62.8919 73.3647 62.4735 73.3647ZM63.5406 74.0935C63.5406 74.1876 63.5311 74.2769 63.5311 74.3239H61.7824V74.3287C61.7964 74.7892 62.1067 75.0809 62.6004 75.0809C62.9201 75.0809 63.2538 74.987 63.4513 74.8599V75.2596C63.2679 75.363 62.9529 75.4617 62.5721 75.4617C61.8293 75.4617 61.3262 74.9587 61.3262 74.2298C61.3262 73.5199 61.8293 72.9979 62.478 72.9979C63.1692 72.9979 63.5406 73.515 63.5406 74.0935Z" fill="white"/>
<path d="M64.448 73.0544V72.3493H64.8756V73.0544H65.5855V73.4118H64.8756V74.6294C64.8756 74.9634 65.026 75.0762 65.2236 75.0762C65.3695 75.0762 65.5339 75.0339 65.6655 74.9729V75.3536C65.5621 75.4103 65.3695 75.4617 65.139 75.4617C64.8005 75.4617 64.4433 75.2881 64.4433 74.7612V73.4118H64.0576V73.0544H64.448Z" fill="white"/>
<path d="M67.3857 75.4053V72.02H69.4641V72.4009H67.8371V73.5012H69.2103V73.8819H67.8371V75.0243H69.5345V75.4053H67.3857Z" fill="white"/>
<path d="M70.3289 73.0543V72.7913C70.3289 72.2924 70.6486 71.9635 71.1802 71.9635C71.3163 71.9635 71.4293 71.9823 71.4666 71.9918V72.3725C71.4293 72.3633 71.3349 72.3445 71.2222 72.3445C70.9213 72.3445 70.7381 72.5137 70.7381 72.8286V73.0543H71.3632V73.4117H70.7522V75.4053H70.315V73.4117H69.9668V73.0543H70.3289Z" fill="white"/>
<path d="M72.025 73.0543V72.7913C72.025 72.2924 72.345 71.9635 72.8764 71.9635C73.0125 71.9635 73.1255 71.9823 73.1629 71.9918V72.3725C73.1255 72.3633 73.0313 72.3445 72.9185 72.3445C72.6176 72.3445 72.4342 72.5137 72.4342 72.8286V73.0543H73.0596V73.4117H72.4483V75.4053H72.0111V73.4117H71.6631V73.0543H72.025Z" fill="white"/>
<path d="M74.5927 73.3647C74.1882 73.3647 73.9436 73.6748 73.9061 74.0136H75.2273C75.232 73.6748 75.0111 73.3647 74.5927 73.3647ZM75.6598 74.0935C75.6598 74.1876 75.6504 74.2769 75.6504 74.3239H73.9016V74.3287C73.9155 74.7892 74.2256 75.0809 74.7196 75.0809C75.0391 75.0809 75.373 74.987 75.5705 74.8599V75.2596C75.3871 75.363 75.0721 75.4617 74.6913 75.4617C73.9483 75.4617 73.4453 74.9587 73.4453 74.2298C73.4453 73.5199 73.9483 72.9979 74.5972 72.9979C75.2885 72.9979 75.6598 73.515 75.6598 74.0935Z" fill="white"/>
<path d="M77.4792 75.0715C77.8036 75.0715 78.0483 74.954 78.1938 74.8648V75.2738C78.0528 75.3491 77.8225 75.4617 77.4559 75.4617C76.7317 75.4617 76.2285 74.9399 76.2285 74.2298C76.2285 73.5198 76.7317 72.9981 77.4559 72.9981C77.8178 72.9981 78.0388 73.1059 78.1797 73.1815V73.5952C78.0153 73.4918 77.7848 73.3882 77.4792 73.3882C77.009 73.3882 76.6752 73.7362 76.6752 74.2298C76.6752 74.7237 77.0043 75.0715 77.4792 75.0715Z" fill="white"/>
<path d="M79.0112 73.0544V72.3493H79.4391V73.0544H80.149V73.4118H79.4391V74.6294C79.4391 74.9634 79.5895 75.0762 79.7871 75.0762C79.933 75.0762 80.0974 75.0339 80.229 74.9729V75.3536C80.1256 75.4103 79.933 75.4617 79.7023 75.4617C79.3639 75.4617 79.0068 75.2881 79.0068 74.7612V73.4118H78.6211V73.0544H79.0112Z" fill="white"/>
<path d="M81.2495 75.4053H80.8121V73.0543H81.2495V75.4053ZM81.0287 72.1046C81.1885 72.1046 81.3013 72.2126 81.3013 72.3725C81.3013 72.5279 81.1885 72.6359 81.0287 72.6359C80.8639 72.6359 80.7559 72.5279 80.7559 72.3725C80.7559 72.2126 80.8639 72.1046 81.0287 72.1046Z" fill="white"/>
<path d="M82.283 73.0543V72.7913C82.283 72.2924 82.6026 71.9635 83.1342 71.9635C83.2703 71.9635 83.3835 71.9823 83.4208 71.9918V72.3725C83.3835 72.3633 83.2892 72.3445 83.1764 72.3445C82.8754 72.3445 82.6922 72.5137 82.6922 72.8286V73.0543H83.3174V73.4117H82.7064V75.4053H82.2691V73.4117H81.9209V73.0543H82.283Z" fill="white"/>
<path d="M84.413 74.399C83.9946 74.2627 83.7031 74.084 83.7031 73.6608C83.7031 73.2707 84.0558 72.9978 84.5446 72.9978C84.7986 72.9978 85.0479 73.0637 85.2076 73.1388V73.5339C85.0385 73.4445 84.8031 73.3693 84.5917 73.3693C84.3237 73.3693 84.1121 73.4635 84.1121 73.6748C84.1121 73.8631 84.2767 73.9523 84.5964 74.0559C85.0948 74.2203 85.3392 74.4037 85.3392 74.7986C85.3392 75.2267 84.9914 75.4617 84.4836 75.4617C84.178 75.4617 83.9054 75.396 83.7172 75.3065V74.9069C83.9477 75.0197 84.2484 75.0995 84.4697 75.0995C84.7139 75.0995 84.9347 75.0152 84.9347 74.7941C84.9347 74.5919 84.7612 74.5118 84.413 74.399Z" fill="white"/>
</svg>
