<svg width="48" height="48" viewBox="0 0 48 48" fill="none" xmlns="http://www.w3.org/2000/svg">
<path d="M28.7496 3.01038C28.2116 2.91384 27.3149 3.50947 25.0326 4.02444C22.7505 4.53959 18.2184 5.48923 15.7569 6.32629C13.2951 7.16315 12.6431 9.1431 12.3661 9.54547C12.0889 9.94785 11.2411 9.99621 8.60029 10.9137C5.95928 11.8311 3.98694 12.9902 3.33472 13.5897C2.6827 14.1892 3.139 14.3422 3.39996 14.1973C3.66073 14.0525 4.86722 13.4247 6.35073 12.813C7.83405 12.2013 10.3446 11.6059 11.6813 11.4931C13.0181 11.3805 14.4527 11.5092 15.0232 13.4408C15.5939 15.3724 14.9417 17.3521 15.1537 19.9759C15.3656 22.5996 16.0249 23.9996 17.3968 24C18.7688 24.0004 19.4081 22.6205 20.4192 21.1027C21.6173 19.3038 23.0896 17.8684 23.3816 17.5564C23.6837 17.2335 23.641 16.8048 23.4057 16.5479C23.224 16.3495 22.8318 15.9759 22.1471 14.986C21.3285 13.8023 21.381 12.5232 21.658 11.1068C21.9353 9.69037 21.2231 9.13498 21.2505 8.91773C21.2832 8.66025 21.6255 8.56372 23.2883 7.91973C24.9513 7.27593 24.8574 6.51935 24.8574 6.51935C24.8574 6.51935 26.8117 5.6318 27.7672 4.98626C28.9584 4.18132 29.2874 3.1071 28.7496 3.01038Z" stroke="black" stroke-width="3"/>
<path d="M35.6757 23.0089C42.3002 23.1875 44.2787 25.6203 44.7554 26.4275C45.1775 27.1417 45.0767 27.295 44.2695 27.3712C43.1416 27.4779 37.3638 28.1451 33.6807 29.3613C30.095 30.5452 28.8382 31.1044 28.3808 32.1143C28.0405 32.8653 27.9773 33.7492 28.9491 35.943C29.921 38.137 30.5112 39.6335 30.0901 41.2922C29.6667 42.9595 28.0513 44.9996 25.8519 44.9996H10.6364C10.6364 44.9996 9.79252 45.0507 10.0483 43.9792C10.304 42.9078 11.9922 40.5351 14.2941 38.2901C16.5957 36.0452 19.3579 34.1573 19.3579 34.1573C19.3579 34.1573 19.3579 30.2541 20.8671 27.9325C22.376 25.6111 24.9336 24.8201 26.5705 25.4069C26.5705 25.4069 29.0515 22.8302 35.6757 23.0089Z" stroke="black" stroke-width="3"/>
</svg>
