<svg width="17" height="17" viewBox="0 0 17 17" fill="none" xmlns="http://www.w3.org/2000/svg">
<path d="M14.5182 8.5C14.3414 8.5 14.1718 8.57024 14.0468 8.69526C13.9218 8.82029 13.8516 8.98986 13.8516 9.16667V13.1667C13.8516 13.3435 13.7813 13.513 13.6563 13.6381C13.5313 13.7631 13.3617 13.8333 13.1849 13.8333H3.85156C3.67475 13.8333 3.50518 13.7631 3.38016 13.6381C3.25513 13.513 3.1849 13.3435 3.1849 13.1667V3.83333C3.1849 3.65652 3.25513 3.48695 3.38016 3.36193C3.50518 3.2369 3.67475 3.16667 3.85156 3.16667H7.85156C8.02837 3.16667 8.19794 3.09643 8.32297 2.9714C8.44799 2.84638 8.51823 2.67681 8.51823 2.5C8.51823 2.32319 8.44799 2.15362 8.32297 2.0286C8.19794 1.90357 8.02837 1.83333 7.85156 1.83333H3.85156C3.32113 1.83333 2.81242 2.04405 2.43735 2.41912C2.06228 2.79419 1.85156 3.3029 1.85156 3.83333V13.1667C1.85156 13.6971 2.06228 14.2058 2.43735 14.5809C2.81242 14.956 3.32113 15.1667 3.85156 15.1667H13.1849C13.7153 15.1667 14.224 14.956 14.5991 14.5809C14.9742 14.2058 15.1849 13.6971 15.1849 13.1667V9.16667C15.1849 8.98986 15.1147 8.82029 14.9896 8.69526C14.8646 8.57024 14.695 8.5 14.5182 8.5ZM4.51823 9.00667V11.8333C4.51823 12.0101 4.58847 12.1797 4.71349 12.3047C4.83852 12.4298 5.00808 12.5 5.1849 12.5H8.01156C8.0993 12.5005 8.18628 12.4837 8.2675 12.4505C8.34873 12.4173 8.4226 12.3685 8.4849 12.3067L13.0982 7.68667L14.9916 5.83333C15.054 5.77136 15.1036 5.69762 15.1375 5.61638C15.1713 5.53515 15.1888 5.44801 15.1888 5.36C15.1888 5.27199 15.1713 5.18486 15.1375 5.10362C15.1036 5.02238 15.054 4.94864 14.9916 4.88667L12.1649 2.02667C12.1029 1.96418 12.0292 1.91458 11.9479 1.88074C11.8667 1.84689 11.7796 1.82947 11.6916 1.82947C11.6036 1.82947 11.5164 1.84689 11.4352 1.88074C11.3539 1.91458 11.2802 1.96418 11.2182 2.02667L9.33823 3.91333L4.71156 8.53333C4.64977 8.59563 4.60089 8.6695 4.56772 8.75073C4.53454 8.83195 4.51772 8.91893 4.51823 9.00667V9.00667ZM11.6916 3.44L13.5782 5.32667L12.6316 6.27333L10.7449 4.38667L11.6916 3.44ZM5.85156 9.28L9.8049 5.32667L11.6916 7.21333L7.73823 11.1667H5.85156V9.28Z" fill="#39765A"/>
</svg>
