<svg width="24" height="24" viewBox="0 0 24 24" fill="none" xmlns="http://www.w3.org/2000/svg">
<path fill-rule="evenodd" clip-rule="evenodd" d="M7.85596 2.79023C6.99988 2.64196 6.13475 2.83612 5.42043 3.33787C4.71233 3.8347 4.23908 4.57232 4.08538 5.41725L0.714531 13.4177C0.260529 14.1903 0 15.0897 0 16.0488C0 18.9215 2.337 21.2583 5.2095 21.2583C8.082 21.2583 10.419 18.9215 10.419 16.0488C10.419 15.849 10.4077 15.6518 10.3857 15.4577L10.3976 14.6752H13.6024L13.6142 15.4582C13.5923 15.652 13.581 15.849 13.581 16.0485C13.581 18.9213 15.918 21.2583 18.7905 21.2583C21.663 21.2583 24 18.9215 24 16.0485C24 15.0891 23.7393 14.1894 23.2849 13.4165L19.9148 5.41856C19.5955 3.66182 17.9087 2.48489 16.1438 2.79023C15.2872 2.9385 14.5384 3.41432 14.0361 4.1302C13.7134 4.59043 13.5178 5.11311 13.4591 5.6557H10.5405C10.3874 4.2444 9.3198 3.04345 7.85596 2.79023ZM10.5108 7.21078L10.462 10.4243H13.5379L13.4891 7.21078H10.5108ZM15.1881 16.6592L15.1882 16.6659C15.4823 18.3883 16.9857 19.7035 18.7905 19.7035C20.8056 19.7035 22.4449 18.0642 22.4449 16.0488C22.4449 15.7405 22.4066 15.4411 22.3343 15.1549C22.3212 15.1311 22.3092 15.1064 22.2984 15.0807L21.8941 14.1212C21.2483 13.0852 20.0985 12.3944 18.7905 12.3944C16.9477 12.3944 15.4188 13.7656 15.1711 15.5416L15.1881 16.6592ZM18.7905 10.839C19.4478 10.839 20.0771 10.9614 20.6568 11.1846L18.4107 5.85393C18.3683 5.75315 18.3485 5.64764 18.3498 5.54371C18.1179 4.71075 17.2802 4.17192 16.4091 4.32248C15.9628 4.39968 15.5722 4.6485 15.3092 5.02354C15.0458 5.39887 14.9434 5.85243 15.0212 6.30079C15.0279 6.34073 15.0318 6.38114 15.0326 6.42159L15.1227 12.3525C16.0649 11.4175 17.3614 10.839 18.7905 10.839ZM10.4211 13.1201H13.5788L13.5615 11.9794H10.4385L10.4211 13.1201ZM1.70155 15.0808C1.69076 15.1064 1.67876 15.1311 1.66564 15.1549C1.59344 15.4411 1.55508 15.7405 1.55508 16.0488C1.55508 18.0639 3.19439 19.7035 5.2095 19.7035C7.01524 19.7035 8.51921 18.3871 8.81225 16.6634L8.8123 16.6589L8.82924 15.5443C8.58281 13.7671 7.0535 12.3944 5.2095 12.3944C3.90142 12.3944 2.75169 13.0851 2.10592 14.121L1.70155 15.0808ZM5.2095 10.8393C6.6388 10.8393 7.93552 11.4179 8.87772 12.3532L8.96783 6.42131C8.96835 6.38086 8.97224 6.3404 8.97899 6.30051C9.05652 5.85239 8.95415 5.39882 8.6908 5.02354C8.42774 4.64854 8.03713 4.39973 7.59083 4.32248C6.71793 4.1714 5.88158 4.71098 5.65011 5.54451C5.65114 5.6482 5.63146 5.75343 5.58922 5.85398L3.34306 11.1849C3.92276 10.9617 4.55211 10.8393 5.2095 10.8393Z" fill="black"/>
</svg>
