<svg width="24" height="24" viewBox="0 0 24 24" fill="none" xmlns="http://www.w3.org/2000/svg">
<path d="M21.707 11.293L13.707 3.29298C13.5672 3.15312 13.389 3.05788 13.195 3.01928C13.0011 2.98069 12.8 3.00049 12.6173 3.07616C12.4346 3.15184 12.2784 3.28 12.1685 3.44444C12.0586 3.60888 12 3.80221 12 3.99998V7.5449C9.2683 7.79774 6.72926 9.06084 4.87973 11.087C3.0302 13.1132 2.00331 15.7566 2 18.5V20C1.99998 20.2077 2.06463 20.4102 2.18495 20.5794C2.30528 20.7487 2.47532 20.8763 2.67147 20.9445C2.86762 21.0128 3.08014 21.0182 3.27954 20.9602C3.47893 20.9021 3.65531 20.7834 3.78418 20.6206C4.76383 19.4555 5.96583 18.4974 7.31997 17.8021C8.6741 17.1068 10.1532 16.6884 11.6709 16.5713C11.7207 16.5649 11.8457 16.5552 12 16.5454V20C12 20.1977 12.0586 20.3911 12.1685 20.5555C12.2784 20.7199 12.4346 20.8481 12.6173 20.9238C12.8 20.9995 13.0011 21.0193 13.195 20.9807C13.389 20.9421 13.5672 20.8468 13.707 20.707L21.707 12.707C21.7999 12.6141 21.8735 12.5039 21.9238 12.3826C21.9741 12.2613 21.9999 12.1313 21.9999 12C21.9999 11.8687 21.9741 11.7386 21.9238 11.6173C21.8735 11.496 21.7999 11.3858 21.707 11.293ZM14 17.5859V15.5C14 15.3686 13.9742 15.2386 13.9239 15.1173C13.8737 14.9959 13.8 14.8857 13.7072 14.7928C13.6143 14.6999 13.5041 14.6263 13.3827 14.576C13.2614 14.5258 13.1313 14.4999 13 14.5C12.7451 14.5 11.7041 14.5493 11.4385 14.585C8.74307 14.8332 6.17736 15.8573 4.05176 17.5332C4.29289 15.3275 5.33918 13.2883 6.99026 11.806C8.64135 10.3238 10.7812 9.50269 13 9.49998C13.1313 9.50001 13.2614 9.47417 13.3827 9.42392C13.5041 9.37368 13.6143 9.30002 13.7072 9.20716C13.8 9.11429 13.8737 9.00404 13.9239 8.8827C13.9742 8.76136 14 8.63131 14 8.49998V6.41404L19.5859 12L14 17.5859Z" fill="#262626"/>
</svg>
