<svg width="17" height="17" viewBox="0 0 17 17" fill="none" xmlns="http://www.w3.org/2000/svg">
<path d="M14.9516 1.99339C14.8789 1.93103 14.7936 1.88505 14.7016 1.8586C14.6096 1.83214 14.5129 1.82581 14.4182 1.84006L5.75156 3.17339C5.59374 3.19734 5.44974 3.27712 5.34575 3.39824C5.24176 3.51935 5.18469 3.67376 5.1849 3.83339V10.7334C4.87341 10.5812 4.53156 10.5015 4.1849 10.5001C3.72341 10.5001 3.27228 10.6369 2.88857 10.8933C2.50485 11.1497 2.20578 11.5141 2.02918 11.9405C1.85257 12.3668 1.80637 12.836 1.8964 13.2886C1.98643 13.7412 2.20866 14.157 2.53498 14.4833C2.8613 14.8096 3.27706 15.0319 3.72969 15.1219C4.18231 15.2119 4.65146 15.1657 5.07783 14.9891C5.50419 14.8125 5.8686 14.5134 6.12499 14.1297C6.38138 13.746 6.51823 13.2949 6.51823 12.8334V7.74006L13.8516 6.61339V9.40006C13.5401 9.24792 13.1982 9.16815 12.8516 9.16673C12.3901 9.16673 11.9389 9.30357 11.5552 9.55996C11.1715 9.81635 10.8724 10.1808 10.6958 10.6071C10.5192 11.0335 10.473 11.5026 10.5631 11.9553C10.6531 12.4079 10.8753 12.8237 11.2016 13.15C11.528 13.4763 11.9437 13.6985 12.3964 13.7886C12.849 13.8786 13.3181 13.8324 13.7445 13.6558C14.1709 13.4792 14.5353 13.1801 14.7917 12.7964C15.048 12.4127 15.1849 11.9615 15.1849 11.5001V2.50006C15.1849 2.40377 15.164 2.30861 15.1238 2.22115C15.0835 2.13368 15.0247 2.05598 14.9516 1.99339ZM4.1849 13.8334C3.98712 13.8334 3.79378 13.7747 3.62933 13.6649C3.46488 13.555 3.3367 13.3988 3.26102 13.2161C3.18533 13.0333 3.16553 12.8323 3.20411 12.6383C3.2427 12.4443 3.33794 12.2661 3.47779 12.1263C3.61764 11.9864 3.79583 11.8912 3.98981 11.8526C4.18379 11.814 4.38485 11.8338 4.56758 11.9095C4.75031 11.9852 4.90649 12.1134 5.01637 12.2778C5.12625 12.4423 5.1849 12.6356 5.1849 12.8334C5.1849 13.0986 5.07954 13.353 4.892 13.5405C4.70447 13.728 4.45011 13.8334 4.1849 13.8334ZM12.8516 12.5001C12.6538 12.5001 12.4604 12.4414 12.296 12.3315C12.1315 12.2216 12.0034 12.0655 11.9277 11.8827C11.852 11.7 11.8322 11.499 11.8708 11.305C11.9094 11.111 12.0046 10.9328 12.1445 10.793C12.2843 10.6531 12.4625 10.5579 12.6565 10.5193C12.8505 10.4807 13.0515 10.5005 13.2342 10.5762C13.417 10.6519 13.5732 10.78 13.683 10.9445C13.7929 11.1089 13.8516 11.3023 13.8516 11.5001C13.8516 11.7653 13.7462 12.0196 13.5587 12.2072C13.3711 12.3947 13.1168 12.5001 12.8516 12.5001ZM13.8516 5.26006L6.51823 6.38673V4.38673L13.8516 3.28006V5.26006Z" fill="#39765A"/>
</svg>
