<svg width="16" height="16" viewBox="0 0 16 16" fill="none" xmlns="http://www.w3.org/2000/svg">
<path d="M15.3337 6.47332C15.3666 5.51909 15.158 4.572 14.727 3.71999C14.4346 3.37039 14.0288 3.13446 13.5803 3.05332C11.7254 2.88501 9.8627 2.81602 8.00034 2.84666C6.14477 2.81463 4.28882 2.88139 2.44034 3.04666C2.07489 3.11313 1.73669 3.28455 1.46701 3.53999C0.86701 4.09332 0.800343 5.03999 0.733677 5.83999C0.636951 7.27837 0.636951 8.72161 0.733677 10.16C0.752964 10.6103 0.820006 11.0572 0.933677 11.4933C1.01406 11.83 1.17669 12.1416 1.40701 12.4C1.67852 12.669 2.0246 12.8501 2.40034 12.92C3.83762 13.0974 5.28582 13.1709 6.73368 13.14C9.06701 13.1733 11.1137 13.14 13.5337 12.9533C13.9186 12.8878 14.2745 12.7064 14.5537 12.4333C14.7403 12.2466 14.8797 12.0181 14.9603 11.7667C15.1988 11.0351 15.3159 10.2694 15.307 9.49999C15.3337 9.12666 15.3337 6.87332 15.3337 6.47332ZM6.49368 9.89999V5.77332L10.4403 7.84666C9.33368 8.45999 7.87368 9.15332 6.49368 9.89999Z" fill="#39765A"/>
</svg>
