<svg width="32" height="39" viewBox="0 0 32 39" fill="none" xmlns="http://www.w3.org/2000/svg">
<g clip-path="url(#clip0)">
<g filter="url(#filter0_f)">
<ellipse cx="16.3563" cy="35.4615" rx="7.35632" ry="2.46154" fill="#0B311F" fill-opacity="0.11"/>
</g>
<path d="M32 16C32 23.4554 26.9009 29.7198 20 31.4959C18.7215 31.825 17.3812 35.5 16 35.5C14.6188 35.5 13.2785 31.825 12 31.4959C5.09909 29.7198 0 23.4554 0 16C0 7.16344 7.16344 0 16 0C24.8366 0 32 7.16344 32 16Z" fill="#39765A"/>
<path d="M31.5 16C31.5 23.2217 26.5607 29.291 19.8754 31.0117C19.3878 31.1372 18.9757 31.546 18.6464 31.9395C18.3481 32.296 18.0483 32.7291 17.7623 33.1423C17.7171 33.2074 17.6724 33.2721 17.628 33.3359C17.2917 33.8195 16.9765 34.2561 16.6694 34.5722C16.3459 34.9049 16.1292 35 16 35C15.8708 35 15.6541 34.9049 15.3306 34.5722C15.0235 34.2561 14.7083 33.8195 14.372 33.3359C14.3276 33.2721 14.2828 33.2074 14.2377 33.1423C13.9517 32.7291 13.6519 32.296 13.3536 31.9395C13.0243 31.546 12.6122 31.1372 12.1246 31.0117C5.43927 29.291 0.5 23.2217 0.5 16C0.5 7.43959 7.43959 0.5 16 0.5C24.5604 0.5 31.5 7.43959 31.5 16Z" stroke="#FCFCFC" stroke-opacity="0.4"/>
<g clip-path="url(#clip1)">
<path d="M18.289 9.00563C18.1498 8.97937 17.9641 9.04751 17.6651 9.15723C17.3676 9.26638 16.9581 9.41667 16.3707 9.55608C16.1876 9.59954 15.9765 9.64871 15.7457 9.70245C14.4916 9.99448 12.6565 10.4218 11.5836 10.8056C10.5106 11.1892 10.1038 12.0155 9.91715 12.3946C9.88281 12.4644 9.85591 12.519 9.8337 12.553C9.7464 12.6862 9.54947 12.748 9.0996 12.889C8.81218 12.9791 8.4215 13.1015 7.89023 13.2957C6.52724 13.7936 5.50935 14.4228 5.17274 14.7482C4.83624 15.0737 5.07173 15.1567 5.20641 15.0781C5.34099 14.9994 5.96364 14.6587 6.72926 14.3266C7.49478 13.9946 8.79042 13.6714 9.48031 13.6102C10.1702 13.5491 10.9105 13.6189 11.205 14.6674C11.3739 15.2687 11.3352 15.8786 11.2922 16.5581C11.2601 17.0634 11.2257 17.6073 11.2723 18.2147C11.3333 19.0083 11.4659 19.5957 11.6939 19.9603C12.7295 19.0163 13.6406 18.342 13.6406 18.342C13.6406 18.342 13.6406 15.824 14.5347 14.3067C14.5317 14.0161 14.5707 13.7145 14.6291 13.4005C14.7333 12.8406 14.5667 12.5285 14.4739 12.3547C14.4393 12.2899 14.415 12.2443 14.4188 12.2122C14.4336 12.0899 14.5707 12.0345 15.1795 11.7884C15.2664 11.7533 15.3634 11.7141 15.4705 11.6705C16.3287 11.321 16.2803 10.9103 16.2803 10.9103C16.2803 10.9103 17.2889 10.4286 17.782 10.0782C18.3968 9.64124 18.5665 9.05814 18.289 9.00563Z" fill="#FCFCFC"/>
<path d="M26.8791 14.395C26.6435 13.9775 25.6656 12.7194 22.3914 12.627C19.1175 12.5346 17.8912 13.8671 17.8912 13.8671C17.0822 13.5637 15.818 13.9727 15.0723 15.1733C14.3264 16.3739 14.3264 18.3926 14.3264 18.3926C14.3264 18.3926 12.9612 19.3689 11.8235 20.5299C10.6858 21.6909 9.85145 22.918 9.72505 23.4721C9.59865 24.0262 10.0157 23.9998 10.0157 23.9998H17.536C18.6231 23.9998 19.4215 22.9447 19.6308 22.0824C19.8389 21.2246 19.5472 20.4507 19.0668 19.316C18.5865 18.1815 18.6177 17.7244 18.786 17.336C19.012 16.8137 19.6332 16.5245 21.4054 15.9122C23.2258 15.2832 26.0815 14.9382 26.6389 14.883C27.0379 14.8436 27.0877 14.7643 26.8791 14.395Z" fill="#FCFCFC"/>
<path d="M18.289 9.00563C18.1498 8.97937 17.9641 9.04751 17.6651 9.15723C17.3676 9.26638 16.9581 9.41667 16.3707 9.55608C16.1876 9.59954 15.9765 9.64871 15.7457 9.70245C14.4916 9.99448 12.6565 10.4218 11.5836 10.8056C10.5106 11.1892 10.1038 12.0155 9.91715 12.3946C9.88281 12.4644 9.85591 12.519 9.8337 12.553C9.7464 12.6862 9.54947 12.748 9.0996 12.889C8.81218 12.9791 8.4215 13.1015 7.89023 13.2957C6.52724 13.7936 5.50935 14.4228 5.17274 14.7482C4.83624 15.0737 5.07173 15.1567 5.20641 15.0781C5.34099 14.9994 5.96364 14.6587 6.72926 14.3266C7.49478 13.9946 8.79042 13.6714 9.48031 13.6102C10.1702 13.5491 10.9105 13.6189 11.205 14.6674C11.3739 15.2687 11.3352 15.8786 11.2922 16.5581C11.2601 17.0634 11.2257 17.6073 11.2723 18.2147C11.3333 19.0083 11.4659 19.5957 11.6939 19.9603C12.7295 19.0163 13.6406 18.342 13.6406 18.342C13.6406 18.342 13.6406 15.824 14.5347 14.3067C14.5317 14.0161 14.5707 13.7145 14.6291 13.4005C14.7333 12.8406 14.5667 12.5285 14.4739 12.3547C14.4393 12.2899 14.415 12.2443 14.4188 12.2122C14.4336 12.0899 14.5707 12.0345 15.1795 11.7884C15.2664 11.7533 15.3634 11.7141 15.4705 11.6705C16.3287 11.321 16.2803 10.9103 16.2803 10.9103C16.2803 10.9103 17.2889 10.4286 17.782 10.0782C18.3968 9.64124 18.5665 9.05814 18.289 9.00563Z" stroke="white" stroke-opacity="0.2" stroke-width="1.2"/>
<path d="M26.8791 14.395C26.6435 13.9775 25.6656 12.7194 22.3914 12.627C19.1175 12.5346 17.8912 13.8671 17.8912 13.8671C17.0822 13.5637 15.818 13.9727 15.0723 15.1733C14.3264 16.3739 14.3264 18.3926 14.3264 18.3926C14.3264 18.3926 12.9612 19.3689 11.8235 20.5299C10.6858 21.6909 9.85145 22.918 9.72505 23.4721C9.59865 24.0262 10.0157 23.9998 10.0157 23.9998H17.536C18.6231 23.9998 19.4215 22.9447 19.6308 22.0824C19.8389 21.2246 19.5472 20.4507 19.0668 19.316C18.5865 18.1815 18.6177 17.7244 18.786 17.336C19.012 16.8137 19.6332 16.5245 21.4054 15.9122C23.2258 15.2832 26.0815 14.9382 26.6389 14.883C27.0379 14.8436 27.0877 14.7643 26.8791 14.395Z" stroke="white" stroke-opacity="0.2" stroke-width="1.2"/>
</g>
</g>
<defs>
<filter id="filter0_f" x="6" y="30" width="20.7126" height="10.9231" filterUnits="userSpaceOnUse" color-interpolation-filters="sRGB">
<feFlood flood-opacity="0" result="BackgroundImageFix"/>
<feBlend mode="normal" in="SourceGraphic" in2="BackgroundImageFix" result="shape"/>
<feGaussianBlur stdDeviation="1.5" result="effect1_foregroundBlur"/>
</filter>
<clipPath id="clip0">
<rect width="32" height="39" fill="white"/>
</clipPath>
<clipPath id="clip1">
<rect width="24" height="24" fill="white" transform="translate(4 4)"/>
</clipPath>
</defs>
</svg>
