<svg width="48" height="48" viewBox="0 0 48 48" fill="none" xmlns="http://www.w3.org/2000/svg">
<path fill-rule="evenodd" clip-rule="evenodd" d="M24.6274 1.69501L24.6687 1.96456L24.8564 2.24735L24.7217 2.38914L24.752 2.7475L24.8673 2.93758L25.1509 2.94849L25.3815 3.38787L25.5506 3.39566L25.7438 3.55225L25.8926 3.24764L26.5345 3.05366L26.6638 3.38397L26.8882 3.50395L26.8188 3.72597L26.9879 4.40452L27.2613 4.57279L27.4919 4.49489L27.5807 4.35933L27.7233 4.40841L27.6641 4.59227L28.0131 4.54786L28.1814 4.7473L28.1759 5.1859L28.3372 5.51154L28.4649 5.2786L28.7968 5.27393L28.9643 5.40091L29.3608 5.23887L29.5283 5.48193L29.66 5.51933L29.727 5.74915L29.8228 5.74759L29.8072 5.59178L29.9568 5.67825L29.9981 5.77563L29.7706 5.97662L29.7846 6.22748L29.699 6.37627L29.9311 6.37939L30.0285 6.69957L29.8018 6.80552L29.7426 7.14908L29.5644 7.20131L29.7459 7.1486L30.0337 7.25128L30.2819 7.1998L30.7228 7.35872L31.2128 7.11177L31.519 7.06736L31.4777 6.7129L31.5494 6.568L31.9443 6.19951L31.981 6.27196L32.1773 6.35999L32.0846 6.44569L32.0986 6.60539L32.0308 6.53683L31.9303 6.72069L31.9989 6.85624L31.8322 7.20369L32.1516 7.50051L32.0184 7.71475L32.1079 7.95002L32.0332 8.08323L32.4982 8.04818L32.8184 8.23437L33.0514 8.58104L33.3887 8.56858L33.5866 8.77736L33.5297 8.99004L33.6395 8.89188L33.7942 8.96339L33.8678 9.04176L33.987 9.20613L34.0431 9.55281L34.3142 9.3931L34.4918 9.50607L34.5915 9.29339L34.9265 9.34948L35.0145 9.22873L35.2218 9.33078L35.3238 9.54891L35.6393 9.5754L35.6892 9.78652L35.8832 9.80366L35.9845 9.70706L36.0717 9.77406L36.159 9.57774L36.5204 9.47412L36.9271 9.74212L37.1343 9.66031L37.548 9.93298L37.4935 10.0272L37.6913 10.2088L37.5823 10.3007L37.9149 10.6326L37.8853 10.7369L37.978 10.7821L37.9991 10.9488L38.0902 10.9372L38.0513 11.0899L38.1385 11.2036L38.4517 11.2581L38.5374 11.1218L38.4603 10.9644L38.7843 10.9146L39.092 11.0735L39.1481 11.4521L39.3024 11.2472L39.4894 11.4217L39.7768 11.375L39.9319 11.449L40.0362 11.308L40.1539 11.3095L40.1617 11.1709L40.4195 11.1109L40.3907 11.2044L40.5792 11.1833L40.6899 11.5347L41.0241 11.6539L41.042 11.7489L41.3508 11.7342L41.3602 11.7981L41.5503 11.6882L41.784 11.8472L42.0021 11.7272L42.517 12.0614L42.9681 12.179L42.6986 12.4813L42.5061 12.9814L42.126 13.2027L42.1003 13.3749L41.6967 13.7698L41.5705 14.0479L41.59 14.386L41.4684 14.5052L41.3524 14.9711L41.3921 15.2975L41.2254 15.4206L41.1389 15.8086L40.8491 16.2978L40.8257 16.7154L40.9963 17.0153L40.7837 17.4625L40.6964 17.9424L40.7556 18.1605L40.638 18.335L40.8958 18.7798L40.8694 18.9169L40.5967 19.0899L40.6987 19.1452L40.592 19.1803L40.6356 19.287L40.5624 19.3618L40.3778 19.3002L40.3435 19.3711L40.4557 19.4155L40.2321 19.6009L40.0451 19.5573L39.7693 19.6524L39.7335 19.5667L39.5325 19.5448L39.6354 19.3057L39.411 19.2628L38.927 19.3054L38.9878 19.4986L38.7883 19.5976L38.5905 19.9793L39.0345 19.8835L39.1397 19.9341L39.1615 20.0697L39.015 20.1133L38.9706 20.2559L38.7977 20.2917L38.8374 20.5036L38.4689 20.8401L38.5258 20.8736L38.4611 20.9484L38.021 21.2655L38.074 21.4127L37.7569 21.687L37.3541 21.775L37.1438 21.9931L37.2482 22.1778L37.1407 22.5392L37.21 22.7145L36.1045 23.6462L36.2541 23.7935L35.9822 24.1799L35.9565 24.398L35.9558 24.3988L36.2962 24.6285L36.0773 25.011L36.1497 25.17L35.6831 25.3304L35.6332 25.4239L35.7306 25.494L35.6106 25.741L35.916 25.6319L36.163 25.688L36.7028 25.2907L36.7488 25.1466L36.5907 25.1684L36.5494 24.9253L36.4606 24.8864L36.5642 24.6612L37.4266 24.2078L37.954 24.2188L38.4004 24.3473L38.2407 24.6823L38.5445 25.0297L38.3482 25.3865L38.3256 25.6943L38.6536 25.755L38.5796 26.1095L38.7704 26.0339L39.1023 26.5465L39.1233 26.6907L38.9691 26.929L38.6995 27.0739L38.3996 27.0919L38.3568 27.6068L38.7065 27.948L38.98 28.0026L38.906 28.2417L38.9808 28.6235L39.1568 28.671L39.1397 28.7738L39.3033 28.7855L39.3508 28.953L39.5861 29.0784L39.3368 29.4383L39.417 29.7663L39.2059 29.9689L38.9847 29.9307L38.8031 30.1621L38.6333 30.1683L38.6325 30.3132L38.49 30.3568L38.2274 30.2088L37.7857 30.4355L37.6151 30.3677L37.4975 30.4776L37.3962 30.4339L37.2988 30.5087L37.2989 30.5097L37.3952 30.4358L37.4965 30.4794L37.6141 30.3696L37.7847 30.4374L37.9218 30.8503L38.1509 30.876L38.1727 31.3722L38.5365 31.6231L38.6876 31.6519L38.7694 31.5693L39.0499 31.7454L38.9767 31.9012L39.2228 32.3811L38.8543 32.4083L38.8715 32.6693L38.5084 33.0767L38.5817 33.2949L38.8092 33.5224L38.6292 33.5598L38.6121 33.8262L38.9587 34.197L38.9977 34.3964L39.5812 34.5515L39.878 34.8234L40.0837 34.7992L40.1304 34.9379L40.3478 34.9519L40.3672 34.8701L40.9749 34.7836L41.0341 34.6613L41.1868 34.6707L41.1299 34.8662L41.2857 35.0781L41.2561 35.2651L41.1182 35.3266L41.084 35.5705L40.8082 35.7154L40.7801 35.9202L40.5823 36.0246L40.6944 36.4282L40.2924 36.7125L40.0751 36.7414L40.0564 36.9034L39.9988 36.7678L39.9637 36.8621L39.7627 36.845L39.6552 37.0164L39.4869 37.0055L39.3732 37.2999L39.4487 37.455L39.3708 37.5001L39.2968 37.3708L39.1036 37.5298L39.0312 37.4589L38.859 37.4986L38.7757 37.6232L38.8395 37.6988L38.6284 38.0011L38.2989 38.0907L38.1563 38.0276L38.0636 38.3594L37.6055 38.6944L38.0021 38.7193L37.8985 38.8245L37.9499 39.0162L37.8229 39.0738L37.8392 39.1579L37.7551 39.2L37.5627 39.0621L37.3531 39.2312L36.9909 39.26L36.9247 39.5163L36.6341 39.3628L36.3521 39.3901L36.2336 39.609L36.25 39.7788L36.056 39.7695L36.1666 39.7017L36.1503 39.5475L35.8169 39.5521L35.753 39.4298L35.5146 39.4462L35.499 39.3473L35.3697 39.4454L35.5847 39.5973L35.4016 39.549L35.2988 39.6916L35.1983 39.6776L35.0838 39.5942L35.1329 39.3893L34.9981 39.3854L35.016 39.2849L34.7667 39.2639L34.7371 39.1042L34.5283 39.0746L34.4707 39.1922L34.2494 38.9515L34.131 39.0294L33.6176 38.9499L33.7275 38.7653L33.6316 38.6539L33.7212 38.5947L33.5117 38.3018L33.2507 38.4467L32.6734 38.4638L32.4148 38.019L32.2535 37.9886L32.1686 38.1094L32.2076 38.0003L32.1297 38.0463L32.0627 37.8881L32.1164 38.0844L31.9567 37.9995L32.0634 38.1242L31.8843 38.1943L32.0331 38.1841L31.9809 38.2371L32.1195 38.3259L32.2442 38.2176L31.984 38.4521L31.1613 38.308L31.0834 38.2176L31.1886 38.0338L31.0032 37.9006L30.0264 37.8649L30.0259 37.8676L29.7174 37.753L29.666 37.6494L29.7307 37.5489L29.627 37.4562L29.1908 37.4889L28.3899 38.134L28.1289 38.2096L27.6849 38.7237L27.7005 38.6466L27.6794 38.7183L27.1224 38.6271L27.1512 38.7206L26.6316 39.1428L26.3138 39.6562L26.1915 40.059L26.246 40.2639L26.1432 41.2042L26.2024 41.9209L26.5054 42.0261L26.4696 42.1733L26.6121 42.3806L26.3262 42.4211L26.179 42.2131L25.9406 42.2466L25.876 42.1733L25.7809 42.2863L25.5277 42.2754L25.3298 42.4803L25.1849 42.4273L24.9949 42.5122L24.9208 42.5925L24.9855 42.7927L24.6778 42.7155L24.5274 42.8269L24.3716 42.795L24.2127 42.5628L23.6432 42.3681L23.464 42.4655L23.3152 42.4312L23.0885 42.6984L22.8657 42.7599L22.6943 42.6111L22.5993 42.3026L22.4264 42.319L22.2394 42.1531L21.934 42.118L21.9644 41.8524L22.1202 41.7713L22.3874 41.7441L22.3899 41.7403L22.1246 41.7674L22.1433 41.7074L21.9275 41.6973L21.9594 41.5804L21.5177 41.5376L21.3604 41.4098L21.1321 41.4277L21.1251 41.5913L20.995 41.6412L20.734 41.1317L20.3281 41.0943L20.1302 41.1784L19.8389 40.8287L19.5304 40.8364L19.454 40.7523L19.3434 40.8248L18.6384 40.5061L18.4787 40.6043L18.5145 40.7539L18.4327 40.8497L18.5028 40.8832L18.4234 40.9728L18.5394 41.0974L18.5317 41.2525L18.2777 41.1886L17.7121 41.254L17.5103 41.1083L17.2976 41.3304L17.1855 41.1449L16.9159 41.0522L16.3394 41.2805L16.1626 41.2486L16.1244 41.1379L15.9834 41.1013L15.8284 40.785L15.7396 40.8333L15.3352 40.5591L15.2893 40.2607L15.4389 40.1875L15.417 39.8736L15.5051 39.7333L15.7661 39.6687L15.724 39.3937L15.8759 39.329L15.9686 39.1031L16.1291 39.1163L16.112 38.9132L16.1074 38.9121L16.1246 39.1154L15.9641 39.1022L15.8714 39.3281L15.7195 39.3927L15.7615 39.6677L15.5005 39.7324L15.4125 39.8726L15.4343 40.1866L15.2847 40.2598L15.3307 40.5582L15.0674 40.7802L14.9116 40.7958L14.7059 40.6556L14.5579 40.8729L14.1489 40.4024L13.9752 40.3502L13.9035 40.0355L13.2912 40.1001L12.7381 39.7885L12.6477 39.8594L12.5784 39.7394L12.368 39.6514L12.259 39.7028L12.1086 39.593L12.2325 39.3725L11.9956 39.4777L11.9645 39.769L11.6864 39.6911L11.5796 39.5057L11.7697 39.332L11.8749 39.0601L11.8539 38.7563L11.3802 38.5973L11.2906 38.6223L11.247 38.7929L11.1434 38.7828L11.092 38.5389L10.7523 38.5857L10.7258 38.4345L10.5661 38.3442L10.5606 38.2405L10.9525 38.1743L11.1699 37.9757L11.6669 37.0221L12.1507 34.5043L12.28 33.0054L12.4841 32.4858L13.0972 32.5894L13.0528 32.3954L12.8861 32.3167L13.0014 32.3152L12.5698 31.9552L12.3587 32.33L12.3127 32.6844L12.2636 32.6034L12.6017 28.7557L12.8035 28.3841L12.9118 28.3046L12.9803 28.4768L12.8557 28.4986L12.9375 28.5041L12.8939 28.5898L13.7422 29.3501L14.1115 30.5904L14.4192 30.8903L14.1816 30.3395L14.031 29.4382L14.0288 29.438L13.9003 28.9885L13.6915 28.6831L13.2054 28.3691L13.0324 28.0824L12.4435 27.7412L12.3554 27.7599L12.3928 27.8542L12.3453 27.7607L12.3406 27.3291L12.6756 27.2512L12.5292 27.0183L12.7348 26.9918L12.8642 26.7659L12.7824 26.5921L12.8533 26.5727L12.8361 26.4348L12.7193 26.3241L12.9382 26.3257L12.78 25.8972L12.6452 25.8435L12.6912 25.7484L12.5455 25.6978L12.6219 25.6082L12.438 25.6635L12.3375 25.5778L12.4583 25.3542L12.7496 25.1291L12.6748 24.9312L12.7291 24.8675L12.4519 24.8753L12.4387 25.0856L12.0842 24.7864L12.1496 24.9867L11.9946 24.7483L11.5926 24.7475L11.4415 24.46L11.0068 24.3845L10.4747 24.0347L10.3345 23.4893L10.04 23.078L9.41208 22.4929L9.38013 22.1751L9.51413 22.1634L9.4853 22.0832L9.7642 21.8004L9.77978 21.6095L9.94338 21.5153L9.5523 21.1078L9.07553 21.0229L9.33729 20.8538L9.32093 20.3997L9.19083 20.3716L8.90726 20.5492L8.66108 20.3334L8.47956 20.4285L8.11341 20.2774L8.23027 20.1901L8.23962 20.0491L8.06589 19.8777L8.39153 19.6432L8.39308 19.5278L8.39244 19.5285L8.27091 19.5192L8.25066 19.3182L8.44697 19.2886L8.22495 19.1647L7.23557 19.3463L6.92551 19.0268L6.75801 19.0261L6.67232 18.9006L6.62324 18.9637L6.5578 18.8407L6.57338 18.9598L6.23917 18.9497L6.22437 19.2162L6.38018 19.4312L6.21346 19.4101L6.11219 19.1421L6.201 19.0681L6.15426 18.8251L5.71254 18.395L5.47182 18.3919L5.45468 18.2727L5.17111 18.3444L4.93272 18.0188L4.44192 17.9596L4.28456 17.8209L3.87322 17.8894L3.72053 17.6791L3.78675 17.563L3.69326 17.6043L3.57797 17.3527L3.4393 17.4446L3.48604 17.5833L3.27024 17.6394L3.06224 17.5023L2.93058 17.5732L2.78568 17.863L2.2162 17.8637L2.24658 17.4236L2.04325 17.0644L1.75345 16.858L1.56492 16.8837L1.36003 16.745L1.02193 16.6952L1.11931 16.6734L1.09438 16.5721L2.05806 16.3672L2.41875 16.4529L2.54106 16.2566L2.38447 15.8982L1.90614 15.7284L1.7924 15.7611L1.59842 16.0603L1.55557 15.7494L1.64906 15.6785L1.39587 15.6528L1.37406 15.5305L1.56336 15.518L1.55791 15.2828L1.6849 15.2329L1.60933 15.4168L1.67555 15.5071L1.79162 15.3747L1.7815 15.5227L1.94587 15.4464L2.11882 15.5523L2.4133 15.4401L2.56365 15.5258L2.68986 15.363L2.60572 15.4331L2.31592 15.3568L2.42732 15.2812L2.33384 15.2368L2.37746 15.127L2.19984 15.3022L2.05884 15.31L2.12272 15.2243L1.92562 15.3007L2.11337 15.0257L2.03702 14.9649L1.44261 15.2438L1.20423 15.1612L1.11853 15.2773L0.907412 15.2874L0.850542 15.1324L0.943248 15.0304L0.834961 14.88L0.945585 14.6182L0.894168 14.3838L1.04608 14.1859L1.43249 14.0869L1.44729 13.9522L1.58362 13.9825L1.65295 13.7925L1.7924 13.8696L2.10869 13.7909L1.99417 13.7068L2.28709 13.5961L2.44913 13.6577L2.44991 13.8088L2.77555 13.72L2.68752 13.6865L2.80438 13.5486L3.08405 13.5073L3.21571 13.6008L3.23519 13.4559L3.38243 13.3507L3.40268 13.4279L3.5024 13.3515L3.49695 13.6117L3.62705 13.667L3.64652 13.491L3.65275 13.6117L3.90283 13.6779L3.874 13.5362L3.95035 13.4138L3.9854 13.4808L3.97606 13.3905L4.44036 13.5525L4.55644 13.505L4.50892 13.6865L4.62344 13.5525L4.75666 13.6304L4.7512 13.3648L4.86416 13.2635L4.74809 13.2043L4.80496 13.0181L4.7403 12.9643L4.84469 13.0352L5.00751 12.8015L5.04957 12.8942L5.08463 12.8101L5.15319 12.9176L5.25368 12.8919L5.21239 13.0033L5.35029 12.9932L5.60269 12.8062L5.78655 12.8257L5.91353 12.6621L5.92989 12.8358L6.36382 12.6597V12.8966L6.6022 12.8818L6.62713 12.9963L6.49937 13.0921L6.87097 13.2121L6.81722 13.3819L7.23167 13.734L7.21609 13.995L7.56588 14.1874L7.47941 14.3394L7.57055 14.3012L7.69598 14.5193L7.66793 14.3012L7.84633 14.3526L8.0816 13.9732L8.34336 13.8618L8.29506 13.752L8.461 13.7146L8.51709 13.8291L8.84507 13.5393L8.95803 13.6382L8.78508 13.8743L8.85987 13.9233L9.08813 13.7558L9.19408 14.0355L9.14967 14.2155L9.24082 13.9194L9.29535 14.0885L9.38806 13.8844L9.47219 13.9693L9.38338 13.8096L9.72149 13.7831L9.75576 13.974L9.88509 14.0581L9.82666 14.1111L9.96299 14.2466L9.92248 14.4835L9.9887 14.3339L10.0736 14.3627L9.9178 14.0519L10.0448 14.1197L10.0012 14.016L9.83367 13.981L9.88275 13.8984L9.76745 13.8041L9.90222 13.5658L10.3813 13.4248L10.4063 13.5852L10.3003 13.787L10.5925 13.9529L11.2578 13.8049L11.5273 14.5131L11.7447 14.6502L11.9628 14.6112L11.9641 14.6098L11.7487 14.6483L11.5313 14.5111L11.2618 13.803L11.4542 13.8731L11.4581 13.7874L11.5243 13.8599L11.7338 13.7617L11.9668 13.8131L11.779 13.6822L11.8608 13.602L11.663 13.7017L11.2695 13.253L11.2555 12.8868L11.1262 12.8214L11.3638 12.347L11.2929 12.301L11.3093 11.8827L11.4807 11.9123L11.2999 11.825L11.2423 12.012L11.1722 11.8242L11.1239 10.9385L11.275 10.9237L11.1231 10.8598L11.0833 10.9821L10.8231 10.3923L10.4913 10.1742L10.3674 9.52294L10.2389 9.37258L10.3916 9.18951L10.3659 8.88958L10.2794 8.75091L10.0464 8.67144L10.0885 8.41592L10.2428 8.51953L10.3565 8.46032L10.4453 8.59666L11.113 8.7548L11.0974 8.8701L11.1379 8.76026L11.5297 8.70494L11.5749 8.5616L12.248 8.5655L12.3649 9.01033L12.2807 8.98072L12.2239 9.18795L12.2254 9.11862L12.1421 9.1342L12.1047 9.30637L12.5666 10.0044L12.4537 10.3643L12.6056 10.2256L12.7318 10.3183L12.865 10.0909L13.2187 10.0535L13.898 10.2934L15.0666 10.3721L15.4382 10.5723L15.5543 10.531L15.6213 10.6315L16.3372 10.4134L16.7524 10.0348L17.0648 9.90311L16.7002 9.88753L17.2643 9.87896L17.2649 9.88123L17.2968 9.79332L17.2205 9.85253L16.7117 9.69594L16.5575 9.49807L16.8372 8.82342L16.7429 8.69799L16.845 8.74473L17.0125 8.48375L17.4324 8.31548L18.2402 7.76704L18.8416 7.67511L19.447 7.4188L19.6378 7.47412L19.8489 7.37907L19.8817 7.46788L19.8606 7.36972L20.2073 7.20457L20.7994 6.72546L21.03 6.69663L21.0417 6.8501L21.8815 7.6159L21.9531 7.97504L22.1196 8.23601L22.123 8.23614L21.9555 7.9736L21.8838 7.61446L21.044 6.84867L21.0323 6.6952L20.8017 6.72402L21.0417 6.50199L21.2699 6.00652L21.4187 5.95744L21.481 6.10702L21.7116 6.16856L21.8059 6.10001L21.3229 5.66686L21.3759 5.2267L21.6061 5.23837L21.3655 5.03087L21.4699 4.33285L21.6265 4.45983L21.4364 4.17548L21.392 3.37852L21.4053 3.30373L21.4349 3.42604L21.4933 3.3458L21.5572 2.98199L21.452 2.63765L21.7114 2.56131L21.9818 2.26293L22.3892 2.1305L22.2942 2.11258L23.1153 1.90068L23.1566 1.95365L23.3279 1.77759L23.2921 1.86952L23.3918 1.96456L23.4456 1.77759L23.4721 1.83758L23.952 1.6732L24.0416 1.73786L24.5713 1.52051L24.6274 1.69501ZM22.0037 8.23296L22.0022 8.2329L21.8074 8.5749L21.8628 8.64501L22.0092 8.5749L21.8339 8.82731L21.9111 8.9317L21.8453 9.13359H21.8472L21.9134 8.93026L21.8363 8.82587L22.0116 8.57346L21.8651 8.64358L21.8098 8.57346L22.0037 8.23296ZM21.8343 9.13503H21.8308L21.9999 9.3555L21.8994 9.52611L21.9882 9.59778L21.9893 9.59531L21.9017 9.52467L22.0022 9.35406L21.8343 9.13503ZM22.0372 9.48774L22.1354 9.52611L22.0762 9.69438L22.0451 9.71464L21.8885 10.0044L21.9718 10.013L21.9126 10.0738L22.0404 10.2093L22.077 10.5786L22.1791 10.6635L22.1318 10.8014L22.1331 10.8031L22.1814 10.6621L22.0793 10.5772L22.0427 10.2079L21.915 10.0723L21.9742 10.0116L21.8908 10.003L22.0474 9.7132L22.0786 9.69295L22.1378 9.52467L22.0381 9.48572L22.0372 9.48774ZM21.8751 10.712L21.8729 10.7126L21.8551 10.8745L21.9695 10.9111L21.929 11.056L21.9338 11.0559L21.9742 10.9114L21.8573 10.874L21.8751 10.712ZM21.1012 12.1317L21.1009 12.1343L21.2509 12.1225L21.2567 12.1187L21.1012 12.1317ZM21.2002 12.3078L21.2004 12.3087L21.399 12.5522L21.2002 12.3078ZM18.9231 15.9432L18.7312 15.9718L18.4585 15.6057L18.4574 15.6092L18.7279 15.9724L18.9211 15.9435L19.3023 16.2112L19.3045 16.2109L18.9231 15.9432ZM19.0948 16.2378L19.0932 16.238L19.0622 16.3802L19.0948 16.2378ZM18.9739 16.4011L18.9717 16.4016L19.0745 16.4242L19.0676 16.5304L19.0692 16.5303L19.0762 16.4236L18.9739 16.4011ZM18.9096 16.5433L18.9078 16.5434L18.9195 16.7047L19.0644 16.7405L18.9881 16.9508L19.086 17.1716L19.0887 17.1707L18.9905 16.9494L19.0668 16.7391L18.9212 16.7033L18.9096 16.5433ZM18.9803 17.2094L18.9779 17.2103L18.965 17.4157L18.9671 17.4192L18.9803 17.2094ZM18.8036 17.3604L18.8019 17.3614L18.8276 17.6909L18.5814 17.9254L18.6112 18.0018L18.6134 18.0012L18.5838 17.9233L18.83 17.6888L18.8036 17.3604ZM18.2387 18.2365L18.2371 18.2386L18.2698 18.3796L18.3446 18.357L18.3377 18.3665L18.3462 18.3548L18.2714 18.3774L18.2387 18.2365ZM17.8449 18.5865L17.8436 18.5868L17.7969 18.708L17.7978 18.7085L17.8449 18.5865ZM17.5834 18.5935L17.5827 18.5931L17.5219 18.7076L17.6464 18.9037L17.6482 18.9025L17.5236 18.7062L17.5834 18.5935ZM17.0961 18.7784L17.0942 18.7777L17.0981 18.8182L16.9696 19.0924L17.0732 19.1485L17.0584 19.2786L16.8363 19.7585L16.9314 19.8434L16.5917 20.3194L16.5184 20.872L16.5197 20.8726L16.5934 20.3172L16.9331 19.8412L16.838 19.7571L17.06 19.2764L17.0748 19.1471L16.9712 19.0903L17.0998 18.816L17.0961 18.7784ZM16.3195 20.8936L16.3167 20.8959L16.2238 21.2401L16.2257 21.2409L16.3195 20.8936ZM15.0591 21.222L15.057 21.2223L15.0222 21.335L15.0244 21.3344L15.0591 21.222ZM14.5436 21.3491L14.5397 21.3509L14.5808 21.4997L14.5843 21.4964L14.5436 21.3491ZM13.4572 21.7777L13.4428 21.7755L13.548 21.8347L13.5005 21.911L13.5986 21.9141L13.5612 21.9655L13.7287 22.0286L13.654 22.1993L13.8339 22.4111H13.8472L13.9757 22.4976H13.9983L14.0826 22.5525L14.0865 22.5489L14.0016 22.4936H13.979L13.8504 22.4071H13.8372L13.6572 22.1952L13.732 22.0246L13.5645 21.9615L13.6019 21.9101L13.5037 21.907L13.5513 21.8306L13.4572 21.7777ZM14.022 22.6098L14.0185 22.6129L14.0217 22.6324L14.0139 22.8077L14.219 23.0664L14.2228 23.0631L14.0171 22.8036L14.0249 22.6284L14.022 22.6098ZM14.148 23.1291L14.144 23.1325L14.2819 23.2401L14.2117 23.367L14.3504 23.4356L14.3084 23.6522L14.383 23.8516L14.3872 23.8499L14.3116 23.6481L14.3537 23.4316L14.215 23.363L14.2851 23.236L14.148 23.1291ZM14.2471 23.9083L14.2429 23.91L14.3699 24.217L14.2639 24.4857L14.3317 24.5153L14.3338 24.5108L14.2672 24.4817L14.3732 24.2129L14.2471 23.9083ZM14.3804 24.4116L14.5936 24.5461L14.5975 24.5425L14.3825 24.4069L14.3804 24.4116ZM13.6491 24.75L13.6485 24.7491L13.59 24.86L13.591 24.8603L13.6491 24.75ZM12.9319 24.712L12.9302 24.7124L12.8635 24.8604L12.8649 24.8603L12.9319 24.712ZM33.7192 18.7758L33.7916 18.8256L33.9419 18.6565L34.1227 19.0133L33.9417 18.6573L33.7913 18.8264L33.7189 18.7765L33.7192 18.7758ZM27.9875 15.7562L28.0467 15.5809L27.9119 15.5069L27.9439 15.4267L27.6735 15.1065L27.5528 15.0589L27.4289 15.1446L27.3837 14.9912L27.2591 14.9436L27.2232 15.0776L27.1298 15.0901L26.4987 15.0761L26.3788 15.1914L26.1972 15.1407L26.0939 15.4034L26.1974 15.1398L26.3789 15.1904L26.4989 15.0751L27.1299 15.0891L27.2234 15.0767L27.2592 14.9427L27.3836 14.9901L27.3837 14.9912L27.4289 15.1446L27.5528 15.0589L27.6735 15.1065L27.9439 15.4267L27.9119 15.5069L28.0467 15.5809L27.9875 15.7562ZM26.0587 15.8783L26.1971 15.6715L26.0586 15.8793L25.8421 15.993L25.8421 15.992L26.0587 15.8783ZM25.4612 16.2514L25.395 16.0637L25.2781 16.1377L25.1931 16.0735L25.1924 16.0723L25.2781 16.1377L25.395 16.0637L25.4612 16.2514ZM24.6198 16.1977L24.2459 16.2803L24.2465 16.2794L24.6198 16.1977ZM23.4669 15.2153L23.3967 15.3742L23.3013 15.3517L23.3009 15.3509L23.3967 15.3742L23.4669 15.2153ZM22.5134 5.47886L22.5148 5.47989L22.6383 5.38253L22.6369 5.38144L22.5134 5.47886ZM23.2948 6.08979L23.2954 6.09066L23.6837 5.8977L23.6824 5.89716L23.2948 6.08979ZM23.8673 5.97482L23.8704 5.97614L23.8868 5.85075L23.8842 5.84575L23.8673 5.97482ZM23.9715 6.00713L23.9724 6.00886L24.1258 5.86791L24.1234 5.86756L23.9715 6.00713ZM24.1654 6.60572L24.1672 6.60716L24.3689 6.35095L24.3656 6.35134L24.1654 6.60572ZM24.5357 6.47038L24.5372 6.47395L24.5991 6.33L24.5962 6.32953L24.5357 6.47038ZM25.0856 6.63707L25.0888 6.63833L25.1004 6.40846L25.0972 6.40821L25.0856 6.63707ZM25.231 6.82402L25.2306 6.82529L25.5849 6.65777L25.5848 6.65673L25.231 6.82402ZM25.6083 6.94014L25.6084 6.94215L25.7895 6.79977L25.7874 6.79929L25.6083 6.94014ZM25.9532 6.83578L25.9551 6.8362L26.0941 6.74892L26.092 6.74865L25.9532 6.83578ZM26.6065 6.98681L26.6071 6.98734L26.8831 6.88326L26.6065 6.98681ZM27.1113 6.96566L27.1143 6.96552L27.2239 6.86213L27.2216 6.86162L27.1113 6.96566ZM27.6339 6.95408L27.6362 6.95462L27.8061 6.77241L27.8043 6.77125L27.6339 6.95408ZM28.1923 6.7767L28.1783 6.89745L28.1816 6.89697L28.1956 6.77622L28.3581 6.69691L28.3567 6.69646L28.1923 6.7767ZM28.9189 6.99863L28.9193 6.9998L29.2221 6.8272L29.2222 6.82578L28.9189 6.99863ZM21.9588 11.0556L22.017 11.1511L22.0208 11.1499L21.9633 11.0555L21.9588 11.0556ZM22.1774 11.1038L22.433 11.2142L22.4368 11.2136L22.1798 11.103L22.1774 11.1038ZM23.074 10.9808L23.3624 11.2103L23.3652 11.2089L23.0765 10.9791L23.074 10.9808ZM23.5179 11.1336L23.5642 11.2711L23.568 11.2701L23.5213 11.1318L23.5179 11.1336ZM23.827 11.0998L23.967 11.2866L23.9697 11.2838L23.8291 11.0968L23.827 11.0998ZM24.0256 11.2298L24.2334 11.2936L24.2147 11.3575L24.2181 11.356L24.2373 11.2931L24.0269 11.2284L24.0256 11.2298ZM24.299 11.3217L24.4398 11.4347L24.3962 11.4907L24.5318 11.5227L24.5324 11.5215L24.3993 11.4902L24.443 11.4341L24.302 11.3204L24.299 11.3217ZM24.5985 11.404L24.6977 11.6208L24.7001 11.6187L24.6003 11.4006L24.5985 11.404ZM24.8588 11.4808L25.1846 11.7136L25.1861 11.7124L24.8605 11.4793L24.8588 11.4808ZM25.4261 11.5381L25.5656 11.6668L25.5678 11.6662L25.4277 11.5369L25.4261 11.5381ZM25.9442 11.5625L26.0049 11.6629L26.0061 11.6612L25.9465 11.5619L25.9442 11.5625ZM26.076 11.5627L26.2605 11.5936L26.2605 11.5926L26.0766 11.5619L26.076 11.5627ZM26.2736 11.4375L26.4926 11.4907L26.6609 11.7665L26.5853 11.9527L26.8564 12.1483L26.8993 12.3134L26.9022 12.3123L26.8595 12.1477L26.5877 11.9522L26.6632 11.766L26.495 11.4902L26.2737 11.4364L26.2736 11.4375ZM27.0296 12.2656L27.1073 12.4645L27.1098 12.4625L27.0325 12.2646L27.0296 12.2656ZM27.2325 12.3677L27.2818 12.6414L27.4843 12.6983L27.5342 12.8097L27.5374 12.8067L27.4882 12.6985L27.2857 12.6416L27.2358 12.3651L27.2325 12.3677ZM28.0592 11.2739L28.3242 11.3139L28.3256 11.3131L28.0592 11.2739ZM28.3051 10.9964L28.3047 10.9953L28.2528 11.0419L28.254 11.043L28.3051 10.9964ZM28.5615 10.2563L28.7978 10.3129L28.7979 10.3116L28.5633 10.2554L28.5615 10.2563ZM29.033 10.0068L29.1484 10.1516L29.3977 10.2365L29.3977 10.2341L29.1507 10.1502L29.0354 10.0053L29.033 10.0068ZM29.4145 8.85702L29.6516 8.88019L29.6519 8.8785L29.4156 8.85548L29.4145 8.85702ZM27.6183 12.925L27.3472 12.9507L27.3482 12.9514L27.6183 12.925ZM27.8512 13.8873L27.6643 13.9447L27.8521 13.8879L27.8512 13.8873ZM18.2788 21.8547L18.2808 21.8548L18.1831 21.6244L18.1803 21.6245L18.2788 21.8547ZM20.1544 24.5414L20.0882 24.5191L20.0871 24.5216L20.1527 24.5437L20.1544 24.5414ZM29.2924 24.8123L29.1073 24.8392L29.2947 24.8125L29.2924 24.8123ZM29.6128 25.413L29.8566 25.5291L29.9517 25.4333L30.0101 25.5112L30.102 25.4652L30.0872 25.6L30.1026 25.4646L30.0101 25.5112L29.9517 25.4333L29.8566 25.5291L29.6128 25.413ZM30.0961 25.6012L30.1698 25.6109L30.4845 25.473L30.1704 25.6103L30.0961 25.6012ZM31.1172 24.9698L31.2784 25.1022L31.2789 25.1009L31.1185 24.9691L31.1172 24.9698ZM31.4781 24.9124L31.5775 25.0406L31.4791 24.9123L31.4781 24.9124ZM33.1804 23.9796L33.2751 24.2016L33.2761 24.2018L33.1804 23.9796ZM33.5288 24.2568L33.4792 24.4112L33.7308 24.5553L33.6794 24.6114L33.8165 24.8903L33.8175 24.8876L33.6817 24.6115L33.7324 24.5554L33.4807 24.4113L33.5303 24.2571L33.5288 24.2568ZM33.8837 24.7194L33.924 24.8677L33.9263 24.8677L33.8851 24.7159L33.8837 24.7194ZM34.0479 24.867L34.0432 25.1061L34.0448 25.1059L34.0502 24.867L34.0479 24.867ZM34.5911 24.7329L34.6026 24.8272L34.8199 24.8965L34.8573 25.1224L34.8588 25.1224L34.8215 24.8966L34.6041 24.8273L34.5924 24.7314L34.5911 24.7329ZM33.8625 24.1129L33.8749 23.9937L33.6755 23.9127L33.6716 23.7139L33.6753 23.9135L33.8747 23.9945L33.8625 24.1129ZM33.9404 23.3596L33.7908 23.1375L33.7822 22.9334L33.6788 22.9272L33.6784 22.928L33.782 22.9343L33.7906 23.1384L33.9404 23.3596ZM33.7776 22.7363L33.5717 22.525L33.5709 22.5253L33.7776 22.7363ZM34.018 22.4063L34.0191 22.406L33.815 22.2744L33.8041 22.1614L33.5781 22.1848L33.4644 21.9386L33.3678 21.99L33.3367 21.7569L33.3675 21.9909L33.4641 21.9394L33.5779 22.1856L33.8038 22.1622L33.8147 22.2752L34.018 22.4063ZM33.5423 21.5925L33.5431 21.5919L33.4044 21.5265L33.4042 21.5273L33.5423 21.5925ZM33.9342 20.9687L33.9326 20.9445L33.9324 20.9454L33.9342 20.9687ZM34.1919 20.2175L34.1928 20.2169L34.0424 20.1538H34.0319L34.0313 20.1547H34.0422L34.1919 20.2175ZM34.1164 20.037L34.0791 19.7884L34.0666 19.7807L33.9326 19.79H33.9123L33.9334 19.5142L33.7022 19.4475L33.701 19.4481L33.9331 19.5151L33.9121 19.7908H33.9324L34.0663 19.7815L34.0788 19.7893L34.1164 20.037ZM33.8332 19.387L33.8344 19.3865L33.7683 19.3678L33.768 19.3686L33.8332 19.387ZM37.2038 30.6957L37.3179 30.6818L37.3181 30.6835L37.2028 30.6976L36.9239 30.6142L36.8218 30.3719L36.6948 30.4413L36.5387 30.3845L36.5392 30.3825L36.6958 30.4394L36.8228 30.3701L36.9249 30.6123L37.2038 30.6957ZM36.6873 31.5082L36.8943 31.5943L36.8943 31.5966L36.6863 31.5101L36.5437 31.6098L36.1768 31.5537L35.9259 31.7734L35.8005 31.6846L35.5817 31.8237L35.581 31.823L35.8015 31.6827L35.9269 31.7716L36.1778 31.5519L36.5447 31.608L36.6873 31.5082ZM35.3652 32.0886L35.5865 32.0247L35.6793 31.9304L35.5855 32.0266L35.3642 32.0905L35.1838 32.0314L35.1845 32.0294L35.3652 32.0886ZM35.063 32.5101L35.1941 32.3442L35.062 32.5119L34.9319 32.473L34.8664 32.5774L34.5895 32.52L34.5893 32.5179L34.8674 32.5755L34.9329 32.4711L35.063 32.5101ZM34.5426 33.2034L34.6542 33.1936L34.6561 33.1952L34.5419 33.2053L34.5426 33.2034ZM33.991 33.2073L34.4955 33.3327L34.4948 33.3346L33.9912 33.2095L33.991 33.2073ZM34.0525 33.5672L34.1189 33.4887L34.0516 33.5691L33.8659 33.5428L33.8656 33.5408L34.0525 33.5672ZM34.5916 34.6828L34.7301 34.573L34.7301 34.5741L34.5926 34.6831L34.5916 34.6828ZM34.5535 34.7771L34.7055 34.7957L34.7052 34.7977L34.5525 34.779L34.5797 34.701L34.4574 34.5951L34.2627 34.8592L33.983 34.9192L33.9199 34.7735L33.7501 34.7579L33.7563 34.5554L33.6605 34.4923L33.4758 34.525L33.3177 34.4159L33.2546 34.5063L33.0037 34.4128L33.0513 34.0389L32.9998 34.063L32.8627 34.2071L32.7054 34.0716L31.9263 34.4323L31.8282 34.0459L31.3827 33.9705L31.3828 33.9685L31.8292 34.044L31.9273 34.4304L32.7064 34.0697L32.8637 34.2053L33.0008 34.0612L33.0523 34.037L33.0047 34.411L33.2556 34.5044L33.3187 34.4141L33.4768 34.5231L33.6615 34.4904L33.7573 34.5535L33.7511 34.7561L33.9209 34.7716L33.984 34.9173L34.2637 34.8573L34.4584 34.5933L34.5807 34.6992L34.5535 34.7771ZM30.913 33.9069L31.3779 34.2358L31.3779 34.2383L31.3782 34.2394L30.9148 33.9116L30.7465 33.9357L30.6974 34.1842L30.5603 34.1515L30.5601 34.1472L30.6957 34.1796L30.7447 33.9311L30.913 33.9069ZM30.5469 33.8944L30.5471 33.8994L30.336 33.9357L30.1124 34.266L29.7003 33.9435L29.4354 34.023L29.435 34.0179L29.6985 33.9389L30.1106 34.2614L30.3342 33.9311L30.5469 33.8944ZM29.5006 33.6296L29.4992 33.6305L29.2414 33.3327L29.2405 33.329L29.5006 33.6296ZM29.1243 32.8825L29.1254 32.8867L28.9656 32.7804L28.9648 32.7764L29.1243 32.8825ZM28.8293 32.0985L28.83 32.1017L28.7475 32.0855L28.7709 31.9749L28.6626 32.0092L28.506 31.8448L28.4491 31.6749L28.2006 31.717L28.2216 31.5908L28.0814 31.4786L27.9651 31.5033L27.9653 31.5008L28.0829 31.4758L28.2231 31.588L28.2013 31.715L28.4498 31.6722L28.5075 31.842L28.6641 32.0064L28.7724 31.9721L28.749 32.0827L28.8293 32.0985ZM29.2778 31.7536L29.2246 31.6982L29.2242 31.6963L29.2787 31.753L29.2778 31.7536ZM30.6855 30.4308L30.6449 30.312L30.6483 30.3127L30.6881 30.4293L30.6855 30.4308ZM30.6863 29.6759L30.6889 29.6794L30.5283 29.7635L30.4265 29.69L30.5305 29.7609L30.6863 29.6759ZM30.3591 29.2467L30.3614 29.2499L30.1622 29.2961L30.1594 29.2929L30.3591 29.2467ZM30.0311 29.1509L30.0333 29.1533L29.8599 29.1371L29.7508 29.1777L29.7797 29.2649L29.5452 29.2953L29.5124 29.3981L29.3489 29.3366L29.3411 29.4347L29.3374 29.4277L29.3448 29.3347L29.5076 29.3955L29.5403 29.2927L29.7748 29.2623L29.746 29.1742L29.8543 29.1345L30.0311 29.1509ZM29.2311 29.2311L29.2317 29.2323L29.1144 29.2143L28.9734 29.4067L28.9722 29.4001L29.1095 29.2116L29.2311 29.2311ZM31.4562 34.4861L31.457 34.4888L31.5659 34.4942L31.5649 34.4915L31.4562 34.4861ZM31.6105 35.0884L31.6105 35.0903L31.8224 35.1607L31.8212 35.1583L31.6105 35.0884ZM30.6586 37.1337L30.6577 37.1353L30.8024 37.1855L30.8029 37.1839L30.6586 37.1337ZM30.3555 37.5264L30.2931 37.443L30.2935 37.4444L30.3555 37.5264ZM14.4177 29.4678L14.4167 29.4677L14.4425 29.3523L14.4431 29.3542L14.4177 29.4678ZM16.204 30.4828L16.2028 30.482L16.2257 30.2965L16.2271 30.2959L16.204 30.4828ZM16.3598 30.2351L16.3563 30.2367L16.2834 30.1835L16.3714 30.0106L16.285 30.1806L16.3598 30.2351ZM17.2074 29.5737L17.2054 29.5748L17.145 29.2448L17.2377 28.9791L17.1467 29.2418L17.2074 29.5737ZM17.3718 28.9318L17.3692 28.9326L17.3226 28.8311L17.3276 28.8355L17.3718 28.9318ZM17.7419 28.7059L17.797 28.5351L17.798 28.5344L17.7419 28.7059ZM17.9779 28.4044L17.9763 28.4055L17.9973 28.0334L17.9988 28.0333L17.9779 28.4044ZM20.4194 30.1759L20.4041 30.1784L20.4031 30.1775L20.4194 30.1759ZM21.0268 30.8453L20.9093 30.9154L20.9225 30.9691L21.0137 31.3189L20.9202 31.3462L21.0106 31.4911L20.7574 31.6531L20.7706 31.8011L20.5517 31.8697L20.6086 32.1229L20.311 32.3792L20.0671 32.4415L20.0866 32.5817L19.8958 32.7874L19.9269 32.8786L19.6394 33.0429L19.6354 33.0417L19.9224 32.8776L19.8912 32.7865L20.0821 32.5808L20.0626 32.4406L20.3065 32.3783L20.6033 32.1227L20.5464 31.8695L20.7653 31.801L20.7521 31.653L21.0053 31.4909L20.9149 31.346L21.0084 31.3188L20.9172 30.969L20.904 30.9152L21.0268 30.8453ZM22.172 31.2894L22.5148 31.0394L22.6433 31.1547L22.7656 31.055L23.0095 31.0472L23.1438 31.2982L23.1436 31.2994L23.0095 31.0472L22.7665 31.0556L22.6433 31.1547L22.5148 31.0394L22.172 31.2894ZM23.1054 31.5129L23.1056 31.5117L23.3658 31.8973L23.1054 31.5129ZM23.2301 32.3153L23.2305 32.3141L23.3245 32.3188L23.2301 32.3153ZM24.3762 32.5229L24.4269 32.3491L24.6232 32.2081L24.5897 32.057L24.7533 31.8817L24.7673 31.6371L25.195 31.2024L25.1962 31.2037L24.7679 31.6383L24.7546 31.8822L24.591 32.0582L24.6238 32.2094L24.4274 32.3504L24.3762 32.5229ZM25.3124 31.5924L25.3125 31.5907L25.5915 31.507L25.5919 31.5085L25.3124 31.5924ZM25.6856 31.8946L25.6853 31.8932L25.7886 31.8739L25.6856 31.8946ZM25.9871 32.5498L26.1719 32.2276L26.1945 31.8443L26.2794 31.6737L26.3651 31.6916L26.3799 31.5459H26.3986L26.4703 31.3738L26.6658 31.5607L26.8084 31.4462L26.8271 31.2281L26.9689 31.2678L27.2454 31.0481L27.388 31.2001L27.3935 31.3979L27.5913 31.8022L27.9484 31.7268L27.9482 31.7295L27.5906 31.8043L27.3927 31.4007L27.3873 31.2021L27.2447 31.0501L26.9689 31.2698L26.8272 31.2301L26.8085 31.4475L26.6651 31.562L26.4704 31.375L26.3987 31.5472H26.38L26.3652 31.6929L26.2795 31.6749L26.1946 31.8456L26.172 32.2288L25.9871 32.5498ZM27.1292 34.7459L27.2466 34.6973L27.2471 34.6992L27.1287 34.7482L27.1292 34.7459ZM26.8947 35.0388L27.0832 34.9724L27.0827 34.975L26.8963 35.0406L26.8947 35.0388ZM26.9025 35.9254L27.1543 35.9277L27.1536 35.9316L26.8998 35.9293L26.9025 35.9254ZM26.7365 36.2861L26.8479 36.2181L26.8482 36.2191L26.7321 36.29L26.2519 36.1973L26.252 36.1926L26.7365 36.2861ZM25.9972 36.7543L26.2383 36.8247L26.2382 36.8299L25.9928 36.7582L25.7939 36.8416L25.7947 36.8392L25.9972 36.7543ZM25.254 37.1757L25.7389 36.9963L25.7381 36.9989L25.2496 37.1797L25.1359 37.0433L24.8984 36.9765L24.8995 36.9716L25.1403 37.0394L25.254 37.1757ZM24.2085 37.9704L24.7765 37.9914L24.7721 37.9953L24.2041 37.9743L24.0896 38.0608L23.6429 37.8678L23.6468 37.8636L24.094 38.0568L24.2085 37.9704ZM23.3633 38.0561L23.503 38.1973L23.5022 38.2049L23.3589 38.06L23.0426 38.1519L22.9288 37.9751L22.7715 38.095L22.5611 38.0428L22.5441 38.0414L22.5468 38.0374L22.5655 38.0389L22.7759 38.0911L22.9332 37.9711L23.047 38.148L23.3633 38.0561ZM22.3349 37.9415L22.4712 38.1467L22.4676 38.1519L22.3313 37.9465L22.3349 37.9415ZM21.915 38.3895L22.2052 38.391L22.2059 38.395L21.9165 38.3934L21.915 38.3895ZM22.3334 39.2534L22.329 39.2529L22.3298 39.1958L22.334 39.2025L22.3334 39.2534ZM22.6793 40.0535L22.8305 40.0602L22.833 40.0645L22.6761 40.0575L22.6793 40.0535ZM22.4121 40.5459L22.7674 40.4674L22.7676 40.4703L22.4107 40.5491L22.4121 40.5459ZM22.8086 41.3849L23.343 41.3764L23.341 41.3803L22.807 41.3888L22.8086 41.3849ZM22.4939 41.5867L22.7271 41.579L22.7255 41.5828L22.4913 41.5905L22.4939 41.5867ZM19.998 24.7151L19.7369 24.6461L19.7362 24.648L19.9969 24.7175L19.998 24.7151ZM19.5955 25.0306L19.2648 24.992L19.2638 24.9935L19.5949 25.0322L19.5955 25.0306ZM19.1196 26.2467L19.1206 26.2478L19.2019 26.1853L19.2008 26.1844L19.1196 26.2467ZM19.1945 26.6946L18.9695 26.6529L18.9701 26.6556L19.193 26.6962L19.1945 26.6946ZM18.8737 27.3005L18.647 27.2426L18.6471 27.2455L18.8728 27.3031L18.8737 27.3005ZM22.8151 42.3182L22.6422 42.2723L22.7372 42.1445L22.8151 42.3182ZM16.1846 38.9306L16.1891 38.9317L16.2927 38.7019L16.1992 38.5648L16.4446 38.3661L16.3371 38.2508L16.3464 37.9267L16.3418 37.93L16.3326 38.2499L16.4401 38.3652L16.1947 38.5638L16.2882 38.701L16.1846 38.9306ZM16.1315 38.0752L16.1361 37.848L16.2896 37.8083L16.1345 37.471L16.1308 37.4719L16.285 37.8074L16.1316 37.8471L16.1269 38.0785L16.1315 38.0752ZM16.0464 37.4901L16.0372 37.3206L15.7762 37.2568L16.0326 37.3197L16.042 37.4911L16.0464 37.4901ZM15.5771 37.3153L15.5495 37.1703L15.545 37.1698L15.573 37.3166L15.5771 37.3153ZM15.4451 37.1582L15.4381 37.0488L15.5666 36.9966L15.5417 36.7628L15.7201 36.6289L15.6173 36.3126L15.724 36.3048L15.6749 36.0913L15.7466 36.0438L15.5744 35.9129L15.7684 35.7267L16.0387 35.775L16.2296 35.5269L16.2266 35.524L16.0342 35.7741L15.7639 35.7258L15.5699 35.912L15.742 36.0429L15.6704 36.0904L15.7195 36.3038L15.6127 36.3116L15.7156 36.6279L15.5372 36.7619L15.5621 36.9956L15.4335 37.0478L15.4406 37.1577L15.4451 37.1582ZM16.5359 35.917L16.5396 35.9192L16.595 35.8272L16.5287 35.627L16.7569 35.4482L16.7548 35.4453L16.5242 35.6261L16.5904 35.8263L16.5359 35.917ZM16.8523 35.5718L16.8552 35.5756L16.9689 35.3863L17.0937 35.3557L17.0913 35.3542L16.9644 35.3854L16.8523 35.5718ZM17.3173 35.493L17.321 35.4954L17.367 35.4112L17.7807 35.3232L17.8414 35.2009L18.1484 35.2048L18.2664 35.0937L18.2638 35.0909L18.1438 35.2038L17.8369 35.1999L17.7761 35.3223L17.3625 35.4103L17.3173 35.493ZM18.4951 35.3402L18.4974 35.3427L18.7443 35.1752L18.8012 34.9703L18.9352 34.9539L18.9065 34.8088L18.9018 34.8073L18.9307 34.953L18.7967 34.9693L18.7398 35.1742L18.4951 35.3402ZM19.1385 34.8833L19.1424 34.8846L19.246 34.8339L19.218 34.6672L19.1144 34.6267L19.2865 34.5971L19.4291 34.2216L19.1658 34.0611L19.253 33.7417L19.327 33.7292L19.3264 33.7276L19.2485 33.7408L19.1613 34.0602L19.4246 34.2207L19.282 34.5962L19.1098 34.6258L19.2135 34.6663L19.2415 34.833L19.1385 34.8833ZM19.3965 33.8979L19.3987 33.9038L19.433 33.8298L19.7875 33.8118L19.7688 33.5368L19.6465 33.4558L19.6449 33.1793L19.5307 33.0115L19.5259 33.0101L19.6404 33.1783L19.6419 33.4549L19.7642 33.5359L19.7829 33.8109L19.4285 33.8288L19.3965 33.8979ZM15.985 38.5289L16.0037 38.5414L16.0839 38.7377L15.9499 38.8338L16.0848 38.7376L16.0046 38.5412L15.9859 38.5288L15.985 38.5289ZM32.4799 33.5543L32.5026 33.5806L32.4833 33.559L32.4799 33.5543ZM32.475 33.5486L32.4765 33.5503L32.4436 33.5465L32.443 33.5448L32.475 33.5486ZM32.3307 33.5925L32.4293 33.5131L32.4282 33.5104L32.3285 33.5906L32.2756 33.6039L32.2506 33.6171L32.2226 33.667L32.1049 33.8796L32.1556 34.083L32.1567 34.0832L32.1063 33.8807L32.2239 33.668L32.252 33.6182L32.2769 33.6049L32.3307 33.5925ZM11.5794 17.8296L11.5786 17.8299L11.56 17.676L11.5609 17.6761L11.5794 17.8296ZM13.0549 16.8667L13.054 16.8671L12.8665 15.913L12.8532 15.9005L12.7808 15.5959L12.7815 15.5948L12.8539 15.8991L12.8671 15.9116L13.0549 16.8667ZM12.9622 15.2907L12.9615 15.2919L12.8454 14.8753L12.8813 14.4196L12.2887 14.2464L12.2909 14.2439L12.8853 14.4177L13.0953 14.5088L13.0938 14.5101L12.8819 14.4182L12.8461 14.8739L12.9622 15.2907ZM13.4015 14.4743L13.252 14.3748L13.2538 14.3733L13.4049 14.4738L13.6106 14.4605L13.7122 14.674L13.7093 14.6753L13.6072 14.461L13.4015 14.4743ZM13.883 14.7688L13.8226 14.627L13.8256 14.6257L13.886 14.7674L13.883 14.7688ZM14.112 14.6114L13.982 14.5872L13.9814 14.5859L14.113 14.6104L14.112 14.6114ZM14.2328 14.729L14.1943 14.5312L14.1972 14.5283L14.236 14.7276L14.2328 14.729ZM15.0562 14.4088L14.6931 14.4135L15.0596 14.4083L15.1985 14.5319L15.1972 14.5343L15.0562 14.4088ZM15.4621 14.4213L15.3033 14.3492L15.3042 14.3475L15.4632 14.4197L15.4621 14.4213ZM15.6701 14.1471L15.538 14.144L15.6735 14.1466L15.8737 14.3203L15.7825 14.4052L15.8698 14.6662L16.1806 14.6942L16.1798 15.0648L16.1765 15.0671L16.1773 14.6947L15.8664 14.6667L15.7792 14.4057L15.8703 14.3208L15.6701 14.1471ZM16.5294 15.0523L16.34 14.9572L16.3419 14.956L16.5299 15.0504L16.5294 15.0523ZM17.578 14.8241L17.3148 14.5516L17.318 14.5509L17.5813 14.8235L17.6133 15.3237L17.8928 15.4357L17.8919 15.4372L17.6099 15.3242L17.578 14.8241ZM18.0735 15.6787L17.9261 15.3839L17.928 15.3806L18.0768 15.6781L18.4081 15.7538L18.4077 15.755L18.0735 15.6787ZM18.6982 13.451L18.8455 13.3021L18.8448 13.2999L18.6961 13.4501L18.6982 13.451ZM18.3184 12.8381L18.4046 12.7303L18.4021 12.7303L18.3167 12.837L18.3184 12.8381ZM18.32 12.7264L18.3368 12.6158L18.3358 12.6161L18.3191 12.7264L18.32 12.7264ZM17.588 12.446L17.7938 11.938L17.7926 11.9372L17.5868 12.4451L17.588 12.446ZM17.5351 11.7548L17.7027 11.6443L17.7018 11.6421L17.533 11.7533L17.5351 11.7548ZM17.6414 11.4921L17.7463 11.3226L17.7446 11.3219L17.6405 11.49L17.6414 11.4921ZM17.5915 11.2574L17.6217 10.9806L17.6209 10.98L17.5907 11.2571L17.5915 11.2574ZM17.3842 10.7938L17.5866 10.7157V10.6105L17.586 10.7133L17.3819 10.792L17.3842 10.7938ZM17.3492 10.617L17.3919 10.556L17.3905 10.5546L17.3461 10.6183L17.3492 10.617ZM17.3022 10.4592L17.3965 10.341L17.3959 10.3387L17.3009 10.4578L17.3022 10.4592Z" fill="#B2C199"/>
<path d="M12.089 26.3646L11.7914 26.1146L11.8584 26.5524L12.2394 26.8905L12.3625 27.2668L12.5066 26.9879L12.3453 26.6677L12.3399 26.4122L12.089 26.3646Z" fill="#B2C199"/>
<path d="M11.5756 25.2483L11.4572 25.1392L11.2928 25.2047L11.384 25.3986L11.6161 25.3979L12.1093 25.6736L12.2962 25.5809L11.9262 25.3659L11.7322 25.401L11.6862 25.3433L11.7719 25.2662L11.4868 25.3877L11.4245 25.2701L11.5756 25.2483Z" fill="#B2C199"/>
<path d="M44.7235 46.0284L44.8178 45.8196L45.0383 45.797L45.1777 45.621L44.842 45.5064L44.743 45.5688L44.7212 45.3904L44.5015 45.4753L44.4937 45.3989L44.3457 45.3935L44.5779 45.2377L44.5179 45.1263L44.7111 45.0858L44.7493 44.9954L44.6433 44.9409L44.7648 44.9175L44.7329 44.7773L44.8124 44.7227L44.6347 44.5584L44.5405 44.6674L44.1806 44.729L44.2304 44.5506L44.1315 44.4197L44.3122 44.4049L44.3504 44.2148L44.6324 44.0535L44.4789 43.7817L44.3473 43.8331L44.1946 43.6843L44.0933 43.7131L44.1073 43.611L44.0177 43.6368L44.1338 43.5386L44.0286 43.5246L44.0933 43.3758L43.9609 43.2371L44.4618 43.1093L44.3504 42.9535L44.1696 42.9395L44.2039 42.7471L44.0029 42.8164L43.9764 42.6365L44.1844 42.5874L44.1735 42.4573L44.334 42.462L44.3122 42.3436L44.4143 42.2275L44.3138 42.1854L44.3714 42.0234L44.5451 41.9813L44.5 41.7881L44.5631 41.7219L44.5685 41.8239L44.6581 41.7795L44.7672 41.8574L44.81 41.644L45.0196 41.6183L45.2307 41.4508L45.4987 41.4741L45.6452 41.3861L45.6366 41.2319L45.8532 41.0776L46.1671 41.0613L46.4156 41.3183L46.5644 41.0581L46.5566 40.7995L46.4499 40.632L46.5496 40.4887L46.4904 40.3383L46.6174 40.2324L46.5488 39.9246L46.8176 39.8483L46.9485 39.9581L47.0435 40.7481L46.8916 41.3261L47.1721 41.8824L47.2562 43.421L47.2258 43.8206L46.7818 44.4711L46.7 45.8001L46.5574 45.8578L46.5979 45.924L46.4476 45.8734L46.3525 46.012L46.3813 46.104L46.4803 45.9747L46.6454 46.0206L46.5621 46.1725L46.3369 46.2956L46.3525 46.5807L46.1733 46.6742L46.1282 46.7997L46.3105 46.7358L46.291 46.7989L46.1663 47.0022L46.0331 47.0123L45.9591 46.8916L45.7534 46.8838L45.8415 46.6968L45.6779 46.6688L45.7083 46.5106L45.5789 46.6158L45.4465 46.4725L45.3974 46.5418L45.1933 46.4763L45.0507 46.3252L44.9425 46.3533L44.9783 46.2278L44.7633 46.1897L44.8186 46.1071L44.7235 46.0284Z" fill="#B2C199"/>
<path d="M5.83874 19.8152L5.93535 19.9313L6.13166 19.9266L6.18853 20.0926L6.44094 20.1642L6.39732 20.2967L5.86913 20.2188L5.78889 19.9835L5.83874 19.8152Z" fill="#B2C199"/>
<path d="M9.04437 21.5184L9.17213 21.608L9.12617 21.7677L9.36845 21.89L9.39182 22.1478L9.20251 21.8479L9.03034 21.8409L8.90492 21.6905L8.88311 21.5324L9.04437 21.5184Z" fill="#B2C199"/>
</svg>
