<svg width="48" height="48" viewBox="0 0 48 48" fill="none" xmlns="http://www.w3.org/2000/svg">
<mask id="path-1-inside-1" fill="white">
<path d="M35.6504 37.2939L35.5119 37.0158L35.4675 36.788L35.3273 36.6495L35.3059 36.5311H35.2568L35.2337 36.4649L34.9799 36.211L34.7526 36.0731L34.4739 35.979L34.4064 35.7713L34.2431 35.6115L34.0833 35.5393L34.1295 35.4517L34.1046 35.3334L33.9218 35.3351L33.8987 35.2659L33.7129 35.1274L33.7608 34.8949L33.6649 34.8505L33.6667 34.7582L33.7129 34.7108L33.691 34.5966L33.6188 34.5735L33.5975 34.412L33.4146 34.3658L33.3685 34.3197H33.2761L33.1821 34.2273L33.0897 34.2262L33.0915 34.0415H32.9992L32.9536 34.0895L32.8134 34.0433L32.7211 33.9492L32.5364 33.9954L32.4423 33.903L32.2317 33.8338L32.1825 33.7894L32.1612 33.6722L32.0689 33.674L31.9754 33.5817L31.8369 33.5355L31.7778 33.4894L31.6553 33.3941L31.4706 33.3953L31.4215 33.3509H31.3339L31.1925 33.2095L31.102 33.2124L30.9617 33.3509L30.8694 33.3497L30.8232 33.3977H30.3605L30.2681 33.4403L30.248 33.5142L30.016 33.7433L29.9734 33.8338L29.8379 34.0184L29.8391 34.1108L29.7237 34.2273L29.4704 34.3427L29.5178 34.5723L29.4669 34.6197L29.4704 34.712L29.4012 34.7812L29.1704 34.8718L28.7982 34.9197L28.8212 35.2659L28.7751 35.3132L28.778 35.4026L28.8242 35.4505V35.8192L28.778 35.8654L28.7751 36.05L28.7289 36.0944L28.6863 36.2773L28.3845 36.485L28.062 36.6264L27.8081 36.8341L27.7631 37.017L27.8093 37.0614L27.8111 37.2016L27.8543 37.249L27.8555 37.7105L27.9016 37.7549L27.8998 37.8952L27.9939 38.0798L27.9928 38.2165L28.088 38.358L28.0845 38.5408L28.1306 38.587L28.1324 38.7225L28.1756 38.7716L28.1768 38.9545L28.0833 39.1391L28.1786 39.2314V39.2788L28.4094 39.5545L28.4526 39.7865L28.6644 39.9942L28.707 39.9924L29.0751 40.2706L29.1704 40.3173L29.355 40.3138L29.4456 40.3629L29.6764 40.5937H29.8148L29.861 40.6399L30.1853 40.6387L30.5078 40.8257L30.7392 40.8245L30.8741 41.0091L31.2907 41.0062L31.3387 40.9624H31.7091L31.7523 40.915H31.8476L31.937 40.8245L32.0737 40.8227L32.124 40.7783H32.5838L32.6305 40.7304L32.8595 40.686L33.0442 40.5919L33.1838 40.457H33.23L33.3223 40.3617L33.5063 40.3156L33.688 40.1291L33.8265 40.083L33.9236 39.9954L34.0603 39.9498L34.2668 39.7403V39.648L34.4721 39.4403L34.6597 39.3468L34.7059 39.348L34.9355 39.1622L35.0752 39.164L35.2598 39.0728L35.3722 38.6319L35.4231 38.5887L35.4196 38.4935L35.606 38.2183V37.9407L35.6521 37.8934L35.6042 37.617L35.6521 37.5709L35.6504 37.2939ZM13.3918 40.5937L13.5332 40.7322H13.6244L13.7409 40.6156L13.7841 40.431L13.7167 40.3617L13.3474 40.4091L13.2533 40.3617L13.161 40.4079L13.1415 40.4783L13.2089 40.5475L13.3918 40.5937ZM15.5542 21.1739L15.4843 21.2431L15.508 21.2662H15.5571L15.5985 21.3141L15.6246 21.2893L15.6228 21.1999L15.5997 21.1739H15.5542ZM19.2001 22.5598L19.177 22.5811V22.6735L19.1983 22.6965H19.3368L19.3599 22.6746V22.6273L19.2889 22.5598H19.2001ZM16.5691 21.6828L16.475 21.4988L16.3625 21.5201V21.7041L16.4306 21.8183L16.8212 21.8L16.8223 21.7041L16.7531 21.6367L16.5691 21.6828ZM15.1003 40.5002L15.0772 40.5233V40.5706L15.0298 40.6168V40.6612L15.0529 40.6842H15.1446L15.1677 40.6629L15.1695 40.5233L15.1464 40.5002H15.1003ZM15.9246 21.2692L15.7844 21.1757L15.7151 21.197L15.7139 21.2413L15.8785 21.3567L15.9708 21.3585L16.04 21.2893L15.9708 21.2218L15.9246 21.2692ZM15.7169 20.965V20.9218L15.6909 20.8987H15.6015L15.5784 20.9236V20.9679L15.6015 20.9898L15.6938 20.991L15.7169 20.965ZM15.8796 22.9747H15.8305L15.811 22.996L15.8092 23.0439L15.8323 23.067H15.8785L15.9015 23.0439L15.8986 22.996L15.8796 22.9747ZM17.0283 21.3585H16.9857L16.959 21.3846V21.4757L16.9857 21.4988H17.078L17.1005 21.4739L17.0981 21.4295L17.0283 21.3585ZM18.4154 14.2081L18.4385 14.1868L18.4154 14.1637H18.3237L18.2971 14.185L18.3237 14.2063L18.4154 14.2081ZM40.3284 23.9896L40.142 23.9884L40.0514 24.0819H39.5886L39.5419 24.0375L39.3129 24.034L39.1975 24.1032L39.1963 24.2434L39.3596 24.3588L39.4975 24.3606L39.681 24.4512L39.8224 24.4494L39.8656 24.405L40.0485 24.4032L40.0958 24.3588H40.4633L40.5325 24.286L40.5337 24.1973L40.3515 24.057L40.3284 23.9896ZM46.2361 14.991L46.2101 14.8768L46.0698 14.7389L46.1621 14.6921V14.6004L46.0947 14.5324L46.0254 14.5093L45.9775 14.3217L45.8627 14.3016L45.8177 14.2542L45.7715 14.3004H45.6331L45.5857 14.3465L45.4484 14.3448L45.3549 14.5324L45.2644 14.5785L45.0318 14.5773L44.9377 14.6235L44.8028 14.7614L44.6643 14.7631L44.6164 14.8998L44.4318 14.8566L44.2459 15.0845L44.066 15.0863L43.8802 15.2709L43.6956 15.2691L43.5092 15.4999L43.3713 15.5011L43.2346 15.6396H43.1855L43.0482 15.778L42.8641 15.8721L42.7712 15.8704L42.6328 15.9609L42.4943 15.9645L42.4487 15.9148L42.3102 15.9177L42.1487 16.0781L42.1037 16.2609L42.0333 16.3302L41.7119 16.332L41.6646 16.3781L41.3894 16.3763L41.2723 16.5361L41.2273 16.6764L41.0628 16.7456L40.9953 16.8622L40.9491 16.9083L40.9953 16.9527V17.2297L40.9048 17.3682V17.4605L41.0184 17.5759L41.1107 17.5771L41.2942 17.3469L41.3894 17.3451L41.4326 17.3007H41.7581L41.8936 17.1622L42.0794 17.0681L42.1718 16.9776L42.3564 16.9314L42.4026 16.8835H42.8174L42.8641 16.8373L43.002 16.8391L43.0482 16.7912L43.1867 16.7929L43.2328 16.7456L43.4175 16.7468L43.4636 16.6989L43.6015 16.7006L43.6482 16.6533L43.7861 16.6545L43.8802 16.6083L44.1128 16.3793H44.1536L44.4335 16.1473H44.4797L44.5998 16.0242L44.6614 15.9609L44.8016 15.9148L44.8933 15.8242L45.0318 15.778L45.2644 15.5922H45.6331L45.7224 15.5011L45.7715 15.5461L45.8609 15.5478L46.0012 15.3614H46.0929L46.2361 15.2673L46.2805 15.3135L46.3977 15.2413V15.1969L46.2361 14.991ZM40.6018 23.6653L40.5124 23.7588L40.3254 23.757L40.2822 23.8049L40.1899 23.8032L40.1189 23.873L40.1881 23.9405L40.4189 23.9434L40.4663 23.9884H40.5586L40.6018 23.8973L40.6728 23.8754L40.7189 23.7357L40.6509 23.6653H40.6018ZM17.3543 14.3016L17.3774 14.2773L17.307 14.1619L17.0531 14.185L17.1206 14.3004L17.3543 14.3016ZM15.3003 25.2577V25.3057L15.3234 25.327L15.3695 25.3258L15.3926 25.3027V25.2577L15.3695 25.2335L15.3234 25.2317L15.3003 25.2577ZM14.6097 23.5499L14.6079 23.5972L14.6771 23.6653L14.747 23.596L14.6789 23.528H14.6328L14.6097 23.5499ZM16.4537 17.3682V17.2788L16.4318 17.2528H16.2933L16.2708 17.2776L16.269 17.3693L16.2921 17.393H16.4306L16.4537 17.3682ZM18.2574 14.2063L18.2308 14.2098L18.1604 14.2785L18.2296 14.3465H18.2757L18.2988 14.3246L18.2959 14.2483L18.2574 14.2063ZM36.7262 19.9744L36.7055 19.8607L36.6374 19.7903L36.4528 19.7915L36.0841 19.5145L35.8533 19.5163L35.7581 19.5595L35.529 19.3731L35.4367 19.3761L35.3444 19.5145L35.1598 19.5134L35.1136 19.4684H35.0213L34.9308 19.3749L34.8379 19.3778L34.7444 19.2843L34.5597 19.2382L34.3786 19.0524L34.2372 19.0547L34.191 19.0074L33.9602 18.9595L33.9159 18.9151L33.7774 18.9133L33.7283 18.8689L33.4069 18.7748L33.2667 18.592L33.13 18.5428L33.0164 18.4274L32.9471 18.3138L32.8749 18.2907L32.8761 18.1984L32.7844 18.1523L32.7826 17.9694L32.6921 17.7836L32.5536 17.5066L32.321 17.2758L32.2766 17.1835L32.2778 17.0468L32.1612 16.7912H32.1151L32.0245 16.7006L31.7937 16.6989L31.7233 16.632V16.4929L31.6091 16.4255L31.4233 16.332L31.331 16.2379H31.2387L31.099 16.055L30.8694 16.0532L30.6865 15.8224L30.3605 15.8242L30.2238 15.7301L30.1314 15.7337L30.0178 15.6627L30.0604 15.6183L30.0391 15.4555L29.8545 15.4538L29.7148 15.549L29.5781 15.5478L29.5545 15.4768L29.3953 15.3614L29.3029 15.3644L29.2532 15.2721L28.7011 15.2709L28.6549 15.2259L28.5171 15.2247L28.4727 15.1768H28.1957L28.146 15.1324H28.0573L28.0111 15.1756L27.962 15.1306L27.8235 15.1336L27.7803 15.1768L27.5927 15.178L27.5726 15.246L27.5033 15.2709L27.3175 15.0401L26.7654 15.0863L26.5778 14.9922H26.3932L26.3488 14.946L26.1411 14.9229L26.0736 14.8081L25.9351 14.8543L25.889 14.8063L25.7931 14.8093L25.6108 14.7158L25.4014 14.5081L25.3599 14.3714L25.128 14.1406L25.08 14.0003L24.9433 13.8625V13.8175L24.7113 13.5867L24.7125 13.4914L24.6172 13.3547L24.48 13.2162L24.3421 12.9393L24.2498 12.8949V12.8026L24.1592 12.6659L24.1574 12.5256L24.1113 12.4765L24.0178 12.3398L24.0651 11.7398L24.1113 11.6954V11.3231L24.0651 11.2788L24.0669 11.1864L24.2509 11.048L24.3433 10.7254L24.2486 10.6361L24.4344 10.4946L24.4356 10.313L24.4788 10.2656L24.4356 10.2177L24.4344 10.078L24.3882 10.0331V9.66438L24.2971 9.52768L24.2959 9.24718L24.1592 9.01816L24.1344 8.90336H24.042L23.9728 8.8353L24.0178 8.65244L23.8811 8.46603L23.8793 8.28199L23.7888 8.09736V7.68015L23.6716 7.56535L23.513 7.54227L23.4899 7.47599L23.3716 7.44995L23.3733 7.36059L23.3041 7.29017L23.1674 7.24401L23.0733 7.29135L22.9828 7.24223L22.8644 7.12684L22.8656 7.0363L22.7739 6.9428L22.7058 6.82858L22.5182 6.78242L22.4277 6.5966L22.243 6.55163L22.1057 6.41375L22.0111 6.45813L21.943 6.34273L21.8738 5.90304L21.6891 5.86102L21.5968 5.95216L21.4128 5.95038L21.3666 5.906L21.0897 5.90422L21.0453 5.81191L20.9991 5.81072L20.905 5.906L20.8376 5.7906L20.9269 5.65213L20.8595 5.5817L20.6973 5.51365L20.7914 5.28167L20.7902 5.19113L20.7204 5.12012L20.605 5.18936L20.5837 5.25859L20.2576 5.30653L20.1458 5.42015L20.0978 5.60478L19.912 5.83854L19.9138 6.01962L19.7505 6.13502H19.7084L19.5457 6.29657L19.4753 6.41375L19.383 6.41197L19.0628 6.59779L18.9196 6.64395L18.7847 6.78242H18.6462L18.5539 6.82858L18.4829 6.89782V6.99014L18.3468 7.22211L18.2296 7.38249L18.1373 7.42687L17.9065 7.42865L17.7224 7.51919L17.6053 7.63577L17.5621 7.81922L17.3532 8.02812L17.2147 8.02634L16.8934 8.35064L16.8241 8.37372L16.73 8.92644L16.6365 9.06432L16.4537 9.34246L16.5229 9.41051L16.6383 9.43655L16.6845 9.75789L16.73 9.80227V9.89459L16.8673 10.0319L16.8691 10.3112L16.8212 10.3562L16.8241 10.4964L16.8703 10.5438L16.8691 10.6331L17.0549 10.8621L17.0531 11.0018L17.0993 11.0497L17.1437 11.2788L17.1928 11.3279L17.1916 11.4634L17.2851 11.6942L17.3993 11.8096H17.4916L17.6757 11.9031L17.7668 11.9954L17.8591 11.9924L17.9083 12.0416H18.0929L18.2296 12.2244L18.3911 12.2031V12.1108L18.3006 12.0185L18.3237 11.9966L18.3698 11.9936L18.4829 12.109L18.577 12.3416L18.6906 12.4564H18.7829L18.8983 12.5724L18.9462 12.7091L19.038 12.8026L18.9445 12.8487V13.2654L18.8752 13.379L18.7143 13.447L18.7125 13.5394L18.9001 13.6329L18.8521 13.8654L18.7829 13.8867L18.7586 13.953L18.877 14.0234L18.9693 14.0252L18.9924 14.0944L18.6 14.1619L18.5065 14.256L18.345 14.2773L18.3681 14.3957L18.4817 14.4187L18.4124 14.485L18.3237 14.4832L18.274 14.5785H17.7668L17.584 14.485L17.5378 14.3927H17.4916L17.4224 14.4649V14.5543L17.1668 14.7614L17.0981 14.7862L17.1928 14.8756L17.1685 14.9016L16.8223 15.1093V15.4768L16.8691 15.5212L16.8703 15.7982L16.7768 15.8934L16.7797 16.0763L16.8212 16.1225L16.8223 16.3533L16.6845 16.4456L16.6856 16.6332L16.4767 16.8409L16.3383 16.9285L16.3164 16.8148L16.2477 16.7912L16.1306 16.9527V17.0486L16.2477 17.2084L16.501 17.2315L16.5028 17.4605L16.4318 17.5297H16.3832L16.3383 17.4404L16.1075 17.4386L15.9477 17.6481L15.9938 17.7374L15.9921 17.9676L15.9459 18.0156L16.0371 18.1079L15.9672 18.1753L15.8554 18.1079L15.8536 17.9712L15.7382 17.8558H15.6938L15.5524 17.7138L15.4139 17.7617L15.3677 17.8528L15.2985 17.8309L15.231 17.7155L14.9991 17.8061L14.8837 17.8783L14.8636 17.9925L14.676 17.9907L14.5848 17.8096L14.4469 17.8078L14.3546 17.8558L14.2854 17.9215L14.2883 17.9694L14.3759 18.0138L14.3789 18.154L14.2854 18.2464V18.2937L14.1008 18.4292L14.0996 18.6168L13.9871 18.6825L13.8487 18.6843L13.7563 18.7766L13.5261 18.8227L13.4764 18.7766H13.3379L13.2273 18.6612L13.2243 18.6139L13.409 18.4783L13.4101 18.2907L13.361 18.2464L13.3628 18.1061L13.409 18.0138L13.2936 17.9907L13.2243 18.0599V18.1523L13.1302 18.2475L13.0841 18.3369L13.0876 18.4772L12.9261 18.4967L12.9012 18.615L12.832 18.6843L12.7397 18.7304L12.5095 18.7287L12.4876 18.5677L12.6272 18.3848L12.626 18.1523L12.4189 18.1292L12.3728 18.1753H12.1881L12.0496 18.2694L11.8621 18.2677L11.7922 18.2002L11.7946 18.0138L11.9556 17.9002H12.0017L12.2112 17.6925V17.6001L12.1171 17.4617L12.1863 17.4374L12.3 17.6001L12.3029 17.6925L12.2574 17.7848L12.1171 17.8753V17.9232L12.1863 17.9937L12.4633 17.9475L12.4864 17.8753L12.5781 17.8309V17.7386L12.6722 17.5528L12.6704 17.3682L12.9953 17.093L12.9462 17.045L13.0148 17.0237L13.0645 17.0681L13.1799 16.9545V16.9066L13.0628 16.7438L12.9705 16.6989L12.7414 16.7006L12.6935 16.7486H12.603L12.5556 16.7912L12.3266 16.7929L12.2787 16.8373L12.142 16.8409L12.094 16.8835L11.865 16.8853L11.6786 16.7006L11.4484 16.7024L11.3111 16.513L11.2188 16.4687L10.8933 16.4698L10.8022 16.4255L10.7797 16.3071L10.9655 16.1686V16.0793L10.8483 15.9609L10.7105 15.9645L10.6643 15.9148H10.572L10.5276 15.8224H10.4335L10.3891 15.7763L10.1583 15.8674L9.83521 15.8686L9.69674 15.9597L9.6275 15.9378L9.67366 15.8934L9.64762 15.8224L9.50914 15.8704L9.46594 15.9609L9.27894 15.9165L9.21089 15.8455V15.6615L8.81854 15.3153L8.70314 15.3413L8.74812 15.523L8.68184 15.5922L8.54336 15.5905L8.47294 15.4768V15.3875L8.35872 15.2721L8.17113 15.178L8.03443 15.0413L7.80364 15.0401L7.75748 14.9922L7.66575 15.0383L7.57462 14.946L7.25151 14.9478L7.20239 14.9034L6.97515 14.9016L6.85797 14.7862L6.81359 14.6022L6.85975 14.5543L6.81359 14.4619L6.69642 14.3945L6.65026 14.3016L6.53546 14.2785V14.2311L6.62896 14.1879L6.56031 14.1175L6.46799 14.1157L6.16619 13.8636L6.09872 13.7453L6.00641 13.7926L5.86793 13.7914L5.82177 13.7471L5.68329 13.75L5.54363 13.6086H5.45132L5.31284 13.5192L5.15129 13.6317L5.1069 13.7713L4.99151 13.9329L4.80391 13.9311L4.76071 13.8867H4.29617L4.15769 13.979L4.01981 13.9773L3.93045 14.0731L3.74581 14.1607L3.44578 14.2311V14.3235L3.30612 14.4631L3.35228 14.5081L3.35524 14.6478L3.28422 14.717L2.96171 14.8555L2.75222 15.0602L2.75103 15.3401L2.84631 15.4325L2.79837 15.7088L2.72973 15.778L2.31252 15.9627L2.0622 16.0763L2.01604 16.1716L2.01427 16.3515L2.26637 16.516L2.38472 16.5397V16.6793L2.13144 16.7468L2.01427 16.861L1.96811 16.9527L1.96988 17.2297L1.92077 17.2758L1.92254 17.4161L1.96811 17.4605L1.96693 17.7848L1.87757 17.9215L1.87579 18.0617L1.92254 18.1061L1.92077 18.1984L1.76217 18.3618L1.59766 18.4274L1.59943 18.615L1.69116 18.7044L1.68997 18.8441L1.78347 19.0287L1.73732 19.0766L1.73613 19.3056L1.92254 19.6749L1.92077 19.8116L2.01308 19.9513L2.01427 20.1359L2.17405 20.2992L2.24388 20.3223L2.24625 20.4146L2.33856 20.459L2.36046 20.5294L2.56758 20.6448L2.66167 20.8739L2.82145 21.0372H2.86761L2.93863 21.1526L2.93685 21.5201L3.0771 21.7509L3.03094 21.8461L3.02917 22.1213L2.89247 22.3503L2.89069 22.4888L2.79837 22.6285L2.80015 22.8575L3.07533 23.1836L2.98478 23.4114V23.5037L3.02917 23.5517L3.03094 23.9203L3.10018 23.9896L3.3292 24.0328L3.39844 24.1061L3.35524 24.1955L3.44578 24.3831L3.4446 24.6121L3.39844 24.6601V25.1642L3.44756 25.2122L3.44578 25.3489L3.35228 25.5365L3.25996 25.627L3.25878 25.8117L3.21558 25.859L3.28422 25.9271L3.37713 25.975L3.51383 25.9714L3.71977 26.2271L3.72096 26.504L3.53691 26.6419L3.5381 27.5201L3.58307 27.5645V27.7965L3.48898 27.8876L3.5381 27.932L3.56118 28.003L3.63042 28.0243L3.58307 28.2089L3.67539 28.2563L3.63042 28.5782L3.69788 28.6486L3.95175 28.6717L3.8115 28.812V28.9025L3.86121 28.9487L3.85766 29.4085L3.81505 29.4558V30.008L3.76593 30.0559L3.81505 30.1003L3.81327 30.2405L3.85943 30.2849L3.81327 30.3323L3.8115 30.4695L3.99791 30.7477L4.04288 30.8879L4.11508 30.9092L4.64413 31.4365V31.5318L4.73763 31.6703L4.82995 31.7146L4.96547 31.9922L4.96665 32.2685L5.01281 32.3165V32.4088L5.05778 32.4561L5.05956 32.8219L5.10513 32.8698L5.15306 33.1467L5.44954 33.4912H5.49866L5.63536 33.6326H5.68211L5.84189 33.8338L6.31236 34.3416L6.56445 34.5061L6.65855 34.5031L6.86448 34.6658V34.7108L6.9568 34.7552L7.09646 34.989L7.09469 35.0807L7.187 35.2209L7.18878 35.4026L7.28287 35.5867L7.23316 36.0021L7.14084 36.1867L7.2811 36.279V36.4187L7.39531 36.5341L7.44088 36.4867L7.76517 36.6246L7.85749 36.6264L8.04212 36.5341L8.17882 36.5329L8.22498 36.4879L8.40962 36.4867L8.45578 36.4424L8.73569 36.4406L8.91736 36.3495L8.96293 36.3021L9.05406 36.3039L9.22035 36.1423L9.26296 35.9577L9.47245 35.75L9.6565 35.7026L9.70265 35.6559H9.79497L9.88551 35.7932L10.0228 35.8423L10.2548 35.5642L10.3939 35.5192L10.5779 35.3778L10.7164 35.3795L10.7608 35.4269L11.133 35.4257L11.3158 35.5192L11.4082 35.473L11.5928 35.4701L11.6851 35.2872H11.7774L11.8236 35.2428H12.1911L12.2615 35.1736V35.0333L12.171 34.8966L12.4248 34.7795L12.4941 34.7108V34.2936L12.6059 34.1321L12.7012 34.1338L12.8829 34.0433L13.0474 33.9261L13.0876 33.8338L13.0841 33.7001L13.2012 33.5829L13.2936 33.5847L13.4782 33.3545L13.6622 33.2633L13.7084 33.1681L13.893 33.1249L13.9179 33.0065L13.9871 32.9379L14.0789 32.939L14.2144 32.8467L14.2836 32.6852L14.4469 32.5236L14.6771 32.478L14.8618 32.2437L14.9316 32.2224L14.979 32.1301L14.976 31.9946L15.208 31.7608L15.2097 31.4844L15.2559 31.4365L15.2541 31.2554L15.4399 31.0246V30.9767L15.6246 30.8382L15.7151 30.6554L15.6707 30.4263L15.4843 30.2376L15.3938 30.0559L15.3926 29.7789L15.4388 29.7328L15.4399 29.5487L15.4861 29.5008L15.4843 29.3162L15.4388 29.2718V28.8072L15.4861 28.764L15.4843 28.3474L15.3908 28.2107L15.3464 27.9338L15.2559 27.8397L15.3015 27.7018L15.231 27.5864L14.979 27.471L14.8849 27.2881L14.8837 26.965L14.9346 26.9171L14.9316 26.8248L15.0464 26.7112L15.1387 26.7082L15.3938 26.504L15.3926 26.2715L15.3464 26.2235L15.279 26.1099L15.0482 26.1111L14.9097 26.0176L14.7239 25.9714L14.6097 25.8566L14.4694 25.5797L14.5617 25.5317L14.5635 25.3489L14.6529 25.2566V25.1642L14.5848 25.0506L14.3096 25.0033L14.2404 24.937L14.2392 24.7044L14.1481 24.6121L14.1457 24.5198L14.1019 24.4725L14.1008 24.2434L14.3067 24.034L14.3759 24.0126L14.3777 23.7357L14.2605 23.6203H14.1221L14.0067 23.5528L14.0084 23.4576L13.8688 23.2759L13.8244 22.9989L13.7794 22.9072L13.8256 22.8593L13.8226 22.7226L13.8705 22.6273L14.0315 22.4669H14.0777L14.1943 22.3054L14.1913 22.2136L13.9623 22.0272L13.9641 21.8876L14.1019 21.8L14.0534 21.7521L14.0546 21.6597L13.9854 21.6367L13.9623 21.5662L13.9167 21.5219L13.9149 21.2911L13.9623 21.2461V21.1508L14.0558 20.9662L14.0534 20.8756L14.1019 20.8277L14.1469 20.6437L14.2623 20.5265L14.5375 20.6679L14.6316 20.6218H14.7712L14.8138 20.5744L14.9529 20.5756L15.0926 20.762L15.2772 20.8514L15.3464 20.8295V20.7372L15.3003 20.6928L15.3234 20.6679L15.5542 20.6697L15.6488 20.8064L15.74 20.8514L16.1323 20.8277V20.7833L16.0371 20.736L15.9459 20.5543L15.9495 20.2744L16.0844 20.1838L15.9938 19.9548L15.8536 19.8134V19.7211L15.969 19.6992L16.0152 19.7436L16.1075 19.7453L16.3844 20.0241L16.4537 20.0471L16.475 20.1128H16.572L16.6395 20.1838L16.6383 20.3205L16.5921 20.4158L16.7549 20.6206L16.8703 20.6466L16.8223 20.7821L16.8691 20.8277L16.872 20.9236L16.9626 20.9679L16.9821 21.0372L17.0549 21.0603L16.9395 21.0816L16.9152 21.1508L17.1241 21.3153L17.236 21.3354L17.1928 21.3834L17.1916 21.5183L17.3283 21.7077L17.3514 21.7734L17.5378 21.8675L17.7236 21.729L17.9526 21.7278L18.0467 21.6846L18.139 21.6367L18.2988 21.7521L18.3219 22.1906L18.5509 22.2338L18.6 22.2811L18.7847 22.2829L18.8308 22.3273L19.5244 22.3255L19.612 22.4196L19.7978 22.5131L20.1671 22.5598L20.2612 22.6533L20.3529 22.6977L20.5381 22.6965L20.5819 22.7439L20.8127 22.7427L20.9973 22.6042L21.0897 22.5563L21.5512 22.561L21.5968 22.5131H21.6891L21.8738 22.4196L22.0602 22.1444L22.1489 22.0982L22.4294 22.0965L22.4756 22.0521H22.752L22.8425 22.1444L22.9348 22.1414L22.981 22.0982L23.0271 22.1426L23.1656 22.0521L23.3041 22.0491L23.3964 21.9615L23.7189 21.9598L23.7651 21.9118L23.9497 21.8213L24.1361 21.5875L24.3172 21.497L24.3663 21.4988L24.5036 21.6355L24.5959 21.6846L24.6646 21.6586L24.6634 21.4757L24.78 21.3141H25.1481L25.1972 21.3585L25.5641 21.3615L25.6321 21.1999L25.8671 21.0585L25.8641 20.9691L26.0275 20.8046L26.118 20.8064L26.3044 20.7158L26.3967 20.6679L26.5346 20.6697L26.5808 20.6218L27.0406 20.6188L27.2252 20.5283L27.3637 20.5294L27.5495 20.391L27.688 20.3927L27.7312 20.2975L28.3324 20.2992L28.3786 20.3436L28.4709 20.3448L28.5632 20.2051L28.7455 20.3436H29.1177L29.1615 20.2992L29.6716 20.2975L29.8533 20.2069L30.3622 20.159L30.683 20.0193L30.822 19.8838L30.9173 19.8856L30.9605 19.8376H31.7014L31.8861 19.7436L31.9287 19.6518L32.0245 19.6086L32.2524 19.5625L32.2979 19.5145L32.3903 19.5607L32.7625 19.5595L32.8075 19.6051L33.1761 19.6086L33.2223 19.653L33.4543 19.6518L33.4975 19.6992H33.7774L33.8235 19.6518L33.962 19.653L34.0064 19.7009L34.2834 19.6962L34.4692 19.7903L34.9751 19.8359L35.0213 19.8838L35.5273 19.8856L35.5746 19.8376L35.6657 19.8826H35.8995L35.9457 19.93L36.1285 19.9761L36.2652 20.1146L36.5451 20.1608L36.6854 20.2992L36.844 20.1821L36.9375 20.0436L36.9144 19.9761L36.7262 19.9744ZM3.3292 13.4719L3.39844 13.447L3.39666 13.218L3.23511 13.0547L3.16646 13.0807L3.16764 13.3565L3.3292 13.4719ZM9.09726 14.6696L9.12034 14.6478V14.6004L9.0014 14.485H8.95583L8.93275 14.5093V14.5543L9.05111 14.6696H9.09726ZM9.18958 14.5785L9.21266 14.5554V14.5081L9.18958 14.4862L9.13987 14.485L9.11738 14.5264L9.15999 14.5815L9.18958 14.5785ZM8.81735 14.4862L8.84517 14.4649L8.77238 14.3945H8.72622L8.65757 14.4631L8.68006 14.4862H8.81735ZM8.54218 15.3614L8.63449 15.3632L8.65757 15.3401L8.61082 15.2922L8.6126 15.2478L8.58952 15.2259H8.54336L8.47412 15.2922L8.54218 15.3614ZM11.7236 13.9329L11.7514 13.908L11.6786 13.8376L11.6561 13.8636V13.9116L11.6804 13.9329H11.7236ZM13.5948 14.6004L13.7102 14.4862L13.7534 14.5312H14.0789L14.1256 14.5785L14.3096 14.5324L14.3759 14.4631L14.4239 14.2341L14.2623 14.1187L14.0777 14.1619L14.0333 14.0702L13.8025 14.0234L13.7333 14.0927V14.185L13.6398 14.2773V14.3246L13.4533 14.5081L13.4072 14.6466L13.5705 14.717L13.5948 14.6004ZM15.9459 17.8753L15.9015 17.7836L15.8796 17.5771L15.811 17.599L15.8092 17.6942L15.7139 17.7374V17.7818L15.8767 17.8972L15.9459 17.8753ZM10.3873 15.0401L10.4335 14.9922H10.4797L10.5027 14.9709L10.4335 14.8998L10.3412 14.9034L10.3181 14.9247V15.017L10.3412 15.0401H10.3873ZM9.41682 15.8686L9.4399 15.8473L9.44168 15.7999L9.37244 15.7289H9.32628L9.25704 15.8011L9.32806 15.8686H9.41682ZM8.28653 15.1537L8.35872 15.2247H8.45104L8.51732 15.1549L8.4972 15.1324H8.44808L8.40548 15.0845H8.30961L8.28653 15.1537ZM2.7753 24.2204H2.63741L2.56758 24.2896V24.334L2.59125 24.3588L2.82145 24.3571L2.84513 24.1985L2.82145 24.1724L2.7753 24.2204ZM12.7444 42.6714L12.7 42.5312L12.5846 42.556L12.6337 42.6004L12.632 42.6927L12.7474 42.8081L13 42.7833L12.8397 42.6685L12.7444 42.6714ZM13.9469 42.485H13.8978L13.7611 42.3465H13.6688L13.6457 42.4158L13.461 42.5986L13.464 42.6466L13.3723 42.6945L13.3705 42.7833L13.3936 42.8081L13.6688 42.8064L14.0392 42.9939L14.1084 42.9217L14.1511 42.7371L14.0149 42.5986L13.9469 42.485ZM11.7987 40.7073L11.7313 40.6369L11.662 40.7103V40.7541L11.6833 40.7771H11.7325L11.7987 40.7073ZM13.738 41.9086V41.8607L13.7149 41.8382H13.6244L13.5995 41.8595V41.9068L13.6226 41.9299H13.7149L13.738 41.9086ZM4.16065 12.5487L4.18136 12.5245V12.4795L4.11153 12.4091H4.07011L4.04288 12.4339V12.5256L4.06892 12.5487H4.16065ZM8.21907 15.0833L8.28771 15.017L8.26522 14.9957L8.21907 14.9939L8.17291 14.946H8.12675L8.10367 14.9679V15.0152L8.17291 15.0863L8.21907 15.0833ZM12.0082 41.424L11.9171 41.3796L11.894 41.2612L11.9863 41.1689L11.9834 41.0778L11.9159 41.0553L11.7325 40.9612L11.5017 40.9594L11.4525 40.915L11.365 40.918L11.3158 40.7783L11.2022 40.8032L11.1543 40.986L10.9483 41.2393L10.6471 41.3074L10.6489 41.5394L10.6027 41.5843L10.601 41.6796L10.5087 41.7701L10.5116 41.9068L10.4146 42.0027V42.0927L10.7625 42.1619L10.9945 42.3454L11.3176 42.4838L11.5017 42.485L11.6401 42.3897L11.6863 42.3909L11.8479 42.1856L11.8496 42.0927L12.0307 41.9068V41.8145L12.1017 41.7009L12.1467 41.8382L12.3343 41.8394L12.3538 41.7684L12.4461 41.7258L12.4479 41.5376L12.2881 41.4228L12.0082 41.424ZM8.31138 14.8555L8.33446 14.8342L8.33565 14.7862L8.28949 14.7401V14.6921L8.26345 14.6708L8.24333 14.6921V14.7401L8.19421 14.785L8.26522 14.8555H8.31138ZM14.8914 40.7091L14.8931 40.6168L14.9849 40.525L15.0328 40.3416L14.8914 40.2481L14.8931 40.1078L14.7298 40.0368L14.6162 40.2937L14.5683 40.5706L14.4529 40.6387L14.4298 40.4771L14.3854 40.4321L14.431 40.3848L14.3854 40.2925L14.3144 40.2244H14.2221L14.1978 40.386L14.1546 40.4783L14.0593 40.525L14.0623 40.6138L14.2008 40.8476V40.9399L14.1084 41.0304L14.0392 41.1476H13.9007L13.809 41.0985L13.7599 41.1458L13.3918 41.1476L13.3456 41.1026L13.2551 41.1014L13.232 41.1245L13.2764 41.2162L13.2332 41.3074L13.1646 41.3784L12.9764 41.3766L12.8616 41.5376L12.929 41.6068L13.0243 41.6086L13.1166 41.5612L13.2078 41.7009L13.3918 41.7441L13.4391 41.7915L13.7167 41.7932L13.8315 41.6778V41.5855L13.9007 41.5151L13.993 41.5636L14.3605 41.5595L14.4049 41.6548L14.4558 41.653L14.5712 41.5394V41.492L14.4759 41.3979L14.4777 41.1707L14.6375 41.0091L14.8434 40.9843L14.8712 40.915H14.9618L15.1204 40.7996L15.0985 40.7322L14.8914 40.7091Z"/>
</mask>
<path d="M35.6504 37.2939L35.5119 37.0158L35.4675 36.788L35.3273 36.6495L35.3059 36.5311H35.2568L35.2337 36.4649L34.9799 36.211L34.7526 36.0731L34.4739 35.979L34.4064 35.7713L34.2431 35.6115L34.0833 35.5393L34.1295 35.4517L34.1046 35.3334L33.9218 35.3351L33.8987 35.2659L33.7129 35.1274L33.7608 34.8949L33.6649 34.8505L33.6667 34.7582L33.7129 34.7108L33.691 34.5966L33.6188 34.5735L33.5975 34.412L33.4146 34.3658L33.3685 34.3197H33.2761L33.1821 34.2273L33.0897 34.2262L33.0915 34.0415H32.9992L32.9536 34.0895L32.8134 34.0433L32.7211 33.9492L32.5364 33.9954L32.4423 33.903L32.2317 33.8338L32.1825 33.7894L32.1612 33.6722L32.0689 33.674L31.9754 33.5817L31.8369 33.5355L31.7778 33.4894L31.6553 33.3941L31.4706 33.3953L31.4215 33.3509H31.3339L31.1925 33.2095L31.102 33.2124L30.9617 33.3509L30.8694 33.3497L30.8232 33.3977H30.3605L30.2681 33.4403L30.248 33.5142L30.016 33.7433L29.9734 33.8338L29.8379 34.0184L29.8391 34.1108L29.7237 34.2273L29.4704 34.3427L29.5178 34.5723L29.4669 34.6197L29.4704 34.712L29.4012 34.7812L29.1704 34.8718L28.7982 34.9197L28.8212 35.2659L28.7751 35.3132L28.778 35.4026L28.8242 35.4505V35.8192L28.778 35.8654L28.7751 36.05L28.7289 36.0944L28.6863 36.2773L28.3845 36.485L28.062 36.6264L27.8081 36.8341L27.7631 37.017L27.8093 37.0614L27.8111 37.2016L27.8543 37.249L27.8555 37.7105L27.9016 37.7549L27.8998 37.8952L27.9939 38.0798L27.9928 38.2165L28.088 38.358L28.0845 38.5408L28.1306 38.587L28.1324 38.7225L28.1756 38.7716L28.1768 38.9545L28.0833 39.1391L28.1786 39.2314V39.2788L28.4094 39.5545L28.4526 39.7865L28.6644 39.9942L28.707 39.9924L29.0751 40.2706L29.1704 40.3173L29.355 40.3138L29.4456 40.3629L29.6764 40.5937H29.8148L29.861 40.6399L30.1853 40.6387L30.5078 40.8257L30.7392 40.8245L30.8741 41.0091L31.2907 41.0062L31.3387 40.9624H31.7091L31.7523 40.915H31.8476L31.937 40.8245L32.0737 40.8227L32.124 40.7783H32.5838L32.6305 40.7304L32.8595 40.686L33.0442 40.5919L33.1838 40.457H33.23L33.3223 40.3617L33.5063 40.3156L33.688 40.1291L33.8265 40.083L33.9236 39.9954L34.0603 39.9498L34.2668 39.7403V39.648L34.4721 39.4403L34.6597 39.3468L34.7059 39.348L34.9355 39.1622L35.0752 39.164L35.2598 39.0728L35.3722 38.6319L35.4231 38.5887L35.4196 38.4935L35.606 38.2183V37.9407L35.6521 37.8934L35.6042 37.617L35.6521 37.5709L35.6504 37.2939ZM13.3918 40.5937L13.5332 40.7322H13.6244L13.7409 40.6156L13.7841 40.431L13.7167 40.3617L13.3474 40.4091L13.2533 40.3617L13.161 40.4079L13.1415 40.4783L13.2089 40.5475L13.3918 40.5937ZM15.5542 21.1739L15.4843 21.2431L15.508 21.2662H15.5571L15.5985 21.3141L15.6246 21.2893L15.6228 21.1999L15.5997 21.1739H15.5542ZM19.2001 22.5598L19.177 22.5811V22.6735L19.1983 22.6965H19.3368L19.3599 22.6746V22.6273L19.2889 22.5598H19.2001ZM16.5691 21.6828L16.475 21.4988L16.3625 21.5201V21.7041L16.4306 21.8183L16.8212 21.8L16.8223 21.7041L16.7531 21.6367L16.5691 21.6828ZM15.1003 40.5002L15.0772 40.5233V40.5706L15.0298 40.6168V40.6612L15.0529 40.6842H15.1446L15.1677 40.6629L15.1695 40.5233L15.1464 40.5002H15.1003ZM15.9246 21.2692L15.7844 21.1757L15.7151 21.197L15.7139 21.2413L15.8785 21.3567L15.9708 21.3585L16.04 21.2893L15.9708 21.2218L15.9246 21.2692ZM15.7169 20.965V20.9218L15.6909 20.8987H15.6015L15.5784 20.9236V20.9679L15.6015 20.9898L15.6938 20.991L15.7169 20.965ZM15.8796 22.9747H15.8305L15.811 22.996L15.8092 23.0439L15.8323 23.067H15.8785L15.9015 23.0439L15.8986 22.996L15.8796 22.9747ZM17.0283 21.3585H16.9857L16.959 21.3846V21.4757L16.9857 21.4988H17.078L17.1005 21.4739L17.0981 21.4295L17.0283 21.3585ZM18.4154 14.2081L18.4385 14.1868L18.4154 14.1637H18.3237L18.2971 14.185L18.3237 14.2063L18.4154 14.2081ZM40.3284 23.9896L40.142 23.9884L40.0514 24.0819H39.5886L39.5419 24.0375L39.3129 24.034L39.1975 24.1032L39.1963 24.2434L39.3596 24.3588L39.4975 24.3606L39.681 24.4512L39.8224 24.4494L39.8656 24.405L40.0485 24.4032L40.0958 24.3588H40.4633L40.5325 24.286L40.5337 24.1973L40.3515 24.057L40.3284 23.9896ZM46.2361 14.991L46.2101 14.8768L46.0698 14.7389L46.1621 14.6921V14.6004L46.0947 14.5324L46.0254 14.5093L45.9775 14.3217L45.8627 14.3016L45.8177 14.2542L45.7715 14.3004H45.6331L45.5857 14.3465L45.4484 14.3448L45.3549 14.5324L45.2644 14.5785L45.0318 14.5773L44.9377 14.6235L44.8028 14.7614L44.6643 14.7631L44.6164 14.8998L44.4318 14.8566L44.2459 15.0845L44.066 15.0863L43.8802 15.2709L43.6956 15.2691L43.5092 15.4999L43.3713 15.5011L43.2346 15.6396H43.1855L43.0482 15.778L42.8641 15.8721L42.7712 15.8704L42.6328 15.9609L42.4943 15.9645L42.4487 15.9148L42.3102 15.9177L42.1487 16.0781L42.1037 16.2609L42.0333 16.3302L41.7119 16.332L41.6646 16.3781L41.3894 16.3763L41.2723 16.5361L41.2273 16.6764L41.0628 16.7456L40.9953 16.8622L40.9491 16.9083L40.9953 16.9527V17.2297L40.9048 17.3682V17.4605L41.0184 17.5759L41.1107 17.5771L41.2942 17.3469L41.3894 17.3451L41.4326 17.3007H41.7581L41.8936 17.1622L42.0794 17.0681L42.1718 16.9776L42.3564 16.9314L42.4026 16.8835H42.8174L42.8641 16.8373L43.002 16.8391L43.0482 16.7912L43.1867 16.7929L43.2328 16.7456L43.4175 16.7468L43.4636 16.6989L43.6015 16.7006L43.6482 16.6533L43.7861 16.6545L43.8802 16.6083L44.1128 16.3793H44.1536L44.4335 16.1473H44.4797L44.5998 16.0242L44.6614 15.9609L44.8016 15.9148L44.8933 15.8242L45.0318 15.778L45.2644 15.5922H45.6331L45.7224 15.5011L45.7715 15.5461L45.8609 15.5478L46.0012 15.3614H46.0929L46.2361 15.2673L46.2805 15.3135L46.3977 15.2413V15.1969L46.2361 14.991ZM40.6018 23.6653L40.5124 23.7588L40.3254 23.757L40.2822 23.8049L40.1899 23.8032L40.1189 23.873L40.1881 23.9405L40.4189 23.9434L40.4663 23.9884H40.5586L40.6018 23.8973L40.6728 23.8754L40.7189 23.7357L40.6509 23.6653H40.6018ZM17.3543 14.3016L17.3774 14.2773L17.307 14.1619L17.0531 14.185L17.1206 14.3004L17.3543 14.3016ZM15.3003 25.2577V25.3057L15.3234 25.327L15.3695 25.3258L15.3926 25.3027V25.2577L15.3695 25.2335L15.3234 25.2317L15.3003 25.2577ZM14.6097 23.5499L14.6079 23.5972L14.6771 23.6653L14.747 23.596L14.6789 23.528H14.6328L14.6097 23.5499ZM16.4537 17.3682V17.2788L16.4318 17.2528H16.2933L16.2708 17.2776L16.269 17.3693L16.2921 17.393H16.4306L16.4537 17.3682ZM18.2574 14.2063L18.2308 14.2098L18.1604 14.2785L18.2296 14.3465H18.2757L18.2988 14.3246L18.2959 14.2483L18.2574 14.2063ZM36.7262 19.9744L36.7055 19.8607L36.6374 19.7903L36.4528 19.7915L36.0841 19.5145L35.8533 19.5163L35.7581 19.5595L35.529 19.3731L35.4367 19.3761L35.3444 19.5145L35.1598 19.5134L35.1136 19.4684H35.0213L34.9308 19.3749L34.8379 19.3778L34.7444 19.2843L34.5597 19.2382L34.3786 19.0524L34.2372 19.0547L34.191 19.0074L33.9602 18.9595L33.9159 18.9151L33.7774 18.9133L33.7283 18.8689L33.4069 18.7748L33.2667 18.592L33.13 18.5428L33.0164 18.4274L32.9471 18.3138L32.8749 18.2907L32.8761 18.1984L32.7844 18.1523L32.7826 17.9694L32.6921 17.7836L32.5536 17.5066L32.321 17.2758L32.2766 17.1835L32.2778 17.0468L32.1612 16.7912H32.1151L32.0245 16.7006L31.7937 16.6989L31.7233 16.632V16.4929L31.6091 16.4255L31.4233 16.332L31.331 16.2379H31.2387L31.099 16.055L30.8694 16.0532L30.6865 15.8224L30.3605 15.8242L30.2238 15.7301L30.1314 15.7337L30.0178 15.6627L30.0604 15.6183L30.0391 15.4555L29.8545 15.4538L29.7148 15.549L29.5781 15.5478L29.5545 15.4768L29.3953 15.3614L29.3029 15.3644L29.2532 15.2721L28.7011 15.2709L28.6549 15.2259L28.5171 15.2247L28.4727 15.1768H28.1957L28.146 15.1324H28.0573L28.0111 15.1756L27.962 15.1306L27.8235 15.1336L27.7803 15.1768L27.5927 15.178L27.5726 15.246L27.5033 15.2709L27.3175 15.0401L26.7654 15.0863L26.5778 14.9922H26.3932L26.3488 14.946L26.1411 14.9229L26.0736 14.8081L25.9351 14.8543L25.889 14.8063L25.7931 14.8093L25.6108 14.7158L25.4014 14.5081L25.3599 14.3714L25.128 14.1406L25.08 14.0003L24.9433 13.8625V13.8175L24.7113 13.5867L24.7125 13.4914L24.6172 13.3547L24.48 13.2162L24.3421 12.9393L24.2498 12.8949V12.8026L24.1592 12.6659L24.1574 12.5256L24.1113 12.4765L24.0178 12.3398L24.0651 11.7398L24.1113 11.6954V11.3231L24.0651 11.2788L24.0669 11.1864L24.2509 11.048L24.3433 10.7254L24.2486 10.6361L24.4344 10.4946L24.4356 10.313L24.4788 10.2656L24.4356 10.2177L24.4344 10.078L24.3882 10.0331V9.66438L24.2971 9.52768L24.2959 9.24718L24.1592 9.01816L24.1344 8.90336H24.042L23.9728 8.8353L24.0178 8.65244L23.8811 8.46603L23.8793 8.28199L23.7888 8.09736V7.68015L23.6716 7.56535L23.513 7.54227L23.4899 7.47599L23.3716 7.44995L23.3733 7.36059L23.3041 7.29017L23.1674 7.24401L23.0733 7.29135L22.9828 7.24223L22.8644 7.12684L22.8656 7.0363L22.7739 6.9428L22.7058 6.82858L22.5182 6.78242L22.4277 6.5966L22.243 6.55163L22.1057 6.41375L22.0111 6.45813L21.943 6.34273L21.8738 5.90304L21.6891 5.86102L21.5968 5.95216L21.4128 5.95038L21.3666 5.906L21.0897 5.90422L21.0453 5.81191L20.9991 5.81072L20.905 5.906L20.8376 5.7906L20.9269 5.65213L20.8595 5.5817L20.6973 5.51365L20.7914 5.28167L20.7902 5.19113L20.7204 5.12012L20.605 5.18936L20.5837 5.25859L20.2576 5.30653L20.1458 5.42015L20.0978 5.60478L19.912 5.83854L19.9138 6.01962L19.7505 6.13502H19.7084L19.5457 6.29657L19.4753 6.41375L19.383 6.41197L19.0628 6.59779L18.9196 6.64395L18.7847 6.78242H18.6462L18.5539 6.82858L18.4829 6.89782V6.99014L18.3468 7.22211L18.2296 7.38249L18.1373 7.42687L17.9065 7.42865L17.7224 7.51919L17.6053 7.63577L17.5621 7.81922L17.3532 8.02812L17.2147 8.02634L16.8934 8.35064L16.8241 8.37372L16.73 8.92644L16.6365 9.06432L16.4537 9.34246L16.5229 9.41051L16.6383 9.43655L16.6845 9.75789L16.73 9.80227V9.89459L16.8673 10.0319L16.8691 10.3112L16.8212 10.3562L16.8241 10.4964L16.8703 10.5438L16.8691 10.6331L17.0549 10.8621L17.0531 11.0018L17.0993 11.0497L17.1437 11.2788L17.1928 11.3279L17.1916 11.4634L17.2851 11.6942L17.3993 11.8096H17.4916L17.6757 11.9031L17.7668 11.9954L17.8591 11.9924L17.9083 12.0416H18.0929L18.2296 12.2244L18.3911 12.2031V12.1108L18.3006 12.0185L18.3237 11.9966L18.3698 11.9936L18.4829 12.109L18.577 12.3416L18.6906 12.4564H18.7829L18.8983 12.5724L18.9462 12.7091L19.038 12.8026L18.9445 12.8487V13.2654L18.8752 13.379L18.7143 13.447L18.7125 13.5394L18.9001 13.6329L18.8521 13.8654L18.7829 13.8867L18.7586 13.953L18.877 14.0234L18.9693 14.0252L18.9924 14.0944L18.6 14.1619L18.5065 14.256L18.345 14.2773L18.3681 14.3957L18.4817 14.4187L18.4124 14.485L18.3237 14.4832L18.274 14.5785H17.7668L17.584 14.485L17.5378 14.3927H17.4916L17.4224 14.4649V14.5543L17.1668 14.7614L17.0981 14.7862L17.1928 14.8756L17.1685 14.9016L16.8223 15.1093V15.4768L16.8691 15.5212L16.8703 15.7982L16.7768 15.8934L16.7797 16.0763L16.8212 16.1225L16.8223 16.3533L16.6845 16.4456L16.6856 16.6332L16.4767 16.8409L16.3383 16.9285L16.3164 16.8148L16.2477 16.7912L16.1306 16.9527V17.0486L16.2477 17.2084L16.501 17.2315L16.5028 17.4605L16.4318 17.5297H16.3832L16.3383 17.4404L16.1075 17.4386L15.9477 17.6481L15.9938 17.7374L15.9921 17.9676L15.9459 18.0156L16.0371 18.1079L15.9672 18.1753L15.8554 18.1079L15.8536 17.9712L15.7382 17.8558H15.6938L15.5524 17.7138L15.4139 17.7617L15.3677 17.8528L15.2985 17.8309L15.231 17.7155L14.9991 17.8061L14.8837 17.8783L14.8636 17.9925L14.676 17.9907L14.5848 17.8096L14.4469 17.8078L14.3546 17.8558L14.2854 17.9215L14.2883 17.9694L14.3759 18.0138L14.3789 18.154L14.2854 18.2464V18.2937L14.1008 18.4292L14.0996 18.6168L13.9871 18.6825L13.8487 18.6843L13.7563 18.7766L13.5261 18.8227L13.4764 18.7766H13.3379L13.2273 18.6612L13.2243 18.6139L13.409 18.4783L13.4101 18.2907L13.361 18.2464L13.3628 18.1061L13.409 18.0138L13.2936 17.9907L13.2243 18.0599V18.1523L13.1302 18.2475L13.0841 18.3369L13.0876 18.4772L12.9261 18.4967L12.9012 18.615L12.832 18.6843L12.7397 18.7304L12.5095 18.7287L12.4876 18.5677L12.6272 18.3848L12.626 18.1523L12.4189 18.1292L12.3728 18.1753H12.1881L12.0496 18.2694L11.8621 18.2677L11.7922 18.2002L11.7946 18.0138L11.9556 17.9002H12.0017L12.2112 17.6925V17.6001L12.1171 17.4617L12.1863 17.4374L12.3 17.6001L12.3029 17.6925L12.2574 17.7848L12.1171 17.8753V17.9232L12.1863 17.9937L12.4633 17.9475L12.4864 17.8753L12.5781 17.8309V17.7386L12.6722 17.5528L12.6704 17.3682L12.9953 17.093L12.9462 17.045L13.0148 17.0237L13.0645 17.0681L13.1799 16.9545V16.9066L13.0628 16.7438L12.9705 16.6989L12.7414 16.7006L12.6935 16.7486H12.603L12.5556 16.7912L12.3266 16.7929L12.2787 16.8373L12.142 16.8409L12.094 16.8835L11.865 16.8853L11.6786 16.7006L11.4484 16.7024L11.3111 16.513L11.2188 16.4687L10.8933 16.4698L10.8022 16.4255L10.7797 16.3071L10.9655 16.1686V16.0793L10.8483 15.9609L10.7105 15.9645L10.6643 15.9148H10.572L10.5276 15.8224H10.4335L10.3891 15.7763L10.1583 15.8674L9.83521 15.8686L9.69674 15.9597L9.6275 15.9378L9.67366 15.8934L9.64762 15.8224L9.50914 15.8704L9.46594 15.9609L9.27894 15.9165L9.21089 15.8455V15.6615L8.81854 15.3153L8.70314 15.3413L8.74812 15.523L8.68184 15.5922L8.54336 15.5905L8.47294 15.4768V15.3875L8.35872 15.2721L8.17113 15.178L8.03443 15.0413L7.80364 15.0401L7.75748 14.9922L7.66575 15.0383L7.57462 14.946L7.25151 14.9478L7.20239 14.9034L6.97515 14.9016L6.85797 14.7862L6.81359 14.6022L6.85975 14.5543L6.81359 14.4619L6.69642 14.3945L6.65026 14.3016L6.53546 14.2785V14.2311L6.62896 14.1879L6.56031 14.1175L6.46799 14.1157L6.16619 13.8636L6.09872 13.7453L6.00641 13.7926L5.86793 13.7914L5.82177 13.7471L5.68329 13.75L5.54363 13.6086H5.45132L5.31284 13.5192L5.15129 13.6317L5.1069 13.7713L4.99151 13.9329L4.80391 13.9311L4.76071 13.8867H4.29617L4.15769 13.979L4.01981 13.9773L3.93045 14.0731L3.74581 14.1607L3.44578 14.2311V14.3235L3.30612 14.4631L3.35228 14.5081L3.35524 14.6478L3.28422 14.717L2.96171 14.8555L2.75222 15.0602L2.75103 15.3401L2.84631 15.4325L2.79837 15.7088L2.72973 15.778L2.31252 15.9627L2.0622 16.0763L2.01604 16.1716L2.01427 16.3515L2.26637 16.516L2.38472 16.5397V16.6793L2.13144 16.7468L2.01427 16.861L1.96811 16.9527L1.96988 17.2297L1.92077 17.2758L1.92254 17.4161L1.96811 17.4605L1.96693 17.7848L1.87757 17.9215L1.87579 18.0617L1.92254 18.1061L1.92077 18.1984L1.76217 18.3618L1.59766 18.4274L1.59943 18.615L1.69116 18.7044L1.68997 18.8441L1.78347 19.0287L1.73732 19.0766L1.73613 19.3056L1.92254 19.6749L1.92077 19.8116L2.01308 19.9513L2.01427 20.1359L2.17405 20.2992L2.24388 20.3223L2.24625 20.4146L2.33856 20.459L2.36046 20.5294L2.56758 20.6448L2.66167 20.8739L2.82145 21.0372H2.86761L2.93863 21.1526L2.93685 21.5201L3.0771 21.7509L3.03094 21.8461L3.02917 22.1213L2.89247 22.3503L2.89069 22.4888L2.79837 22.6285L2.80015 22.8575L3.07533 23.1836L2.98478 23.4114V23.5037L3.02917 23.5517L3.03094 23.9203L3.10018 23.9896L3.3292 24.0328L3.39844 24.1061L3.35524 24.1955L3.44578 24.3831L3.4446 24.6121L3.39844 24.6601V25.1642L3.44756 25.2122L3.44578 25.3489L3.35228 25.5365L3.25996 25.627L3.25878 25.8117L3.21558 25.859L3.28422 25.9271L3.37713 25.975L3.51383 25.9714L3.71977 26.2271L3.72096 26.504L3.53691 26.6419L3.5381 27.5201L3.58307 27.5645V27.7965L3.48898 27.8876L3.5381 27.932L3.56118 28.003L3.63042 28.0243L3.58307 28.2089L3.67539 28.2563L3.63042 28.5782L3.69788 28.6486L3.95175 28.6717L3.8115 28.812V28.9025L3.86121 28.9487L3.85766 29.4085L3.81505 29.4558V30.008L3.76593 30.0559L3.81505 30.1003L3.81327 30.2405L3.85943 30.2849L3.81327 30.3323L3.8115 30.4695L3.99791 30.7477L4.04288 30.8879L4.11508 30.9092L4.64413 31.4365V31.5318L4.73763 31.6703L4.82995 31.7146L4.96547 31.9922L4.96665 32.2685L5.01281 32.3165V32.4088L5.05778 32.4561L5.05956 32.8219L5.10513 32.8698L5.15306 33.1467L5.44954 33.4912H5.49866L5.63536 33.6326H5.68211L5.84189 33.8338L6.31236 34.3416L6.56445 34.5061L6.65855 34.5031L6.86448 34.6658V34.7108L6.9568 34.7552L7.09646 34.989L7.09469 35.0807L7.187 35.2209L7.18878 35.4026L7.28287 35.5867L7.23316 36.0021L7.14084 36.1867L7.2811 36.279V36.4187L7.39531 36.5341L7.44088 36.4867L7.76517 36.6246L7.85749 36.6264L8.04212 36.5341L8.17882 36.5329L8.22498 36.4879L8.40962 36.4867L8.45578 36.4424L8.73569 36.4406L8.91736 36.3495L8.96293 36.3021L9.05406 36.3039L9.22035 36.1423L9.26296 35.9577L9.47245 35.75L9.6565 35.7026L9.70265 35.6559H9.79497L9.88551 35.7932L10.0228 35.8423L10.2548 35.5642L10.3939 35.5192L10.5779 35.3778L10.7164 35.3795L10.7608 35.4269L11.133 35.4257L11.3158 35.5192L11.4082 35.473L11.5928 35.4701L11.6851 35.2872H11.7774L11.8236 35.2428H12.1911L12.2615 35.1736V35.0333L12.171 34.8966L12.4248 34.7795L12.4941 34.7108V34.2936L12.6059 34.1321L12.7012 34.1338L12.8829 34.0433L13.0474 33.9261L13.0876 33.8338L13.0841 33.7001L13.2012 33.5829L13.2936 33.5847L13.4782 33.3545L13.6622 33.2633L13.7084 33.1681L13.893 33.1249L13.9179 33.0065L13.9871 32.9379L14.0789 32.939L14.2144 32.8467L14.2836 32.6852L14.4469 32.5236L14.6771 32.478L14.8618 32.2437L14.9316 32.2224L14.979 32.1301L14.976 31.9946L15.208 31.7608L15.2097 31.4844L15.2559 31.4365L15.2541 31.2554L15.4399 31.0246V30.9767L15.6246 30.8382L15.7151 30.6554L15.6707 30.4263L15.4843 30.2376L15.3938 30.0559L15.3926 29.7789L15.4388 29.7328L15.4399 29.5487L15.4861 29.5008L15.4843 29.3162L15.4388 29.2718V28.8072L15.4861 28.764L15.4843 28.3474L15.3908 28.2107L15.3464 27.9338L15.2559 27.8397L15.3015 27.7018L15.231 27.5864L14.979 27.471L14.8849 27.2881L14.8837 26.965L14.9346 26.9171L14.9316 26.8248L15.0464 26.7112L15.1387 26.7082L15.3938 26.504L15.3926 26.2715L15.3464 26.2235L15.279 26.1099L15.0482 26.1111L14.9097 26.0176L14.7239 25.9714L14.6097 25.8566L14.4694 25.5797L14.5617 25.5317L14.5635 25.3489L14.6529 25.2566V25.1642L14.5848 25.0506L14.3096 25.0033L14.2404 24.937L14.2392 24.7044L14.1481 24.6121L14.1457 24.5198L14.1019 24.4725L14.1008 24.2434L14.3067 24.034L14.3759 24.0126L14.3777 23.7357L14.2605 23.6203H14.1221L14.0067 23.5528L14.0084 23.4576L13.8688 23.2759L13.8244 22.9989L13.7794 22.9072L13.8256 22.8593L13.8226 22.7226L13.8705 22.6273L14.0315 22.4669H14.0777L14.1943 22.3054L14.1913 22.2136L13.9623 22.0272L13.9641 21.8876L14.1019 21.8L14.0534 21.7521L14.0546 21.6597L13.9854 21.6367L13.9623 21.5662L13.9167 21.5219L13.9149 21.2911L13.9623 21.2461V21.1508L14.0558 20.9662L14.0534 20.8756L14.1019 20.8277L14.1469 20.6437L14.2623 20.5265L14.5375 20.6679L14.6316 20.6218H14.7712L14.8138 20.5744L14.9529 20.5756L15.0926 20.762L15.2772 20.8514L15.3464 20.8295V20.7372L15.3003 20.6928L15.3234 20.6679L15.5542 20.6697L15.6488 20.8064L15.74 20.8514L16.1323 20.8277V20.7833L16.0371 20.736L15.9459 20.5543L15.9495 20.2744L16.0844 20.1838L15.9938 19.9548L15.8536 19.8134V19.7211L15.969 19.6992L16.0152 19.7436L16.1075 19.7453L16.3844 20.0241L16.4537 20.0471L16.475 20.1128H16.572L16.6395 20.1838L16.6383 20.3205L16.5921 20.4158L16.7549 20.6206L16.8703 20.6466L16.8223 20.7821L16.8691 20.8277L16.872 20.9236L16.9626 20.9679L16.9821 21.0372L17.0549 21.0603L16.9395 21.0816L16.9152 21.1508L17.1241 21.3153L17.236 21.3354L17.1928 21.3834L17.1916 21.5183L17.3283 21.7077L17.3514 21.7734L17.5378 21.8675L17.7236 21.729L17.9526 21.7278L18.0467 21.6846L18.139 21.6367L18.2988 21.7521L18.3219 22.1906L18.5509 22.2338L18.6 22.2811L18.7847 22.2829L18.8308 22.3273L19.5244 22.3255L19.612 22.4196L19.7978 22.5131L20.1671 22.5598L20.2612 22.6533L20.3529 22.6977L20.5381 22.6965L20.5819 22.7439L20.8127 22.7427L20.9973 22.6042L21.0897 22.5563L21.5512 22.561L21.5968 22.5131H21.6891L21.8738 22.4196L22.0602 22.1444L22.1489 22.0982L22.4294 22.0965L22.4756 22.0521H22.752L22.8425 22.1444L22.9348 22.1414L22.981 22.0982L23.0271 22.1426L23.1656 22.0521L23.3041 22.0491L23.3964 21.9615L23.7189 21.9598L23.7651 21.9118L23.9497 21.8213L24.1361 21.5875L24.3172 21.497L24.3663 21.4988L24.5036 21.6355L24.5959 21.6846L24.6646 21.6586L24.6634 21.4757L24.78 21.3141H25.1481L25.1972 21.3585L25.5641 21.3615L25.6321 21.1999L25.8671 21.0585L25.8641 20.9691L26.0275 20.8046L26.118 20.8064L26.3044 20.7158L26.3967 20.6679L26.5346 20.6697L26.5808 20.6218L27.0406 20.6188L27.2252 20.5283L27.3637 20.5294L27.5495 20.391L27.688 20.3927L27.7312 20.2975L28.3324 20.2992L28.3786 20.3436L28.4709 20.3448L28.5632 20.2051L28.7455 20.3436H29.1177L29.1615 20.2992L29.6716 20.2975L29.8533 20.2069L30.3622 20.159L30.683 20.0193L30.822 19.8838L30.9173 19.8856L30.9605 19.8376H31.7014L31.8861 19.7436L31.9287 19.6518L32.0245 19.6086L32.2524 19.5625L32.2979 19.5145L32.3903 19.5607L32.7625 19.5595L32.8075 19.6051L33.1761 19.6086L33.2223 19.653L33.4543 19.6518L33.4975 19.6992H33.7774L33.8235 19.6518L33.962 19.653L34.0064 19.7009L34.2834 19.6962L34.4692 19.7903L34.9751 19.8359L35.0213 19.8838L35.5273 19.8856L35.5746 19.8376L35.6657 19.8826H35.8995L35.9457 19.93L36.1285 19.9761L36.2652 20.1146L36.5451 20.1608L36.6854 20.2992L36.844 20.1821L36.9375 20.0436L36.9144 19.9761L36.7262 19.9744ZM3.3292 13.4719L3.39844 13.447L3.39666 13.218L3.23511 13.0547L3.16646 13.0807L3.16764 13.3565L3.3292 13.4719ZM9.09726 14.6696L9.12034 14.6478V14.6004L9.0014 14.485H8.95583L8.93275 14.5093V14.5543L9.05111 14.6696H9.09726ZM9.18958 14.5785L9.21266 14.5554V14.5081L9.18958 14.4862L9.13987 14.485L9.11738 14.5264L9.15999 14.5815L9.18958 14.5785ZM8.81735 14.4862L8.84517 14.4649L8.77238 14.3945H8.72622L8.65757 14.4631L8.68006 14.4862H8.81735ZM8.54218 15.3614L8.63449 15.3632L8.65757 15.3401L8.61082 15.2922L8.6126 15.2478L8.58952 15.2259H8.54336L8.47412 15.2922L8.54218 15.3614ZM11.7236 13.9329L11.7514 13.908L11.6786 13.8376L11.6561 13.8636V13.9116L11.6804 13.9329H11.7236ZM13.5948 14.6004L13.7102 14.4862L13.7534 14.5312H14.0789L14.1256 14.5785L14.3096 14.5324L14.3759 14.4631L14.4239 14.2341L14.2623 14.1187L14.0777 14.1619L14.0333 14.0702L13.8025 14.0234L13.7333 14.0927V14.185L13.6398 14.2773V14.3246L13.4533 14.5081L13.4072 14.6466L13.5705 14.717L13.5948 14.6004ZM15.9459 17.8753L15.9015 17.7836L15.8796 17.5771L15.811 17.599L15.8092 17.6942L15.7139 17.7374V17.7818L15.8767 17.8972L15.9459 17.8753ZM10.3873 15.0401L10.4335 14.9922H10.4797L10.5027 14.9709L10.4335 14.8998L10.3412 14.9034L10.3181 14.9247V15.017L10.3412 15.0401H10.3873ZM9.41682 15.8686L9.4399 15.8473L9.44168 15.7999L9.37244 15.7289H9.32628L9.25704 15.8011L9.32806 15.8686H9.41682ZM8.28653 15.1537L8.35872 15.2247H8.45104L8.51732 15.1549L8.4972 15.1324H8.44808L8.40548 15.0845H8.30961L8.28653 15.1537ZM2.7753 24.2204H2.63741L2.56758 24.2896V24.334L2.59125 24.3588L2.82145 24.3571L2.84513 24.1985L2.82145 24.1724L2.7753 24.2204ZM12.7444 42.6714L12.7 42.5312L12.5846 42.556L12.6337 42.6004L12.632 42.6927L12.7474 42.8081L13 42.7833L12.8397 42.6685L12.7444 42.6714ZM13.9469 42.485H13.8978L13.7611 42.3465H13.6688L13.6457 42.4158L13.461 42.5986L13.464 42.6466L13.3723 42.6945L13.3705 42.7833L13.3936 42.8081L13.6688 42.8064L14.0392 42.9939L14.1084 42.9217L14.1511 42.7371L14.0149 42.5986L13.9469 42.485ZM11.7987 40.7073L11.7313 40.6369L11.662 40.7103V40.7541L11.6833 40.7771H11.7325L11.7987 40.7073ZM13.738 41.9086V41.8607L13.7149 41.8382H13.6244L13.5995 41.8595V41.9068L13.6226 41.9299H13.7149L13.738 41.9086ZM4.16065 12.5487L4.18136 12.5245V12.4795L4.11153 12.4091H4.07011L4.04288 12.4339V12.5256L4.06892 12.5487H4.16065ZM8.21907 15.0833L8.28771 15.017L8.26522 14.9957L8.21907 14.9939L8.17291 14.946H8.12675L8.10367 14.9679V15.0152L8.17291 15.0863L8.21907 15.0833ZM12.0082 41.424L11.9171 41.3796L11.894 41.2612L11.9863 41.1689L11.9834 41.0778L11.9159 41.0553L11.7325 40.9612L11.5017 40.9594L11.4525 40.915L11.365 40.918L11.3158 40.7783L11.2022 40.8032L11.1543 40.986L10.9483 41.2393L10.6471 41.3074L10.6489 41.5394L10.6027 41.5843L10.601 41.6796L10.5087 41.7701L10.5116 41.9068L10.4146 42.0027V42.0927L10.7625 42.1619L10.9945 42.3454L11.3176 42.4838L11.5017 42.485L11.6401 42.3897L11.6863 42.3909L11.8479 42.1856L11.8496 42.0927L12.0307 41.9068V41.8145L12.1017 41.7009L12.1467 41.8382L12.3343 41.8394L12.3538 41.7684L12.4461 41.7258L12.4479 41.5376L12.2881 41.4228L12.0082 41.424ZM8.31138 14.8555L8.33446 14.8342L8.33565 14.7862L8.28949 14.7401V14.6921L8.26345 14.6708L8.24333 14.6921V14.7401L8.19421 14.785L8.26522 14.8555H8.31138ZM14.8914 40.7091L14.8931 40.6168L14.9849 40.525L15.0328 40.3416L14.8914 40.2481L14.8931 40.1078L14.7298 40.0368L14.6162 40.2937L14.5683 40.5706L14.4529 40.6387L14.4298 40.4771L14.3854 40.4321L14.431 40.3848L14.3854 40.2925L14.3144 40.2244H14.2221L14.1978 40.386L14.1546 40.4783L14.0593 40.525L14.0623 40.6138L14.2008 40.8476V40.9399L14.1084 41.0304L14.0392 41.1476H13.9007L13.809 41.0985L13.7599 41.1458L13.3918 41.1476L13.3456 41.1026L13.2551 41.1014L13.232 41.1245L13.2764 41.2162L13.2332 41.3074L13.1646 41.3784L12.9764 41.3766L12.8616 41.5376L12.929 41.6068L13.0243 41.6086L13.1166 41.5612L13.2078 41.7009L13.3918 41.7441L13.4391 41.7915L13.7167 41.7932L13.8315 41.6778V41.5855L13.9007 41.5151L13.993 41.5636L14.3605 41.5595L14.4049 41.6548L14.4558 41.653L14.5712 41.5394V41.492L14.4759 41.3979L14.4777 41.1707L14.6375 41.0091L14.8434 40.9843L14.8712 40.915H14.9618L15.1204 40.7996L15.0985 40.7322L14.8914 40.7091Z" fill="#678B28" fill-opacity="0.4" stroke="#678B28" stroke-opacity="0.4" mask="url(#path-1-inside-1)"/>
</svg>
