<svg width="48" height="48" viewBox="0 0 48 48" fill="none" xmlns="http://www.w3.org/2000/svg">
<mask id="path-1-inside-1" fill="white">
<path d="M41.6844 22.9049L40.7535 23.351L40.4484 23.6126L40.2718 23.9921L40.1664 24.3869L40.0153 24.7047L39.8103 24.9967L39.0207 25.8583L38.641 26.0452L38.5435 26.1427L38.513 26.261L38.5514 26.522L38.5287 26.6247L38.4183 26.7301L38.3361 26.745L38.239 26.7301L38.1284 26.7732L37.9334 26.9808L37.8464 27.2196L37.754 27.7422L37.6363 28.0242L37.1237 28.783L36.9802 29.1247L36.8853 29.2727L36.6469 29.3931L36.6391 29.4832L36.6623 29.5933L36.6545 29.706L35.0034 32.3977L34.8782 32.5231L34.7137 32.6054H34.6163L34.5192 32.5848L34.3704 32.6133L34.1246 32.8233L33.878 33.4023L33.4424 33.7231L33.3603 33.9615L33.3657 34.2358L33.4858 34.7638L33.4631 34.8614L32.6885 36.274L32.622 36.4534L32.6734 36.6018L32.7657 36.7198L32.7782 36.8246L32.6172 36.9068L32.481 36.9509L32.3862 37.0175L32.2937 37.099L32.212 37.212L31.2605 39.3473L31.1789 39.7193L31.1403 39.8142L31.0454 39.8836L30.7917 39.9704L30.7404 40.0317L30.7864 40.165L30.9864 40.4627L31.0301 40.6033L31.0175 40.7677L30.9557 40.8651L30.8889 40.9395L30.8225 41.0499L30.5608 41.6009L30.2049 42.1058L29.7584 42.5004L29.4997 42.9978L29.3354 43.2082L29.1256 43.377L27.7515 44.1973L27.2235 44.413L27.0128 44.5769L26.8645 44.8666L26.767 45.1406L26.6846 45.2542L26.5596 45.3638L26.4848 45.3948L26.3514 45.3566L26.2899 45.3638L26.2235 45.4227L26.1131 45.5668L26.039 45.6177L25.7774 45.6409L25.3107 45.5358L24.7981 45.4847L24.4189 45.1719L24.1572 45.0821H23.9265L22.4447 45.3566L22.2528 45.3638L22.1168 45.2542L22.209 45.0744L22.4293 44.895L22.6706 44.8132L22.6756 44.6952L21.9011 44.0492L21.5888 43.6234L21.4938 43.5412L21.3295 43.4903L21.2707 43.521L21.2398 43.5878L20.9065 44.0028L20.7629 44.1077L20.3325 44.2641L19.8787 44.5974L19.7455 44.6592L19.2766 44.6795L19.0302 44.7388L18.8381 44.6795L18.4507 44.4565L18.2507 44.413L17.8331 44.3974L17.6331 44.359L16.8054 44.0028L16.4512 43.9951L16.3742 43.9439L16.3824 43.862L16.5023 43.6234L16.5075 43.4977L16.3742 43.3109L16.1744 43.2591L15.9436 43.3183L15.736 43.4389L15.6003 43.6003L15.4824 43.8107L15.3644 43.9745L15.2158 44.0179L14.9234 44.0336L14.7696 44.2107L14.6644 44.413L14.5081 44.531L14.2568 44.5104L14.1135 44.4642L14.0547 44.5235L14.0467 44.8282L13.9568 45.0434L13.7342 45.2002L13.2213 45.3795L13.1545 45.4305L13.037 45.5511L12.9548 45.5719L12.8882 45.5511L12.7676 45.4614L12.7009 45.4538H12.4473L12.3601 45.5128L12.2626 45.6844L12.0908 46.1893L11.9264 46.3533L11.642 46.3994L11.4806 46.3533L11.3706 46.2638L10.9805 45.7893L10.914 45.7665L10.7219 45.782L10.4834 45.8332L10.2734 45.8999L10.0679 45.9461L9.44768 45.8638L9.33728 45.8332L9.18924 45.7514L8.87585 45.4614L8.71454 45.3566L8.63278 45.3434L8.54046 45.3566L8.3634 45.3486L8.25312 45.3206L8.06589 45.223L7.97619 45.2002L7.45592 45.1406L7.26336 45.0384L7.03304 44.7846L6.60742 44.4794L6.57135 44.3464L6.84581 44.3079L6.63046 44.0925L6.37645 43.9129L6.08689 43.8028L5.75879 43.7796L5.95096 43.5412L6.13063 43.5057L6.54076 43.6309L6.7867 43.608L6.92028 43.4977L7.25333 42.6723L7.37389 42.5977L7.50709 42.5311L7.77607 42.5238L7.96108 42.5004L8.10964 42.4418L8.68863 41.8596L8.89135 41.5623L9.36553 40.3653L9.79909 39.4961L10.6909 38.2963L10.7886 38.1043L10.9805 37.5377L11.0628 37.4426L11.2116 37.3608L11.0474 37.2249L10.9753 37.1455L10.9524 37.0635L10.9603 36.9352L11.0038 36.794L11.1755 36.5482L11.2116 36.4816L11.3012 36.1096L11.2934 35.938L11.227 35.9177L11.0934 35.7687L11.0272 35.5971L11.1677 35.5149L11.2219 35.4408L11.2063 35.2691L11.1244 34.9715L11.1012 34.9431L10.9805 34.8614L10.9603 34.8536L10.9909 34.7872L11.0422 34.7409L11.0934 34.7128L11.1244 34.6818L11.1525 34.4278L11.1244 34.1537L10.9909 33.9743L10.7066 34.0205L10.9603 33.4023L11.1296 33.1282L11.5755 32.5848L11.8985 32.0925L12.3139 31.7953L12.4395 31.5877L12.5291 31.3491L12.5601 31.1335L12.6111 30.97L13.0569 30.5085L13.2573 30.0189L13.2213 29.1037L13.3186 28.5883L13.4162 28.3142L13.4287 28.1188L13.3547 27.9709L13.1851 27.7938L13.0727 27.7552L12.9445 27.7705L12.811 27.8166L12.6778 27.837L12.6698 27.7628L12.3881 27.332L12.1344 26.4608L12.0087 26.3274L11.7549 25.9555L11.6291 25.8734L11.2116 25.7479L11.0702 25.6891L10.9961 25.643L10.8782 25.4941L10.7605 25.2557L10.668 25.1066L10.6243 25.1146L10.5732 25.0096L10.3421 24.8918L10.0374 24.3274L9.95533 24.2378L9.7836 24.1023L9.70456 23.9921L9.57606 23.5661L9.49391 23.4484L9.07857 23.0769L8.95814 22.8694L8.94551 22.5719L8.99668 22.3766L9.16073 21.9614L9.1964 21.7744L9.14537 21.5205L9.01699 21.4258L8.60713 21.3134L8.45818 21.2102L8.30949 21.0464L8.26562 20.8358L8.4018 20.6078L8.48409 20.3979L8.46847 20.0853L8.35584 19.5648L7.984 18.7906L7.77607 17.4756L7.80693 17.1626L8.05092 16.7168L8.10964 16.5086V16.0085L8.08894 15.8606L7.93036 15.4656L7.92502 15.1682L7.96108 14.9297V14.7224L7.81253 14.499L7.69431 14.4329L7.56594 14.3937L7.46868 14.327L7.43287 14.1634V12.6535L7.35111 12.4842L7.33549 12.3635L7.38952 12.2383L7.71501 12.015L7.77607 11.9485L7.79678 11.769L7.68663 11.2768L7.72504 11.069L7.79678 10.8768L8.02254 10.5257L8.68863 9.7748L8.73498 9.69239L8.76623 9.55933L8.81726 9.47717L9.01204 9.35166L9.08378 9.26195L9.22739 8.77748L9.4788 8.41332L10.0015 7.88524L10.9603 7.19324L11.2116 6.92646L11.227 6.91891L11.6219 6.77778L11.9933 6.52402L12.3217 6.19566L12.5601 5.84726L12.8931 4.99875L13.1467 4.57561L13.2135 4.36039L13.2877 3.02756L13.4445 2.54544L13.7342 2.15823L13.9726 2.00187L14.411 1.78651L14.6105 1.6071L14.7592 1.59942L15.3644 1.73275L15.5797 1.81477L15.6541 1.89692L15.7722 2.11214L16.1591 2.29937L16.2922 2.32228L16.4127 2.38907L16.7692 2.71456L16.9252 2.82732L18.3996 3.34771L18.851 3.57856L19.1865 3.83231L19.4865 4.12214L19.6484 4.21939L20.9885 4.56025L21.2398 4.57561L21.9834 4.45531L22.209 4.50153L22.5218 4.94746L22.7371 5.12687L23.0039 5.03729L23.1164 4.90124L23.1527 4.8269L23.2037 4.80658L23.3906 4.8269L23.511 4.85788L23.5778 4.89629L23.7267 4.99875L24.5418 5.40887L24.9906 5.56525L25.4802 5.66784L25.3775 5.43192H25.5985L25.9108 5.51916L26.3158 5.54207L26.6182 5.72149L27.1258 6.12926L28.0843 7.59568L29.4536 8.60797L31.1709 10.2154L31.3144 10.2821L31.3583 10.3102L31.3503 10.3849L31.3354 10.4667L31.3503 10.5257L31.4093 10.5335L31.5583 10.5128L31.6172 10.5257L31.9246 10.6898L32.8756 11.5024L33.1452 11.9485L33.0373 12.4458L33.2632 12.3125L33.5754 11.874L33.8348 11.7844L34.1246 11.8511L34.378 12.015L34.5652 12.2457L34.6317 12.492L34.4168 12.8997L33.9602 13.4866L33.5961 14.0888L33.6267 14.5429H33.709L33.7401 14.3735L33.8268 14.2531L33.9164 14.1634L33.9549 14.0838L34.0219 13.7788L34.1246 13.4586L34.2961 13.2558L34.824 12.9382L34.9598 12.6996L35.1906 12.802L35.4421 13.0126L35.6419 13.2637L35.7241 13.4942L35.8445 13.6738L36.6469 14.1351L37.0621 14.4683L37.5028 14.917L37.8464 15.4219L37.985 15.9196L38.0517 16.4116L38.3361 17.3547L38.4026 17.8471L38.2693 18.3983L37.9412 18.6805L37.5543 18.903L37.2366 19.3136L37.9799 19.0829L38.3952 18.8597L38.5798 18.5982L38.6055 18.4802L38.7233 18.1447L38.7438 17.9291L38.641 16.1805L38.7156 15.7425L38.9155 15.3839L39.0716 15.2734L39.2563 15.2349L39.4589 15.2734L39.6615 15.3839L40.2332 15.9063L40.3384 16.0473L40.241 16.1885L40.5741 16.6498L40.6794 16.9242L40.6948 17.2062L40.7613 17.5576L40.8947 17.8032H41.0972L41.0742 17.9215L41.0148 18.0111L40.9533 18.0623L40.9255 18.0549L40.9381 18.1521L41.0048 18.3443L41.0972 18.5085L41.3051 18.5595L41.5046 18.5828L41.5947 18.6883L41.5485 18.8597L41.4378 18.9471L41.3278 19.0675L41.2663 19.3136L41.2969 19.5288L41.3715 19.721L41.8559 20.4285L42.0046 20.7336L42.0764 21.0671L42.1019 21.5205L42.0557 21.8949L41.8175 22.6383L41.6844 22.9049Z"/>
</mask>
<path d="M41.6844 22.9049L40.7535 23.351L40.4484 23.6126L40.2718 23.9921L40.1664 24.3869L40.0153 24.7047L39.8103 24.9967L39.0207 25.8583L38.641 26.0452L38.5435 26.1427L38.513 26.261L38.5514 26.522L38.5287 26.6247L38.4183 26.7301L38.3361 26.745L38.239 26.7301L38.1284 26.7732L37.9334 26.9808L37.8464 27.2196L37.754 27.7422L37.6363 28.0242L37.1237 28.783L36.9802 29.1247L36.8853 29.2727L36.6469 29.3931L36.6391 29.4832L36.6623 29.5933L36.6545 29.706L35.0034 32.3977L34.8782 32.5231L34.7137 32.6054H34.6163L34.5192 32.5848L34.3704 32.6133L34.1246 32.8233L33.878 33.4023L33.4424 33.7231L33.3603 33.9615L33.3657 34.2358L33.4858 34.7638L33.4631 34.8614L32.6885 36.274L32.622 36.4534L32.6734 36.6018L32.7657 36.7198L32.7782 36.8246L32.6172 36.9068L32.481 36.9509L32.3862 37.0175L32.2937 37.099L32.212 37.212L31.2605 39.3473L31.1789 39.7193L31.1403 39.8142L31.0454 39.8836L30.7917 39.9704L30.7404 40.0317L30.7864 40.165L30.9864 40.4627L31.0301 40.6033L31.0175 40.7677L30.9557 40.8651L30.8889 40.9395L30.8225 41.0499L30.5608 41.6009L30.2049 42.1058L29.7584 42.5004L29.4997 42.9978L29.3354 43.2082L29.1256 43.377L27.7515 44.1973L27.2235 44.413L27.0128 44.5769L26.8645 44.8666L26.767 45.1406L26.6846 45.2542L26.5596 45.3638L26.4848 45.3948L26.3514 45.3566L26.2899 45.3638L26.2235 45.4227L26.1131 45.5668L26.039 45.6177L25.7774 45.6409L25.3107 45.5358L24.7981 45.4847L24.4189 45.1719L24.1572 45.0821H23.9265L22.4447 45.3566L22.2528 45.3638L22.1168 45.2542L22.209 45.0744L22.4293 44.895L22.6706 44.8132L22.6756 44.6952L21.9011 44.0492L21.5888 43.6234L21.4938 43.5412L21.3295 43.4903L21.2707 43.521L21.2398 43.5878L20.9065 44.0028L20.7629 44.1077L20.3325 44.2641L19.8787 44.5974L19.7455 44.6592L19.2766 44.6795L19.0302 44.7388L18.8381 44.6795L18.4507 44.4565L18.2507 44.413L17.8331 44.3974L17.6331 44.359L16.8054 44.0028L16.4512 43.9951L16.3742 43.9439L16.3824 43.862L16.5023 43.6234L16.5075 43.4977L16.3742 43.3109L16.1744 43.2591L15.9436 43.3183L15.736 43.4389L15.6003 43.6003L15.4824 43.8107L15.3644 43.9745L15.2158 44.0179L14.9234 44.0336L14.7696 44.2107L14.6644 44.413L14.5081 44.531L14.2568 44.5104L14.1135 44.4642L14.0547 44.5235L14.0467 44.8282L13.9568 45.0434L13.7342 45.2002L13.2213 45.3795L13.1545 45.4305L13.037 45.5511L12.9548 45.5719L12.8882 45.5511L12.7676 45.4614L12.7009 45.4538H12.4473L12.3601 45.5128L12.2626 45.6844L12.0908 46.1893L11.9264 46.3533L11.642 46.3994L11.4806 46.3533L11.3706 46.2638L10.9805 45.7893L10.914 45.7665L10.7219 45.782L10.4834 45.8332L10.2734 45.8999L10.0679 45.9461L9.44768 45.8638L9.33728 45.8332L9.18924 45.7514L8.87585 45.4614L8.71454 45.3566L8.63278 45.3434L8.54046 45.3566L8.3634 45.3486L8.25312 45.3206L8.06589 45.223L7.97619 45.2002L7.45592 45.1406L7.26336 45.0384L7.03304 44.7846L6.60742 44.4794L6.57135 44.3464L6.84581 44.3079L6.63046 44.0925L6.37645 43.9129L6.08689 43.8028L5.75879 43.7796L5.95096 43.5412L6.13063 43.5057L6.54076 43.6309L6.7867 43.608L6.92028 43.4977L7.25333 42.6723L7.37389 42.5977L7.50709 42.5311L7.77607 42.5238L7.96108 42.5004L8.10964 42.4418L8.68863 41.8596L8.89135 41.5623L9.36553 40.3653L9.79909 39.4961L10.6909 38.2963L10.7886 38.1043L10.9805 37.5377L11.0628 37.4426L11.2116 37.3608L11.0474 37.2249L10.9753 37.1455L10.9524 37.0635L10.9603 36.9352L11.0038 36.794L11.1755 36.5482L11.2116 36.4816L11.3012 36.1096L11.2934 35.938L11.227 35.9177L11.0934 35.7687L11.0272 35.5971L11.1677 35.5149L11.2219 35.4408L11.2063 35.2691L11.1244 34.9715L11.1012 34.9431L10.9805 34.8614L10.9603 34.8536L10.9909 34.7872L11.0422 34.7409L11.0934 34.7128L11.1244 34.6818L11.1525 34.4278L11.1244 34.1537L10.9909 33.9743L10.7066 34.0205L10.9603 33.4023L11.1296 33.1282L11.5755 32.5848L11.8985 32.0925L12.3139 31.7953L12.4395 31.5877L12.5291 31.3491L12.5601 31.1335L12.6111 30.97L13.0569 30.5085L13.2573 30.0189L13.2213 29.1037L13.3186 28.5883L13.4162 28.3142L13.4287 28.1188L13.3547 27.9709L13.1851 27.7938L13.0727 27.7552L12.9445 27.7705L12.811 27.8166L12.6778 27.837L12.6698 27.7628L12.3881 27.332L12.1344 26.4608L12.0087 26.3274L11.7549 25.9555L11.6291 25.8734L11.2116 25.7479L11.0702 25.6891L10.9961 25.643L10.8782 25.4941L10.7605 25.2557L10.668 25.1066L10.6243 25.1146L10.5732 25.0096L10.3421 24.8918L10.0374 24.3274L9.95533 24.2378L9.7836 24.1023L9.70456 23.9921L9.57606 23.5661L9.49391 23.4484L9.07857 23.0769L8.95814 22.8694L8.94551 22.5719L8.99668 22.3766L9.16073 21.9614L9.1964 21.7744L9.14537 21.5205L9.01699 21.4258L8.60713 21.3134L8.45818 21.2102L8.30949 21.0464L8.26562 20.8358L8.4018 20.6078L8.48409 20.3979L8.46847 20.0853L8.35584 19.5648L7.984 18.7906L7.77607 17.4756L7.80693 17.1626L8.05092 16.7168L8.10964 16.5086V16.0085L8.08894 15.8606L7.93036 15.4656L7.92502 15.1682L7.96108 14.9297V14.7224L7.81253 14.499L7.69431 14.4329L7.56594 14.3937L7.46868 14.327L7.43287 14.1634V12.6535L7.35111 12.4842L7.33549 12.3635L7.38952 12.2383L7.71501 12.015L7.77607 11.9485L7.79678 11.769L7.68663 11.2768L7.72504 11.069L7.79678 10.8768L8.02254 10.5257L8.68863 9.7748L8.73498 9.69239L8.76623 9.55933L8.81726 9.47717L9.01204 9.35166L9.08378 9.26195L9.22739 8.77748L9.4788 8.41332L10.0015 7.88524L10.9603 7.19324L11.2116 6.92646L11.227 6.91891L11.6219 6.77778L11.9933 6.52402L12.3217 6.19566L12.5601 5.84726L12.8931 4.99875L13.1467 4.57561L13.2135 4.36039L13.2877 3.02756L13.4445 2.54544L13.7342 2.15823L13.9726 2.00187L14.411 1.78651L14.6105 1.6071L14.7592 1.59942L15.3644 1.73275L15.5797 1.81477L15.6541 1.89692L15.7722 2.11214L16.1591 2.29937L16.2922 2.32228L16.4127 2.38907L16.7692 2.71456L16.9252 2.82732L18.3996 3.34771L18.851 3.57856L19.1865 3.83231L19.4865 4.12214L19.6484 4.21939L20.9885 4.56025L21.2398 4.57561L21.9834 4.45531L22.209 4.50153L22.5218 4.94746L22.7371 5.12687L23.0039 5.03729L23.1164 4.90124L23.1527 4.8269L23.2037 4.80658L23.3906 4.8269L23.511 4.85788L23.5778 4.89629L23.7267 4.99875L24.5418 5.40887L24.9906 5.56525L25.4802 5.66784L25.3775 5.43192H25.5985L25.9108 5.51916L26.3158 5.54207L26.6182 5.72149L27.1258 6.12926L28.0843 7.59568L29.4536 8.60797L31.1709 10.2154L31.3144 10.2821L31.3583 10.3102L31.3503 10.3849L31.3354 10.4667L31.3503 10.5257L31.4093 10.5335L31.5583 10.5128L31.6172 10.5257L31.9246 10.6898L32.8756 11.5024L33.1452 11.9485L33.0373 12.4458L33.2632 12.3125L33.5754 11.874L33.8348 11.7844L34.1246 11.8511L34.378 12.015L34.5652 12.2457L34.6317 12.492L34.4168 12.8997L33.9602 13.4866L33.5961 14.0888L33.6267 14.5429H33.709L33.7401 14.3735L33.8268 14.2531L33.9164 14.1634L33.9549 14.0838L34.0219 13.7788L34.1246 13.4586L34.2961 13.2558L34.824 12.9382L34.9598 12.6996L35.1906 12.802L35.4421 13.0126L35.6419 13.2637L35.7241 13.4942L35.8445 13.6738L36.6469 14.1351L37.0621 14.4683L37.5028 14.917L37.8464 15.4219L37.985 15.9196L38.0517 16.4116L38.3361 17.3547L38.4026 17.8471L38.2693 18.3983L37.9412 18.6805L37.5543 18.903L37.2366 19.3136L37.9799 19.0829L38.3952 18.8597L38.5798 18.5982L38.6055 18.4802L38.7233 18.1447L38.7438 17.9291L38.641 16.1805L38.7156 15.7425L38.9155 15.3839L39.0716 15.2734L39.2563 15.2349L39.4589 15.2734L39.6615 15.3839L40.2332 15.9063L40.3384 16.0473L40.241 16.1885L40.5741 16.6498L40.6794 16.9242L40.6948 17.2062L40.7613 17.5576L40.8947 17.8032H41.0972L41.0742 17.9215L41.0148 18.0111L40.9533 18.0623L40.9255 18.0549L40.9381 18.1521L41.0048 18.3443L41.0972 18.5085L41.3051 18.5595L41.5046 18.5828L41.5947 18.6883L41.5485 18.8597L41.4378 18.9471L41.3278 19.0675L41.2663 19.3136L41.2969 19.5288L41.3715 19.721L41.8559 20.4285L42.0046 20.7336L42.0764 21.0671L42.1019 21.5205L42.0557 21.8949L41.8175 22.6383L41.6844 22.9049Z" fill="#678B28" fill-opacity="0.4"/>
<path d="M40.7535 23.351L40.428 22.9715L40.478 22.9286L40.5374 22.9002L40.7535 23.351ZM40.4484 23.6126L39.9951 23.4016L40.0408 23.3035L40.123 23.233L40.4484 23.6126ZM40.2718 23.9921L39.7887 23.8632L39.8 23.8209L39.8185 23.7811L40.2718 23.9921ZM40.1664 24.3869L40.6495 24.5158L40.6377 24.5602L40.618 24.6017L40.1664 24.3869ZM40.0153 24.7047L40.4668 24.9195L40.4487 24.9575L40.4245 24.9919L40.0153 24.7047ZM39.8103 24.9967L40.2196 25.284L40.2009 25.3106L40.1789 25.3346L39.8103 24.9967ZM39.0207 25.8583L39.3893 26.1961L39.3258 26.2653L39.2416 26.3068L39.0207 25.8583ZM38.641 26.0452L38.2875 25.6917L38.3459 25.6332L38.4201 25.5967L38.641 26.0452ZM38.5435 26.1427L38.0593 26.018L38.0934 25.8857L38.19 25.7892L38.5435 26.1427ZM38.513 26.261L38.0184 26.3338L38.0037 26.2339L38.0289 26.1362L38.513 26.261ZM38.5514 26.522L39.0461 26.4492L39.0595 26.5404L39.0396 26.6303L38.5514 26.522ZM38.5287 26.6247L39.0168 26.733L38.9839 26.8815L38.8738 26.9865L38.5287 26.6247ZM38.4183 26.7301L38.7634 27.0918L38.6551 27.1951L38.5079 27.222L38.4183 26.7301ZM38.3361 26.745L38.4258 27.2369L38.343 27.252L38.2599 27.2392L38.3361 26.745ZM38.239 26.7301L38.0574 26.2642L38.1825 26.2154L38.3152 26.2359L38.239 26.7301ZM38.1284 26.7732L37.764 26.4309L37.8414 26.3484L37.9468 26.3073L38.1284 26.7732ZM37.9334 26.9808L37.4636 26.8097L37.4987 26.7133L37.5689 26.6385L37.9334 26.9808ZM37.8464 27.2196L37.3541 27.1325L37.3617 27.0895L37.3766 27.0485L37.8464 27.2196ZM37.754 27.7422L38.2463 27.8293L38.2367 27.8838L38.2154 27.9348L37.754 27.7422ZM37.6363 28.0242L38.0977 28.2168L38.0785 28.2628L38.0506 28.3041L37.6363 28.0242ZM37.1237 28.783L36.6627 28.5894L36.6818 28.544L36.7094 28.5031L37.1237 28.783ZM36.9802 29.1247L37.4412 29.3183L37.4245 29.3581L37.4011 29.3945L36.9802 29.1247ZM36.8853 29.2727L37.3062 29.5426L37.2326 29.6575L37.1108 29.719L36.8853 29.2727ZM36.6469 29.3931L36.1488 29.3499L36.1728 29.0724L36.4215 28.9468L36.6469 29.3931ZM36.6391 29.4832L36.1498 29.5863L36.1346 29.5138L36.141 29.44L36.6391 29.4832ZM36.6623 29.5933L37.1515 29.4902L37.1659 29.5583L37.1611 29.6278L36.6623 29.5933ZM36.6545 29.706L37.1533 29.7406L37.1448 29.8629L37.0807 29.9674L36.6545 29.706ZM35.0034 32.3977L35.4296 32.6591L35.3988 32.7094L35.3572 32.7511L35.0034 32.3977ZM34.8782 32.5231L35.2319 32.8765L35.1745 32.9339L35.1019 32.9702L34.8782 32.5231ZM34.7137 32.6054L34.9375 33.0525L34.8319 33.1054H34.7137V32.6054ZM34.6163 32.6054V33.1054H34.564L34.5127 33.0945L34.6163 32.6054ZM34.5192 32.5848L34.4251 32.0937L34.5242 32.0748L34.6228 32.0957L34.5192 32.5848ZM34.3704 32.6133L34.0456 32.2332L34.1463 32.1472L34.2763 32.1223L34.3704 32.6133ZM34.1246 32.8233L33.6646 32.6274L33.7106 32.5194L33.7998 32.4432L34.1246 32.8233ZM33.878 33.4023L34.338 33.5982L34.2845 33.7239L34.1745 33.8049L33.878 33.4023ZM33.4424 33.7231L32.9696 33.5604L33.0203 33.413L33.1459 33.3205L33.4424 33.7231ZM33.3603 33.9615L32.8604 33.9712L32.8587 33.8826L32.8875 33.7988L33.3603 33.9615ZM33.3657 34.2358L32.8781 34.3468L32.8668 34.2968L32.8658 34.2456L33.3657 34.2358ZM33.4858 34.7638L33.9734 34.6528L33.9989 34.7652L33.9728 34.8774L33.4858 34.7638ZM33.4631 34.8614L33.95 34.9751L33.9344 35.0418L33.9015 35.1018L33.4631 34.8614ZM32.6885 36.274L32.2197 36.1001L32.2325 36.0657L32.2501 36.0336L32.6885 36.274ZM32.622 36.4534L32.1495 36.6171L32.0908 36.4476L32.1532 36.2795L32.622 36.4534ZM32.6734 36.6018L32.2796 36.9099L32.2283 36.8443L32.201 36.7655L32.6734 36.6018ZM32.7657 36.7198L33.1595 36.4116L33.2456 36.5217L33.2622 36.6605L32.7657 36.7198ZM32.7782 36.8246L33.2747 36.7653L33.316 37.1113L33.0057 37.2698L32.7782 36.8246ZM32.6172 36.9068L32.8447 37.3521L32.809 37.3703L32.7709 37.3826L32.6172 36.9068ZM32.481 36.9509L32.1933 36.5419L32.2552 36.4983L32.3272 36.4751L32.481 36.9509ZM32.3862 37.0175L32.0555 36.6425L32.0761 36.6243L32.0986 36.6085L32.3862 37.0175ZM32.2937 37.099L31.8886 36.8059L31.9213 36.7608L31.9631 36.724L32.2937 37.099ZM32.212 37.212L31.7553 37.0085L31.7764 36.9611L31.8069 36.919L32.212 37.212ZM31.2605 39.3473L30.7721 39.2401L30.783 39.1903L30.8038 39.1438L31.2605 39.3473ZM31.1789 39.7193L31.6672 39.8264L31.6581 39.868L31.6421 39.9074L31.1789 39.7193ZM31.1403 39.8142L31.6036 40.0023L31.5501 40.1339L31.4354 40.2178L31.1403 39.8142ZM31.0454 39.8836L31.3405 40.2872L31.2792 40.332L31.2073 40.3566L31.0454 39.8836ZM30.7917 39.9704L30.4082 39.6496L30.4977 39.5425L30.6298 39.4973L30.7917 39.9704ZM30.7404 40.0317L30.2678 40.1951L30.1754 39.9278L30.3569 39.7109L30.7404 40.0317ZM30.7864 40.165L30.3714 40.4439L30.3351 40.3899L30.3139 40.3284L30.7864 40.165ZM30.9864 40.4627L31.4015 40.1838L31.4423 40.2446L31.464 40.3145L30.9864 40.4627ZM31.0301 40.6033L31.5076 40.4552L31.5358 40.5462L31.5286 40.6412L31.0301 40.6033ZM31.0175 40.7677L31.5161 40.8056L31.5066 40.9303L31.4396 41.0358L31.0175 40.7677ZM30.9557 40.8651L31.3778 41.1332L31.3555 41.1683L31.3277 41.1993L30.9557 40.8651ZM30.8889 40.9395L30.4604 40.6818L30.4851 40.6408L30.517 40.6053L30.8889 40.9395ZM30.8225 41.0499L30.3709 40.8354L30.3814 40.8132L30.394 40.7922L30.8225 41.0499ZM30.5608 41.6009L31.0125 41.8154L30.9941 41.854L30.9695 41.889L30.5608 41.6009ZM30.2049 42.1058L30.6135 42.3939L30.5798 42.4417L30.536 42.4804L30.2049 42.1058ZM29.7584 42.5004L29.3148 42.2697L29.3577 42.1873L29.4273 42.1258L29.7584 42.5004ZM29.4997 42.9978L29.9433 43.2285L29.9221 43.2693L29.8938 43.3055L29.4997 42.9978ZM29.3354 43.2082L29.7295 43.5159L29.6939 43.5614L29.649 43.5976L29.3354 43.2082ZM29.1256 43.377L29.4392 43.7665L29.412 43.7884L29.3819 43.8064L29.1256 43.377ZM27.7515 44.1973L28.0078 44.6266L27.9755 44.6459L27.9406 44.6601L27.7515 44.1973ZM27.2235 44.413L26.9164 44.0184L26.9707 43.9762L27.0344 43.9501L27.2235 44.413ZM27.0128 44.5769L26.5677 44.3491L26.6182 44.2504L26.7057 44.1823L27.0128 44.5769ZM26.8645 44.8666L26.3935 44.6989L26.4045 44.668L26.4194 44.6388L26.8645 44.8666ZM26.767 45.1406L27.238 45.3082L27.2139 45.3759L27.1718 45.4341L26.767 45.1406ZM26.6846 45.2542L27.0894 45.5477L27.0564 45.5931L27.0143 45.6301L26.6846 45.2542ZM26.5596 45.3638L26.8893 45.7397L26.8273 45.7941L26.7511 45.8257L26.5596 45.3638ZM26.4848 45.3948L26.6764 45.8567L26.515 45.9236L26.347 45.8755L26.4848 45.3948ZM26.3514 45.3566L26.2925 44.86L26.3925 44.8482L26.4892 44.8759L26.3514 45.3566ZM26.2899 45.3638L25.9583 44.9897L26.0755 44.8858L26.231 44.8673L26.2899 45.3638ZM26.2235 45.4227L25.8266 45.1186L25.8559 45.0804L25.8919 45.0485L26.2235 45.4227ZM26.1131 45.5668L26.5101 45.8709L26.4618 45.9339L26.3963 45.9789L26.1131 45.5668ZM26.039 45.6177L26.3222 46.0298L26.214 46.1042L26.0832 46.1158L26.039 45.6177ZM25.7774 45.6409L25.8215 46.139L25.7437 46.1458L25.6675 46.1287L25.7774 45.6409ZM25.3107 45.5358L25.3604 45.0383L25.3908 45.0413L25.4206 45.0481L25.3107 45.5358ZM24.7981 45.4847L24.7485 45.9822L24.5973 45.9671L24.48 45.8704L24.7981 45.4847ZM24.4189 45.1719L24.5812 44.699L24.667 44.7285L24.737 44.7862L24.4189 45.1719ZM24.1572 45.0821V44.5821H24.2406L24.3195 44.6092L24.1572 45.0821ZM23.9265 45.0821L23.8354 44.5905L23.8805 44.5821H23.9265V45.0821ZM22.4447 45.3566L22.5357 45.8482L22.5 45.8548L22.4637 45.8562L22.4447 45.3566ZM22.2528 45.3638L22.2717 45.8635L22.0846 45.8706L21.9389 45.753L22.2528 45.3638ZM22.1168 45.2542L21.8029 45.6434L21.4863 45.3881L21.6719 45.0261L22.1168 45.2542ZM22.209 45.0744L21.7641 44.8463L21.8119 44.753L21.8933 44.6867L22.209 45.0744ZM22.4293 44.895L22.1136 44.5073L22.1835 44.4504L22.2688 44.4215L22.4293 44.895ZM22.6706 44.8132L23.1701 44.8347L23.1554 45.1769L22.8311 45.2868L22.6706 44.8132ZM22.6756 44.6952L22.9959 44.3112L23.1858 44.4695L23.1752 44.7166L22.6756 44.6952ZM21.9011 44.0492L21.5809 44.4332L21.534 44.3942L21.4979 44.3449L21.9011 44.0492ZM21.5888 43.6234L21.916 43.2453L21.9586 43.2822L21.9919 43.3277L21.5888 43.6234ZM21.4938 43.5412L21.6418 43.0636L21.7419 43.0946L21.8211 43.1632L21.4938 43.5412ZM21.3295 43.4903L21.0981 43.0471L21.2807 42.9517L21.4775 43.0127L21.3295 43.4903ZM21.2707 43.521L20.8168 43.3113L20.8882 43.1567L21.0393 43.0778L21.2707 43.521ZM21.2398 43.5878L21.6937 43.7975L21.668 43.8532L21.6296 43.9009L21.2398 43.5878ZM20.9065 44.0028L21.2963 44.3159L21.2549 44.3674L21.2015 44.4065L20.9065 44.0028ZM20.7629 44.1077L21.0579 44.5114L21.0005 44.5534L20.9336 44.5776L20.7629 44.1077ZM20.3325 44.2641L20.0365 43.8611L20.0943 43.8186L20.1618 43.7941L20.3325 44.2641ZM19.8787 44.5974L20.1747 45.0003L20.1345 45.0299L20.0893 45.0509L19.8787 44.5974ZM19.7455 44.6592L19.9561 45.1127L19.8662 45.1545L19.7672 45.1587L19.7455 44.6592ZM19.2766 44.6795L19.1597 44.1934L19.2067 44.1821L19.2549 44.18L19.2766 44.6795ZM19.0302 44.7388L19.1472 45.2249L19.0139 45.2569L18.883 45.2166L19.0302 44.7388ZM18.8381 44.6795L18.6908 45.1573L18.6372 45.1408L18.5886 45.1128L18.8381 44.6795ZM18.4507 44.4565L18.557 43.9679L18.6329 43.9844L18.7002 44.0232L18.4507 44.4565ZM18.2507 44.413L18.2694 43.9134L18.3137 43.915L18.357 43.9244L18.2507 44.413ZM17.8331 44.3974L17.8144 44.897L17.7762 44.8956L17.7388 44.8884L17.8331 44.3974ZM17.6331 44.359L17.5388 44.85L17.4854 44.8397L17.4354 44.8182L17.6331 44.359ZM16.8054 44.0028L16.8163 43.5029L16.9136 43.505L17.0031 43.5435L16.8054 44.0028ZM16.4512 43.9951L16.4403 44.495L16.2952 44.4918L16.1743 44.4114L16.4512 43.9951ZM16.3742 43.9439L16.0973 44.3603L15.8467 44.1936L15.8767 43.8941L16.3742 43.9439ZM16.3824 43.862L15.8849 43.8122L15.8941 43.7202L15.9356 43.6375L16.3824 43.862ZM16.5023 43.6234L17.0019 43.6441L16.9974 43.7516L16.9491 43.8478L16.5023 43.6234ZM16.5075 43.4977L16.9145 43.2073L17.0142 43.347L17.0071 43.5184L16.5075 43.4977ZM16.3742 43.3109L16.4997 42.8269L16.6756 42.8725L16.7812 43.0205L16.3742 43.3109ZM16.1744 43.2591L16.05 42.7748L16.175 42.7427L16.2998 42.7751L16.1744 43.2591ZM15.9436 43.3183L15.6926 42.8859L15.7524 42.8512L15.8193 42.834L15.9436 43.3183ZM15.736 43.4389L15.3532 43.1172L15.4094 43.0503L15.4849 43.0065L15.736 43.4389ZM15.6003 43.6003L15.1642 43.3558L15.1872 43.3147L15.2175 43.2787L15.6003 43.6003ZM15.4824 43.8107L15.9185 44.0552L15.9046 44.0799L15.8881 44.1029L15.4824 43.8107ZM15.3644 43.9745L15.7701 44.2667L15.6696 44.4063L15.5045 44.4545L15.3644 43.9745ZM15.2158 44.0179L15.3559 44.4978L15.3004 44.514L15.2427 44.5171L15.2158 44.0179ZM14.9234 44.0336L14.5459 43.7058L14.6849 43.5457L14.8965 43.5343L14.9234 44.0336ZM14.7696 44.2107L14.326 43.98L14.3533 43.9275L14.3921 43.8829L14.7696 44.2107ZM14.6644 44.413L15.1081 44.6437L15.0559 44.744L14.9656 44.8122L14.6644 44.413ZM14.5081 44.531L14.8092 44.9301L14.6571 45.0448L14.4673 45.0293L14.5081 44.531ZM14.2568 44.5104L14.216 45.0087L14.1584 45.004L14.1034 44.9863L14.2568 44.5104ZM14.1135 44.4642L13.758 44.1126L13.9742 43.8939L14.2669 43.9883L14.1135 44.4642ZM14.0547 44.5235L13.5549 44.5103L13.5601 44.3126L13.6992 44.1719L14.0547 44.5235ZM14.0467 44.8282L14.5465 44.8415L14.544 44.9347L14.5081 45.0208L14.0467 44.8282ZM13.9568 45.0434L14.4182 45.236L14.3627 45.3692L14.2447 45.4523L13.9568 45.0434ZM13.7342 45.2002L14.022 45.609L13.965 45.6492L13.8992 45.6722L13.7342 45.2002ZM13.2213 45.3795L12.9178 44.9822L12.9811 44.9338L13.0563 44.9075L13.2213 45.3795ZM13.1545 45.4305L12.7966 45.0814L12.822 45.0553L12.851 45.0332L13.1545 45.4305ZM13.037 45.5511L13.3949 45.9002L13.2965 46.0011L13.1599 46.0357L13.037 45.5511ZM12.9548 45.5719L13.0777 46.0566L12.9406 46.0913L12.8057 46.0491L12.9548 45.5719ZM12.8882 45.5511L12.739 46.0283L12.6579 46.003L12.5897 45.9522L12.8882 45.5511ZM12.7676 45.4614L12.8239 44.9645L12.9579 44.9797L13.0661 45.0602L12.7676 45.4614ZM12.7009 45.4538V44.9538H12.7292L12.7572 44.957L12.7009 45.4538ZM12.4473 45.4538L12.1673 45.0396L12.2941 44.9538H12.4473V45.4538ZM12.3601 45.5128L11.9254 45.2658L11.9831 45.1641L12.08 45.0986L12.3601 45.5128ZM12.2626 45.6844L11.7892 45.5234L11.8044 45.4785L11.8279 45.4374L12.2626 45.6844ZM12.0908 46.1893L12.5642 46.3503L12.5266 46.4608L12.4439 46.5433L12.0908 46.1893ZM11.9264 46.3533L12.2795 46.7073L12.1654 46.8211L12.0064 46.8469L11.9264 46.3533ZM11.642 46.3994L11.722 46.893L11.612 46.9108L11.5048 46.8802L11.642 46.3994ZM11.4806 46.3533L11.3434 46.8341L11.2446 46.8059L11.1649 46.7411L11.4806 46.3533ZM11.3706 46.2638L11.0549 46.6515L11.0161 46.62L10.9844 46.5813L11.3706 46.2638ZM10.9805 45.7893L11.1425 45.3163L11.2767 45.3622L11.3667 45.4718L10.9805 45.7893ZM10.914 45.7665L10.8738 45.2682L10.9775 45.2598L11.076 45.2935L10.914 45.7665ZM10.7219 45.782L10.6171 45.2932L10.6491 45.2863L10.6817 45.2837L10.7219 45.782ZM10.4834 45.8332L10.3321 45.3566L10.355 45.3494L10.3785 45.3443L10.4834 45.8332ZM10.2734 45.8999L10.4247 46.3764L10.4041 46.383L10.3831 46.3877L10.2734 45.8999ZM10.0679 45.9461L10.1777 46.4339L10.0906 46.4535L10.0022 46.4417L10.0679 45.9461ZM9.44768 45.8638L9.38193 46.3595L9.34756 46.3549L9.31416 46.3456L9.44768 45.8638ZM9.33728 45.8332L9.20375 46.3151L9.14704 46.2993L9.09554 46.2709L9.33728 45.8332ZM9.18924 45.7514L8.9475 46.1891L8.89424 46.1597L8.84959 46.1184L9.18924 45.7514ZM8.87585 45.4614L9.14826 45.0421L9.18412 45.0654L9.2155 45.0944L8.87585 45.4614ZM8.71454 45.3566L8.79393 44.8629L8.89831 44.8797L8.98695 44.9373L8.71454 45.3566ZM8.63278 45.3434L8.56226 44.8484L8.63732 44.8377L8.71217 44.8497L8.63278 45.3434ZM8.54046 45.3566L8.61098 45.8516L8.56473 45.8581L8.51806 45.8561L8.54046 45.3566ZM8.3634 45.3486L8.34099 45.8481L8.28993 45.8458L8.24038 45.8332L8.3634 45.3486ZM8.25312 45.3206L8.13011 45.8053L8.0736 45.7909L8.0219 45.7639L8.25312 45.3206ZM8.06589 45.223L8.18898 44.7384L8.24545 44.7527L8.29711 44.7796L8.06589 45.223ZM7.97619 45.2002L8.03312 44.7034L8.06661 44.7073L8.09928 44.7156L7.97619 45.2002ZM7.45592 45.1406L7.39898 45.6373L7.30504 45.6265L7.22151 45.5822L7.45592 45.1406ZM7.26336 45.0384L7.02895 45.48L6.95181 45.4391L6.89312 45.3744L7.26336 45.0384ZM7.03304 44.7846L7.32439 44.3783L7.36757 44.4092L7.40327 44.4486L7.03304 44.7846ZM6.60742 44.4794L6.31606 44.8858L6.1714 44.782L6.12483 44.6102L6.60742 44.4794ZM6.57135 44.3464L6.08876 44.4771L5.9404 43.9298L6.50206 43.8512L6.57135 44.3464ZM6.84581 44.3079L7.19947 43.9545L7.90863 44.6641L6.91511 44.8031L6.84581 44.3079ZM6.63046 44.0925L6.91906 43.6842L6.95393 43.7088L6.98412 43.739L6.63046 44.0925ZM6.37645 43.9129L6.55422 43.4456L6.61337 43.4681L6.66504 43.5046L6.37645 43.9129ZM6.08689 43.8028L6.12211 43.304L6.19571 43.3092L6.26466 43.3354L6.08689 43.8028ZM5.75879 43.7796L5.72356 44.2784L4.76886 44.2109L5.36952 43.4658L5.75879 43.7796ZM5.95096 43.5412L5.56169 43.2274L5.67571 43.086L5.85393 43.0507L5.95096 43.5412ZM6.13063 43.5057L6.0336 43.0152L6.15668 42.9908L6.27667 43.0275L6.13063 43.5057ZM6.54076 43.6309L6.58714 44.1288L6.48899 44.1379L6.39472 44.1091L6.54076 43.6309ZM6.7867 43.608L7.10501 43.9936L6.98633 44.0916L6.83309 44.1058L6.7867 43.608ZM6.92028 43.4977L7.38396 43.6848L7.33647 43.8025L7.2386 43.8833L6.92028 43.4977ZM7.25333 42.6723L6.78965 42.4852L6.85094 42.3333L6.99023 42.2471L7.25333 42.6723ZM7.37389 42.5977L7.1108 42.1725L7.13013 42.1605L7.15046 42.1504L7.37389 42.5977ZM7.50709 42.5311L7.28365 42.0838L7.38278 42.0343L7.49354 42.0313L7.50709 42.5311ZM7.77607 42.5238L7.8389 43.0199L7.81436 43.023L7.78962 43.0237L7.77607 42.5238ZM7.96108 42.5004L8.14453 42.9655L8.08616 42.9886L8.02391 42.9964L7.96108 42.5004ZM8.10964 42.4418L8.46418 42.7944L8.39041 42.8686L8.29308 42.907L8.10964 42.4418ZM8.68863 41.8596L9.10171 42.1413L9.07571 42.1794L9.04317 42.2121L8.68863 41.8596ZM8.89135 41.5623L9.35621 41.7465L9.33574 41.7981L9.30443 41.8441L8.89135 41.5623ZM9.36553 40.3653L8.90067 40.1811L8.90855 40.1613L8.9181 40.1421L9.36553 40.3653ZM9.79909 39.4961L9.35166 39.2729L9.37141 39.2333L9.39781 39.1978L9.79909 39.4961ZM10.6909 38.2963L11.1366 38.5229L11.1175 38.5607L11.0922 38.5946L10.6909 38.2963ZM10.7886 38.1043L11.2622 38.2647L11.2506 38.2988L11.2343 38.3309L10.7886 38.1043ZM10.9805 37.5377L10.5069 37.3773L10.5384 37.2845L10.6025 37.2104L10.9805 37.5377ZM11.0628 37.4426L10.6848 37.1153L10.7435 37.0476L10.822 37.0044L11.0628 37.4426ZM11.2116 37.3608L11.5305 36.9757L12.0971 37.4448L11.4524 37.7991L11.2116 37.3608ZM11.0474 37.2249L10.7286 37.6101L10.7012 37.5874L10.6773 37.5611L11.0474 37.2249ZM10.9753 37.1455L10.6052 37.4817L10.5256 37.394L10.4937 37.28L10.9753 37.1455ZM10.9524 37.0635L10.4708 37.198L10.4481 37.1168L10.4533 37.0326L10.9524 37.0635ZM10.9603 36.9352L10.4613 36.9043L10.465 36.845L10.4825 36.7881L10.9603 36.9352ZM11.0038 36.794L10.5259 36.6469L10.549 36.5719L10.5939 36.5076L11.0038 36.794ZM11.1755 36.5482L11.6151 36.7864L11.6016 36.8113L11.5854 36.8345L11.1755 36.5482ZM11.2116 36.4816L11.6977 36.5987L11.6824 36.6623L11.6512 36.7199L11.2116 36.4816ZM11.3012 36.1096L11.8007 36.0869L11.8039 36.1578L11.7873 36.2267L11.3012 36.1096ZM11.2934 35.938L11.4396 35.4599L11.7768 35.5631L11.7929 35.9153L11.2934 35.938ZM11.227 35.9177L11.0807 36.3959L10.9475 36.3551L10.8546 36.2514L11.227 35.9177ZM11.0934 35.7687L10.721 36.1023L10.6598 36.034L10.6268 35.9485L11.0934 35.7687ZM11.0272 35.5971L10.5607 35.7769L10.4078 35.3801L10.7748 35.1654L11.0272 35.5971ZM11.1677 35.5149L11.5714 35.81L11.5099 35.894L11.4201 35.9465L11.1677 35.5149ZM11.2219 35.4408L11.7198 35.3955L11.7369 35.5835L11.6255 35.7359L11.2219 35.4408ZM11.2063 35.2691L11.6883 35.1364L11.7002 35.1794L11.7042 35.2238L11.2063 35.2691ZM11.1244 34.9715L11.5117 34.6552L11.5784 34.737L11.6065 34.8388L11.1244 34.9715ZM11.1012 34.9431L11.3813 34.5289L11.4421 34.57L11.4885 34.6268L11.1012 34.9431ZM10.9805 34.8614L11.161 34.3952L11.2138 34.4156L11.2606 34.4473L10.9805 34.8614ZM10.9603 34.8536L10.7798 35.3199L10.2835 35.1278L10.5062 34.6444L10.9603 34.8536ZM10.9909 34.7872L10.5368 34.578L10.5797 34.4849L10.6557 34.4162L10.9909 34.7872ZM11.0422 34.7409L10.707 34.3699L10.7503 34.3308L10.8014 34.3027L11.0422 34.7409ZM11.0934 34.7128L11.4469 35.0663L11.3966 35.1167L11.3342 35.1509L11.0934 34.7128ZM11.1244 34.6818L11.6213 34.7368L11.602 34.9112L11.4779 35.0353L11.1244 34.6818ZM11.1525 34.4278L11.6499 34.3767L11.6553 34.4298L11.6495 34.4828L11.1525 34.4278ZM11.1244 34.1537L11.5256 33.8553L11.6077 33.9657L11.6218 34.1026L11.1244 34.1537ZM10.9909 33.9743L10.9107 33.4808L11.2107 33.432L11.3921 33.6759L10.9909 33.9743ZM10.7066 34.0205L10.7868 34.514L9.90463 34.6574L10.244 33.8306L10.7066 34.0205ZM10.9603 33.4023L10.4978 33.2124L10.5134 33.1745L10.5349 33.1396L10.9603 33.4023ZM11.1296 33.1282L10.7042 32.8655L10.7218 32.837L10.743 32.8111L11.1296 33.1282ZM11.5755 32.5848L11.9935 32.8591L11.9789 32.8814L11.962 32.902L11.5755 32.5848ZM11.8985 32.0925L11.4805 31.8182L11.5317 31.7402L11.6075 31.6859L11.8985 32.0925ZM12.3139 31.7953L12.7416 32.0542L12.6884 32.1421L12.6049 32.2019L12.3139 31.7953ZM12.4395 31.5877L12.9076 31.7634L12.8913 31.8069L12.8672 31.8467L12.4395 31.5877ZM12.5291 31.3491L13.024 31.4202L13.0163 31.474L12.9972 31.5248L12.5291 31.3491ZM12.5601 31.1335L12.0651 31.0624L12.0708 31.0227L12.0828 30.9845L12.5601 31.1335ZM12.6111 30.97L12.1338 30.821L12.1691 30.7078L12.2515 30.6225L12.6111 30.97ZM13.0569 30.5085L13.5197 30.6979L13.4833 30.7868L13.4165 30.8559L13.0569 30.5085ZM13.2573 30.0189L13.7569 29.9992L13.7611 30.1077L13.72 30.2082L13.2573 30.0189ZM13.2213 29.1037L12.7217 29.1233L12.7195 29.0667L12.73 29.011L13.2213 29.1037ZM13.3186 28.5883L12.8273 28.4955L12.8345 28.4572L12.8476 28.4204L13.3186 28.5883ZM13.4162 28.3142L13.9152 28.3461L13.9108 28.416L13.8872 28.482L13.4162 28.3142ZM13.4287 28.1188L13.8758 27.8948L13.9364 28.0157L13.9277 28.1507L13.4287 28.1188ZM13.3547 27.9709L13.7158 27.6251L13.768 27.6795L13.8017 27.7469L13.3547 27.9709ZM13.1851 27.7938L13.3472 27.3208L13.4622 27.3602L13.5463 27.448L13.1851 27.7938ZM13.0727 27.7552L13.0136 27.2587L13.1268 27.2453L13.2347 27.2822L13.0727 27.7552ZM12.9445 27.7705L12.7815 27.2978L12.8322 27.2803L12.8855 27.274L12.9445 27.7705ZM12.811 27.8166L12.974 28.2892L12.9314 28.3039L12.8868 28.3108L12.811 27.8166ZM12.6778 27.837L12.7536 28.3312L12.2363 28.4106L12.1806 27.8902L12.6778 27.837ZM12.6698 27.7628L13.0883 27.4891L13.1542 27.5899L13.167 27.7096L12.6698 27.7628ZM12.3881 27.332L11.9696 27.6056L11.9288 27.5433L11.908 27.4717L12.3881 27.332ZM12.1344 26.4608L12.4983 26.1179L12.5809 26.2055L12.6145 26.3211L12.1344 26.4608ZM12.0087 26.3274L11.6448 26.6703L11.6178 26.6417L11.5957 26.6092L12.0087 26.3274ZM11.7549 25.9555L12.0284 25.5369L12.1118 25.5914L12.1679 25.6737L11.7549 25.9555ZM11.6291 25.8734L11.7731 25.3945L11.8422 25.4153L11.9026 25.4548L11.6291 25.8734ZM11.2116 25.7479L11.0677 26.2267L11.0433 26.2194L11.0198 26.2096L11.2116 25.7479ZM11.0702 25.6891L10.8784 26.1509L10.8407 26.1352L10.8061 26.1137L11.0702 25.6891ZM10.9961 25.643L10.732 26.0676L10.6582 26.0216L10.6042 25.9535L10.9961 25.643ZM10.8782 25.4941L10.4862 25.8045L10.4533 25.763L10.4298 25.7155L10.8782 25.4941ZM10.7605 25.2557L11.1854 24.9922L11.1981 25.0127L11.2088 25.0344L10.7605 25.2557ZM10.668 25.1066L10.5787 24.6147L10.9136 24.5539L11.093 24.8431L10.668 25.1066ZM10.6243 25.1146L10.7136 25.6065L10.3405 25.6743L10.1746 25.3333L10.6243 25.1146ZM10.5732 25.0096L10.8004 24.5642L10.9496 24.6403L11.0229 24.791L10.5732 25.0096ZM10.3421 24.8918L10.115 25.3372L9.97623 25.2665L9.90219 25.1294L10.3421 24.8918ZM10.0374 24.3274L10.4061 23.9897L10.4479 24.0354L10.4773 24.0898L10.0374 24.3274ZM9.95533 24.2378L10.2651 23.8453L10.2968 23.8704L10.3241 23.9002L9.95533 24.2378ZM9.7836 24.1023L9.47383 24.4948L9.41846 24.4511L9.37734 24.3938L9.7836 24.1023ZM9.70456 23.9921L9.29831 24.2836L9.24987 24.2161L9.22587 24.1365L9.70456 23.9921ZM9.57606 23.5661L9.98606 23.2799L10.0317 23.3454L10.0548 23.4217L9.57606 23.5661ZM9.49391 23.4484L9.82729 23.0758L9.87062 23.1146L9.9039 23.1623L9.49391 23.4484ZM9.07857 23.0769L8.74519 23.4495L8.68604 23.3966L8.64618 23.3279L9.07857 23.0769ZM8.95814 22.8694L8.52575 23.1205L8.46382 23.0139L8.45859 22.8906L8.95814 22.8694ZM8.94551 22.5719L8.44596 22.5931L8.44277 22.518L8.46184 22.4452L8.94551 22.5719ZM8.99668 22.3766L8.513 22.2499L8.52062 22.2209L8.53166 22.1929L8.99668 22.3766ZM9.16073 21.9614L9.65188 22.0551L9.64306 22.1014L9.62575 22.1452L9.16073 21.9614ZM9.1964 21.7744L9.6866 21.6758L9.70589 21.7718L9.68755 21.868L9.1964 21.7744ZM9.14537 21.5205L9.44209 21.118L9.5975 21.2326L9.63556 21.4219L9.14537 21.5205ZM9.01699 21.4258L9.14918 20.9436L9.23887 20.9682L9.31371 21.0234L9.01699 21.4258ZM8.60713 21.3134L8.47493 21.7957L8.39251 21.7731L8.32228 21.7244L8.60713 21.3134ZM8.45818 21.2102L8.17333 21.6211L8.12638 21.5886L8.08797 21.5463L8.45818 21.2102ZM8.30949 21.0464L7.93928 21.3825L7.84776 21.2817L7.82 21.1484L8.30949 21.0464ZM8.26562 20.8358L7.77612 20.9377L7.73636 20.7468L7.83637 20.5793L8.26562 20.8358ZM8.4018 20.6078L8.86731 20.7903L8.85223 20.8287L8.83105 20.8642L8.4018 20.6078ZM8.48409 20.3979L8.98347 20.3729L8.98883 20.4803L8.94959 20.5804L8.48409 20.3979ZM8.46847 20.0853L8.95716 19.9796L8.9658 20.0195L8.96784 20.0603L8.46847 20.0853ZM8.35584 19.5648L8.80655 19.3483L8.83207 19.4014L8.84454 19.459L8.35584 19.5648ZM7.984 18.7906L7.53329 19.0071L7.50158 18.9411L7.49013 18.8687L7.984 18.7906ZM7.77607 17.4756L7.28221 17.5537L7.27219 17.4904L7.27849 17.4266L7.77607 17.4756ZM7.80693 17.1626L7.30934 17.1136L7.31935 17.012L7.36833 16.9226L7.80693 17.1626ZM8.05092 16.7168L8.53215 16.8525L8.51675 16.9071L8.48953 16.9569L8.05092 16.7168ZM8.10964 16.5086H8.60964V16.5778L8.59087 16.6444L8.10964 16.5086ZM8.10964 16.0085L8.60481 15.9392L8.60964 15.9737V16.0085H8.10964ZM8.08894 15.8606L8.55295 15.6744L8.57566 15.7309L8.58411 15.7913L8.08894 15.8606ZM7.93036 15.4656L7.46635 15.6519L7.43209 15.5665L7.43044 15.4746L7.93036 15.4656ZM7.92502 15.1682L7.4251 15.1772L7.42435 15.1351L7.43064 15.0935L7.92502 15.1682ZM7.96108 14.9297H8.46108V14.9673L8.45547 15.0045L7.96108 14.9297ZM7.96108 14.7224L8.37744 14.4456L8.46108 14.5714V14.7224H7.96108ZM7.81253 14.499L8.05666 14.0627L8.16203 14.1216L8.22889 14.2222L7.81253 14.499ZM7.69431 14.4329L7.8403 13.9547L7.89161 13.9703L7.93844 13.9965L7.69431 14.4329ZM7.56594 14.3937L7.41995 14.8719L7.34656 14.8495L7.28326 14.8061L7.56594 14.3937ZM7.46868 14.327L7.186 14.7395L7.02257 14.6274L6.98023 14.4339L7.46868 14.327ZM7.43287 14.1634L6.94443 14.2702L6.93287 14.2174V14.1634H7.43287ZM7.43287 12.6535L7.88309 12.436L7.93287 12.539V12.6535H7.43287ZM7.35111 12.4842L6.90089 12.7017L6.86565 12.6288L6.85525 12.5484L7.35111 12.4842ZM7.33549 12.3635L6.83962 12.4277L6.822 12.2915L6.87638 12.1655L7.33549 12.3635ZM7.38952 12.2383L6.93041 12.0402L6.98761 11.9076L7.10667 11.826L7.38952 12.2383ZM7.71501 12.015L8.08338 12.3531L8.04485 12.3951L7.99786 12.4273L7.71501 12.015ZM7.77607 11.9485L8.27278 12.0058L8.25417 12.167L8.14444 12.2865L7.77607 11.9485ZM7.79678 11.769L8.28471 11.6599L8.30317 11.7424L8.29348 11.8264L7.79678 11.769ZM7.68663 11.2768L7.19869 11.3859L7.1764 11.2863L7.19496 11.1859L7.68663 11.2768ZM7.72504 11.069L7.23336 10.9781L7.24131 10.9351L7.25661 10.8941L7.72504 11.069ZM7.79678 10.8768L7.32835 10.7019L7.34714 10.6516L7.3762 10.6064L7.79678 10.8768ZM8.02254 10.5257L7.60197 10.2552L7.62286 10.2227L7.64851 10.1938L8.02254 10.5257ZM8.68863 9.7748L9.12443 10.0199L9.09819 10.0666L9.06266 10.1066L8.68863 9.7748ZM8.73498 9.69239L9.22174 9.80669L9.20553 9.8757L9.17078 9.93749L8.73498 9.69239ZM8.76623 9.55933L8.27947 9.44502L8.29822 9.36516L8.34151 9.29548L8.76623 9.55933ZM8.81726 9.47717L8.39254 9.21333L8.45189 9.11779L8.54643 9.05687L8.81726 9.47717ZM9.01204 9.35166L9.40253 9.66394L9.35152 9.72772L9.28288 9.77195L9.01204 9.35166ZM9.08378 9.26195L9.56316 9.40405L9.53536 9.49784L9.47427 9.57423L9.08378 9.26195ZM9.22739 8.77748L8.748 8.63539L8.77065 8.55899L8.81592 8.49342L9.22739 8.77748ZM9.4788 8.41332L9.06733 8.12925L9.09241 8.09293L9.12346 8.06157L9.4788 8.41332ZM10.0015 7.88524L9.6462 7.53349L9.67534 7.50405L9.70893 7.47981L10.0015 7.88524ZM10.9603 7.19324L11.3243 7.53606L11.2916 7.57077L11.2529 7.59867L10.9603 7.19324ZM11.2116 6.92646L10.8476 6.58364L10.9098 6.51768L10.9911 6.47772L11.2116 6.92646ZM11.227 6.91891L11.0064 6.47017L11.0319 6.45764L11.0587 6.44808L11.227 6.91891ZM11.6219 6.77778L11.9039 7.19064L11.8507 7.22694L11.7901 7.24861L11.6219 6.77778ZM11.9933 6.52402L12.3469 6.87757L12.3139 6.91056L12.2754 6.93688L11.9933 6.52402ZM12.3217 6.19566L12.7343 6.47801L12.7081 6.51636L12.6752 6.54922L12.3217 6.19566ZM12.5601 5.84726L13.0255 6.02994L13.0048 6.08277L12.9727 6.12961L12.5601 5.84726ZM12.8931 4.99875L12.4277 4.81607L12.4429 4.77736L12.4642 4.7417L12.8931 4.99875ZM13.1467 4.57561L13.6243 4.72382L13.6065 4.78116L13.5756 4.83266L13.1467 4.57561ZM13.2135 4.36039L13.7128 4.38819L13.7093 4.44973L13.6911 4.5086L13.2135 4.36039ZM13.2877 3.02756L12.7885 2.99976L12.7921 2.93481L12.8122 2.87296L13.2877 3.02756ZM13.4445 2.54544L12.969 2.39083L12.9946 2.31216L13.0441 2.24591L13.4445 2.54544ZM13.7342 2.15823L13.3338 1.8587L13.3865 1.78834L13.46 1.74014L13.7342 2.15823ZM13.9726 2.00187L13.6983 1.58377L13.7243 1.56676L13.7521 1.55309L13.9726 2.00187ZM14.411 1.78651L14.7452 2.15837L14.6936 2.20472L14.6314 2.23529L14.411 1.78651ZM14.6105 1.6071L14.2763 1.23525L14.408 1.1169L14.5848 1.10777L14.6105 1.6071ZM14.7592 1.59942L14.7334 1.10009L14.8009 1.0966L14.8668 1.11113L14.7592 1.59942ZM15.3644 1.73275L15.472 1.24446L15.5079 1.25238L15.5424 1.26549L15.3644 1.73275ZM15.5797 1.81477L15.7577 1.34751L15.8699 1.39025L15.9505 1.47928L15.5797 1.81477ZM15.6541 1.89692L16.0248 1.56144L16.0642 1.60495L16.0924 1.6564L15.6541 1.89692ZM15.7722 2.11214L15.5544 2.56222L15.4106 2.49266L15.3338 2.35266L15.7722 2.11214ZM16.1591 2.29937L16.0743 2.79211L16.0048 2.78015L15.9413 2.74945L16.1591 2.29937ZM16.2922 2.32228L16.377 1.82953L16.4604 1.84389L16.5345 1.88491L16.2922 2.32228ZM16.4127 2.38907L16.655 1.9517L16.7065 1.98019L16.7499 2.01983L16.4127 2.38907ZM16.7692 2.71456L16.4763 3.11977L16.4532 3.10305L16.4321 3.0838L16.7692 2.71456ZM16.9252 2.82732L16.7588 3.29881L16.6907 3.2748L16.6323 3.23253L16.9252 2.82732ZM18.3996 3.34771L18.566 2.87622L18.5975 2.88734L18.6272 2.90255L18.3996 3.34771ZM18.851 3.57856L19.0786 3.1334L19.1176 3.15334L19.1526 3.17977L18.851 3.57856ZM19.1865 3.83231L19.4881 3.43352L19.5122 3.45174L19.5339 3.47272L19.1865 3.83231ZM19.4865 4.12214L19.2291 4.5508L19.1801 4.5214L19.139 4.48172L19.4865 4.12214ZM19.6484 4.21939L19.5252 4.70396L19.454 4.68586L19.391 4.64805L19.6484 4.21939ZM20.9885 4.56025L20.958 5.05932L20.911 5.05644L20.8653 5.04482L20.9885 4.56025ZM21.2398 4.57561L21.3197 5.06919L21.2648 5.07807L21.2093 5.07468L21.2398 4.57561ZM21.9834 4.45531L21.9035 3.96173L21.994 3.9471L22.0837 3.96548L21.9834 4.45531ZM22.209 4.50153L22.3094 4.0117L22.5042 4.05161L22.6184 4.21444L22.209 4.50153ZM22.5218 4.94746L22.2017 5.3316L22.1506 5.28902L22.1124 5.23455L22.5218 4.94746ZM22.7371 5.12687L22.8963 5.60086L22.6316 5.68974L22.4171 5.51102L22.7371 5.12687ZM23.0039 5.03729L23.3892 5.3559L23.2983 5.46586L23.163 5.51128L23.0039 5.03729ZM23.1164 4.90124L23.5656 5.12075L23.5395 5.17409L23.5017 5.21984L23.1164 4.90124ZM23.1527 4.8269L22.7035 4.60738L22.7883 4.43378L22.9678 4.36233L23.1527 4.8269ZM23.2037 4.80658L23.0189 4.34202L23.1343 4.29609L23.2578 4.30951L23.2037 4.80658ZM23.3906 4.8269L23.4446 4.32982L23.4803 4.33371L23.5152 4.34267L23.3906 4.8269ZM23.511 4.85788L23.6356 4.37365L23.7014 4.39058L23.7603 4.42444L23.511 4.85788ZM23.5778 4.89629L23.8271 4.46285L23.8445 4.47291L23.8612 4.48435L23.5778 4.89629ZM23.7267 4.99875L23.502 5.44539L23.4715 5.43005L23.4434 5.41069L23.7267 4.99875ZM24.5418 5.40887L24.3773 5.88103L24.3463 5.87025L24.317 5.85552L24.5418 5.40887ZM24.9906 5.56525L24.888 6.05462L24.8565 6.04801L24.8261 6.03741L24.9906 5.56525ZM25.4802 5.66784L25.9387 5.46823L26.3251 6.35571L25.3777 6.15722L25.4802 5.66784ZM25.3775 5.43192L24.9191 5.63153L24.6145 4.93192H25.3775V5.43192ZM25.5985 5.43192V4.93192H25.667L25.733 4.95035L25.5985 5.43192ZM25.9108 5.51916L25.8826 6.01836L25.8285 6.0153L25.7763 6.00072L25.9108 5.51916ZM26.3158 5.54207L26.3441 5.04287L26.466 5.04976L26.571 5.11209L26.3158 5.54207ZM26.6182 5.72149L26.8733 5.2915L26.9037 5.30954L26.9313 5.33167L26.6182 5.72149ZM27.1258 6.12926L27.4389 5.73945L27.5009 5.7892L27.5443 5.8557L27.1258 6.12926ZM28.0843 7.59568L27.7871 7.99774L27.7149 7.94438L27.6658 7.86924L28.0843 7.59568ZM29.4536 8.60797L29.7508 8.20591L29.7741 8.22313L29.7953 8.24293L29.4536 8.60797ZM31.1709 10.2154L30.9602 10.6688L30.8877 10.6351L30.8292 10.5804L31.1709 10.2154ZM31.3144 10.2821L31.5251 9.82861L31.5557 9.84285L31.5842 9.86109L31.3144 10.2821ZM31.3583 10.3102L31.6281 9.88921L31.8881 10.0559L31.8555 10.363L31.3583 10.3102ZM31.3503 10.3849L31.8475 10.4378L31.8455 10.4565L31.8422 10.475L31.3503 10.3849ZM31.3354 10.4667L30.8507 10.5897L30.8239 10.4839L30.8435 10.3766L31.3354 10.4667ZM31.3503 10.5257L31.2847 11.0213L30.949 10.9769L30.8657 10.6487L31.3503 10.5257ZM31.4093 10.5335L31.4781 11.0287L31.4109 11.038L31.3437 11.0291L31.4093 10.5335ZM31.5583 10.5128L31.4894 10.0175L31.5778 10.0052L31.665 10.0243L31.5583 10.5128ZM31.6172 10.5257L31.724 10.0372L31.7917 10.052L31.8528 10.0846L31.6172 10.5257ZM31.9246 10.6898L32.1602 10.2488L32.2081 10.2744L32.2495 10.3097L31.9246 10.6898ZM32.8756 11.5024L33.2004 11.1223L33.2618 11.1747L33.3035 11.2437L32.8756 11.5024ZM33.1452 11.9485L33.5731 11.6898L33.6761 11.8601L33.6339 12.0545L33.1452 11.9485ZM33.0373 12.4458L33.2915 12.8764L32.306 13.458L32.5487 12.3398L33.0373 12.4458ZM33.2632 12.3125L33.6705 12.6025L33.6089 12.6891L33.5173 12.7431L33.2632 12.3125ZM33.5754 11.874L33.1681 11.584L33.2609 11.4536L33.4122 11.4014L33.5754 11.874ZM33.8348 11.7844L33.6715 11.3118L33.8071 11.265L33.9469 11.2971L33.8348 11.7844ZM34.1246 11.8511L34.2367 11.3638L34.3224 11.3835L34.3962 11.4313L34.1246 11.8511ZM34.378 12.015L34.6496 11.5952L34.7162 11.6383L34.7662 11.6999L34.378 12.015ZM34.5652 12.2457L34.9534 11.9306L35.0202 12.013L35.0479 12.1153L34.5652 12.2457ZM34.6317 12.492L35.1144 12.3617L35.1657 12.5514L35.074 12.7253L34.6317 12.492ZM34.4168 12.8997L34.859 13.1329L34.8385 13.1719L34.8114 13.2067L34.4168 12.8997ZM33.9602 13.4866L33.5323 13.2279L33.5475 13.2028L33.5655 13.1796L33.9602 13.4866ZM33.5961 14.0888L33.0973 14.1224L33.0867 13.965L33.1682 13.8301L33.5961 14.0888ZM33.6267 14.5429V15.0429H33.1593L33.1278 14.5765L33.6267 14.5429ZM33.709 14.5429L34.2008 14.6333L34.1255 15.0429H33.709V14.5429ZM33.7401 14.3735L33.2484 14.2832L33.2687 14.1726L33.3343 14.0814L33.7401 14.3735ZM33.8268 14.2531L33.4211 13.9609L33.4446 13.9283L33.473 13.8998L33.8268 14.2531ZM33.9164 14.1634L34.3664 14.3814L34.3297 14.4571L34.2702 14.5167L33.9164 14.1634ZM33.9549 14.0838L34.4433 14.191L34.4307 14.2487L34.4049 14.3018L33.9549 14.0838ZM34.0219 13.7788L33.5335 13.6716L33.5385 13.6485L33.5458 13.626L34.0219 13.7788ZM34.1246 13.4586L33.6485 13.3059L33.6788 13.2115L33.7427 13.1358L34.1246 13.4586ZM34.2961 13.2558L33.9142 12.933L33.9675 12.8699L34.0383 12.8273L34.2961 13.2558ZM34.824 12.9382L35.2586 13.1855L35.1939 13.2992L35.0817 13.3667L34.824 12.9382ZM34.9598 12.6996L34.5252 12.4523L34.749 12.059L35.1627 12.2426L34.9598 12.6996ZM35.1906 12.802L35.3935 12.345L35.4578 12.3735L35.5117 12.4187L35.1906 12.802ZM35.4421 13.0126L35.7631 12.6292L35.8018 12.6617L35.8333 12.7012L35.4421 13.0126ZM35.6419 13.2637L36.0332 12.9524L36.085 13.0175L36.1129 13.0958L35.6419 13.2637ZM35.7241 13.4942L35.3087 13.7726L35.274 13.7208L35.2531 13.6621L35.7241 13.4942ZM35.8445 13.6738L35.5953 14.1073L35.4941 14.0492L35.4292 13.9522L35.8445 13.6738ZM36.6469 14.1351L36.8961 13.7016L36.9297 13.7209L36.9598 13.7452L36.6469 14.1351ZM37.0621 14.4683L37.375 14.0783L37.3981 14.0968L37.4188 14.1179L37.0621 14.4683ZM37.5028 14.917L37.8595 14.5666L37.891 14.5986L37.9162 14.6357L37.5028 14.917ZM37.8464 15.4219L38.2598 15.1406L38.3061 15.2086L38.3281 15.2878L37.8464 15.4219ZM37.985 15.9196L38.4666 15.7856L38.4758 15.8185L38.4804 15.8524L37.985 15.9196ZM38.0517 16.4116L37.573 16.556L37.5616 16.5181L37.5563 16.4789L38.0517 16.4116ZM38.3361 17.3547L38.8148 17.2103L38.8263 17.2483L38.8316 17.2877L38.3361 17.3547ZM38.4026 17.8471L38.8981 17.7801L38.9107 17.8732L38.8886 17.9646L38.4026 17.8471ZM38.2693 18.3983L38.7553 18.5159L38.7174 18.6724L38.5953 18.7774L38.2693 18.3983ZM37.9412 18.6805L38.2672 19.0596L38.2314 19.0904L38.1905 19.1139L37.9412 18.6805ZM37.5543 18.903L37.1588 18.597L37.2193 18.5188L37.305 18.4695L37.5543 18.903ZM37.2366 19.3136L37.3848 19.7911L35.8717 20.2608L36.8411 19.0077L37.2366 19.3136ZM37.9799 19.0829L38.2165 19.5234L38.1741 19.5462L38.1281 19.5604L37.9799 19.0829ZM38.3952 18.8597L38.8037 19.1481L38.7357 19.2444L38.6319 19.3002L38.3952 18.8597ZM38.5798 18.5982L39.0684 18.7044L39.0468 18.8036L38.9883 18.8865L38.5798 18.5982ZM38.6055 18.4802L38.1169 18.374L38.1235 18.3437L38.1337 18.3145L38.6055 18.4802ZM38.7233 18.1447L39.2211 18.1919L39.2153 18.2527L39.1951 18.3104L38.7233 18.1447ZM38.7438 17.9291L39.2429 17.8998L39.2451 17.9381L39.2415 17.9763L38.7438 17.9291ZM38.641 16.1805L38.1419 16.2099L38.1385 16.1529L38.1481 16.0966L38.641 16.1805ZM38.7156 15.7425L38.2227 15.6586L38.2371 15.5741L38.2789 15.4992L38.7156 15.7425ZM38.9155 15.3839L38.4787 15.1405L38.534 15.0412L38.6268 14.9756L38.9155 15.3839ZM39.0716 15.2734L38.7829 14.8652L38.8677 14.8052L38.9695 14.784L39.0716 15.2734ZM39.2563 15.2349L39.1542 14.7454L39.2518 14.7251L39.3498 14.7437L39.2563 15.2349ZM39.4589 15.2734L39.5524 14.7823L39.6294 14.7969L39.6982 14.8344L39.4589 15.2734ZM39.6615 15.3839L39.9008 14.9448L39.954 14.9738L39.9988 15.0148L39.6615 15.3839ZM40.2332 15.9063L40.5705 15.5373L40.6056 15.5693L40.634 15.6073L40.2332 15.9063ZM40.3384 16.0473L40.7392 15.7483L40.9538 16.036L40.75 16.3313L40.3384 16.0473ZM40.241 16.1885L39.8356 16.4812L39.629 16.195L39.8295 15.9045L40.241 16.1885ZM40.5741 16.6498L40.9795 16.3571L41.0176 16.4099L41.0409 16.4706L40.5741 16.6498ZM40.6794 16.9242L41.1462 16.7451L41.1744 16.8185L41.1787 16.897L40.6794 16.9242ZM40.6948 17.2062L40.2035 17.2992L40.1973 17.2666L40.1955 17.2334L40.6948 17.2062ZM40.7613 17.5576L40.322 17.7964L40.2846 17.7276L40.27 17.6507L40.7613 17.5576ZM40.8947 17.8032V18.3032H40.5974L40.4554 18.0419L40.8947 17.8032ZM41.0972 17.8032V17.3032H41.704L41.588 17.8988L41.0972 17.8032ZM41.0742 17.9215L41.5649 18.0171L41.5459 18.1148L41.4909 18.1978L41.0742 17.9215ZM41.0148 18.0111L41.4316 18.2873L41.3911 18.3484L41.3347 18.3954L41.0148 18.0111ZM40.9533 18.0623L41.2733 18.4465L41.0746 18.612L40.8247 18.5454L40.9533 18.0623ZM40.9255 18.0549L40.4296 18.1193L40.3336 17.3799L41.0541 17.5717L40.9255 18.0549ZM40.9381 18.1521L40.4657 18.316L40.4489 18.2674L40.4423 18.2165L40.9381 18.1521ZM41.0048 18.3443L40.5691 18.5896L40.5471 18.5505L40.5324 18.5081L41.0048 18.3443ZM41.0972 18.5085L40.978 18.9941L40.7677 18.9424L40.6615 18.7538L41.0972 18.5085ZM41.3051 18.5595L41.2471 19.0561L41.2162 19.0525L41.1859 19.0451L41.3051 18.5595ZM41.5046 18.5828L41.5626 18.0862L41.7574 18.1089L41.8848 18.258L41.5046 18.5828ZM41.5947 18.6883L41.9749 18.3635L42.1461 18.5639L42.0775 18.8184L41.5947 18.6883ZM41.5485 18.8597L42.0312 18.9899L41.9882 19.1497L41.8583 19.2522L41.5485 18.8597ZM41.4378 18.9471L41.0687 18.6099L41.0961 18.5798L41.128 18.5546L41.4378 18.9471ZM41.3278 19.0675L40.8427 18.9464L40.8733 18.8237L40.9586 18.7303L41.3278 19.0675ZM41.2663 19.3136L40.7713 19.384L40.7576 19.2873L40.7812 19.1925L41.2663 19.3136ZM41.2969 19.5288L40.8308 19.7098L40.81 19.6561L40.8019 19.5992L41.2969 19.5288ZM41.3715 19.721L40.9589 20.0034L40.9263 19.9558L40.9054 19.902L41.3715 19.721ZM41.8559 20.4285L42.2684 20.146L42.2892 20.1764L42.3053 20.2094L41.8559 20.4285ZM42.0046 20.7336L42.454 20.5145L42.4806 20.569L42.4933 20.6282L42.0046 20.7336ZM42.0764 21.0671L42.5652 20.9618L42.5734 21L42.5756 21.039L42.0764 21.0671ZM42.1019 21.5205L42.6012 21.4924L42.6037 21.5372L42.5982 21.5817L42.1019 21.5205ZM42.0557 21.8949L42.552 21.9562L42.5462 22.0028L42.5319 22.0475L42.0557 21.8949ZM41.8175 22.6383L42.2936 22.7909L42.2819 22.8274L42.2648 22.8617L41.8175 22.6383ZM41.9005 23.3557L40.9696 23.8019L40.5374 22.9002L41.4683 22.454L41.9005 23.3557ZM41.0789 23.7306L40.7739 23.9922L40.123 23.233L40.428 22.9715L41.0789 23.7306ZM40.9017 23.8236L40.725 24.2032L39.8185 23.7811L39.9951 23.4016L40.9017 23.8236ZM40.7549 24.121L40.6495 24.5158L39.6833 24.258L39.7887 23.8632L40.7549 24.121ZM40.618 24.6017L40.4668 24.9195L39.5637 24.49L39.7149 24.1721L40.618 24.6017ZM40.4245 24.9919L40.2196 25.284L39.4011 24.7095L39.606 24.4175L40.4245 24.9919ZM40.1789 25.3346L39.3893 26.1961L38.6521 25.5204L39.4417 24.6589L40.1789 25.3346ZM39.2416 26.3068L38.8619 26.4938L38.4201 25.5967L38.7998 25.4097L39.2416 26.3068ZM38.9946 26.3988L38.8971 26.4963L38.19 25.7892L38.2875 25.6917L38.9946 26.3988ZM39.0277 26.2675L38.9972 26.3857L38.0289 26.1362L38.0593 26.018L39.0277 26.2675ZM39.0077 26.1882L39.0461 26.4492L38.0568 26.5948L38.0184 26.3338L39.0077 26.1882ZM39.0396 26.6303L39.0168 26.733L38.0405 26.5165L38.0633 26.4137L39.0396 26.6303ZM38.8738 26.9865L38.7634 27.0918L38.0731 26.3683L38.1835 26.263L38.8738 26.9865ZM38.5079 27.222L38.4258 27.2369L38.2464 26.2531L38.3286 26.2382L38.5079 27.222ZM38.2599 27.2392L38.1628 27.2242L38.3152 26.2359L38.4123 26.2509L38.2599 27.2392ZM38.4206 27.1959L38.3101 27.239L37.9468 26.3073L38.0574 26.2642L38.4206 27.1959ZM38.4929 27.1155L38.2979 27.3231L37.5689 26.6385L37.764 26.4309L38.4929 27.1155ZM38.4032 27.152L38.3162 27.3907L37.3766 27.0485L37.4636 26.8097L38.4032 27.152ZM38.3388 27.3067L38.2463 27.8293L37.2616 27.6551L37.3541 27.1325L38.3388 27.3067ZM38.2154 27.9348L38.0977 28.2168L37.1749 27.8317L37.2926 27.5496L38.2154 27.9348ZM38.0506 28.3041L37.538 29.0629L36.7094 28.5031L37.222 27.7443L38.0506 28.3041ZM37.5847 28.9766L37.4412 29.3183L36.5192 28.9311L36.6627 28.5894L37.5847 28.9766ZM37.4011 29.3945L37.3062 29.5426L36.4644 29.0028L36.5593 28.8548L37.4011 29.3945ZM37.1108 29.719L36.8724 29.8394L36.4215 28.9468L36.6598 28.8264L37.1108 29.719ZM37.145 29.4363L37.1372 29.5264L36.141 29.44L36.1488 29.3499L37.145 29.4363ZM37.1284 29.3802L37.1515 29.4902L36.173 29.6963L36.1498 29.5863L37.1284 29.3802ZM37.1611 29.6278L37.1533 29.7406L36.1557 29.6714L36.1635 29.5587L37.1611 29.6278ZM37.0807 29.9674L35.4296 32.6591L34.5772 32.1363L36.2283 29.4446L37.0807 29.9674ZM35.3572 32.7511L35.2319 32.8765L34.5244 32.1697L34.6497 32.0443L35.3572 32.7511ZM35.1019 32.9702L34.9375 33.0525L34.49 32.1582L34.6544 32.0759L35.1019 32.9702ZM34.7137 33.1054H34.6163V32.1054H34.7137V33.1054ZM34.5127 33.0945L34.4156 33.0739L34.6228 32.0957L34.72 32.1162L34.5127 33.0945ZM34.6133 33.0759L34.4645 33.1044L34.2763 32.1223L34.4251 32.0937L34.6133 33.0759ZM34.6952 32.9935L34.4494 33.2035L33.7998 32.4432L34.0456 32.2332L34.6952 32.9935ZM34.5846 33.0192L34.338 33.5982L33.418 33.2064L33.6646 32.6274L34.5846 33.0192ZM34.1745 33.8049L33.7388 34.1257L33.1459 33.3205L33.5815 32.9997L34.1745 33.8049ZM33.9152 33.8858L33.8331 34.1242L32.8875 33.7988L32.9696 33.5604L33.9152 33.8858ZM33.8602 33.9518L33.8656 34.2261L32.8658 34.2456L32.8604 33.9712L33.8602 33.9518ZM33.8532 34.1249L33.9734 34.6528L32.9983 34.8748L32.8781 34.3468L33.8532 34.1249ZM33.9728 34.8774L33.95 34.9751L32.9761 34.7478L32.9989 34.6502L33.9728 34.8774ZM33.9015 35.1018L33.1269 36.5144L32.2501 36.0336L33.0246 34.621L33.9015 35.1018ZM33.1573 36.4478L33.0908 36.6272L32.1532 36.2795L32.2197 36.1001L33.1573 36.4478ZM33.0944 36.2897L33.1459 36.4381L32.201 36.7655L32.1495 36.6171L33.0944 36.2897ZM33.0672 36.2937L33.1595 36.4116L32.372 37.0279L32.2796 36.9099L33.0672 36.2937ZM33.2622 36.6605L33.2747 36.7653L32.2817 36.8838L32.2692 36.779L33.2622 36.6605ZM33.0057 37.2698L32.8447 37.3521L32.3897 36.4616L32.5507 36.3793L33.0057 37.2698ZM32.7709 37.3826L32.6347 37.4266L32.3272 36.4751L32.4634 36.4311L32.7709 37.3826ZM32.7686 37.3598L32.6738 37.4265L32.0986 36.6085L32.1933 36.5419L32.7686 37.3598ZM32.7169 37.3926L32.6244 37.4741L31.9631 36.724L32.0555 36.6425L32.7169 37.3926ZM32.6988 37.3921L32.6171 37.5051L31.8069 36.919L31.8886 36.8059L32.6988 37.3921ZM32.6687 37.4155L31.7172 39.5508L30.8038 39.1438L31.7553 37.0085L32.6687 37.4155ZM31.7489 39.4545L31.6672 39.8264L30.6905 39.6121L30.7721 39.2401L31.7489 39.4545ZM31.6421 39.9074L31.6036 40.0023L30.6771 39.6261L30.7156 39.5312L31.6421 39.9074ZM31.4354 40.2178L31.3405 40.2872L30.7503 39.4799L30.8452 39.4105L31.4354 40.2178ZM31.2073 40.3566L30.9536 40.4435L30.6298 39.4973L30.8835 39.4105L31.2073 40.3566ZM31.1752 40.2912L31.1239 40.3525L30.3569 39.7109L30.4082 39.6496L31.1752 40.2912ZM31.2129 39.8684L31.259 40.0017L30.3139 40.3284L30.2678 40.1951L31.2129 39.8684ZM31.2015 39.8862L31.4015 40.1838L30.5714 40.7415L30.3714 40.4439L31.2015 39.8862ZM31.464 40.3145L31.5076 40.4552L30.5525 40.7514L30.5089 40.6108L31.464 40.3145ZM31.5286 40.6412L31.5161 40.8056L30.519 40.7298L30.5315 40.5654L31.5286 40.6412ZM31.4396 41.0358L31.3778 41.1332L30.5336 40.5971L30.5955 40.4997L31.4396 41.0358ZM31.3277 41.1993L31.2609 41.2736L30.517 40.6053L30.5838 40.531L31.3277 41.1993ZM31.3174 41.1972L31.251 41.3076L30.394 40.7922L30.4604 40.6818L31.3174 41.1972ZM31.2742 41.2644L31.0125 41.8154L30.1092 41.3864L30.3709 40.8354L31.2742 41.2644ZM30.9695 41.889L30.6135 42.3939L29.7962 41.8177L30.1522 41.3128L30.9695 41.889ZM30.536 42.4804L30.0896 42.875L29.4273 42.1258L29.8737 41.7312L30.536 42.4804ZM30.202 42.7311L29.9433 43.2285L29.0561 42.767L29.3148 42.2697L30.202 42.7311ZM29.8938 43.3055L29.7295 43.5159L28.9413 42.9004L29.1056 42.69L29.8938 43.3055ZM29.649 43.5976L29.4392 43.7665L28.8121 42.9876L29.0218 42.8187L29.649 43.5976ZM29.3819 43.8064L28.0078 44.6266L27.4953 43.7679L28.8694 42.9477L29.3819 43.8064ZM27.9406 44.6601L27.4126 44.8759L27.0344 43.9501L27.5624 43.7344L27.9406 44.6601ZM27.5305 44.8076L27.3199 44.9715L26.7057 44.1823L26.9164 44.0184L27.5305 44.8076ZM27.4579 44.8048L27.3096 45.0945L26.4194 44.6388L26.5677 44.3491L27.4579 44.8048ZM27.3355 45.0343L27.238 45.3082L26.2959 44.9729L26.3935 44.6989L27.3355 45.0343ZM27.1718 45.4341L27.0894 45.5477L26.2798 44.9607L26.3622 44.847L27.1718 45.4341ZM27.0143 45.6301L26.8893 45.7397L26.2299 44.9879L26.3549 44.8783L27.0143 45.6301ZM26.7511 45.8257L26.6764 45.8567L26.2933 44.933L26.3681 44.902L26.7511 45.8257ZM26.347 45.8755L26.2135 45.8372L26.4892 44.8759L26.6227 44.9142L26.347 45.8755ZM26.4103 45.8531L26.3488 45.8604L26.231 44.8673L26.2925 44.86L26.4103 45.8531ZM26.6216 45.738L26.5552 45.7969L25.8919 45.0485L25.9583 44.9897L26.6216 45.738ZM26.6205 45.7268L26.5101 45.8709L25.7162 45.2628L25.8266 45.1186L26.6205 45.7268ZM26.3963 45.9789L26.3222 46.0298L25.7559 45.2056L25.83 45.1547L26.3963 45.9789ZM26.0832 46.1158L25.8215 46.139L25.7332 45.1429L25.9949 45.1197L26.0832 46.1158ZM25.6675 46.1287L25.2009 46.0236L25.4206 45.0481L25.8872 45.1531L25.6675 46.1287ZM25.2611 46.0334L24.7485 45.9822L24.8478 44.9871L25.3604 45.0383L25.2611 46.0334ZM24.48 45.8704L24.1008 45.5577L24.737 44.7862L25.1162 45.0989L24.48 45.8704ZM24.2565 45.6448L23.9948 45.555L24.3195 44.6092L24.5812 44.699L24.2565 45.6448ZM24.1572 45.5821H23.9265V44.5821H24.1572V45.5821ZM24.0175 45.5737L22.5357 45.8482L22.3536 44.8649L23.8354 44.5905L24.0175 45.5737ZM22.4637 45.8562L22.2717 45.8635L22.2338 44.8642L22.4257 44.8569L22.4637 45.8562ZM21.9389 45.753L21.8029 45.6434L22.4307 44.865L22.5667 44.9746L21.9389 45.753ZM21.6719 45.0261L21.7641 44.8463L22.654 45.3025L22.5618 45.4823L21.6719 45.0261ZM21.8933 44.6867L22.1136 44.5073L22.7451 45.2827L22.5248 45.4621L21.8933 44.6867ZM22.2688 44.4215L22.5101 44.3397L22.8311 45.2868L22.5898 45.3685L22.2688 44.4215ZM22.171 44.7918L22.1761 44.6737L23.1752 44.7166L23.1701 44.8347L22.171 44.7918ZM22.3554 45.0792L21.5809 44.4332L22.2213 43.6652L22.9959 44.3112L22.3554 45.0792ZM21.4979 44.3449L21.1856 43.9191L21.9919 43.3277L22.3043 43.7535L21.4979 44.3449ZM21.2615 44.0014L21.1666 43.9193L21.8211 43.1632L21.916 43.2453L21.2615 44.0014ZM21.3459 44.0188L21.1816 43.9679L21.4775 43.0127L21.6418 43.0636L21.3459 44.0188ZM21.5609 43.9335L21.5021 43.9642L21.0393 43.0778L21.0981 43.0471L21.5609 43.9335ZM21.7246 43.7307L21.6937 43.7975L20.7859 43.3781L20.8168 43.3113L21.7246 43.7307ZM21.6296 43.9009L21.2963 44.3159L20.5167 43.6896L20.85 43.2747L21.6296 43.9009ZM21.2015 44.4065L21.0579 44.5114L20.4679 43.704L20.6115 43.5991L21.2015 44.4065ZM20.9336 44.5776L20.5032 44.734L20.1618 43.7941L20.5922 43.6377L20.9336 44.5776ZM20.6285 44.667L20.1747 45.0003L19.5827 44.1944L20.0365 43.8611L20.6285 44.667ZM20.0893 45.0509L19.9561 45.1127L19.535 44.2057L19.6682 44.1439L20.0893 45.0509ZM19.7672 45.1587L19.2982 45.1791L19.2549 44.18L19.7239 44.1597L19.7672 45.1587ZM19.3935 45.1657L19.1472 45.2249L18.9133 44.2526L19.1597 44.1934L19.3935 45.1657ZM18.883 45.2166L18.6908 45.1573L18.9854 44.2017L19.1775 44.261L18.883 45.2166ZM18.5886 45.1128L18.2012 44.8898L18.7002 44.0232L19.0876 44.2462L18.5886 45.1128ZM18.3445 44.9451L18.1445 44.9016L18.357 43.9244L18.557 43.9679L18.3445 44.9451ZM18.2321 44.9127L17.8144 44.897L17.8518 43.8977L18.2694 43.9134L18.2321 44.9127ZM17.7388 44.8884L17.5388 44.85L17.7274 43.868L17.9274 43.9064L17.7388 44.8884ZM17.4354 44.8182L16.6078 44.462L17.0031 43.5435L17.8308 43.8997L17.4354 44.8182ZM16.7946 44.5026L16.4403 44.495L16.462 43.4952L16.8163 43.5029L16.7946 44.5026ZM16.1743 44.4114L16.0973 44.3603L16.6511 43.5276L16.728 43.5787L16.1743 44.4114ZM15.8767 43.8941L15.8849 43.8122L16.8799 43.9118L16.8717 43.9937L15.8767 43.8941ZM15.9356 43.6375L16.0555 43.3989L16.9491 43.8478L16.8292 44.0865L15.9356 43.6375ZM16.0027 43.6026L16.008 43.477L17.0071 43.5184L17.0019 43.6441L16.0027 43.6026ZM16.1005 43.7882L15.9672 43.6013L16.7812 43.0205L16.9145 43.2073L16.1005 43.7882ZM16.2487 43.7949L16.0489 43.7431L16.2998 42.7751L16.4997 42.8269L16.2487 43.7949ZM16.2987 43.7434L16.068 43.8026L15.8193 42.834L16.05 42.7748L16.2987 43.7434ZM16.1947 43.7507L15.987 43.8713L15.4849 43.0065L15.6926 42.8859L16.1947 43.7507ZM16.1188 43.7605L15.9831 43.922L15.2175 43.2787L15.3532 43.1172L16.1188 43.7605ZM16.0364 43.8448L15.9185 44.0552L15.0462 43.5662L15.1642 43.3558L16.0364 43.8448ZM15.8881 44.1029L15.7701 44.2667L14.9587 43.6823L15.0766 43.5185L15.8881 44.1029ZM15.5045 44.4545L15.3559 44.4978L15.0758 43.5379L15.2243 43.4945L15.5045 44.4545ZM15.2427 44.5171L14.9503 44.5329L14.8965 43.5343L15.1889 43.5186L15.2427 44.5171ZM15.3009 44.3614L15.1472 44.5385L14.3921 43.8829L14.5459 43.7058L15.3009 44.3614ZM15.2133 44.4413L15.1081 44.6437L14.2208 44.1824L14.326 43.98L15.2133 44.4413ZM14.9656 44.8122L14.8092 44.9301L14.207 44.1318L14.3633 44.0139L14.9656 44.8122ZM14.4673 45.0293L14.216 45.0087L14.2976 44.0121L14.5489 44.0326L14.4673 45.0293ZM14.1034 44.9863L13.96 44.9401L14.2669 43.9883L14.4102 44.0345L14.1034 44.9863ZM14.4689 44.8158L14.4102 44.8752L13.6992 44.1719L13.758 44.1126L14.4689 44.8158ZM14.5546 44.5368L14.5465 44.8415L13.5468 44.815L13.5549 44.5103L14.5546 44.5368ZM14.5081 45.0208L14.4182 45.236L13.4954 44.8508L13.5852 44.6356L14.5081 45.0208ZM14.2447 45.4523L14.022 45.609L13.4463 44.7914L13.669 44.6346L14.2447 45.4523ZM13.8992 45.6722L13.3863 45.8515L13.0563 44.9075L13.5692 44.7282L13.8992 45.6722ZM13.5249 45.7768L13.4581 45.8278L12.851 45.0332L12.9178 44.9822L13.5249 45.7768ZM13.5125 45.7796L13.3949 45.9002L12.679 45.202L12.7966 45.0814L13.5125 45.7796ZM13.1599 46.0357L13.0777 46.0566L12.8319 45.0872L12.9141 45.0664L13.1599 46.0357ZM12.8057 46.0491L12.739 46.0283L13.0373 45.0738L13.104 45.0947L12.8057 46.0491ZM12.5897 45.9522L12.4691 45.8625L13.0661 45.0602L13.1866 45.1499L12.5897 45.9522ZM12.7113 45.9582L12.6447 45.9506L12.7572 44.957L12.8239 44.9645L12.7113 45.9582ZM12.7009 45.9538H12.4473V44.9538H12.7009V45.9538ZM12.7274 45.868L12.6401 45.927L12.08 45.0986L12.1673 45.0396L12.7274 45.868ZM12.7948 45.7598L12.6973 45.9314L11.8279 45.4374L11.9254 45.2658L12.7948 45.7598ZM12.7359 45.8454L12.5642 46.3503L11.6175 46.0283L11.7892 45.5234L12.7359 45.8454ZM12.4439 46.5433L12.2795 46.7073L11.5733 45.9993L11.7377 45.8353L12.4439 46.5433ZM12.0064 46.8469L11.722 46.893L11.5621 45.9059L11.8464 45.8598L12.0064 46.8469ZM11.5048 46.8802L11.3434 46.8341L11.6178 45.8725L11.7793 45.9186L11.5048 46.8802ZM11.1649 46.7411L11.0549 46.6515L11.6862 45.876L11.7963 45.9656L11.1649 46.7411ZM10.9844 46.5813L10.5943 46.1069L11.3667 45.4718L11.7568 45.9462L10.9844 46.5813ZM10.8185 46.2624L10.752 46.2396L11.076 45.2935L11.1425 45.3163L10.8185 46.2624ZM10.9542 46.2649L10.7621 46.2804L10.6817 45.2837L10.8738 45.2682L10.9542 46.2649ZM10.8268 46.2709L10.5883 46.3221L10.3785 45.3443L10.6171 45.2932L10.8268 46.2709ZM10.6347 46.3098L10.4247 46.3764L10.1221 45.4233L10.3321 45.3566L10.6347 46.3098ZM10.3831 46.3877L10.1777 46.4339L9.9582 45.4583L10.1637 45.4121L10.3831 46.3877ZM10.0022 46.4417L9.38193 46.3595L9.51344 45.3681L10.1337 45.4504L10.0022 46.4417ZM9.31416 46.3456L9.20375 46.3151L9.4708 45.3514L9.58121 45.382L9.31416 46.3456ZM9.09554 46.2709L8.9475 46.1891L9.43098 45.3138L9.57902 45.3955L9.09554 46.2709ZM8.84959 46.1184L8.53621 45.8283L9.2155 45.0944L9.52889 45.3845L8.84959 46.1184ZM8.60344 45.8806L8.44213 45.7758L8.98695 44.9373L9.14826 45.0421L8.60344 45.8806ZM8.63515 45.8502L8.55338 45.8371L8.71217 44.8497L8.79393 44.8629L8.63515 45.8502ZM8.70329 45.8384L8.61098 45.8516L8.46995 44.8616L8.56226 44.8484L8.70329 45.8384ZM8.51806 45.8561L8.34099 45.8481L8.3858 44.8491L8.56287 44.8571L8.51806 45.8561ZM8.24038 45.8332L8.13011 45.8053L8.37613 44.836L8.48641 44.864L8.24038 45.8332ZM8.0219 45.7639L7.83468 45.6663L8.29711 44.7796L8.48434 44.8773L8.0219 45.7639ZM7.9428 45.7076L7.8531 45.6848L8.09928 44.7156L8.18898 44.7384L7.9428 45.7076ZM7.91925 45.6969L7.39898 45.6373L7.51285 44.6438L8.03312 44.7034L7.91925 45.6969ZM7.22151 45.5822L7.02895 45.48L7.49776 44.5967L7.69033 44.6989L7.22151 45.5822ZM6.89312 45.3744L6.6628 45.1206L7.40327 44.4486L7.63359 44.7023L6.89312 45.3744ZM6.74168 45.1909L6.31606 44.8858L6.89878 44.0731L7.32439 44.3783L6.74168 45.1909ZM6.12483 44.6102L6.08876 44.4771L7.05394 44.2156L7.09001 44.3486L6.12483 44.6102ZM6.50206 43.8512L6.77652 43.8128L6.91511 44.8031L6.64065 44.8415L6.50206 43.8512ZM6.49215 44.6614L6.2768 44.4459L6.98412 43.739L7.19947 43.9545L6.49215 44.6614ZM6.34187 44.5008L6.08785 44.3212L6.66504 43.5046L6.91906 43.6842L6.34187 44.5008ZM6.19867 44.3803L5.90911 44.2701L6.26466 43.3354L6.55422 43.4456L6.19867 44.3803ZM6.05166 44.3015L5.72356 44.2784L5.79402 43.2808L6.12211 43.304L6.05166 44.3015ZM5.36952 43.4658L5.56169 43.2274L6.34023 43.855L6.14806 44.0934L5.36952 43.4658ZM5.85393 43.0507L6.0336 43.0152L6.22767 43.9962L6.04799 44.0317L5.85393 43.0507ZM6.27667 43.0275L6.6868 43.1527L6.39472 44.1091L5.98459 43.9839L6.27667 43.0275ZM6.49437 43.1331L6.74031 43.1102L6.83309 44.1058L6.58714 44.1288L6.49437 43.1331ZM6.46839 43.2224L6.60197 43.1121L7.2386 43.8833L7.10501 43.9936L6.46839 43.2224ZM6.4566 43.3106L6.78965 42.4852L7.71701 42.8593L7.38396 43.6848L6.4566 43.3106ZM6.99023 42.2471L7.1108 42.1725L7.63699 43.0228L7.51643 43.0974L6.99023 42.2471ZM7.15046 42.1504L7.28365 42.0838L7.73052 42.9784L7.59733 43.045L7.15046 42.1504ZM7.49354 42.0313L7.76252 42.024L7.78962 43.0237L7.52063 43.031L7.49354 42.0313ZM7.71324 42.0278L7.89825 42.0044L8.02391 42.9964L7.8389 43.0199L7.71324 42.0278ZM7.77764 42.0353L7.9262 41.9767L8.29308 42.907L8.14453 42.9655L7.77764 42.0353ZM7.7551 42.0893L8.33409 41.507L9.04317 42.2121L8.46418 42.7944L7.7551 42.0893ZM8.27555 41.5779L8.47827 41.2806L9.30443 41.8441L9.10171 42.1413L8.27555 41.5779ZM8.42649 41.3782L8.90067 40.1811L9.83039 40.5494L9.35621 41.7465L8.42649 41.3782ZM8.9181 40.1421L9.35166 39.2729L10.2465 39.7193L9.81296 40.5885L8.9181 40.1421ZM9.39781 39.1978L10.2897 37.998L11.0922 38.5946L10.2004 39.7944L9.39781 39.1978ZM10.2453 38.0697L10.3429 37.8777L11.2343 38.3309L11.1366 38.5229L10.2453 38.0697ZM10.315 37.9439L10.5069 37.3773L11.4541 37.6981L11.2622 38.2647L10.315 37.9439ZM10.6025 37.2104L10.6848 37.1153L11.4408 37.7699L11.3585 37.8649L10.6025 37.2104ZM10.822 37.0044L10.9708 36.9226L11.4524 37.7991L11.3036 37.8808L10.822 37.0044ZM10.8927 37.746L10.7286 37.6101L11.3663 36.8398L11.5305 36.9757L10.8927 37.746ZM10.6773 37.5611L10.6052 37.4817L11.3454 36.8093L11.4176 36.8888L10.6773 37.5611ZM10.4937 37.28L10.4708 37.198L11.4339 36.9289L11.4569 37.011L10.4937 37.28ZM10.4533 37.0326L10.4613 36.9043L11.4594 36.9661L11.4514 37.0944L10.4533 37.0326ZM10.4825 36.7881L10.5259 36.6469L11.4817 36.9411L11.4382 37.0823L10.4825 36.7881ZM10.5939 36.5076L10.7657 36.2618L11.5854 36.8345L11.4137 37.0803L10.5939 36.5076ZM10.736 36.3099L10.772 36.2433L11.6512 36.7199L11.6151 36.7864L10.736 36.3099ZM10.7255 36.3646L10.8151 35.9926L11.7873 36.2267L11.6977 36.5987L10.7255 36.3646ZM10.8017 36.1324L10.7939 35.9608L11.7929 35.9153L11.8007 36.0869L10.8017 36.1324ZM11.1471 36.4162L11.0807 36.3959L11.3732 35.4396L11.4396 35.4599L11.1471 36.4162ZM10.8546 36.2514L10.721 36.1023L11.4658 35.435L11.5993 35.5841L10.8546 36.2514ZM10.6268 35.9485L10.5607 35.7769L11.4938 35.4172L11.5599 35.5888L10.6268 35.9485ZM10.7748 35.1654L10.9153 35.0833L11.4201 35.9465L11.2796 36.0287L10.7748 35.1654ZM10.7641 35.2198L10.8183 35.1457L11.6255 35.7359L11.5714 35.81L10.7641 35.2198ZM10.7239 35.4861L10.7083 35.3144L11.7042 35.2238L11.7198 35.3955L10.7239 35.4861ZM10.7242 35.4017L10.6423 35.1041L11.6065 34.8388L11.6883 35.1364L10.7242 35.4017ZM10.7371 35.2877L10.7139 35.2593L11.4885 34.6268L11.5117 34.6552L10.7371 35.2877ZM10.8211 35.3572L10.7004 35.2756L11.2606 34.4473L11.3813 34.5289L10.8211 35.3572ZM10.8 35.3277L10.7798 35.3199L11.1408 34.3873L11.161 34.3952L10.8 35.3277ZM10.5062 34.6444L10.5368 34.578L11.445 34.9965L11.4144 35.0629L10.5062 34.6444ZM10.6557 34.4162L10.707 34.3699L11.3774 35.1119L11.3261 35.1582L10.6557 34.4162ZM10.8014 34.3027L10.8526 34.2746L11.3342 35.1509L11.283 35.1791L10.8014 34.3027ZM10.7398 34.3592L10.7708 34.3282L11.4779 35.0353L11.4469 35.0663L10.7398 34.3592ZM10.6274 34.6268L10.6555 34.3727L11.6495 34.4828L11.6213 34.7368L10.6274 34.6268ZM10.6551 34.4788L10.627 34.2047L11.6218 34.1026L11.6499 34.3767L10.6551 34.4788ZM10.7232 34.4521L10.5897 34.2727L11.3921 33.6759L11.5256 33.8553L10.7232 34.4521ZM11.0711 34.4678L10.7868 34.514L10.6263 33.527L10.9107 33.4808L11.0711 34.4678ZM10.244 33.8306L10.4978 33.2124L11.4229 33.5922L11.1691 34.2104L10.244 33.8306ZM10.5349 33.1396L10.7042 32.8655L11.555 33.391L11.3857 33.665L10.5349 33.1396ZM10.743 32.8111L11.189 32.2676L11.962 32.902L11.5161 33.4454L10.743 32.8111ZM11.1575 32.3105L11.4805 31.8182L12.3166 32.3668L11.9935 32.8591L11.1575 32.3105ZM11.6075 31.6859L12.0229 31.3887L12.6049 32.2019L12.1895 32.4991L11.6075 31.6859ZM11.8861 31.5363L12.0118 31.3288L12.8672 31.8467L12.7416 32.0542L11.8861 31.5363ZM11.9714 31.4121L12.061 31.1734L12.9972 31.5248L12.9076 31.7634L11.9714 31.4121ZM12.0342 31.278L12.0651 31.0624L13.055 31.2046L13.024 31.4202L12.0342 31.278ZM12.0828 30.9845L12.1338 30.821L13.0884 31.1189L13.0374 31.2825L12.0828 30.9845ZM12.2515 30.6225L12.6973 30.1611L13.4165 30.8559L12.9707 31.3174L12.2515 30.6225ZM12.5941 30.3192L12.7945 29.8295L13.72 30.2082L13.5197 30.6979L12.5941 30.3192ZM12.7577 30.0385L12.7217 29.1233L13.721 29.0841L13.7569 29.9992L12.7577 30.0385ZM12.73 29.011L12.8273 28.4955L13.8099 28.681L13.7127 29.1964L12.73 29.011ZM12.8476 28.4204L12.9452 28.1464L13.8872 28.482L13.7896 28.7561L12.8476 28.4204ZM12.9173 28.2823L12.9298 28.0868L13.9277 28.1507L13.9152 28.3461L12.9173 28.2823ZM12.9817 28.3427L12.9076 28.1948L13.8017 27.7469L13.8758 27.8948L12.9817 28.3427ZM12.9935 28.3166L12.824 28.1396L13.5463 27.448L13.7158 27.6251L12.9935 28.3166ZM13.0231 28.2668L12.9106 28.2283L13.2347 27.2822L13.3472 27.3208L13.0231 28.2668ZM13.1317 28.2517L13.0036 28.267L12.8855 27.274L13.0136 27.2587L13.1317 28.2517ZM13.1076 28.2431L12.974 28.2892L12.6479 27.3439L12.7815 27.2978L13.1076 28.2431ZM12.8868 28.3108L12.7536 28.3312L12.6019 27.3428L12.7351 27.3224L12.8868 28.3108ZM12.1806 27.8902L12.1727 27.816L13.167 27.7096L13.1749 27.7838L12.1806 27.8902ZM12.2514 28.0365L11.9696 27.6056L12.8065 27.0583L13.0883 27.4891L12.2514 28.0365ZM11.908 27.4717L11.6544 26.6006L12.6145 26.3211L12.8681 27.1922L11.908 27.4717ZM11.7706 26.8037L11.6448 26.6703L12.3725 25.9844L12.4983 26.1179L11.7706 26.8037ZM11.5957 26.6092L11.3419 26.2374L12.1679 25.6737L12.4217 26.0455L11.5957 26.6092ZM11.4815 26.3741L11.3557 26.292L11.9026 25.4548L12.0284 25.5369L11.4815 26.3741ZM11.4852 26.3522L11.0677 26.2267L11.3555 25.269L11.7731 25.3945L11.4852 26.3522ZM11.0198 26.2096L10.8784 26.1509L11.262 25.2274L11.4034 25.2861L11.0198 26.2096ZM10.8061 26.1137L10.732 26.0676L11.2603 25.2185L11.3343 25.2646L10.8061 26.1137ZM10.6042 25.9535L10.4862 25.8045L11.2701 25.1837L11.3881 25.3326L10.6042 25.9535ZM10.4298 25.7155L10.3121 25.4771L11.2088 25.0344L11.3265 25.2727L10.4298 25.7155ZM10.3355 25.5192L10.2431 25.3701L11.093 24.8431L11.1854 24.9922L10.3355 25.5192ZM10.7574 25.5986L10.7136 25.6065L10.535 24.6226L10.5787 24.6147L10.7574 25.5986ZM10.1746 25.3333L10.1236 25.2283L11.0229 24.791L11.0739 24.8959L10.1746 25.3333ZM10.3461 25.4551L10.115 25.3372L10.5693 24.4464L10.8004 24.5642L10.3461 25.4551ZM9.90219 25.1294L9.5974 24.565L10.4773 24.0898L10.7821 24.6542L9.90219 25.1294ZM9.6686 24.6651L9.58657 24.5755L10.3241 23.9002L10.4061 23.9897L9.6686 24.6651ZM9.64556 24.6303L9.47383 24.4948L10.0934 23.7098L10.2651 23.8453L9.64556 24.6303ZM9.37734 24.3938L9.29831 24.2836L10.1108 23.7007L10.1898 23.8108L9.37734 24.3938ZM9.22587 24.1365L9.09736 23.7105L10.0548 23.4217L10.1833 23.8477L9.22587 24.1365ZM9.16606 23.8523L9.0839 23.7346L9.9039 23.1623L9.98606 23.2799L9.16606 23.8523ZM9.16052 23.8211L8.74519 23.4495L9.41196 22.7042L9.82729 23.0758L9.16052 23.8211ZM8.64618 23.3279L8.52575 23.1205L9.39053 22.6184L9.51096 22.8258L8.64618 23.3279ZM8.45859 22.8906L8.44596 22.5931L9.44506 22.5507L9.45769 22.8482L8.45859 22.8906ZM8.46184 22.4452L8.513 22.2499L9.48035 22.5034L9.42919 22.6987L8.46184 22.4452ZM8.53166 22.1929L8.69571 21.7777L9.62575 22.1452L9.4617 22.5604L8.53166 22.1929ZM8.66958 21.8678L8.70525 21.6807L9.68755 21.868L9.65188 22.0551L8.66958 21.8678ZM8.70621 21.8729L8.65517 21.619L9.63556 21.4219L9.6866 21.6758L8.70621 21.8729ZM8.84864 21.9229L8.72027 21.8282L9.31371 21.0234L9.44209 21.118L8.84864 21.9229ZM8.88479 21.908L8.47493 21.7957L8.73932 20.8312L9.14918 20.9436L8.88479 21.908ZM8.32228 21.7244L8.17333 21.6211L8.74303 20.7993L8.89197 20.9025L8.32228 21.7244ZM8.08797 21.5463L7.93928 21.3825L8.6797 20.7103L8.82839 20.8741L8.08797 21.5463ZM7.82 21.1484L7.77612 20.9377L8.75511 20.7338L8.79899 20.9445L7.82 21.1484ZM7.83637 20.5793L7.97256 20.3514L8.83105 20.8642L8.69486 21.0922L7.83637 20.5793ZM7.9363 20.4253L8.01859 20.2154L8.94959 20.5804L8.86731 20.7903L7.9363 20.4253ZM7.98471 20.4229L7.96909 20.1103L8.96784 20.0603L8.98347 20.3729L7.98471 20.4229ZM7.97977 20.191L7.86715 19.6705L8.84454 19.459L8.95716 19.9796L7.97977 20.191ZM7.90514 19.7812L7.53329 19.0071L8.4347 18.5741L8.80655 19.3483L7.90514 19.7812ZM7.49013 18.8687L7.28221 17.5537L8.26994 17.3975L8.47786 18.7125L7.49013 18.8687ZM7.27849 17.4266L7.30934 17.1136L8.30452 17.2117L8.27366 17.5247L7.27849 17.4266ZM7.36833 16.9226L7.61232 16.4768L8.48953 16.9569L8.24554 17.4027L7.36833 16.9226ZM7.5697 16.5811L7.62842 16.3729L8.59087 16.6444L8.53215 16.8525L7.5697 16.5811ZM7.60964 16.5086V16.0085H8.60964V16.5086H7.60964ZM7.61447 16.0779L7.59377 15.9299L8.58411 15.7913L8.60481 15.9392L7.61447 16.0779ZM7.62493 16.0469L7.46635 15.6519L8.39437 15.2793L8.55295 15.6744L7.62493 16.0469ZM7.43044 15.4746L7.4251 15.1772L8.42494 15.1593L8.43028 15.4566L7.43044 15.4746ZM7.43064 15.0935L7.4667 14.855L8.45547 15.0045L8.4194 15.243L7.43064 15.0935ZM7.46108 14.9297V14.7224H8.46108V14.9297H7.46108ZM7.54472 14.9993L7.39617 14.7759L8.22889 14.2222L8.37744 14.4456L7.54472 14.9993ZM7.5684 14.9354L7.45018 14.8692L7.93844 13.9965L8.05666 14.0627L7.5684 14.9354ZM7.54832 14.9111L7.41995 14.8719L7.71192 13.9155L7.8403 13.9547L7.54832 14.9111ZM7.28326 14.8061L7.186 14.7395L7.75135 13.9146L7.84861 13.9813L7.28326 14.8061ZM6.98023 14.4339L6.94443 14.2702L7.92132 14.0565L7.95713 14.2202L6.98023 14.4339ZM6.93287 14.1634V12.6535H7.93287V14.1634H6.93287ZM6.98265 12.871L6.90089 12.7017L7.80133 12.2667L7.88309 12.436L6.98265 12.871ZM6.85525 12.5484L6.83962 12.4277L7.83135 12.2993L7.84697 12.42L6.85525 12.5484ZM6.87638 12.1655L6.93041 12.0402L7.84862 12.4363L7.79459 12.5616L6.87638 12.1655ZM7.10667 11.826L7.43217 11.6027L7.99786 12.4273L7.67236 12.6506L7.10667 11.826ZM7.34665 11.6769L7.40771 11.6104L8.14444 12.2865L8.08338 12.3531L7.34665 11.6769ZM7.27937 11.8911L7.30007 11.7117L8.29348 11.8264L8.27278 12.0058L7.27937 11.8911ZM7.30884 11.8782L7.19869 11.3859L8.17456 11.1676L8.28471 11.6599L7.30884 11.8782ZM7.19496 11.1859L7.23336 10.9781L8.21671 11.1598L8.1783 11.3676L7.19496 11.1859ZM7.25661 10.8941L7.32835 10.7019L8.2652 11.0517L8.19346 11.2438L7.25661 10.8941ZM7.3762 10.6064L7.60197 10.2552L8.44311 10.7961L8.21735 11.1472L7.3762 10.6064ZM7.64851 10.1938L8.3146 9.44299L9.06266 10.1066L8.39657 10.8575L7.64851 10.1938ZM8.25283 9.52969L8.29918 9.44728L9.17078 9.93749L9.12443 10.0199L8.25283 9.52969ZM8.24822 9.57808L8.27947 9.44502L9.25299 9.67363L9.22174 9.80669L8.24822 9.57808ZM8.34151 9.29548L8.39254 9.21333L9.24198 9.74101L9.19095 9.82317L8.34151 9.29548ZM8.54643 9.05687L8.74121 8.93136L9.28288 9.77195L9.0881 9.89746L8.54643 9.05687ZM8.62156 9.03938L8.6933 8.94967L9.47427 9.57423L9.40253 9.66394L8.62156 9.03938ZM8.6044 9.11985L8.748 8.63539L9.70677 8.91959L9.56316 9.40405L8.6044 9.11985ZM8.81592 8.49342L9.06733 8.12925L9.89027 8.69739L9.63885 9.06156L8.81592 8.49342ZM9.12346 8.06157L9.6462 7.53349L10.3569 8.23699L9.83414 8.76508L9.12346 8.06157ZM9.70893 7.47981L10.6677 6.78781L11.2529 7.59867L10.2942 8.29067L9.70893 7.47981ZM10.5964 6.85041L10.8476 6.58364L11.5756 7.26929L11.3243 7.53606L10.5964 6.85041ZM10.9911 6.47772L11.0064 6.47017L11.4475 7.36766L11.4321 7.37521L10.9911 6.47772ZM11.0587 6.44808L11.4536 6.30695L11.7901 7.24861L11.3952 7.38974L11.0587 6.44808ZM11.3398 6.36492L11.7113 6.11116L12.2754 6.93688L11.9039 7.19064L11.3398 6.36492ZM11.6398 6.17047L11.9681 5.84211L12.6752 6.54922L12.3469 6.87757L11.6398 6.17047ZM11.909 5.91331L12.1474 5.56491L12.9727 6.12961L12.7343 6.47801L11.909 5.91331ZM12.0946 5.66457L12.4277 4.81607L13.3585 5.18144L13.0255 6.02994L12.0946 5.66457ZM12.4642 4.7417L12.7179 4.31856L13.5756 4.83266L13.322 5.25581L12.4642 4.7417ZM12.6692 4.42741L12.736 4.21219L13.6911 4.5086L13.6243 4.72382L12.6692 4.42741ZM12.7143 4.3326L12.7885 2.99976L13.787 3.05536L13.7128 4.38819L12.7143 4.3326ZM12.8122 2.87296L12.969 2.39083L13.92 2.70005L13.7632 3.18216L12.8122 2.87296ZM13.0441 2.24591L13.3338 1.8587L14.1345 2.45775L13.8449 2.84496L13.0441 2.24591ZM13.46 1.74014L13.6983 1.58377L14.2468 2.41995L14.0084 2.57632L13.46 1.74014ZM13.7521 1.55309L14.1905 1.33774L14.6314 2.23529L14.193 2.45064L13.7521 1.55309ZM14.0767 1.41467L14.2763 1.23525L14.9448 1.97895L14.7452 2.15837L14.0767 1.41467ZM14.5848 1.10777L14.7334 1.10009L14.785 2.09875L14.6363 2.10643L14.5848 1.10777ZM14.8668 1.11113L15.472 1.24446L15.2568 2.22104L14.6517 2.08771L14.8668 1.11113ZM15.5424 1.26549L15.7577 1.34751L15.4018 2.28202L15.1864 2.2L15.5424 1.26549ZM15.9505 1.47928L16.0248 1.56144L15.2833 2.23241L15.209 2.15025L15.9505 1.47928ZM16.0924 1.6564L16.2105 1.87161L15.3338 2.35266L15.2157 2.13745L16.0924 1.6564ZM15.99 1.66206L16.3769 1.84929L15.9413 2.74945L15.5544 2.56222L15.99 1.66206ZM16.244 1.80662L16.377 1.82953L16.2073 2.81503L16.0743 2.79211L16.244 1.80662ZM16.5345 1.88491L16.655 1.9517L16.1704 2.82644L16.0499 2.75965L16.5345 1.88491ZM16.7499 2.01983L17.1064 2.34533L16.4321 3.0838L16.0756 2.7583L16.7499 2.01983ZM17.0621 2.30935L17.2181 2.4221L16.6323 3.23253L16.4763 3.11977L17.0621 2.30935ZM17.0916 2.35582L18.566 2.87622L18.2331 3.81921L16.7588 3.29881L17.0916 2.35582ZM18.6272 2.90255L19.0786 3.1334L18.6233 4.02372L18.1719 3.79288L18.6272 2.90255ZM19.1526 3.17977L19.4881 3.43352L18.8849 4.23111L18.5494 3.97735L19.1526 3.17977ZM19.5339 3.47272L19.8339 3.76255L19.139 4.48172L18.8391 4.1919L19.5339 3.47272ZM19.7438 3.69348L19.9058 3.79073L19.391 4.64805L19.2291 4.5508L19.7438 3.69348ZM19.7717 3.73482L21.1118 4.07568L20.8653 5.04482L19.5252 4.70396L19.7717 3.73482ZM21.0191 4.06118L21.2703 4.07654L21.2093 5.07468L20.958 5.05932L21.0191 4.06118ZM21.16 4.08203L21.9035 3.96173L22.0632 4.94889L21.3197 5.06919L21.16 4.08203ZM22.0837 3.96548L22.3094 4.0117L22.1087 4.99136L21.8831 4.94514L22.0837 3.96548ZM22.6184 4.21444L22.9311 4.66036L22.1124 5.23455L21.7997 4.78862L22.6184 4.21444ZM22.8418 4.56331L23.0572 4.74273L22.4171 5.51102L22.2017 5.3316L22.8418 4.56331ZM22.5779 4.65288L22.8447 4.5633L23.163 5.51128L22.8963 5.60086L22.5779 4.65288ZM22.6185 4.71869L22.731 4.58263L23.5017 5.21984L23.3892 5.3559L22.6185 4.71869ZM22.6671 4.68173L22.7035 4.60738L23.6019 5.04641L23.5656 5.12075L22.6671 4.68173ZM22.9678 4.36233L23.0189 4.34202L23.3886 5.27115L23.3376 5.29146L22.9678 4.36233ZM23.2578 4.30951L23.4446 4.32982L23.3365 5.32397L23.1497 5.30365L23.2578 4.30951ZM23.5152 4.34267L23.6356 4.37365L23.3864 5.34211L23.266 5.31113L23.5152 4.34267ZM23.7603 4.42444L23.8271 4.46285L23.3285 5.32973L23.2617 5.29132L23.7603 4.42444ZM23.8612 4.48435L24.0101 4.58681L23.4434 5.41069L23.2944 5.30824L23.8612 4.48435ZM23.9515 4.55211L24.7665 4.96223L24.317 5.85552L23.502 5.44539L23.9515 4.55211ZM24.7063 4.93671L25.1551 5.09309L24.8261 6.03741L24.3773 5.88103L24.7063 4.93671ZM25.0931 5.07587L25.5828 5.17847L25.3777 6.15722L24.888 6.05462L25.0931 5.07587ZM25.0218 5.86745L24.9191 5.63153L25.8359 5.23231L25.9387 5.46823L25.0218 5.86745ZM25.3775 4.93192H25.5985V5.93192H25.3775V4.93192ZM25.733 4.95035L26.0453 5.03759L25.7763 6.00072L25.464 5.91349L25.733 4.95035ZM25.939 5.01995L26.3441 5.04287L26.2876 6.04127L25.8826 6.01836L25.939 5.01995ZM26.571 5.11209L26.8733 5.2915L26.363 6.15147L26.0607 5.97205L26.571 5.11209ZM26.9313 5.33167L27.4389 5.73945L26.8127 6.51907L26.305 6.11129L26.9313 5.33167ZM27.5443 5.8557L28.5028 7.32212L27.6658 7.86924L26.7073 6.40282L27.5443 5.8557ZM28.3816 7.19362L29.7508 8.20591L29.1564 9.01003L27.7871 7.99774L28.3816 7.19362ZM29.7953 8.24293L31.5126 9.85035L30.8292 10.5804L29.1119 8.97301L29.7953 8.24293ZM31.3816 9.76194L31.5251 9.82861L31.1037 10.7355L30.9602 10.6688L31.3816 9.76194ZM31.5842 9.86109L31.6281 9.88921L31.0885 10.7311L31.0446 10.703L31.5842 9.86109ZM31.8555 10.363L31.8475 10.4378L30.8531 10.332L30.8611 10.2573L31.8555 10.363ZM31.8422 10.475L31.8272 10.5567L30.8435 10.3766L30.8585 10.2949L31.8422 10.475ZM31.82 10.3437L31.835 10.4026L30.8657 10.6487L30.8507 10.5897L31.82 10.3437ZM31.416 10.03L31.475 10.0378L31.3437 11.0291L31.2847 11.0213L31.416 10.03ZM31.3405 10.0382L31.4894 10.0175L31.6271 11.008L31.4781 11.0287L31.3405 10.0382ZM31.665 10.0243L31.724 10.0372L31.5105 11.0141L31.4515 11.0012L31.665 10.0243ZM31.8528 10.0846L32.1602 10.2488L31.6891 11.1309L31.3817 10.9667L31.8528 10.0846ZM32.2495 10.3097L33.2004 11.1223L32.5508 11.8825L31.5998 11.07L32.2495 10.3097ZM33.3035 11.2437L33.5731 11.6898L32.7174 12.2071L32.4477 11.7611L33.3035 11.2437ZM33.6339 12.0545L33.5259 12.5518L32.5487 12.3398L32.6566 11.8424L33.6339 12.0545ZM32.7832 12.0152L33.0091 11.8819L33.5173 12.7431L33.2915 12.8764L32.7832 12.0152ZM32.8559 12.0225L33.1681 11.584L33.9827 12.164L33.6705 12.6025L32.8559 12.0225ZM33.4122 11.4014L33.6715 11.3118L33.998 12.257L33.7386 12.3466L33.4122 11.4014ZM33.9469 11.2971L34.2367 11.3638L34.0125 12.3383L33.7227 12.2717L33.9469 11.2971ZM34.3962 11.4313L34.6496 11.5952L34.1064 12.4348L33.853 12.2709L34.3962 11.4313ZM34.7662 11.6999L34.9534 11.9306L34.1769 12.5608L33.9897 12.3301L34.7662 11.6999ZM35.0479 12.1153L35.1144 12.3617L34.149 12.6224L34.0825 12.3761L35.0479 12.1153ZM35.074 12.7253L34.859 13.1329L33.9745 12.6665L34.1894 12.2588L35.074 12.7253ZM34.8114 13.2067L34.3548 13.7936L33.5655 13.1796L34.0221 12.5927L34.8114 13.2067ZM34.388 13.7453L34.024 14.3475L33.1682 13.8301L33.5323 13.2279L34.388 13.7453ZM34.095 14.0552L34.1256 14.5093L33.1278 14.5765L33.0973 14.1224L34.095 14.0552ZM33.6267 14.0429H33.709V15.0429H33.6267V14.0429ZM33.2172 14.4526L33.2484 14.2832L34.2319 14.4639L34.2008 14.6333L33.2172 14.4526ZM33.3343 14.0814L33.4211 13.9609L34.2326 14.5452L34.1459 14.6657L33.3343 14.0814ZM33.473 13.8998L33.5626 13.8101L34.2702 14.5167L34.1806 14.6064L33.473 13.8998ZM33.4664 13.9454L33.505 13.8658L34.4049 14.3018L34.3664 14.3814L33.4664 13.9454ZM33.4666 13.9767L33.5335 13.6716L34.5103 13.8859L34.4433 14.191L33.4666 13.9767ZM33.5458 13.626L33.6485 13.3059L34.6007 13.6114L34.498 13.9315L33.5458 13.626ZM33.7427 13.1358L33.9142 12.933L34.6779 13.5786L34.5064 13.7814L33.7427 13.1358ZM34.0383 12.8273L34.5663 12.5098L35.0817 13.3667L34.5538 13.6842L34.0383 12.8273ZM34.3894 12.6909L34.5252 12.4523L35.3944 12.9468L35.2586 13.1855L34.3894 12.6909ZM35.1627 12.2426L35.3935 12.345L34.9878 13.259L34.757 13.1566L35.1627 12.2426ZM35.5117 12.4187L35.7631 12.6292L35.1211 13.3959L34.8696 13.1854L35.5117 12.4187ZM35.8333 12.7012L36.0332 12.9524L35.2507 13.575L35.0508 13.3239L35.8333 12.7012ZM36.1129 13.0958L36.195 13.3263L35.2531 13.6621L35.1709 13.4316L36.1129 13.0958ZM36.1394 13.2158L36.2598 13.3954L35.4292 13.9522L35.3087 13.7726L36.1394 13.2158ZM36.0937 13.2404L36.8961 13.7016L36.3977 14.5686L35.5953 14.1073L36.0937 13.2404ZM36.9598 13.7452L37.375 14.0783L36.7492 14.8583L36.334 14.5251L36.9598 13.7452ZM37.4188 14.1179L37.8595 14.5666L37.1461 15.2673L36.7054 14.8187L37.4188 14.1179ZM37.9162 14.6357L38.2598 15.1406L37.4331 15.7032L37.0895 15.1983L37.9162 14.6357ZM38.3281 15.2878L38.4666 15.7856L37.5033 16.0537L37.3647 15.5559L38.3281 15.2878ZM38.4804 15.8524L38.5472 16.3444L37.5563 16.4789L37.4895 15.9869L38.4804 15.8524ZM38.5305 16.2673L38.8148 17.2103L37.8574 17.499L37.573 16.556L38.5305 16.2673ZM38.8316 17.2877L38.8981 17.7801L37.9071 17.914L37.8406 17.4216L38.8316 17.2877ZM38.8886 17.9646L38.7553 18.5159L37.7833 18.2808L37.9166 17.7295L38.8886 17.9646ZM38.5953 18.7774L38.2672 19.0596L37.6152 18.3013L37.9433 18.0192L38.5953 18.7774ZM38.1905 19.1139L37.8035 19.3364L37.305 18.4695L37.692 18.247L38.1905 19.1139ZM37.9497 19.2089L37.6321 19.6196L36.8411 19.0077L37.1588 18.597L37.9497 19.2089ZM37.0884 18.8361L37.8317 18.6054L38.1281 19.5604L37.3848 19.7911L37.0884 18.8361ZM37.7432 18.6425L38.1586 18.4193L38.6319 19.3002L38.2165 19.5234L37.7432 18.6425ZM37.9867 18.5714L38.1713 18.3099L38.9883 18.8865L38.8037 19.1481L37.9867 18.5714ZM38.0912 18.4919L38.1169 18.374L39.0941 18.5865L39.0684 18.7044L38.0912 18.4919ZM38.1337 18.3145L38.2516 17.979L39.1951 18.3104L39.0772 18.6459L38.1337 18.3145ZM38.2255 18.0975L38.246 17.8819L39.2415 17.9763L39.2211 18.1919L38.2255 18.0975ZM38.2446 17.9584L38.1419 16.2099L39.1402 16.1512L39.2429 17.8998L38.2446 17.9584ZM38.1481 16.0966L38.2227 15.6586L39.2085 15.8265L39.1339 16.2645L38.1481 16.0966ZM38.2789 15.4992L38.4787 15.1405L39.3523 15.6272L39.1524 15.9859L38.2789 15.4992ZM38.6268 14.9756L38.7829 14.8652L39.3603 15.6817L39.2042 15.7921L38.6268 14.9756ZM38.9695 14.784L39.1542 14.7454L39.3584 15.7244L39.1737 15.7629L38.9695 14.784ZM39.3498 14.7437L39.5524 14.7823L39.3655 15.7646L39.1629 15.7261L39.3498 14.7437ZM39.6982 14.8344L39.9008 14.9448L39.4222 15.8229L39.2197 15.7125L39.6982 14.8344ZM39.9988 15.0148L40.5705 15.5373L39.8959 16.2754L39.3242 15.7529L39.9988 15.0148ZM40.634 15.6073L40.7392 15.7483L39.9377 16.3463L39.8325 16.2053L40.634 15.6073ZM40.75 16.3313L40.6526 16.4724L39.8295 15.9045L39.9269 15.7634L40.75 16.3313ZM40.6464 15.8958L40.9795 16.3571L40.1687 16.9424L39.8356 16.4812L40.6464 15.8958ZM41.0409 16.4706L41.1462 16.7451L40.2126 17.1034L40.1073 16.8289L41.0409 16.4706ZM41.1787 16.897L41.194 17.179L40.1955 17.2334L40.1801 16.9514L41.1787 16.897ZM41.186 17.1132L41.2526 17.4646L40.27 17.6507L40.2035 17.2992L41.186 17.1132ZM41.2006 17.3189L41.3341 17.5644L40.4554 18.0419L40.322 17.7964L41.2006 17.3189ZM40.8947 17.3032H41.0972V18.3032H40.8947V17.3032ZM41.588 17.8988L41.5649 18.0171L40.5834 17.826L40.6064 17.7076L41.588 17.8988ZM41.4909 18.1978L41.4316 18.2873L40.598 17.7349L40.6574 17.6453L41.4909 18.1978ZM41.3347 18.3954L41.2733 18.4465L40.6334 17.678L40.6948 17.6269L41.3347 18.3954ZM40.8247 18.5454L40.7968 18.538L41.0541 17.5717L41.082 17.5791L40.8247 18.5454ZM41.4213 17.9905L41.4339 18.0877L40.4423 18.2165L40.4296 18.1193L41.4213 17.9905ZM41.4105 17.9883L41.4772 18.1804L40.5324 18.5081L40.4657 18.316L41.4105 17.9883ZM41.4404 18.099L41.5329 18.2632L40.6615 18.7538L40.5691 18.5896L41.4404 18.099ZM41.2164 18.0229L41.4243 18.0739L41.1859 19.0451L40.978 18.9941L41.2164 18.0229ZM41.3632 18.0629L41.5626 18.0862L41.4466 19.0794L41.2471 19.0561L41.3632 18.0629ZM41.8848 18.258L41.9749 18.3635L41.2145 19.013L41.1244 18.9076L41.8848 18.258ZM42.0775 18.8184L42.0312 18.9899L41.0657 18.7296L41.1119 18.5581L42.0775 18.8184ZM41.8583 19.2522L41.7476 19.3396L41.128 18.5546L41.2387 18.4673L41.8583 19.2522ZM41.807 19.2843L41.6969 19.4048L40.9586 18.7303L41.0687 18.6099L41.807 19.2843ZM41.8129 19.1887L41.7514 19.4348L40.7812 19.1925L40.8427 18.9464L41.8129 19.1887ZM41.7614 19.2432L41.792 19.4585L40.8019 19.5992L40.7713 19.384L41.7614 19.2432ZM41.763 19.3479L41.8376 19.5401L40.9054 19.902L40.8308 19.7098L41.763 19.3479ZM41.7841 19.4386L42.2684 20.146L41.4433 20.7109L40.9589 20.0034L41.7841 19.4386ZM42.3053 20.2094L42.454 20.5145L41.5551 20.9526L41.4064 20.6476L42.3053 20.2094ZM42.4933 20.6282L42.5652 20.9618L41.5876 21.1724L41.5158 20.8389L42.4933 20.6282ZM42.5756 21.039L42.6012 21.4924L41.6027 21.5486L41.5772 21.0952L42.5756 21.039ZM42.5982 21.5817L42.552 21.9562L41.5595 21.8337L41.6057 21.4592L42.5982 21.5817ZM42.5319 22.0475L42.2936 22.7909L41.3413 22.4857L41.5796 21.7423L42.5319 22.0475ZM42.2648 22.8617L42.1317 23.1282L41.237 22.6815L41.3701 22.415L42.2648 22.8617Z" fill="#678B28" fill-opacity="0.4" mask="url(#path-1-inside-1)"/>
</svg>
