<svg width="48" height="48" viewBox="0 0 48 48" fill="none" xmlns="http://www.w3.org/2000/svg">
<mask id="path-1-inside-1" fill="white">
<path d="M28.327 11.5075L26.1238 10.858H22.1437L20.3652 10.4348L19.0669 9.44721L16.7521 6.68033L15.0017 5.1837L14.748 4.87375L14.5497 4.44983L14.1546 4.22419L13.3083 4.30851L14.1265 3.71594L14.4364 3.54653L15.0017 3.40599L14.8604 2.81266L14.7191 2.41761L14.2108 1.59942L8.00098 8.31749L8.05719 10.3505L8.33903 11.762L8.90427 12.9753L9.80757 14.2182L11.1621 15.0364L12.5744 15.5157L13.7315 16.3347L14.2108 18.1421L14.6636 21.9809L15.1992 23.8718L15.962 25.0288V25.8478L15.1149 25.9329L13.3083 26.6667L17.0909 29.8568L18.4454 31.4088L19.4619 33.0468L20.0834 35.1922L19.7438 36.8864L18.5586 37.4797L16.3851 36.1525L14.0984 33.4699L13.3083 33.0468L11.8968 33.1319L10.9084 33.7807L10.5414 34.431L12.9695 35.7574L14.1265 37.7889L13.8728 39.9351L11.5572 41.064V41.9111L13.4207 41.7417L14.6636 42.3061L15.1992 43.5498L15.0017 45.4961L16.2438 44.9317L17.0909 45.2424L18.0223 46.0052L19.4619 46.3994L21.0429 45.9193L22.1999 45.1011L23.0751 44.9317L23.866 46.3994L24.7693 45.8357L25.4188 45.2424L25.9552 44.5928L26.4634 43.6903L24.1478 40.5003L25.0511 37.7889L27.1411 35.3343L28.327 32.5674L28.779 31.8328L29.6253 30.1113L29.9087 28.389L27.5923 26.8932L26.7453 25.3403L26.6898 23.7882L27.8461 23.1379L30.8675 18.6214L31.4046 16.3347V14.4438L30.4716 12.9753L28.327 11.5075ZM39.6755 16.3347L38.8277 14.2182L38.1508 14.6975L36.2029 16.7579L37.9814 22.2346H38.8277L39.5623 20.033L39.9012 18.2264L39.6755 16.3347Z"/>
</mask>
<path d="M28.327 11.5075L26.1238 10.858H22.1437L20.3652 10.4348L19.0669 9.44721L16.7521 6.68033L15.0017 5.1837L14.748 4.87375L14.5497 4.44983L14.1546 4.22419L13.3083 4.30851L14.1265 3.71594L14.4364 3.54653L15.0017 3.40599L14.8604 2.81266L14.7191 2.41761L14.2108 1.59942L8.00098 8.31749L8.05719 10.3505L8.33903 11.762L8.90427 12.9753L9.80757 14.2182L11.1621 15.0364L12.5744 15.5157L13.7315 16.3347L14.2108 18.1421L14.6636 21.9809L15.1992 23.8718L15.962 25.0288V25.8478L15.1149 25.9329L13.3083 26.6667L17.0909 29.8568L18.4454 31.4088L19.4619 33.0468L20.0834 35.1922L19.7438 36.8864L18.5586 37.4797L16.3851 36.1525L14.0984 33.4699L13.3083 33.0468L11.8968 33.1319L10.9084 33.7807L10.5414 34.431L12.9695 35.7574L14.1265 37.7889L13.8728 39.9351L11.5572 41.064V41.9111L13.4207 41.7417L14.6636 42.3061L15.1992 43.5498L15.0017 45.4961L16.2438 44.9317L17.0909 45.2424L18.0223 46.0052L19.4619 46.3994L21.0429 45.9193L22.1999 45.1011L23.0751 44.9317L23.866 46.3994L24.7693 45.8357L25.4188 45.2424L25.9552 44.5928L26.4634 43.6903L24.1478 40.5003L25.0511 37.7889L27.1411 35.3343L28.327 32.5674L28.779 31.8328L29.6253 30.1113L29.9087 28.389L27.5923 26.8932L26.7453 25.3403L26.6898 23.7882L27.8461 23.1379L30.8675 18.6214L31.4046 16.3347V14.4438L30.4716 12.9753L28.327 11.5075ZM39.6755 16.3347L38.8277 14.2182L38.1508 14.6975L36.2029 16.7579L37.9814 22.2346H38.8277L39.5623 20.033L39.9012 18.2264L39.6755 16.3347Z" fill="#678B28" fill-opacity="0.4"/>
<path d="M28.327 11.5075L28.4684 11.0279L28.5442 11.0503L28.6094 11.0949L28.327 11.5075ZM26.1238 10.858V10.358H26.196L26.2652 10.3784L26.1238 10.858ZM22.1437 10.858V11.358H22.0851L22.028 11.3444L22.1437 10.858ZM20.3652 10.4348L20.2495 10.9212L20.1467 10.8968L20.0625 10.8328L20.3652 10.4348ZM19.0669 9.44721L18.7642 9.84517L18.7195 9.81115L18.6834 9.76805L19.0669 9.44721ZM16.7521 6.68033L17.077 6.3003L17.1087 6.32745L17.1356 6.35949L16.7521 6.68033ZM15.0017 5.1837L14.6768 5.56372L14.643 5.53482L14.6148 5.50042L15.0017 5.1837ZM14.748 4.87375L14.3611 5.19048L14.3215 5.14217L14.2951 5.08561L14.748 4.87375ZM14.5497 4.44983L14.7976 4.01566L14.9354 4.09431L15.0026 4.23797L14.5497 4.44983ZM14.1546 4.22419L14.105 3.72665L14.2639 3.71082L14.4026 3.79002L14.1546 4.22419ZM13.3083 4.30851L13.3579 4.80605L11.5154 4.98962L13.015 3.90356L13.3083 4.30851ZM14.1265 3.71594L13.8332 3.31099L13.8589 3.2924L13.8867 3.2772L14.1265 3.71594ZM14.4364 3.54653L14.1966 3.10779L14.2532 3.07686L14.3158 3.0613L14.4364 3.54653ZM15.0017 3.40599L15.4881 3.29015L15.6028 3.77177L15.1223 3.89122L15.0017 3.40599ZM14.8604 2.81266L15.3312 2.64425L15.3404 2.6701L15.3468 2.69682L14.8604 2.81266ZM14.7191 2.41761L15.1438 2.15378L15.1719 2.19904L15.1899 2.24921L14.7191 2.41761ZM14.2108 1.59942L13.8436 1.26003L14.2892 0.778019L14.6355 1.33559L14.2108 1.59942ZM8.00098 8.31749L7.50117 8.33131L7.49554 8.12769L7.63381 7.9781L8.00098 8.31749ZM8.05719 10.3505L7.56686 10.4484L7.55855 10.4068L7.55738 10.3643L8.05719 10.3505ZM8.33903 11.762L7.88581 11.9732L7.86046 11.9188L7.84871 11.8599L8.33903 11.762ZM8.90427 12.9753L8.49981 13.2692L8.47143 13.2302L8.45105 13.1864L8.90427 12.9753ZM9.80757 14.2182L9.54905 14.6462L9.46253 14.5939L9.40311 14.5121L9.80757 14.2182ZM11.1621 15.0364L11.0014 15.5098L10.95 15.4924L10.9036 15.4643L11.1621 15.0364ZM12.5744 15.5157L12.7351 15.0423L12.804 15.0656L12.8633 15.1076L12.5744 15.5157ZM13.7315 16.3347L14.0203 15.9266L14.1683 16.0313L14.2148 16.2065L13.7315 16.3347ZM14.2108 18.1421L14.6941 18.0139L14.7032 18.0482L14.7074 18.0835L14.2108 18.1421ZM14.6636 21.9809L14.1826 22.1171L14.1717 22.0789L14.1671 22.0394L14.6636 21.9809ZM15.1992 23.8718L14.7818 24.147L14.7392 24.0824L14.7181 24.008L15.1992 23.8718ZM15.962 25.0288L16.3794 24.7536L16.462 24.8788V25.0288H15.962ZM15.962 25.8478H16.462V26.3L16.0119 26.3453L15.962 25.8478ZM15.1149 25.9329L14.9267 25.4696L14.9934 25.4426L15.0649 25.4354L15.1149 25.9329ZM13.3083 26.6667L12.986 27.049L12.353 26.5151L13.1201 26.2035L13.3083 26.6667ZM17.0909 29.8568L17.4132 29.4745L17.4425 29.4992L17.4676 29.528L17.0909 29.8568ZM18.4454 31.4088L18.8221 31.0801L18.8489 31.1107L18.8703 31.1452L18.4454 31.4088ZM19.4619 33.0468L19.8868 32.7831L19.9231 32.8416L19.9422 32.9077L19.4619 33.0468ZM20.0834 35.1922L20.5636 35.0531L20.5977 35.1706L20.5736 35.2905L20.0834 35.1922ZM19.7438 36.8864L20.234 36.9846L20.186 37.2241L19.9676 37.3335L19.7438 36.8864ZM18.5586 37.4797L18.7825 37.9268L18.5346 38.0509L18.2981 37.9064L18.5586 37.4797ZM16.3851 36.1525L16.1246 36.5792L16.0564 36.5376L16.0046 36.4768L16.3851 36.1525ZM14.0984 33.4699L14.3345 33.0292L14.4177 33.0737L14.4789 33.1456L14.0984 33.4699ZM13.3083 33.0468L13.2782 32.5477L13.4195 32.5392L13.5444 32.606L13.3083 33.0468ZM11.8968 33.1319L11.6224 32.7139L11.7337 32.6408L11.8667 32.6328L11.8968 33.1319ZM10.9084 33.7807L10.4729 33.535L10.5325 33.4293L10.634 33.3627L10.9084 33.7807ZM10.5414 34.431L10.3017 34.8698L9.85689 34.6268L10.106 34.1853L10.5414 34.431ZM12.9695 35.7574L13.2092 35.3187L13.3337 35.3867L13.404 35.51L12.9695 35.7574ZM14.1265 37.7889L14.561 37.5414L14.6423 37.6843L14.623 37.8476L14.1265 37.7889ZM13.8728 39.9351L14.3693 39.9938L14.3373 40.2649L14.0919 40.3845L13.8728 39.9351ZM11.5572 41.064H11.0572V40.7515L11.338 40.6146L11.5572 41.064ZM11.5572 41.9111L11.6024 42.409L11.0572 42.4586V41.9111H11.5572ZM13.4207 41.7417L13.3755 41.2437L13.5071 41.2317L13.6275 41.2864L13.4207 41.7417ZM14.6636 42.3061L14.8704 41.8509L15.0464 41.9308L15.1229 42.1084L14.6636 42.3061ZM15.1992 43.5498L15.6584 43.352L15.7097 43.4712L15.6966 43.6003L15.1992 43.5498ZM15.0017 45.4961L15.2086 45.9513L14.4164 46.3113L14.5043 45.4457L15.0017 45.4961ZM16.2438 44.9317L16.037 44.4765L16.2236 44.3917L16.416 44.4623L16.2438 44.9317ZM17.0909 45.2424L17.2631 44.773L17.3423 44.8021L17.4077 44.8556L17.0909 45.2424ZM18.0223 46.0052L17.8902 46.4874L17.7877 46.4593L17.7055 46.392L18.0223 46.0052ZM19.4619 46.3994L19.6072 46.8778L19.4691 46.9198L19.3299 46.8817L19.4619 46.3994ZM21.0429 45.9193L21.3316 46.3275L21.2656 46.3742L21.1882 46.3977L21.0429 45.9193ZM22.1999 45.1011L21.9112 44.6928L21.9992 44.6307L22.1049 44.6102L22.1999 45.1011ZM23.0751 44.9317L22.9801 44.4408L23.3409 44.3709L23.5153 44.6945L23.0751 44.9317ZM23.866 46.3994L24.1307 46.8236L23.6786 47.1057L23.4258 46.6366L23.866 46.3994ZM24.7693 45.8357L25.1065 46.2049L25.0727 46.2357L25.034 46.2599L24.7693 45.8357ZM25.4188 45.2424L25.8044 45.5608L25.782 45.5879L25.756 45.6116L25.4188 45.2424ZM25.9552 44.5928L26.3908 44.8382L26.369 44.8769L26.3407 44.9112L25.9552 44.5928ZM26.4634 43.6903L26.8681 43.3966L27.0565 43.6562L26.8991 43.9357L26.4634 43.6903ZM24.1478 40.5003L23.7432 40.794L23.5922 40.5861L23.6734 40.3423L24.1478 40.5003ZM25.0511 37.7889L24.5767 37.6308L24.6074 37.5387L24.6704 37.4647L25.0511 37.7889ZM27.1411 35.3343L27.6007 35.5313L27.5709 35.6008L27.5218 35.6584L27.1411 35.3343ZM28.327 32.5674L27.8674 32.3704L27.8819 32.3367L27.9012 32.3054L28.327 32.5674ZM28.779 31.8328L29.2278 32.0534L29.2173 32.0746L29.2049 32.0948L28.779 31.8328ZM29.6253 30.1113L30.1187 30.1925L30.1067 30.2655L30.074 30.3319L29.6253 30.1113ZM29.9087 28.389L30.18 27.969L30.4553 28.1468L30.4021 28.4702L29.9087 28.389ZM27.5923 26.8932L27.3211 27.3132L27.2143 27.2442L27.1534 27.1326L27.5923 26.8932ZM26.7453 25.3403L26.3063 25.5797L26.2498 25.4761L26.2456 25.3581L26.7453 25.3403ZM26.6898 23.7882L26.1902 23.8061L26.1793 23.5017L26.4447 23.3524L26.6898 23.7882ZM27.8461 23.1379L28.2617 23.4159L28.1953 23.5151L28.0912 23.5737L27.8461 23.1379ZM30.8675 18.6214L31.3542 18.7358L31.3335 18.8241L31.283 18.8995L30.8675 18.6214ZM31.4046 16.3347H31.9046V16.3926L31.8913 16.449L31.4046 16.3347ZM31.4046 14.4438L31.8266 14.1757L31.9046 14.2984V14.4438H31.4046ZM30.4716 12.9753L30.754 12.5627L30.8387 12.6206L30.8937 12.7072L30.4716 12.9753ZM38.8277 14.2182L38.5387 13.8101L39.0561 13.4437L39.2918 14.0322L38.8277 14.2182ZM38.1508 14.6975L37.7875 14.354L37.8214 14.3181L37.8618 14.2895L38.1508 14.6975ZM36.2029 16.7579L35.7273 16.9123L35.6357 16.63L35.8396 16.4144L36.2029 16.7579ZM37.9814 22.2346V22.7346H37.618L37.5058 22.389L37.9814 22.2346ZM38.8277 22.2346L39.302 22.3929L39.1879 22.7346H38.8277V22.2346ZM39.5623 20.033L40.0538 20.1251L40.0474 20.1588L40.0366 20.1912L39.5623 20.033ZM39.9012 18.2264L40.3976 18.1672L40.4067 18.2433L40.3926 18.3186L39.9012 18.2264ZM28.1856 11.9871L25.9824 11.3375L26.2652 10.3784L28.4684 11.0279L28.1856 11.9871ZM26.1238 11.358H22.1437V10.358H26.1238V11.358ZM22.028 11.3444L20.2495 10.9212L20.481 9.94839L22.2594 10.3715L22.028 11.3444ZM20.0625 10.8328L18.7642 9.84517L19.3696 9.04926L20.6679 10.0369L20.0625 10.8328ZM18.6834 9.76805L16.3686 7.00116L17.1356 6.35949L19.4504 9.12638L18.6834 9.76805ZM16.4271 7.06035L14.6768 5.56372L15.3266 4.80367L17.077 6.3003L16.4271 7.06035ZM14.6148 5.50042L14.3611 5.19048L15.1349 4.55703L15.3886 4.86697L14.6148 5.50042ZM14.2951 5.08561L14.0968 4.66169L15.0026 4.23797L15.2009 4.66189L14.2951 5.08561ZM14.3017 4.884L13.9066 4.65836L14.4026 3.79002L14.7976 4.01566L14.3017 4.884ZM14.2042 4.72173L13.3579 4.80605L13.2587 3.81097L14.105 3.72665L14.2042 4.72173ZM13.015 3.90356L13.8332 3.31099L14.4198 4.12089L13.6016 4.71346L13.015 3.90356ZM13.8867 3.2772L14.1966 3.10779L14.6762 3.98527L14.3663 4.15468L13.8867 3.2772ZM14.3158 3.0613L14.8811 2.92077L15.1223 3.89122L14.5571 4.03176L14.3158 3.0613ZM14.5153 3.52184L14.374 2.9285L15.3468 2.69682L15.4881 3.29015L14.5153 3.52184ZM14.3896 2.98107L14.2483 2.58602L15.1899 2.24921L15.3312 2.64425L14.3896 2.98107ZM14.2943 2.68145L13.7861 1.86325L14.6355 1.33559L15.1438 2.15378L14.2943 2.68145ZM14.578 1.93881L8.36815 8.65689L7.63381 7.9781L13.8436 1.26003L14.578 1.93881ZM8.50079 8.30367L8.557 10.3367L7.55738 10.3643L7.50117 8.33131L8.50079 8.30367ZM8.54751 10.2526L8.82936 11.6641L7.84871 11.8599L7.56686 10.4484L8.54751 10.2526ZM8.79226 11.5509L9.3575 12.7641L8.45105 13.1864L7.88581 11.9732L8.79226 11.5509ZM9.30874 12.6813L10.212 13.9242L9.40311 14.5121L8.49981 13.2692L9.30874 12.6813ZM10.0661 13.7902L11.4206 14.6084L10.9036 15.4643L9.54905 14.6462L10.0661 13.7902ZM11.3228 14.5629L12.7351 15.0423L12.4137 15.9892L11.0014 15.5098L11.3228 14.5629ZM12.8633 15.1076L14.0203 15.9266L13.4426 16.7428L12.2856 15.9238L12.8633 15.1076ZM14.2148 16.2065L14.6941 18.0139L13.7275 18.2703L13.2482 16.4629L14.2148 16.2065ZM14.7074 18.0835L15.1602 21.9223L14.1671 22.0394L13.7143 18.2006L14.7074 18.0835ZM15.1447 21.8446L15.6803 23.7355L14.7181 24.008L14.1826 22.1171L15.1447 21.8446ZM15.6166 23.5966L16.3794 24.7536L15.5445 25.304L14.7818 24.147L15.6166 23.5966ZM16.462 25.0288V25.8478H15.462V25.0288H16.462ZM16.0119 26.3453L15.1649 26.4304L15.0649 25.4354L15.912 25.3503L16.0119 26.3453ZM15.3031 26.3961L13.4965 27.13L13.1201 26.2035L14.9267 25.4696L15.3031 26.3961ZM13.6306 26.2845L17.4132 29.4745L16.7685 30.239L12.986 27.049L13.6306 26.2845ZM17.4676 29.528L18.8221 31.0801L18.0687 31.7376L16.7142 30.1855L17.4676 29.528ZM18.8703 31.1452L19.8868 32.7831L19.0371 33.3104L18.0206 31.6725L18.8703 31.1452ZM19.9422 32.9077L20.5636 35.0531L19.6031 35.3313L18.9817 33.1859L19.9422 32.9077ZM20.5736 35.2905L20.234 36.9846L19.2535 36.7881L19.5931 35.0939L20.5736 35.2905ZM19.9676 37.3335L18.7825 37.9268L18.3348 37.0326L19.5199 36.4393L19.9676 37.3335ZM18.2981 37.9064L16.1246 36.5792L16.6457 35.7257L18.8192 37.053L18.2981 37.9064ZM16.0046 36.4768L13.7179 33.7943L14.4789 33.1456L16.7656 35.8281L16.0046 36.4768ZM13.8623 33.9107L13.0722 33.4875L13.5444 32.606L14.3345 33.0292L13.8623 33.9107ZM13.3384 33.5459L11.9269 33.631L11.8667 32.6328L13.2782 32.5477L13.3384 33.5459ZM12.1711 33.5499L11.1827 34.1987L10.634 33.3627L11.6224 32.7139L12.1711 33.5499ZM11.3438 34.0264L10.9769 34.6767L10.106 34.1853L10.4729 33.535L11.3438 34.0264ZM10.7812 33.9922L13.2092 35.3187L12.7298 36.1962L10.3017 34.8698L10.7812 33.9922ZM13.404 35.51L14.561 37.5414L13.692 38.0363L12.535 36.0049L13.404 35.51ZM14.623 37.8476L14.3693 39.9938L13.3762 39.8764L13.63 37.7302L14.623 37.8476ZM14.0919 40.3845L11.7763 41.5134L11.338 40.6146L13.6537 39.4856L14.0919 40.3845ZM12.0572 41.064V41.9111H11.0572V41.064H12.0572ZM11.5119 41.4131L13.3755 41.2437L13.466 42.2396L11.6024 42.409L11.5119 41.4131ZM13.6275 41.2864L14.8704 41.8509L14.4569 42.7614L13.214 42.1969L13.6275 41.2864ZM15.1229 42.1084L15.6584 43.352L14.74 43.7475L14.2044 42.5039L15.1229 42.1084ZM15.6966 43.6003L15.4991 45.5466L14.5043 45.4457L14.7018 43.4993L15.6966 43.6003ZM14.7948 45.0409L16.037 44.4765L16.4507 45.3869L15.2086 45.9513L14.7948 45.0409ZM16.416 44.4623L17.2631 44.773L16.9187 45.7118L16.0716 45.4011L16.416 44.4623ZM17.4077 44.8556L18.3391 45.6183L17.7055 46.392L16.7741 45.6292L17.4077 44.8556ZM18.1544 45.5229L19.594 45.9172L19.3299 46.8817L17.8902 46.4874L18.1544 45.5229ZM19.3166 45.921L20.8976 45.4409L21.1882 46.3977L19.6072 46.8778L19.3166 45.921ZM20.7542 45.511L21.9112 44.6928L22.4886 45.5093L21.3316 46.3275L20.7542 45.511ZM22.1049 44.6102L22.9801 44.4408L23.1701 45.4226L22.2949 45.592L22.1049 44.6102ZM23.5153 44.6945L24.3061 46.1622L23.4258 46.6366L22.6349 45.1689L23.5153 44.6945ZM23.6013 45.9752L24.5046 45.4116L25.034 46.2599L24.1307 46.8236L23.6013 45.9752ZM24.432 45.4666L25.0816 44.8732L25.756 45.6116L25.1065 46.2049L24.432 45.4666ZM25.0333 44.9241L25.5696 44.2745L26.3407 44.9112L25.8044 45.5608L25.0333 44.9241ZM25.5195 44.3475L26.0278 43.445L26.8991 43.9357L26.3908 44.8382L25.5195 44.3475ZM26.0588 43.984L23.7432 40.794L24.5524 40.2066L26.8681 43.3966L26.0588 43.984ZM23.6734 40.3423L24.5767 37.6308L25.5255 37.9469L24.6222 40.6583L23.6734 40.3423ZM24.6704 37.4647L26.7604 35.0101L27.5218 35.6584L25.4318 38.113L24.6704 37.4647ZM26.6815 35.1373L27.8674 32.3704L28.7866 32.7644L27.6007 35.5313L26.6815 35.1373ZM27.9012 32.3054L28.3532 31.5707L29.2049 32.0948L28.7528 32.8294L27.9012 32.3054ZM28.3303 31.6122L29.1766 29.8907L30.074 30.3319L29.2278 32.0534L28.3303 31.6122ZM29.132 30.0301L29.4154 28.3078L30.4021 28.4702L30.1187 30.1925L29.132 30.0301ZM29.6375 28.809L27.3211 27.3132L27.8636 26.4731L30.18 27.969L29.6375 28.809ZM27.1534 27.1326L26.3063 25.5797L27.1842 25.1009L28.0313 26.6537L27.1534 27.1326ZM26.2456 25.3581L26.1902 23.8061L27.1895 23.7704L27.2449 25.3225L26.2456 25.3581ZM26.4447 23.3524L27.6009 22.7021L28.0912 23.5737L26.935 24.224L26.4447 23.3524ZM27.4305 22.8599L30.4519 18.3434L31.283 18.8995L28.2617 23.4159L27.4305 22.8599ZM30.3807 18.5071L30.9178 16.2204L31.8913 16.449L31.3542 18.7358L30.3807 18.5071ZM30.9046 16.3347V14.4438H31.9046V16.3347H30.9046ZM30.9826 14.7119L30.0496 13.2434L30.8937 12.7072L31.8266 14.1757L30.9826 14.7119ZM30.1892 13.3879L28.0446 11.9201L28.6094 11.0949L30.754 12.5627L30.1892 13.3879ZM39.2114 16.5206L38.3635 14.4041L39.2918 14.0322L40.1397 16.1488L39.2114 16.5206ZM39.1166 14.6262L38.4397 15.1056L37.8618 14.2895L38.5387 13.8101L39.1166 14.6262ZM38.5141 15.041L36.5662 17.1014L35.8396 16.4144L37.7875 14.354L38.5141 15.041ZM36.6784 16.6034L38.4569 22.0802L37.5058 22.389L35.7273 16.9123L36.6784 16.6034ZM37.9814 21.7346H38.8277V22.7346H37.9814V21.7346ZM38.3534 22.0763L39.088 19.8747L40.0366 20.1912L39.302 22.3929L38.3534 22.0763ZM39.0709 19.9408L39.4097 18.1342L40.3926 18.3186L40.0538 20.1251L39.0709 19.9408ZM39.4047 18.2856L39.179 16.3939L40.172 16.2755L40.3976 18.1672L39.4047 18.2856Z" fill="#678B28" fill-opacity="0.4" mask="url(#path-1-inside-1)"/>
</svg>
