<svg width="48" height="48" viewBox="0 0 48 48" fill="none" xmlns="http://www.w3.org/2000/svg">
<mask id="path-1-inside-1" fill="white">
<path d="M40.5299 28.1398L40.4893 28.0837L40.04 28.0806L39.9776 27.9994L40.0087 27.9683L40.1554 27.9714L40.1991 28.0244L40.6422 28.0276L40.6828 28.0806L40.7826 28.0837L40.9293 28.2803L40.9106 28.3989L40.8357 28.4239L40.8138 28.3957L40.8731 28.3396L40.7202 28.196L40.6797 28.1398H40.5299Z"/>
<path d="M41.4723 28.6204L41.4473 28.6516H41.2975L41.2757 28.6204L41.285 28.5674L41.3163 28.5361L41.3536 28.5955L41.4535 28.5924L41.4723 28.6204Z"/>
<path d="M41.3568 28.3957L41.4004 28.4519L41.3693 28.4769L41.3006 28.455L41.3474 28.3084L41.5409 28.3115L41.5877 28.3677L41.6376 28.3645L41.8561 28.5393L42.0964 28.5924L42.3678 28.7671L42.4677 28.7639L42.6018 28.8794L42.9794 28.9917L43.0855 29.1353L43.0449 29.2164L42.9981 29.2196L42.9856 29.1322L42.8765 29.0511L42.7266 29.048L42.4521 28.8825L42.2118 28.8233L42.0776 28.7078L41.9809 28.7109L41.8498 28.5955L41.6594 28.5361L41.4878 28.3677L41.3568 28.3957Z"/>
<path d="M43.747 28.8233L43.6597 28.9075L43.5847 29.0791H43.5348L43.563 28.9075L43.7034 28.7639L43.8126 28.7078H44.0092L44.1028 28.7639L44.2807 28.8794L44.7549 29.5316L44.6301 29.5628L44.5178 29.335H44.4647L44.3493 29.1041H44.2993L44.2651 28.9917L43.953 28.7671L43.747 28.8233Z"/>
<path d="M39.6873 27.7967H39.5376L39.5001 27.8871L39.4533 27.884L39.497 27.7404H39.7935L39.8871 27.9402L39.8091 27.9683L39.7997 27.884L39.6873 27.7967Z"/>
<path d="M36.3017 24.9882L36.3297 24.957L36.4484 24.9852L36.3985 25.3315L36.4421 25.3846L36.3048 26.3519L36.1551 26.3487L36.2143 26.2957L36.2798 25.837L36.3391 25.7809L36.3017 25.6685L36.336 25.4376L36.2923 25.3814L36.3891 25.0444L36.3017 24.9882Z"/>
<path d="M37.1005 27.3753L37.1068 27.3192L37.1348 27.288H37.1848L37.2066 27.3161L37.1972 27.3753L37.113 27.4596H37.0631L37.0443 27.4315L37.1005 27.3753Z"/>
<path d="M45.0794 29.8998L44.8954 29.7874L44.836 29.8467L44.8174 29.8156L44.8548 29.7282L45.0045 29.7313L45.2667 29.9591L45.4539 30.2118L45.4415 30.268L45.7753 30.7236L45.8127 30.839L45.794 30.9514L45.6567 31.0356L45.7098 30.839L45.5444 30.6113L45.5537 30.5519L45.0794 29.8998Z"/>
<path d="M37.0443 20.7819L37.1037 20.7257L37.1348 20.4979L37.191 20.4418L37.1848 20.1578L37.2409 20.0985L37.1817 19.8146L37.2035 19.643L37.113 19.593L37.2409 19.5618L37.3065 19.646L37.2815 19.8177L37.3221 19.8739L37.2222 20.5573L37.1692 20.6103L37.0537 21.0627L36.9944 21.122L36.9725 21.2936L36.7105 21.7492L36.5107 21.9459L36.3891 21.9209L36.4265 21.8335L36.4671 21.8927L36.6668 21.69L36.7541 21.4622L36.8665 21.3529L36.9632 21.0128L37.0225 20.9535L37.0443 20.7819Z"/>
<path d="M37.7901 27.2349L37.8993 27.3161L37.7215 27.3442L37.5717 27.2037L37.6498 27.1726L37.6871 27.2319L37.7901 27.2349Z"/>
<path d="M38.0398 27.3753L38.0148 27.4003H37.9587L37.9431 27.3723L37.968 27.3442H38.0179L38.0398 27.3753Z"/>
<path d="M36.386 24.5576L36.4359 24.5607L36.4577 24.5889L36.4327 24.7573L36.4047 24.7886H36.3516L36.336 24.7573L36.3891 24.7043L36.3953 24.6481L36.3579 24.5889L36.386 24.5576Z"/>
<path d="M18.9896 16.1824L18.9022 16.2635H18.8523L18.7898 16.1824L18.8023 16.0669L18.9458 15.9265L19.0956 15.9296L19.1581 16.0108L19.1237 16.0982L19.0332 16.0358L18.9896 16.1824Z"/>
<path d="M2.50434 11.2365L2.4762 11.2678L2.42631 11.2646L2.40446 11.2396L2.4357 11.2115L2.48245 11.2084L2.50434 11.2365Z"/>
<path d="M2.04249 11.3551L1.95511 11.4393L1.80848 11.4362L1.7086 11.2926L1.84284 11.2084L1.88337 11.2678L1.9364 11.2115L2.06124 11.2365L2.00196 11.2926L2.04249 11.3551Z"/>
<path d="M36.5763 23.7369L36.5451 23.9648L36.4577 24.049L36.386 24.0209L36.5045 23.9117L36.5825 23.3376L36.492 23.2845L36.5794 23.1971L36.6824 23.3407L36.6356 23.6808L36.5763 23.7369Z"/>
<path d="M46.0593 31.8594L46.0998 31.9187L46.0749 32.0873L46.1154 32.1465L46.0062 32.6021L45.9469 32.6582L45.769 33.5632L45.7971 33.6786L45.7441 33.738L45.7035 34.0219L45.6443 34.0749L45.6006 34.2215L45.5007 34.2185L45.4383 34.1343L45.4601 33.9626L45.5412 33.9345L45.4945 34.0781L45.56 34.1592L45.585 34.1343L45.6692 33.5632L45.7254 33.5102L45.6817 33.454L45.844 32.6582L45.9782 32.4273L46.0031 31.9187L45.9594 31.8626L46.0093 31.5193L45.9501 31.2354L45.8877 31.1542L45.766 31.3196L45.7441 31.2915L45.769 31.123L45.8564 31.0387L45.9563 31.0356L46.0593 31.1792L46.0405 31.2946L46.1154 31.4631L46.0593 31.8594Z"/>
<path d="M1.7336 11.6078L1.59944 11.5485L1.43092 11.664L1.31543 11.5829L1.32793 11.5235L1.47145 11.3801L1.55258 11.3489L1.5058 11.2989L1.53698 11.2678L1.64622 11.352L1.70235 11.4924L1.82409 11.5235L1.7336 11.6078Z"/>
<path d="M9.18512 15.8391L9.20077 15.7268L9.23198 15.6956L9.2944 15.783L9.20702 15.8673L9.18512 15.8391Z"/>
<path d="M45.2137 35.1889L45.3103 35.1858L45.4165 35.3262L45.3384 35.3543L45.2948 35.2981H45.2479L45.1856 35.2139L45.2137 35.1889Z"/>
<path d="M45.2542 34.362L45.1419 34.4744L45.1263 34.5867L45.1699 34.646L45.1013 34.7583L44.939 34.8706L44.9203 34.9861L44.9515 35.1015L44.7892 35.2139L44.7736 35.3262L44.8579 35.4417L44.8329 35.6103L44.5552 35.7818L44.6426 35.8973L44.5771 36.0065L44.5427 36.2374L44.3648 36.4621L44.2244 36.746L44.1683 36.8053L44.1995 36.9177L44.0746 36.9488L43.9779 37.0893L44.0029 37.2577L43.875 37.2859L43.8375 37.3732L43.5786 37.626L43.2727 37.6822L43.0356 37.9692L42.9357 37.9661L42.8796 38.0254H42.7298L42.6705 38.0816L42.1681 38.1377L41.9871 38.0254L41.647 37.9661L41.569 37.8569L41.4909 37.8818L41.4723 37.9974L41.3849 38.0816H41.2382L41.1477 38.0286L40.9074 37.6291L40.7608 37.626L40.7015 37.6852L40.5455 37.7415L40.3583 37.4856L40.3489 37.3982L40.1585 37.3451L40.1117 37.2859L40.0181 37.289L39.9713 37.2297H39.7248L39.5969 37.1204L39.4939 37.1173L39.4128 37.0019L39.3129 37.005L39.2006 37.1173L38.8917 37.1767L38.8605 37.0581L38.7138 37.0612L38.5828 36.9488L38.4797 36.9457L38.358 36.7741L38.096 36.8895H37.8993L37.8526 36.8334L37.7933 36.8927L37.6996 36.8895L37.5061 36.6899L37.5186 36.5775L37.4562 36.4902L37.1692 36.4339L37.035 36.1812L37.0412 36.1219L36.8914 35.9784L36.4796 36.0408L36.3454 35.7818L36.3703 35.6103L36.3391 35.4978L36.1519 35.2389L35.9928 35.1546L35.9242 34.9299L35.793 34.8145L35.8086 34.7021L35.6308 34.3901L35.481 34.3932L35.4436 34.334L35.2532 34.2747L35.1534 34.0781L35.1378 33.8502L35.194 33.791L35.2221 33.6256L35.4436 33.4508L35.4623 33.3386L35.5153 33.2792L35.4841 33.17L35.5403 33.1107L35.5559 32.9984L35.4935 32.911L35.4311 33.0296L35.3187 32.9391L35.3936 32.7675L35.2719 32.5428L35.3312 32.4835L35.3812 32.1465L35.3156 31.9187L35.1284 31.666L34.988 31.6035L34.885 31.4601L34.9599 31.2946L34.7353 31.123L34.9006 31.0107L34.9693 30.8952L34.9912 30.7267L34.91 30.6113L34.8819 30.4365L34.7384 30.2461L34.5979 30.1838L34.5449 30.0433L34.367 29.8749L34.3951 29.7032L34.4731 29.6783L34.5106 29.7282L34.6073 29.5909L34.3951 29.5035L34.3857 29.4161L34.2547 29.3038L34.2609 29.2476L34.4045 29.1041L34.6354 29.2196L34.6635 29.1884L34.6229 29.1353L34.6915 29.0198L34.5761 28.9387L34.2797 28.9356L34.1923 29.0198L34.2017 29.1634L33.9894 29.2196L33.899 29.1634L33.7149 28.9075L33.9395 28.8763L34.0238 28.9917L34.1205 28.8482L33.9988 28.8233L33.9395 28.7359L33.9988 28.6797L34.03 28.5924L34.1954 28.4832H34.392L34.4513 28.4239H34.5511L34.5855 28.3365L34.6946 28.2803L34.2672 28.168L34.2766 28.1118L34.417 27.9714L34.6447 27.9402L34.5231 27.9121L34.392 27.7998L34.2828 27.8559H34.1361L33.977 28.1118L34.0113 28.2241L33.927 28.3084H33.8709L33.7991 28.1398L33.5588 28.2803L33.6743 28.3115L33.7772 28.4519L33.7399 28.5393H33.5432L33.459 28.4239H33.3154L33.2281 28.5082L33.3342 28.6516L33.4871 28.5924L33.5494 28.6797L33.4902 28.7359L33.5744 28.8482L33.5588 28.9637L33.4996 29.0198L33.4777 29.1946L33.4122 29.3006L33.044 29.619L32.7881 29.672L32.7475 29.619L32.6477 29.6158L32.5353 29.7345L32.2888 29.7282L32.1141 29.9029L31.9081 29.9591L31.852 30.0183L31.5524 30.0121L31.4931 30.0715H31.3495L31.3278 30.0465L31.3964 29.9279L31.3309 29.8467L31.2715 29.9029L31.0719 29.8998L31.0188 29.9591L30.919 29.956L30.8004 30.0715L30.6693 29.956L30.3229 29.9622L30.2668 30.0152H30.0702L29.9236 30.1588L29.9329 30.4428L29.8548 30.4708L29.7893 30.5831L29.6926 30.5801L29.5273 30.6924L29.3525 30.527L29.2058 30.5239L28.8688 30.811L28.6598 30.8671L28.6036 30.9233H28.5069L28.4257 30.8078L28.3259 30.811L28.2822 30.7548L28.0762 30.811L27.9857 30.7548L27.9264 30.8078L27.7798 30.811L27.7392 30.7517H27.5926L27.5333 30.811H27.2867L27.2681 30.7798L27.3804 30.6674L27.3117 30.6394L27.0372 30.811L26.9435 30.7517L26.8312 30.8671L26.6284 30.9233L26.5379 31.0076L26.5347 31.0669L26.4442 31.1511H26.3475L26.2321 31.2665H26.1322L26.0917 31.2073L25.9824 31.2665L25.9419 31.2073L25.8327 31.2665L25.7921 31.2042L25.7359 31.2634L25.5206 31.0356L25.3116 31.0919L25.1493 31.2073H25.0494L24.9683 31.0949L24.8154 31.1511L24.753 31.07L24.7749 30.8952L24.8965 30.7267L24.8778 30.6986L24.7686 30.7517L24.6625 30.4677L24.6063 30.5239H24.3068L24.2662 30.4708L24.1663 30.4677L24.0446 30.2992L23.8605 30.1869L23.7108 30.1838L23.6702 30.1276H22.8308L22.7902 30.0715L22.6436 30.0746L22.5999 30.0152L22.5001 30.0121L22.4408 29.931L22.4438 29.8717L22.6155 29.7001L22.5968 29.672L22.3128 29.6127L22.2286 29.5035H22.0788L22.0195 29.5597L21.386 29.5035L21.3268 29.5628L21.2269 29.5597L21.1052 29.3881H20.8556L20.6434 29.5035H20.4936L20.3314 29.2757L20.0442 29.1602L20.0131 29.048L19.8695 29.0511L19.7822 28.9356H19.6823L19.5075 28.7671L19.4545 28.8202L19.3515 28.8233L19.2673 28.7671L19.1986 28.6797L19.2985 28.3396L19.2673 28.2273L19.1767 28.168L19.1393 28.0556L19.1955 27.3161L19.155 27.2599L19.1206 27.1476L19.1456 26.979L19.0645 26.8636L19.0801 26.7451L19.0364 26.6951L19.0863 26.3487L19.1425 26.2957L19.2017 25.8963L19.1581 25.837L19.1643 25.4407L19.1237 25.3814L19.1456 25.2161L19.0738 25.0444L19.0863 24.932L18.9958 24.8728L19.0239 24.7043L18.9458 24.5327L18.9365 24.2455L18.8553 24.1333L18.8709 24.0241L18.7462 23.8493L18.7773 23.6215L18.7118 23.3968L18.7462 23.169L18.7024 23.1097L18.7212 23.0005L18.7743 22.9412L18.6432 22.8289L18.6619 22.7135L18.5278 22.598L18.5527 22.4327L18.4934 22.1486L18.2844 21.8647L18.1845 21.5183L17.9692 21.2936L18.041 21.122L18.2157 20.9535L18.2313 20.8412L18.1532 20.6696L18.1907 20.4418L18.0815 20.161L18.1002 20.0423L18.2687 19.8739L18.2531 19.646L18.3093 19.5868L18.3593 19.2466L18.4216 19.1344L18.5464 18.9627L18.5839 18.6819L18.5433 18.6226L18.5902 18.2825L18.5496 18.2263L18.5745 18.0547L18.4996 17.8861L18.5464 17.546L18.5121 17.4306L18.4529 17.3432L18.2937 17.4025L18.2313 17.3182L18.3468 17.2028L18.3624 17.0936L18.4497 17.0031L18.5714 17.0312L18.5028 17.1466L18.5278 17.1778L18.6027 17.1466L18.6152 16.6941L18.5777 16.6349L18.6089 16.4071L18.6369 16.379L18.7618 16.5475L18.9115 16.5506L19.0176 16.4944L19.2205 16.2916L19.2423 16.12L19.208 16.0108L19.2891 15.9796L19.3296 16.0419L19.4295 15.8391L19.5606 15.8079L19.6012 15.8704L19.7634 15.7549L19.804 15.811L19.8945 15.7268L19.9163 15.5553L19.9943 15.5303L20.0349 15.5864L20.2159 15.3555L20.3969 15.471H20.6933L20.8618 15.3586L21.1645 15.2994L21.2238 15.2431H21.2737L21.4547 15.0154H21.5982L21.6887 14.9311L21.72 14.7002L21.6762 14.6471L21.7449 14.5349L21.6731 14.5067L21.5671 14.5629L21.5077 14.4194L21.7948 14.332L21.8416 14.1915L21.9259 14.1042L22.1194 14.1635L22.2878 13.9918L22.6436 13.9356L22.6841 13.995H22.784L22.8401 13.9388L22.9338 13.995H23.1304L23.3301 13.7984L23.3394 13.7391L23.4767 13.6549L23.5672 13.711L23.6827 13.9388L23.7762 13.9888L24.029 13.9356L24.1352 13.8795L24.1726 13.7922L24.4222 13.5956L24.5377 13.8234L24.6281 13.8826L24.7811 13.8795L24.8965 13.7704L25.0838 13.8234L25.1898 13.7641L25.3427 13.5675L25.2991 13.5113L25.3896 13.4271L25.5393 13.4239L25.6236 13.3397L25.6954 13.1681L25.6236 13.14L25.5705 12.9995L25.8483 12.9715L26.0698 12.7998H26.1697L26.3195 12.6033L26.5285 12.2039L26.438 11.7514L26.5191 11.7233L26.6096 11.7764L26.6689 11.7202L26.7656 11.7171L26.8499 11.8325L26.956 11.7764L26.9778 11.8044L26.8967 12.0353L27.0403 12.2319H27.1901L27.3523 12.1196L27.4521 12.1165L27.4584 12.26L27.3991 12.3162L27.5021 12.4597H27.552L27.6363 12.5752L27.8734 12.6282L27.9171 12.6875H28.2635L28.354 12.7437L28.4132 12.6843L28.6723 12.6282L28.8033 12.7437H29.5959L29.6333 12.7998L30.17 12.856L30.3823 12.7437L30.6007 12.9715L30.7005 12.9684L30.7411 13.0277L30.7972 12.9715H30.8971L31.103 13.2586L31.284 13.3678H31.5836L31.6897 13.3116L31.7646 13.4801L32.0548 13.5425L32.373 13.9076L32.3762 14.0511L32.4854 13.995L32.6726 14.2477L32.6851 14.3382L32.7351 14.332L32.9191 14.591L32.9098 14.6471L33.019 14.7876L33.2 14.8999L33.537 14.9592L33.6431 14.903L33.7305 15.0154H33.8241L33.8709 15.0747L34.0144 15.0715L34.0737 15.0185H34.3733L34.4138 15.0747L34.6073 15.0715L34.6479 15.1339L34.7976 15.1308L34.8445 15.1901L34.938 15.1869L35.1721 15.2994L35.3593 15.5553L35.3718 15.6426L35.4716 15.6395L35.5528 15.7549L35.6964 15.811L35.6901 16.0108L35.8118 16.1824L35.7962 16.2947L35.9459 16.638L35.9242 16.8065L35.9865 16.8908L36.0458 16.8345L36.258 17.0623L36.4484 17.1186L36.595 17.3151L36.5888 17.3743L36.7479 17.6584L36.7635 17.8893L36.6356 18.0578L36.8634 18.2231L36.6949 18.3386L36.8447 18.6788L36.7791 18.7942L36.7666 18.9097L36.8977 19.0189L36.9663 19.2498L36.9321 19.4775L37.0506 19.6992L36.9601 19.9893L36.9008 20.0423L36.879 20.214L36.7635 20.3264L36.7947 20.4418L36.7729 20.6134L36.5919 20.8381L36.6231 20.9535L36.5919 21.1782L36.5357 21.2375L36.5107 21.4061L36.3017 21.6618L36.2018 21.665L36.1363 21.7773L36.0614 21.8054L36.1426 21.9177L36.0988 22.2048L35.9865 22.314L36.0177 22.4295L35.8555 22.5449L35.8211 22.7728L35.9522 22.882L35.8992 22.9412L35.9397 22.9974L35.9148 23.169L35.8586 23.2221L35.8211 23.453L35.9803 23.7369L35.974 23.7962L36.0146 23.8462L35.974 24.1333L36.0895 24.3642L36.0458 24.7011L35.9865 24.7605L35.9584 24.929L36.0022 24.9882L35.9459 25.3814L35.8804 25.5L35.921 25.5561L35.8742 25.8963L35.9179 25.9524L35.9304 26.1833L35.8742 26.2365L35.843 26.4611L35.7837 26.5204L35.7556 26.7481L35.6839 26.8605L35.6308 26.9198L35.5809 27.2599L35.6027 27.288L35.7119 27.2287L35.7056 27.4284L35.8368 27.5439L35.818 27.6562L35.8804 27.7435L35.9335 27.7404L36.2081 27.9121H36.4077L36.57 27.8029L36.7168 27.7967L36.9725 28.0806L37.3377 28.3084L37.3782 28.3677H37.5779L37.6185 28.427L38.0616 28.4239L38.1053 28.48H38.4516L38.6171 28.3677L38.7138 28.3707L38.9291 28.2553L39.0383 28.1992L39.0477 28.2865L39.1631 28.3677L39.3223 28.2523L39.5251 28.2553L39.5782 28.1992L39.7185 28.2553L39.7778 28.196L39.9276 28.1992L40.1086 28.3084L40.2241 28.5393L40.3395 28.427L40.4331 28.4769L40.4862 28.4239L40.5579 28.4519L40.4987 28.5112L40.4862 28.6236L40.5393 28.7671L40.8138 28.9387L41.207 28.9356L41.4785 28.7671L41.5378 29.0511L41.6283 29.1041L41.775 29.1072L41.8592 29.2226L42.0526 29.2757L42.087 29.335L42.2368 29.3319L42.2773 29.3911L42.5799 29.3881L42.6143 29.4473L42.7111 29.5035L42.7641 29.4505L42.864 29.4443L42.9045 29.5066L43.4007 29.5035L43.5972 29.36L43.719 29.1884L43.6909 29.0198L43.7814 28.9356H43.9779L44.0778 29.0791L44.0559 29.2476L43.9998 29.3069L44.0185 29.5316L44.1215 29.672L44.2213 29.6752L44.4023 29.7874L44.5053 29.9279L44.4866 30.0433L44.5927 30.1838L44.9765 30.4397L44.9671 30.4989L45.0919 30.6674L45.0763 30.7828L45.2074 30.8983L45.1918 31.0076L45.2792 31.0669L45.2854 31.2073H45.3852L45.5381 31.3476L45.482 31.7471L45.3509 31.9718L45.3353 32.4304L45.4102 32.6021L45.2323 32.8268L45.2604 32.9423L45.3946 33.0545L45.2667 33.2261L45.2636 33.2854L45.1856 33.3104L45.0919 33.4508L45.1981 33.7317L45.1793 33.8502L45.2417 33.9345L45.301 33.8784L45.3697 33.9095L45.3572 34.0156L45.2979 34.0749L45.2323 34.1904L45.2542 34.362Z"/>
<path d="M10.8296 11.3801L10.8983 11.5485L11.0917 11.6078L11.1916 11.7514L11.1698 11.9168L11.0855 12.0073L10.8889 12.0041L10.7735 12.1196L10.5675 12.1758L10.4802 12.26L10.3398 12.5439L10.112 12.7718L10.0776 13.0027L10.1088 13.1119L9.94658 13.2274L9.93408 13.3397L9.78742 13.4832L9.68132 13.5395L9.39425 13.4832L9.30686 13.5706L9.28815 13.683L9.35364 13.7641L9.45352 13.7672L9.60644 13.9107L9.57519 14.1354L9.6439 14.3601L9.59704 14.6471L9.54401 14.7033L9.5128 14.9311L9.38175 15.1558L9.23823 15.2994L8.97297 15.4117L8.70153 15.5864L8.60479 15.5832L8.47063 15.6675L8.49241 15.8391L8.43313 15.8953L8.42063 16.0108L8.46124 16.0669L8.3801 16.2916L8.18348 16.6349L8.06807 16.7472L8.08681 16.9781L7.89955 17.0623L7.80906 17.1997L7.76853 17.4899L7.70607 17.5429L7.68428 17.7145L7.61876 17.83L7.53137 17.9111H7.43463L7.3129 18.0858H7.21309L7.11635 18.2231L7.19434 18.3979L7.10695 18.4822L6.8948 18.5976L6.79181 18.5945L6.75438 18.5383L6.44545 18.5976L6.40799 18.5383H6.305L6.14274 18.6506L5.99293 18.6538L5.86191 18.5414L5.62475 18.4822L5.58112 18.4229L5.52177 18.4822L5.27529 18.4853L5.21908 18.5383H5.11927L5.07867 18.4822H4.97879L4.9164 18.3947L4.93515 18.2825L4.99129 18.2231V17.8831L4.92265 17.8019L4.67925 18.142H4.43585L4.40156 18.0266L4.32982 17.9985L4.43274 17.599L4.37035 17.518L4.29233 17.5429L4.19869 17.6865H4.14881L4.07703 17.518L3.96154 17.4306L3.94911 17.3463L3.76813 17.234L3.75563 17.1466L3.66511 17.0904L3.68075 16.9781L3.58397 16.7784L3.4311 16.6349L3.4467 16.5225L3.50284 16.4632L3.38117 16.2916L3.37807 16.1543L3.32504 16.1512L3.25319 15.9827L3.15341 15.9796L3.09099 15.8984L3.10656 15.783L3.04103 15.6956L2.85384 15.6426L2.7727 15.5271L2.67286 15.5303L2.56983 15.3867L2.56358 15.2431H2.46381L2.38892 15.0747L2.05189 15.0122L2.00503 14.8156L1.86776 14.7033L1.88023 14.6471L1.79599 14.5349L1.81159 14.4194L1.71171 14.0793L1.53698 13.9076L1.44652 13.5113L1.5058 13.452L1.52766 13.2836L1.41842 12.9995L1.44027 12.828L1.49955 12.7718L1.52141 12.6033L1.4808 12.5439L1.53391 12.1477L1.59629 12.0915L1.68368 11.8076L1.77099 11.7202L1.92701 11.661L2.04874 11.4955L2.18291 11.6047L2.4887 11.5485L2.52619 11.6078H2.67596L2.85073 11.4362L3.03167 11.5517L3.11592 11.664L3.16277 11.6672L3.27818 11.5517L3.47481 11.5485L3.55908 11.664L3.79927 11.7202L3.91476 11.6078L4.10202 11.664L4.16441 11.6047L4.35785 11.6078L4.51698 11.8919L4.68239 11.9761L4.698 12.2008L4.82902 12.3162L4.81341 12.4285L4.85402 12.4878L4.88837 12.6002L4.81038 12.828L4.9414 12.9402L5.01003 13.1712L4.99129 13.2836L5.05057 13.3678H5.15045L5.24094 13.2836L5.28147 12.9995L5.18791 12.9402L5.19105 12.5471L5.15356 12.4878L5.20041 12.1477L5.25969 12.0884L5.28147 11.9199L5.40321 11.7514L5.60601 11.3551L5.80577 11.1523L5.91805 11.0961H6.21455L6.25508 11.1523L6.49538 11.2084L6.66075 11.0961H6.8573L7.01021 11.2396L6.9073 11.6328L6.96968 11.8606L6.94158 12.0915L7.02271 12.2039L6.91665 12.6033L6.95093 12.7156L7.01332 12.7998H7.1132L7.19748 12.7156L7.39714 12.3754L7.3535 12.313L7.37846 12.1477L7.30358 11.9761L7.32536 11.8044L7.38471 11.7514L7.40964 11.5798L7.37535 11.4674L7.43149 11.4081L7.47202 11.1242L7.55941 11.0369L7.70607 11.0399L7.81531 10.9837L7.97757 10.8683L8.26776 10.9276L8.3801 10.8121H8.57665L8.6204 10.8652L8.71089 10.9276L8.86066 10.9245L9.0791 10.756L9.22887 10.7528L9.44417 10.6406H9.5908L9.65007 10.5844L9.85609 10.5313L10.0371 10.3004H10.1869L10.268 10.4159L10.3647 10.4127L10.5457 10.7279L10.6143 10.9526L10.5987 11.068L10.6705 11.2365L10.7298 11.3801H10.8296Z"/>
<path d="M29.5148 30.9545L29.5241 30.8952L29.6115 30.8078L29.6302 30.836L29.6208 30.8952L29.5398 30.9795L29.5148 30.9545Z"/>
<path d="M45.4914 34.4744L45.5226 34.5899L45.482 34.8738L45.5787 35.217L45.5475 35.4417L45.4601 35.526L45.3915 35.4978L45.4477 35.4417L45.4726 35.2701L45.3977 35.1015L45.4133 34.9861L45.3728 34.933L45.4133 34.646L45.3478 34.4182L45.429 34.3901L45.4914 34.4744Z"/>
<path d="M28.1043 31.123L28.1917 31.0356H28.2416L28.2635 31.0637L28.2541 31.123L28.1698 31.2073H28.1168L28.0981 31.1792L28.1043 31.123Z"/>
</mask>
<path d="M40.5299 28.1398L40.4893 28.0837L40.04 28.0806L39.9776 27.9994L40.0087 27.9683L40.1554 27.9714L40.1991 28.0244L40.6422 28.0276L40.6828 28.0806L40.7826 28.0837L40.9293 28.2803L40.9106 28.3989L40.8357 28.4239L40.8138 28.3957L40.8731 28.3396L40.7202 28.196L40.6797 28.1398H40.5299Z" fill="#678B28" fill-opacity="0.4"/>
<path d="M41.4723 28.6204L41.4473 28.6516H41.2975L41.2757 28.6204L41.285 28.5674L41.3163 28.5361L41.3536 28.5955L41.4535 28.5924L41.4723 28.6204Z" fill="#678B28" fill-opacity="0.4"/>
<path d="M41.3568 28.3957L41.4004 28.4519L41.3693 28.4769L41.3006 28.455L41.3474 28.3084L41.5409 28.3115L41.5877 28.3677L41.6376 28.3645L41.8561 28.5393L42.0964 28.5924L42.3678 28.7671L42.4677 28.7639L42.6018 28.8794L42.9794 28.9917L43.0855 29.1353L43.0449 29.2164L42.9981 29.2196L42.9856 29.1322L42.8765 29.0511L42.7266 29.048L42.4521 28.8825L42.2118 28.8233L42.0776 28.7078L41.9809 28.7109L41.8498 28.5955L41.6594 28.5361L41.4878 28.3677L41.3568 28.3957Z" fill="#678B28" fill-opacity="0.4"/>
<path d="M43.747 28.8233L43.6597 28.9075L43.5847 29.0791H43.5348L43.563 28.9075L43.7034 28.7639L43.8126 28.7078H44.0092L44.1028 28.7639L44.2807 28.8794L44.7549 29.5316L44.6301 29.5628L44.5178 29.335H44.4647L44.3493 29.1041H44.2993L44.2651 28.9917L43.953 28.7671L43.747 28.8233Z" fill="#678B28" fill-opacity="0.4"/>
<path d="M39.6873 27.7967H39.5376L39.5001 27.8871L39.4533 27.884L39.497 27.7404H39.7935L39.8871 27.9402L39.8091 27.9683L39.7997 27.884L39.6873 27.7967Z" fill="#678B28" fill-opacity="0.4"/>
<path d="M36.3017 24.9882L36.3297 24.957L36.4484 24.9852L36.3985 25.3315L36.4421 25.3846L36.3048 26.3519L36.1551 26.3487L36.2143 26.2957L36.2798 25.837L36.3391 25.7809L36.3017 25.6685L36.336 25.4376L36.2923 25.3814L36.3891 25.0444L36.3017 24.9882Z" fill="#678B28" fill-opacity="0.4"/>
<path d="M37.1005 27.3753L37.1068 27.3192L37.1348 27.288H37.1848L37.2066 27.3161L37.1972 27.3753L37.113 27.4596H37.0631L37.0443 27.4315L37.1005 27.3753Z" fill="#678B28" fill-opacity="0.4"/>
<path d="M45.0794 29.8998L44.8954 29.7874L44.836 29.8467L44.8174 29.8156L44.8548 29.7282L45.0045 29.7313L45.2667 29.9591L45.4539 30.2118L45.4415 30.268L45.7753 30.7236L45.8127 30.839L45.794 30.9514L45.6567 31.0356L45.7098 30.839L45.5444 30.6113L45.5537 30.5519L45.0794 29.8998Z" fill="#678B28" fill-opacity="0.4"/>
<path d="M37.0443 20.7819L37.1037 20.7257L37.1348 20.4979L37.191 20.4418L37.1848 20.1578L37.2409 20.0985L37.1817 19.8146L37.2035 19.643L37.113 19.593L37.2409 19.5618L37.3065 19.646L37.2815 19.8177L37.3221 19.8739L37.2222 20.5573L37.1692 20.6103L37.0537 21.0627L36.9944 21.122L36.9725 21.2936L36.7105 21.7492L36.5107 21.9459L36.3891 21.9209L36.4265 21.8335L36.4671 21.8927L36.6668 21.69L36.7541 21.4622L36.8665 21.3529L36.9632 21.0128L37.0225 20.9535L37.0443 20.7819Z" fill="#678B28" fill-opacity="0.4"/>
<path d="M37.7901 27.2349L37.8993 27.3161L37.7215 27.3442L37.5717 27.2037L37.6498 27.1726L37.6871 27.2319L37.7901 27.2349Z" fill="#678B28" fill-opacity="0.4"/>
<path d="M38.0398 27.3753L38.0148 27.4003H37.9587L37.9431 27.3723L37.968 27.3442H38.0179L38.0398 27.3753Z" fill="#678B28" fill-opacity="0.4"/>
<path d="M36.386 24.5576L36.4359 24.5607L36.4577 24.5889L36.4327 24.7573L36.4047 24.7886H36.3516L36.336 24.7573L36.3891 24.7043L36.3953 24.6481L36.3579 24.5889L36.386 24.5576Z" fill="#678B28" fill-opacity="0.4"/>
<path d="M18.9896 16.1824L18.9022 16.2635H18.8523L18.7898 16.1824L18.8023 16.0669L18.9458 15.9265L19.0956 15.9296L19.1581 16.0108L19.1237 16.0982L19.0332 16.0358L18.9896 16.1824Z" fill="#678B28" fill-opacity="0.4"/>
<path d="M2.50434 11.2365L2.4762 11.2678L2.42631 11.2646L2.40446 11.2396L2.4357 11.2115L2.48245 11.2084L2.50434 11.2365Z" fill="#678B28" fill-opacity="0.4"/>
<path d="M2.04249 11.3551L1.95511 11.4393L1.80848 11.4362L1.7086 11.2926L1.84284 11.2084L1.88337 11.2678L1.9364 11.2115L2.06124 11.2365L2.00196 11.2926L2.04249 11.3551Z" fill="#678B28" fill-opacity="0.4"/>
<path d="M36.5763 23.7369L36.5451 23.9648L36.4577 24.049L36.386 24.0209L36.5045 23.9117L36.5825 23.3376L36.492 23.2845L36.5794 23.1971L36.6824 23.3407L36.6356 23.6808L36.5763 23.7369Z" fill="#678B28" fill-opacity="0.4"/>
<path d="M46.0593 31.8594L46.0998 31.9187L46.0749 32.0873L46.1154 32.1465L46.0062 32.6021L45.9469 32.6582L45.769 33.5632L45.7971 33.6786L45.7441 33.738L45.7035 34.0219L45.6443 34.0749L45.6006 34.2215L45.5007 34.2185L45.4383 34.1343L45.4601 33.9626L45.5412 33.9345L45.4945 34.0781L45.56 34.1592L45.585 34.1343L45.6692 33.5632L45.7254 33.5102L45.6817 33.454L45.844 32.6582L45.9782 32.4273L46.0031 31.9187L45.9594 31.8626L46.0093 31.5193L45.9501 31.2354L45.8877 31.1542L45.766 31.3196L45.7441 31.2915L45.769 31.123L45.8564 31.0387L45.9563 31.0356L46.0593 31.1792L46.0405 31.2946L46.1154 31.4631L46.0593 31.8594Z" fill="#678B28" fill-opacity="0.4"/>
<path d="M1.7336 11.6078L1.59944 11.5485L1.43092 11.664L1.31543 11.5829L1.32793 11.5235L1.47145 11.3801L1.55258 11.3489L1.5058 11.2989L1.53698 11.2678L1.64622 11.352L1.70235 11.4924L1.82409 11.5235L1.7336 11.6078Z" fill="#678B28" fill-opacity="0.4"/>
<path d="M9.18512 15.8391L9.20077 15.7268L9.23198 15.6956L9.2944 15.783L9.20702 15.8673L9.18512 15.8391Z" fill="#678B28" fill-opacity="0.4"/>
<path d="M45.2137 35.1889L45.3103 35.1858L45.4165 35.3262L45.3384 35.3543L45.2948 35.2981H45.2479L45.1856 35.2139L45.2137 35.1889Z" fill="#678B28" fill-opacity="0.4"/>
<path d="M45.2542 34.362L45.1419 34.4744L45.1263 34.5867L45.1699 34.646L45.1013 34.7583L44.939 34.8706L44.9203 34.9861L44.9515 35.1015L44.7892 35.2139L44.7736 35.3262L44.8579 35.4417L44.8329 35.6103L44.5552 35.7818L44.6426 35.8973L44.5771 36.0065L44.5427 36.2374L44.3648 36.4621L44.2244 36.746L44.1683 36.8053L44.1995 36.9177L44.0746 36.9488L43.9779 37.0893L44.0029 37.2577L43.875 37.2859L43.8375 37.3732L43.5786 37.626L43.2727 37.6822L43.0356 37.9692L42.9357 37.9661L42.8796 38.0254H42.7298L42.6705 38.0816L42.1681 38.1377L41.9871 38.0254L41.647 37.9661L41.569 37.8569L41.4909 37.8818L41.4723 37.9974L41.3849 38.0816H41.2382L41.1477 38.0286L40.9074 37.6291L40.7608 37.626L40.7015 37.6852L40.5455 37.7415L40.3583 37.4856L40.3489 37.3982L40.1585 37.3451L40.1117 37.2859L40.0181 37.289L39.9713 37.2297H39.7248L39.5969 37.1204L39.4939 37.1173L39.4128 37.0019L39.3129 37.005L39.2006 37.1173L38.8917 37.1767L38.8605 37.0581L38.7138 37.0612L38.5828 36.9488L38.4797 36.9457L38.358 36.7741L38.096 36.8895H37.8993L37.8526 36.8334L37.7933 36.8927L37.6996 36.8895L37.5061 36.6899L37.5186 36.5775L37.4562 36.4902L37.1692 36.4339L37.035 36.1812L37.0412 36.1219L36.8914 35.9784L36.4796 36.0408L36.3454 35.7818L36.3703 35.6103L36.3391 35.4978L36.1519 35.2389L35.9928 35.1546L35.9242 34.9299L35.793 34.8145L35.8086 34.7021L35.6308 34.3901L35.481 34.3932L35.4436 34.334L35.2532 34.2747L35.1534 34.0781L35.1378 33.8502L35.194 33.791L35.2221 33.6256L35.4436 33.4508L35.4623 33.3386L35.5153 33.2792L35.4841 33.17L35.5403 33.1107L35.5559 32.9984L35.4935 32.911L35.4311 33.0296L35.3187 32.9391L35.3936 32.7675L35.2719 32.5428L35.3312 32.4835L35.3812 32.1465L35.3156 31.9187L35.1284 31.666L34.988 31.6035L34.885 31.4601L34.9599 31.2946L34.7353 31.123L34.9006 31.0107L34.9693 30.8952L34.9912 30.7267L34.91 30.6113L34.8819 30.4365L34.7384 30.2461L34.5979 30.1838L34.5449 30.0433L34.367 29.8749L34.3951 29.7032L34.4731 29.6783L34.5106 29.7282L34.6073 29.5909L34.3951 29.5035L34.3857 29.4161L34.2547 29.3038L34.2609 29.2476L34.4045 29.1041L34.6354 29.2196L34.6635 29.1884L34.6229 29.1353L34.6915 29.0198L34.5761 28.9387L34.2797 28.9356L34.1923 29.0198L34.2017 29.1634L33.9894 29.2196L33.899 29.1634L33.7149 28.9075L33.9395 28.8763L34.0238 28.9917L34.1205 28.8482L33.9988 28.8233L33.9395 28.7359L33.9988 28.6797L34.03 28.5924L34.1954 28.4832H34.392L34.4513 28.4239H34.5511L34.5855 28.3365L34.6946 28.2803L34.2672 28.168L34.2766 28.1118L34.417 27.9714L34.6447 27.9402L34.5231 27.9121L34.392 27.7998L34.2828 27.8559H34.1361L33.977 28.1118L34.0113 28.2241L33.927 28.3084H33.8709L33.7991 28.1398L33.5588 28.2803L33.6743 28.3115L33.7772 28.4519L33.7399 28.5393H33.5432L33.459 28.4239H33.3154L33.2281 28.5082L33.3342 28.6516L33.4871 28.5924L33.5494 28.6797L33.4902 28.7359L33.5744 28.8482L33.5588 28.9637L33.4996 29.0198L33.4777 29.1946L33.4122 29.3006L33.044 29.619L32.7881 29.672L32.7475 29.619L32.6477 29.6158L32.5353 29.7345L32.2888 29.7282L32.1141 29.9029L31.9081 29.9591L31.852 30.0183L31.5524 30.0121L31.4931 30.0715H31.3495L31.3278 30.0465L31.3964 29.9279L31.3309 29.8467L31.2715 29.9029L31.0719 29.8998L31.0188 29.9591L30.919 29.956L30.8004 30.0715L30.6693 29.956L30.3229 29.9622L30.2668 30.0152H30.0702L29.9236 30.1588L29.9329 30.4428L29.8548 30.4708L29.7893 30.5831L29.6926 30.5801L29.5273 30.6924L29.3525 30.527L29.2058 30.5239L28.8688 30.811L28.6598 30.8671L28.6036 30.9233H28.5069L28.4257 30.8078L28.3259 30.811L28.2822 30.7548L28.0762 30.811L27.9857 30.7548L27.9264 30.8078L27.7798 30.811L27.7392 30.7517H27.5926L27.5333 30.811H27.2867L27.2681 30.7798L27.3804 30.6674L27.3117 30.6394L27.0372 30.811L26.9435 30.7517L26.8312 30.8671L26.6284 30.9233L26.5379 31.0076L26.5347 31.0669L26.4442 31.1511H26.3475L26.2321 31.2665H26.1322L26.0917 31.2073L25.9824 31.2665L25.9419 31.2073L25.8327 31.2665L25.7921 31.2042L25.7359 31.2634L25.5206 31.0356L25.3116 31.0919L25.1493 31.2073H25.0494L24.9683 31.0949L24.8154 31.1511L24.753 31.07L24.7749 30.8952L24.8965 30.7267L24.8778 30.6986L24.7686 30.7517L24.6625 30.4677L24.6063 30.5239H24.3068L24.2662 30.4708L24.1663 30.4677L24.0446 30.2992L23.8605 30.1869L23.7108 30.1838L23.6702 30.1276H22.8308L22.7902 30.0715L22.6436 30.0746L22.5999 30.0152L22.5001 30.0121L22.4408 29.931L22.4438 29.8717L22.6155 29.7001L22.5968 29.672L22.3128 29.6127L22.2286 29.5035H22.0788L22.0195 29.5597L21.386 29.5035L21.3268 29.5628L21.2269 29.5597L21.1052 29.3881H20.8556L20.6434 29.5035H20.4936L20.3314 29.2757L20.0442 29.1602L20.0131 29.048L19.8695 29.0511L19.7822 28.9356H19.6823L19.5075 28.7671L19.4545 28.8202L19.3515 28.8233L19.2673 28.7671L19.1986 28.6797L19.2985 28.3396L19.2673 28.2273L19.1767 28.168L19.1393 28.0556L19.1955 27.3161L19.155 27.2599L19.1206 27.1476L19.1456 26.979L19.0645 26.8636L19.0801 26.7451L19.0364 26.6951L19.0863 26.3487L19.1425 26.2957L19.2017 25.8963L19.1581 25.837L19.1643 25.4407L19.1237 25.3814L19.1456 25.2161L19.0738 25.0444L19.0863 24.932L18.9958 24.8728L19.0239 24.7043L18.9458 24.5327L18.9365 24.2455L18.8553 24.1333L18.8709 24.0241L18.7462 23.8493L18.7773 23.6215L18.7118 23.3968L18.7462 23.169L18.7024 23.1097L18.7212 23.0005L18.7743 22.9412L18.6432 22.8289L18.6619 22.7135L18.5278 22.598L18.5527 22.4327L18.4934 22.1486L18.2844 21.8647L18.1845 21.5183L17.9692 21.2936L18.041 21.122L18.2157 20.9535L18.2313 20.8412L18.1532 20.6696L18.1907 20.4418L18.0815 20.161L18.1002 20.0423L18.2687 19.8739L18.2531 19.646L18.3093 19.5868L18.3593 19.2466L18.4216 19.1344L18.5464 18.9627L18.5839 18.6819L18.5433 18.6226L18.5902 18.2825L18.5496 18.2263L18.5745 18.0547L18.4996 17.8861L18.5464 17.546L18.5121 17.4306L18.4529 17.3432L18.2937 17.4025L18.2313 17.3182L18.3468 17.2028L18.3624 17.0936L18.4497 17.0031L18.5714 17.0312L18.5028 17.1466L18.5278 17.1778L18.6027 17.1466L18.6152 16.6941L18.5777 16.6349L18.6089 16.4071L18.6369 16.379L18.7618 16.5475L18.9115 16.5506L19.0176 16.4944L19.2205 16.2916L19.2423 16.12L19.208 16.0108L19.2891 15.9796L19.3296 16.0419L19.4295 15.8391L19.5606 15.8079L19.6012 15.8704L19.7634 15.7549L19.804 15.811L19.8945 15.7268L19.9163 15.5553L19.9943 15.5303L20.0349 15.5864L20.2159 15.3555L20.3969 15.471H20.6933L20.8618 15.3586L21.1645 15.2994L21.2238 15.2431H21.2737L21.4547 15.0154H21.5982L21.6887 14.9311L21.72 14.7002L21.6762 14.6471L21.7449 14.5349L21.6731 14.5067L21.5671 14.5629L21.5077 14.4194L21.7948 14.332L21.8416 14.1915L21.9259 14.1042L22.1194 14.1635L22.2878 13.9918L22.6436 13.9356L22.6841 13.995H22.784L22.8401 13.9388L22.9338 13.995H23.1304L23.3301 13.7984L23.3394 13.7391L23.4767 13.6549L23.5672 13.711L23.6827 13.9388L23.7762 13.9888L24.029 13.9356L24.1352 13.8795L24.1726 13.7922L24.4222 13.5956L24.5377 13.8234L24.6281 13.8826L24.7811 13.8795L24.8965 13.7704L25.0838 13.8234L25.1898 13.7641L25.3427 13.5675L25.2991 13.5113L25.3896 13.4271L25.5393 13.4239L25.6236 13.3397L25.6954 13.1681L25.6236 13.14L25.5705 12.9995L25.8483 12.9715L26.0698 12.7998H26.1697L26.3195 12.6033L26.5285 12.2039L26.438 11.7514L26.5191 11.7233L26.6096 11.7764L26.6689 11.7202L26.7656 11.7171L26.8499 11.8325L26.956 11.7764L26.9778 11.8044L26.8967 12.0353L27.0403 12.2319H27.1901L27.3523 12.1196L27.4521 12.1165L27.4584 12.26L27.3991 12.3162L27.5021 12.4597H27.552L27.6363 12.5752L27.8734 12.6282L27.9171 12.6875H28.2635L28.354 12.7437L28.4132 12.6843L28.6723 12.6282L28.8033 12.7437H29.5959L29.6333 12.7998L30.17 12.856L30.3823 12.7437L30.6007 12.9715L30.7005 12.9684L30.7411 13.0277L30.7972 12.9715H30.8971L31.103 13.2586L31.284 13.3678H31.5836L31.6897 13.3116L31.7646 13.4801L32.0548 13.5425L32.373 13.9076L32.3762 14.0511L32.4854 13.995L32.6726 14.2477L32.6851 14.3382L32.7351 14.332L32.9191 14.591L32.9098 14.6471L33.019 14.7876L33.2 14.8999L33.537 14.9592L33.6431 14.903L33.7305 15.0154H33.8241L33.8709 15.0747L34.0144 15.0715L34.0737 15.0185H34.3733L34.4138 15.0747L34.6073 15.0715L34.6479 15.1339L34.7976 15.1308L34.8445 15.1901L34.938 15.1869L35.1721 15.2994L35.3593 15.5553L35.3718 15.6426L35.4716 15.6395L35.5528 15.7549L35.6964 15.811L35.6901 16.0108L35.8118 16.1824L35.7962 16.2947L35.9459 16.638L35.9242 16.8065L35.9865 16.8908L36.0458 16.8345L36.258 17.0623L36.4484 17.1186L36.595 17.3151L36.5888 17.3743L36.7479 17.6584L36.7635 17.8893L36.6356 18.0578L36.8634 18.2231L36.6949 18.3386L36.8447 18.6788L36.7791 18.7942L36.7666 18.9097L36.8977 19.0189L36.9663 19.2498L36.9321 19.4775L37.0506 19.6992L36.9601 19.9893L36.9008 20.0423L36.879 20.214L36.7635 20.3264L36.7947 20.4418L36.7729 20.6134L36.5919 20.8381L36.6231 20.9535L36.5919 21.1782L36.5357 21.2375L36.5107 21.4061L36.3017 21.6618L36.2018 21.665L36.1363 21.7773L36.0614 21.8054L36.1426 21.9177L36.0988 22.2048L35.9865 22.314L36.0177 22.4295L35.8555 22.5449L35.8211 22.7728L35.9522 22.882L35.8992 22.9412L35.9397 22.9974L35.9148 23.169L35.8586 23.2221L35.8211 23.453L35.9803 23.7369L35.974 23.7962L36.0146 23.8462L35.974 24.1333L36.0895 24.3642L36.0458 24.7011L35.9865 24.7605L35.9584 24.929L36.0022 24.9882L35.9459 25.3814L35.8804 25.5L35.921 25.5561L35.8742 25.8963L35.9179 25.9524L35.9304 26.1833L35.8742 26.2365L35.843 26.4611L35.7837 26.5204L35.7556 26.7481L35.6839 26.8605L35.6308 26.9198L35.5809 27.2599L35.6027 27.288L35.7119 27.2287L35.7056 27.4284L35.8368 27.5439L35.818 27.6562L35.8804 27.7435L35.9335 27.7404L36.2081 27.9121H36.4077L36.57 27.8029L36.7168 27.7967L36.9725 28.0806L37.3377 28.3084L37.3782 28.3677H37.5779L37.6185 28.427L38.0616 28.4239L38.1053 28.48H38.4516L38.6171 28.3677L38.7138 28.3707L38.9291 28.2553L39.0383 28.1992L39.0477 28.2865L39.1631 28.3677L39.3223 28.2523L39.5251 28.2553L39.5782 28.1992L39.7185 28.2553L39.7778 28.196L39.9276 28.1992L40.1086 28.3084L40.2241 28.5393L40.3395 28.427L40.4331 28.4769L40.4862 28.4239L40.5579 28.4519L40.4987 28.5112L40.4862 28.6236L40.5393 28.7671L40.8138 28.9387L41.207 28.9356L41.4785 28.7671L41.5378 29.0511L41.6283 29.1041L41.775 29.1072L41.8592 29.2226L42.0526 29.2757L42.087 29.335L42.2368 29.3319L42.2773 29.3911L42.5799 29.3881L42.6143 29.4473L42.7111 29.5035L42.7641 29.4505L42.864 29.4443L42.9045 29.5066L43.4007 29.5035L43.5972 29.36L43.719 29.1884L43.6909 29.0198L43.7814 28.9356H43.9779L44.0778 29.0791L44.0559 29.2476L43.9998 29.3069L44.0185 29.5316L44.1215 29.672L44.2213 29.6752L44.4023 29.7874L44.5053 29.9279L44.4866 30.0433L44.5927 30.1838L44.9765 30.4397L44.9671 30.4989L45.0919 30.6674L45.0763 30.7828L45.2074 30.8983L45.1918 31.0076L45.2792 31.0669L45.2854 31.2073H45.3852L45.5381 31.3476L45.482 31.7471L45.3509 31.9718L45.3353 32.4304L45.4102 32.6021L45.2323 32.8268L45.2604 32.9423L45.3946 33.0545L45.2667 33.2261L45.2636 33.2854L45.1856 33.3104L45.0919 33.4508L45.1981 33.7317L45.1793 33.8502L45.2417 33.9345L45.301 33.8784L45.3697 33.9095L45.3572 34.0156L45.2979 34.0749L45.2323 34.1904L45.2542 34.362Z" fill="#678B28" fill-opacity="0.4"/>
<path d="M10.8296 11.3801L10.8983 11.5485L11.0917 11.6078L11.1916 11.7514L11.1698 11.9168L11.0855 12.0073L10.8889 12.0041L10.7735 12.1196L10.5675 12.1758L10.4802 12.26L10.3398 12.5439L10.112 12.7718L10.0776 13.0027L10.1088 13.1119L9.94658 13.2274L9.93408 13.3397L9.78742 13.4832L9.68132 13.5395L9.39425 13.4832L9.30686 13.5706L9.28815 13.683L9.35364 13.7641L9.45352 13.7672L9.60644 13.9107L9.57519 14.1354L9.6439 14.3601L9.59704 14.6471L9.54401 14.7033L9.5128 14.9311L9.38175 15.1558L9.23823 15.2994L8.97297 15.4117L8.70153 15.5864L8.60479 15.5832L8.47063 15.6675L8.49241 15.8391L8.43313 15.8953L8.42063 16.0108L8.46124 16.0669L8.3801 16.2916L8.18348 16.6349L8.06807 16.7472L8.08681 16.9781L7.89955 17.0623L7.80906 17.1997L7.76853 17.4899L7.70607 17.5429L7.68428 17.7145L7.61876 17.83L7.53137 17.9111H7.43463L7.3129 18.0858H7.21309L7.11635 18.2231L7.19434 18.3979L7.10695 18.4822L6.8948 18.5976L6.79181 18.5945L6.75438 18.5383L6.44545 18.5976L6.40799 18.5383H6.305L6.14274 18.6506L5.99293 18.6538L5.86191 18.5414L5.62475 18.4822L5.58112 18.4229L5.52177 18.4822L5.27529 18.4853L5.21908 18.5383H5.11927L5.07867 18.4822H4.97879L4.9164 18.3947L4.93515 18.2825L4.99129 18.2231V17.8831L4.92265 17.8019L4.67925 18.142H4.43585L4.40156 18.0266L4.32982 17.9985L4.43274 17.599L4.37035 17.518L4.29233 17.5429L4.19869 17.6865H4.14881L4.07703 17.518L3.96154 17.4306L3.94911 17.3463L3.76813 17.234L3.75563 17.1466L3.66511 17.0904L3.68075 16.9781L3.58397 16.7784L3.4311 16.6349L3.4467 16.5225L3.50284 16.4632L3.38117 16.2916L3.37807 16.1543L3.32504 16.1512L3.25319 15.9827L3.15341 15.9796L3.09099 15.8984L3.10656 15.783L3.04103 15.6956L2.85384 15.6426L2.7727 15.5271L2.67286 15.5303L2.56983 15.3867L2.56358 15.2431H2.46381L2.38892 15.0747L2.05189 15.0122L2.00503 14.8156L1.86776 14.7033L1.88023 14.6471L1.79599 14.5349L1.81159 14.4194L1.71171 14.0793L1.53698 13.9076L1.44652 13.5113L1.5058 13.452L1.52766 13.2836L1.41842 12.9995L1.44027 12.828L1.49955 12.7718L1.52141 12.6033L1.4808 12.5439L1.53391 12.1477L1.59629 12.0915L1.68368 11.8076L1.77099 11.7202L1.92701 11.661L2.04874 11.4955L2.18291 11.6047L2.4887 11.5485L2.52619 11.6078H2.67596L2.85073 11.4362L3.03167 11.5517L3.11592 11.664L3.16277 11.6672L3.27818 11.5517L3.47481 11.5485L3.55908 11.664L3.79927 11.7202L3.91476 11.6078L4.10202 11.664L4.16441 11.6047L4.35785 11.6078L4.51698 11.8919L4.68239 11.9761L4.698 12.2008L4.82902 12.3162L4.81341 12.4285L4.85402 12.4878L4.88837 12.6002L4.81038 12.828L4.9414 12.9402L5.01003 13.1712L4.99129 13.2836L5.05057 13.3678H5.15045L5.24094 13.2836L5.28147 12.9995L5.18791 12.9402L5.19105 12.5471L5.15356 12.4878L5.20041 12.1477L5.25969 12.0884L5.28147 11.9199L5.40321 11.7514L5.60601 11.3551L5.80577 11.1523L5.91805 11.0961H6.21455L6.25508 11.1523L6.49538 11.2084L6.66075 11.0961H6.8573L7.01021 11.2396L6.9073 11.6328L6.96968 11.8606L6.94158 12.0915L7.02271 12.2039L6.91665 12.6033L6.95093 12.7156L7.01332 12.7998H7.1132L7.19748 12.7156L7.39714 12.3754L7.3535 12.313L7.37846 12.1477L7.30358 11.9761L7.32536 11.8044L7.38471 11.7514L7.40964 11.5798L7.37535 11.4674L7.43149 11.4081L7.47202 11.1242L7.55941 11.0369L7.70607 11.0399L7.81531 10.9837L7.97757 10.8683L8.26776 10.9276L8.3801 10.8121H8.57665L8.6204 10.8652L8.71089 10.9276L8.86066 10.9245L9.0791 10.756L9.22887 10.7528L9.44417 10.6406H9.5908L9.65007 10.5844L9.85609 10.5313L10.0371 10.3004H10.1869L10.268 10.4159L10.3647 10.4127L10.5457 10.7279L10.6143 10.9526L10.5987 11.068L10.6705 11.2365L10.7298 11.3801H10.8296Z" fill="#678B28" fill-opacity="0.4"/>
<path d="M29.5148 30.9545L29.5241 30.8952L29.6115 30.8078L29.6302 30.836L29.6208 30.8952L29.5398 30.9795L29.5148 30.9545Z" fill="#678B28" fill-opacity="0.4"/>
<path d="M45.4914 34.4744L45.5226 34.5899L45.482 34.8738L45.5787 35.217L45.5475 35.4417L45.4601 35.526L45.3915 35.4978L45.4477 35.4417L45.4726 35.2701L45.3977 35.1015L45.4133 34.9861L45.3728 34.933L45.4133 34.646L45.3478 34.4182L45.429 34.3901L45.4914 34.4744Z" fill="#678B28" fill-opacity="0.4"/>
<path d="M28.1043 31.123L28.1917 31.0356H28.2416L28.2635 31.0637L28.2541 31.123L28.1698 31.2073H28.1168L28.0981 31.1792L28.1043 31.123Z" fill="#678B28" fill-opacity="0.4"/>
<path d="M40.5299 28.1398L40.4893 28.0837L40.04 28.0806L39.9776 27.9994L40.0087 27.9683L40.1554 27.9714L40.1991 28.0244L40.6422 28.0276L40.6828 28.0806L40.7826 28.0837L40.9293 28.2803L40.9106 28.3989L40.8357 28.4239L40.8138 28.3957L40.8731 28.3396L40.7202 28.196L40.6797 28.1398H40.5299Z" stroke="#678B28" stroke-opacity="0.4" mask="url(#path-1-inside-1)"/>
<path d="M41.4723 28.6204L41.4473 28.6516H41.2975L41.2757 28.6204L41.285 28.5674L41.3163 28.5361L41.3536 28.5955L41.4535 28.5924L41.4723 28.6204Z" stroke="#678B28" stroke-opacity="0.4" mask="url(#path-1-inside-1)"/>
<path d="M41.3568 28.3957L41.4004 28.4519L41.3693 28.4769L41.3006 28.455L41.3474 28.3084L41.5409 28.3115L41.5877 28.3677L41.6376 28.3645L41.8561 28.5393L42.0964 28.5924L42.3678 28.7671L42.4677 28.7639L42.6018 28.8794L42.9794 28.9917L43.0855 29.1353L43.0449 29.2164L42.9981 29.2196L42.9856 29.1322L42.8765 29.0511L42.7266 29.048L42.4521 28.8825L42.2118 28.8233L42.0776 28.7078L41.9809 28.7109L41.8498 28.5955L41.6594 28.5361L41.4878 28.3677L41.3568 28.3957Z" stroke="#678B28" stroke-opacity="0.4" mask="url(#path-1-inside-1)"/>
<path d="M43.747 28.8233L43.6597 28.9075L43.5847 29.0791H43.5348L43.563 28.9075L43.7034 28.7639L43.8126 28.7078H44.0092L44.1028 28.7639L44.2807 28.8794L44.7549 29.5316L44.6301 29.5628L44.5178 29.335H44.4647L44.3493 29.1041H44.2993L44.2651 28.9917L43.953 28.7671L43.747 28.8233Z" stroke="#678B28" stroke-opacity="0.4" mask="url(#path-1-inside-1)"/>
<path d="M39.6873 27.7967H39.5376L39.5001 27.8871L39.4533 27.884L39.497 27.7404H39.7935L39.8871 27.9402L39.8091 27.9683L39.7997 27.884L39.6873 27.7967Z" stroke="#678B28" stroke-opacity="0.4" mask="url(#path-1-inside-1)"/>
<path d="M36.3017 24.9882L36.3297 24.957L36.4484 24.9852L36.3985 25.3315L36.4421 25.3846L36.3048 26.3519L36.1551 26.3487L36.2143 26.2957L36.2798 25.837L36.3391 25.7809L36.3017 25.6685L36.336 25.4376L36.2923 25.3814L36.3891 25.0444L36.3017 24.9882Z" stroke="#678B28" stroke-opacity="0.4" mask="url(#path-1-inside-1)"/>
<path d="M37.1005 27.3753L37.1068 27.3192L37.1348 27.288H37.1848L37.2066 27.3161L37.1972 27.3753L37.113 27.4596H37.0631L37.0443 27.4315L37.1005 27.3753Z" stroke="#678B28" stroke-opacity="0.4" mask="url(#path-1-inside-1)"/>
<path d="M45.0794 29.8998L44.8954 29.7874L44.836 29.8467L44.8174 29.8156L44.8548 29.7282L45.0045 29.7313L45.2667 29.9591L45.4539 30.2118L45.4415 30.268L45.7753 30.7236L45.8127 30.839L45.794 30.9514L45.6567 31.0356L45.7098 30.839L45.5444 30.6113L45.5537 30.5519L45.0794 29.8998Z" stroke="#678B28" stroke-opacity="0.4" mask="url(#path-1-inside-1)"/>
<path d="M37.0443 20.7819L37.1037 20.7257L37.1348 20.4979L37.191 20.4418L37.1848 20.1578L37.2409 20.0985L37.1817 19.8146L37.2035 19.643L37.113 19.593L37.2409 19.5618L37.3065 19.646L37.2815 19.8177L37.3221 19.8739L37.2222 20.5573L37.1692 20.6103L37.0537 21.0627L36.9944 21.122L36.9725 21.2936L36.7105 21.7492L36.5107 21.9459L36.3891 21.9209L36.4265 21.8335L36.4671 21.8927L36.6668 21.69L36.7541 21.4622L36.8665 21.3529L36.9632 21.0128L37.0225 20.9535L37.0443 20.7819Z" stroke="#678B28" stroke-opacity="0.4" mask="url(#path-1-inside-1)"/>
<path d="M37.7901 27.2349L37.8993 27.3161L37.7215 27.3442L37.5717 27.2037L37.6498 27.1726L37.6871 27.2319L37.7901 27.2349Z" stroke="#678B28" stroke-opacity="0.4" mask="url(#path-1-inside-1)"/>
<path d="M38.0398 27.3753L38.0148 27.4003H37.9587L37.9431 27.3723L37.968 27.3442H38.0179L38.0398 27.3753Z" stroke="#678B28" stroke-opacity="0.4" mask="url(#path-1-inside-1)"/>
<path d="M36.386 24.5576L36.4359 24.5607L36.4577 24.5889L36.4327 24.7573L36.4047 24.7886H36.3516L36.336 24.7573L36.3891 24.7043L36.3953 24.6481L36.3579 24.5889L36.386 24.5576Z" stroke="#678B28" stroke-opacity="0.4" mask="url(#path-1-inside-1)"/>
<path d="M18.9896 16.1824L18.9022 16.2635H18.8523L18.7898 16.1824L18.8023 16.0669L18.9458 15.9265L19.0956 15.9296L19.1581 16.0108L19.1237 16.0982L19.0332 16.0358L18.9896 16.1824Z" stroke="#678B28" stroke-opacity="0.4" mask="url(#path-1-inside-1)"/>
<path d="M2.50434 11.2365L2.4762 11.2678L2.42631 11.2646L2.40446 11.2396L2.4357 11.2115L2.48245 11.2084L2.50434 11.2365Z" stroke="#678B28" stroke-opacity="0.4" mask="url(#path-1-inside-1)"/>
<path d="M2.04249 11.3551L1.95511 11.4393L1.80848 11.4362L1.7086 11.2926L1.84284 11.2084L1.88337 11.2678L1.9364 11.2115L2.06124 11.2365L2.00196 11.2926L2.04249 11.3551Z" stroke="#678B28" stroke-opacity="0.4" mask="url(#path-1-inside-1)"/>
<path d="M36.5763 23.7369L36.5451 23.9648L36.4577 24.049L36.386 24.0209L36.5045 23.9117L36.5825 23.3376L36.492 23.2845L36.5794 23.1971L36.6824 23.3407L36.6356 23.6808L36.5763 23.7369Z" stroke="#678B28" stroke-opacity="0.4" mask="url(#path-1-inside-1)"/>
<path d="M46.0593 31.8594L46.0998 31.9187L46.0749 32.0873L46.1154 32.1465L46.0062 32.6021L45.9469 32.6582L45.769 33.5632L45.7971 33.6786L45.7441 33.738L45.7035 34.0219L45.6443 34.0749L45.6006 34.2215L45.5007 34.2185L45.4383 34.1343L45.4601 33.9626L45.5412 33.9345L45.4945 34.0781L45.56 34.1592L45.585 34.1343L45.6692 33.5632L45.7254 33.5102L45.6817 33.454L45.844 32.6582L45.9782 32.4273L46.0031 31.9187L45.9594 31.8626L46.0093 31.5193L45.9501 31.2354L45.8877 31.1542L45.766 31.3196L45.7441 31.2915L45.769 31.123L45.8564 31.0387L45.9563 31.0356L46.0593 31.1792L46.0405 31.2946L46.1154 31.4631L46.0593 31.8594Z" stroke="#678B28" stroke-opacity="0.4" mask="url(#path-1-inside-1)"/>
<path d="M1.7336 11.6078L1.59944 11.5485L1.43092 11.664L1.31543 11.5829L1.32793 11.5235L1.47145 11.3801L1.55258 11.3489L1.5058 11.2989L1.53698 11.2678L1.64622 11.352L1.70235 11.4924L1.82409 11.5235L1.7336 11.6078Z" stroke="#678B28" stroke-opacity="0.4" mask="url(#path-1-inside-1)"/>
<path d="M9.18512 15.8391L9.20077 15.7268L9.23198 15.6956L9.2944 15.783L9.20702 15.8673L9.18512 15.8391Z" stroke="#678B28" stroke-opacity="0.4" mask="url(#path-1-inside-1)"/>
<path d="M45.2137 35.1889L45.3103 35.1858L45.4165 35.3262L45.3384 35.3543L45.2948 35.2981H45.2479L45.1856 35.2139L45.2137 35.1889Z" stroke="#678B28" stroke-opacity="0.4" mask="url(#path-1-inside-1)"/>
<path d="M45.2542 34.362L45.1419 34.4744L45.1263 34.5867L45.1699 34.646L45.1013 34.7583L44.939 34.8706L44.9203 34.9861L44.9515 35.1015L44.7892 35.2139L44.7736 35.3262L44.8579 35.4417L44.8329 35.6103L44.5552 35.7818L44.6426 35.8973L44.5771 36.0065L44.5427 36.2374L44.3648 36.4621L44.2244 36.746L44.1683 36.8053L44.1995 36.9177L44.0746 36.9488L43.9779 37.0893L44.0029 37.2577L43.875 37.2859L43.8375 37.3732L43.5786 37.626L43.2727 37.6822L43.0356 37.9692L42.9357 37.9661L42.8796 38.0254H42.7298L42.6705 38.0816L42.1681 38.1377L41.9871 38.0254L41.647 37.9661L41.569 37.8569L41.4909 37.8818L41.4723 37.9974L41.3849 38.0816H41.2382L41.1477 38.0286L40.9074 37.6291L40.7608 37.626L40.7015 37.6852L40.5455 37.7415L40.3583 37.4856L40.3489 37.3982L40.1585 37.3451L40.1117 37.2859L40.0181 37.289L39.9713 37.2297H39.7248L39.5969 37.1204L39.4939 37.1173L39.4128 37.0019L39.3129 37.005L39.2006 37.1173L38.8917 37.1767L38.8605 37.0581L38.7138 37.0612L38.5828 36.9488L38.4797 36.9457L38.358 36.7741L38.096 36.8895H37.8993L37.8526 36.8334L37.7933 36.8927L37.6996 36.8895L37.5061 36.6899L37.5186 36.5775L37.4562 36.4902L37.1692 36.4339L37.035 36.1812L37.0412 36.1219L36.8914 35.9784L36.4796 36.0408L36.3454 35.7818L36.3703 35.6103L36.3391 35.4978L36.1519 35.2389L35.9928 35.1546L35.9242 34.9299L35.793 34.8145L35.8086 34.7021L35.6308 34.3901L35.481 34.3932L35.4436 34.334L35.2532 34.2747L35.1534 34.0781L35.1378 33.8502L35.194 33.791L35.2221 33.6256L35.4436 33.4508L35.4623 33.3386L35.5153 33.2792L35.4841 33.17L35.5403 33.1107L35.5559 32.9984L35.4935 32.911L35.4311 33.0296L35.3187 32.9391L35.3936 32.7675L35.2719 32.5428L35.3312 32.4835L35.3812 32.1465L35.3156 31.9187L35.1284 31.666L34.988 31.6035L34.885 31.4601L34.9599 31.2946L34.7353 31.123L34.9006 31.0107L34.9693 30.8952L34.9912 30.7267L34.91 30.6113L34.8819 30.4365L34.7384 30.2461L34.5979 30.1838L34.5449 30.0433L34.367 29.8749L34.3951 29.7032L34.4731 29.6783L34.5106 29.7282L34.6073 29.5909L34.3951 29.5035L34.3857 29.4161L34.2547 29.3038L34.2609 29.2476L34.4045 29.1041L34.6354 29.2196L34.6635 29.1884L34.6229 29.1353L34.6915 29.0198L34.5761 28.9387L34.2797 28.9356L34.1923 29.0198L34.2017 29.1634L33.9894 29.2196L33.899 29.1634L33.7149 28.9075L33.9395 28.8763L34.0238 28.9917L34.1205 28.8482L33.9988 28.8233L33.9395 28.7359L33.9988 28.6797L34.03 28.5924L34.1954 28.4832H34.392L34.4513 28.4239H34.5511L34.5855 28.3365L34.6946 28.2803L34.2672 28.168L34.2766 28.1118L34.417 27.9714L34.6447 27.9402L34.5231 27.9121L34.392 27.7998L34.2828 27.8559H34.1361L33.977 28.1118L34.0113 28.2241L33.927 28.3084H33.8709L33.7991 28.1398L33.5588 28.2803L33.6743 28.3115L33.7772 28.4519L33.7399 28.5393H33.5432L33.459 28.4239H33.3154L33.2281 28.5082L33.3342 28.6516L33.4871 28.5924L33.5494 28.6797L33.4902 28.7359L33.5744 28.8482L33.5588 28.9637L33.4996 29.0198L33.4777 29.1946L33.4122 29.3006L33.044 29.619L32.7881 29.672L32.7475 29.619L32.6477 29.6158L32.5353 29.7345L32.2888 29.7282L32.1141 29.9029L31.9081 29.9591L31.852 30.0183L31.5524 30.0121L31.4931 30.0715H31.3495L31.3278 30.0465L31.3964 29.9279L31.3309 29.8467L31.2715 29.9029L31.0719 29.8998L31.0188 29.9591L30.919 29.956L30.8004 30.0715L30.6693 29.956L30.3229 29.9622L30.2668 30.0152H30.0702L29.9236 30.1588L29.9329 30.4428L29.8548 30.4708L29.7893 30.5831L29.6926 30.5801L29.5273 30.6924L29.3525 30.527L29.2058 30.5239L28.8688 30.811L28.6598 30.8671L28.6036 30.9233H28.5069L28.4257 30.8078L28.3259 30.811L28.2822 30.7548L28.0762 30.811L27.9857 30.7548L27.9264 30.8078L27.7798 30.811L27.7392 30.7517H27.5926L27.5333 30.811H27.2867L27.2681 30.7798L27.3804 30.6674L27.3117 30.6394L27.0372 30.811L26.9435 30.7517L26.8312 30.8671L26.6284 30.9233L26.5379 31.0076L26.5347 31.0669L26.4442 31.1511H26.3475L26.2321 31.2665H26.1322L26.0917 31.2073L25.9824 31.2665L25.9419 31.2073L25.8327 31.2665L25.7921 31.2042L25.7359 31.2634L25.5206 31.0356L25.3116 31.0919L25.1493 31.2073H25.0494L24.9683 31.0949L24.8154 31.1511L24.753 31.07L24.7749 30.8952L24.8965 30.7267L24.8778 30.6986L24.7686 30.7517L24.6625 30.4677L24.6063 30.5239H24.3068L24.2662 30.4708L24.1663 30.4677L24.0446 30.2992L23.8605 30.1869L23.7108 30.1838L23.6702 30.1276H22.8308L22.7902 30.0715L22.6436 30.0746L22.5999 30.0152L22.5001 30.0121L22.4408 29.931L22.4438 29.8717L22.6155 29.7001L22.5968 29.672L22.3128 29.6127L22.2286 29.5035H22.0788L22.0195 29.5597L21.386 29.5035L21.3268 29.5628L21.2269 29.5597L21.1052 29.3881H20.8556L20.6434 29.5035H20.4936L20.3314 29.2757L20.0442 29.1602L20.0131 29.048L19.8695 29.0511L19.7822 28.9356H19.6823L19.5075 28.7671L19.4545 28.8202L19.3515 28.8233L19.2673 28.7671L19.1986 28.6797L19.2985 28.3396L19.2673 28.2273L19.1767 28.168L19.1393 28.0556L19.1955 27.3161L19.155 27.2599L19.1206 27.1476L19.1456 26.979L19.0645 26.8636L19.0801 26.7451L19.0364 26.6951L19.0863 26.3487L19.1425 26.2957L19.2017 25.8963L19.1581 25.837L19.1643 25.4407L19.1237 25.3814L19.1456 25.2161L19.0738 25.0444L19.0863 24.932L18.9958 24.8728L19.0239 24.7043L18.9458 24.5327L18.9365 24.2455L18.8553 24.1333L18.8709 24.0241L18.7462 23.8493L18.7773 23.6215L18.7118 23.3968L18.7462 23.169L18.7024 23.1097L18.7212 23.0005L18.7743 22.9412L18.6432 22.8289L18.6619 22.7135L18.5278 22.598L18.5527 22.4327L18.4934 22.1486L18.2844 21.8647L18.1845 21.5183L17.9692 21.2936L18.041 21.122L18.2157 20.9535L18.2313 20.8412L18.1532 20.6696L18.1907 20.4418L18.0815 20.161L18.1002 20.0423L18.2687 19.8739L18.2531 19.646L18.3093 19.5868L18.3593 19.2466L18.4216 19.1344L18.5464 18.9627L18.5839 18.6819L18.5433 18.6226L18.5902 18.2825L18.5496 18.2263L18.5745 18.0547L18.4996 17.8861L18.5464 17.546L18.5121 17.4306L18.4529 17.3432L18.2937 17.4025L18.2313 17.3182L18.3468 17.2028L18.3624 17.0936L18.4497 17.0031L18.5714 17.0312L18.5028 17.1466L18.5278 17.1778L18.6027 17.1466L18.6152 16.6941L18.5777 16.6349L18.6089 16.4071L18.6369 16.379L18.7618 16.5475L18.9115 16.5506L19.0176 16.4944L19.2205 16.2916L19.2423 16.12L19.208 16.0108L19.2891 15.9796L19.3296 16.0419L19.4295 15.8391L19.5606 15.8079L19.6012 15.8704L19.7634 15.7549L19.804 15.811L19.8945 15.7268L19.9163 15.5553L19.9943 15.5303L20.0349 15.5864L20.2159 15.3555L20.3969 15.471H20.6933L20.8618 15.3586L21.1645 15.2994L21.2238 15.2431H21.2737L21.4547 15.0154H21.5982L21.6887 14.9311L21.72 14.7002L21.6762 14.6471L21.7449 14.5349L21.6731 14.5067L21.5671 14.5629L21.5077 14.4194L21.7948 14.332L21.8416 14.1915L21.9259 14.1042L22.1194 14.1635L22.2878 13.9918L22.6436 13.9356L22.6841 13.995H22.784L22.8401 13.9388L22.9338 13.995H23.1304L23.3301 13.7984L23.3394 13.7391L23.4767 13.6549L23.5672 13.711L23.6827 13.9388L23.7762 13.9888L24.029 13.9356L24.1352 13.8795L24.1726 13.7922L24.4222 13.5956L24.5377 13.8234L24.6281 13.8826L24.7811 13.8795L24.8965 13.7704L25.0838 13.8234L25.1898 13.7641L25.3427 13.5675L25.2991 13.5113L25.3896 13.4271L25.5393 13.4239L25.6236 13.3397L25.6954 13.1681L25.6236 13.14L25.5705 12.9995L25.8483 12.9715L26.0698 12.7998H26.1697L26.3195 12.6033L26.5285 12.2039L26.438 11.7514L26.5191 11.7233L26.6096 11.7764L26.6689 11.7202L26.7656 11.7171L26.8499 11.8325L26.956 11.7764L26.9778 11.8044L26.8967 12.0353L27.0403 12.2319H27.1901L27.3523 12.1196L27.4521 12.1165L27.4584 12.26L27.3991 12.3162L27.5021 12.4597H27.552L27.6363 12.5752L27.8734 12.6282L27.9171 12.6875H28.2635L28.354 12.7437L28.4132 12.6843L28.6723 12.6282L28.8033 12.7437H29.5959L29.6333 12.7998L30.17 12.856L30.3823 12.7437L30.6007 12.9715L30.7005 12.9684L30.7411 13.0277L30.7972 12.9715H30.8971L31.103 13.2586L31.284 13.3678H31.5836L31.6897 13.3116L31.7646 13.4801L32.0548 13.5425L32.373 13.9076L32.3762 14.0511L32.4854 13.995L32.6726 14.2477L32.6851 14.3382L32.7351 14.332L32.9191 14.591L32.9098 14.6471L33.019 14.7876L33.2 14.8999L33.537 14.9592L33.6431 14.903L33.7305 15.0154H33.8241L33.8709 15.0747L34.0144 15.0715L34.0737 15.0185H34.3733L34.4138 15.0747L34.6073 15.0715L34.6479 15.1339L34.7976 15.1308L34.8445 15.1901L34.938 15.1869L35.1721 15.2994L35.3593 15.5553L35.3718 15.6426L35.4716 15.6395L35.5528 15.7549L35.6964 15.811L35.6901 16.0108L35.8118 16.1824L35.7962 16.2947L35.9459 16.638L35.9242 16.8065L35.9865 16.8908L36.0458 16.8345L36.258 17.0623L36.4484 17.1186L36.595 17.3151L36.5888 17.3743L36.7479 17.6584L36.7635 17.8893L36.6356 18.0578L36.8634 18.2231L36.6949 18.3386L36.8447 18.6788L36.7791 18.7942L36.7666 18.9097L36.8977 19.0189L36.9663 19.2498L36.9321 19.4775L37.0506 19.6992L36.9601 19.9893L36.9008 20.0423L36.879 20.214L36.7635 20.3264L36.7947 20.4418L36.7729 20.6134L36.5919 20.8381L36.6231 20.9535L36.5919 21.1782L36.5357 21.2375L36.5107 21.4061L36.3017 21.6618L36.2018 21.665L36.1363 21.7773L36.0614 21.8054L36.1426 21.9177L36.0988 22.2048L35.9865 22.314L36.0177 22.4295L35.8555 22.5449L35.8211 22.7728L35.9522 22.882L35.8992 22.9412L35.9397 22.9974L35.9148 23.169L35.8586 23.2221L35.8211 23.453L35.9803 23.7369L35.974 23.7962L36.0146 23.8462L35.974 24.1333L36.0895 24.3642L36.0458 24.7011L35.9865 24.7605L35.9584 24.929L36.0022 24.9882L35.9459 25.3814L35.8804 25.5L35.921 25.5561L35.8742 25.8963L35.9179 25.9524L35.9304 26.1833L35.8742 26.2365L35.843 26.4611L35.7837 26.5204L35.7556 26.7481L35.6839 26.8605L35.6308 26.9198L35.5809 27.2599L35.6027 27.288L35.7119 27.2287L35.7056 27.4284L35.8368 27.5439L35.818 27.6562L35.8804 27.7435L35.9335 27.7404L36.2081 27.9121H36.4077L36.57 27.8029L36.7168 27.7967L36.9725 28.0806L37.3377 28.3084L37.3782 28.3677H37.5779L37.6185 28.427L38.0616 28.4239L38.1053 28.48H38.4516L38.6171 28.3677L38.7138 28.3707L38.9291 28.2553L39.0383 28.1992L39.0477 28.2865L39.1631 28.3677L39.3223 28.2523L39.5251 28.2553L39.5782 28.1992L39.7185 28.2553L39.7778 28.196L39.9276 28.1992L40.1086 28.3084L40.2241 28.5393L40.3395 28.427L40.4331 28.4769L40.4862 28.4239L40.5579 28.4519L40.4987 28.5112L40.4862 28.6236L40.5393 28.7671L40.8138 28.9387L41.207 28.9356L41.4785 28.7671L41.5378 29.0511L41.6283 29.1041L41.775 29.1072L41.8592 29.2226L42.0526 29.2757L42.087 29.335L42.2368 29.3319L42.2773 29.3911L42.5799 29.3881L42.6143 29.4473L42.7111 29.5035L42.7641 29.4505L42.864 29.4443L42.9045 29.5066L43.4007 29.5035L43.5972 29.36L43.719 29.1884L43.6909 29.0198L43.7814 28.9356H43.9779L44.0778 29.0791L44.0559 29.2476L43.9998 29.3069L44.0185 29.5316L44.1215 29.672L44.2213 29.6752L44.4023 29.7874L44.5053 29.9279L44.4866 30.0433L44.5927 30.1838L44.9765 30.4397L44.9671 30.4989L45.0919 30.6674L45.0763 30.7828L45.2074 30.8983L45.1918 31.0076L45.2792 31.0669L45.2854 31.2073H45.3852L45.5381 31.3476L45.482 31.7471L45.3509 31.9718L45.3353 32.4304L45.4102 32.6021L45.2323 32.8268L45.2604 32.9423L45.3946 33.0545L45.2667 33.2261L45.2636 33.2854L45.1856 33.3104L45.0919 33.4508L45.1981 33.7317L45.1793 33.8502L45.2417 33.9345L45.301 33.8784L45.3697 33.9095L45.3572 34.0156L45.2979 34.0749L45.2323 34.1904L45.2542 34.362Z" stroke="#678B28" stroke-opacity="0.4" mask="url(#path-1-inside-1)"/>
<path d="M10.8296 11.3801L10.8983 11.5485L11.0917 11.6078L11.1916 11.7514L11.1698 11.9168L11.0855 12.0073L10.8889 12.0041L10.7735 12.1196L10.5675 12.1758L10.4802 12.26L10.3398 12.5439L10.112 12.7718L10.0776 13.0027L10.1088 13.1119L9.94658 13.2274L9.93408 13.3397L9.78742 13.4832L9.68132 13.5395L9.39425 13.4832L9.30686 13.5706L9.28815 13.683L9.35364 13.7641L9.45352 13.7672L9.60644 13.9107L9.57519 14.1354L9.6439 14.3601L9.59704 14.6471L9.54401 14.7033L9.5128 14.9311L9.38175 15.1558L9.23823 15.2994L8.97297 15.4117L8.70153 15.5864L8.60479 15.5832L8.47063 15.6675L8.49241 15.8391L8.43313 15.8953L8.42063 16.0108L8.46124 16.0669L8.3801 16.2916L8.18348 16.6349L8.06807 16.7472L8.08681 16.9781L7.89955 17.0623L7.80906 17.1997L7.76853 17.4899L7.70607 17.5429L7.68428 17.7145L7.61876 17.83L7.53137 17.9111H7.43463L7.3129 18.0858H7.21309L7.11635 18.2231L7.19434 18.3979L7.10695 18.4822L6.8948 18.5976L6.79181 18.5945L6.75438 18.5383L6.44545 18.5976L6.40799 18.5383H6.305L6.14274 18.6506L5.99293 18.6538L5.86191 18.5414L5.62475 18.4822L5.58112 18.4229L5.52177 18.4822L5.27529 18.4853L5.21908 18.5383H5.11927L5.07867 18.4822H4.97879L4.9164 18.3947L4.93515 18.2825L4.99129 18.2231V17.8831L4.92265 17.8019L4.67925 18.142H4.43585L4.40156 18.0266L4.32982 17.9985L4.43274 17.599L4.37035 17.518L4.29233 17.5429L4.19869 17.6865H4.14881L4.07703 17.518L3.96154 17.4306L3.94911 17.3463L3.76813 17.234L3.75563 17.1466L3.66511 17.0904L3.68075 16.9781L3.58397 16.7784L3.4311 16.6349L3.4467 16.5225L3.50284 16.4632L3.38117 16.2916L3.37807 16.1543L3.32504 16.1512L3.25319 15.9827L3.15341 15.9796L3.09099 15.8984L3.10656 15.783L3.04103 15.6956L2.85384 15.6426L2.7727 15.5271L2.67286 15.5303L2.56983 15.3867L2.56358 15.2431H2.46381L2.38892 15.0747L2.05189 15.0122L2.00503 14.8156L1.86776 14.7033L1.88023 14.6471L1.79599 14.5349L1.81159 14.4194L1.71171 14.0793L1.53698 13.9076L1.44652 13.5113L1.5058 13.452L1.52766 13.2836L1.41842 12.9995L1.44027 12.828L1.49955 12.7718L1.52141 12.6033L1.4808 12.5439L1.53391 12.1477L1.59629 12.0915L1.68368 11.8076L1.77099 11.7202L1.92701 11.661L2.04874 11.4955L2.18291 11.6047L2.4887 11.5485L2.52619 11.6078H2.67596L2.85073 11.4362L3.03167 11.5517L3.11592 11.664L3.16277 11.6672L3.27818 11.5517L3.47481 11.5485L3.55908 11.664L3.79927 11.7202L3.91476 11.6078L4.10202 11.664L4.16441 11.6047L4.35785 11.6078L4.51698 11.8919L4.68239 11.9761L4.698 12.2008L4.82902 12.3162L4.81341 12.4285L4.85402 12.4878L4.88837 12.6002L4.81038 12.828L4.9414 12.9402L5.01003 13.1712L4.99129 13.2836L5.05057 13.3678H5.15045L5.24094 13.2836L5.28147 12.9995L5.18791 12.9402L5.19105 12.5471L5.15356 12.4878L5.20041 12.1477L5.25969 12.0884L5.28147 11.9199L5.40321 11.7514L5.60601 11.3551L5.80577 11.1523L5.91805 11.0961H6.21455L6.25508 11.1523L6.49538 11.2084L6.66075 11.0961H6.8573L7.01021 11.2396L6.9073 11.6328L6.96968 11.8606L6.94158 12.0915L7.02271 12.2039L6.91665 12.6033L6.95093 12.7156L7.01332 12.7998H7.1132L7.19748 12.7156L7.39714 12.3754L7.3535 12.313L7.37846 12.1477L7.30358 11.9761L7.32536 11.8044L7.38471 11.7514L7.40964 11.5798L7.37535 11.4674L7.43149 11.4081L7.47202 11.1242L7.55941 11.0369L7.70607 11.0399L7.81531 10.9837L7.97757 10.8683L8.26776 10.9276L8.3801 10.8121H8.57665L8.6204 10.8652L8.71089 10.9276L8.86066 10.9245L9.0791 10.756L9.22887 10.7528L9.44417 10.6406H9.5908L9.65007 10.5844L9.85609 10.5313L10.0371 10.3004H10.1869L10.268 10.4159L10.3647 10.4127L10.5457 10.7279L10.6143 10.9526L10.5987 11.068L10.6705 11.2365L10.7298 11.3801H10.8296Z" stroke="#678B28" stroke-opacity="0.4" mask="url(#path-1-inside-1)"/>
<path d="M29.5148 30.9545L29.5241 30.8952L29.6115 30.8078L29.6302 30.836L29.6208 30.8952L29.5398 30.9795L29.5148 30.9545Z" stroke="#678B28" stroke-opacity="0.4" mask="url(#path-1-inside-1)"/>
<path d="M45.4914 34.4744L45.5226 34.5899L45.482 34.8738L45.5787 35.217L45.5475 35.4417L45.4601 35.526L45.3915 35.4978L45.4477 35.4417L45.4726 35.2701L45.3977 35.1015L45.4133 34.9861L45.3728 34.933L45.4133 34.646L45.3478 34.4182L45.429 34.3901L45.4914 34.4744Z" stroke="#678B28" stroke-opacity="0.4" mask="url(#path-1-inside-1)"/>
<path d="M28.1043 31.123L28.1917 31.0356H28.2416L28.2635 31.0637L28.2541 31.123L28.1698 31.2073H28.1168L28.0981 31.1792L28.1043 31.123Z" stroke="#678B28" stroke-opacity="0.4" mask="url(#path-1-inside-1)"/>
</svg>
