<svg width="48" height="48" viewBox="0 0 48 48" fill="none" xmlns="http://www.w3.org/2000/svg">
<path d="M40.2317 24.649L38.2746 23.8153L37.5015 23.3195L36.8487 22.1961L36.7523 21.9188L36.559 21.6047L35.5922 21.1815L35.2542 20.9396L35.0729 20.4809L34.9522 19.8887L34.8673 18.729L34.6744 18.3062L33.3449 16.9046L33.0309 16.2044L32.8376 14.307L32.4271 13.4737L31.2431 12.169L30.6876 11.7218L29.9627 11.2986L27.4979 10.7307L26.7486 10.2844L25.9998 9.93369L24.0184 9.96995L23.1728 9.68024L22.4478 9.96995L21.7592 9.86116L20.1767 9.26937L19.2581 9.16057L16.6247 9.26937L14.2085 10.598L12.6618 11.7218H10.8617L10.0041 12.1084L10.342 12.4224L10.4389 12.7006L10.3301 12.9421L10.0041 13.292L10.2699 14.1385L10.0161 15.2256L9.32742 16.0956L7.49104 16.8687L6.9112 17.8471L6.59717 19.0072V20.0943L7.02 21.3265L7.74491 22.5831L10.0523 25.676L10.1854 26.5818L10.1974 27.5968L10.4513 28.9617L11.1156 30.1218L13.0241 32.3687L13.411 33.1785L13.6888 33.347L15.477 33.3837L16.0692 33.5288L16.419 33.9392L16.7211 34.4709L17.1563 34.9662L18.0745 35.5222L20.3337 36.4404L21.9888 36.815L23.7283 38.0834L24.6708 38.5788L25.8061 38.8203L27.2683 38.9893L28.658 38.9291L29.5881 38.5788L30.47 38.9291L31.7504 38.9893L33.0309 38.8203L34.7589 37.8658L35.7377 37.7332L37.6948 37.769L38.8301 37.3466L39.3135 36.3315L39.4104 35.0631L39.3861 33.9759L39.5068 32.7557L40.4003 28.4425L40.8722 27.4637L41.1742 26.473L40.9084 25.3253L40.2317 24.649Z" fill="#678B28" fill-opacity="0.4"/>
<path d="M10.9154 11.9718L10.4501 12.1816L10.5122 12.2393L10.5577 12.2816L10.5781 12.3402L10.675 12.6184L10.7077 12.7125L10.6668 12.8033L10.558 13.0448L10.5411 13.0824L10.513 13.1125L10.2862 13.3559L10.5084 14.0636L10.5289 14.1288L10.5134 14.1953L10.2595 15.2825L10.2468 15.3369L10.2121 15.3808L9.52344 16.2508L9.48359 16.3011L9.42442 16.326L7.66406 17.0671L7.14362 17.9453L6.84717 19.0404V20.0526L7.24862 21.2225L7.9541 22.4454L10.2527 25.5265L10.2905 25.5771L10.2997 25.6396L10.4328 26.5454L10.4352 26.5621L10.4354 26.5788L10.4471 27.5723L10.6893 28.8743L11.3211 29.9776L13.2146 32.2068L13.2356 32.2316L13.2496 32.2609L13.6045 33.0034L13.7611 33.0984L15.4821 33.1338L15.5097 33.1343L15.5364 33.1409L16.1287 33.286L16.2071 33.3052L16.2594 33.3666L16.6093 33.777L16.6247 33.7951L16.6364 33.8157L16.9258 34.3251L17.3187 34.7723L18.187 35.298L20.4089 36.201L22.0439 36.5711L22.0943 36.5825L22.1361 36.613L23.8608 37.8707L24.7565 38.3414L25.8466 38.5733L27.2773 38.7386L28.6072 38.6811L29.5 38.3448L29.5905 38.3108L29.6804 38.3465L30.5235 38.6813L31.7399 38.7385L32.9513 38.5786L34.638 37.647L34.6789 37.6244L34.7253 37.6181L35.7041 37.4854L35.7231 37.4828L35.7422 37.4832L37.652 37.5182L38.648 37.1476L39.0678 36.2661L39.1602 35.0563L39.1361 33.9815L39.1358 33.9664L39.1373 33.9513L39.258 32.731L39.2593 32.7179L39.262 32.7049L40.1555 28.3918L40.1617 28.3616L40.1751 28.3339L40.6386 27.3724L40.9156 26.4641L40.681 25.4515L40.0892 24.86L38.1766 24.0453L38.1573 24.0371L38.1397 24.0257L37.3665 23.5299L37.3157 23.4973L37.2853 23.4451L36.6325 22.3217L36.6205 22.3009L36.6126 22.2782L36.5251 22.0266L36.3871 21.8024L35.4919 21.4105L35.4679 21.4L35.4466 21.3847L35.1087 21.1428L35.0488 21.1L35.0217 21.0315L34.8404 20.5728L34.8323 20.5524L34.8279 20.5308L34.7072 19.9386L34.704 19.9229L34.7028 19.9069L34.6212 18.792L34.4643 18.4479L33.1635 17.0766L33.1342 17.0457L33.1168 17.0069L32.8028 16.3067L32.7863 16.2699L32.7822 16.2297L32.5934 14.3771L32.2184 13.6157L31.0711 12.3515L30.5454 11.9283L29.8695 11.5337L27.4417 10.9743L27.4036 10.9655L27.3699 10.9455L26.6314 10.5055L25.9464 10.1847L24.023 10.2199L23.979 10.2207L23.9374 10.2065L23.1794 9.9468L22.5406 10.2021L22.4768 10.2276L22.4088 10.2169L21.7202 10.1081L21.6953 10.1042L21.6716 10.0953L20.1173 9.51409L19.2485 9.41118L16.6937 9.51673L14.3427 10.8095L12.8088 11.9241L12.7431 11.9718H12.6618H10.9154Z" stroke="#678B28" stroke-opacity="0.4" stroke-width="0.5"/>
</svg>
