<svg width="48" height="48" viewBox="0 0 48 48" fill="none" xmlns="http://www.w3.org/2000/svg">
<mask id="path-1-inside-1" fill="white">
<path d="M33.0901 41.5774L32.9673 41.5903L32.5729 42.264L32.6289 42.3426L32.9587 42.3458L33.1677 42.0591L33.1464 41.6751L33.0901 41.5774ZM35.6794 33.1803L35.6125 33.272L35.4313 33.3003L35.3387 33.5461L35.4141 33.6501L35.6794 33.6536L35.7439 33.7383L36.0027 33.748L36.0566 33.4578L35.9227 33.2685L35.6794 33.1803ZM36.3757 31.755L36.1406 31.7647L35.7374 32.0387L35.7848 32.3324L36.1473 32.3289L36.2011 32.2315L36.382 32.228L36.5202 32.0608L36.3757 31.755ZM31.5963 41.6846L31.5314 41.8705L31.6329 41.9712L31.9885 41.9679L32.0554 41.7919L31.9778 41.6751L31.5963 41.6846ZM29.3951 38.5697L29.4726 38.6609L30.3759 38.6644L30.637 38.4785L30.6282 38.1695L30.5572 38.0907L30.2208 38.0878L30.1582 37.9934L29.7896 37.9964L29.7228 38.0878L29.4514 38.1037L29.2616 38.4658L29.3175 38.5762L29.3951 38.5697ZM24.2343 34.5645L24.1629 34.4194L24.1653 33.5903L24.2299 32.9473L24.0964 32.6161H23.9625L23.7706 32.3415L23.7081 31.982L23.7792 31.3735L23.6585 31.1968L23.1992 31.1024L23.1629 31.0235L22.8653 31.0014L22.7099 30.9035L22.3844 30.3738L21.4597 30.3326L21.3711 30.2473L21.0155 30.2507L20.9359 30.3482L20.4829 30.3391L20.1555 30.1589L19.774 30.0268L19.4548 29.5943L19.1315 29.5787L19.054 29.4935L18.782 29.4965L18.4026 29.3072L18.2173 29.1307L17.9564 28.4712L17.9499 27.9061L17.8854 27.8086L17.8833 25.9335L17.9457 25.3872L18.0168 25.2516L18.0857 24.0834L18.2605 22.6813L18.461 22.0276L18.8617 21.2566L18.8662 20.8015L18.7196 20.4097L18.8078 20.0746L18.7519 19.8378L18.5494 19.8252L17.978 20.7667L17.7063 20.7732L17.6352 20.8678H16.8054L16.734 20.7764H16.5919L16.3547 20.4288L16.1414 19.7462L15.9515 19.0983L15.4968 18.3305L15.8156 18.2987L15.8998 18.3969L16.0552 18.3778L16.4042 18.4094L16.6759 18.5866L16.9282 18.5926L17.0057 18.6876L17.5103 18.6973L17.5835 18.599L18.0103 18.5896L18.1008 18.6811L18.7866 18.6876L18.8576 18.7727L19.058 18.7889L19.1743 18.9659L19.4441 19.0857L19.5733 19.2627L19.7155 19.2818L19.778 19.4111L19.7004 19.5469L19.362 19.6546L19.125 20.0178L18.918 20.1129L18.9222 20.2487L19.1013 20.4981L19.194 20.3876L19.4462 20.391L19.7201 20.1853L19.7608 20.0369L19.9678 19.9076L20.0604 19.7401L20.2632 19.721L20.3731 19.5536L20.5306 19.5439L20.6989 19.3764L21.2699 19.2566L21.4576 19.3578L21.7053 19.2627L22.0266 18.9055L22.156 18.1343L22.2897 17.8373L22.1992 17.7457L21.6666 17.7427L21.6192 17.4231L22.0785 16.0542L22.2508 15.7033L22.4536 14.84L22.6302 14.5838L23.0613 13.5652L22.9234 13.1286L22.8373 12.5942L22.8588 11.5974L22.805 11.129L22.7229 11.0121L21.9555 10.4453L21.8197 10.4297L21.2829 10.1767L20.8927 10.1607L18.8943 9.366L18.0752 8.82793L17.894 8.82477L17.2687 8.23916L17.0512 7.79618L16.967 7.76742L16.7038 7.50479L16.5875 7.49829L16.3936 7.32093L16.1801 7.30531L15.9601 7.10865L15.8136 6.85252L15.5161 6.73217H15.2682L15.1712 6.64638L14.9512 6.64989L14.8263 6.81778L14.3651 6.93777L14.2528 7.12778L13.9984 7.10567L13.6103 6.91251L13.1618 6.31709L12.8018 5.61077L12.8063 5.1485L12.9184 4.83482L13.1618 4.66079L13.6879 4.61938L13.8454 4.46412L13.9617 4.46114L14.2744 4.24886L14.4682 3.72623L14.9772 3.34589L15.4149 3.20624L15.5528 3.03221L15.7144 2.99396L15.8091 2.56607L15.6928 1.80889L15.5959 1.59942L15.3438 1.60293L15.0287 1.7452L14.9361 1.99906L14.6559 2.05292L14.5459 2.17011L14.214 2.28415L14.1472 2.51257L13.8993 2.5631L13.6556 2.82941L13.4488 2.84502L13.3626 2.93081L13.1749 2.82291L12.8042 2.84853L12.6553 2.9687L12.399 3.22238L12.0993 3.3173L11.8491 3.70062L11.7132 4.49588L11.6205 4.81903L11.379 4.91394L11.2002 5.31937L11.2174 5.8327L11.5169 6.44076L11.7781 6.44375L11.9311 6.54199L12.1165 6.94128L12.1272 7.35269L12.3104 8.75828L12.5067 9.51512L12.5132 10.2841L12.5712 10.4237L12.5046 10.74L12.2458 11.1954L12.166 11.6226L12.1079 12.2744L12.3753 13.1542L12.3688 14.6251L12.5023 15.1657L12.5626 15.7633L13.1512 16.6075L13.3063 16.6235L13.5307 16.9682L13.8238 17.0091L14.0675 17.1671L14.4944 17.5087L14.5245 17.7519L15.1066 17.8373L15.2251 18.3778L15.4858 18.972L15.738 19.9106L15.818 20.3402L16.0165 20.7446L16.1328 21.4432L16.73 22.7793L16.9735 23.2372L17.0401 23.6128L17.3075 24.2793L17.4887 25.7346V28.0388L17.3054 28.9414L16.6349 30.3833L16.458 30.6259L16.3377 31.0014L16.3245 31.837L16.4001 32.1177L16.1217 32.1366L15.7361 32.6382L15.738 33.0859L15.6261 33.259L15.21 33.6471L14.7184 33.7448L13.9467 34.1108L13.7396 34.1327L13.3475 34.5078L13.1079 34.4981L12.8947 34.6969L11.8749 36.1029L11.4762 36.6762L11.4805 37.0385L11.543 37.1772L11.556 37.9869L11.4848 38.2135L11.586 38.4342L11.7283 38.4753L11.806 38.4027L12.0409 37.9111L12.2435 37.8169L12.5088 37.8139L12.5735 37.7221L13.2267 37.716L13.9467 38.1223L14.0026 38.362L13.9381 39.0737L13.9965 39.1523L14.0156 39.9967L14.0977 40.1446L14.3303 40.1918L13.8042 40.3683L13.7442 40.7397L13.9445 41.5177L14.0026 41.5963H14.2161L14.2614 41.5082L14.4058 41.3067H15.0245L15.2445 41.4044L15.281 41.5553L15.4233 42.2735L15.6066 42.7237H15.7617L16.3226 42.1602L16.8568 41.4956L17.3678 41.4926L17.7777 41.1021L18.0124 40.7397L18.9761 39.9084L19.1315 39.8644L19.3147 39.6062L19.6078 39.3951L19.7201 39.1874L19.9592 39.036L20.2911 38.7462L20.7915 38.4658L20.9596 38.4753L21.4985 38.1885L21.878 37.7255L22.4816 37.2436L22.8911 37.1583L23.456 36.7615L23.8567 36.0837L24.1588 35.6583L24.2343 34.5645ZM30.8244 44.4263L30.5701 44.2314L30.568 43.7844L30.3631 43.567H30.1431L30.0526 43.6617L29.3995 43.6552L29.5805 43.0479L29.7812 42.5251L30.2208 41.7979L30.4301 41.5995L30.6758 41.4926L30.8914 41.2219L30.7661 40.2895L30.6972 40.2047L30.4321 39.5841L30.1819 39.3228L30.0484 39.2376L29.7379 39.2346L29.6796 39.3069L29.0049 39.5841L28.7788 39.5997L28.6665 39.7039L28.1751 39.7951L27.7782 39.9997L27.6468 40.1793L27.567 40.5197L26.9893 40.844L26.627 41.4044L26.2758 41.7128L25.7951 42.7045L25.5579 43.1896L24.8314 44.2028L24.3506 44.5966L24.1114 44.6908L24.0185 44.82L24.0746 44.9803L24.1502 45.1752L24.3441 45.1722L24.4281 45.27L24.8658 45.2729L25.0123 45.4557L25.0727 45.871L25.0856 45.9557L25.4563 46.3994H25.6613L25.8576 46.2012L26.2907 45.5529L26.4265 45.4714L26.489 45.5624L27.149 45.4587L27.3923 44.9868L27.5735 44.9833L27.7286 45.4963L27.9637 45.8364L28.16 45.7543L28.7333 45.7449L28.9317 45.9306L29.1514 45.9371L29.2595 45.3707L29.3844 45.1817L29.5914 45.1787L29.6668 45.2759L29.5805 45.6442L29.6559 45.7482L29.824 45.7578L30.1089 45.5594L30.544 45.4557L30.7963 45.2759L31.0163 45.2794L31.1412 45.0905L31.1563 44.7414L30.9668 44.4233L30.8244 44.4263ZM31.2772 41.9647L31.135 42.0624L30.8114 42.6354L30.8093 42.8273L30.9494 43.0037L31.2147 43.0919L31.3396 42.9124L31.3484 42.6259L31.6049 42.1949L31.5359 41.9868L31.2772 41.9647Z"/>
</mask>
<path d="M33.0901 41.5774L32.9673 41.5903L32.5729 42.264L32.6289 42.3426L32.9587 42.3458L33.1677 42.0591L33.1464 41.6751L33.0901 41.5774ZM35.6794 33.1803L35.6125 33.272L35.4313 33.3003L35.3387 33.5461L35.4141 33.6501L35.6794 33.6536L35.7439 33.7383L36.0027 33.748L36.0566 33.4578L35.9227 33.2685L35.6794 33.1803ZM36.3757 31.755L36.1406 31.7647L35.7374 32.0387L35.7848 32.3324L36.1473 32.3289L36.2011 32.2315L36.382 32.228L36.5202 32.0608L36.3757 31.755ZM31.5963 41.6846L31.5314 41.8705L31.6329 41.9712L31.9885 41.9679L32.0554 41.7919L31.9778 41.6751L31.5963 41.6846ZM29.3951 38.5697L29.4726 38.6609L30.3759 38.6644L30.637 38.4785L30.6282 38.1695L30.5572 38.0907L30.2208 38.0878L30.1582 37.9934L29.7896 37.9964L29.7228 38.0878L29.4514 38.1037L29.2616 38.4658L29.3175 38.5762L29.3951 38.5697ZM24.2343 34.5645L24.1629 34.4194L24.1653 33.5903L24.2299 32.9473L24.0964 32.6161H23.9625L23.7706 32.3415L23.7081 31.982L23.7792 31.3735L23.6585 31.1968L23.1992 31.1024L23.1629 31.0235L22.8653 31.0014L22.7099 30.9035L22.3844 30.3738L21.4597 30.3326L21.3711 30.2473L21.0155 30.2507L20.9359 30.3482L20.4829 30.3391L20.1555 30.1589L19.774 30.0268L19.4548 29.5943L19.1315 29.5787L19.054 29.4935L18.782 29.4965L18.4026 29.3072L18.2173 29.1307L17.9564 28.4712L17.9499 27.9061L17.8854 27.8086L17.8833 25.9335L17.9457 25.3872L18.0168 25.2516L18.0857 24.0834L18.2605 22.6813L18.461 22.0276L18.8617 21.2566L18.8662 20.8015L18.7196 20.4097L18.8078 20.0746L18.7519 19.8378L18.5494 19.8252L17.978 20.7667L17.7063 20.7732L17.6352 20.8678H16.8054L16.734 20.7764H16.5919L16.3547 20.4288L16.1414 19.7462L15.9515 19.0983L15.4968 18.3305L15.8156 18.2987L15.8998 18.3969L16.0552 18.3778L16.4042 18.4094L16.6759 18.5866L16.9282 18.5926L17.0057 18.6876L17.5103 18.6973L17.5835 18.599L18.0103 18.5896L18.1008 18.6811L18.7866 18.6876L18.8576 18.7727L19.058 18.7889L19.1743 18.9659L19.4441 19.0857L19.5733 19.2627L19.7155 19.2818L19.778 19.4111L19.7004 19.5469L19.362 19.6546L19.125 20.0178L18.918 20.1129L18.9222 20.2487L19.1013 20.4981L19.194 20.3876L19.4462 20.391L19.7201 20.1853L19.7608 20.0369L19.9678 19.9076L20.0604 19.7401L20.2632 19.721L20.3731 19.5536L20.5306 19.5439L20.6989 19.3764L21.2699 19.2566L21.4576 19.3578L21.7053 19.2627L22.0266 18.9055L22.156 18.1343L22.2897 17.8373L22.1992 17.7457L21.6666 17.7427L21.6192 17.4231L22.0785 16.0542L22.2508 15.7033L22.4536 14.84L22.6302 14.5838L23.0613 13.5652L22.9234 13.1286L22.8373 12.5942L22.8588 11.5974L22.805 11.129L22.7229 11.0121L21.9555 10.4453L21.8197 10.4297L21.2829 10.1767L20.8927 10.1607L18.8943 9.366L18.0752 8.82793L17.894 8.82477L17.2687 8.23916L17.0512 7.79618L16.967 7.76742L16.7038 7.50479L16.5875 7.49829L16.3936 7.32093L16.1801 7.30531L15.9601 7.10865L15.8136 6.85252L15.5161 6.73217H15.2682L15.1712 6.64638L14.9512 6.64989L14.8263 6.81778L14.3651 6.93777L14.2528 7.12778L13.9984 7.10567L13.6103 6.91251L13.1618 6.31709L12.8018 5.61077L12.8063 5.1485L12.9184 4.83482L13.1618 4.66079L13.6879 4.61938L13.8454 4.46412L13.9617 4.46114L14.2744 4.24886L14.4682 3.72623L14.9772 3.34589L15.4149 3.20624L15.5528 3.03221L15.7144 2.99396L15.8091 2.56607L15.6928 1.80889L15.5959 1.59942L15.3438 1.60293L15.0287 1.7452L14.9361 1.99906L14.6559 2.05292L14.5459 2.17011L14.214 2.28415L14.1472 2.51257L13.8993 2.5631L13.6556 2.82941L13.4488 2.84502L13.3626 2.93081L13.1749 2.82291L12.8042 2.84853L12.6553 2.9687L12.399 3.22238L12.0993 3.3173L11.8491 3.70062L11.7132 4.49588L11.6205 4.81903L11.379 4.91394L11.2002 5.31937L11.2174 5.8327L11.5169 6.44076L11.7781 6.44375L11.9311 6.54199L12.1165 6.94128L12.1272 7.35269L12.3104 8.75828L12.5067 9.51512L12.5132 10.2841L12.5712 10.4237L12.5046 10.74L12.2458 11.1954L12.166 11.6226L12.1079 12.2744L12.3753 13.1542L12.3688 14.6251L12.5023 15.1657L12.5626 15.7633L13.1512 16.6075L13.3063 16.6235L13.5307 16.9682L13.8238 17.0091L14.0675 17.1671L14.4944 17.5087L14.5245 17.7519L15.1066 17.8373L15.2251 18.3778L15.4858 18.972L15.738 19.9106L15.818 20.3402L16.0165 20.7446L16.1328 21.4432L16.73 22.7793L16.9735 23.2372L17.0401 23.6128L17.3075 24.2793L17.4887 25.7346V28.0388L17.3054 28.9414L16.6349 30.3833L16.458 30.6259L16.3377 31.0014L16.3245 31.837L16.4001 32.1177L16.1217 32.1366L15.7361 32.6382L15.738 33.0859L15.6261 33.259L15.21 33.6471L14.7184 33.7448L13.9467 34.1108L13.7396 34.1327L13.3475 34.5078L13.1079 34.4981L12.8947 34.6969L11.8749 36.1029L11.4762 36.6762L11.4805 37.0385L11.543 37.1772L11.556 37.9869L11.4848 38.2135L11.586 38.4342L11.7283 38.4753L11.806 38.4027L12.0409 37.9111L12.2435 37.8169L12.5088 37.8139L12.5735 37.7221L13.2267 37.716L13.9467 38.1223L14.0026 38.362L13.9381 39.0737L13.9965 39.1523L14.0156 39.9967L14.0977 40.1446L14.3303 40.1918L13.8042 40.3683L13.7442 40.7397L13.9445 41.5177L14.0026 41.5963H14.2161L14.2614 41.5082L14.4058 41.3067H15.0245L15.2445 41.4044L15.281 41.5553L15.4233 42.2735L15.6066 42.7237H15.7617L16.3226 42.1602L16.8568 41.4956L17.3678 41.4926L17.7777 41.1021L18.0124 40.7397L18.9761 39.9084L19.1315 39.8644L19.3147 39.6062L19.6078 39.3951L19.7201 39.1874L19.9592 39.036L20.2911 38.7462L20.7915 38.4658L20.9596 38.4753L21.4985 38.1885L21.878 37.7255L22.4816 37.2436L22.8911 37.1583L23.456 36.7615L23.8567 36.0837L24.1588 35.6583L24.2343 34.5645ZM30.8244 44.4263L30.5701 44.2314L30.568 43.7844L30.3631 43.567H30.1431L30.0526 43.6617L29.3995 43.6552L29.5805 43.0479L29.7812 42.5251L30.2208 41.7979L30.4301 41.5995L30.6758 41.4926L30.8914 41.2219L30.7661 40.2895L30.6972 40.2047L30.4321 39.5841L30.1819 39.3228L30.0484 39.2376L29.7379 39.2346L29.6796 39.3069L29.0049 39.5841L28.7788 39.5997L28.6665 39.7039L28.1751 39.7951L27.7782 39.9997L27.6468 40.1793L27.567 40.5197L26.9893 40.844L26.627 41.4044L26.2758 41.7128L25.7951 42.7045L25.5579 43.1896L24.8314 44.2028L24.3506 44.5966L24.1114 44.6908L24.0185 44.82L24.0746 44.9803L24.1502 45.1752L24.3441 45.1722L24.4281 45.27L24.8658 45.2729L25.0123 45.4557L25.0727 45.871L25.0856 45.9557L25.4563 46.3994H25.6613L25.8576 46.2012L26.2907 45.5529L26.4265 45.4714L26.489 45.5624L27.149 45.4587L27.3923 44.9868L27.5735 44.9833L27.7286 45.4963L27.9637 45.8364L28.16 45.7543L28.7333 45.7449L28.9317 45.9306L29.1514 45.9371L29.2595 45.3707L29.3844 45.1817L29.5914 45.1787L29.6668 45.2759L29.5805 45.6442L29.6559 45.7482L29.824 45.7578L30.1089 45.5594L30.544 45.4557L30.7963 45.2759L31.0163 45.2794L31.1412 45.0905L31.1563 44.7414L30.9668 44.4233L30.8244 44.4263ZM31.2772 41.9647L31.135 42.0624L30.8114 42.6354L30.8093 42.8273L30.9494 43.0037L31.2147 43.0919L31.3396 42.9124L31.3484 42.6259L31.6049 42.1949L31.5359 41.9868L31.2772 41.9647Z" fill="#678B28" fill-opacity="0.4"/>
<path d="M33.0901 41.5774L33.0375 41.0801L33.3609 41.0459L33.5233 41.3277L33.0901 41.5774ZM32.9673 41.5903L32.5358 41.3377L32.6635 41.1197L32.9147 41.0931L32.9673 41.5903ZM32.5729 42.264L32.1656 42.554L31.978 42.2906L32.1414 42.0114L32.5729 42.264ZM32.6289 42.3426L32.6241 42.8426L32.3694 42.8402L32.2216 42.6326L32.6289 42.3426ZM32.9587 42.3458L33.3628 42.6403L33.2112 42.8482L32.9539 42.8458L32.9587 42.3458ZM33.1677 42.0591L33.6669 42.0315L33.6767 42.2095L33.5717 42.3536L33.1677 42.0591ZM33.1464 41.6751L33.5796 41.4254L33.6391 41.5286L33.6457 41.6475L33.1464 41.6751ZM35.6794 33.1803L35.2752 32.8859L35.4965 32.5821L35.8498 32.7102L35.6794 33.1803ZM35.6125 33.272L36.0167 33.5664L35.8945 33.7341L35.6895 33.7661L35.6125 33.272ZM35.4313 33.3003L34.9634 33.1239L35.0663 32.8511L35.3543 32.8062L35.4313 33.3003ZM35.3387 33.5461L34.9339 33.8396L34.7759 33.6216L34.8708 33.3697L35.3387 33.5461ZM35.4141 33.6501L35.4075 34.15L35.1566 34.1467L35.0093 33.9436L35.4141 33.6501ZM35.6794 33.6536L35.686 33.1536L35.9295 33.1569L36.0771 33.3506L35.6794 33.6536ZM35.7439 33.7383L35.7253 34.238L35.4893 34.2292L35.3462 34.0414L35.7439 33.7383ZM36.0027 33.748L36.4943 33.8392L36.4155 34.2637L35.9841 34.2476L36.0027 33.748ZM36.0566 33.4578L36.4648 33.1691L36.5867 33.3415L36.5482 33.5491L36.0566 33.4578ZM35.9227 33.2685L36.0932 32.7985L36.2405 32.8519L36.331 32.9798L35.9227 33.2685ZM36.3757 31.755L36.3552 31.2554L36.6862 31.2419L36.8277 31.5413L36.3757 31.755ZM36.1406 31.7647L35.8595 31.3512L35.9775 31.2709L36.1201 31.2651L36.1406 31.7647ZM35.7374 32.0387L35.2438 32.1183L35.1931 31.8041L35.4564 31.6252L35.7374 32.0387ZM35.7848 32.3324L35.7897 32.8324L35.3597 32.8365L35.2912 32.412L35.7848 32.3324ZM36.1473 32.3289L36.5848 32.5709L36.4437 32.826L36.1521 32.8289L36.1473 32.3289ZM36.2011 32.2315L35.7636 31.9895L35.9032 31.7372L36.1914 31.7316L36.2011 32.2315ZM36.382 32.228L36.7673 32.5466L36.6211 32.7235L36.3917 32.7279L36.382 32.228ZM36.5202 32.0608L36.9723 31.8471L37.1081 32.1345L36.9056 32.3794L36.5202 32.0608ZM31.5963 41.6846L31.1242 41.5198L31.2382 41.1933L31.5839 41.1847L31.5963 41.6846ZM31.5314 41.8705L31.1793 42.2256L30.9553 42.0035L31.0593 41.7057L31.5314 41.8705ZM31.6329 41.9712L31.6376 42.4712L31.429 42.4732L31.2809 42.3263L31.6329 41.9712ZM31.9885 41.9679L32.456 42.1454L32.3347 42.4647L31.9932 42.4679L31.9885 41.9679ZM32.0554 41.7919L32.472 41.5154L32.614 41.7294L32.5228 41.9695L32.0554 41.7919ZM31.9778 41.6751L31.9654 41.1752L32.2417 41.1684L32.3945 41.3986L31.9778 41.6751ZM29.3951 38.5697L29.3534 38.0714L29.6095 38.05L29.776 38.2459L29.3951 38.5697ZM29.4726 38.6609L29.4707 39.1609L29.2406 39.16L29.0916 38.9847L29.4726 38.6609ZM30.3759 38.6644L30.666 39.0717L30.5349 39.165L30.374 39.1644L30.3759 38.6644ZM30.637 38.4785L31.1368 38.4643L31.1444 38.7309L30.9271 38.8857L30.637 38.4785ZM30.6282 38.1695L30.9995 37.8346L31.1228 37.9713L31.128 38.1553L30.6282 38.1695ZM30.5572 38.0907L30.5616 37.5908L30.7813 37.5927L30.9284 37.7558L30.5572 38.0907ZM30.2208 38.0878L30.2164 38.5877L29.951 38.5854L29.8042 38.3642L30.2208 38.0878ZM30.1582 37.9934L30.1542 37.4934L30.4251 37.4912L30.5748 37.7169L30.1582 37.9934ZM29.7896 37.9964L29.386 37.7012L29.5343 37.4984L29.7856 37.4964L29.7896 37.9964ZM29.7228 38.0878L30.1264 38.3829L29.9873 38.5731L29.7521 38.5869L29.7228 38.0878ZM29.4514 38.1037L29.0085 37.8716L29.1398 37.6212L29.422 37.6046L29.4514 38.1037ZM29.2616 38.4658L28.8156 38.692L28.699 38.462L28.8187 38.2337L29.2616 38.4658ZM29.3175 38.5762L29.3592 39.0744L29.0238 39.1025L28.8716 38.8023L29.3175 38.5762ZM24.2343 34.5645L24.6829 34.3437L24.7423 34.4645L24.7331 34.5989L24.2343 34.5645ZM24.1629 34.4194L23.7142 34.6402L23.6625 34.535L23.6629 34.4179L24.1629 34.4194ZM24.1653 33.5903L23.6653 33.5888L23.6654 33.5645L23.6678 33.5403L24.1653 33.5903ZM24.2299 32.9473L24.6936 32.7604L24.7397 32.8747L24.7274 32.9972L24.2299 32.9473ZM24.0964 32.6161V32.1161H24.4339L24.5601 32.4291L24.0964 32.6161ZM23.9625 32.6161V33.1161H23.702L23.5527 32.9025L23.9625 32.6161ZM23.7706 32.3415L23.3608 32.628L23.297 32.5368L23.278 32.4271L23.7706 32.3415ZM23.7081 31.982L23.2155 32.0676L23.2031 31.9961L23.2115 31.9241L23.7081 31.982ZM23.7792 31.3735L24.192 31.0914L24.2975 31.2458L24.2758 31.4314L23.7792 31.3735ZM23.6585 31.1968L23.7591 30.707L23.9572 30.7477L24.0713 30.9147L23.6585 31.1968ZM23.1992 31.1024L23.0985 31.5922L22.8507 31.5412L22.7449 31.3113L23.1992 31.1024ZM23.1629 31.0235L23.1999 30.5248L23.4939 30.5467L23.6171 30.8145L23.1629 31.0235ZM22.8653 31.0014L22.8283 31.5L22.7042 31.4908L22.5989 31.4244L22.8653 31.0014ZM22.7099 30.9035L22.4434 31.3265L22.3449 31.2645L22.2839 31.1652L22.7099 30.9035ZM22.3844 30.3738L22.4067 29.8743L22.6716 29.8861L22.8105 30.1121L22.3844 30.3738ZM21.4597 30.3326L21.4375 30.8321L21.249 30.8237L21.113 30.6929L21.4597 30.3326ZM21.3711 30.2473L21.3664 29.7473L21.5707 29.7454L21.7178 29.8871L21.3711 30.2473ZM21.0155 30.2507L20.6282 29.9344L20.7765 29.7529L21.0108 29.7507L21.0155 30.2507ZM20.9359 30.3482L21.3232 30.6644L21.1692 30.853L20.9258 30.8481L20.9359 30.3482ZM20.4829 30.3391L20.4728 30.839L20.3497 30.8365L20.2418 30.7771L20.4829 30.3391ZM20.1555 30.1589L20.3191 29.6864L20.3593 29.7003L20.3966 29.7209L20.1555 30.1589ZM19.774 30.0268L19.6104 30.4993L19.4638 30.4485L19.3716 30.3237L19.774 30.0268ZM19.4548 29.5943L19.4789 29.0949L19.7162 29.1064L19.8572 29.2975L19.4548 29.5943ZM19.1315 29.5787L19.1074 30.0782L18.9008 30.0682L18.7616 29.9151L19.1315 29.5787ZM19.054 29.4935L19.0485 28.9935L19.2729 28.991L19.4239 29.1571L19.054 29.4935ZM18.782 29.4965L18.7875 29.9964L18.6668 29.9978L18.5588 29.9439L18.782 29.4965ZM18.4026 29.3072L18.1794 29.7546L18.1121 29.721L18.0577 29.6692L18.4026 29.3072ZM18.2173 29.1307L17.8724 29.4927L17.7928 29.4168L17.7524 29.3146L18.2173 29.1307ZM17.9564 28.4712L17.4915 28.6551L17.4575 28.5693L17.4565 28.4769L17.9564 28.4712ZM17.9499 27.9061L18.3669 27.6302L18.4482 27.753L18.4499 27.9004L17.9499 27.9061ZM17.8854 27.8086L17.4684 28.0846L17.3856 27.9593L17.3854 27.8091L17.8854 27.8086ZM17.8833 25.9335L17.3833 25.9341L17.3832 25.9053L17.3865 25.8767L17.8833 25.9335ZM17.9457 25.3872L17.449 25.3304L17.4596 25.2378L17.5028 25.1552L17.9457 25.3872ZM18.0168 25.2516L18.5159 25.2811L18.5096 25.3884L18.4597 25.4836L18.0168 25.2516ZM18.0857 24.0834L17.5866 24.0539L17.5876 24.0377L17.5896 24.0215L18.0857 24.0834ZM18.2605 22.6813L17.7643 22.6194L17.7697 22.5763L17.7824 22.5346L18.2605 22.6813ZM18.461 22.0276L17.983 21.881L17.9963 21.8374L18.0173 21.797L18.461 22.0276ZM18.8617 21.2566L19.3617 21.2616L19.3605 21.3811L19.3054 21.4871L18.8617 21.2566ZM18.8662 20.8015L19.3345 20.6262L19.3672 20.7134L19.3662 20.8065L18.8662 20.8015ZM18.7196 20.4097L18.2513 20.585L18.1956 20.4361L18.2361 20.2824L18.7196 20.4097ZM18.8078 20.0746L19.2944 19.9597L19.3231 20.0812L19.2913 20.202L18.8078 20.0746ZM18.7519 19.8378L18.783 19.3388L19.1532 19.3619L19.2385 19.7228L18.7519 19.8378ZM18.5494 19.8252L18.122 19.5658L18.2788 19.3073L18.5805 19.3261L18.5494 19.8252ZM17.978 20.7667L18.4055 21.0261L18.2635 21.2601L17.99 21.2666L17.978 20.7667ZM17.7063 20.7732L17.3065 20.4729L17.4521 20.2792L17.6943 20.2734L17.7063 20.7732ZM17.6352 20.8678L18.0349 21.1681L17.8849 21.3678H17.6352V20.8678ZM16.8054 20.8678V21.3678H16.5615L16.4114 21.1756L16.8054 20.8678ZM16.734 20.7764V20.2764H16.9779L17.128 20.4686L16.734 20.7764ZM16.5919 20.7764V21.2764H16.3278L16.1789 21.0582L16.5919 20.7764ZM16.3547 20.4288L15.9417 20.7107L15.8997 20.6491L15.8775 20.578L16.3547 20.4288ZM16.1414 19.7462L15.6641 19.8954L15.6615 19.8868L16.1414 19.7462ZM15.9515 19.0983L16.3818 18.8436L16.4137 18.8975L16.4314 18.9578L15.9515 19.0983ZM15.4968 18.3305L15.0666 18.5852L14.6671 17.9106L15.4473 17.8329L15.4968 18.3305ZM15.8156 18.2987L15.766 17.8012L16.0255 17.7753L16.1952 17.9733L15.8156 18.2987ZM15.8998 18.3969L15.9608 18.8932L15.6947 18.9259L15.5202 18.7223L15.8998 18.3969ZM16.0552 18.3778L15.9942 17.8816L16.0471 17.875L16.1003 17.8799L16.0552 18.3778ZM16.4042 18.4094L16.4492 17.9114L16.5731 17.9226L16.6773 17.9906L16.4042 18.4094ZM16.6759 18.5866L16.6641 19.0864L16.5219 19.0831L16.4028 19.0054L16.6759 18.5866ZM16.9282 18.5926L16.94 18.0927L17.1702 18.0981L17.3157 18.2765L16.9282 18.5926ZM17.0057 18.6876L16.9962 19.1875L16.7646 19.1831L16.6183 19.0036L17.0057 18.6876ZM17.5103 18.6973L17.9113 18.9959L17.7578 19.2021L17.5007 19.1972L17.5103 18.6973ZM17.5835 18.599L17.1824 18.3004L17.3283 18.1046L17.5724 18.0992L17.5835 18.599ZM18.0103 18.5896L17.9992 18.0897L18.2145 18.0849L18.3659 18.2381L18.0103 18.5896ZM18.1008 18.6811L18.0961 19.1811L17.8901 19.1792L17.7452 19.0327L18.1008 18.6811ZM18.7866 18.6876L18.7913 18.1877L19.0223 18.1898L19.1704 18.3672L18.7866 18.6876ZM18.8576 18.7727L18.8175 19.2711L18.6084 19.2543L18.4739 19.0932L18.8576 18.7727ZM19.058 18.7889L19.0981 18.2905L19.3417 18.3101L19.4759 18.5143L19.058 18.7889ZM19.1743 18.9659L18.9714 19.4228L18.8371 19.3632L18.7564 19.2404L19.1743 18.9659ZM19.4441 19.0857L19.6471 18.6287L19.7693 18.683L19.8481 18.791L19.4441 19.0857ZM19.5733 19.2627L19.5066 19.7583L19.2951 19.7298L19.1693 19.5574L19.5733 19.2627ZM19.7155 19.2818L19.7821 18.7863L20.0488 18.8221L20.1658 19.0644L19.7155 19.2818ZM19.778 19.4111L20.2282 19.1937L20.3427 19.4306L20.2122 19.6591L19.778 19.4111ZM19.7004 19.5469L20.1346 19.7949L20.0379 19.9642L19.8521 20.0234L19.7004 19.5469ZM19.362 19.6546L18.9433 19.3814L19.0407 19.2322L19.2104 19.1782L19.362 19.6546ZM19.125 20.0178L19.5437 20.2911L19.4649 20.4119L19.3337 20.4722L19.125 20.0178ZM18.918 20.1129L18.4182 20.1284L18.408 19.7969L18.7093 19.6585L18.918 20.1129ZM18.9222 20.2487L18.5161 20.5403L18.4272 20.4165L18.4225 20.2642L18.9222 20.2487ZM19.1013 20.4981L19.4845 20.8193L19.0708 21.3129L18.6952 20.7898L19.1013 20.4981ZM19.194 20.3876L18.8108 20.0664L18.9632 19.8845L19.2006 19.8877L19.194 20.3876ZM19.4462 20.391L19.7464 20.7908L19.6101 20.8932L19.4396 20.8909L19.4462 20.391ZM19.7201 20.1853L20.2023 20.3176L20.1571 20.4825L20.0203 20.5852L19.7201 20.1853ZM19.7608 20.0369L19.2786 19.9047L19.3303 19.7163L19.4959 19.6128L19.7608 20.0369ZM19.9678 19.9076L20.4054 20.1495L20.3427 20.263L20.2327 20.3317L19.9678 19.9076ZM20.0604 19.7401L19.6229 19.4982L19.7506 19.2671L20.0135 19.2423L20.0604 19.7401ZM20.2632 19.721L20.6813 19.9953L20.5494 20.1962L20.3102 20.2188L20.2632 19.721ZM20.3731 19.5536L19.955 19.2793L20.0925 19.0698L20.3425 19.0545L20.3731 19.5536ZM20.5306 19.5439L20.8834 19.8982L20.7496 20.0315L20.5612 20.043L20.5306 19.5439ZM20.6989 19.3764L20.346 19.0221L20.4511 18.9175L20.5962 18.8871L20.6989 19.3764ZM21.2699 19.2566L21.1672 18.7672L21.3462 18.7297L21.5072 18.8165L21.2699 19.2566ZM21.4576 19.3578L21.6368 19.8246L21.4224 19.9069L21.2203 19.7979L21.4576 19.3578ZM21.7053 19.2627L22.0771 19.5971L21.9967 19.6864L21.8845 19.7295L21.7053 19.2627ZM22.0266 18.9055L22.5197 18.9883L22.4956 19.1317L22.3983 19.2399L22.0266 18.9055ZM22.156 18.1343L21.6629 18.0515L21.6736 17.9879L21.7001 17.9291L22.156 18.1343ZM22.2897 17.8373L22.6453 17.4858L22.8864 17.7297L22.7457 18.0425L22.2897 17.8373ZM22.1992 17.7457L22.202 17.2457L22.4091 17.2469L22.5548 17.3942L22.1992 17.7457ZM21.6666 17.7427L21.6638 18.2427L21.2348 18.2403L21.172 17.816L21.6666 17.7427ZM21.6192 17.4231L21.1246 17.4964L21.107 17.3777L21.1452 17.264L21.6192 17.4231ZM22.0785 16.0542L21.6045 15.8951L21.615 15.8636L21.6297 15.8338L22.0785 16.0542ZM22.2508 15.7033L22.7375 15.8176L22.7246 15.8728L22.6996 15.9237L22.2508 15.7033ZM22.4536 14.84L21.9668 14.7256L21.9884 14.6338L22.042 14.5561L22.4536 14.84ZM22.6302 14.5838L23.0907 14.7787L23.0708 14.8257L23.0418 14.8677L22.6302 14.5838ZM23.0613 13.5652L23.5381 13.4147L23.5936 13.5904L23.5218 13.7601L23.0613 13.5652ZM22.9234 13.1286L22.4466 13.2792L22.4356 13.2443L22.4298 13.2081L22.9234 13.1286ZM22.8373 12.5942L22.3436 12.6738L22.3364 12.6289L22.3374 12.5834L22.8373 12.5942ZM22.8588 11.5974L23.3556 11.5403L23.3595 11.5741L23.3587 11.6082L22.8588 11.5974ZM22.805 11.129L23.2141 10.8415L23.2872 10.9455L23.3017 11.0718L22.805 11.129ZM22.7229 11.0121L23.0199 10.6099L23.0853 10.6582L23.132 10.7246L22.7229 11.0121ZM21.9555 10.4453L22.0126 9.94855L22.1452 9.96379L22.2526 10.0431L21.9555 10.4453ZM21.8197 10.4297L21.7626 10.9264L21.6809 10.917L21.6066 10.882L21.8197 10.4297ZM21.2829 10.1767L21.3033 9.6771L21.4045 9.68124L21.496 9.72439L21.2829 10.1767ZM20.8927 10.1607L20.8723 10.6603L20.7871 10.6568L20.7079 10.6253L20.8927 10.1607ZM18.8943 9.366L18.7096 9.8306L18.6623 9.81181L18.6198 9.7839L18.8943 9.366ZM18.0752 8.82793L18.0839 8.32801L18.2287 8.33053L18.3497 8.41003L18.0752 8.82793ZM17.894 8.82477L17.8853 9.3247L17.6927 9.32134L17.5522 9.1897L17.894 8.82477ZM17.2687 8.23916L16.9269 8.6041L16.8602 8.54161L16.8199 8.45957L17.2687 8.23916ZM17.0512 7.79618L17.2128 7.32304L17.4087 7.38997L17.5 7.57578L17.0512 7.79618ZM16.967 7.76742L16.8053 8.24057L16.6957 8.20312L16.6138 8.12132L16.967 7.76742ZM16.7038 7.50479L16.7317 7.00557L16.9221 7.01619L17.057 7.15088L16.7038 7.50479ZM16.5875 7.49829L16.5596 7.99752L16.3816 7.98758L16.25 7.8672L16.5875 7.49829ZM16.3936 7.32093L16.4301 6.82226L16.6032 6.83492L16.7312 6.95203L16.3936 7.32093ZM16.1801 7.30531L16.1437 7.80398L15.9738 7.79156L15.8469 7.67809L16.1801 7.30531ZM15.9601 7.10865L15.6269 7.48142L15.5664 7.42733L15.5261 7.35688L15.9601 7.10865ZM15.8136 6.85252L16.0011 6.389L16.1617 6.45394L16.2477 6.60428L15.8136 6.85252ZM15.5161 6.73217V6.23217H15.6134L15.7036 6.26865L15.5161 6.73217ZM15.2682 6.73217V7.23217H15.0789L14.937 7.10673L15.2682 6.73217ZM15.1712 6.64638L15.1632 6.14644L15.3571 6.14335L15.5024 6.27181L15.1712 6.64638ZM14.9512 6.64989L14.5501 6.35143L14.697 6.15388L14.9432 6.14995L14.9512 6.64989ZM14.8263 6.81778L15.2274 7.11624L15.1224 7.25738L14.9522 7.30167L14.8263 6.81778ZM14.3651 6.93777L13.9346 6.6834L14.0396 6.50582L14.2392 6.45388L14.3651 6.93777ZM14.2528 7.12778L14.6832 7.38216L14.5231 7.65315L14.2095 7.6259L14.2528 7.12778ZM13.9984 7.10567L13.9551 7.60379L13.8606 7.59558L13.7756 7.55329L13.9984 7.10567ZM13.6103 6.91251L13.3875 7.36013L13.282 7.30758L13.211 7.21338L13.6103 6.91251ZM13.1618 6.31709L12.7624 6.61795L12.7361 6.58306L12.7163 6.54414L13.1618 6.31709ZM12.8018 5.61077L12.3563 5.83783L12.3006 5.72852L12.3018 5.60584L12.8018 5.61077ZM12.8063 5.1485L12.3063 5.14357L12.3072 5.05945L12.3355 4.98023L12.8063 5.1485ZM12.9184 4.83482L12.4476 4.66655L12.5003 4.51918L12.6275 4.42813L12.9184 4.83482ZM13.1618 4.66079L12.8709 4.2541L12.9839 4.17323L13.1225 4.16233L13.1618 4.66079ZM13.6879 4.61938L14.0389 4.9755L13.9089 5.10353L13.7271 5.11784L13.6879 4.61938ZM13.8454 4.46412L13.4945 4.108L13.6351 3.96935L13.8326 3.96429L13.8454 4.46412ZM13.9617 4.46114L14.2426 4.87479L14.1212 4.95722L13.9746 4.96098L13.9617 4.46114ZM14.2744 4.24886L14.7432 4.42275L14.6875 4.57268L14.5552 4.66251L14.2744 4.24886ZM14.4682 3.72623L13.9994 3.55235L14.0507 3.41403L14.1689 3.32572L14.4682 3.72623ZM14.9772 3.34589L14.6779 2.94538L14.7452 2.89508L14.8252 2.86954L14.9772 3.34589ZM15.4149 3.20624L15.8068 3.51676L15.7121 3.63625L15.5669 3.68259L15.4149 3.20624ZM15.5528 3.03221L15.1609 2.72169L15.2687 2.58564L15.4376 2.54566L15.5528 3.03221ZM15.7144 2.99396L16.2025 3.10204L16.1347 3.40827L15.8295 3.48051L15.7144 2.99396ZM15.8091 2.56607L16.3033 2.49016L16.3175 2.58272L16.2973 2.67416L15.8091 2.56607ZM15.6928 1.80889L16.1466 1.59908L16.1763 1.66318L16.187 1.73298L15.6928 1.80889ZM15.5959 1.59942L15.589 1.09947L15.9136 1.09494L16.0498 1.3896L15.5959 1.59942ZM15.3438 1.60293L15.1381 1.14724L15.2329 1.10443L15.3369 1.10298L15.3438 1.60293ZM15.0287 1.7452L14.559 1.57381L14.6312 1.37612L14.823 1.28951L15.0287 1.7452ZM14.9361 1.99906L15.4058 2.17046L15.3087 2.43659L15.0305 2.49007L14.9361 1.99906ZM14.6559 2.05292L14.2914 1.71073L14.4023 1.59252L14.5616 1.56191L14.6559 2.05292ZM14.5459 2.17011L14.9105 2.5123L14.8257 2.6027L14.7084 2.64299L14.5459 2.17011ZM14.214 2.28415L13.7341 2.14372L13.8068 1.89536L14.0516 1.81128L14.214 2.28415ZM14.1472 2.51257L14.6271 2.65299L14.5424 2.94229L14.247 3.00249L14.1472 2.51257ZM13.8993 2.5631L13.5304 2.22556L13.6401 2.10563L13.7994 2.07317L13.8993 2.5631ZM13.6556 2.82941L14.0245 3.16694L13.8908 3.31308L13.6932 3.32799L13.6556 2.82941ZM13.4488 2.84502L13.0959 2.49074L13.2269 2.36034L13.4111 2.34644L13.4488 2.84502ZM13.3626 2.93081L13.7155 3.28508L13.4447 3.55471L13.1135 3.3643L13.3626 2.93081ZM13.1749 2.82291L13.1404 2.3241L13.2922 2.31361L13.4241 2.38942L13.1749 2.82291ZM12.8042 2.84853L12.4902 2.45939L12.6127 2.36057L12.7697 2.34972L12.8042 2.84853ZM12.6553 2.9687L12.3035 2.61333L12.3216 2.59549L12.3413 2.57956L12.6553 2.9687ZM12.399 3.22238L12.7507 3.57775L12.6649 3.66261L12.5499 3.69904L12.399 3.22238ZM12.0993 3.3173L11.6806 3.04403L11.7782 2.89454L11.9483 2.84064L12.0993 3.3173ZM11.8491 3.70062L11.3563 3.61636L11.3738 3.51417L11.4304 3.42735L11.8491 3.70062ZM11.7132 4.49588L12.206 4.58014L12.2014 4.60723L12.1938 4.63365L11.7132 4.49588ZM11.6205 4.81903L12.1012 4.95681L12.0332 5.19412L11.8034 5.2844L11.6205 4.81903ZM11.379 4.91394L10.9215 4.71222L11.0045 4.52385L11.1961 4.44857L11.379 4.91394ZM11.2002 5.31937L10.7005 5.33611L10.6967 5.22206L10.7427 5.11765L11.2002 5.31937ZM11.2174 5.8327L10.7688 6.05362L10.7213 5.95704L10.7177 5.84944L11.2174 5.8327ZM11.5169 6.44076L11.5111 6.94073L11.204 6.93722L11.0683 6.66167L11.5169 6.44076ZM11.7781 6.44375L11.7838 5.94378L11.9274 5.94542L12.0483 6.02303L11.7781 6.44375ZM11.9311 6.54199L12.2012 6.12127L12.3234 6.19972L12.3846 6.33139L11.9311 6.54199ZM12.1165 6.94128L12.57 6.73069L12.6136 6.82468L12.6163 6.92828L12.1165 6.94128ZM12.1272 7.35269L11.6314 7.41729L11.628 7.39159L11.6274 7.36569L12.1272 7.35269ZM12.3104 8.75828L11.8264 8.88382L11.8186 8.85372L11.8145 8.82289L12.3104 8.75828ZM12.5067 9.51512L12.9907 9.38958L13.0061 9.44925L13.0067 9.51089L12.5067 9.51512ZM12.5132 10.2841L12.0515 10.476L12.014 10.3859L12.0132 10.2883L12.5132 10.2841ZM12.5712 10.4237L13.0329 10.2317L13.0925 10.375L13.0605 10.5268L12.5712 10.4237ZM12.5046 10.74L12.9938 10.8431L12.9778 10.9193L12.9393 10.987L12.5046 10.74ZM12.2458 11.1954L11.7543 11.1036L11.7697 11.0213L11.8111 10.9484L12.2458 11.1954ZM12.166 11.6226L11.6679 11.5783L11.6701 11.5544L11.6745 11.5308L12.166 11.6226ZM12.1079 12.2744L11.6295 12.4198L11.6013 12.3268L11.6099 12.23L12.1079 12.2744ZM12.3753 13.1542L12.8537 13.0088L12.8756 13.081L12.8753 13.1564L12.3753 13.1542ZM12.3688 14.6251L11.8834 14.7449L11.8685 14.6848L11.8688 14.6228L12.3688 14.6251ZM12.5023 15.1657L12.9877 15.0459L12.9962 15.0803L12.9998 15.1155L12.5023 15.1657ZM12.5626 15.7633L12.1525 16.0492L12.0782 15.9427L12.0652 15.8135L12.5626 15.7633ZM13.1512 16.6075L13.1 17.1049L12.8721 17.0814L12.7411 16.8934L13.1512 16.6075ZM13.3063 16.6235L13.3575 16.1261L13.5951 16.1505L13.7254 16.3507L13.3063 16.6235ZM13.5307 16.9682L13.4616 17.4634L13.236 17.4319L13.1116 17.2409L13.5307 16.9682ZM13.8238 17.0091L13.8929 16.5139L14.0028 16.5292L14.096 16.5896L13.8238 17.0091ZM14.0675 17.1671L14.3396 16.7477L14.3605 16.7612L14.3799 16.7767L14.0675 17.1671ZM14.4944 17.5087L14.8068 17.1183L14.9655 17.2454L14.9906 17.4471L14.4944 17.5087ZM14.5245 17.7519L14.4519 18.2466L14.0752 18.1913L14.0283 17.8134L14.5245 17.7519ZM15.1066 17.8373L15.1793 17.3426L15.5211 17.3928L15.5951 17.7303L15.1066 17.8373ZM15.2251 18.3778L14.7672 18.5787L14.7473 18.5333L14.7366 18.4848L15.2251 18.3778ZM15.4858 18.972L15.9436 18.7711L15.9588 18.8057L15.9686 18.8422L15.4858 18.972ZM15.738 19.9106L16.2209 19.7808L16.226 19.7998L16.2296 19.8191L15.738 19.9106ZM15.818 20.3402L15.3692 20.5605L15.339 20.4991L15.3265 20.4318L15.818 20.3402ZM16.0165 20.7446L16.4653 20.5244L16.4976 20.5902L16.5097 20.6625L16.0165 20.7446ZM16.1328 21.4432L15.6763 21.6472L15.6501 21.5886L15.6396 21.5253L16.1328 21.4432ZM16.73 22.7793L16.2885 23.0141L16.2805 22.999L16.2735 22.9834L16.73 22.7793ZM16.9735 23.2372L17.4149 23.0025L17.452 23.0721L17.4658 23.1499L16.9735 23.2372ZM17.0401 23.6128L16.5761 23.799L16.5568 23.7511L16.5478 23.7002L17.0401 23.6128ZM17.3075 24.2793L17.7715 24.0932L17.7957 24.1533L17.8037 24.2175L17.3075 24.2793ZM17.4887 25.7346L17.9849 25.6728L17.9887 25.7036V25.7346H17.4887ZM17.4887 28.0388H17.9887V28.089L17.9787 28.1383L17.4887 28.0388ZM17.3054 28.9414L17.7954 29.0409L17.7836 29.0987L17.7588 29.1522L17.3054 28.9414ZM16.6349 30.3833L17.0882 30.5941L17.0677 30.6384L17.0389 30.6778L16.6349 30.3833ZM16.458 30.6259L15.9819 30.4733L16.0065 30.3965L16.054 30.3314L16.458 30.6259ZM16.3377 31.0014L15.8377 30.9935L15.8389 30.9193L15.8615 30.8487L16.3377 31.0014ZM16.3245 31.837L15.8417 31.967L15.8235 31.8992L15.8246 31.8291L16.3245 31.837ZM16.4001 32.1177L16.8829 31.9876L17.0412 32.5752L16.4341 32.6165L16.4001 32.1177ZM16.1217 32.1366L15.7253 31.8319L15.8628 31.6531L16.0878 31.6378L16.1217 32.1366ZM15.7361 32.6382L15.2361 32.6403L15.2354 32.4691L15.3397 32.3334L15.7361 32.6382ZM15.738 33.0859L16.238 33.0837L16.2387 33.2324L16.1579 33.3573L15.738 33.0859ZM15.6261 33.259L16.046 33.5305L16.0124 33.5825L15.9671 33.6247L15.6261 33.259ZM15.21 33.6471L15.551 34.0128L15.447 34.1098L15.3075 34.1375L15.21 33.6471ZM14.7184 33.7448L14.5042 33.293L14.5601 33.2665L14.6209 33.2544L14.7184 33.7448ZM13.9467 34.1108L14.1609 34.5626L14.084 34.599L13.9993 34.608L13.9467 34.1108ZM13.7396 34.1327L13.394 33.7714L13.5173 33.6535L13.687 33.6355L13.7396 34.1327ZM13.3475 34.5078L13.6932 34.8691L13.5397 35.0159L13.3274 35.0074L13.3475 34.5078ZM13.1079 34.4981L12.7669 34.1325L12.9195 33.9902L13.128 33.9986L13.1079 34.4981ZM12.8947 34.6969L12.49 34.4033L12.5184 34.3642L12.5537 34.3312L12.8947 34.6969ZM11.8749 36.1029L11.4644 35.8173L11.4702 35.8093L11.8749 36.1029ZM11.4762 36.6762L10.9762 36.6822L10.9743 36.5221L11.0657 36.3907L11.4762 36.6762ZM11.4805 37.0385L11.0246 37.2437L10.9818 37.1487L10.9806 37.0445L11.4805 37.0385ZM11.543 37.1772L11.9989 36.972L12.0413 37.0661L12.0429 37.1692L11.543 37.1772ZM11.556 37.9869L12.0559 37.9789L12.0572 38.0597L12.033 38.1368L11.556 37.9869ZM11.4848 38.2135L11.0303 38.422L10.9501 38.2472L11.0078 38.0636L11.4848 38.2135ZM11.586 38.4342L11.4474 38.9146L11.2271 38.8511L11.1315 38.6427L11.586 38.4342ZM11.7283 38.4753L12.0697 38.8406L11.8623 39.0344L11.5897 38.9557L11.7283 38.4753ZM11.806 38.4027L12.2571 38.6183L12.2164 38.7035L12.1474 38.768L11.806 38.4027ZM12.0409 37.9111L11.5898 37.6955L11.6672 37.5334L11.8301 37.4577L12.0409 37.9111ZM12.2435 37.8169L12.0327 37.3635L12.1303 37.3181L12.2379 37.3169L12.2435 37.8169ZM12.5088 37.8139L12.9173 38.1021L12.77 38.311L12.5144 38.3139L12.5088 37.8139ZM12.5735 37.7221L12.165 37.4339L12.3126 37.2246L12.5688 37.2222L12.5735 37.7221ZM13.2267 37.716L13.222 37.216L13.3558 37.2148L13.4724 37.2806L13.2267 37.716ZM13.9467 38.1223L14.1924 37.6869L14.3836 37.7948L14.4336 38.0086L13.9467 38.1223ZM14.0026 38.362L14.4895 38.2483L14.5079 38.3268L14.5006 38.4071L14.0026 38.362ZM13.9381 39.0737L13.5368 39.372L13.4229 39.2187L13.4401 39.0285L13.9381 39.0737ZM13.9965 39.1523L14.3978 38.854L14.4927 38.9818L14.4964 39.141L13.9965 39.1523ZM14.0156 39.9967L13.5785 40.2394L13.5185 40.1314L13.5157 40.008L14.0156 39.9967ZM14.0977 40.1446L13.9983 40.6346L13.7724 40.5888L13.6606 40.3873L14.0977 40.1446ZM14.3303 40.1918L14.4297 39.7017L16.2578 40.0726L14.4894 40.6658L14.3303 40.1918ZM13.8042 40.3683L13.3106 40.2885L13.3588 39.9903L13.6452 39.8942L13.8042 40.3683ZM13.7442 40.7397L13.26 40.8643L13.2339 40.7631L13.2506 40.6599L13.7442 40.7397ZM13.9445 41.5177L13.5424 41.8148L13.4846 41.7366L13.4603 41.6424L13.9445 41.5177ZM14.0026 41.5963V42.0963H13.7504L13.6005 41.8934L14.0026 41.5963ZM14.2161 41.5963L14.6608 41.8249L14.5213 42.0963H14.2161V41.5963ZM14.2614 41.5082L13.8167 41.2797L13.8335 41.247L13.8549 41.2171L14.2614 41.5082ZM14.4058 41.3067L13.9993 41.0155L14.1489 40.8067H14.4058V41.3067ZM15.0245 41.3067V40.8067H15.1306L15.2275 40.8497L15.0245 41.3067ZM15.2445 41.4044L15.4475 40.9474L15.6726 41.0474L15.7305 41.2868L15.2445 41.4044ZM15.281 41.5553L15.767 41.4377L15.7695 41.4479L15.7715 41.4581L15.281 41.5553ZM15.4233 42.2735L14.9602 42.4621L14.9421 42.4177L14.9328 42.3707L15.4233 42.2735ZM15.6066 42.7237V43.2237H15.2704L15.1436 42.9123L15.6066 42.7237ZM15.7617 42.7237L16.1161 43.0764L15.9695 43.2237H15.7617V42.7237ZM16.3226 42.1602L16.7123 42.4734L16.6957 42.4941L16.677 42.5129L16.3226 42.1602ZM16.8568 41.4956L16.4671 41.1824L16.6161 40.997L16.8539 40.9956L16.8568 41.4956ZM17.3678 41.4926L17.7128 41.8546L17.5691 41.9915L17.3708 41.9926L17.3678 41.4926ZM17.7777 41.1021L18.1973 41.3739L18.1653 41.4234L18.1226 41.4641L17.7777 41.1021ZM18.0124 40.7397L17.5927 40.4679L17.6316 40.4078L17.6858 40.361L18.0124 40.7397ZM18.9761 39.9084L18.6495 39.5298L18.7333 39.4575L18.8398 39.4274L18.9761 39.9084ZM19.1315 39.8644L19.5393 40.1537L19.4374 40.2974L19.2678 40.3455L19.1315 39.8644ZM19.3147 39.6062L18.9068 39.3169L18.955 39.249L19.0225 39.2004L19.3147 39.6062ZM19.6078 39.3951L20.0477 39.6329L19.9931 39.7338L19.8999 39.8009L19.6078 39.3951ZM19.7201 39.1874L19.2802 38.9496L19.3423 38.8348L19.4526 38.765L19.7201 39.1874ZM19.9592 39.036L20.2881 39.4126L20.2591 39.4379L20.2267 39.4584L19.9592 39.036ZM20.2911 38.7462L19.9623 38.3695L20.0014 38.3354L20.0467 38.31L20.2911 38.7462ZM20.7915 38.4658L20.5471 38.0296L20.6742 37.9584L20.8196 37.9666L20.7915 38.4658ZM20.9596 38.4753L21.1945 38.9167L21.071 38.9824L20.9314 38.9745L20.9596 38.4753ZM21.4985 38.1885L21.8852 38.5054L21.8218 38.5828L21.7334 38.6298L21.4985 38.1885ZM21.878 37.7255L21.4913 37.4085L21.5247 37.3677L21.566 37.3347L21.878 37.7255ZM22.4816 37.2436L22.1697 36.8528L22.2629 36.7784L22.3797 36.7541L22.4816 37.2436ZM22.8911 37.1583L23.1785 37.5674L23.0941 37.6268L22.993 37.6478L22.8911 37.1583ZM23.456 36.7615L23.8864 37.0159L23.8316 37.1087L23.7434 37.1706L23.456 36.7615ZM23.8567 36.0837L23.4263 35.8293L23.4369 35.8113L23.449 35.7943L23.8567 36.0837ZM24.1588 35.6583L24.6576 35.6927L24.648 35.8331L24.5665 35.9478L24.1588 35.6583ZM30.8244 44.4263L30.8348 44.9262L30.6594 44.9298L30.5201 44.8231L30.8244 44.4263ZM30.5701 44.2314L30.2659 44.6282L30.0713 44.4789L30.0702 44.2337L30.5701 44.2314ZM30.568 43.7844L30.9319 43.4414L31.0671 43.5848L31.068 43.782L30.568 43.7844ZM30.3631 43.567V43.067H30.5789L30.727 43.224L30.3631 43.567ZM30.1431 43.567L29.7816 43.2216L29.9293 43.067H30.1431V43.567ZM30.0526 43.6617L30.4141 44.0072L30.2644 44.1639L30.0476 44.1617L30.0526 43.6617ZM29.3995 43.6552L29.3945 44.1552L28.7306 44.1486L28.9203 43.5124L29.3995 43.6552ZM29.5805 43.0479L29.1013 42.905L29.1068 42.8866L29.1137 42.8687L29.5805 43.0479ZM29.7812 42.5251L29.3144 42.3459L29.3303 42.3044L29.3533 42.2664L29.7812 42.5251ZM30.2208 41.7979L29.793 41.5392L29.8279 41.4815L29.8769 41.435L30.2208 41.7979ZM30.4301 41.5995L30.0861 41.2366L30.15 41.1761L30.2307 41.141L30.4301 41.5995ZM30.6758 41.4926L31.0669 41.8041L30.9893 41.9015L30.8752 41.9511L30.6758 41.4926ZM30.8914 41.2219L31.3869 41.1554L31.4153 41.3667L31.2825 41.5334L30.8914 41.2219ZM30.7661 40.2895L31.1539 39.9739L31.2429 40.0832L31.2617 40.2229L30.7661 40.2895ZM30.6972 40.2047L30.3093 40.5203L30.265 40.4658L30.2373 40.4011L30.6972 40.2047ZM30.4321 39.5841L30.7932 39.2382L30.8561 39.304L30.8919 39.3877L30.4321 39.5841ZM30.1819 39.3228L30.451 38.9014L30.5015 38.9337L30.543 38.977L30.1819 39.3228ZM30.0484 39.2376L30.0532 38.7376L30.1966 38.739L30.3175 38.8162L30.0484 39.2376ZM29.7379 39.2346L29.3486 38.9209L29.5005 38.7323L29.7427 38.7346L29.7379 39.2346ZM29.6796 39.3069L30.069 39.6206L29.9884 39.7206L29.8696 39.7694L29.6796 39.3069ZM29.0049 39.5841L29.1949 40.0465L29.1201 40.0773L29.0393 40.0829L29.0049 39.5841ZM28.7788 39.5997L28.4386 39.2332L28.5681 39.113L28.7443 39.1009L28.7788 39.5997ZM28.6665 39.7039L29.0066 40.0704L28.9003 40.169L28.7577 40.1955L28.6665 39.7039ZM28.1751 39.7951L27.946 39.3507L28.0114 39.3169L28.0838 39.3035L28.1751 39.7951ZM27.7782 39.9997L27.3747 39.7045L27.4443 39.6093L27.5492 39.5552L27.7782 39.9997ZM27.6468 40.1793L27.1601 40.0651L27.1833 39.9662L27.2433 39.8841L27.6468 40.1793ZM27.567 40.5197L28.0538 40.6338L28.0036 40.848L27.8118 40.9556L27.567 40.5197ZM26.9893 40.844L26.5694 40.5726L26.6366 40.4687L26.7445 40.4081L26.9893 40.844ZM26.627 41.4044L27.0469 41.6759L27.0092 41.7342L26.9569 41.7801L26.627 41.4044ZM26.2758 41.7128L25.8259 41.4947L25.87 41.4038L25.9459 41.3371L26.2758 41.7128ZM25.7951 42.7045L26.2451 42.9226L26.2443 42.9242L25.7951 42.7045ZM25.5579 43.1896L26.0071 43.4093L25.9887 43.4469L25.9643 43.481L25.5579 43.1896ZM24.8314 44.2028L25.2378 44.4941L25.1993 44.5478L25.1483 44.5896L24.8314 44.2028ZM24.3506 44.5966L24.6674 44.9834L24.6068 45.0331L24.5338 45.0618L24.3506 44.5966ZM24.1114 44.6908L23.7057 44.3987L23.7915 44.2795L23.9282 44.2256L24.1114 44.6908ZM24.0185 44.82L23.5466 44.9852L23.4605 44.7392L23.6127 44.5278L24.0185 44.82ZM24.0746 44.9803L23.6085 45.1611L23.6054 45.1534L23.6027 45.1455L24.0746 44.9803ZM24.1502 45.1752L24.1579 45.6752L23.8099 45.6805L23.6841 45.3561L24.1502 45.1752ZM24.3441 45.1722L24.3364 44.6723L24.5705 44.6687L24.7232 44.8462L24.3441 45.1722ZM24.4281 45.27L24.4247 45.7699L24.1973 45.7684L24.049 45.596L24.4281 45.27ZM24.8658 45.2729L24.8692 44.7729L25.1072 44.7746L25.256 44.9603L24.8658 45.2729ZM25.0123 45.4557L25.4025 45.1431L25.4876 45.2492L25.5071 45.3838L25.0123 45.4557ZM25.0727 45.871L24.5784 45.9467L24.5779 45.9429L25.0727 45.871ZM25.0856 45.9557L24.7019 46.2763L24.6125 46.1693L24.5914 46.0315L25.0856 45.9557ZM25.4563 46.3994V46.8994H25.2225L25.0726 46.72L25.4563 46.3994ZM25.6613 46.3994L26.0165 46.7512L25.8698 46.8994H25.6613V46.3994ZM25.8576 46.2012L26.2733 46.479L26.2466 46.5189L26.2128 46.553L25.8576 46.2012ZM26.2907 45.5529L25.875 45.2751L25.9372 45.182L26.0332 45.1243L26.2907 45.5529ZM26.4265 45.4714L26.169 45.0428L26.5726 44.8003L26.8388 45.1885L26.4265 45.4714ZM26.489 45.5624L26.5666 46.0563L26.255 46.1053L26.0766 45.8452L26.489 45.5624ZM27.149 45.4587L27.5934 45.6879L27.4771 45.9133L27.2266 45.9527L27.149 45.4587ZM27.3923 44.9868L26.9479 44.7577L27.0845 44.4927L27.3826 44.4869L27.3923 44.9868ZM27.5735 44.9833L27.5638 44.4834L27.9425 44.476L28.0521 44.8386L27.5735 44.9833ZM27.7286 45.4963L27.3173 45.7805L27.2727 45.716L27.25 45.641L27.7286 45.4963ZM27.9637 45.8364L28.1566 46.2977L27.7827 46.4541L27.5523 46.1207L27.9637 45.8364ZM28.16 45.7543L27.9671 45.2931L28.0557 45.256L28.1517 45.2544L28.16 45.7543ZM28.7333 45.7449L28.7251 45.2449L28.9274 45.2416L29.0751 45.3799L28.7333 45.7449ZM28.9317 45.9306L28.917 46.4304L28.728 46.4248L28.59 46.2956L28.9317 45.9306ZM29.1514 45.9371L29.6425 46.0308L29.5627 46.4495L29.1366 46.4369L29.1514 45.9371ZM29.2595 45.3707L28.7683 45.277L28.7871 45.1785L28.8424 45.0949L29.2595 45.3707ZM29.3844 45.1817L28.9673 44.906L29.113 44.6856L29.3772 44.6818L29.3844 45.1817ZM29.5914 45.1787L29.5842 44.6788L29.8335 44.6752L29.9864 44.8721L29.5914 45.1787ZM29.6668 45.2759L30.0618 44.9693L30.2081 45.1578L30.1536 45.39L29.6668 45.2759ZM29.5805 45.6442L29.1757 45.9377L29.0415 45.7526L29.0937 45.53L29.5805 45.6442ZM29.6559 45.7482L29.6273 46.2474L29.3904 46.2338L29.2512 46.0417L29.6559 45.7482ZM29.824 45.7578L30.1098 46.1681L29.9679 46.2669L29.7954 46.257L29.824 45.7578ZM30.1089 45.5594L29.8232 45.1491L29.9009 45.095L29.993 45.073L30.1089 45.5594ZM30.544 45.4557L30.8342 45.8629L30.7548 45.9195L30.6599 45.9421L30.544 45.4557ZM30.7963 45.2759L30.5061 44.8688L30.6399 44.7734L30.8043 44.776L30.7963 45.2759ZM31.0163 45.2794L31.4334 45.5552L31.2823 45.7837L31.0083 45.7794L31.0163 45.2794ZM31.1412 45.0905L31.6407 45.1121L31.6347 45.2506L31.5583 45.3662L31.1412 45.0905ZM31.1563 44.7414L31.5858 44.4855L31.6623 44.6138L31.6558 44.7629L31.1563 44.7414ZM30.9668 44.4233L30.9563 43.9234L31.2474 43.9173L31.3964 44.1674L30.9668 44.4233ZM31.135 42.0624L30.6997 41.8165L30.7565 41.7159L30.8517 41.6505L31.135 42.0624ZM30.8114 42.6354L30.3114 42.6299L30.3128 42.5014L30.376 42.3895L30.8114 42.6354ZM30.8093 42.8273L30.4179 43.1385L30.3073 42.9995L30.3093 42.8219L30.8093 42.8273ZM30.9494 43.0037L30.7916 43.4781L30.6506 43.4312L30.5581 43.3148L30.9494 43.0037ZM31.2147 43.0919L31.6251 43.3775L31.4116 43.6843L31.0569 43.5663L31.2147 43.0919ZM31.3396 42.9124L31.8394 42.9277L31.8348 43.0762L31.75 43.1981L31.3396 42.9124ZM31.3484 42.6259L30.8486 42.6106L30.8526 42.4814L30.9187 42.3703L31.3484 42.6259ZM31.6049 42.1949L32.0795 42.0376L32.1513 42.2544L32.0346 42.4506L31.6049 42.1949ZM31.5359 41.9868L31.5785 41.4886L31.9069 41.5167L32.0105 41.8296L31.5359 41.9868ZM33.1427 42.0746L33.0199 42.0876L32.9147 41.0931L33.0375 41.0801L33.1427 42.0746ZM33.3988 41.843L33.0044 42.5166L32.1414 42.0114L32.5358 41.3377L33.3988 41.843ZM32.9802 41.974L33.0362 42.0526L32.2216 42.6326L32.1656 42.554L32.9802 41.974ZM32.6337 41.8426L32.9635 41.8458L32.9539 42.8458L32.6241 42.8426L32.6337 41.8426ZM32.5547 42.0513L32.7636 41.7646L33.5717 42.3536L33.3628 42.6403L32.5547 42.0513ZM32.6684 42.0867L32.6472 41.7027L33.6457 41.6475L33.6669 42.0315L32.6684 42.0867ZM32.7132 41.9247L32.6569 41.827L33.5233 41.3277L33.5796 41.4254L32.7132 41.9247ZM36.0835 33.4747L36.0167 33.5664L35.2084 32.9776L35.2752 32.8859L36.0835 33.4747ZM35.6895 33.7661L35.5083 33.7943L35.3543 32.8062L35.5356 32.778L35.6895 33.7661ZM35.8992 33.4766L35.8066 33.7224L34.8708 33.3697L34.9634 33.1239L35.8992 33.4766ZM35.7435 33.2525L35.8189 33.3566L35.0093 33.9436L34.9339 33.8396L35.7435 33.2525ZM35.4207 33.1501L35.686 33.1536L35.6728 34.1536L35.4075 34.15L35.4207 33.1501ZM36.0771 33.3506L36.1417 33.4353L35.3462 34.0414L35.2817 33.9566L36.0771 33.3506ZM35.7626 33.2387L36.0213 33.2483L35.9841 34.2476L35.7253 34.238L35.7626 33.2387ZM35.5111 33.6567L35.565 33.3666L36.5482 33.5491L36.4943 33.8392L35.5111 33.6567ZM35.6483 33.7465L35.5145 33.5572L36.331 32.9798L36.4648 33.1691L35.6483 33.7465ZM35.7522 33.7386L35.5089 33.6503L35.8498 32.7102L36.0932 32.7985L35.7522 33.7386ZM36.3962 32.2546L36.1611 32.2643L36.1201 31.2651L36.3552 31.2554L36.3962 32.2546ZM36.4217 32.1782L36.0185 32.4522L35.4564 31.6252L35.8595 31.3512L36.4217 32.1782ZM36.2311 31.9591L36.2784 32.2528L35.2912 32.412L35.2438 32.1183L36.2311 31.9591ZM35.78 31.8324L36.1424 31.8289L36.1521 32.8289L35.7897 32.8324L35.78 31.8324ZM35.7097 32.0869L35.7636 31.9895L36.6387 32.4735L36.5848 32.5709L35.7097 32.0869ZM36.1914 31.7316L36.3723 31.7281L36.3917 32.7279L36.2108 32.7314L36.1914 31.7316ZM35.9967 31.9094L36.1349 31.7422L36.9056 32.3794L36.7673 32.5466L35.9967 31.9094ZM36.0682 32.2745L35.9237 31.9687L36.8277 31.5413L36.9723 31.8471L36.0682 32.2745ZM32.0683 41.8493L32.0034 42.0353L31.0593 41.7057L31.1242 41.5198L32.0683 41.8493ZM31.8834 41.5154L31.985 41.6161L31.2809 42.3263L31.1793 42.2256L31.8834 41.5154ZM31.6282 41.4712L31.9839 41.4679L31.9932 42.4679L31.6376 42.4712L31.6282 41.4712ZM31.5211 41.7903L31.588 41.6144L32.5228 41.9695L32.456 42.1454L31.5211 41.7903ZM31.6388 42.0684L31.5612 41.9516L32.3945 41.3986L32.472 41.5154L31.6388 42.0684ZM31.9903 42.1749L31.6087 42.1844L31.5839 41.1847L31.9654 41.1752L31.9903 42.1749ZM29.776 38.2459L29.8536 38.3371L29.0916 38.9847L29.0141 38.8935L29.776 38.2459ZM29.4746 38.1609L30.3779 38.1644L30.374 39.1644L29.4707 39.1609L29.4746 38.1609ZM30.0858 38.2572L30.3469 38.0712L30.9271 38.8857L30.666 39.0717L30.0858 38.2572ZM30.1372 38.4926L30.1284 38.1837L31.128 38.1553L31.1368 38.4643L30.1372 38.4926ZM30.2569 38.5044L30.1859 38.4256L30.9284 37.7558L30.9995 37.8346L30.2569 38.5044ZM30.5527 38.5907L30.2164 38.5877L30.2253 37.5878L30.5616 37.5908L30.5527 38.5907ZM29.8042 38.3642L29.7416 38.2698L30.5748 37.7169L30.6375 37.8113L29.8042 38.3642ZM30.1623 38.4934L29.7937 38.4963L29.7856 37.4964L30.1542 37.4934L30.1623 38.4934ZM30.1932 38.2915L30.1264 38.3829L29.3192 37.7926L29.386 37.7012L30.1932 38.2915ZM29.7521 38.5869L29.4807 38.6029L29.422 37.6046L29.6934 37.5886L29.7521 38.5869ZM29.8942 38.3359L29.7044 38.698L28.8187 38.2337L29.0085 37.8716L29.8942 38.3359ZM29.7075 38.2397L29.7635 38.35L28.8716 38.8023L28.8156 38.692L29.7075 38.2397ZM29.2758 38.0779L29.3534 38.0714L29.4368 39.0679L29.3592 39.0744L29.2758 38.0779ZM23.7856 34.7852L23.7142 34.6402L24.6115 34.1986L24.6829 34.3437L23.7856 34.7852ZM23.6629 34.4179L23.6653 33.5888L24.6653 33.5917L24.6628 34.4209L23.6629 34.4179ZM23.6678 33.5403L23.7324 32.8973L24.7274 32.9972L24.6628 33.6402L23.6678 33.5403ZM23.7661 33.1342L23.6326 32.803L24.5601 32.4291L24.6936 32.7604L23.7661 33.1342ZM24.0964 33.1161H23.9625V32.1161H24.0964V33.1161ZM23.5527 32.9025L23.3608 32.628L24.1804 32.055L24.3723 32.3296L23.5527 32.9025ZM23.278 32.4271L23.2155 32.0676L24.2007 31.8965L24.2632 32.2559L23.278 32.4271ZM23.2115 31.9241L23.2825 31.3155L24.2758 31.4314L24.2047 32.04L23.2115 31.9241ZM23.3663 31.6555L23.2456 31.4788L24.0713 30.9147L24.192 31.0914L23.3663 31.6555ZM23.5578 31.6866L23.0985 31.5922L23.2998 30.6126L23.7591 30.707L23.5578 31.6866ZM22.7449 31.3113L22.7086 31.2324L23.6171 30.8145L23.6534 30.8935L22.7449 31.3113ZM23.1258 31.5221L22.8283 31.5L22.9024 30.5027L23.1999 30.5248L23.1258 31.5221ZM22.5989 31.4244L22.4434 31.3265L22.9763 30.4804L23.1318 30.5783L22.5989 31.4244ZM22.2839 31.1652L21.9584 30.6356L22.8105 30.1121L23.1359 30.6417L22.2839 31.1652ZM22.3622 30.8733L21.4375 30.8321L21.482 29.8331L22.4067 29.8743L22.3622 30.8733ZM21.113 30.6929L21.0244 30.6076L21.7178 29.8871L21.8064 29.9723L21.113 30.6929ZM21.3758 30.7473L21.0202 30.7506L21.0108 29.7507L21.3664 29.7473L21.3758 30.7473ZM21.4028 30.5669L21.3232 30.6644L20.5486 30.032L20.6282 29.9344L21.4028 30.5669ZM20.9258 30.8481L20.4728 30.839L20.493 29.8392L20.9459 29.8483L20.9258 30.8481ZM20.2418 30.7771L19.9144 30.5969L20.3966 29.7209L20.724 29.901L20.2418 30.7771ZM19.9919 30.6314L19.6104 30.4993L19.9375 29.5543L20.3191 29.6864L19.9919 30.6314ZM19.3716 30.3237L19.0525 29.8912L19.8572 29.2975L20.1763 29.7299L19.3716 30.3237ZM19.4307 30.0938L19.1074 30.0782L19.1556 29.0793L19.4789 29.0949L19.4307 30.0938ZM18.7616 29.9151L18.6841 29.8299L19.4239 29.1571L19.5014 29.2423L18.7616 29.9151ZM19.0595 29.9934L18.7875 29.9964L18.7765 28.9965L19.0485 28.9935L19.0595 29.9934ZM18.5588 29.9439L18.1794 29.7546L18.6258 28.8597L19.0052 29.049L18.5588 29.9439ZM18.0577 29.6692L17.8724 29.4927L18.5622 28.7687L18.7474 28.9451L18.0577 29.6692ZM17.7524 29.3146L17.4915 28.6551L18.4214 28.2873L18.6822 28.9467L17.7524 29.3146ZM17.4565 28.4769L17.45 27.9119L18.4499 27.9004L18.4564 28.4655L17.4565 28.4769ZM17.533 28.1821L17.4684 28.0846L18.3023 27.5326L18.3669 27.6302L17.533 28.1821ZM17.3854 27.8091L17.3833 25.9341L18.3833 25.933L18.3854 27.808L17.3854 27.8091ZM17.3865 25.8767L17.449 25.3304L18.4425 25.444L18.38 25.9903L17.3865 25.8767ZM17.5028 25.1552L17.5739 25.0195L18.4597 25.4836L18.3886 25.6193L17.5028 25.1552ZM17.5177 25.2221L17.5866 24.0539L18.5849 24.1128L18.5159 25.2811L17.5177 25.2221ZM17.5896 24.0215L17.7643 22.6194L18.7566 22.7431L18.5819 24.1452L17.5896 24.0215ZM17.7824 22.5346L17.983 21.881L18.939 22.1742L18.7385 22.8279L17.7824 22.5346ZM18.0173 21.797L18.418 21.026L19.3054 21.4871L18.9047 22.2582L18.0173 21.797ZM18.3617 21.2515L18.3663 20.7965L19.3662 20.8065L19.3617 21.2616L18.3617 21.2515ZM18.398 20.9768L18.2513 20.585L19.1878 20.2344L19.3345 20.6262L18.398 20.9768ZM18.2361 20.2824L18.3243 19.9473L19.2913 20.202L19.2031 20.5371L18.2361 20.2824ZM18.3212 20.1896L18.2653 19.9528L19.2385 19.7228L19.2944 19.9597L18.3212 20.1896ZM18.7207 20.3368L18.5183 20.3242L18.5805 19.3261L18.783 19.3388L18.7207 20.3368ZM18.9769 20.0846L18.4055 21.0261L17.5506 20.5073L18.122 19.5658L18.9769 20.0846ZM17.99 21.2666L17.7182 21.2731L17.6943 20.2734L17.9661 20.2669L17.99 21.2666ZM18.106 21.0736L18.0349 21.1681L17.2355 20.5674L17.3065 20.4729L18.106 21.0736ZM17.6352 21.3678H16.8054V20.3678H17.6352V21.3678ZM16.4114 21.1756L16.34 21.0842L17.128 20.4686L17.1994 20.56L16.4114 21.1756ZM16.734 21.2764H16.5919V20.2764H16.734V21.2764ZM16.1789 21.0582L15.9417 20.7107L16.7677 20.147L17.0049 20.4945L16.1789 21.0582ZM15.8775 20.578L15.6641 19.8954L16.6186 19.5971L16.8319 20.2797L15.8775 20.578ZM15.6615 19.8868L15.4717 19.2389L16.4314 18.9578L16.6212 19.6056L15.6615 19.8868ZM15.5213 19.3531L15.0666 18.5852L15.927 18.0757L16.3818 18.8436L15.5213 19.3531ZM15.4473 17.8329L15.766 17.8012L15.8651 18.7962L15.5464 18.828L15.4473 17.8329ZM16.1952 17.9733L16.2794 18.0715L15.5202 18.7223L15.436 18.6241L16.1952 17.9733ZM15.8387 17.9007L15.9942 17.8816L16.1163 18.8741L15.9608 18.8932L15.8387 17.9007ZM16.1003 17.8799L16.4492 17.9114L16.3591 18.9074L16.0102 18.8758L16.1003 17.8799ZM16.6773 17.9906L16.949 18.1678L16.4028 19.0054L16.1311 18.8282L16.6773 17.9906ZM16.6877 18.0867L16.94 18.0927L16.9164 19.0924L16.6641 19.0864L16.6877 18.0867ZM17.3157 18.2765L17.3932 18.3716L16.6183 19.0036L16.5407 18.9086L17.3157 18.2765ZM17.0153 18.1877L17.5199 18.1974L17.5007 19.1972L16.9962 19.1875L17.0153 18.1877ZM17.1093 18.3987L17.1824 18.3004L17.9845 18.8977L17.9113 18.9959L17.1093 18.3987ZM17.5724 18.0992L17.9992 18.0897L18.0214 19.0894L17.5945 19.0989L17.5724 18.0992ZM18.3659 18.2381L18.4564 18.3296L17.7452 19.0327L17.6547 18.9411L18.3659 18.2381ZM18.1055 18.1812L18.7913 18.1877L18.7819 19.1876L18.0961 19.1811L18.1055 18.1812ZM19.1704 18.3672L19.2414 18.4522L18.4739 19.0932L18.4028 19.0081L19.1704 18.3672ZM18.8978 18.2743L19.0981 18.2905L19.0179 19.2872L18.8175 19.2711L18.8978 18.2743ZM19.4759 18.5143L19.5922 18.6913L18.7564 19.2404L18.6401 19.0634L19.4759 18.5143ZM19.3772 18.5089L19.6471 18.6287L19.2412 19.5427L18.9714 19.4228L19.3772 18.5089ZM19.8481 18.791L19.9772 18.9681L19.1693 19.5574L19.0402 19.3804L19.8481 18.791ZM19.6399 18.7672L19.7821 18.7863L19.6489 19.7774L19.5066 19.7583L19.6399 18.7672ZM20.1658 19.0644L20.2282 19.1937L19.3278 19.6286L19.2653 19.4993L20.1658 19.0644ZM20.2122 19.6591L20.1346 19.7949L19.2663 19.299L19.3438 19.1632L20.2122 19.6591ZM19.8521 20.0234L19.5137 20.1311L19.2104 19.1782L19.5488 19.0705L19.8521 20.0234ZM19.7807 19.9279L19.5437 20.2911L18.7063 19.7445L18.9433 19.3814L19.7807 19.9279ZM19.3337 20.4722L19.1267 20.5672L18.7093 19.6585L18.9163 19.5634L19.3337 20.4722ZM19.4178 20.0974L19.422 20.2332L18.4225 20.2642L18.4182 20.1284L19.4178 20.0974ZM19.3284 19.9571L19.5075 20.2065L18.6952 20.7898L18.5161 20.5403L19.3284 19.9571ZM18.7181 20.177L18.8108 20.0664L19.5772 20.7088L19.4845 20.8193L18.7181 20.177ZM19.2006 19.8877L19.4528 19.891L19.4396 20.8909L19.1874 20.8876L19.2006 19.8877ZM19.146 19.9911L19.4199 19.7855L20.0203 20.5852L19.7464 20.7908L19.146 19.9911ZM19.2379 20.0531L19.2786 19.9047L20.243 20.1691L20.2023 20.3176L19.2379 20.0531ZM19.4959 19.6128L19.7029 19.4835L20.2327 20.3317L20.0257 20.461L19.4959 19.6128ZM19.5302 19.6657L19.6229 19.4982L20.498 19.982L20.4054 20.1495L19.5302 19.6657ZM20.0135 19.2423L20.2163 19.2232L20.3102 20.2188L20.1074 20.2379L20.0135 19.2423ZM19.8452 19.4467L19.955 19.2793L20.7911 19.8279L20.6813 19.9953L19.8452 19.4467ZM20.3425 19.0545L20.5 19.0449L20.5612 20.043L20.4036 20.0527L20.3425 19.0545ZM20.1778 19.1897L20.346 19.0221L21.0517 19.7307L20.8834 19.8982L20.1778 19.1897ZM20.5962 18.8871L21.1672 18.7672L21.3726 19.7459L20.8015 19.8657L20.5962 18.8871ZM21.5072 18.8165L21.6949 18.9177L21.2203 19.7979L21.0326 19.6967L21.5072 18.8165ZM21.2784 18.891L21.5262 18.7959L21.8845 19.7295L21.6368 19.8246L21.2784 18.891ZM21.3336 18.9284L21.6548 18.5712L22.3983 19.2399L22.0771 19.5971L21.3336 18.9284ZM21.5335 18.8227L21.6629 18.0515L22.6491 18.2171L22.5197 18.9883L21.5335 18.8227ZM21.7001 17.9291L21.8338 17.6321L22.7457 18.0425L22.612 18.3395L21.7001 17.9291ZM21.9341 18.1888L21.8436 18.0972L22.5548 17.3942L22.6453 17.4858L21.9341 18.1888ZM22.1964 18.2457L21.6638 18.2427L21.6694 17.2427L22.202 17.2457L22.1964 18.2457ZM21.172 17.816L21.1246 17.4964L22.1138 17.3498L22.1612 17.6694L21.172 17.816ZM21.1452 17.264L21.6045 15.8951L22.5525 16.2132L22.0932 17.5821L21.1452 17.264ZM21.6297 15.8338L21.802 15.4829L22.6996 15.9237L22.5273 16.2745L21.6297 15.8338ZM21.764 15.5889L21.9668 14.7256L22.9403 14.9543L22.7375 15.8176L21.764 15.5889ZM22.042 14.5561L22.2186 14.2999L23.0418 14.8677L22.8652 15.1239L22.042 14.5561ZM22.1698 14.389L22.6008 13.3704L23.5218 13.7601L23.0907 14.7787L22.1698 14.389ZM22.5845 13.7158L22.4466 13.2792L23.4002 12.978L23.5381 13.4147L22.5845 13.7158ZM22.4298 13.2081L22.3436 12.6738L23.3309 12.5146L23.417 13.049L22.4298 13.2081ZM22.3374 12.5834L22.3589 11.5866L23.3587 11.6082L23.3371 12.605L22.3374 12.5834ZM22.3621 11.6545L22.3082 11.1861L23.3017 11.0718L23.3556 11.5403L22.3621 11.6545ZM22.3959 11.4164L22.3138 11.2996L23.132 10.7246L23.2141 10.8415L22.3959 11.4164ZM22.4258 11.4143L21.6584 10.8475L22.2526 10.0431L23.0199 10.6099L22.4258 11.4143ZM21.8984 10.942L21.7626 10.9264L21.8768 9.93294L22.0126 9.94855L21.8984 10.942ZM21.6066 10.882L21.0697 10.629L21.496 9.72439L22.0329 9.97737L21.6066 10.882ZM21.2624 10.6763L20.8723 10.6603L20.9132 9.66114L21.3033 9.6771L21.2624 10.6763ZM20.7079 10.6253L18.7096 9.8306L19.0791 8.90139L21.0775 9.69611L20.7079 10.6253ZM18.6198 9.7839L17.8007 9.24583L18.3497 8.41003L19.1688 8.94809L18.6198 9.7839ZM18.0665 9.32785L17.8853 9.3247L17.9027 8.32485L18.0839 8.32801L18.0665 9.32785ZM17.5522 9.1897L16.9269 8.6041L17.6105 7.87423L18.2358 8.45984L17.5522 9.1897ZM16.8199 8.45957L16.6024 8.01659L17.5 7.57578L17.7175 8.01876L16.8199 8.45957ZM16.8895 8.26934L16.8053 8.24057L17.1286 7.29427L17.2128 7.32304L16.8895 8.26934ZM16.6138 8.12132L16.3506 7.8587L17.057 7.15088L17.3202 7.41351L16.6138 8.12132ZM16.6759 8.00401L16.5596 7.99752L16.6154 6.99907L16.7317 7.00557L16.6759 8.00401ZM16.25 7.8672L16.0561 7.68983L16.7312 6.95203L16.925 7.12939L16.25 7.8672ZM16.3572 7.8196L16.1437 7.80398L16.2166 6.80665L16.4301 6.82226L16.3572 7.8196ZM15.8469 7.67809L15.6269 7.48142L16.2934 6.73588L16.5134 6.93254L15.8469 7.67809ZM15.5261 7.35688L15.3796 7.10075L16.2477 6.60428L16.3942 6.86042L15.5261 7.35688ZM15.6262 7.31603L15.3286 7.19568L15.7036 6.26865L16.0011 6.389L15.6262 7.31603ZM15.5161 7.23217H15.2682V6.23217H15.5161V7.23217ZM14.937 7.10673L14.84 7.02095L15.5024 6.27181L15.5994 6.3576L14.937 7.10673ZM15.1792 7.14632L14.9592 7.14982L14.9432 6.14995L15.1632 6.14644L15.1792 7.14632ZM15.3524 6.94835L15.2274 7.11624L14.4251 6.51933L14.5501 6.35143L15.3524 6.94835ZM14.9522 7.30167L14.491 7.42167L14.2392 6.45388L14.7004 6.33389L14.9522 7.30167ZM14.7955 7.19216L14.6832 7.38216L13.8223 6.87339L13.9346 6.6834L14.7955 7.19216ZM14.2095 7.6259L13.9551 7.60379L14.0417 6.60755L14.2961 6.62965L14.2095 7.6259ZM13.7756 7.55329L13.3875 7.36013L13.8331 6.4649L14.2212 6.65805L13.7756 7.55329ZM13.211 7.21338L12.7624 6.61795L13.5611 6.01622L14.0097 6.61165L13.211 7.21338ZM12.7163 6.54414L12.3563 5.83783L13.2472 5.38372L13.6072 6.09003L12.7163 6.54414ZM12.3018 5.60584L12.3063 5.14357L13.3063 5.15343L13.3017 5.61571L12.3018 5.60584ZM12.3355 4.98023L12.4476 4.66655L13.3893 5.00309L13.2772 5.31676L12.3355 4.98023ZM12.6275 4.42813L12.8709 4.2541L13.4526 5.06747L13.2093 5.24151L12.6275 4.42813ZM13.1225 4.16233L13.6487 4.12093L13.7271 5.11784L13.201 5.15924L13.1225 4.16233ZM13.3369 4.26326L13.4945 4.108L14.1964 4.82024L14.0389 4.9755L13.3369 4.26326ZM13.8326 3.96429L13.9489 3.9613L13.9746 4.96098L13.8582 4.96396L13.8326 3.96429ZM13.6809 4.04749L13.9935 3.83521L14.5552 4.66251L14.2426 4.87479L13.6809 4.04749ZM13.8056 4.07497L13.9994 3.55235L14.937 3.90012L14.7432 4.42275L13.8056 4.07497ZM14.1689 3.32572L14.6779 2.94538L15.2765 3.7464L14.7675 4.12675L14.1689 3.32572ZM14.8252 2.86954L15.2629 2.7299L15.5669 3.68259L15.1291 3.82224L14.8252 2.86954ZM15.023 2.89573L15.1609 2.72169L15.9447 3.34273L15.8068 3.51676L15.023 2.89573ZM15.4376 2.54566L15.5992 2.50741L15.8295 3.48051L15.668 3.51876L15.4376 2.54566ZM15.2262 2.88588L15.3209 2.45799L16.2973 2.67416L16.2025 3.10204L15.2262 2.88588ZM15.3149 2.64199L15.1986 1.88481L16.187 1.73298L16.3033 2.49016L15.3149 2.64199ZM15.2389 2.01871L15.1421 1.80923L16.0498 1.3896L16.1466 1.59908L15.2389 2.01871ZM15.6029 2.09937L15.3508 2.10288L15.3369 1.10298L15.589 1.09947L15.6029 2.09937ZM15.5496 2.05862L15.2345 2.2009L14.823 1.28951L15.1381 1.14724L15.5496 2.05862ZM15.4985 1.9166L15.4058 2.17046L14.4664 1.82767L14.559 1.57381L15.4985 1.9166ZM15.0305 2.49007L14.7503 2.54393L14.5616 1.56191L14.8417 1.50805L15.0305 2.49007ZM15.0205 2.39511L14.9105 2.5123L14.1814 1.82792L14.2914 1.71073L15.0205 2.39511ZM14.7084 2.64299L14.3765 2.75702L14.0516 1.81128L14.3835 1.69724L14.7084 2.64299ZM14.6939 2.42457L14.6271 2.65299L13.6673 2.37214L13.7341 2.14372L14.6939 2.42457ZM14.247 3.00249L13.9992 3.05302L13.7994 2.07317L14.0473 2.02264L14.247 3.00249ZM14.2682 2.90063L14.0245 3.16694L13.2867 2.49187L13.5304 2.22556L14.2682 2.90063ZM13.6932 3.32799L13.4864 3.3436L13.4111 2.34644L13.618 2.33082L13.6932 3.32799ZM13.8016 3.19929L13.7155 3.28508L13.0098 2.57653L13.0959 2.49074L13.8016 3.19929ZM13.1135 3.3643L12.9257 3.2564L13.4241 2.38942L13.6118 2.49731L13.1135 3.3643ZM13.2094 3.32172L12.8387 3.34734L12.7697 2.34972L13.1404 2.3241L13.2094 3.32172ZM13.1182 3.23767L12.9692 3.35784L12.3413 2.57956L12.4902 2.45939L13.1182 3.23767ZM13.007 3.32407L12.7507 3.57775L12.0472 2.86701L12.3035 2.61333L13.007 3.32407ZM12.5499 3.69904L12.2503 3.79395L11.9483 2.84064L12.248 2.74572L12.5499 3.69904ZM12.518 3.59056L12.2679 3.97389L11.4304 3.42735L11.6806 3.04403L12.518 3.59056ZM12.342 3.78488L12.206 4.58014L11.2203 4.41161L11.3563 3.61636L12.342 3.78488ZM12.1938 4.63365L12.1012 4.95681L11.1399 4.68126L11.2325 4.3581L12.1938 4.63365ZM11.8034 5.2844L11.5618 5.37931L11.1961 4.44857L11.4377 4.35366L11.8034 5.2844ZM11.8365 5.11567L11.6577 5.5211L10.7427 5.11765L10.9215 4.71222L11.8365 5.11567ZM11.6999 5.30264L11.7171 5.81596L10.7177 5.84944L10.7005 5.33611L11.6999 5.30264ZM11.6659 5.61179L11.9654 6.21985L11.0683 6.66167L10.7688 6.05362L11.6659 5.61179ZM11.5226 5.9408L11.7838 5.94378L11.7724 6.94371L11.5111 6.94073L11.5226 5.9408ZM12.0483 6.02303L12.2012 6.12127L11.6609 6.96271L11.5079 6.86447L12.0483 6.02303ZM12.3846 6.33139L12.57 6.73069L11.663 7.15188L11.4776 6.75259L12.3846 6.33139ZM12.6163 6.92828L12.627 7.33968L11.6274 7.36569L11.6167 6.95429L12.6163 6.92828ZM12.623 7.28808L12.8062 8.69368L11.8145 8.82289L11.6314 7.41729L12.623 7.28808ZM12.7943 8.63274L12.9907 9.38958L12.0227 9.64066L11.8264 8.88382L12.7943 8.63274ZM13.0067 9.51089L13.0131 10.2798L12.0132 10.2883L12.0067 9.51934L13.0067 9.51089ZM12.9748 10.0921L13.0329 10.2317L12.1096 10.6157L12.0515 10.476L12.9748 10.0921ZM13.0605 10.5268L12.9938 10.8431L12.0153 10.6369L12.082 10.3206L13.0605 10.5268ZM12.9393 10.987L12.6805 11.4424L11.8111 10.9484L12.0698 10.493L12.9393 10.987ZM12.7373 11.2873L12.6575 11.7145L11.6745 11.5308L11.7543 11.1036L12.7373 11.2873ZM12.664 11.667L12.6059 12.3188L11.6099 12.23L11.6679 11.5783L12.664 11.667ZM12.5863 12.129L12.8537 13.0088L11.8969 13.2996L11.6295 12.4198L12.5863 12.129ZM12.8753 13.1564L12.8688 14.6273L11.8688 14.6228L11.8753 13.152L12.8753 13.1564ZM12.8542 14.5052L12.9877 15.0459L12.0169 15.2856L11.8834 14.7449L12.8542 14.5052ZM12.9998 15.1155L13.0601 15.713L12.0652 15.8135L12.0048 15.216L12.9998 15.1155ZM12.9728 15.4773L13.5614 16.3215L12.7411 16.8934L12.1525 16.0492L12.9728 15.4773ZM13.2024 16.1101L13.3575 16.1261L13.2551 17.1208L13.1 17.1049L13.2024 16.1101ZM13.7254 16.3507L13.9497 16.6954L13.1116 17.2409L12.8873 16.8962L13.7254 16.3507ZM13.5997 16.473L13.8929 16.5139L13.7548 17.5043L13.4616 17.4634L13.5997 16.473ZM14.096 16.5896L14.3396 16.7477L13.7954 17.5866L13.5517 17.4285L14.096 16.5896ZM14.3799 16.7767L14.8068 17.1183L14.182 17.8991L13.7551 17.5575L14.3799 16.7767ZM14.9906 17.4471L15.0207 17.6903L14.0283 17.8134L13.9982 17.5703L14.9906 17.4471ZM14.5971 17.2572L15.1793 17.3426L15.034 18.332L14.4519 18.2466L14.5971 17.2572ZM15.5951 17.7303L15.7135 18.2708L14.7366 18.4848L14.6182 17.9443L15.5951 17.7303ZM15.6829 18.1769L15.9436 18.7711L15.0279 19.1729L14.7672 18.5787L15.6829 18.1769ZM15.9686 18.8422L16.2209 19.7808L15.2552 20.0404L15.0029 19.1018L15.9686 18.8422ZM16.2296 19.8191L16.3096 20.2487L15.3265 20.4318L15.2465 20.0021L16.2296 19.8191ZM16.2669 20.12L16.4653 20.5244L15.5676 20.9649L15.3692 20.5605L16.2669 20.12ZM16.5097 20.6625L16.626 21.3611L15.6396 21.5253L15.5232 20.8267L16.5097 20.6625ZM16.5893 21.2392L17.1864 22.5753L16.2735 22.9834L15.6763 21.6472L16.5893 21.2392ZM17.1714 22.5446L17.4149 23.0025L16.532 23.472L16.2885 23.0141L17.1714 22.5446ZM17.4658 23.1499L17.5324 23.5255L16.5478 23.7002L16.4812 23.3246L17.4658 23.1499ZM17.5042 23.4267L17.7715 24.0932L16.8434 24.4655L16.5761 23.799L17.5042 23.4267ZM17.8037 24.2175L17.9849 25.6728L16.9925 25.7964L16.8113 24.3411L17.8037 24.2175ZM17.9887 25.7346V28.0388H16.9887V25.7346H17.9887ZM17.9787 28.1383L17.7954 29.0409L16.8154 28.8419L16.9987 27.9392L17.9787 28.1383ZM17.7588 29.1522L17.0882 30.5941L16.1815 30.1725L16.852 28.7305L17.7588 29.1522ZM17.0389 30.6778L16.8621 30.9204L16.054 30.3314L16.2308 30.0888L17.0389 30.6778ZM16.9342 30.7785L16.8138 31.154L15.8615 30.8487L15.9819 30.4733L16.9342 30.7785ZM16.8376 31.0092L16.8245 31.8448L15.8246 31.8291L15.8377 30.9935L16.8376 31.0092ZM16.8073 31.7069L16.8829 31.9876L15.9173 32.2477L15.8417 31.967L16.8073 31.7069ZM16.4341 32.6165L16.1557 32.6354L16.0878 31.6378L16.3662 31.6188L16.4341 32.6165ZM16.5181 32.4413L16.1325 32.9429L15.3397 32.3334L15.7253 31.8319L16.5181 32.4413ZM16.2361 32.636L16.238 33.0837L15.238 33.088L15.2361 32.6403L16.2361 32.636ZM16.1579 33.3573L16.046 33.5305L15.2062 32.9876L15.3181 32.8145L16.1579 33.3573ZM15.9671 33.6247L15.551 34.0128L14.869 33.2814L15.2851 32.8934L15.9671 33.6247ZM15.3075 34.1375L14.8159 34.2352L14.6209 33.2544L15.1125 33.1567L15.3075 34.1375ZM14.9326 34.1966L14.1609 34.5626L13.7324 33.659L14.5042 33.293L14.9326 34.1966ZM13.9993 34.608L13.7923 34.6299L13.687 33.6355L13.894 33.6136L13.9993 34.608ZM14.0853 34.494L13.6932 34.8691L13.0019 34.1465L13.394 33.7714L14.0853 34.494ZM13.3274 35.0074L13.0878 34.9977L13.128 33.9986L13.3677 34.0082L13.3274 35.0074ZM13.4489 34.8638L13.2357 35.0626L12.5537 34.3312L12.7669 34.1325L13.4489 34.8638ZM13.2995 34.9905L12.2797 36.3964L11.4702 35.8093L12.49 34.4033L13.2995 34.9905ZM12.2854 36.3884L11.8866 36.9617L11.0657 36.3907L11.4644 35.8174L12.2854 36.3884ZM11.9761 36.6701L11.9805 37.0324L10.9806 37.0445L10.9762 36.6822L11.9761 36.6701ZM11.9365 36.8333L11.9989 36.972L11.087 37.3825L11.0246 37.2437L11.9365 36.8333ZM12.0429 37.1692L12.0559 37.9789L11.056 37.9949L11.0431 37.1853L12.0429 37.1692ZM12.033 38.1368L11.9618 38.3634L11.0078 38.0636L11.079 37.837L12.033 38.1368ZM11.9392 38.0051L12.0405 38.2258L11.1315 38.6427L11.0303 38.422L11.9392 38.0051ZM11.7246 37.9538L11.8669 37.9949L11.5897 38.9557L11.4474 38.9146L11.7246 37.9538ZM11.3869 38.11L11.4646 38.0374L12.1474 38.768L12.0697 38.8406L11.3869 38.11ZM11.3548 38.1871L11.5898 37.6955L12.492 38.1267L12.2571 38.6183L11.3548 38.1871ZM11.8301 37.4577L12.0327 37.3635L12.4543 38.2703L12.2517 38.3645L11.8301 37.4577ZM12.2379 37.3169L12.5032 37.3139L12.5144 38.3139L12.2491 38.3169L12.2379 37.3169ZM12.1002 37.5257L12.165 37.4339L12.9821 38.0104L12.9173 38.1021L12.1002 37.5257ZM12.5688 37.2222L13.222 37.216L13.2314 38.216L12.5782 38.2221L12.5688 37.2222ZM13.4724 37.2806L14.1924 37.6869L13.7009 38.5578L12.9809 38.1515L13.4724 37.2806ZM14.4336 38.0086L14.4895 38.2483L13.5157 38.4757L13.4598 38.236L14.4336 38.0086ZM14.5006 38.4071L14.436 39.1189L13.4401 39.0285L13.5047 38.3168L14.5006 38.4071ZM14.3393 38.7754L14.3978 38.854L13.5952 39.4506L13.5368 39.372L14.3393 38.7754ZM14.4964 39.141L14.5155 39.9854L13.5157 40.008L13.4966 39.1636L14.4964 39.141ZM14.4527 39.754L14.5349 39.9019L13.6606 40.3873L13.5785 40.2394L14.4527 39.754ZM14.1971 39.6546L14.4297 39.7017L14.2309 40.6818L13.9983 40.6346L14.1971 39.6546ZM14.4894 40.6658L13.9632 40.8423L13.6452 39.8942L14.1713 39.7177L14.4894 40.6658ZM14.2978 40.448L14.2378 40.8194L13.2506 40.6599L13.3106 40.2885L14.2978 40.448ZM14.2284 40.615L14.4288 41.393L13.4603 41.6424L13.26 40.8643L14.2284 40.615ZM14.3467 41.2206L14.4048 41.2992L13.6005 41.8934L13.5424 41.8148L14.3467 41.2206ZM14.0026 41.0963H14.2161V42.0963H14.0026V41.0963ZM13.7714 41.3678L13.8167 41.2797L14.7061 41.7368L14.6608 41.8249L13.7714 41.3678ZM13.8549 41.2171L13.9993 41.0155L14.8123 41.5978L14.6679 41.7994L13.8549 41.2171ZM14.4058 40.8067H15.0245V41.8067H14.4058V40.8067ZM15.2275 40.8497L15.4475 40.9474L15.0416 41.8613L14.8216 41.7636L15.2275 40.8497ZM15.7305 41.2868L15.767 41.4377L14.795 41.6728L14.7585 41.5219L15.7305 41.2868ZM15.7715 41.4581L15.9138 42.1763L14.9328 42.3707L14.7906 41.6524L15.7715 41.4581ZM15.8864 42.0849L16.0697 42.5351L15.1436 42.9123L14.9602 42.4621L15.8864 42.0849ZM15.6066 42.2237H15.7617V43.2237H15.6066V42.2237ZM15.4073 42.3709L15.9682 41.8074L16.677 42.5129L16.1161 43.0764L15.4073 42.3709ZM15.9329 41.8469L16.4671 41.1824L17.2465 41.8089L16.7123 42.4734L15.9329 41.8469ZM16.8539 40.9956L17.3649 40.9926L17.3708 41.9926L16.8597 41.9956L16.8539 40.9956ZM17.0229 41.1307L17.4327 40.7401L18.1226 41.4641L17.7128 41.8546L17.0229 41.1307ZM17.358 40.8303L17.5927 40.4679L18.4321 41.0114L18.1973 41.3739L17.358 40.8303ZM17.6858 40.361L18.6495 39.5298L19.3026 40.2871L18.339 41.1183L17.6858 40.361ZM18.8398 39.4274L18.9952 39.3833L19.2678 40.3455L19.1124 40.3895L18.8398 39.4274ZM18.7237 39.5752L18.9068 39.3169L19.7225 39.8954L19.5393 40.1537L18.7237 39.5752ZM19.0225 39.2004L19.3157 38.9893L19.8999 39.8009L19.6068 40.0119L19.0225 39.2004ZM19.168 39.1574L19.2802 38.9496L20.1599 39.4252L20.0477 39.6329L19.168 39.1574ZM19.4526 38.765L19.6917 38.6136L20.2267 39.4584L19.9876 39.6098L19.4526 38.765ZM19.6304 38.6594L19.9623 38.3695L20.62 39.1228L20.2881 39.4126L19.6304 38.6594ZM20.0467 38.31L20.5471 38.0296L21.0359 38.902L20.5355 39.1824L20.0467 38.31ZM20.8196 37.9666L20.9877 37.9761L20.9314 38.9745L20.7633 38.965L20.8196 37.9666ZM20.7246 38.0339L21.2636 37.7471L21.7334 38.6298L21.1945 38.9167L20.7246 38.0339ZM21.1118 37.8715L21.4913 37.4085L22.2647 38.0424L21.8852 38.5054L21.1118 37.8715ZM21.566 37.3347L22.1697 36.8528L22.7936 37.6343L22.1899 38.1162L21.566 37.3347ZM22.3797 36.7541L22.7892 36.6688L22.993 37.6478L22.5836 37.7331L22.3797 36.7541ZM22.6037 36.7492L23.1686 36.3523L23.7434 37.1706L23.1785 37.5674L22.6037 36.7492ZM23.0256 36.507L23.4263 35.8293L24.2871 36.3382L23.8864 37.0159L23.0256 36.507ZM23.449 35.7943L23.7511 35.3688L24.5665 35.9478L24.2644 36.3732L23.449 35.7943ZM23.66 35.6239L23.7354 34.5301L24.7331 34.5989L24.6576 35.6927L23.66 35.6239ZM30.5201 44.8231L30.2659 44.6282L30.8744 43.8346L31.1286 44.0295L30.5201 44.8231ZM30.0702 44.2337L30.068 43.7867L31.068 43.782L31.0701 44.229L30.0702 44.2337ZM30.2042 44.1273L29.9993 43.91L30.727 43.224L30.9319 43.4414L30.2042 44.1273ZM30.3631 44.067H30.1431V43.067H30.3631V44.067ZM30.5046 43.9124L30.4141 44.0072L29.6911 43.3163L29.7816 43.2216L30.5046 43.9124ZM30.0476 44.1617L29.3945 44.1552L29.4044 43.1553L30.0576 43.1618L30.0476 44.1617ZM28.9203 43.5124L29.1013 42.905L30.0597 43.1907L29.8786 43.7981L28.9203 43.5124ZM29.1137 42.8687L29.3144 42.3459L30.248 42.7043L30.0473 43.2271L29.1137 42.8687ZM29.3533 42.2664L29.793 41.5392L30.6487 42.0566L30.2091 42.7838L29.3533 42.2664ZM29.8769 41.435L30.0861 41.2366L30.7741 41.9623L30.5648 42.1607L29.8769 41.435ZM30.2307 41.141L30.4763 41.0341L30.8752 41.9511L30.6296 42.058L30.2307 41.141ZM30.2847 41.1811L30.5003 40.9104L31.2825 41.5334L31.0669 41.8041L30.2847 41.1811ZM30.3958 41.2885L30.2706 40.3561L31.2617 40.2229L31.3869 41.1554L30.3958 41.2885ZM30.3783 40.605L30.3093 40.5203L31.085 39.8892L31.1539 39.9739L30.3783 40.605ZM30.2373 40.4011L29.9723 39.7804L30.8919 39.3877L31.157 40.0084L30.2373 40.4011ZM30.071 39.9299L29.8208 39.6687L30.543 38.977L30.7932 39.2382L30.071 39.9299ZM29.9128 39.7442L29.7793 39.659L30.3175 38.8162L30.451 38.9014L29.9128 39.7442ZM30.0436 39.7375L29.7331 39.7346L29.7427 38.7346L30.0532 38.7376L30.0436 39.7375ZM30.1272 39.5483L30.069 39.6206L29.2903 38.9931L29.3486 38.9209L30.1272 39.5483ZM29.8696 39.7694L29.1949 40.0465L28.8149 39.1216L29.4896 38.8444L29.8696 39.7694ZM29.0393 40.0829L28.8132 40.0985L28.7443 39.1009L28.9705 39.0852L29.0393 40.0829ZM29.1189 39.9661L29.0066 40.0704L28.3263 39.3374L28.4386 39.2332L29.1189 39.9661ZM28.7577 40.1955L28.2663 40.2867L28.0838 39.3035L28.5752 39.2123L28.7577 40.1955ZM28.4042 40.2395L28.0073 40.4441L27.5492 39.5552L27.946 39.3507L28.4042 40.2395ZM28.1818 40.2949L28.0504 40.4745L27.2433 39.8841L27.3747 39.7045L28.1818 40.2949ZM28.1336 40.2935L28.0538 40.6338L27.0802 40.4055L27.1601 40.0651L28.1336 40.2935ZM27.8118 40.9556L27.2341 41.28L26.7445 40.4081L27.3222 40.0837L27.8118 40.9556ZM27.4092 41.1155L27.0469 41.6759L26.2071 41.1329L26.5694 40.5726L27.4092 41.1155ZM26.9569 41.7801L26.6057 42.0885L25.9459 41.3371L26.2971 41.0287L26.9569 41.7801ZM26.7257 41.9309L26.245 42.9226L25.3452 42.4865L25.8259 41.4947L26.7257 41.9309ZM26.2443 42.9242L26.0071 43.4093L25.1087 42.97L25.3459 42.4849L26.2443 42.9242ZM25.9643 43.481L25.2378 44.4941L24.4251 43.9114L25.1516 42.8983L25.9643 43.481ZM25.1483 44.5896L24.6674 44.9834L24.0337 44.2098L24.5146 43.816L25.1483 44.5896ZM24.5338 45.0618L24.2947 45.156L23.9282 44.2256L24.1673 44.1314L24.5338 45.0618ZM24.5172 44.983L24.4242 45.1121L23.6127 44.5278L23.7057 44.3987L24.5172 44.983ZM24.4904 44.6547L24.5465 44.8151L23.6027 45.1455L23.5466 44.9852L24.4904 44.6547ZM24.5408 44.7995L24.6164 44.9944L23.6841 45.3561L23.6085 45.1611L24.5408 44.7995ZM24.1425 44.6753L24.3364 44.6723L24.3518 45.6722L24.1579 45.6752L24.1425 44.6753ZM24.7232 44.8462L24.8072 44.9439L24.049 45.596L23.965 45.4982L24.7232 44.8462ZM24.4315 44.77L24.8692 44.7729L24.8624 45.7729L24.4247 45.7699L24.4315 44.77ZM25.256 44.9603L25.4025 45.1431L24.6221 45.7684L24.4756 45.5856L25.256 44.9603ZM25.5071 45.3838L25.5675 45.7991L24.5779 45.9429L24.5175 45.5276L25.5071 45.3838ZM25.5669 45.7953L25.5799 45.88L24.5914 46.0315L24.5784 45.9467L25.5669 45.7953ZM25.4693 45.6351L25.84 46.0788L25.0726 46.72L24.7019 46.2763L25.4693 45.6351ZM25.4563 45.8994H25.6613V46.8994H25.4563V45.8994ZM25.306 46.0476L25.5023 45.8494L26.2128 46.553L26.0165 46.7512L25.306 46.0476ZM25.4418 45.9234L25.875 45.2751L26.7065 45.8307L26.2733 46.479L25.4418 45.9234ZM26.0332 45.1243L26.169 45.0428L26.684 45.9L26.5482 45.9815L26.0332 45.1243ZM26.8388 45.1885L26.9013 45.2796L26.0766 45.8452L26.0142 45.7542L26.8388 45.1885ZM26.4114 45.0685L27.0714 44.9648L27.2266 45.9527L26.5666 46.0563L26.4114 45.0685ZM26.7046 45.2296L26.9479 44.7577L27.8367 45.2159L27.5934 45.6879L26.7046 45.2296ZM27.3826 44.4869L27.5638 44.4834L27.5832 45.4832L27.402 45.4867L27.3826 44.4869ZM28.0521 44.8386L28.2072 45.3516L27.25 45.641L27.0949 45.128L28.0521 44.8386ZM28.1399 45.212L28.375 45.5522L27.5523 46.1207L27.3173 45.7805L28.1399 45.212ZM27.7708 45.3752L27.9671 45.2931L28.3529 46.2156L28.1566 46.2977L27.7708 45.3752ZM28.1517 45.2544L28.7251 45.2449L28.7416 46.2448L28.1683 46.2543L28.1517 45.2544ZM29.0751 45.3799L29.2735 45.5657L28.59 46.2956L28.3916 46.1098L29.0751 45.3799ZM28.9465 45.4309L29.1662 45.4374L29.1366 46.4369L28.917 46.4304L28.9465 45.4309ZM28.6602 45.8434L28.7683 45.277L29.7506 45.4644L29.6425 46.0308L28.6602 45.8434ZM28.8424 45.0949L28.9673 44.906L29.8015 45.4574L29.6766 45.6464L28.8424 45.0949ZM29.3772 44.6818L29.5842 44.6788L29.5986 45.6787L29.3916 45.6817L29.3772 44.6818ZM29.9864 44.8721L30.0618 44.9693L29.2718 45.5825L29.1964 45.4853L29.9864 44.8721ZM30.1536 45.39L30.0673 45.7583L29.0937 45.53L29.18 45.1618L30.1536 45.39ZM29.9853 45.3506L30.0607 45.4547L29.2512 46.0417L29.1757 45.9377L29.9853 45.3506ZM29.6846 45.249L29.8527 45.2587L29.7954 46.257L29.6273 46.2474L29.6846 45.249ZM29.5383 45.3475L29.8232 45.1491L30.3947 45.9697L30.1098 46.1681L29.5383 45.3475ZM29.993 45.073L30.4281 44.9694L30.6599 45.9421L30.2248 46.0458L29.993 45.073ZM30.2538 45.0486L30.5061 44.8688L31.0865 45.6831L30.8342 45.8629L30.2538 45.0486ZM30.8043 44.776L31.0243 44.7795L31.0083 45.7794L30.7883 45.7759L30.8043 44.776ZM30.5992 45.0037L30.7241 44.8147L31.5583 45.3662L31.4334 45.5552L30.5992 45.0037ZM30.6417 45.0689L30.6567 44.7198L31.6558 44.7629L31.6407 45.1121L30.6417 45.0689ZM30.7267 44.9973L30.5372 44.6792L31.3964 44.1674L31.5858 44.4855L30.7267 44.9973ZM30.9773 44.9232L30.8348 44.9262L30.8139 43.9264L30.9563 43.9234L30.9773 44.9232ZM31.5605 42.3767L31.4184 42.4744L30.8517 41.6505L30.9939 41.5527L31.5605 42.3767ZM31.5704 42.3084L31.2467 42.8813L30.376 42.3895L30.6997 41.8165L31.5704 42.3084ZM31.3113 42.6409L31.3092 42.8328L30.3093 42.8219L30.3114 42.6299L31.3113 42.6409ZM31.2006 42.5162L31.3408 42.6925L30.5581 43.3148L30.4179 43.1385L31.2006 42.5162ZM31.1073 42.5292L31.3725 42.6175L31.0569 43.5663L30.7916 43.4781L31.1073 42.5292ZM30.8043 42.8063L30.9292 42.6268L31.75 43.1981L31.6251 43.3775L30.8043 42.8063ZM30.8398 42.8971L30.8486 42.6106L31.8481 42.6413L31.8394 42.9277L30.8398 42.8971ZM30.9187 42.3703L31.1752 41.9392L32.0346 42.4506L31.7781 42.8816L30.9187 42.3703ZM31.1302 42.3522L31.0613 42.1441L32.0105 41.8296L32.0795 42.0376L31.1302 42.3522ZM31.4934 42.485L31.2346 42.4629L31.3197 41.4665L31.5785 41.4886L31.4934 42.485Z" fill="#678B28" fill-opacity="0.4" mask="url(#path-1-inside-1)"/>
</svg>
