<svg width="48" height="48" viewBox="0 0 48 48" fill="none" xmlns="http://www.w3.org/2000/svg">
<mask id="path-1-inside-1" fill="white">
<path d="M36.935 28.4026L36.5859 28.3286L36.4751 28.681L37.0052 28.6223L36.935 28.5195V28.4026ZM36.4146 23.243L36.7067 23.3499L37.0115 23.0208V22.8145L36.5037 22.7142L36.4146 23.243ZM45.8805 14.1257L46.3977 14.026L46.2949 13.6835H44.4626L43.7423 14.026L43.656 14.7614L42.2166 14.9829L41.9108 15.311V16.3674L41.4974 17.0028L42.2166 17.1246L42.8348 16.4742H44.0491L44.2522 16.2679H45.2699L45.8805 15.4105L46.3977 15.0897L45.5764 14.4401L45.8805 14.1257ZM35.6946 19.2731L36.4146 18.7453V18.3169L35.282 18.2028L34.9761 18.9521L35.6946 19.2731ZM36.6414 31.2488L36.4773 31.0903L36.1538 30.7797L36.1252 30.4713L36.1538 30.1192L36.3143 29.9025L36.4465 29.7233L36.489 29.3856L36.3771 29.0038L36.1384 28.9342L36.1252 28.9306L35.6791 28.7104L34.7445 28.0061L34.4805 27.3163L34.5212 27.0084L34.6556 26.8034L34.7779 26.6158L34.982 26.3039L35.2331 25.9662L35.7771 26.0249L35.7966 26.3659L35.8994 26.3406L36.8085 24.5275L34.8744 23.778L33.5509 21.9649L33.9651 19.8093L32.9352 18.7453L34.9761 17.8883L34.1688 15.3254L34.4746 14.3472L33.0355 13.9192L29.785 14.1402L29.3724 16.4894L26.3241 15.2039L26.0191 18.524L24.6964 19.9298L21.6492 19.4875L20.9299 21.7434L18.0873 23.6638L19.3022 26.0196L17.3744 28.9101L14.9257 30.1949L10.9486 28.5889L11.4648 25.9194L8.62139 28.0466L2.9138 26.9905L3.02316 28.1681L1.59766 30.0875L4.13552 31.0589L5.3709 32.5507L5.67494 32.5601L5.6757 32.5614L5.80962 32.4431L6.37719 32.1887L6.85008 32.1662L11.9263 32.3315L15.3251 33.9436L15.7909 34.1512L16.2231 34.2393L17.7871 34.1681L19.0797 33.7702L19.8902 33.7147L20.1707 33.5497L20.5654 33.4135L20.7993 33.0948L20.9102 32.675L21.1312 32.0333L21.6466 31.6024L22.7932 31.447L23.0663 31.2814L23.2759 30.8392L23.5394 30.4078L23.5605 30.2417L23.7708 29.722L24.0546 29.744L24.8222 29.9319L25.6849 29.921L26.1791 29.6445L27.4519 29.9764L28.3033 30.6951L28.5764 31.0824L29.5647 31.8237L30.364 31.2814L31.995 32.0444L32.3284 32.1307L32.6423 32.0285L33.6031 31.3369L34.3017 31.5693L34.7382 31.629L34.7789 31.5746L34.9379 31.4667L35.0716 31.4455L35.2665 31.4938L35.2926 31.4771L35.467 31.5368L35.5437 31.5477L35.7184 31.6179L35.7599 31.726L35.75 31.8665L35.7779 31.9052L35.8219 31.9639L35.8888 31.9363L35.9067 31.9265L36.0323 31.8561L36.046 31.8341L36.0584 31.8123L36.1913 31.8017L36.3047 31.8723L36.3298 31.8877L36.3151 31.9991L36.3095 32.0338L36.2222 32.1307L36.2272 32.212L36.3454 32.3204L36.47 32.3485L36.5654 32.3669L36.8796 32.3199L36.8657 31.8948L36.6414 31.2488ZM34.1688 19.6019L34.4746 19.7019L34.562 19.6019L34.4746 19.0523L34.1688 19.3949V19.6019Z"/>
</mask>
<path d="M36.935 28.4026L36.5859 28.3286L36.4751 28.681L37.0052 28.6223L36.935 28.5195V28.4026ZM36.4146 23.243L36.7067 23.3499L37.0115 23.0208V22.8145L36.5037 22.7142L36.4146 23.243ZM45.8805 14.1257L46.3977 14.026L46.2949 13.6835H44.4626L43.7423 14.026L43.656 14.7614L42.2166 14.9829L41.9108 15.311V16.3674L41.4974 17.0028L42.2166 17.1246L42.8348 16.4742H44.0491L44.2522 16.2679H45.2699L45.8805 15.4105L46.3977 15.0897L45.5764 14.4401L45.8805 14.1257ZM35.6946 19.2731L36.4146 18.7453V18.3169L35.282 18.2028L34.9761 18.9521L35.6946 19.2731ZM36.6414 31.2488L36.4773 31.0903L36.1538 30.7797L36.1252 30.4713L36.1538 30.1192L36.3143 29.9025L36.4465 29.7233L36.489 29.3856L36.3771 29.0038L36.1384 28.9342L36.1252 28.9306L35.6791 28.7104L34.7445 28.0061L34.4805 27.3163L34.5212 27.0084L34.6556 26.8034L34.7779 26.6158L34.982 26.3039L35.2331 25.9662L35.7771 26.0249L35.7966 26.3659L35.8994 26.3406L36.8085 24.5275L34.8744 23.778L33.5509 21.9649L33.9651 19.8093L32.9352 18.7453L34.9761 17.8883L34.1688 15.3254L34.4746 14.3472L33.0355 13.9192L29.785 14.1402L29.3724 16.4894L26.3241 15.2039L26.0191 18.524L24.6964 19.9298L21.6492 19.4875L20.9299 21.7434L18.0873 23.6638L19.3022 26.0196L17.3744 28.9101L14.9257 30.1949L10.9486 28.5889L11.4648 25.9194L8.62139 28.0466L2.9138 26.9905L3.02316 28.1681L1.59766 30.0875L4.13552 31.0589L5.3709 32.5507L5.67494 32.5601L5.6757 32.5614L5.80962 32.4431L6.37719 32.1887L6.85008 32.1662L11.9263 32.3315L15.3251 33.9436L15.7909 34.1512L16.2231 34.2393L17.7871 34.1681L19.0797 33.7702L19.8902 33.7147L20.1707 33.5497L20.5654 33.4135L20.7993 33.0948L20.9102 32.675L21.1312 32.0333L21.6466 31.6024L22.7932 31.447L23.0663 31.2814L23.2759 30.8392L23.5394 30.4078L23.5605 30.2417L23.7708 29.722L24.0546 29.744L24.8222 29.9319L25.6849 29.921L26.1791 29.6445L27.4519 29.9764L28.3033 30.6951L28.5764 31.0824L29.5647 31.8237L30.364 31.2814L31.995 32.0444L32.3284 32.1307L32.6423 32.0285L33.6031 31.3369L34.3017 31.5693L34.7382 31.629L34.7789 31.5746L34.9379 31.4667L35.0716 31.4455L35.2665 31.4938L35.2926 31.4771L35.467 31.5368L35.5437 31.5477L35.7184 31.6179L35.7599 31.726L35.75 31.8665L35.7779 31.9052L35.8219 31.9639L35.8888 31.9363L35.9067 31.9265L36.0323 31.8561L36.046 31.8341L36.0584 31.8123L36.1913 31.8017L36.3047 31.8723L36.3298 31.8877L36.3151 31.9991L36.3095 32.0338L36.2222 32.1307L36.2272 32.212L36.3454 32.3204L36.47 32.3485L36.5654 32.3669L36.8796 32.3199L36.8657 31.8948L36.6414 31.2488ZM34.1688 19.6019L34.4746 19.7019L34.562 19.6019L34.4746 19.0523L34.1688 19.3949V19.6019Z" fill="#678B28" fill-opacity="0.4" stroke="#678B28" stroke-opacity="0.4" mask="url(#path-1-inside-1)"/>
</svg>
