<svg width="48" height="48" viewBox="0 0 48 48" fill="none" xmlns="http://www.w3.org/2000/svg">
<mask id="path-1-inside-1" fill="white">
<path d="M6.67359 8.31934L6.55611 8.46122V8.69236L6.67359 8.81594H6.90778L7.02678 8.69236V8.46122L6.90778 8.31934H6.67359ZM15.9833 13.3915V13.647L16.1015 13.7881H16.3365L16.4547 13.647V13.1527L16.3365 13.0367L15.9833 13.3915ZM13.7443 12.045L13.5079 12.3021H12.7931L12.2118 12.6568L11.9761 13.9041L12.3377 14.0193L13.2874 13.5318H13.9801L14.0968 14.1428L13.8618 14.3992V14.895L14.215 15.2657H14.6956L14.8138 14.6387L15.746 13.9041V13.1527L14.6956 12.7797L13.7443 12.045ZM21.774 31.1046L21.6313 31.2442V31.74L21.774 31.856H21.9929L22.1112 31.74V31.2442L21.9929 31.1046H21.774ZM41.6749 36.941V37.1981L41.8084 37.3133L42.0289 37.3209L42.1456 37.1806L41.7939 36.8014L41.6749 36.941ZM46.2786 27.1576L45.7988 26.9181L45.3274 27.3888L44.6286 27.6451L44.2747 27.2728L44.158 26.6542H43.685L43.2067 27.15L42.8543 27.0341L42.7345 26.1583H42.0365L41.0852 26.6542L40.9678 26.2994L41.4461 26.0424L41.2119 25.2917L40.8503 24.9286L39.8998 25.4245L39.4436 24.4328L38.6098 24.5564L37.9034 26.5306L36.8507 27.893H35.9002L35.6645 27.1576L34.4943 27.6535L33.8955 28.2645L33.8085 28.9167L33.7795 29.1395H32.6078L32.4011 28.9167L32.2539 28.7596V27.5299L31.893 27.1576L31.0837 27.0165L30.8327 26.5382V25.5397L29.8822 25.0606V24.3092L29.5435 23.9293H28.1376L27.8935 24.4412H26.7088L26.4723 24.1856H25.7568L25.5371 24.4412L25.4036 24.3008L25.1839 23.3099L24.7124 23.0703V22.0871L24.3585 21.7079L23.6437 21.4516L22.8114 22.0802V22.5585L23.5255 23.0703V23.5662L22.9449 23.9293L21.9929 23.9453L21.6397 24.5564L21.758 24.6723H22.4727L22.7077 24.9118H23.1639L23.5171 25.548L23.2981 25.7868L23.4011 25.9188L24.1159 26.1583L24.704 27.0341L25.0664 27.15L25.1839 27.5299L25.9925 28.1394H26.9437L28.13 29.3706L28.4908 29.5102L28.4831 30.2448L28.844 30.3783L28.947 30.7407L28.844 30.8727L28.5854 30.6171H28.13L27.9965 30.7575L28.0117 31.4845L28.3657 31.8644H28.5854L29.6541 32.9697L29.8891 33.7219L30.9418 34.8364H31.1935L31.7908 35.7037V36.4376L32.3645 37.0486H32.8351L33.0724 37.3049L33.6682 36.6939L33.8886 35.7037L34.251 35.3315L34.8399 35.4466V35.9425L35.4364 36.5779L35.7744 36.4376L36.1276 35.571L36.3633 35.8273L36.7264 35.7114L36.9606 34.7036L37.3145 34.3405L38.265 34.3482L38.7288 34.5808L39.082 34.9607V35.455L39.6709 35.8273H40.1508L40.9609 34.7036V33.4739L41.2035 32.9697L42.5064 32.6066L42.7444 32.3503H43.1991L43.9138 31.6248H44.8651L45.5791 32.3594L46.1528 31.4845V29.2715L46.3977 29.0159L46.2786 27.1576ZM44.6202 39.0465L44.2602 39.418L44.4005 39.5339H44.6202L44.9742 39.1617L44.8567 39.0465H44.6202ZM40.504 38.1715L40.1424 37.8076L39.7892 38.1715V38.6834L40.623 39.55L40.7397 38.9221L40.504 38.6834V38.1715ZM44.3769 25.1758L44.5188 25.0362V24.5564L43.923 24.1856H43.685L43.3326 24.5564L43.3242 25.0522L43.4508 25.1758H44.3769ZM38.4855 18.4788L38.619 17.8678L38.3825 17.6115V16.6205H37.9111L37.6761 17.3719L38.1468 18.3552L38.4855 18.4788ZM1.95085 14.7699L1.73115 14.5151L1.59766 14.6471L1.61291 15.3817L1.73115 15.5213L1.95085 15.2657H2.19343L2.31244 15.1261V14.8859L2.19343 14.7699H1.95085ZM44.6202 23.6898L44.7385 23.5486V23.3099L44.6202 23.1939H44.3853L44.267 23.3099L44.2602 23.5486L44.3853 23.6898H44.6202ZM33.7856 18.7267L34.7216 18.4788L34.8399 17.8594L33.7856 17.7442L32.8351 18.2317L32.4827 19.1066L33.0724 19.4789L33.7856 18.7267ZM24.5942 14.0109L24.6957 13.8949V13.6554L24.3432 13.2755L24.006 13.6554L24.3432 14.0109H24.5942ZM23.4072 14.0269L23.5255 13.6554L23.4072 13.5318H22.7001L22.4651 13.2755L22.3385 13.3998V13.8949L22.4567 14.0269H23.4072ZM28.8287 21.6911L29.3085 21.46L30.1255 20.5843V19.5941L28.8371 19.4789L28.358 19.7345L27.7836 20.344V21.3357L28.1376 21.6911H28.8287Z"/>
</mask>
<path d="M6.67359 8.31934L6.55611 8.46122V8.69236L6.67359 8.81594H6.90778L7.02678 8.69236V8.46122L6.90778 8.31934H6.67359ZM15.9833 13.3915V13.647L16.1015 13.7881H16.3365L16.4547 13.647V13.1527L16.3365 13.0367L15.9833 13.3915ZM13.7443 12.045L13.5079 12.3021H12.7931L12.2118 12.6568L11.9761 13.9041L12.3377 14.0193L13.2874 13.5318H13.9801L14.0968 14.1428L13.8618 14.3992V14.895L14.215 15.2657H14.6956L14.8138 14.6387L15.746 13.9041V13.1527L14.6956 12.7797L13.7443 12.045ZM21.774 31.1046L21.6313 31.2442V31.74L21.774 31.856H21.9929L22.1112 31.74V31.2442L21.9929 31.1046H21.774ZM41.6749 36.941V37.1981L41.8084 37.3133L42.0289 37.3209L42.1456 37.1806L41.7939 36.8014L41.6749 36.941ZM46.2786 27.1576L45.7988 26.9181L45.3274 27.3888L44.6286 27.6451L44.2747 27.2728L44.158 26.6542H43.685L43.2067 27.15L42.8543 27.0341L42.7345 26.1583H42.0365L41.0852 26.6542L40.9678 26.2994L41.4461 26.0424L41.2119 25.2917L40.8503 24.9286L39.8998 25.4245L39.4436 24.4328L38.6098 24.5564L37.9034 26.5306L36.8507 27.893H35.9002L35.6645 27.1576L34.4943 27.6535L33.8955 28.2645L33.8085 28.9167L33.7795 29.1395H32.6078L32.4011 28.9167L32.2539 28.7596V27.5299L31.893 27.1576L31.0837 27.0165L30.8327 26.5382V25.5397L29.8822 25.0606V24.3092L29.5435 23.9293H28.1376L27.8935 24.4412H26.7088L26.4723 24.1856H25.7568L25.5371 24.4412L25.4036 24.3008L25.1839 23.3099L24.7124 23.0703V22.0871L24.3585 21.7079L23.6437 21.4516L22.8114 22.0802V22.5585L23.5255 23.0703V23.5662L22.9449 23.9293L21.9929 23.9453L21.6397 24.5564L21.758 24.6723H22.4727L22.7077 24.9118H23.1639L23.5171 25.548L23.2981 25.7868L23.4011 25.9188L24.1159 26.1583L24.704 27.0341L25.0664 27.15L25.1839 27.5299L25.9925 28.1394H26.9437L28.13 29.3706L28.4908 29.5102L28.4831 30.2448L28.844 30.3783L28.947 30.7407L28.844 30.8727L28.5854 30.6171H28.13L27.9965 30.7575L28.0117 31.4845L28.3657 31.8644H28.5854L29.6541 32.9697L29.8891 33.7219L30.9418 34.8364H31.1935L31.7908 35.7037V36.4376L32.3645 37.0486H32.8351L33.0724 37.3049L33.6682 36.6939L33.8886 35.7037L34.251 35.3315L34.8399 35.4466V35.9425L35.4364 36.5779L35.7744 36.4376L36.1276 35.571L36.3633 35.8273L36.7264 35.7114L36.9606 34.7036L37.3145 34.3405L38.265 34.3482L38.7288 34.5808L39.082 34.9607V35.455L39.6709 35.8273H40.1508L40.9609 34.7036V33.4739L41.2035 32.9697L42.5064 32.6066L42.7444 32.3503H43.1991L43.9138 31.6248H44.8651L45.5791 32.3594L46.1528 31.4845V29.2715L46.3977 29.0159L46.2786 27.1576ZM44.6202 39.0465L44.2602 39.418L44.4005 39.5339H44.6202L44.9742 39.1617L44.8567 39.0465H44.6202ZM40.504 38.1715L40.1424 37.8076L39.7892 38.1715V38.6834L40.623 39.55L40.7397 38.9221L40.504 38.6834V38.1715ZM44.3769 25.1758L44.5188 25.0362V24.5564L43.923 24.1856H43.685L43.3326 24.5564L43.3242 25.0522L43.4508 25.1758H44.3769ZM38.4855 18.4788L38.619 17.8678L38.3825 17.6115V16.6205H37.9111L37.6761 17.3719L38.1468 18.3552L38.4855 18.4788ZM1.95085 14.7699L1.73115 14.5151L1.59766 14.6471L1.61291 15.3817L1.73115 15.5213L1.95085 15.2657H2.19343L2.31244 15.1261V14.8859L2.19343 14.7699H1.95085ZM44.6202 23.6898L44.7385 23.5486V23.3099L44.6202 23.1939H44.3853L44.267 23.3099L44.2602 23.5486L44.3853 23.6898H44.6202ZM33.7856 18.7267L34.7216 18.4788L34.8399 17.8594L33.7856 17.7442L32.8351 18.2317L32.4827 19.1066L33.0724 19.4789L33.7856 18.7267ZM24.5942 14.0109L24.6957 13.8949V13.6554L24.3432 13.2755L24.006 13.6554L24.3432 14.0109H24.5942ZM23.4072 14.0269L23.5255 13.6554L23.4072 13.5318H22.7001L22.4651 13.2755L22.3385 13.3998V13.8949L22.4567 14.0269H23.4072ZM28.8287 21.6911L29.3085 21.46L30.1255 20.5843V19.5941L28.8371 19.4789L28.358 19.7345L27.7836 20.344V21.3357L28.1376 21.6911H28.8287Z" fill="#678B28" fill-opacity="0.4" stroke="#678B28" stroke-opacity="0.4" mask="url(#path-1-inside-1)"/>
</svg>
