<svg width="48" height="48" viewBox="0 0 48 48" fill="none" xmlns="http://www.w3.org/2000/svg">
<mask id="path-1-inside-1" fill="white">
<path fill-rule="evenodd" clip-rule="evenodd" d="M15.5536 17.5208L15.2992 17.7234L15.066 17.9696L14.9142 18.3524L14.9481 18.599L15.1589 19.5794L15.2253 20.0383V21.841L15.6074 22.1081L17.6403 21.2377L17.3735 20.9192L17.8842 20.6859L18.1744 20.3368L17.9589 19.6817L17.8797 19.1787L18.1849 18.7426L18.9908 18.1371L19.2247 17.8521L19.5351 17.3795L19.8074 16.8331L19.9253 16.3299L19.6197 16.3247L17.7257 16.6866L18.0129 16.1629L18.7269 15.5155L18.9908 14.7865H18.3598L17.6719 15.0743L17.0295 15.5439L16.5549 16.0905L15.7667 17.2794L15.5536 17.5208ZM45.9432 25.214L45.484 23.8765L45.3351 22.1619L44.3057 21.3709L42.7295 20.783L41.0764 20.6957L39.6341 21.4814L38.7742 23.4372L37.8292 24.2973L36.6663 24.3819L36.7644 24.0148L36.8513 23.638L35.4523 23.0419L34.1152 23.5196L33.227 23.9534L32.3775 24.3869L32.0487 24.9208L31.5178 25.1109L31.0474 25.3626L31.0579 26.0042L30.5367 25.9611L30.0464 26.1152L30.1338 26.6172L30.2087 27.2158L29.4891 27.8602L28.858 28.8973L28.6422 28.3351L28.5449 27.7009L27.6979 28.6534L26.8096 29.5469L25.3598 29.6188L23.8319 29.3794L25.7006 28.7534L27.1257 27.4624L25.534 27.6934L23.8038 28.0755L21.8634 28.2474L19.9253 28.4194L21.3141 27.6902L22.7383 27.4624V27.2006L21.8582 27.1902L21.3161 26.5075L20.5311 26.3325L20.7051 25.6709L19.2347 25.1908L20.2924 24.7309L21.3161 24.1149L20.1227 23.5967L18.5644 24.7797L17.9305 25.2521L17.31 25.6373L16.9787 25.2521L17.6614 24.6463L18.2924 24.0661L19.666 22.7853L21.6113 23.1497L22.1377 23.3891L22.6591 23.638L23.9474 23.4683L25.2491 23.1629V22.3129L23.8319 21.969L24.8386 21.4583L25.5624 20.9908L24.654 20.4878L23.5166 20.5162L23.8319 19.8026L24.6129 19.325L24.194 19.0276L23.9969 18.1107L24.0019 17.1612L22.4406 18.6553L21.3034 21.6482L20.8676 21.9204L20.5311 21.5658L20.78 21.2198L20.9804 20.5087L20.8286 19.8566L20.5386 19.325L18.5699 21.6407L16.1601 22.6442L15.4227 23.0491L14.5966 22.6778L14.4911 21.5912L14.3856 20.3315L13.8054 19.1067L12.936 18.5856L11.8188 20.1797L12.0729 22.6853L11.3031 22.3159L10.5126 21.969L10.6898 20.4729L11.0233 19.171L12.435 17.8879L13.0667 15.9986L12.3989 16.4195L11.7628 16.9459L12.3579 15.5596L13.508 14.6691L14.2624 13.4602L14.2758 12.153L13.6387 12.9487L13.01 12.153L14.0289 11.596L14.8351 10.9186L14.5068 10.3511L13.9625 10.2846L12.2113 11.5219L10.9823 13.837L10.6898 12.998L9.91452 13.3599L10.1995 14.5481L9.61387 14.243L9.08523 14.4045L8.75918 14.7768L8.42044 15.123L10.1246 11.8041L13.1819 9.30874L12.2429 8.83709L12.3989 8.12602L11.9064 7.38881L12.2429 6.94455L10.8767 6.81139L9.53149 7.39702L9.10539 8.34131L8.70244 9.18106L9.02376 9.64748L8.94685 10.6771L8.29949 11.2058L8.18425 11.9019L8.15588 12.6488L7.21682 12.613L6.29244 13.1722L5.75335 13.4647L5.89995 14.0986L6.46443 14.9511L7.09561 15.9006L7.74222 16.8869L8.30222 17.9312L7.32957 17.6211L6.24391 17.6L6.23869 19.3947L6.56996 20.7039L5.8223 20.2387L4.92654 20.4751L4.77248 21.4889L5.49924 21.7071L5.39894 22.1947L5.29888 22.6853L6.18716 22.6696L7.07769 22.6853L6.49007 22.9342L5.97188 23.4013L7.18621 24.0178L8.9364 23.8765L7.26535 24.883L6.14063 26.0042L5.6197 25.4576L5.26603 24.9514L5.12466 25.4166L5.34518 26.0042L5.77675 27.4876L7.07769 28.4194L6.67225 28.4921L6.27976 28.6586L6.76733 29.4312L8.04288 29.185L8.77935 28.8973L8.70244 29.4924L8.77935 30.0989L7.24968 30.3035L6.09458 31.6157L7.01323 31.5305L7.52469 31.6898L7.66532 32.712L8.26887 33.9104L7.43435 35.009L6.45422 35.7895L6.92139 36.6211L6.48484 37.5758L5.91513 38.6204L5.44025 39.5985L5.40665 40.9435L5.15229 41.6703L5.13213 42.5143L5.73768 43.7495L6.66727 44.0061L7.7604 43.9807L8.87442 43.9394L9.30599 43.8856L9.66763 43.8443L9.8523 44.0133L10.1044 44.1602L11.1002 43.7465L12.0395 43.0767L12.8947 41.4286L12.1732 39.2182L12.4709 37.756L12.9403 38.4638L13.1384 39.9733L13.9625 40.7123L14.0364 39.8195L14.5862 39.2906L14.3423 38.7876L14.0829 37.812L13.8054 36.8393L14.7273 38.2844L15.8234 38.9133L15.5081 37.9504L15.0556 37.1007L15.2149 37.0218L15.3742 36.9446L15.1768 36.2052L15.7204 35.9279L16.4185 37.1114L16.9451 38.5462L17.9716 38.5621L19.0602 38.6667L20.0996 39.9198L21.2599 40.9719L22.6611 41.3007L24.0654 41.4189L24.8586 41.8676L25.7058 42.1608L26.8146 41.1745L26.8686 39.2182L25.8934 37.9071L25.0948 36.5004L25.9138 36.7856L26.6555 37.5863L26.6944 36.8752L26.3454 36.3794L27.4107 36.3002L28.3296 37.0546L28.4266 38.5074L28.5449 39.9915L29.2918 41.3052L30.0902 42.6608L31.7637 43.4543L33.6839 43.3592L34.9468 43.924L36.2094 43.8727L36.908 43.1357L37.7961 42.8582L38.982 42.8791L39.708 41.7726L38.6149 40.9336L37.1644 40.4948L39.2615 40.3865L40.8019 38.9621L40.1575 37.4068L38.4252 37.2498L37.5086 36.814L36.5566 36.5417L35.514 36.7032L34.5152 37.0546L34.8878 38.9312L36.5227 40.4948L34.6979 39.6729L32.883 38.829L30.9399 38.4589L29.1357 37.4857L28.9458 36.7413L28.858 35.8993L28.5575 35.5941L28.224 35.3351L28.0394 34.8114L27.5383 34.2925L26.8611 33.7947L26.3454 32.9736L27.8136 33.6309L29.1683 34.6986L28.7582 33.5719L28.7012 32.9736L29.1683 32.5214L29.7517 32.7215L30.3953 33.5866L31.0708 34.339L31.594 34.1827L32.1518 33.957L31.6171 33.4019L31.1149 32.8248L31.3969 32.668L31.6814 32.5139L30.5315 31.6615L29.3254 31.0557L30.9989 30.7605L32.7058 31.1791L33.7683 31.4156L34.8285 31.3586L35.7116 30.9763L36.5894 30.6654L38.9611 31.4078L39.9853 34.1924L41.9856 33.8845L44.0621 34.1924L42.3983 32.9609L40.5169 32.0644L40.9689 31.7339L41.0742 31.1273L41.6105 30.6452L42.3497 31.0146L44.0028 31.2973L45.3712 29.5723L46.1099 28.1429L46.3977 26.4843L45.9432 25.214ZM31.5718 36.2303L30.6393 36.0715L29.638 36.3794V36.6211L29.9078 36.8393L30.5419 36.9675L30.8988 37.1007L31.2373 37.3603L31.4842 37.6146L31.7563 37.7886L32.1518 37.8227L33.2342 38.9671L33.5552 39.0286L33.7586 38.6025L33.4962 38.1537L32.7775 37.5863L31.5718 36.2303ZM5.62493 31.3048L5.82528 30.8374L5.90741 30.2654L5.74588 30.142L5.01415 30.3575L4.61096 30.3117L3.85657 29.9598L3.45885 29.8573L3.04743 29.9006L2.80377 30.0935L2.36498 30.8374L2.86574 31.1485L3.40932 31.2951H4.56466L4.96761 31.5388L5.32949 31.541L5.62493 31.3048ZM22.7383 25.5527L23.0106 25.9064L23.3321 26.0169L23.6731 25.9557L24.0019 25.7914L24.7921 26.0916L25.1973 25.5114L25.5084 24.7132L26.0296 24.3536V24.1149L25.1953 24.1948L22.7383 25.5527ZM20.3156 14.0966L20.7315 14.5045L21.1755 14.7865L21.5837 14.7358L21.9456 14.5787L22.2328 14.2885L22.41 13.837L21.6325 13.7905L20.5311 12.8748L19.7715 12.8641L19.9791 13.555L20.3156 14.0966ZM6.14063 5.05299L6.59535 4.67294L6.6491 4.14455L6.3696 3.7722L5.82528 3.8521L5.50671 4.39119L5.48654 5.09181L5.71229 5.47161L6.14063 5.05299ZM14.2397 15.5596L13.9625 16.4479L13.9878 16.4937L13.7188 17.7077L13.6543 17.808L13.8054 18.1371L14.0289 18.2344L14.3169 18.0622L14.5839 17.7416L14.966 17.0049L15.3045 15.9879L15.526 15.4976L15.7256 15.2749L15.9312 15.1462L16.0957 14.9869L16.1624 14.6691L16.0516 14.5247L15.8002 14.5608L15.698 13.837L15.1559 14.0195L14.6526 14.6713L14.2397 15.5596ZM2.92174 6.49281L3.2331 6.18269L2.98621 5.76183H2.56533L1.96178 5.95695L1.59766 6.226L1.89533 6.44975L2.37244 6.6088L2.92174 6.49281Z"/>
</mask>
<path fill-rule="evenodd" clip-rule="evenodd" d="M15.5536 17.5208L15.2992 17.7234L15.066 17.9696L14.9142 18.3524L14.9481 18.599L15.1589 19.5794L15.2253 20.0383V21.841L15.6074 22.1081L17.6403 21.2377L17.3735 20.9192L17.8842 20.6859L18.1744 20.3368L17.9589 19.6817L17.8797 19.1787L18.1849 18.7426L18.9908 18.1371L19.2247 17.8521L19.5351 17.3795L19.8074 16.8331L19.9253 16.3299L19.6197 16.3247L17.7257 16.6866L18.0129 16.1629L18.7269 15.5155L18.9908 14.7865H18.3598L17.6719 15.0743L17.0295 15.5439L16.5549 16.0905L15.7667 17.2794L15.5536 17.5208ZM45.9432 25.214L45.484 23.8765L45.3351 22.1619L44.3057 21.3709L42.7295 20.783L41.0764 20.6957L39.6341 21.4814L38.7742 23.4372L37.8292 24.2973L36.6663 24.3819L36.7644 24.0148L36.8513 23.638L35.4523 23.0419L34.1152 23.5196L33.227 23.9534L32.3775 24.3869L32.0487 24.9208L31.5178 25.1109L31.0474 25.3626L31.0579 26.0042L30.5367 25.9611L30.0464 26.1152L30.1338 26.6172L30.2087 27.2158L29.4891 27.8602L28.858 28.8973L28.6422 28.3351L28.5449 27.7009L27.6979 28.6534L26.8096 29.5469L25.3598 29.6188L23.8319 29.3794L25.7006 28.7534L27.1257 27.4624L25.534 27.6934L23.8038 28.0755L21.8634 28.2474L19.9253 28.4194L21.3141 27.6902L22.7383 27.4624V27.2006L21.8582 27.1902L21.3161 26.5075L20.5311 26.3325L20.7051 25.6709L19.2347 25.1908L20.2924 24.7309L21.3161 24.1149L20.1227 23.5967L18.5644 24.7797L17.9305 25.2521L17.31 25.6373L16.9787 25.2521L17.6614 24.6463L18.2924 24.0661L19.666 22.7853L21.6113 23.1497L22.1377 23.3891L22.6591 23.638L23.9474 23.4683L25.2491 23.1629V22.3129L23.8319 21.969L24.8386 21.4583L25.5624 20.9908L24.654 20.4878L23.5166 20.5162L23.8319 19.8026L24.6129 19.325L24.194 19.0276L23.9969 18.1107L24.0019 17.1612L22.4406 18.6553L21.3034 21.6482L20.8676 21.9204L20.5311 21.5658L20.78 21.2198L20.9804 20.5087L20.8286 19.8566L20.5386 19.325L18.5699 21.6407L16.1601 22.6442L15.4227 23.0491L14.5966 22.6778L14.4911 21.5912L14.3856 20.3315L13.8054 19.1067L12.936 18.5856L11.8188 20.1797L12.0729 22.6853L11.3031 22.3159L10.5126 21.969L10.6898 20.4729L11.0233 19.171L12.435 17.8879L13.0667 15.9986L12.3989 16.4195L11.7628 16.9459L12.3579 15.5596L13.508 14.6691L14.2624 13.4602L14.2758 12.153L13.6387 12.9487L13.01 12.153L14.0289 11.596L14.8351 10.9186L14.5068 10.3511L13.9625 10.2846L12.2113 11.5219L10.9823 13.837L10.6898 12.998L9.91452 13.3599L10.1995 14.5481L9.61387 14.243L9.08523 14.4045L8.75918 14.7768L8.42044 15.123L10.1246 11.8041L13.1819 9.30874L12.2429 8.83709L12.3989 8.12602L11.9064 7.38881L12.2429 6.94455L10.8767 6.81139L9.53149 7.39702L9.10539 8.34131L8.70244 9.18106L9.02376 9.64748L8.94685 10.6771L8.29949 11.2058L8.18425 11.9019L8.15588 12.6488L7.21682 12.613L6.29244 13.1722L5.75335 13.4647L5.89995 14.0986L6.46443 14.9511L7.09561 15.9006L7.74222 16.8869L8.30222 17.9312L7.32957 17.6211L6.24391 17.6L6.23869 19.3947L6.56996 20.7039L5.8223 20.2387L4.92654 20.4751L4.77248 21.4889L5.49924 21.7071L5.39894 22.1947L5.29888 22.6853L6.18716 22.6696L7.07769 22.6853L6.49007 22.9342L5.97188 23.4013L7.18621 24.0178L8.9364 23.8765L7.26535 24.883L6.14063 26.0042L5.6197 25.4576L5.26603 24.9514L5.12466 25.4166L5.34518 26.0042L5.77675 27.4876L7.07769 28.4194L6.67225 28.4921L6.27976 28.6586L6.76733 29.4312L8.04288 29.185L8.77935 28.8973L8.70244 29.4924L8.77935 30.0989L7.24968 30.3035L6.09458 31.6157L7.01323 31.5305L7.52469 31.6898L7.66532 32.712L8.26887 33.9104L7.43435 35.009L6.45422 35.7895L6.92139 36.6211L6.48484 37.5758L5.91513 38.6204L5.44025 39.5985L5.40665 40.9435L5.15229 41.6703L5.13213 42.5143L5.73768 43.7495L6.66727 44.0061L7.7604 43.9807L8.87442 43.9394L9.30599 43.8856L9.66763 43.8443L9.8523 44.0133L10.1044 44.1602L11.1002 43.7465L12.0395 43.0767L12.8947 41.4286L12.1732 39.2182L12.4709 37.756L12.9403 38.4638L13.1384 39.9733L13.9625 40.7123L14.0364 39.8195L14.5862 39.2906L14.3423 38.7876L14.0829 37.812L13.8054 36.8393L14.7273 38.2844L15.8234 38.9133L15.5081 37.9504L15.0556 37.1007L15.2149 37.0218L15.3742 36.9446L15.1768 36.2052L15.7204 35.9279L16.4185 37.1114L16.9451 38.5462L17.9716 38.5621L19.0602 38.6667L20.0996 39.9198L21.2599 40.9719L22.6611 41.3007L24.0654 41.4189L24.8586 41.8676L25.7058 42.1608L26.8146 41.1745L26.8686 39.2182L25.8934 37.9071L25.0948 36.5004L25.9138 36.7856L26.6555 37.5863L26.6944 36.8752L26.3454 36.3794L27.4107 36.3002L28.3296 37.0546L28.4266 38.5074L28.5449 39.9915L29.2918 41.3052L30.0902 42.6608L31.7637 43.4543L33.6839 43.3592L34.9468 43.924L36.2094 43.8727L36.908 43.1357L37.7961 42.8582L38.982 42.8791L39.708 41.7726L38.6149 40.9336L37.1644 40.4948L39.2615 40.3865L40.8019 38.9621L40.1575 37.4068L38.4252 37.2498L37.5086 36.814L36.5566 36.5417L35.514 36.7032L34.5152 37.0546L34.8878 38.9312L36.5227 40.4948L34.6979 39.6729L32.883 38.829L30.9399 38.4589L29.1357 37.4857L28.9458 36.7413L28.858 35.8993L28.5575 35.5941L28.224 35.3351L28.0394 34.8114L27.5383 34.2925L26.8611 33.7947L26.3454 32.9736L27.8136 33.6309L29.1683 34.6986L28.7582 33.5719L28.7012 32.9736L29.1683 32.5214L29.7517 32.7215L30.3953 33.5866L31.0708 34.339L31.594 34.1827L32.1518 33.957L31.6171 33.4019L31.1149 32.8248L31.3969 32.668L31.6814 32.5139L30.5315 31.6615L29.3254 31.0557L30.9989 30.7605L32.7058 31.1791L33.7683 31.4156L34.8285 31.3586L35.7116 30.9763L36.5894 30.6654L38.9611 31.4078L39.9853 34.1924L41.9856 33.8845L44.0621 34.1924L42.3983 32.9609L40.5169 32.0644L40.9689 31.7339L41.0742 31.1273L41.6105 30.6452L42.3497 31.0146L44.0028 31.2973L45.3712 29.5723L46.1099 28.1429L46.3977 26.4843L45.9432 25.214ZM31.5718 36.2303L30.6393 36.0715L29.638 36.3794V36.6211L29.9078 36.8393L30.5419 36.9675L30.8988 37.1007L31.2373 37.3603L31.4842 37.6146L31.7563 37.7886L32.1518 37.8227L33.2342 38.9671L33.5552 39.0286L33.7586 38.6025L33.4962 38.1537L32.7775 37.5863L31.5718 36.2303ZM5.62493 31.3048L5.82528 30.8374L5.90741 30.2654L5.74588 30.142L5.01415 30.3575L4.61096 30.3117L3.85657 29.9598L3.45885 29.8573L3.04743 29.9006L2.80377 30.0935L2.36498 30.8374L2.86574 31.1485L3.40932 31.2951H4.56466L4.96761 31.5388L5.32949 31.541L5.62493 31.3048ZM22.7383 25.5527L23.0106 25.9064L23.3321 26.0169L23.6731 25.9557L24.0019 25.7914L24.7921 26.0916L25.1973 25.5114L25.5084 24.7132L26.0296 24.3536V24.1149L25.1953 24.1948L22.7383 25.5527ZM20.3156 14.0966L20.7315 14.5045L21.1755 14.7865L21.5837 14.7358L21.9456 14.5787L22.2328 14.2885L22.41 13.837L21.6325 13.7905L20.5311 12.8748L19.7715 12.8641L19.9791 13.555L20.3156 14.0966ZM6.14063 5.05299L6.59535 4.67294L6.6491 4.14455L6.3696 3.7722L5.82528 3.8521L5.50671 4.39119L5.48654 5.09181L5.71229 5.47161L6.14063 5.05299ZM14.2397 15.5596L13.9625 16.4479L13.9878 16.4937L13.7188 17.7077L13.6543 17.808L13.8054 18.1371L14.0289 18.2344L14.3169 18.0622L14.5839 17.7416L14.966 17.0049L15.3045 15.9879L15.526 15.4976L15.7256 15.2749L15.9312 15.1462L16.0957 14.9869L16.1624 14.6691L16.0516 14.5247L15.8002 14.5608L15.698 13.837L15.1559 14.0195L14.6526 14.6713L14.2397 15.5596ZM2.92174 6.49281L3.2331 6.18269L2.98621 5.76183H2.56533L1.96178 5.95695L1.59766 6.226L1.89533 6.44975L2.37244 6.6088L2.92174 6.49281Z" fill="#678B28" fill-opacity="0.4"/>
<path d="M15.5536 17.5208L15.9285 17.8517L15.8994 17.8846L15.8651 17.9119L15.5536 17.5208ZM15.2992 17.7234L14.9363 17.3795L14.9603 17.3541L14.9877 17.3323L15.2992 17.7234ZM15.066 17.9696L14.6012 17.7852L14.6368 17.6957L14.7031 17.6257L15.066 17.9696ZM14.9142 18.3524L14.4188 18.4203L14.401 18.2902L14.4494 18.168L14.9142 18.3524ZM14.9481 18.599L14.4592 18.7041L14.4553 18.6857L14.4527 18.667L14.9481 18.599ZM15.1589 19.5794L15.6477 19.4743L15.6513 19.4909L15.6537 19.5077L15.1589 19.5794ZM15.2253 20.0383L15.7202 19.9667L15.7253 20.0023V20.0383H15.2253ZM15.2253 21.841L14.9389 22.2508L14.7253 22.1016V21.841H15.2253ZM15.6074 22.1081L15.8041 22.5677L15.5487 22.6771L15.3209 22.5179L15.6074 22.1081ZM17.6403 21.2377L18.0236 20.9167L18.4556 21.4325L17.8371 21.6974L17.6403 21.2377ZM17.3735 20.9192L16.9902 21.2402L16.5687 20.737L17.1658 20.4643L17.3735 20.9192ZM17.8842 20.6859L18.2687 21.0055L18.1958 21.0933L18.0919 21.1408L17.8842 20.6859ZM18.1744 20.3368L18.6494 20.1805L18.7359 20.4434L18.5589 20.6563L18.1744 20.3368ZM17.9589 19.6817L17.4839 19.838L17.4712 19.7994L17.4649 19.7594L17.9589 19.6817ZM17.8797 19.1787L17.3858 19.2564L17.3545 19.0572L17.4701 18.892L17.8797 19.1787ZM18.1849 18.7426L17.7752 18.456L17.8208 18.3907L17.8845 18.3429L18.1849 18.7426ZM18.9908 18.1371L19.3772 18.4543L19.3391 18.5007L19.2911 18.5368L18.9908 18.1371ZM19.2247 17.8521L19.6427 18.1266L19.628 18.1488L19.6112 18.1694L19.2247 17.8521ZM19.5351 17.3795L19.9826 17.6025L19.9693 17.6291L19.953 17.6539L19.5351 17.3795ZM19.8074 16.8331L20.2942 16.9473L20.2809 17.004L20.2549 17.0562L19.8074 16.8331ZM19.9253 16.3299L19.9339 15.83L20.5536 15.8406L20.4121 16.444L19.9253 16.3299ZM19.6197 16.3247L19.5259 15.8336L19.5766 15.8239L19.6282 15.8247L19.6197 16.3247ZM17.7257 16.6866L17.8195 17.1777L16.7767 17.3769L17.2873 16.4461L17.7257 16.6866ZM18.0129 16.1629L17.5745 15.9224L17.6149 15.8488L17.677 15.7925L18.0129 16.1629ZM18.7269 15.5155L19.1971 15.6857L19.1548 15.8025L19.0628 15.886L18.7269 15.5155ZM18.9908 14.7865V14.2865H19.7034L19.4609 14.9567L18.9908 14.7865ZM18.3598 14.7865L18.1669 14.3253L18.2595 14.2865H18.3598V14.7865ZM17.6719 15.0743L17.3768 14.6706L17.4245 14.6358L17.479 14.613L17.6719 15.0743ZM17.0295 15.5439L16.652 15.2161L16.6889 15.1735L16.7344 15.1403L17.0295 15.5439ZM16.5549 16.0905L16.1381 15.8142L16.1561 15.7871L16.1774 15.7626L16.5549 16.0905ZM15.7667 17.2794L16.1834 17.5557L16.1643 17.5844L16.1415 17.6102L15.7667 17.2794ZM45.9432 25.214L45.4724 25.3824L45.4703 25.3763L45.9432 25.214ZM45.484 23.8765L45.0111 24.0388L44.9912 23.9808L44.9859 23.9197L45.484 23.8765ZM45.3351 22.1619L45.6398 21.7654L45.8142 21.8994L45.8333 22.1186L45.3351 22.1619ZM44.3057 21.3709L44.4805 20.9024L44.5508 20.9287L44.6104 20.9744L44.3057 21.3709ZM42.7295 20.783L42.7559 20.2837L42.8324 20.2878L42.9043 20.3145L42.7295 20.783ZM41.0764 20.6957L40.8372 20.2566L40.9615 20.1889L41.1028 20.1964L41.0764 20.6957ZM39.6341 21.4814L39.1764 21.2802L39.2451 21.124L39.3949 21.0423L39.6341 21.4814ZM38.7742 23.4372L39.2319 23.6384L39.1892 23.7355L39.1107 23.8069L38.7742 23.4372ZM37.8292 24.2973L38.1657 24.6671L38.0379 24.7835L37.8654 24.796L37.8292 24.2973ZM36.6663 24.3819L36.7026 24.8806L36.002 24.9316L36.1833 24.2529L36.6663 24.3819ZM36.7644 24.0148L37.2516 24.1271L37.2497 24.1355L37.2475 24.1439L36.7644 24.0148ZM36.8513 23.638L37.0473 23.178L37.4326 23.3422L37.3385 23.7503L36.8513 23.638ZM35.4523 23.0419L35.2841 22.5711L35.4683 22.5053L35.6483 22.5819L35.4523 23.0419ZM34.1152 23.5196L33.8958 23.0703L33.9208 23.0581L33.947 23.0487L34.1152 23.5196ZM33.227 23.9534L32.9996 23.5079L33.0075 23.5041L33.227 23.9534ZM32.3775 24.3869L31.9517 24.1247L32.0253 24.0053L32.1502 23.9416L32.3775 24.3869ZM32.0487 24.9208L32.4745 25.183L32.3825 25.3324L32.2173 25.3915L32.0487 24.9208ZM31.5178 25.1109L31.282 24.6701L31.3145 24.6527L31.3492 24.6402L31.5178 25.1109ZM31.0474 25.3626L30.5475 25.3707L30.5425 25.0656L30.8116 24.9217L31.0474 25.3626ZM31.0579 26.0042L31.5578 25.9961L31.5668 26.548L31.0167 26.5025L31.0579 26.0042ZM30.5367 25.9611L30.3868 25.4841L30.4803 25.4548L30.5779 25.4628L30.5367 25.9611ZM30.0464 26.1152L29.5538 26.2009L29.4787 25.7695L29.8965 25.6382L30.0464 26.1152ZM30.1338 26.6172L30.6264 26.5315L30.6284 26.5433L30.6299 26.5551L30.1338 26.6172ZM30.2087 27.2158L30.7048 27.1537L30.7373 27.4136L30.5422 27.5883L30.2087 27.2158ZM29.4891 27.8602L29.062 27.6002L29.1005 27.537L29.1556 27.4877L29.4891 27.8602ZM28.858 28.8973L29.2851 29.1572L28.7559 30.0268L28.3912 29.0764L28.858 28.8973ZM28.6422 28.3351L28.1754 28.5142L28.1561 28.464L28.148 28.4109L28.6422 28.3351ZM28.5449 27.7009L28.1712 27.3686L28.8778 26.574L29.0391 27.625L28.5449 27.7009ZM27.6979 28.6534L28.0715 28.9856L28.0623 28.996L28.0525 29.0059L27.6979 28.6534ZM26.8096 29.5469L27.1642 29.8994L27.0277 30.0367L26.8344 30.0463L26.8096 29.5469ZM25.3598 29.6188L25.3846 30.1182L25.3332 30.1208L25.2824 30.1128L25.3598 29.6188ZM23.8319 29.3794L23.7545 29.8734L23.6731 28.9053L23.8319 29.3794ZM25.7006 28.7534L26.0362 29.124L25.9586 29.1943L25.8594 29.2275L25.7006 28.7534ZM27.1257 27.4624L27.0539 26.9676L28.6766 26.7321L27.4614 27.833L27.1257 27.4624ZM25.534 27.6934L25.4262 27.2052L25.4441 27.2012L25.4622 27.1986L25.534 27.6934ZM23.8038 28.0755L23.9116 28.5637L23.8801 28.5707L23.8479 28.5735L23.8038 28.0755ZM21.8634 28.2474L21.8192 27.7494L21.8193 27.7494L21.8634 28.2474ZM19.9253 28.4194L19.9695 28.9175L19.6929 27.9767L19.9253 28.4194ZM21.3141 27.6902L21.0817 27.2475L21.1542 27.2094L21.2352 27.1965L21.3141 27.6902ZM22.7383 27.4624H23.2383V27.8888L22.8172 27.9562L22.7383 27.4624ZM22.7383 27.2006L22.7442 26.7007L23.2383 26.7065V27.2006H22.7383ZM21.8582 27.1902L21.8523 27.6901L21.6145 27.6873L21.4666 27.5011L21.8582 27.1902ZM21.3161 26.5075L21.4249 26.0194L21.5976 26.0579L21.7077 26.1965L21.3161 26.5075ZM20.5311 26.3325L20.4224 26.8205L19.9155 26.7075L20.0476 26.2053L20.5311 26.3325ZM20.7051 25.6709L20.8603 25.1956L21.3086 25.342L21.1887 25.7981L20.7051 25.6709ZM19.2347 25.1908L19.0795 25.6661L17.8277 25.2574L19.0353 24.7323L19.2347 25.1908ZM20.2924 24.7309L20.5502 25.1593L20.522 25.1763L20.4918 25.1894L20.2924 24.7309ZM21.3161 24.1149L21.5153 23.6563L22.4056 24.0428L21.5739 24.5433L21.3161 24.1149ZM20.1227 23.5967L19.8204 23.1985L20.0534 23.0215L20.3218 23.1381L20.1227 23.5967ZM18.5644 24.7797L18.8667 25.1779L18.8632 25.1806L18.5644 24.7797ZM17.9305 25.2521L18.2293 25.653L18.2123 25.6657L18.1942 25.6768L17.9305 25.2521ZM17.31 25.6373L17.5738 26.0621L17.21 26.288L16.9309 25.9633L17.31 25.6373ZM16.9787 25.2521L16.5996 25.578L16.2787 25.2048L16.6469 24.8781L16.9787 25.2521ZM17.6614 24.6463L17.9999 25.0144L17.9933 25.0203L17.6614 24.6463ZM18.2924 24.0661L18.6334 24.4318L18.6308 24.4342L18.2924 24.0661ZM19.666 22.7853L19.325 22.4196L19.5098 22.2474L19.758 22.2939L19.666 22.7853ZM21.6113 23.1497L21.7034 22.6582L21.7631 22.6694L21.8183 22.6946L21.6113 23.1497ZM22.1377 23.3891L22.3448 22.9339L22.3531 22.9379L22.1377 23.3891ZM22.6591 23.638L22.7244 24.1337L22.5775 24.1531L22.4437 24.0893L22.6591 23.638ZM23.9474 23.4683L24.0616 23.9551L24.0374 23.9607L24.0127 23.964L23.9474 23.4683ZM25.2491 23.1629H25.7491V23.5592L25.3633 23.6497L25.2491 23.1629ZM25.2491 22.3129L25.367 21.827L25.7491 21.9198V22.3129H25.2491ZM23.8319 21.969L23.714 22.4549L22.3983 22.1355L23.6057 21.5231L23.8319 21.969ZM24.8386 21.4583L25.1099 21.8783L25.0881 21.8924L25.0649 21.9042L24.8386 21.4583ZM25.5624 20.9908L25.8046 20.5534L26.5351 20.9579L25.8337 21.4109L25.5624 20.9908ZM24.654 20.4878L24.6415 19.988L24.7773 19.9846L24.8962 20.0504L24.654 20.4878ZM23.5166 20.5162L23.529 21.016L22.7403 21.0357L23.0592 20.3141L23.5166 20.5162ZM23.8319 19.8026L23.3746 19.6005L23.4377 19.4576L23.571 19.3761L23.8319 19.8026ZM24.6129 19.325L24.9024 18.9173L25.5204 19.3562L24.8738 19.7516L24.6129 19.325ZM24.194 19.0276L23.9046 19.4353L23.746 19.3227L23.7052 19.1327L24.194 19.0276ZM23.9969 18.1107L23.5081 18.2158L23.4966 18.1625L23.4969 18.1081L23.9969 18.1107ZM24.0019 17.1612L23.6562 16.7999L24.5081 15.9847L24.5019 17.1638L24.0019 17.1612ZM22.4406 18.6553L21.9732 18.4777L22.0133 18.3721L22.0949 18.294L22.4406 18.6553ZM21.3034 21.6482L21.7708 21.8257L21.7111 21.983L21.5684 22.0722L21.3034 21.6482ZM20.8676 21.9204L21.1326 22.3445L20.7861 22.5609L20.5049 22.2646L20.8676 21.9204ZM20.5311 21.5658L20.1684 21.9099L19.8836 21.6097L20.1252 21.2738L20.5311 21.5658ZM20.78 21.2198L21.2613 21.3554L21.2374 21.4403L21.1859 21.5118L20.78 21.2198ZM20.9804 20.5087L21.4674 20.3954L21.4965 20.5206L21.4616 20.6443L20.9804 20.5087ZM20.8286 19.8566L21.2675 19.6172L21.3001 19.677L21.3155 19.7433L20.8286 19.8566ZM20.5386 19.325L20.1577 19.0012L20.6291 18.4467L20.9776 19.0856L20.5386 19.325ZM18.5699 21.6407L18.9508 21.9646L18.873 22.0561L18.7621 22.1023L18.5699 21.6407ZM16.1601 22.6442L15.9195 22.2059L15.9431 22.193L15.9679 22.1826L16.1601 22.6442ZM15.4227 23.0491L15.6633 23.4874L15.4449 23.6073L15.2177 23.5052L15.4227 23.0491ZM14.5966 22.6778L14.3916 23.1338L14.127 23.0149L14.099 22.7261L14.5966 22.6778ZM14.4911 21.5912L13.9934 21.6395L13.9928 21.6329L14.4911 21.5912ZM14.3856 20.3315L14.8374 20.1175L14.8763 20.1994L14.8838 20.2898L14.3856 20.3315ZM13.8054 19.1067L14.0625 18.6779L14.1924 18.7558L14.2573 18.8927L13.8054 19.1067ZM12.936 18.5856L12.5266 18.2986L12.7938 17.9173L13.1931 18.1567L12.936 18.5856ZM11.8188 20.1797L11.3213 20.2302L11.3026 20.0451L11.4093 19.8927L11.8188 20.1797ZM12.0729 22.6853L12.5703 22.6348L12.6603 23.5217L11.8566 23.1361L12.0729 22.6853ZM11.3031 22.3159L11.504 21.8581L11.5118 21.8615L11.5194 21.8651L11.3031 22.3159ZM10.5126 21.969L10.3117 22.4268L9.97251 22.278L10.0161 21.9102L10.5126 21.969ZM10.6898 20.4729L10.1933 20.4141L10.1972 20.381L10.2055 20.3488L10.6898 20.4729ZM11.0233 19.171L10.539 19.0469L10.5761 18.9017L10.687 18.801L11.0233 19.171ZM12.435 17.8879L12.9092 18.0465L12.8679 18.1702L12.7713 18.258L12.435 17.8879ZM13.0667 15.9986L12.8001 15.5756L13.985 14.8288L13.5409 16.1572L13.0667 15.9986ZM12.3989 16.4195L12.0802 16.0343L12.105 16.0137L12.1323 15.9965L12.3989 16.4195ZM11.7628 16.9459L12.0815 17.3311L11.3033 16.7487L11.7628 16.9459ZM12.3579 15.5596L11.8984 15.3624L11.9495 15.2435L12.0518 15.1642L12.3579 15.5596ZM13.508 14.6691L13.9322 14.9338L13.8848 15.0096L13.8141 15.0644L13.508 14.6691ZM14.2624 13.4602L14.7623 13.4653L14.7609 13.6058L14.6865 13.7249L14.2624 13.4602ZM14.2758 12.153L13.8855 11.8405L14.7907 10.7101L14.7758 12.1582L14.2758 12.153ZM13.6387 12.9487L14.0289 13.2613L13.636 13.7519L13.2463 13.2587L13.6387 12.9487ZM13.01 12.153L12.6176 12.463L12.2505 11.9984L12.7701 11.7143L13.01 12.153ZM14.0289 11.596L14.3506 11.9788L14.3125 12.0109L14.2687 12.0348L14.0289 11.596ZM14.8351 10.9186L15.2679 10.6682L15.478 11.0314L15.1567 11.3013L14.8351 10.9186ZM14.5068 10.3511L14.5674 9.85477L14.8148 9.88497L14.9396 10.1007L14.5068 10.3511ZM13.9625 10.2846L13.6739 9.87627L13.8315 9.76494L14.023 9.78832L13.9625 10.2846ZM12.2113 11.5219L11.7696 11.2874L11.8255 11.1822L11.9228 11.1135L12.2113 11.5219ZM10.9823 13.837L11.4239 14.0715L10.887 15.0828L10.5101 14.0016L10.9823 13.837ZM10.6898 12.998L10.4783 12.5449L10.9798 12.3109L11.162 12.8335L10.6898 12.998ZM9.91452 13.3599L9.42831 13.4765L9.33309 13.0795L9.70304 12.9068L9.91452 13.3599ZM10.1995 14.5481L10.6857 14.4315L10.9417 15.4986L9.96847 14.9915L10.1995 14.5481ZM9.61387 14.243L9.46776 13.7648L9.66345 13.705L9.84491 13.7995L9.61387 14.243ZM9.08523 14.4045L8.70907 14.0751L8.8029 13.9679L8.93912 13.9263L9.08523 14.4045ZM8.75918 14.7768L9.13535 15.1062L9.12624 15.1166L9.11657 15.1265L8.75918 14.7768ZM8.42044 15.123L8.77783 15.4727L7.97565 14.8946L8.42044 15.123ZM10.1246 11.8041L9.6798 11.5757L9.72751 11.4828L9.80844 11.4167L10.1246 11.8041ZM13.1819 9.30874L13.4064 8.86193L14.0958 9.20823L13.4981 9.6961L13.1819 9.30874ZM12.2429 8.83709L12.0185 9.2839L11.6712 9.10949L11.7545 8.72991L12.2429 8.83709ZM12.3989 8.12602L12.8147 7.84825L12.9329 8.02526L12.8873 8.2332L12.3989 8.12602ZM11.9064 7.38881L11.4906 7.66658L11.2929 7.37064L11.5078 7.08692L11.9064 7.38881ZM12.2429 6.94455L12.2914 6.4469L13.1813 6.53365L12.6415 7.24644L12.2429 6.94455ZM10.8767 6.81139L10.6772 6.35295L10.7961 6.30116L10.9252 6.31375L10.8767 6.81139ZM9.53149 7.39702L9.07574 7.19137L9.15507 7.01557L9.33191 6.93858L9.53149 7.39702ZM9.10539 8.34131L9.56126 8.54702L9.55618 8.55762L9.10539 8.34131ZM8.70244 9.18106L8.29069 9.46472L8.12627 9.22605L8.25165 8.96475L8.70244 9.18106ZM9.02376 9.64748L9.43551 9.36382L9.5355 9.50896L9.52237 9.68472L9.02376 9.64748ZM8.94685 10.6771L9.44546 10.7144L9.42946 10.9286L9.2631 11.0644L8.94685 10.6771ZM8.29949 11.2058L7.8062 11.1241L7.83703 10.9379L7.98323 10.8185L8.29949 11.2058ZM8.18425 11.9019L7.68461 11.8829L7.68581 11.8514L7.69096 11.8203L8.18425 11.9019ZM8.15588 12.6488L8.65552 12.6678L8.63654 13.1675L8.13681 13.1485L8.15588 12.6488ZM7.21682 12.613L6.958 12.1852L7.08618 12.1076L7.23589 12.1134L7.21682 12.613ZM6.29244 13.1722L6.55126 13.6L6.5412 13.6061L6.53086 13.6117L6.29244 13.1722ZM5.75335 13.4647L5.26621 13.5773L5.18048 13.2066L5.51494 13.0252L5.75335 13.4647ZM5.89995 14.0986L5.48307 14.3747L5.43317 14.2993L5.41281 14.2113L5.89995 14.0986ZM6.46443 14.9511L6.04803 15.2278L6.04754 15.2271L6.46443 14.9511ZM7.09561 15.9006L7.51201 15.6238L7.51376 15.6264L7.09561 15.9006ZM7.74222 16.8869L8.16038 16.6128L8.17246 16.6312L8.18287 16.6506L7.74222 16.8869ZM8.30222 17.9312L8.74287 17.695L9.32601 18.7825L8.15034 18.4076L8.30222 17.9312ZM7.32957 17.6211L7.33931 17.1212L7.41209 17.1226L7.48145 17.1448L7.32957 17.6211ZM6.24391 17.6L5.74391 17.5985L5.74539 17.0902L6.25365 17.1001L6.24391 17.6ZM6.23869 19.3947L5.75396 19.5174L5.7385 19.4563L5.73869 19.3933L6.23869 19.3947ZM6.56996 20.7039L7.05468 20.5812L7.35894 21.7836L6.30582 21.1284L6.56996 20.7039ZM5.8223 20.2387L5.69468 19.7553L5.90326 19.7002L6.08643 19.8142L5.8223 20.2387ZM4.92654 20.4751L4.43222 20.4L4.48154 20.0755L4.79893 19.9917L4.92654 20.4751ZM4.77248 21.4889L4.62866 21.9677L4.21294 21.8429L4.27816 21.4137L4.77248 21.4889ZM5.49924 21.7071L5.64306 21.2283L6.08115 21.3598L5.98898 21.8079L5.49924 21.7071ZM5.39894 22.1947L4.90902 22.0948L4.90919 22.094L5.39894 22.1947ZM5.29888 22.6853L5.30771 23.1852L4.68438 23.1962L4.80897 22.5854L5.29888 22.6853ZM6.18716 22.6696L6.17834 22.1697L6.18715 22.1695L6.19597 22.1697L6.18716 22.6696ZM7.07769 22.6853L7.08649 22.1854L7.2727 23.1457L7.07769 22.6853ZM6.49007 22.9342L6.15527 22.5628L6.21768 22.5065L6.29506 22.4738L6.49007 22.9342ZM5.97188 23.4013L5.74553 23.8472L5.09626 23.5175L5.63708 23.03L5.97188 23.4013ZM7.18621 24.0178L7.22646 24.5162L7.08575 24.5276L6.95986 24.4637L7.18621 24.0178ZM8.9364 23.8765L8.89614 23.3781L9.19438 24.3048L8.9364 23.8765ZM7.26535 24.883L6.91235 24.5289L6.95535 24.486L7.00737 24.4547L7.26535 24.883ZM6.14063 26.0042L6.49363 26.3583L6.13148 26.7193L5.77869 26.3492L6.14063 26.0042ZM5.6197 25.4576L5.25776 25.8026L5.23157 25.7751L5.20982 25.744L5.6197 25.4576ZM5.26603 24.9514L4.78763 24.806L5.08675 23.8218L5.6759 24.6651L5.26603 24.9514ZM5.12466 25.4166L4.65654 25.5923L4.59695 25.4335L4.64626 25.2712L5.12466 25.4166ZM5.34518 26.0042L5.8133 25.8285L5.81997 25.8463L5.82527 25.8645L5.34518 26.0042ZM5.77675 27.4876L5.48559 27.8941L5.34497 27.7933L5.29665 27.6273L5.77675 27.4876ZM7.07769 28.4194L7.36884 28.0129L8.33168 28.7026L7.16591 28.9116L7.07769 28.4194ZM6.67225 28.4921L6.47698 28.0318L6.52871 28.0099L6.58402 27.9999L6.67225 28.4921ZM6.27976 28.6586L5.85692 28.9255L5.54299 28.428L6.08449 28.1983L6.27976 28.6586ZM6.76733 29.4312L6.86207 29.9221L6.52675 29.9868L6.34449 29.698L6.76733 29.4312ZM8.04288 29.185L8.22483 29.6507L8.18237 29.6673L8.13762 29.6759L8.04288 29.185ZM8.77935 28.8973L8.5974 28.4316L9.38338 28.1245L9.27522 28.9614L8.77935 28.8973ZM8.70244 29.4924L8.20641 29.5553L8.19836 29.4918L8.20656 29.4283L8.70244 29.4924ZM8.77935 30.0989L9.27537 30.036L9.33784 30.5287L8.84563 30.5945L8.77935 30.0989ZM7.24968 30.3035L6.87438 29.9731L6.99798 29.8327L7.18339 29.8079L7.24968 30.3035ZM6.09458 31.6157L6.14071 32.1135L4.88798 32.2296L5.71928 31.2853L6.09458 31.6157ZM7.01323 31.5305L6.9671 31.0327L7.06655 31.0235L7.16191 31.0532L7.01323 31.5305ZM7.52469 31.6898L7.67337 31.2124L7.97672 31.3069L8.02003 31.6217L7.52469 31.6898ZM7.66532 32.712L7.21876 32.9369L7.18133 32.8626L7.16998 32.7802L7.66532 32.712ZM8.26887 33.9104L8.71544 33.6855L8.85584 33.9643L8.66703 34.2129L8.26887 33.9104ZM7.43435 35.009L7.8325 35.3115L7.7947 35.3612L7.74582 35.4001L7.43435 35.009ZM6.45422 35.7895L6.01831 36.0344L5.80989 35.6635L6.14275 35.3984L6.45422 35.7895ZM6.92139 36.6211L7.3573 36.3762L7.48182 36.5978L7.37611 36.829L6.92139 36.6211ZM6.48484 37.5758L6.93956 37.7837L6.93224 37.7997L6.9238 37.8152L6.48484 37.5758ZM5.91513 38.6204L5.46534 38.402L5.47051 38.3914L5.47617 38.381L5.91513 38.6204ZM5.44025 39.5985L4.9404 39.586L4.94311 39.4777L4.99046 39.3801L5.44025 39.5985ZM5.40665 40.9435L5.9065 40.956L5.90453 41.0345L5.87858 41.1087L5.40665 40.9435ZM5.15229 41.6703L4.65243 41.6583L4.65431 41.5795L4.68036 41.5051L5.15229 41.6703ZM5.13213 42.5143L4.68317 42.7343L4.62935 42.6246L4.63227 42.5023L5.13213 42.5143ZM5.73768 43.7495L5.60463 44.2315L5.38776 44.1716L5.28872 43.9696L5.73768 43.7495ZM6.66727 44.0061L6.67888 44.506L6.60524 44.5077L6.53423 44.4881L6.66727 44.0061ZM7.7604 43.9807L7.77893 44.4804L7.77201 44.4806L7.7604 43.9807ZM8.87442 43.9394L8.93623 44.4356L8.91467 44.4382L8.89295 44.439L8.87442 43.9394ZM9.30599 43.8856L9.24418 43.3894L9.24924 43.3889L9.30599 43.8856ZM9.66763 43.8443L9.61088 43.3475L9.83716 43.3217L10.0052 43.4755L9.66763 43.8443ZM9.8523 44.0133L9.60066 44.4454L9.55432 44.4184L9.51476 44.3822L9.8523 44.0133ZM10.1044 44.1602L10.2962 44.6219L10.0671 44.7171L9.85279 44.5922L10.1044 44.1602ZM11.1002 43.7465L11.3905 44.1536L11.3444 44.1865L11.292 44.2082L11.1002 43.7465ZM12.0395 43.0767L12.4834 43.307L12.4279 43.4139L12.3298 43.4838L12.0395 43.0767ZM12.8947 41.4286L13.37 41.2734L13.4351 41.4728L13.3385 41.6589L12.8947 41.4286ZM12.1732 39.2182L11.6979 39.3734L11.6569 39.2479L11.6832 39.1185L12.1732 39.2182ZM12.4709 37.756L11.9809 37.6563L12.2214 36.4751L12.8876 37.4797L12.4709 37.756ZM12.9403 38.4638L13.357 38.1875L13.421 38.284L13.436 38.3988L12.9403 38.4638ZM13.1384 39.9733L12.8046 40.3456L12.6667 40.222L12.6426 40.0384L13.1384 39.9733ZM13.9625 40.7123L14.4608 40.7536L14.3777 41.7563L13.6287 41.0846L13.9625 40.7123ZM14.0364 39.8195L13.5381 39.7783L13.5537 39.5901L13.6897 39.4592L14.0364 39.8195ZM14.5862 39.2906L15.0361 39.0725L15.1945 39.3992L14.9328 39.651L14.5862 39.2906ZM14.3423 38.7876L13.8924 39.0058L13.8714 38.9625L13.859 38.9161L14.3423 38.7876ZM14.0829 37.812L14.5638 37.6748L14.5661 37.6835L14.0829 37.812ZM13.8054 36.8393L13.3246 36.9765L14.2269 36.5704L13.8054 36.8393ZM14.7273 38.2844L14.4784 38.7181L14.3719 38.6569L14.3058 38.5533L14.7273 38.2844ZM15.8234 38.9133L16.2986 38.7577L16.7037 39.9949L15.5746 39.347L15.8234 38.9133ZM15.5081 37.9504L15.9494 37.7154L15.9697 37.7536L15.9832 37.7948L15.5081 37.9504ZM15.0556 37.1007L14.6142 37.3357L14.3722 36.8812L14.8337 36.6526L15.0556 37.1007ZM15.2149 37.0218L14.9929 36.5737L14.9969 36.5718L15.2149 37.0218ZM15.3742 36.9446L15.8572 36.8157L15.9637 37.2146L15.5921 37.3946L15.3742 36.9446ZM15.1768 36.2052L14.6937 36.3341L14.5894 35.9435L14.9496 35.7598L15.1768 36.2052ZM15.7204 35.9279L15.4932 35.4825L15.9121 35.2688L16.151 35.6739L15.7204 35.9279ZM16.4185 37.1114L16.8491 36.8573L16.8722 36.8964L16.8879 36.9391L16.4185 37.1114ZM16.9451 38.5462L16.9374 39.0462L16.5941 39.0408L16.4758 38.7185L16.9451 38.5462ZM17.9716 38.5621L17.9793 38.0622L17.9994 38.0625L18.0193 38.0644L17.9716 38.5621ZM19.0602 38.6667L19.108 38.169L19.3134 38.1887L19.4451 38.3475L19.0602 38.6667ZM20.0996 39.9198L19.7637 40.2902L19.7374 40.2664L19.7147 40.239L20.0996 39.9198ZM21.2599 40.9719L21.1457 41.4587L21.0198 41.4291L20.924 41.3423L21.2599 40.9719ZM22.6611 41.3007L22.6192 41.7989L22.5826 41.7958L22.5469 41.7875L22.6611 41.3007ZM24.0654 41.4189L24.1073 40.9207L24.2163 40.9298L24.3116 40.9837L24.0654 41.4189ZM24.8586 41.8676L24.695 42.3401L24.652 42.3253L24.6124 42.3028L24.8586 41.8676ZM25.7058 42.1608L26.0381 42.5344L25.8192 42.7292L25.5423 42.6333L25.7058 42.1608ZM26.8146 41.1745L27.3144 41.1883L27.3084 41.4044L27.1469 41.5481L26.8146 41.1745ZM26.8686 39.2182L27.2698 38.9198L27.3732 39.0588L27.3684 39.232L26.8686 39.2182ZM25.8934 37.9071L25.4922 38.2055L25.4738 38.1807L25.4586 38.1539L25.8934 37.9071ZM25.0948 36.5004L24.66 36.7472L24.0034 35.5909L25.2592 36.0282L25.0948 36.5004ZM25.9138 36.7856L26.0783 36.3134L26.196 36.3544L26.2807 36.4458L25.9138 36.7856ZM26.6555 37.5863L27.1548 37.6135L27.0905 38.7915L26.2887 37.926L26.6555 37.5863ZM26.6944 36.8752L27.1032 36.5874L27.2031 36.7292L27.1936 36.9024L26.6944 36.8752ZM26.3454 36.3794L25.9365 36.6672L25.429 35.9461L26.3084 35.8808L26.3454 36.3794ZM27.4107 36.3002L27.3736 35.8016L27.5732 35.7868L27.7279 35.9138L27.4107 36.3002ZM28.3296 37.0546L28.6468 36.6682L28.814 36.8054L28.8285 37.0213L28.3296 37.0546ZM28.4266 38.5074L27.9282 38.5471L27.9277 38.5407L28.4266 38.5074ZM28.5449 39.9915L28.1102 40.2387L28.0553 40.142L28.0464 40.0312L28.5449 39.9915ZM29.2918 41.3052L28.8609 41.5589L28.8571 41.5523L29.2918 41.3052ZM30.0902 42.6608L29.876 43.1126L29.7373 43.0469L29.6594 42.9146L30.0902 42.6608ZM31.7637 43.4543L31.7885 43.9537L31.663 43.9599L31.5495 43.9061L31.7637 43.4543ZM33.6839 43.3592L33.6592 42.8598L33.7787 42.8539L33.888 42.9028L33.6839 43.3592ZM34.9468 43.924L34.9671 44.4235L34.8498 44.4283L34.7427 44.3804L34.9468 43.924ZM36.2094 43.8727L36.5722 44.2167L36.4326 44.364L36.2297 44.3723L36.2094 43.8727ZM36.908 43.1357L36.5452 42.7917L36.6347 42.6973L36.7589 42.6585L36.908 43.1357ZM37.7961 42.8582L37.6469 42.381L37.7241 42.3569L37.8049 42.3583L37.7961 42.8582ZM38.982 42.8791L39.4001 43.1534L39.2488 43.3839L38.9732 43.379L38.982 42.8791ZM39.708 41.7726L40.0125 41.3759L40.3808 41.6586L40.1261 42.0468L39.708 41.7726ZM38.6149 40.9336L38.7597 40.455L38.847 40.4814L38.9193 40.5369L38.6149 40.9336ZM37.1644 40.4948L37.0196 40.9734L37.1386 39.9954L37.1644 40.4948ZM39.2615 40.3865L39.601 40.7536L39.4681 40.8765L39.2873 40.8858L39.2615 40.3865ZM40.8019 38.9621L41.2638 38.7707L41.3972 39.0926L41.1413 39.3292L40.8019 38.9621ZM40.1575 37.4068L40.2027 36.9088L40.5037 36.9361L40.6194 37.2154L40.1575 37.4068ZM38.4252 37.2498L38.3801 37.7477L38.2912 37.7397L38.2106 37.7013L38.4252 37.2498ZM37.5086 36.814L37.6461 36.3332L37.6859 36.3446L37.7233 36.3624L37.5086 36.814ZM36.5566 36.5417L36.48 36.0476L36.5885 36.0308L36.6941 36.0609L36.5566 36.5417ZM35.514 36.7032L35.348 36.2315L35.3917 36.2162L35.4374 36.2091L35.514 36.7032ZM34.5152 37.0546L34.0248 37.152L33.9404 36.7268L34.3492 36.583L34.5152 37.0546ZM34.8878 38.9312L34.5422 39.2926L34.4281 39.1835L34.3974 39.0286L34.8878 38.9312ZM36.5227 40.4948L36.8683 40.1334L36.3174 40.9507L36.5227 40.4948ZM34.6979 39.6729L34.4925 40.1289L34.487 40.1263L34.6979 39.6729ZM32.883 38.829L32.9765 38.3378L33.0375 38.3494L33.0938 38.3756L32.883 38.829ZM30.9399 38.4589L30.8464 38.95L30.7705 38.9356L30.7025 38.8989L30.9399 38.4589ZM29.1357 37.4857L28.8983 37.9258L28.7054 37.8217L28.6512 37.6093L29.1357 37.4857ZM28.9458 36.7413L28.4613 36.8649L28.4523 36.8295L28.4485 36.7932L28.9458 36.7413ZM28.858 35.8993L29.2143 35.5485L29.3371 35.6733L29.3553 35.8474L28.858 35.8993ZM28.5575 35.5941L28.8643 35.1993L28.8905 35.2197L28.9138 35.2434L28.5575 35.5941ZM28.224 35.3351L27.9173 35.7299L27.8013 35.6398L27.7525 35.5014L28.224 35.3351ZM28.0394 34.8114L28.3991 34.4641L28.4747 34.5424L28.5109 34.6451L28.0394 34.8114ZM27.5383 34.2925L27.8345 33.8896L27.8686 33.9147L27.8981 33.9452L27.5383 34.2925ZM26.8611 33.7947L26.565 34.1976L26.4883 34.1412L26.4377 34.0606L26.8611 33.7947ZM26.3454 32.9736L25.922 33.2395L25.0453 31.8437L26.5497 32.5172L26.3454 32.9736ZM27.8136 33.6309L28.0179 33.1746L28.0745 33.1999L28.1231 33.2382L27.8136 33.6309ZM29.1683 34.6986L29.6382 34.5276L30.2395 36.1796L28.8588 35.0913L29.1683 34.6986ZM28.7582 33.5719L28.2883 33.743L28.2665 33.6829L28.2604 33.6193L28.7582 33.5719ZM28.7012 32.9736L28.2034 33.021L28.1806 32.7816L28.3534 32.6143L28.7012 32.9736ZM29.1683 32.5214L28.8206 32.1621L29.0407 31.949L29.3305 32.0484L29.1683 32.5214ZM29.7517 32.7215L29.9139 32.2485L30.0604 32.2988L30.1529 32.423L29.7517 32.7215ZM30.3953 33.5866L30.0233 33.9206L30.0079 33.9035L29.9942 33.8851L30.3953 33.5866ZM31.0708 34.339L31.214 34.8181L30.9104 34.9088L30.6988 34.673L31.0708 34.339ZM31.594 34.1827L31.7816 34.6462L31.7597 34.655L31.7371 34.6618L31.594 34.1827ZM32.1518 33.957L32.5119 33.6101L33.0251 34.1429L32.3393 34.4204L32.1518 33.957ZM31.6171 33.4019L31.257 33.7488L31.2483 33.7397L31.2399 33.7302L31.6171 33.4019ZM31.1149 32.8248L30.7377 33.153L30.3327 32.6876L30.8719 32.3878L31.1149 32.8248ZM31.3969 32.668L31.1539 32.2309L31.1588 32.2283L31.3969 32.668ZM31.6814 32.5139L31.9791 32.1122L32.6097 32.5797L31.9195 32.9536L31.6814 32.5139ZM30.5315 31.6615L30.7559 31.2146L30.7945 31.234L30.8293 31.2598L30.5315 31.6615ZM29.3254 31.0557L29.101 31.5025L27.7528 30.8253L29.2385 30.5633L29.3254 31.0557ZM30.9989 30.7605L30.912 30.2681L31.0157 30.2498L31.118 30.2749L30.9989 30.7605ZM32.7058 31.1791L32.5971 31.6673L32.5867 31.6647L32.7058 31.1791ZM33.7683 31.4156L33.7951 31.9148L33.7266 31.9185L33.6597 31.9036L33.7683 31.4156ZM34.8285 31.3586L35.0272 31.8174L34.9449 31.853L34.8554 31.8578L34.8285 31.3586ZM35.7116 30.9763L35.513 30.5174L35.5286 30.5106L35.5447 30.5049L35.7116 30.9763ZM36.5894 30.6654L36.4225 30.1941L36.5797 30.1384L36.7388 30.1882L36.5894 30.6654ZM38.9611 31.4078L39.1105 30.9307L39.3454 31.0042L39.4304 31.2352L38.9611 31.4078ZM39.9853 34.1924L40.0613 34.6866L39.6572 34.7488L39.516 34.365L39.9853 34.1924ZM41.9856 33.8845L41.9095 33.3903L41.9842 33.3789L42.0589 33.3899L41.9856 33.8845ZM44.0621 34.1924L44.3595 33.7905L43.9888 34.687L44.0621 34.1924ZM42.3983 32.9609L42.6133 32.5095L42.6569 32.5303L42.6957 32.559L42.3983 32.9609ZM40.5169 32.0644L40.3018 32.5158L39.5455 32.1554L40.2218 31.6608L40.5169 32.0644ZM40.9689 31.7339L41.4615 31.8194L41.427 32.0183L41.264 32.1375L40.9689 31.7339ZM41.0742 31.1273L40.5815 31.0418L40.6111 30.8712L40.7399 30.7555L41.0742 31.1273ZM41.6105 30.6452L41.2763 30.2734L41.5295 30.0458L41.834 30.198L41.6105 30.6452ZM42.3497 31.0146L42.2654 31.5074L42.1925 31.495L42.1262 31.4619L42.3497 31.0146ZM44.0028 31.2973L44.3946 31.6081L44.2105 31.8401L43.9185 31.7902L44.0028 31.2973ZM45.3712 29.5723L45.8154 29.8018L45.7931 29.845L45.763 29.883L45.3712 29.5723ZM46.1099 28.1429L46.6026 28.2284L46.5894 28.3041L46.5541 28.3725L46.1099 28.1429ZM46.3977 26.4843L46.8684 26.3159L46.9128 26.4399L46.8903 26.5698L46.3977 26.4843ZM31.5718 36.2303L31.6558 35.7374L31.8288 35.7669L31.9455 35.8981L31.5718 36.2303ZM30.6393 36.0715L30.4923 35.5936L30.606 35.5586L30.7232 35.5786L30.6393 36.0715ZM29.638 36.3794H29.138V36.01L29.491 35.9015L29.638 36.3794ZM29.638 36.6211L29.3235 37.0098L29.138 36.8597V36.6211H29.638ZM29.9078 36.8393L29.8087 37.3294L29.6886 37.3051L29.5933 37.228L29.9078 36.8393ZM30.5419 36.9675L30.641 36.4774L30.6797 36.4852L30.7167 36.4991L30.5419 36.9675ZM30.8988 37.1007L31.0736 36.6322L31.1437 36.6584L31.2031 36.7039L30.8988 37.1007ZM31.2373 37.3603L31.5416 36.9635L31.5706 36.9858L31.5961 37.012L31.2373 37.3603ZM31.4842 37.6146L31.2148 38.0358L31.1659 38.0046L31.1255 37.9629L31.4842 37.6146ZM31.7563 37.7886L31.7133 38.2868L31.5906 38.2762L31.4869 38.2098L31.7563 37.7886ZM32.1518 37.8227L32.1947 37.3245L32.3843 37.3409L32.515 37.4791L32.1518 37.8227ZM33.2342 38.9671L33.1401 39.4582L32.9817 39.4278L32.8709 39.3107L33.2342 38.9671ZM33.5552 39.0286L34.0065 39.2439L33.8403 39.5922L33.4612 39.5196L33.5552 39.0286ZM33.7586 38.6025L34.1902 38.3501L34.3239 38.5788L34.2098 38.8178L33.7586 38.6025ZM33.4962 38.1537L33.8061 37.7613L33.8802 37.8198L33.9279 37.9014L33.4962 38.1537ZM32.7775 37.5863L32.4676 37.9787L32.4331 37.9514L32.4038 37.9185L32.7775 37.5863ZM5.62493 31.3048L6.08449 31.5018L6.03509 31.617L5.93715 31.6953L5.62493 31.3048ZM5.82528 30.8374L6.32021 30.9085L6.31083 30.9737L6.28484 31.0344L5.82528 30.8374ZM5.90741 30.2654L6.21103 29.8682L6.44402 30.0462L6.40234 30.3365L5.90741 30.2654ZM5.74588 30.142L5.6046 29.6624L5.84795 29.5907L6.0495 29.7447L5.74588 30.142ZM5.01415 30.3575L5.15543 30.8371L5.05832 30.8658L4.95772 30.8543L5.01415 30.3575ZM4.61096 30.3117L4.55453 30.8085L4.47349 30.7993L4.39957 30.7648L4.61096 30.3117ZM3.85657 29.9598L3.9814 29.4756L4.02611 29.4872L4.06796 29.5067L3.85657 29.9598ZM3.45885 29.8573L3.40651 29.36L3.49627 29.3506L3.58368 29.3731L3.45885 29.8573ZM3.04743 29.9006L2.73709 29.5085L2.85083 29.4185L2.99509 29.4033L3.04743 29.9006ZM2.80377 30.0935L2.3731 29.8394L2.42041 29.7592L2.49343 29.7014L2.80377 30.0935ZM2.36498 30.8374L2.10112 31.2621L1.68608 31.0042L1.93431 30.5834L2.36498 30.8374ZM2.86574 31.1485L2.73555 31.6312L2.66444 31.6121L2.60188 31.5732L2.86574 31.1485ZM3.40932 31.2951V31.7951H3.34308L3.27913 31.7778L3.40932 31.2951ZM4.56466 31.2951V30.7951H4.70408L4.82338 30.8672L4.56466 31.2951ZM4.96761 31.5388L4.96451 32.0387L4.82676 32.0379L4.70888 31.9666L4.96761 31.5388ZM5.32949 31.541L5.64172 31.9315L5.50344 32.0421L5.3264 32.041L5.32949 31.541ZM22.7383 25.5527L22.3421 25.8577L21.9871 25.3966L22.4964 25.1151L22.7383 25.5527ZM23.0106 25.9064L22.8481 26.3793L22.706 26.3304L22.6144 26.2114L23.0106 25.9064ZM23.3321 26.0169L23.4205 26.509L23.2926 26.532L23.1696 26.4898L23.3321 26.0169ZM23.6731 25.9557L23.8966 26.403L23.8322 26.4351L23.7615 26.4478L23.6731 25.9557ZM24.0019 25.7914L23.7784 25.3441L23.9745 25.2462L24.1794 25.324L24.0019 25.7914ZM24.7921 26.0916L25.202 26.3779L24.9789 26.6974L24.6146 26.559L24.7921 26.0916ZM25.1973 25.5114L25.6632 25.693L25.6414 25.7487L25.6072 25.7977L25.1973 25.5114ZM25.5084 24.7132L25.0425 24.5316L25.0982 24.3888L25.2244 24.3017L25.5084 24.7132ZM26.0296 24.3536H26.5296V24.616L26.3136 24.7651L26.0296 24.3536ZM26.0296 24.1149L25.9819 23.6172L26.5296 23.5647V24.1149H26.0296ZM25.1953 24.1948L24.9535 23.7572L25.0443 23.707L25.1476 23.6971L25.1953 24.1948ZM20.3156 14.0966L19.9655 14.4536L19.9226 14.4115L19.8909 14.3605L20.3156 14.0966ZM20.7315 14.5045L20.4634 14.9266L20.419 14.8984L20.3814 14.8615L20.7315 14.5045ZM21.1755 14.7865L21.2372 15.2827L21.059 15.3049L20.9075 15.2086L21.1755 14.7865ZM21.5837 14.7358L21.7827 15.1944L21.7168 15.2231L21.6454 15.2319L21.5837 14.7358ZM21.9456 14.5787L22.3009 14.9304L22.2331 14.999L22.1446 15.0374L21.9456 14.5787ZM22.2328 14.2885L22.6982 14.4712L22.6606 14.567L22.5882 14.6402L22.2328 14.2885ZM22.41 13.837L22.4399 13.3379L23.1269 13.379L22.8754 14.0197L22.41 13.837ZM21.6325 13.7905L21.6026 14.2896L21.4389 14.2798L21.3128 14.175L21.6325 13.7905ZM20.5311 12.8748L20.5382 12.3749L20.7149 12.3774L20.8508 12.4903L20.5311 12.8748ZM19.7715 12.8641L19.2927 13.008L19.0963 12.3545L19.7786 12.3642L19.7715 12.8641ZM19.9791 13.555L19.5544 13.8189L19.5193 13.7625L19.5002 13.6989L19.9791 13.555ZM6.14063 5.05299L5.79115 4.69541L5.80506 4.68182L5.81998 4.66935L6.14063 5.05299ZM6.59535 4.67294L7.09278 4.72355L7.07218 4.92605L6.916 5.05658L6.59535 4.67294ZM6.6491 4.14455L7.04898 3.84438L7.16632 4.0007L7.14654 4.19515L6.6491 4.14455ZM6.3696 3.7722L6.29699 3.2775L6.59105 3.23434L6.76948 3.47203L6.3696 3.7722ZM5.82528 3.8521L5.39483 3.59772L5.51635 3.39209L5.75267 3.3574L5.82528 3.8521ZM5.50671 4.39119L5.00691 4.37681L5.01062 4.24787L5.07625 4.13681L5.50671 4.39119ZM5.48654 5.09181L5.05673 5.34728L4.98258 5.22251L4.98675 5.07743L5.48654 5.09181ZM5.71229 5.47161L6.06177 5.8292L5.60722 6.27345L5.28248 5.72708L5.71229 5.47161ZM14.2397 15.5596L13.7624 15.4106L13.7723 15.3789L13.7863 15.3488L14.2397 15.5596ZM13.9625 16.4479L13.5252 16.6903L13.4214 16.5031L13.4852 16.2989L13.9625 16.4479ZM13.9878 16.4937L14.4251 16.2513L14.517 16.4169L14.476 16.6018L13.9878 16.4937ZM13.7188 17.7077L14.207 17.8159L14.1876 17.903L14.1394 17.9781L13.7188 17.7077ZM13.6543 17.808L13.1999 18.0167L13.0857 17.768L13.2337 17.5377L13.6543 17.808ZM13.8054 18.1371L13.6058 18.5955L13.4307 18.5193L13.351 18.3457L13.8054 18.1371ZM14.0289 18.2344L14.2856 18.6635L14.065 18.7954L13.8293 18.6928L14.0289 18.2344ZM14.3169 18.0622L14.701 18.3822L14.6466 18.4476L14.5735 18.4913L14.3169 18.0622ZM14.5839 17.7416L15.0278 17.9718L15.0028 18.0199L14.9681 18.0616L14.5839 17.7416ZM14.966 17.0049L15.4404 17.1628L15.428 17.2001L15.4098 17.2351L14.966 17.0049ZM15.3045 15.9879L14.8301 15.83L14.8382 15.8056L14.8488 15.7821L15.3045 15.9879ZM15.526 15.4976L15.0703 15.2918L15.1021 15.2214L15.1536 15.1639L15.526 15.4976ZM15.7256 15.2749L15.3532 14.9412L15.4004 14.8885L15.4603 14.851L15.7256 15.2749ZM15.9312 15.1462L16.279 15.5054L16.2411 15.542L16.1964 15.57L15.9312 15.1462ZM16.0957 14.9869L16.585 15.0896L16.5536 15.2395L16.4435 15.3461L16.0957 14.9869ZM16.1624 14.6691L16.5591 14.3647L16.6989 14.5469L16.6517 14.7718L16.1624 14.6691ZM16.0516 14.5247L15.9806 14.0298L16.2702 13.9882L16.4483 14.2203L16.0516 14.5247ZM15.8002 14.5608L15.8713 15.0557L15.3753 15.1269L15.3052 14.6308L15.8002 14.5608ZM15.698 13.837L15.5385 13.3631L16.1088 13.1712L16.193 13.7671L15.698 13.837ZM15.1559 14.0195L14.7601 13.7139L14.8527 13.5939L14.9964 13.5456L15.1559 14.0195ZM14.6526 14.6713L14.1992 14.4605L14.2227 14.4099L14.2569 14.3657L14.6526 14.6713ZM3.2331 6.18269L3.66437 5.9297L3.86031 6.26369L3.58595 6.53696L3.2331 6.18269ZM2.98621 5.76183V5.26183H3.27258L3.41748 5.50883L2.98621 5.76183ZM2.56533 5.76183L2.41153 5.28607L2.48652 5.26183H2.56533V5.76183ZM1.96178 5.95695L1.66464 5.55482L1.7303 5.50631L1.80797 5.48119L1.96178 5.95695ZM1.59766 6.226L1.29723 6.62568L0.76094 6.22256L1.30052 5.82387L1.59766 6.226ZM1.89533 6.44975L1.73721 6.92409L1.65998 6.89835L1.5949 6.84943L1.89533 6.44975ZM2.37244 6.6088L2.47574 7.09801L2.34302 7.12603L2.21433 7.08313L2.37244 6.6088ZM15.8651 17.9119L15.6107 18.1145L14.9877 17.3323L15.2421 17.1297L15.8651 17.9119ZM15.6622 18.0673L15.429 18.3135L14.7031 17.6257L14.9363 17.3795L15.6622 18.0673ZM15.5308 18.1539L15.379 18.5367L14.4494 18.168L14.6012 17.7852L15.5308 18.1539ZM15.4096 18.2844L15.4434 18.531L14.4527 18.667L14.4188 18.4203L15.4096 18.2844ZM15.4369 18.4939L15.6477 19.4743L14.67 19.6845L14.4592 18.7041L15.4369 18.4939ZM15.6537 19.5077L15.7202 19.9667L14.7305 20.11L14.664 19.651L15.6537 19.5077ZM15.7253 20.0383V21.841H14.7253V20.0383H15.7253ZM15.5118 21.4312L15.8938 21.6983L15.3209 22.5179L14.9389 22.2508L15.5118 21.4312ZM15.4106 21.6485L17.4435 20.7781L17.8371 21.6974L15.8041 22.5677L15.4106 21.6485ZM17.257 21.5588L16.9902 21.2402L17.7568 20.5981L18.0236 20.9167L17.257 21.5588ZM17.1658 20.4643L17.6765 20.2311L18.0919 21.1408L17.5812 21.374L17.1658 20.4643ZM17.4997 20.3664L17.7899 20.0172L18.5589 20.6563L18.2687 21.0055L17.4997 20.3664ZM17.6994 20.493L17.4839 19.838L18.4338 19.5254L18.6494 20.1805L17.6994 20.493ZM17.4649 19.7594L17.3858 19.2564L18.3736 19.101L18.4528 19.604L17.4649 19.7594ZM17.4701 18.892L17.7752 18.456L18.5945 19.0293L18.2894 19.4653L17.4701 18.892ZM17.8845 18.3429L18.6904 17.7373L19.2911 18.5368L18.4852 19.1424L17.8845 18.3429ZM18.6043 17.8198L18.8383 17.5348L19.6112 18.1694L19.3772 18.4543L18.6043 17.8198ZM18.8068 17.5777L19.1171 17.105L19.953 17.6539L19.6427 18.1266L18.8068 17.5777ZM19.0876 17.1564L19.3599 16.6101L20.2549 17.0562L19.9826 17.6025L19.0876 17.1564ZM19.3206 16.719L19.4385 16.2158L20.4121 16.444L20.2942 16.9473L19.3206 16.719ZM19.9168 16.8298L19.6112 16.8246L19.6282 15.8247L19.9339 15.83L19.9168 16.8298ZM19.7135 16.8158L17.8195 17.1777L17.6318 16.1954L19.5259 15.8336L19.7135 16.8158ZM17.2873 16.4461L17.5745 15.9224L18.4513 16.4033L18.164 16.927L17.2873 16.4461ZM17.677 15.7925L18.3911 15.1451L19.0628 15.886L18.3487 16.5333L17.677 15.7925ZM18.2568 15.3454L18.5206 14.6164L19.4609 14.9567L19.1971 15.6857L18.2568 15.3454ZM18.9908 15.2865H18.3598V14.2865H18.9908V15.2865ZM18.5527 15.2478L17.8648 15.5355L17.479 14.613L18.1669 14.3253L18.5527 15.2478ZM17.967 15.4779L17.3246 15.9475L16.7344 15.1403L17.3768 14.6706L17.967 15.4779ZM17.407 15.8717L16.9324 16.4183L16.1774 15.7626L16.652 15.2161L17.407 15.8717ZM16.9716 16.3667L16.1834 17.5557L15.3499 17.0031L16.1381 15.8142L16.9716 16.3667ZM16.1415 17.6102L15.9285 17.8517L15.1787 17.19L15.3918 16.9486L16.1415 17.6102ZM45.4703 25.3763L45.0111 24.0388L45.9569 23.7141L46.4161 25.0516L45.4703 25.3763ZM44.9859 23.9197L44.837 22.2051L45.8333 22.1186L45.9821 23.8332L44.9859 23.9197ZM45.0305 22.5583L44.0011 21.7674L44.6104 20.9744L45.6398 21.7654L45.0305 22.5583ZM44.131 21.8394L42.5548 21.2515L42.9043 20.3145L44.4805 20.9024L44.131 21.8394ZM42.7031 21.2823L41.05 21.195L41.1028 20.1964L42.7559 20.2837L42.7031 21.2823ZM41.3156 21.1347L39.8733 21.9205L39.3949 21.0423L40.8372 20.2566L41.3156 21.1347ZM40.0918 21.6826L39.2319 23.6384L38.3165 23.2359L39.1764 21.2802L40.0918 21.6826ZM39.1107 23.8069L38.1657 24.6671L37.4926 23.9276L38.4376 23.0674L39.1107 23.8069ZM37.8654 24.796L36.7026 24.8806L36.6301 23.8833L37.7929 23.7986L37.8654 24.796ZM36.1833 24.2529L36.2814 23.8858L37.2475 24.1439L37.1494 24.511L36.1833 24.2529ZM36.2772 23.9025L36.364 23.5257L37.3385 23.7503L37.2516 24.1271L36.2772 23.9025ZM36.6553 24.098L35.2563 23.5019L35.6483 22.5819L37.0473 23.178L36.6553 24.098ZM35.6205 23.5128L34.2834 23.9904L33.947 23.0487L35.2841 22.5711L35.6205 23.5128ZM34.3347 23.9688L33.4464 24.4026L33.0075 23.5041L33.8958 23.0703L34.3347 23.9688ZM33.4543 24.3987L32.6048 24.8323L32.1502 23.9416L32.9996 23.508L33.4543 24.3987ZM32.8032 24.6491L32.4745 25.183L31.623 24.6586L31.9517 24.1247L32.8032 24.6491ZM32.2173 25.3915L31.6864 25.5817L31.3492 24.6402L31.8801 24.4501L32.2173 25.3915ZM31.7537 25.5518L31.2833 25.8035L30.8116 24.9217L31.282 24.6701L31.7537 25.5518ZM31.5474 25.3544L31.5578 25.9961L30.5579 26.0123L30.5475 25.3707L31.5474 25.3544ZM31.0167 26.5025L30.4955 26.4594L30.5779 25.4628L31.0991 25.5059L31.0167 26.5025ZM30.6866 26.4382L30.1963 26.5922L29.8965 25.6382L30.3868 25.4841L30.6866 26.4382ZM30.539 26.0295L30.6264 26.5315L29.6412 26.7029L29.5538 26.2009L30.539 26.0295ZM30.6299 26.5551L30.7048 27.1537L29.7125 27.2779L29.6376 26.6793L30.6299 26.5551ZM30.5422 27.5883L29.8227 28.2326L29.1556 27.4877L29.8751 26.8433L30.5422 27.5883ZM29.9163 28.1201L29.2851 29.1572L28.4308 28.6373L29.062 27.6002L29.9163 28.1201ZM28.3912 29.0764L28.1754 28.5142L29.109 28.1559L29.3248 28.7181L28.3912 29.0764ZM28.148 28.4109L28.0506 27.7767L29.0391 27.625L29.1364 28.2592L28.148 28.4109ZM28.9185 28.0331L28.0715 28.9856L27.3242 28.3211L28.1712 27.3686L28.9185 28.0331ZM28.0525 29.0059L27.1642 29.8994L26.455 29.1944L27.3433 28.3009L28.0525 29.0059ZM26.8344 30.0463L25.3846 30.1182L25.335 29.1194L26.7848 29.0475L26.8344 30.0463ZM25.2824 30.1128L23.7545 29.8734L23.9093 28.8854L25.4372 29.1249L25.2824 30.1128ZM23.6731 28.9053L25.5417 28.2793L25.8594 29.2275L23.9907 29.8535L23.6731 28.9053ZM25.3649 28.3829L26.79 27.0919L27.4614 27.833L26.0362 29.124L25.3649 28.3829ZM27.1975 27.9573L25.6058 28.1882L25.4622 27.1986L27.0539 26.9676L27.1975 27.9573ZM25.6418 28.1817L23.9116 28.5637L23.696 27.5872L25.4262 27.2052L25.6418 28.1817ZM23.8479 28.5735L21.9076 28.7455L21.8193 27.7494L23.7596 27.5774L23.8479 28.5735ZM21.9076 28.7455L19.9695 28.9175L19.8811 27.9214L21.8192 27.7494L21.9076 28.7455ZM19.6929 27.9767L21.0817 27.2475L21.5466 28.1329L20.1578 28.8621L19.6929 27.9767ZM21.2352 27.1965L22.6593 26.9687L22.8172 27.9562L21.3931 28.1839L21.2352 27.1965ZM22.2383 27.4624V27.2006H23.2383V27.4624H22.2383ZM22.7323 27.7006L21.8523 27.6901L21.8641 26.6902L22.7442 26.7007L22.7323 27.7006ZM21.4666 27.5011L20.9246 26.8184L21.7077 26.1965L22.2498 26.8792L21.4666 27.5011ZM21.2073 26.9955L20.4224 26.8205L20.6399 25.8445L21.4249 26.0194L21.2073 26.9955ZM20.0476 26.2053L20.2215 25.5438L21.1887 25.7981L21.0147 26.4597L20.0476 26.2053ZM20.5499 26.1463L19.0795 25.6661L19.3899 24.7155L20.8603 25.1956L20.5499 26.1463ZM19.0353 24.7323L20.0931 24.2724L20.4918 25.1894L19.434 25.6494L19.0353 24.7323ZM20.0346 24.3025L21.0583 23.6865L21.5739 24.5433L20.5502 25.1593L20.0346 24.3025ZM21.117 24.5735L19.9236 24.0553L20.3218 23.1381L21.5153 23.6563L21.117 24.5735ZM20.425 23.9949L18.8667 25.1779L18.2621 24.3814L19.8204 23.1985L20.425 23.9949ZM18.8632 25.1806L18.2293 25.653L17.6317 24.8511L18.2656 24.3787L18.8632 25.1806ZM18.1942 25.6768L17.5738 26.0621L17.0463 25.2126L17.6667 24.8273L18.1942 25.6768ZM16.9309 25.9633L16.5996 25.578L17.3579 24.9261L17.6891 25.3114L16.9309 25.9633ZM16.6469 24.8781L17.3296 24.2723L17.9933 25.0203L17.3106 25.6261L16.6469 24.8781ZM17.323 24.2782L17.9539 23.6981L18.6308 24.4342L17.9999 25.0143L17.323 24.2782ZM17.9514 23.7004L19.325 22.4196L20.007 23.151L18.6334 24.4318L17.9514 23.7004ZM19.758 22.2939L21.7034 22.6582L21.5193 23.6412L19.5739 23.2768L19.758 22.2939ZM21.8183 22.6946L22.3447 22.934L21.9307 23.8443L21.4043 23.6048L21.8183 22.6946ZM22.3531 22.9379L22.8745 23.1868L22.4437 24.0893L21.9223 23.8404L22.3531 22.9379ZM22.5938 23.1423L23.8821 22.9726L24.0127 23.964L22.7244 24.1337L22.5938 23.1423ZM23.8332 22.9815L25.1349 22.6761L25.3633 23.6497L24.0616 23.9551L23.8332 22.9815ZM24.7491 23.1629V22.3129H25.7491V23.1629H24.7491ZM25.1311 22.7988L23.714 22.4549L23.9498 21.4831L25.367 21.827L25.1311 22.7988ZM23.6057 21.5231L24.6124 21.0123L25.0649 21.9042L24.0581 22.4149L23.6057 21.5231ZM24.5674 21.0382L25.2912 20.5708L25.8337 21.4109L25.1099 21.8783L24.5674 21.0382ZM25.3202 21.4283L24.4118 20.9253L24.8962 20.0504L25.8046 20.5534L25.3202 21.4283ZM24.6664 20.9877L23.529 21.016L23.5041 20.0164L24.6415 19.988L24.6664 20.9877ZM23.0592 20.3141L23.3746 19.6005L24.2892 20.0048L23.9739 20.7183L23.0592 20.3141ZM23.571 19.3761L24.352 18.8985L24.8738 19.7516L24.0928 20.2292L23.571 19.3761ZM24.3234 19.7327L23.9046 19.4353L24.4835 18.6199L24.9024 18.9173L24.3234 19.7327ZM23.7052 19.1327L23.5081 18.2158L24.4857 18.0056L24.6829 18.9225L23.7052 19.1327ZM23.4969 18.1081L23.5019 17.1586L24.5019 17.1638L24.4969 18.1133L23.4969 18.1081ZM24.3476 17.5224L22.7863 19.0165L22.0949 18.294L23.6562 16.7999L24.3476 17.5224ZM22.908 18.8329L21.7708 21.8257L20.836 21.4706L21.9732 18.4777L22.908 18.8329ZM21.5684 22.0722L21.1326 22.3445L20.6027 21.4964L21.0385 21.2241L21.5684 22.0722ZM20.5049 22.2646L20.1684 21.9099L20.8939 21.2216L21.2303 21.5763L20.5049 22.2646ZM20.1252 21.2738L20.3741 20.9278L21.1859 21.5118L20.937 21.8578L20.1252 21.2738ZM20.2988 21.0842L20.4991 20.3731L21.4616 20.6443L21.2613 21.3554L20.2988 21.0842ZM20.4934 20.6221L20.3416 19.97L21.3155 19.7433L21.4674 20.3954L20.4934 20.6221ZM20.3896 20.0961L20.0996 19.5644L20.9776 19.0856L21.2675 19.6172L20.3896 20.0961ZM20.9195 19.6489L18.9508 21.9646L18.1889 21.3168L20.1577 19.0012L20.9195 19.6489ZM18.7621 22.1023L16.3524 23.1058L15.9679 22.1826L18.3777 21.1791L18.7621 22.1023ZM16.4008 23.0825L15.6633 23.4874L15.182 22.6109L15.9195 22.2059L16.4008 23.0825ZM15.2177 23.5052L14.3916 23.1338L14.8016 22.2218L15.6277 22.5931L15.2177 23.5052ZM14.099 22.7261L13.9934 21.6395L14.9888 21.5428L15.0943 22.6295L14.099 22.7261ZM13.9928 21.6329L13.8873 20.3733L14.8838 20.2898L14.9894 21.5494L13.9928 21.6329ZM13.9337 20.5456L13.3535 19.3208L14.2573 18.8927L14.8374 20.1175L13.9337 20.5456ZM13.5483 19.5356L12.679 19.0144L13.1931 18.1567L14.0625 18.6779L13.5483 19.5356ZM13.3455 18.8725L12.2282 20.4667L11.4093 19.8927L12.5266 18.2986L13.3455 18.8725ZM12.3162 20.1293L12.5703 22.6348L11.5754 22.7357L11.3213 20.2302L12.3162 20.1293ZM11.8566 23.1361L11.0868 22.7667L11.5194 21.8651L12.2892 22.2345L11.8566 23.1361ZM11.1021 22.7738L10.3117 22.4268L10.7136 21.5111L11.504 21.8581L11.1021 22.7738ZM10.0161 21.9102L10.1933 20.4141L11.1863 20.5317L11.0091 22.0278L10.0161 21.9102ZM10.2055 20.3488L10.539 19.0469L11.5077 19.295L11.1742 20.597L10.2055 20.3488ZM10.687 18.801L12.0987 17.5179L12.7713 18.258L11.3596 19.541L10.687 18.801ZM11.9608 17.7294L12.5925 15.8401L13.5409 16.1572L12.9092 18.0465L11.9608 17.7294ZM13.3333 16.4216L12.6655 16.8425L12.1323 15.9965L12.8001 15.5756L13.3333 16.4216ZM12.7177 16.8047L12.0815 17.3311L11.444 16.5607L12.0802 16.0343L12.7177 16.8047ZM11.3033 16.7487L11.8984 15.3624L12.8173 15.7568L12.2222 17.1431L11.3033 16.7487ZM12.0518 15.1642L13.2019 14.2737L13.8141 15.0644L12.664 15.9549L12.0518 15.1642ZM13.0838 14.4044L13.8382 13.1955L14.6865 13.7249L13.9322 14.9338L13.0838 14.4044ZM13.7624 13.4551L13.7758 12.1479L14.7758 12.1582L14.7623 13.4653L13.7624 13.4551ZM14.6661 12.4656L14.0289 13.2613L13.2484 12.6362L13.8855 11.8405L14.6661 12.4656ZM13.2463 13.2587L12.6176 12.463L13.4023 11.8431L14.031 12.6388L13.2463 13.2587ZM12.7701 11.7143L13.7891 11.1573L14.2687 12.0348L13.2498 12.5918L12.7701 11.7143ZM13.7072 11.2132L14.5134 10.5358L15.1567 11.3013L14.3506 11.9788L13.7072 11.2132ZM14.4023 11.1689L14.074 10.6015L14.9396 10.1007L15.2679 10.6682L14.4023 11.1689ZM14.4462 10.8474L13.9019 10.7809L14.023 9.78832L14.5674 9.85477L14.4462 10.8474ZM14.251 10.693L12.4998 11.9302L11.9228 11.1135L13.6739 9.87627L14.251 10.693ZM12.6529 11.7563L11.4239 14.0715L10.5406 13.6026L11.7696 11.2874L12.6529 11.7563ZM10.5101 14.0016L10.2177 13.1626L11.162 12.8335L11.4544 13.6725L10.5101 14.0016ZM10.9013 13.4511L10.126 13.813L9.70304 12.9068L10.4783 12.5449L10.9013 13.4511ZM10.4007 13.2433L10.6857 14.4315L9.7133 14.6647L9.42831 13.4765L10.4007 13.2433ZM9.96847 14.9915L9.38283 14.6864L9.84491 13.7995L10.4305 14.1047L9.96847 14.9915ZM9.75998 14.7211L9.23134 14.8827L8.93912 13.9263L9.46776 13.7648L9.75998 14.7211ZM9.46139 14.7339L9.13535 15.1062L8.38302 14.4474L8.70907 14.0751L9.46139 14.7339ZM9.11657 15.1265L8.77783 15.4727L8.06306 14.7734L8.4018 14.4271L9.11657 15.1265ZM7.97565 14.8946L9.6798 11.5757L10.5694 12.0325L8.86524 15.3514L7.97565 14.8946ZM9.80844 11.4167L12.8658 8.92138L13.4981 9.6961L10.4407 12.1915L9.80844 11.4167ZM12.9575 9.75555L12.0185 9.2839L12.4673 8.39028L13.4064 8.86193L12.9575 9.75555ZM11.7545 8.72991L11.9106 8.01884L12.8873 8.2332L12.7313 8.94427L11.7545 8.72991ZM11.9832 8.40379L11.4906 7.66658L12.3221 7.11104L12.8147 7.84825L11.9832 8.40379ZM11.5078 7.08692L11.8443 6.64265L12.6415 7.24644L12.305 7.6907L11.5078 7.08692ZM12.1944 7.44219L10.8282 7.30903L10.9252 6.31375L12.2914 6.4469L12.1944 7.44219ZM11.0763 7.26983L9.73106 7.85546L9.33191 6.93858L10.6772 6.35295L11.0763 7.26983ZM9.98724 7.60268L9.56113 8.54696L8.64964 8.13565L9.07574 7.19137L9.98724 7.60268ZM9.55618 8.55762L9.15323 9.39737L8.25165 8.96475L8.6546 8.125L9.55618 8.55762ZM9.11419 8.8974L9.43551 9.36382L8.61201 9.93113L8.29069 9.46472L9.11419 8.8974ZM9.52237 9.68472L9.44546 10.7144L8.44824 10.6399L8.52515 9.61023L9.52237 9.68472ZM9.2631 11.0644L8.61574 11.593L7.98323 10.8185L8.63059 10.2899L9.2631 11.0644ZM8.79277 11.2874L8.67754 11.9836L7.69096 11.8203L7.8062 11.1241L8.79277 11.2874ZM8.68389 11.9209L8.65552 12.6678L7.65624 12.6299L7.68461 11.8829L8.68389 11.9209ZM8.13681 13.1485L7.19775 13.1126L7.23589 12.1134L8.17495 12.1492L8.13681 13.1485ZM7.47564 13.0408L6.55126 13.6L6.03362 12.7444L6.958 12.1852L7.47564 13.0408ZM6.53086 13.6117L5.99177 13.9042L5.51494 13.0252L6.05403 12.7327L6.53086 13.6117ZM6.2405 13.352L6.38709 13.986L5.41281 14.2113L5.26621 13.5773L6.2405 13.352ZM6.31684 13.8226L6.88131 14.675L6.04754 15.2271L5.48307 14.3747L6.31684 13.8226ZM6.88082 14.6743L7.512 15.6238L6.67921 16.1774L6.04804 15.2278L6.88082 14.6743ZM7.51376 15.6264L8.16038 16.6128L7.32407 17.161L6.67745 16.1747L7.51376 15.6264ZM8.18287 16.6506L8.74287 17.695L7.86158 18.1675L7.30158 17.1232L8.18287 16.6506ZM8.15034 18.4076L7.17768 18.0975L7.48145 17.1448L8.45411 17.4549L8.15034 18.4076ZM7.31983 18.121L6.23417 18.0999L6.25365 17.1001L7.33931 17.1212L7.31983 18.121ZM6.74391 17.6014L6.73868 19.3962L5.73869 19.3933L5.74391 17.5985L6.74391 17.6014ZM6.72341 19.2721L7.05468 20.5812L6.08524 20.8265L5.75396 19.5174L6.72341 19.2721ZM6.30582 21.1284L5.55816 20.6632L6.08643 19.8142L6.83409 20.2793L6.30582 21.1284ZM5.94991 20.7221L5.05416 20.9586L4.79893 19.9917L5.69468 19.7553L5.94991 20.7221ZM5.42087 20.5503L5.26681 21.564L4.27816 21.4137L4.43222 20.4L5.42087 20.5503ZM4.91631 21.01L5.64306 21.2283L5.35541 22.186L4.62866 21.9677L4.91631 21.01ZM5.98898 21.8079L5.88868 22.2955L4.90919 22.094L5.00949 21.6064L5.98898 21.8079ZM5.88885 22.2946L5.7888 22.7852L4.80897 22.5854L4.90902 22.0948L5.88885 22.2946ZM5.29006 22.1854L6.17834 22.1697L6.19599 23.1695L5.30771 23.1852L5.29006 22.1854ZM6.19597 22.1697L7.08649 22.1854L7.06889 23.1852L6.17836 23.1695L6.19597 22.1697ZM7.2727 23.1457L6.68507 23.3946L6.29506 22.4738L6.88268 22.2249L7.2727 23.1457ZM6.82486 23.3055L6.30668 23.7727L5.63708 23.03L6.15527 22.5628L6.82486 23.3055ZM6.19822 22.9555L7.41255 23.572L6.95986 24.4637L5.74553 23.8472L6.19822 22.9555ZM7.14595 23.5195L8.89614 23.3781L8.97665 24.3748L7.22646 24.5162L7.14595 23.5195ZM9.19438 24.3048L7.52333 25.3113L7.00737 24.4547L8.67842 23.4481L9.19438 24.3048ZM7.61836 25.2371L6.49363 26.3583L5.78762 25.6501L6.91235 24.5289L7.61836 25.2371ZM5.77869 26.3492L5.25776 25.8026L5.98164 25.1127L6.50257 25.6592L5.77869 26.3492ZM5.20982 25.744L4.85615 25.2378L5.6759 24.6651L6.02958 25.1713L5.20982 25.744ZM5.74442 25.0968L5.60306 25.562L4.64626 25.2712L4.78763 24.806L5.74442 25.0968ZM5.59278 25.2409L5.8133 25.8285L4.87705 26.1799L4.65654 25.5923L5.59278 25.2409ZM5.82527 25.8645L6.25684 27.3479L5.29665 27.6273L4.86508 26.1439L5.82527 25.8645ZM6.0679 27.0811L7.36884 28.0129L6.78653 28.8259L5.48559 27.8941L6.0679 27.0811ZM7.16591 28.9116L6.76047 28.9843L6.58402 27.9999L6.98947 27.9273L7.16591 28.9116ZM6.86752 28.9524L6.47502 29.1189L6.08449 28.1983L6.47698 28.0318L6.86752 28.9524ZM6.70259 28.3918L7.19016 29.1643L6.34449 29.698L5.85692 28.9255L6.70259 28.3918ZM6.67258 28.9402L7.94814 28.6941L8.13762 29.6759L6.86207 29.9221L6.67258 28.9402ZM7.86094 28.7193L8.5974 28.4316L8.96129 29.363L8.22483 29.6507L7.86094 28.7193ZM9.27522 28.9614L9.19831 29.5565L8.20656 29.4283L8.28347 28.8332L9.27522 28.9614ZM9.19846 29.4295L9.27537 30.036L8.28332 30.1618L8.20641 29.5553L9.19846 29.4295ZM8.84563 30.5945L7.31596 30.7991L7.18339 29.8079L8.71306 29.6033L8.84563 30.5945ZM7.62497 30.6339L6.46988 31.946L5.71928 31.2853L6.87438 29.9731L7.62497 30.6339ZM6.04845 31.1178L6.9671 31.0327L7.05936 32.0284L6.14071 32.1135L6.04845 31.1178ZM7.16191 31.0532L7.67337 31.2124L7.37601 32.1672L6.86455 32.0079L7.16191 31.0532ZM8.02003 31.6217L8.16065 32.6439L7.16998 32.7802L7.02936 31.758L8.02003 31.6217ZM8.11188 32.4871L8.71544 33.6855L7.82231 34.1353L7.21876 32.9369L8.11188 32.4871ZM8.66703 34.2129L7.8325 35.3115L7.0362 34.7066L7.87072 33.608L8.66703 34.2129ZM7.74582 35.4001L6.7657 36.1807L6.14275 35.3984L7.12287 34.6179L7.74582 35.4001ZM6.89014 35.5446L7.3573 36.3762L6.48547 36.866L6.01831 36.0344L6.89014 35.5446ZM7.37611 36.829L6.93956 37.7837L6.03012 37.3679L6.46667 36.4131L7.37611 36.829ZM6.9238 37.8152L6.35409 38.8598L5.47617 38.381L6.04588 37.3364L6.9238 37.8152ZM6.36492 38.8388L5.89004 39.8169L4.99046 39.3801L5.46534 38.402L6.36492 38.8388ZM5.94009 39.611L5.9065 40.956L4.90681 40.931L4.9404 39.586L5.94009 39.611ZM5.87858 41.1087L5.62422 41.8354L4.68036 41.5051L4.93472 40.7783L5.87858 41.1087ZM5.65215 41.6822L5.63198 42.5262L4.63227 42.5023L4.65243 41.6583L5.65215 41.6822ZM5.58108 42.2942L6.18663 43.5294L5.28872 43.9696L4.68317 42.7343L5.58108 42.2942ZM5.87072 43.2675L6.80032 43.5241L6.53423 44.4881L5.60463 44.2315L5.87072 43.2675ZM6.65566 43.5062L7.74879 43.4808L7.77201 44.4806L6.67888 44.506L6.65566 43.5062ZM7.74187 43.4811L8.85589 43.4397L8.89295 44.439L7.77893 44.4804L7.74187 43.4811ZM8.81262 43.4432L9.24418 43.3895L9.3678 44.3818L8.93623 44.4356L8.81262 43.4432ZM9.24924 43.3889L9.61088 43.3475L9.72438 44.3411L9.36274 44.3824L9.24924 43.3889ZM10.0052 43.4755L10.1898 43.6444L9.51476 44.3822L9.33008 44.2132L10.0052 43.4755ZM10.1039 43.5813L10.3561 43.7281L9.85279 44.5922L9.60066 44.4454L10.1039 43.5813ZM9.91262 43.6984L10.9084 43.2848L11.292 44.2082L10.2962 44.6219L9.91262 43.6984ZM10.81 43.3394L11.7493 42.6696L12.3298 43.4838L11.3905 44.1536L10.81 43.3394ZM11.5957 42.8465L12.4509 41.1983L13.3385 41.6589L12.4834 43.307L11.5957 42.8465ZM12.4194 41.5838L11.6979 39.3734L12.6485 39.0631L13.37 41.2734L12.4194 41.5838ZM11.6832 39.1185L11.9809 37.6563L12.9608 37.8557L12.6631 39.318L11.6832 39.1185ZM12.8876 37.4797L13.357 38.1875L12.5236 38.7402L12.0542 38.0323L12.8876 37.4797ZM13.436 38.3988L13.6341 39.9083L12.6426 40.0384L12.4445 38.5289L13.436 38.3988ZM13.4722 39.6011L14.2963 40.34L13.6287 41.0846L12.8046 40.3456L13.4722 39.6011ZM13.4642 40.671L13.5381 39.7783L14.5347 39.8608L14.4608 40.7536L13.4642 40.671ZM13.6897 39.4592L14.2395 38.9303L14.9328 39.651L14.383 40.1799L13.6897 39.4592ZM14.1363 39.5088L13.8924 39.0058L14.7922 38.5695L15.0361 39.0725L14.1363 39.5088ZM13.859 38.9161L13.5997 37.9404L14.5661 37.6835L14.8255 38.6592L13.859 38.9161ZM13.6021 37.9492L13.3246 36.9765L14.2862 36.7022L14.5637 37.6748L13.6021 37.9492ZM14.2269 36.5704L15.1488 38.0155L14.3058 38.5533L13.3839 37.1083L14.2269 36.5704ZM14.9761 37.8507L16.0722 38.4797L15.5746 39.347L14.4784 38.7181L14.9761 37.8507ZM15.3482 39.0689L15.0329 38.106L15.9832 37.7948L16.2986 38.7577L15.3482 39.0689ZM15.0667 38.1854L14.6142 37.3357L15.4969 36.8657L15.9494 37.7154L15.0667 38.1854ZM14.8337 36.6526L14.9929 36.5737L15.4368 37.4698L15.2775 37.5487L14.8337 36.6526ZM14.9969 36.5718L15.1562 36.4946L15.5921 37.3946L15.4328 37.4718L14.9969 36.5718ZM14.8911 37.0736L14.6937 36.3341L15.6599 36.0762L15.8572 36.8157L14.8911 37.0736ZM14.9496 35.7598L15.4932 35.4825L15.9475 36.3733L15.404 36.6506L14.9496 35.7598ZM16.151 35.6739L16.8491 36.8573L15.9878 37.3654L15.2897 36.182L16.151 35.6739ZM16.8879 36.9391L17.4145 38.3739L16.4758 38.7185L15.9491 37.2837L16.8879 36.9391ZM16.9529 38.0463L17.9793 38.0622L17.9638 39.0621L16.9374 39.0462L16.9529 38.0463ZM18.0193 38.0644L19.108 38.169L19.0124 39.1644L17.9238 39.0599L18.0193 38.0644ZM19.4451 38.3475L20.4844 39.6006L19.7147 40.239L18.6753 38.9859L19.4451 38.3475ZM20.4354 39.5494L21.5957 40.6015L20.924 41.3423L19.7637 40.2902L20.4354 39.5494ZM21.3741 40.4851L22.7753 40.8139L22.5469 41.7875L21.1457 41.4587L21.3741 40.4851ZM22.7031 40.8024L24.1073 40.9207L24.0234 41.9171L22.6192 41.7989L22.7031 40.8024ZM24.3116 40.9837L25.1048 41.4325L24.6124 42.3028L23.8192 41.8541L24.3116 40.9837ZM25.0221 41.3951L25.8693 41.6883L25.5423 42.6333L24.695 42.3401L25.0221 41.3951ZM25.3735 41.7873L26.4823 40.8009L27.1469 41.5481L26.0381 42.5344L25.3735 41.7873ZM26.3148 41.1607L26.3688 39.2044L27.3684 39.232L27.3144 41.1883L26.3148 41.1607ZM26.4674 39.5166L25.4922 38.2055L26.2946 37.6087L27.2698 38.9198L26.4674 39.5166ZM25.4586 38.1539L24.66 36.7472L25.5296 36.2535L26.3282 37.6602L25.4586 38.1539ZM25.2592 36.0282L26.0783 36.3134L25.7494 37.2578L24.9303 36.9725L25.2592 36.0282ZM26.2807 36.4458L27.0223 37.2465L26.2887 37.926L25.547 37.1254L26.2807 36.4458ZM26.1563 37.559L26.1951 36.8479L27.1936 36.9024L27.1548 37.6135L26.1563 37.559ZM26.2855 37.163L25.9365 36.6672L26.7543 36.0916L27.1032 36.5874L26.2855 37.163ZM26.3084 35.8808L27.3736 35.8016L27.4477 36.7989L26.3825 36.878L26.3084 35.8808ZM27.7279 35.9138L28.6468 36.6682L28.0123 37.4411L27.0934 36.6867L27.7279 35.9138ZM28.8285 37.0213L28.9255 38.4741L27.9277 38.5407L27.8307 37.088L28.8285 37.0213ZM28.9251 38.4677L29.0433 39.9518L28.0464 40.0312L27.9282 38.5471L28.9251 38.4677ZM28.9795 39.7444L29.7264 41.058L28.8571 41.5523L28.1102 40.2387L28.9795 39.7444ZM29.7226 41.0514L30.521 42.4071L29.6594 42.9146L28.8609 41.5589L29.7226 41.0514ZM30.3044 42.2091L31.9779 43.0025L31.5495 43.9061L29.876 43.1126L30.3044 42.2091ZM31.739 42.9549L33.6592 42.8598L33.7086 43.8586L31.7885 43.9537L31.739 42.9549ZM33.888 42.9028L35.1509 43.4675L34.7427 44.3804L33.4798 43.8157L33.888 42.9028ZM34.9265 43.4244L36.1891 43.3731L36.2297 44.3723L34.9671 44.4235L34.9265 43.4244ZM35.8465 43.5287L36.5452 42.7917L37.2709 43.4797L36.5722 44.2167L35.8465 43.5287ZM36.7589 42.6585L37.6469 42.381L37.9452 43.3355L37.0572 43.613L36.7589 42.6585ZM37.8049 42.3583L38.9908 42.3792L38.9732 43.379L37.7872 43.3581L37.8049 42.3583ZM38.5639 42.6048L39.29 41.4983L40.1261 42.0468L39.4001 43.1534L38.5639 42.6048ZM39.4036 42.1692L38.3105 41.3302L38.9193 40.5369L40.0125 41.3759L39.4036 42.1692ZM38.4701 41.4121L37.0196 40.9734L37.3091 40.0162L38.7597 40.455L38.4701 41.4121ZM37.1386 39.9954L39.2357 39.8872L39.2873 40.8858L37.1902 40.9941L37.1386 39.9954ZM38.922 40.0194L40.4624 38.595L41.1413 39.3292L39.601 40.7536L38.922 40.0194ZM40.34 39.1535L39.6956 37.5982L40.6194 37.2154L41.2638 38.7707L40.34 39.1535ZM40.1124 37.9048L38.3801 37.7477L38.4704 36.7518L40.2027 36.9088L40.1124 37.9048ZM38.2106 37.7013L37.2939 37.2655L37.7233 36.3624L38.6399 36.7982L38.2106 37.7013ZM37.3711 37.2947L36.4191 37.0224L36.6941 36.0609L37.6461 36.3332L37.3711 37.2947ZM36.6331 37.0358L35.5905 37.1973L35.4374 36.2091L36.48 36.0476L36.6331 37.0358ZM35.6799 37.1749L34.6812 37.5263L34.3492 36.583L35.348 36.2315L35.6799 37.1749ZM35.0056 36.9573L35.3782 38.8339L34.3974 39.0286L34.0248 37.152L35.0056 36.9573ZM35.2334 38.5699L36.8683 40.1334L36.1772 40.8561L34.5422 39.2926L35.2334 38.5699ZM36.3174 40.9507L34.4926 40.1288L34.9032 39.217L36.7281 40.0389L36.3174 40.9507ZM34.487 40.1263L32.6722 39.2823L33.0938 38.3756L34.9087 39.2196L34.487 40.1263ZM32.7894 39.3201L30.8464 38.95L31.0335 37.9677L32.9765 38.3378L32.7894 39.3201ZM30.7025 38.8989L28.8983 37.9258L29.3731 37.0456L31.1773 38.0188L30.7025 38.8989ZM28.6512 37.6093L28.4613 36.8649L29.4303 36.6177L29.6202 37.3621L28.6512 37.6093ZM28.4485 36.7932L28.3607 35.9512L29.3553 35.8474L29.4431 36.6894L28.4485 36.7932ZM28.5017 36.2501L28.2012 35.9449L28.9138 35.2434L29.2143 35.5485L28.5017 36.2501ZM28.2508 35.989L27.9173 35.7299L28.5308 34.9402L28.8643 35.1993L28.2508 35.989ZM27.7525 35.5014L27.5678 34.9777L28.5109 34.6451L28.6956 35.1688L27.7525 35.5014ZM27.6796 35.1587L27.1786 34.6397L27.8981 33.9452L28.3991 34.4641L27.6796 35.1587ZM27.2422 34.6953L26.565 34.1976L27.1572 33.3918L27.8345 33.8896L27.2422 34.6953ZM26.4377 34.0606L25.922 33.2395L26.7688 32.7077L27.2845 33.5287L26.4377 34.0606ZM26.5497 32.5172L28.0179 33.1746L27.6093 34.0873L26.1411 33.4299L26.5497 32.5172ZM28.1231 33.2382L29.4778 34.306L28.8588 35.0913L27.5041 34.0236L28.1231 33.2382ZM28.6985 34.8697L28.2883 33.743L29.228 33.4009L29.6382 34.5276L28.6985 34.8697ZM28.2604 33.6193L28.2034 33.021L29.1989 32.9262L29.2559 33.5245L28.2604 33.6193ZM28.3534 32.6143L28.8206 32.1621L29.5161 32.8806L29.0489 33.3328L28.3534 32.6143ZM29.3305 32.0484L29.9139 32.2485L29.5895 33.1944L29.0061 32.9943L29.3305 32.0484ZM30.1529 32.423L30.7965 33.2882L29.9942 33.8851L29.3506 33.0199L30.1529 32.423ZM30.7674 33.2526L31.4429 34.005L30.6988 34.673L30.0233 33.9206L30.7674 33.2526ZM30.9277 33.8599L31.4509 33.7036L31.7371 34.6618L31.214 34.8181L30.9277 33.8599ZM31.4064 33.7192L31.9642 33.4935L32.3393 34.4204L31.7816 34.6462L31.4064 33.7192ZM31.7916 34.3038L31.257 33.7488L31.9772 33.0551L32.5119 33.6101L31.7916 34.3038ZM31.2399 33.7302L30.7377 33.153L31.4921 32.4965L31.9943 33.0737L31.2399 33.7302ZM30.8719 32.3878L31.1539 32.231L31.6399 33.1049L31.3579 33.2617L30.8719 32.3878ZM31.1588 32.2283L31.4432 32.0742L31.9195 32.9536L31.635 33.1076L31.1588 32.2283ZM31.3836 32.9156L30.2337 32.0631L30.8293 31.2598L31.9791 32.1122L31.3836 32.9156ZM30.3071 32.1083L29.101 31.5025L29.5498 30.6089L30.7559 31.2146L30.3071 32.1083ZM29.2385 30.5633L30.912 30.2681L31.0858 31.2529L29.4122 31.5481L29.2385 30.5633ZM31.118 30.2749L32.8249 30.6935L32.5867 31.6647L30.8798 31.2461L31.118 30.2749ZM32.8144 30.691L33.8769 30.9275L33.6597 31.9036L32.5972 31.6672L32.8144 30.691ZM33.7414 30.9163L34.8017 30.8593L34.8554 31.8578L33.7951 31.9148L33.7414 30.9163ZM34.6299 30.8997L35.513 30.5174L35.9103 31.4351L35.0272 31.8174L34.6299 30.8997ZM35.5447 30.5049L36.4225 30.1941L36.7563 31.1367L35.8785 31.4476L35.5447 30.5049ZM36.7388 30.1882L39.1105 30.9307L38.8117 31.885L36.4401 31.1426L36.7388 30.1882ZM39.4304 31.2352L40.4545 34.0198L39.516 34.365L38.4918 31.5804L39.4304 31.2352ZM39.9092 33.6982L41.9095 33.3903L42.0617 34.3787L40.0613 34.6866L39.9092 33.6982ZM42.0589 33.3899L44.1354 33.6978L43.9888 34.687L41.9123 34.3791L42.0589 33.3899ZM43.7646 34.5943L42.1008 33.3628L42.6957 32.559L44.3595 33.7905L43.7646 34.5943ZM42.1832 33.4123L40.3018 32.5158L40.732 31.613L42.6133 32.5095L42.1832 33.4123ZM40.2218 31.6608L40.6737 31.3303L41.264 32.1375L40.8121 32.468L40.2218 31.6608ZM40.4762 31.6484L40.5815 31.0418L41.5668 31.2128L41.4615 31.8194L40.4762 31.6484ZM40.7399 30.7555L41.2763 30.2734L41.9448 31.0171L41.4084 31.4992L40.7399 30.7555ZM41.834 30.198L42.5732 30.5673L42.1262 31.4619L41.387 31.0925L41.834 30.198ZM42.434 30.5217L44.0871 30.8045L43.9185 31.7902L42.2654 31.5074L42.434 30.5217ZM43.6111 30.9866L44.9795 29.2615L45.763 29.883L44.3946 31.6081L43.6111 30.9866ZM44.927 29.3427L45.6657 27.9134L46.5541 28.3725L45.8154 29.8018L44.927 29.3427ZM45.6173 28.0575L45.905 26.3989L46.8903 26.5698L46.6026 28.2284L45.6173 28.0575ZM45.9269 26.6527L45.4724 25.3824L46.414 25.0456L46.8684 26.3159L45.9269 26.6527ZM31.4879 36.7232L30.5553 36.5644L30.7232 35.5786L31.6558 35.7374L31.4879 36.7232ZM30.7862 36.5494L29.7849 36.8573L29.491 35.9015L30.4923 35.5936L30.7862 36.5494ZM30.138 36.3794V36.6211H29.138V36.3794H30.138ZM29.9525 36.2323L30.2223 36.4506L29.5933 37.228L29.3235 37.0098L29.9525 36.2323ZM30.0068 36.3492L30.641 36.4774L30.4429 37.4576L29.8087 37.3294L30.0068 36.3492ZM30.7167 36.4991L31.0736 36.6322L30.7241 37.5691L30.3672 37.436L30.7167 36.4991ZM31.2031 36.7039L31.5416 36.9635L30.9331 37.757L30.5946 37.4974L31.2031 36.7039ZM31.5961 37.012L31.843 37.2664L31.1255 37.9629L30.8786 37.7085L31.5961 37.012ZM31.7536 37.1934L32.0257 37.3674L31.4869 38.2098L31.2148 38.0358L31.7536 37.1934ZM31.7992 37.2905L32.1947 37.3245L32.1088 38.3208L31.7133 38.2868L31.7992 37.2905ZM32.515 37.4791L33.5974 38.6235L32.8709 39.3107L31.7885 38.1663L32.515 37.4791ZM33.3282 38.476L33.6493 38.5375L33.4612 39.5196L33.1401 39.4582L33.3282 38.476ZM33.104 38.8132L33.3073 38.3871L34.2098 38.8178L34.0065 39.2439L33.104 38.8132ZM33.3269 38.8548L33.0646 38.4061L33.9279 37.9014L34.1902 38.3501L33.3269 38.8548ZM33.1864 38.5462L32.4676 37.9787L33.0873 37.1938L33.8061 37.7613L33.1864 38.5462ZM32.4038 37.9185L31.1982 36.5625L31.9455 35.8981L33.1511 37.254L32.4038 37.9185ZM5.16537 31.1078L5.36573 30.6404L6.28484 31.0344L6.08449 31.5018L5.16537 31.1078ZM5.33036 30.7663L5.41249 30.1944L6.40234 30.3365L6.32021 30.9085L5.33036 30.7663ZM5.60379 30.6627L5.44227 30.5392L6.0495 29.7447L6.21103 29.8682L5.60379 30.6627ZM5.88717 30.6216L5.15543 30.8371L4.87287 29.8779L5.6046 29.6624L5.88717 30.6216ZM4.95772 30.8543L4.55453 30.8085L4.66739 29.8149L5.07058 29.8607L4.95772 30.8543ZM4.39957 30.7648L3.64519 30.4129L4.06796 29.5067L4.82234 29.8586L4.39957 30.7648ZM3.73174 30.444L3.33402 30.3414L3.58368 29.3731L3.9814 29.4756L3.73174 30.444ZM3.51119 30.3545L3.09978 30.3978L2.99509 29.4033L3.40651 29.36L3.51119 30.3545ZM3.35777 30.2926L3.11411 30.4855L2.49343 29.7014L2.73709 29.5085L3.35777 30.2926ZM3.23444 30.3475L2.79565 31.0914L1.93431 30.5834L2.3731 29.8394L3.23444 30.3475ZM2.62884 30.4127L3.12961 30.7238L2.60188 31.5732L2.10112 31.2621L2.62884 30.4127ZM2.99593 30.6657L3.53951 30.8123L3.27913 31.7778L2.73555 31.6312L2.99593 30.6657ZM3.40932 30.7951H4.56466V31.7951H3.40932V30.7951ZM4.82338 30.8672L5.22633 31.1109L4.70888 31.9666L4.30593 31.7229L4.82338 30.8672ZM4.97071 31.0388L5.33259 31.041L5.3264 32.041L4.96451 32.0387L4.97071 31.0388ZM5.01727 31.1505L5.3127 30.9143L5.93715 31.6953L5.64172 31.9315L5.01727 31.1505ZM23.1345 25.2477L23.4067 25.6014L22.6144 26.2114L22.3421 25.8577L23.1345 25.2477ZM23.1731 25.4335L23.4946 25.544L23.1696 26.4898L22.8481 26.3793L23.1731 25.4335ZM23.2438 25.5248L23.5847 25.4635L23.7615 26.4478L23.4205 26.509L23.2438 25.5248ZM23.4496 25.5084L23.7784 25.3441L24.2254 26.2387L23.8966 26.403L23.4496 25.5084ZM24.1794 25.324L24.9696 25.6241L24.6146 26.559L23.8243 26.2588L24.1794 25.324ZM24.3822 25.8053L24.7874 25.2251L25.6072 25.7977L25.202 26.3779L24.3822 25.8053ZM24.7314 25.3298L25.0425 24.5316L25.9743 24.8948L25.6632 25.693L24.7314 25.3298ZM25.2244 24.3017L25.7456 23.9421L26.3136 24.7651L25.7924 25.1247L25.2244 24.3017ZM25.5296 24.3536V24.1149H26.5296V24.3536H25.5296ZM26.0772 24.6126L25.243 24.6925L25.1476 23.6971L25.9819 23.6172L26.0772 24.6126ZM25.4372 24.6324L22.9801 25.9903L22.4964 25.1151L24.9535 23.7572L25.4372 24.6324ZM20.6657 13.7397L21.0816 14.1476L20.3814 14.8615L19.9655 14.4536L20.6657 13.7397ZM20.9995 14.0825L21.4436 14.3645L20.9075 15.2086L20.4634 14.9266L20.9995 14.0825ZM21.1138 14.2904L21.522 14.2396L21.6454 15.2319L21.2372 15.2827L21.1138 14.2904ZM21.3846 14.2771L21.7465 14.12L22.1446 15.0374L21.7827 15.1944L21.3846 14.2771ZM21.5902 14.227L21.8774 13.9368L22.5882 14.6402L22.3009 14.9304L21.5902 14.227ZM21.7674 14.1058L21.9446 13.6543L22.8754 14.0197L22.6982 14.4712L21.7674 14.1058ZM22.3801 14.3361L21.6026 14.2896L21.6623 13.2914L22.4399 13.3379L22.3801 14.3361ZM21.3128 14.175L20.2115 13.2593L20.8508 12.4903L21.9521 13.406L21.3128 14.175ZM20.5241 13.3748L19.7645 13.3641L19.7786 12.3642L20.5382 12.3749L20.5241 13.3748ZM20.2504 12.7203L20.458 13.4112L19.5002 13.6989L19.2927 13.008L20.2504 12.7203ZM20.4038 13.2912L20.7403 13.8327L19.8909 14.3605L19.5544 13.8189L20.4038 13.2912ZM5.81998 4.66935L6.2747 4.28929L6.916 5.05658L6.46128 5.43663L5.81998 4.66935ZM6.09791 4.62233L6.15167 4.09394L7.14654 4.19515L7.09278 4.72355L6.09791 4.62233ZM6.24923 4.44471L5.96973 4.07237L6.76948 3.47203L7.04898 3.84438L6.24923 4.44471ZM6.44222 4.2669L5.8979 4.3468L5.75267 3.3574L6.29699 3.2775L6.44222 4.2669ZM6.25574 4.10648L5.93716 4.64557L5.07625 4.13681L5.39483 3.59772L6.25574 4.10648ZM6.0065 4.40557L5.98634 5.10619L4.98675 5.07743L5.00691 4.37681L6.0065 4.40557ZM5.91636 4.83635L6.1421 5.21615L5.28248 5.72708L5.05673 5.34728L5.91636 4.83635ZM5.36281 5.11403L5.79115 4.69541L6.4901 5.41057L6.06177 5.8292L5.36281 5.11403ZM14.717 15.7086L14.4397 16.5968L13.4852 16.2989L13.7624 15.4106L14.717 15.7086ZM14.3998 16.2055L14.4251 16.2513L13.5505 16.7361L13.5252 16.6903L14.3998 16.2055ZM14.476 16.6018L14.207 17.8159L13.2306 17.5996L13.4997 16.3855L14.476 16.6018ZM14.1394 17.9781L14.0749 18.0784L13.2337 17.5377L13.2982 17.4374L14.1394 17.9781ZM14.1087 17.5994L14.2598 17.9284L13.351 18.3457L13.1999 18.0167L14.1087 17.5994ZM14.005 17.6786L14.2285 17.776L13.8293 18.6928L13.6058 18.5955L14.005 17.6786ZM13.7723 17.8053L14.0602 17.6331L14.5735 18.4913L14.2856 18.6635L13.7723 17.8053ZM13.9327 17.7421L14.1998 17.4216L14.9681 18.0616L14.701 18.3822L13.9327 17.7421ZM14.1401 17.5114L14.5221 16.7747L15.4098 17.2351L15.0278 17.9718L14.1401 17.5114ZM14.4916 16.847L14.8301 15.83L15.7789 16.1458L15.4404 17.1628L14.4916 16.847ZM14.8488 15.7821L15.0703 15.2918L15.9816 15.7035L15.7601 16.1938L14.8488 15.7821ZM15.1536 15.1639L15.3532 14.9412L16.098 15.6085L15.8984 15.8313L15.1536 15.1639ZM15.4603 14.851L15.6659 14.7224L16.1964 15.57L15.9909 15.6987L15.4603 14.851ZM15.5834 14.787L15.7479 14.6277L16.4435 15.3461L16.279 15.5054L15.5834 14.787ZM15.6063 14.8842L15.673 14.5664L16.6517 14.7718L16.585 15.0896L15.6063 14.8842ZM15.7657 14.9734L15.6549 14.8291L16.4483 14.2203L16.5591 14.3647L15.7657 14.9734ZM16.1227 15.0196L15.8713 15.0557L15.7292 14.0659L15.9806 14.0298L16.1227 15.0196ZM15.3052 14.6308L15.2029 13.907L16.193 13.7671L16.2953 14.4908L15.3052 14.6308ZM15.8574 14.3109L15.3154 14.4933L14.9964 13.5456L15.5385 13.3631L15.8574 14.3109ZM15.5516 14.325L15.0484 14.9769L14.2569 14.3657L14.7601 13.7139L15.5516 14.325ZM15.106 14.8821L14.6931 15.7703L13.7863 15.3488L14.1992 14.4605L15.106 14.8821ZM2.5689 6.13855L2.88026 5.82843L3.58595 6.53696L3.27459 6.84707L2.5689 6.13855ZM2.80184 6.43569L2.55494 6.01482L3.41748 5.50883L3.66437 5.9297L2.80184 6.43569ZM2.98621 6.26183H2.56533V5.26183H2.98621V6.26183ZM2.71914 6.23758L2.11559 6.4327L1.80797 5.48119L2.41153 5.28607L2.71914 6.23758ZM2.25891 6.35908L1.89479 6.62813L1.30052 5.82387L1.66464 5.55482L2.25891 6.35908ZM1.89808 5.82632L2.19575 6.05007L1.5949 6.84943L1.29723 6.62568L1.89808 5.82632ZM2.05344 5.97541L2.53056 6.13445L2.21433 7.08313L1.73721 6.92409L2.05344 5.97541ZM2.26915 6.11958L2.81845 6.0036L3.02504 6.98202L2.47574 7.09801L2.26915 6.11958Z" fill="#678B28" fill-opacity="0.4" mask="url(#path-1-inside-1)"/>
</svg>
