<svg width="48" height="48" viewBox="0 0 48 48" fill="none" xmlns="http://www.w3.org/2000/svg">
<mask id="path-1-inside-1" fill="white">
<path d="M39.4537 23.6249L39.3362 23.478H39.1712L39.0285 23.6279L39.0136 23.8235L39.1426 24.3116L39.1216 24.6024L38.9259 24.8919L39.2567 25.0935L39.1225 25.6803L38.9396 25.8746L39.1404 26.1154L39.2738 25.9762L39.481 25.4804L39.5349 24.8031L39.3964 24.4055L39.4537 23.6249ZM37.197 22.3091L36.9654 22.55L37.0013 22.5987H37.0872L37.3231 22.3544L37.2838 22.3091H37.197ZM34.9605 24.113L34.8464 23.9725H34.6729L34.4742 23.7218L34.4964 23.4357L34.3789 23.2854L34.1636 23.3354L34.2195 23.7253L34.1127 23.9208L34.2439 23.9661L34.4375 24.2146L34.3242 24.6045L34.1349 24.7997L34.1593 25.044L34.5178 24.8484L34.7755 24.8454L35.1075 25.041L35.166 24.7967L35.2703 24.6024L34.949 24.315L34.9605 24.113ZM35.2502 22.55L35.131 22.4031L35.0831 22.4548L35.0771 22.55L35.1173 22.5987L35.2049 22.6051L35.2502 22.55ZM41.0681 11.4109L40.8262 11.1153L40.8629 10.6332L40.7001 9.99819L40.5352 9.90081H40.1058L39.9506 9.79961L39.8259 9.65269L39.8447 9.36316L39.6481 9.21626L39.5383 8.9754L39.5866 8.28828L39.5075 8.18707L39.5212 7.99233L39.3319 7.65027L39.1298 7.50933L39.0251 6.62707L38.911 6.48143H38.5644L38.0124 5.89167L37.8419 5.79645L37.3312 5.79346L37.2351 5.89465L36.8902 5.98903L36.5266 6.28584L36.2664 6.28883L36.1292 6.42847L36.1006 6.72442L35.9578 6.96956H35.8711L35.357 7.50337L35.2588 7.70493L35.222 8.18707L35.1331 8.2917L35.1053 8.57781L34.9152 8.87804L34.8802 9.35974L34.596 9.75391L34.4943 9.94949L34.5601 10.1408L34.5379 10.4316L34.3473 10.7272L34.3328 10.9227L34.655 11.2195L34.6994 11.7047L34.5156 11.9003L34.4922 12.1962L34.5725 12.2914L34.5516 12.5874L34.3601 12.7825L34.3106 12.9286L34.0418 13.0234L33.9055 13.1737L33.7448 13.5192L32.9611 13.7071L32.6936 13.9027L32.4376 13.9061L31.98 14.2969H31.8095L31.6668 14.4408L31.6446 14.7367L31.721 14.8379L31.7091 15.0228L31.7873 15.1245L31.7813 15.2257L31.8646 15.3201L31.833 15.6096L31.7441 15.7108L31.6022 16.3979L31.833 16.7887L31.8817 17.2802L32.0804 17.5211L32.3351 17.5181L32.5098 17.4237L32.6692 17.6184H32.8419L33.0248 17.5181L33.1124 17.4237L33.2342 17.4694L33.2012 17.9605L33.3153 18.1074L33.9119 18.2091L34.0969 18.0028H34.1802L34.2947 18.1595L34.1127 18.4491L34.0841 18.7458L34.1559 18.935L34.3652 18.9867L34.6456 19.2276L34.6169 19.6187L34.8477 20.0159L34.8327 20.2021L34.5336 20.6966L34.5114 20.9926L34.596 21.0844L34.5725 21.3739L34.69 21.5302L34.8549 21.5272L34.8981 21.0391L35.1182 21.5272L35.2908 21.4256L35.7822 21.8134L35.9527 21.8198L36.1809 21.5695L36.1006 21.4785L36.4749 21.0844L36.7244 20.6479H36.8988L37.2163 20.9409H37.4718L38.0282 21.5238H38.2871L38.5696 21.1331L38.7516 21.0357H38.9195L39.0644 20.8952L39.1755 20.5044L38.7354 20.0616L38.5644 20.1555L38.3939 20.0616L38.3029 20.1555H38.135L37.932 19.9147L37.9628 19.5248L38.1055 19.3779L38.3209 19.3292L38.2068 19.1823H37.9521L37.7637 19.3779L37.6487 19.231L38.0089 18.9414L37.844 18.8398L37.8504 18.7394L38.2247 18.3547L38.1974 18.2048L38.0303 18.1044L37.9085 18.0592L37.9277 17.7619L38.029 17.5663L38.361 17.1269L38.5738 17.0816L38.5867 16.98L38.2799 16.5901L38.2957 16.3945L38.4311 16.2476L38.7619 16.4462L38.9832 16.2976L39.0434 15.5186L38.802 15.3231L38.82 15.0271L39.4114 14.0496L39.5485 13.9061L39.7156 14.0009L40.122 13.6618L40.1357 13.4662L40.8343 12.1992L41.0228 11.9976L41.1296 11.7081L41.0523 11.6064L41.0681 11.4109ZM44.8357 14.1956L44.4075 14.1999L44.3639 14.2452L44.4836 14.3921H44.825L44.8673 14.3455L44.8357 14.1956ZM42.6692 12.2385L42.3273 12.2415L42.097 12.4828L42.6406 12.6356L42.9576 12.3948L42.9649 12.2936L42.7662 12.1445L42.6692 12.2385ZM44.419 12.3884L44.3776 12.3397L44.1464 12.584L44.14 12.6843L44.1746 12.7309L44.2678 12.6356H44.3588L44.3998 12.5904L44.419 12.3884ZM34.6456 25.9698L34.6298 26.1654L34.6708 26.2137H34.7609L34.8041 26.1654L34.8263 25.8746L34.7917 25.8293L34.6456 25.9698ZM42.8265 13.0721L42.5265 13.0268L42.3855 13.1703L42.3637 13.4662L42.4808 13.6132H42.7461L42.8794 13.4633L42.8952 13.2677L42.8192 13.1673L42.8265 13.0721ZM38.0132 2.37707L38.1119 2.27671H38.2863L38.743 2.9604L38.9067 3.06077L39.1259 3.01208L39.1439 2.71614L38.9883 2.52397L38.9969 2.42234L38.5589 1.98589L38.041 2.08112L37.8051 2.3254L38.0132 2.37707ZM33.8038 22.9929L33.7585 23.0381L33.7512 23.1334L33.7879 23.1885H33.9636L34.011 23.1389L33.8927 22.9929H33.8038ZM41.0681 6.28156L41.1082 6.2363L41.1232 6.04072L41.0091 5.89465H40.8365L40.7899 5.94037L40.786 6.04072L40.9792 6.28584L41.0681 6.28156ZM40.0541 4.28214L40.4177 4.62463L40.548 4.57593L40.5617 4.37309L40.2908 4.03828L39.9019 4.08698L40.031 4.13308L40.0541 4.28214ZM37.9183 1.93421L37.9393 1.64466L37.9055 1.59942L37.7701 1.64466L37.7406 2.03458L37.7808 2.0841L37.9183 1.93421ZM14.0491 36.8173L14.0987 36.7729L14.1064 36.6776L14.0684 36.6324L13.8081 36.629L13.7667 36.6776L13.8821 36.8245L14.0491 36.8173ZM15.2324 39.1695L16.0814 39.1661L16.4113 39.3638H16.8386L17.5659 38.8765L17.9086 38.8722L18.133 38.733L18.1496 38.5374L17.8009 38.0916L17.3621 38.1885L17.2677 38.2902L16.5011 38.2859L16.1746 38.0937L15.9387 37.7978L15.5917 37.899L15.1892 37.5048H14.9354L14.6329 37.0159H14.379L14.191 37.2187L14.0175 37.2144L13.9423 37.1141L13.5291 36.9185L12.6694 35.941L12.5023 35.847H12.2485L11.9271 35.5545H11.499L10.9353 35.1603L10.3482 34.4301L10.3559 34.3357L10.1243 34.0359L9.85252 33.1596L9.63459 32.6685L9.65766 32.379L9.97302 31.694L9.84909 31.6453L9.47905 31.9391H9.14061L8.83851 31.4501H8.40991L8.24625 31.3528L8.01977 30.9616L7.42154 30.9586L7.01645 30.6691L6.75322 30.2292L6.78698 29.8384L6.71177 29.6429L6.51222 29.4994L5.48539 29.493L5.41146 29.3986H5.14824L5.07303 29.2974L4.82647 29.2L4.50855 28.9096L4.24917 28.9062L3.83383 29.2487L3.72999 29.5455L3.53856 29.7368L3.4266 30.128L3.14628 30.4239L3.08817 31.1021L3.16551 31.2067L3.15825 31.3041L3.23431 31.4014L3.20782 31.6889L3.34926 32.0881L3.88852 32.8637L3.86972 33.0593L4.19106 33.3522L4.1744 33.5538L4.31583 33.9385L4.62906 34.3297L4.69657 34.5249L4.66794 34.9161L4.73759 35.0164L4.60897 35.6028L5.0256 36.2382L5.18841 36.3322L5.44821 36.3351L5.54265 36.2412L5.75502 36.2835L5.73579 36.4855L5.64093 36.5794L5.71272 36.775L5.59521 37.1628L5.82809 37.4566L5.87852 37.8465L6.03619 38.0429L6.02551 38.1433L6.22464 38.3875L6.38103 38.4888L6.55879 38.4815L6.63357 38.5827L6.88868 38.6801L7.2066 38.9709L7.97448 38.9675L8.42059 38.7817L9.09617 38.7783L9.17864 38.8722L9.95293 38.8799L10.026 38.9739H10.285L10.3589 39.0678L10.787 39.0713L10.8832 38.9769L11.8246 38.9675L11.8985 39.0713H12.2433L12.3215 39.1661L13.4347 39.1725L13.5291 39.0713H13.6962L13.7744 39.1695L15.1371 39.2698L15.2324 39.1695ZM24.217 42.2856L23.9042 41.9931L23.6376 42.0935L23.6154 41.8428L23.7137 41.7523L23.5868 41.6019L23.5 41.7023L23.3244 41.6993L23.1714 41.505H23.003L22.724 41.6993L22.4702 41.6959L22.3792 41.7975H22.2091L22.1288 41.7023L22.045 41.71L21.8685 41.7066L21.0524 41.2172L20.59 40.6287L20.0995 40.3383L19.6713 40.3413L19.5781 40.4365H19.4081L19.317 40.5369L19.1406 40.5335L18.7842 40.7355L18.0915 40.8328L17.9095 40.9246L17.4454 41.4162L17.1916 41.4128L17.0066 41.5144L16.6831 41.8556L16.6746 41.9572L16.3583 42.1981L15.6575 42.3967L15.4174 42.6375L15.2854 43.2209L14.9089 43.7124L14.8666 44.1975L15.0559 44.5396L15.2187 44.6442L15.4725 44.637L16.0276 45.1328L16.6164 45.231L16.7002 45.325H16.954L17.0331 45.4189L17.5364 45.5163L17.7343 45.7678L17.7911 46.0573L17.9116 46.2042L18.3423 46.2072L18.5812 46.3964L18.9226 46.3994L19.0166 46.2982H19.1025L19.52 45.8618L19.6362 45.474L20.4272 44.7352L20.7891 44.543L21.2459 44.1489L21.8707 43.8559L22.592 43.4617L23.1056 43.3635L23.203 43.2632L23.6269 43.2666L24.4251 42.8724L24.6602 42.6311L24.6285 42.4812L24.217 42.2856ZM2.88519 30.4218L2.87793 30.5222L2.9181 30.5717H2.99929L3.048 30.5157L3.06595 30.33L3.02578 30.2749L2.88519 30.4218Z"/>
</mask>
<path d="M39.4537 23.6249L39.3362 23.478H39.1712L39.0285 23.6279L39.0136 23.8235L39.1426 24.3116L39.1216 24.6024L38.9259 24.8919L39.2567 25.0935L39.1225 25.6803L38.9396 25.8746L39.1404 26.1154L39.2738 25.9762L39.481 25.4804L39.5349 24.8031L39.3964 24.4055L39.4537 23.6249ZM37.197 22.3091L36.9654 22.55L37.0013 22.5987H37.0872L37.3231 22.3544L37.2838 22.3091H37.197ZM34.9605 24.113L34.8464 23.9725H34.6729L34.4742 23.7218L34.4964 23.4357L34.3789 23.2854L34.1636 23.3354L34.2195 23.7253L34.1127 23.9208L34.2439 23.9661L34.4375 24.2146L34.3242 24.6045L34.1349 24.7997L34.1593 25.044L34.5178 24.8484L34.7755 24.8454L35.1075 25.041L35.166 24.7967L35.2703 24.6024L34.949 24.315L34.9605 24.113ZM35.2502 22.55L35.131 22.4031L35.0831 22.4548L35.0771 22.55L35.1173 22.5987L35.2049 22.6051L35.2502 22.55ZM41.0681 11.4109L40.8262 11.1153L40.8629 10.6332L40.7001 9.99819L40.5352 9.90081H40.1058L39.9506 9.79961L39.8259 9.65269L39.8447 9.36316L39.6481 9.21626L39.5383 8.9754L39.5866 8.28828L39.5075 8.18707L39.5212 7.99233L39.3319 7.65027L39.1298 7.50933L39.0251 6.62707L38.911 6.48143H38.5644L38.0124 5.89167L37.8419 5.79645L37.3312 5.79346L37.2351 5.89465L36.8902 5.98903L36.5266 6.28584L36.2664 6.28883L36.1292 6.42847L36.1006 6.72442L35.9578 6.96956H35.8711L35.357 7.50337L35.2588 7.70493L35.222 8.18707L35.1331 8.2917L35.1053 8.57781L34.9152 8.87804L34.8802 9.35974L34.596 9.75391L34.4943 9.94949L34.5601 10.1408L34.5379 10.4316L34.3473 10.7272L34.3328 10.9227L34.655 11.2195L34.6994 11.7047L34.5156 11.9003L34.4922 12.1962L34.5725 12.2914L34.5516 12.5874L34.3601 12.7825L34.3106 12.9286L34.0418 13.0234L33.9055 13.1737L33.7448 13.5192L32.9611 13.7071L32.6936 13.9027L32.4376 13.9061L31.98 14.2969H31.8095L31.6668 14.4408L31.6446 14.7367L31.721 14.8379L31.7091 15.0228L31.7873 15.1245L31.7813 15.2257L31.8646 15.3201L31.833 15.6096L31.7441 15.7108L31.6022 16.3979L31.833 16.7887L31.8817 17.2802L32.0804 17.5211L32.3351 17.5181L32.5098 17.4237L32.6692 17.6184H32.8419L33.0248 17.5181L33.1124 17.4237L33.2342 17.4694L33.2012 17.9605L33.3153 18.1074L33.9119 18.2091L34.0969 18.0028H34.1802L34.2947 18.1595L34.1127 18.4491L34.0841 18.7458L34.1559 18.935L34.3652 18.9867L34.6456 19.2276L34.6169 19.6187L34.8477 20.0159L34.8327 20.2021L34.5336 20.6966L34.5114 20.9926L34.596 21.0844L34.5725 21.3739L34.69 21.5302L34.8549 21.5272L34.8981 21.0391L35.1182 21.5272L35.2908 21.4256L35.7822 21.8134L35.9527 21.8198L36.1809 21.5695L36.1006 21.4785L36.4749 21.0844L36.7244 20.6479H36.8988L37.2163 20.9409H37.4718L38.0282 21.5238H38.2871L38.5696 21.1331L38.7516 21.0357H38.9195L39.0644 20.8952L39.1755 20.5044L38.7354 20.0616L38.5644 20.1555L38.3939 20.0616L38.3029 20.1555H38.135L37.932 19.9147L37.9628 19.5248L38.1055 19.3779L38.3209 19.3292L38.2068 19.1823H37.9521L37.7637 19.3779L37.6487 19.231L38.0089 18.9414L37.844 18.8398L37.8504 18.7394L38.2247 18.3547L38.1974 18.2048L38.0303 18.1044L37.9085 18.0592L37.9277 17.7619L38.029 17.5663L38.361 17.1269L38.5738 17.0816L38.5867 16.98L38.2799 16.5901L38.2957 16.3945L38.4311 16.2476L38.7619 16.4462L38.9832 16.2976L39.0434 15.5186L38.802 15.3231L38.82 15.0271L39.4114 14.0496L39.5485 13.9061L39.7156 14.0009L40.122 13.6618L40.1357 13.4662L40.8343 12.1992L41.0228 11.9976L41.1296 11.7081L41.0523 11.6064L41.0681 11.4109ZM44.8357 14.1956L44.4075 14.1999L44.3639 14.2452L44.4836 14.3921H44.825L44.8673 14.3455L44.8357 14.1956ZM42.6692 12.2385L42.3273 12.2415L42.097 12.4828L42.6406 12.6356L42.9576 12.3948L42.9649 12.2936L42.7662 12.1445L42.6692 12.2385ZM44.419 12.3884L44.3776 12.3397L44.1464 12.584L44.14 12.6843L44.1746 12.7309L44.2678 12.6356H44.3588L44.3998 12.5904L44.419 12.3884ZM34.6456 25.9698L34.6298 26.1654L34.6708 26.2137H34.7609L34.8041 26.1654L34.8263 25.8746L34.7917 25.8293L34.6456 25.9698ZM42.8265 13.0721L42.5265 13.0268L42.3855 13.1703L42.3637 13.4662L42.4808 13.6132H42.7461L42.8794 13.4633L42.8952 13.2677L42.8192 13.1673L42.8265 13.0721ZM38.0132 2.37707L38.1119 2.27671H38.2863L38.743 2.9604L38.9067 3.06077L39.1259 3.01208L39.1439 2.71614L38.9883 2.52397L38.9969 2.42234L38.5589 1.98589L38.041 2.08112L37.8051 2.3254L38.0132 2.37707ZM33.8038 22.9929L33.7585 23.0381L33.7512 23.1334L33.7879 23.1885H33.9636L34.011 23.1389L33.8927 22.9929H33.8038ZM41.0681 6.28156L41.1082 6.2363L41.1232 6.04072L41.0091 5.89465H40.8365L40.7899 5.94037L40.786 6.04072L40.9792 6.28584L41.0681 6.28156ZM40.0541 4.28214L40.4177 4.62463L40.548 4.57593L40.5617 4.37309L40.2908 4.03828L39.9019 4.08698L40.031 4.13308L40.0541 4.28214ZM37.9183 1.93421L37.9393 1.64466L37.9055 1.59942L37.7701 1.64466L37.7406 2.03458L37.7808 2.0841L37.9183 1.93421ZM14.0491 36.8173L14.0987 36.7729L14.1064 36.6776L14.0684 36.6324L13.8081 36.629L13.7667 36.6776L13.8821 36.8245L14.0491 36.8173ZM15.2324 39.1695L16.0814 39.1661L16.4113 39.3638H16.8386L17.5659 38.8765L17.9086 38.8722L18.133 38.733L18.1496 38.5374L17.8009 38.0916L17.3621 38.1885L17.2677 38.2902L16.5011 38.2859L16.1746 38.0937L15.9387 37.7978L15.5917 37.899L15.1892 37.5048H14.9354L14.6329 37.0159H14.379L14.191 37.2187L14.0175 37.2144L13.9423 37.1141L13.5291 36.9185L12.6694 35.941L12.5023 35.847H12.2485L11.9271 35.5545H11.499L10.9353 35.1603L10.3482 34.4301L10.3559 34.3357L10.1243 34.0359L9.85252 33.1596L9.63459 32.6685L9.65766 32.379L9.97302 31.694L9.84909 31.6453L9.47905 31.9391H9.14061L8.83851 31.4501H8.40991L8.24625 31.3528L8.01977 30.9616L7.42154 30.9586L7.01645 30.6691L6.75322 30.2292L6.78698 29.8384L6.71177 29.6429L6.51222 29.4994L5.48539 29.493L5.41146 29.3986H5.14824L5.07303 29.2974L4.82647 29.2L4.50855 28.9096L4.24917 28.9062L3.83383 29.2487L3.72999 29.5455L3.53856 29.7368L3.4266 30.128L3.14628 30.4239L3.08817 31.1021L3.16551 31.2067L3.15825 31.3041L3.23431 31.4014L3.20782 31.6889L3.34926 32.0881L3.88852 32.8637L3.86972 33.0593L4.19106 33.3522L4.1744 33.5538L4.31583 33.9385L4.62906 34.3297L4.69657 34.5249L4.66794 34.9161L4.73759 35.0164L4.60897 35.6028L5.0256 36.2382L5.18841 36.3322L5.44821 36.3351L5.54265 36.2412L5.75502 36.2835L5.73579 36.4855L5.64093 36.5794L5.71272 36.775L5.59521 37.1628L5.82809 37.4566L5.87852 37.8465L6.03619 38.0429L6.02551 38.1433L6.22464 38.3875L6.38103 38.4888L6.55879 38.4815L6.63357 38.5827L6.88868 38.6801L7.2066 38.9709L7.97448 38.9675L8.42059 38.7817L9.09617 38.7783L9.17864 38.8722L9.95293 38.8799L10.026 38.9739H10.285L10.3589 39.0678L10.787 39.0713L10.8832 38.9769L11.8246 38.9675L11.8985 39.0713H12.2433L12.3215 39.1661L13.4347 39.1725L13.5291 39.0713H13.6962L13.7744 39.1695L15.1371 39.2698L15.2324 39.1695ZM24.217 42.2856L23.9042 41.9931L23.6376 42.0935L23.6154 41.8428L23.7137 41.7523L23.5868 41.6019L23.5 41.7023L23.3244 41.6993L23.1714 41.505H23.003L22.724 41.6993L22.4702 41.6959L22.3792 41.7975H22.2091L22.1288 41.7023L22.045 41.71L21.8685 41.7066L21.0524 41.2172L20.59 40.6287L20.0995 40.3383L19.6713 40.3413L19.5781 40.4365H19.4081L19.317 40.5369L19.1406 40.5335L18.7842 40.7355L18.0915 40.8328L17.9095 40.9246L17.4454 41.4162L17.1916 41.4128L17.0066 41.5144L16.6831 41.8556L16.6746 41.9572L16.3583 42.1981L15.6575 42.3967L15.4174 42.6375L15.2854 43.2209L14.9089 43.7124L14.8666 44.1975L15.0559 44.5396L15.2187 44.6442L15.4725 44.637L16.0276 45.1328L16.6164 45.231L16.7002 45.325H16.954L17.0331 45.4189L17.5364 45.5163L17.7343 45.7678L17.7911 46.0573L17.9116 46.2042L18.3423 46.2072L18.5812 46.3964L18.9226 46.3994L19.0166 46.2982H19.1025L19.52 45.8618L19.6362 45.474L20.4272 44.7352L20.7891 44.543L21.2459 44.1489L21.8707 43.8559L22.592 43.4617L23.1056 43.3635L23.203 43.2632L23.6269 43.2666L24.4251 42.8724L24.6602 42.6311L24.6285 42.4812L24.217 42.2856ZM2.88519 30.4218L2.87793 30.5222L2.9181 30.5717H2.99929L3.048 30.5157L3.06595 30.33L3.02578 30.2749L2.88519 30.4218Z" fill="#678B28" fill-opacity="0.4" stroke="#678B28" stroke-opacity="0.4" mask="url(#path-1-inside-1)"/>
</svg>
