<svg width="16" height="16" viewBox="0 0 16 16" fill="none" xmlns="http://www.w3.org/2000/svg">
<path d="M13.933 1.3335H2.06634C1.87185 1.3335 1.68532 1.41076 1.5478 1.54828C1.41027 1.68581 1.33301 1.87234 1.33301 2.06683V13.9335C1.33301 14.0298 1.35198 14.1252 1.38883 14.2141C1.42568 14.3031 1.4797 14.3839 1.5478 14.452C1.61589 14.5201 1.69673 14.5742 1.78571 14.611C1.87468 14.6479 1.97004 14.6668 2.06634 14.6668H8.45301V9.50016H6.71967V7.50016H8.45301V6.00016C8.4171 5.648 8.45868 5.29225 8.57482 4.95785C8.69096 4.62346 8.87885 4.31853 9.12532 4.06444C9.37179 3.81035 9.67086 3.61326 10.0016 3.48699C10.3323 3.36072 10.6866 3.30833 11.0397 3.3335C11.5586 3.3303 12.0772 3.35701 12.593 3.4135V5.2135H11.533C10.693 5.2135 10.533 5.6135 10.533 6.1935V7.48016H12.533L12.273 9.48016H10.533V14.6668H13.933C14.0293 14.6668 14.1247 14.6479 14.2136 14.611C14.3026 14.5742 14.3835 14.5201 14.4516 14.452C14.5197 14.3839 14.5737 14.3031 14.6105 14.2141C14.6474 14.1252 14.6663 14.0298 14.6663 13.9335V2.06683C14.6663 1.97053 14.6474 1.87517 14.6105 1.78619C14.5737 1.69722 14.5197 1.61638 14.4516 1.54828C14.3835 1.48019 14.3026 1.42617 14.2136 1.38932C14.1247 1.35246 14.0293 1.3335 13.933 1.3335Z" fill="#3B5998"/>
</svg>
