<svg width="16" height="16" viewBox="0 0 16 16" fill="none" xmlns="http://www.w3.org/2000/svg">
<path d="M13.6464 1.33335H2.35305C2.2261 1.33158 2.10005 1.35484 1.98209 1.4018C1.86413 1.44876 1.75658 1.51849 1.66558 1.60702C1.57457 1.69555 1.5019 1.80113 1.45171 1.91775C1.40152 2.03437 1.37479 2.15973 1.37305 2.28668V13.7133C1.37479 13.8403 1.40152 13.9657 1.45171 14.0823C1.5019 14.1989 1.57457 14.3045 1.66558 14.393C1.75658 14.4815 1.86413 14.5513 1.98209 14.5982C2.10005 14.6452 2.2261 14.6684 2.35305 14.6667H13.6464C13.7733 14.6684 13.8994 14.6452 14.0173 14.5982C14.1353 14.5513 14.2428 14.4815 14.3338 14.393C14.4249 14.3045 14.4975 14.1989 14.5477 14.0823C14.5979 13.9657 14.6246 13.8403 14.6264 13.7133V2.28668C14.6246 2.15973 14.5979 2.03437 14.5477 1.91775C14.4975 1.80113 14.4249 1.69555 14.3338 1.60702C14.2428 1.51849 14.1353 1.44876 14.0173 1.4018C13.8994 1.35484 13.7733 1.33158 13.6464 1.33335ZM5.39305 12.4933H3.39305V6.49334H5.39305V12.4933ZM4.39305 5.65334C4.11722 5.65334 3.85269 5.54377 3.65766 5.34874C3.46262 5.1537 3.35305 4.88917 3.35305 4.61334C3.35305 4.33752 3.46262 4.07299 3.65766 3.87795C3.85269 3.68292 4.11722 3.57334 4.39305 3.57334C4.53951 3.55673 4.68783 3.57125 4.8283 3.61593C4.96876 3.66062 5.09821 3.73447 5.20815 3.83265C5.3181 3.93083 5.40606 4.05113 5.46629 4.18567C5.52652 4.3202 5.55766 4.46594 5.55766 4.61334C5.55766 4.76075 5.52652 4.90649 5.46629 5.04102C5.40606 5.17556 5.3181 5.29586 5.20815 5.39404C5.09821 5.49222 4.96876 5.56607 4.8283 5.61076C4.68783 5.65544 4.53951 5.66995 4.39305 5.65334ZM12.6064 12.4933H10.6064V9.27334C10.6064 8.46668 10.3197 7.94001 9.59305 7.94001C9.36816 7.94166 9.14917 8.0122 8.9656 8.14213C8.78204 8.27205 8.6427 8.45513 8.56638 8.66668C8.51421 8.82337 8.4916 8.98839 8.49971 9.15334V12.4867H6.49971C6.49971 12.4867 6.49971 7.03334 6.49971 6.48668H8.49971V7.33334C8.6814 7.01808 8.94565 6.75836 9.26401 6.58215C9.58236 6.40593 9.94276 6.31991 10.3064 6.33334C11.6397 6.33334 12.6064 7.19335 12.6064 9.04001V12.4933Z" fill="#0E76A8"/>
</svg>
