<svg width="16" height="16" viewBox="0 0 16 16" fill="none" xmlns="http://www.w3.org/2000/svg">
<path d="M14.6663 3.86656C14.1652 4.08396 13.6353 4.22767 13.093 4.29323C13.6651 3.95144 14.0939 3.41375 14.2997 2.7799C13.762 3.09994 13.1735 3.32543 12.5597 3.44656C12.1494 3.00161 11.603 2.70543 11.0062 2.60446C10.4094 2.5035 9.79604 2.60347 9.2622 2.88869C8.72837 3.17391 8.3043 3.62825 8.0565 4.18045C7.80871 4.73266 7.7512 5.35149 7.89301 5.9399C6.80596 5.88491 5.74264 5.60186 4.77211 5.10914C3.80159 4.61641 2.94557 3.92502 2.25967 3.0799C2.0191 3.50001 1.89269 3.97578 1.89301 4.4599C1.89215 4.90948 2.00249 5.35231 2.21418 5.74894C2.42587 6.14557 2.73235 6.4837 3.10634 6.73323C2.67166 6.7214 2.24626 6.60476 1.86634 6.39323V6.42656C1.8696 7.05649 2.09034 7.66596 2.49122 8.15187C2.8921 8.63779 3.44851 8.97032 4.06634 9.09323C3.82851 9.16561 3.58159 9.20377 3.33301 9.20656C3.16093 9.20455 2.98929 9.18895 2.81967 9.1599C2.99561 9.70177 3.33609 10.1753 3.79372 10.5147C4.25136 10.854 4.80339 11.0423 5.37301 11.0532C4.41114 11.8101 3.2236 12.2231 1.99967 12.2266C1.77683 12.2273 1.55416 12.2139 1.33301 12.1866C2.58263 12.9934 4.03888 13.4217 5.52634 13.4199C6.5528 13.4306 7.5711 13.2366 8.52175 12.8493C9.4724 12.462 10.3364 11.8892 11.0631 11.1642C11.7899 10.4393 12.365 9.57682 12.7547 8.62717C13.1444 7.67751 13.341 6.65971 13.333 5.63323C13.333 5.5199 13.333 5.3999 13.333 5.2799C13.8561 4.88977 14.3073 4.41151 14.6663 3.86656Z" fill="#00ACEE"/>
</svg>
