<svg width="16" height="16" viewBox="0 0 16 16" fill="none" xmlns="http://www.w3.org/2000/svg">
<path fill-rule="evenodd" clip-rule="evenodd" d="M3.33301 3.28325C5.93301 0.683252 10.133 0.683252 12.733 3.28325C13.933 4.54992 14.6663 6.21658 14.5997 7.94992C14.5997 11.6166 11.6663 14.5499 7.99967 14.5499C6.93301 14.5499 5.86634 14.2833 4.86634 13.7499L1.33301 14.6833L2.26634 11.2833C0.799675 8.68325 1.19967 5.41659 3.33301 3.28325ZM10.4997 9.08327C10.2497 8.9666 9.99968 8.84993 9.93301 8.81659C9.79967 8.74993 9.66634 8.74993 9.53301 8.88326C9.46634 8.94993 9.36634 9.08326 9.26634 9.21659C9.16634 9.34993 9.06634 9.48326 8.99967 9.54993C8.93301 9.68326 8.79967 9.68326 8.66634 9.61659C8.19967 9.41659 7.73301 9.14993 7.33301 8.81659C6.99967 8.48326 6.66634 8.08326 6.39967 7.68326C6.33301 7.54993 6.39967 7.41659 6.46634 7.34993C6.48653 7.32974 6.50671 7.30344 6.52875 7.27474C6.57949 7.20863 6.64004 7.12974 6.73301 7.08326C6.79967 7.01659 6.86634 6.88326 6.86634 6.81659C6.93301 6.74993 6.93301 6.61659 6.86634 6.54993C6.79967 6.48326 6.46634 5.68326 6.33301 5.34993C6.26634 4.88326 6.13301 4.88326 5.99967 4.88326H5.66634C5.53301 4.88326 5.33301 5.01659 5.26634 5.08326C4.86634 5.48326 4.66634 5.94993 4.66634 6.48326C4.73301 7.08326 4.93301 7.68326 5.33301 8.21659C6.06634 9.28326 6.99967 10.1499 8.13301 10.6833C8.209 10.7137 8.28153 10.7441 8.35218 10.7737C8.5914 10.8739 8.809 10.9651 9.06634 11.0166C9.39967 11.1499 9.73301 11.1499 10.133 11.0833C10.5997 11.0166 10.9997 10.6833 11.2663 10.2833C11.3997 10.0166 11.3997 9.74993 11.333 9.48326L11.0663 9.34993C10.9997 9.31659 10.7497 9.19994 10.4997 9.08327Z" fill="#25D366"/>
</svg>
