<svg width="122" height="43" viewBox="0 0 122 43" fill="none" xmlns="http://www.w3.org/2000/svg">
<g clip-path="url(#clip0)">
<path d="M59.0518 21.1934C58.7888 21.1934 58.5395 21.0384 58.4575 20.7043C58.2901 20.0188 58.0989 19.3506 57.9042 18.6927H53.9455C53.7645 19.3506 53.5698 20.0188 53.4059 20.7043C53.3239 21.0384 53.0746 21.1934 52.8252 21.1934C52.4803 21.1934 52.1182 20.9006 52.2309 20.4253C53.0199 17.2151 54.0036 14.308 55.1547 11.4457C55.3903 10.8739 55.667 10.7603 55.9436 10.7603C56.2203 10.7603 56.5106 10.8705 56.7463 11.4457C57.9076 14.308 58.8776 17.2151 59.6666 20.4253C59.7861 20.9006 59.4104 21.1934 59.0518 21.1934ZM55.9232 12.7856C55.3288 14.3355 54.7755 15.8993 54.2632 17.5492H57.5865C57.0844 15.9028 56.5311 14.3355 55.9232 12.7856Z" fill="black"/>
<path d="M63.4819 21.1796C60.9066 21.1796 59.9639 19.4195 59.9639 16.7949V15.145C59.9639 12.6306 60.9475 10.7603 63.5639 10.7603C64.4075 10.7603 65.3229 10.9841 65.9035 11.6248C66.0709 11.7626 66.1392 11.9314 66.1392 12.0864C66.1392 12.3653 65.9445 12.6443 65.5585 12.6443C65.3502 12.6581 65.2272 12.5307 65.0052 12.3653C64.6329 12.0588 64.1479 11.9038 63.5673 11.9038C61.9483 11.9038 61.214 13.006 61.214 15.1725V16.7776C61.214 19.0544 61.9073 20.0464 63.4853 20.0464C64.9403 20.0464 65.5483 19.1543 65.5483 17.7283V16.9877H63.8849C63.5673 16.9877 63.3043 16.7225 63.3043 16.4022C63.3043 16.0819 63.5673 15.8166 63.8849 15.8166H66.1563C66.5012 15.8166 66.7506 16.0819 66.7506 16.4435V17.7007C66.7506 19.6709 65.7669 21.1796 63.4819 21.1796Z" fill="black"/>
<path d="M68.4957 21.1934C68.1507 21.1934 67.874 20.9144 67.874 20.563V11.3906C67.874 11.0565 68.1507 10.7603 68.4957 10.7603C68.8406 10.7603 69.1173 11.053 69.1173 11.3906V20.5665C69.1207 20.9144 68.844 21.1934 68.4957 21.1934Z" fill="black"/>
<path d="M76.488 21.1934C76.266 21.1934 76.0747 21.0969 75.9484 20.8317C75.2823 19.5056 74.5207 18.1795 73.6907 16.8672H71.8224V20.5665C71.8224 20.9144 71.5457 21.1934 71.2007 21.1934C70.8558 21.1934 70.5791 20.9144 70.5791 20.5665V11.518C70.5791 11.1839 70.8558 10.8877 71.2007 10.8877H73.8307C76.0747 10.8877 77.0448 12.0347 77.0448 13.5537V14.153C77.0448 15.269 76.406 16.3161 75.0227 16.6536C75.7708 17.8695 76.4778 19.0682 77.0721 20.2978C77.318 20.7904 76.8876 21.1934 76.488 21.1934ZM75.7947 13.5537C75.7947 12.7718 75.2687 12.0588 73.8136 12.0588H71.8189V15.7064H73.8C75.1833 15.7064 75.7947 14.9521 75.7947 14.1564V13.5537Z" fill="black"/>
<path d="M55.5474 32.8046H52.7843C52.4735 32.8046 52.2207 32.5532 52.2207 32.2363V24.1867C52.2207 23.8836 52.47 23.6184 52.7843 23.6184H55.2708C57.1835 23.6184 57.9452 24.6655 57.9452 25.8883V26.2534C57.9452 27.173 57.508 27.7655 56.7463 28.0824C57.7334 28.3855 58.3209 29.1295 58.3209 30.1111V30.4521C58.3243 31.8092 57.6104 32.8046 55.5474 32.8046ZM56.8351 26.0123C56.8351 25.2545 56.374 24.6896 55.2605 24.6896H53.3478V27.6656H54.7106C55.9744 27.6656 56.8351 27.3625 56.8351 26.367V26.0123ZM57.2108 30.0457C57.2108 29.188 56.5106 28.6851 55.3493 28.6851H53.3478V31.7472H55.5235C56.8488 31.7472 57.2108 31.1548 57.2108 30.3488V30.0457Z" fill="#0075BB"/>
<path d="M59.9229 32.9182C59.6121 32.9182 59.3594 32.6668 59.3594 32.3499V24.073C59.3594 23.7699 59.6087 23.5046 59.9229 23.5046C60.2372 23.5046 60.4865 23.7699 60.4865 24.073V32.3533C60.4831 32.6668 60.2338 32.9182 59.9229 32.9182Z" fill="#0075BB"/>
<path d="M64.7209 32.9182C62.371 32.9182 61.5957 31.2304 61.5957 29.5151V26.9077C61.5957 25.1924 62.371 23.5046 64.7209 23.5046C67.0572 23.5046 67.8325 25.1924 67.8325 26.9077V29.5186C67.8325 31.2304 67.0572 32.9182 64.7209 32.9182ZM66.719 26.9077C66.719 25.5954 66.2306 24.5517 64.7209 24.5517C63.1976 24.5517 62.7194 25.5851 62.7194 26.9077V29.5186C62.7194 30.8412 63.2078 31.8883 64.7209 31.8883C66.2204 31.8883 66.719 30.8412 66.719 29.5186V26.9077Z" fill="#0075BB"/>
<path d="M71.9559 32.8046H69.5206C69.2098 32.8046 68.957 32.5532 68.957 32.2363V24.1867C68.957 23.8836 69.2064 23.6184 69.5206 23.6184H71.9559C74.743 23.6184 75.1665 25.6609 75.1665 27.0456V29.4016C75.1665 30.7656 74.743 32.8046 71.9559 32.8046ZM74.0428 27.0594C74.0428 25.8745 73.7047 24.7034 71.8944 24.7034H70.0807V31.7472H71.8944C73.7047 31.7472 74.0428 30.5623 74.0428 29.3912V27.0594Z" fill="#0075BB"/>
<path d="M76.8536 32.9182C76.5394 32.9182 76.29 32.6668 76.29 32.3499V24.073C76.29 23.7699 76.5394 23.5046 76.8536 23.5046C77.1644 23.5046 77.4172 23.7699 77.4172 24.073V32.3533C77.4172 32.6668 77.1678 32.9182 76.8536 32.9182Z" fill="#0075BB"/>
<path d="M82.3765 32.3533C82.2262 32.7563 82.0008 32.9216 81.7139 32.9216C81.3894 32.9216 81.1777 32.7701 81.0274 32.343C80.0027 29.4807 79.1147 26.7837 78.3769 24.2383C78.2505 23.7974 78.6023 23.5081 78.9405 23.5081C79.1659 23.5081 79.3777 23.6458 79.4528 23.9248C80.1052 26.143 80.8668 28.561 81.7549 31.0444C82.6429 28.561 83.4285 26.1293 84.0775 23.8973C84.1526 23.6321 84.3507 23.5081 84.5522 23.5081C84.8767 23.5081 85.2012 23.7836 85.0782 24.19C84.3405 26.7458 83.4285 29.4669 82.3765 32.3533Z" fill="#0075BB"/>
<path d="M90.686 32.8046H86.338C86.0374 32.8046 85.8018 32.5635 85.8018 32.2639V24.1592C85.8018 23.8698 86.0408 23.6184 86.338 23.6184H90.4981C90.7987 23.6184 91.0344 23.8698 91.0344 24.1592C91.0344 24.4623 90.7953 24.7 90.4981 24.7H86.9255V27.6863H90.1873C90.4742 27.6863 90.6997 27.9239 90.6997 28.2167C90.6997 28.506 90.4742 28.7471 90.1873 28.7471H86.9255V31.7231H90.686C90.9866 31.7231 91.2222 31.9608 91.2222 32.2639C91.2222 32.567 90.9729 32.8046 90.686 32.8046Z" fill="#0075BB"/>
<path d="M97.3224 32.9183C97.1243 32.9183 96.9467 32.8288 96.834 32.5911C96.2328 31.3959 95.5463 30.1972 94.7949 29.0124H93.1076V32.3534C93.1076 32.6703 92.8583 32.9218 92.544 32.9218C92.2298 32.9218 91.9805 32.6703 91.9805 32.3534V24.1867C91.9805 23.8836 92.2298 23.6184 92.544 23.6184H94.9178C96.9433 23.6184 97.8177 24.6517 97.8177 26.026V26.5668C97.8177 27.576 97.2438 28.5198 95.9937 28.8229C96.67 29.9182 97.3053 31.0032 97.845 32.1123C98.0704 32.5532 97.6844 32.9183 97.3224 32.9183ZM96.6974 26.026C96.6974 25.3199 96.2226 24.6758 94.911 24.6758H93.111V27.9653H94.8973C96.1474 27.9653 96.6974 27.2833 96.6974 26.5668V26.026Z" fill="#0075BB"/>
<path d="M101.408 32.9182C100.472 32.9182 99.7204 32.8045 99.0066 32.5152C98.7572 32.4153 98.6445 32.2121 98.6445 31.9985C98.6445 31.7229 98.8461 31.4577 99.1432 31.4577C99.3686 31.4577 99.5804 31.6472 100.205 31.7746C100.492 31.8366 100.854 31.8883 101.319 31.8883C102.842 31.8883 103.532 31.196 103.532 30.2005C103.532 29.4324 103.146 29.0914 102.32 28.84C101.647 28.6368 100.482 28.5231 99.7956 28.1855C99.133 27.8583 98.6719 27.29 98.6719 26.2326C98.6719 24.5069 99.9356 23.5115 101.609 23.5115C102.385 23.5115 103.057 23.601 103.682 23.8628C103.945 23.9627 104.058 24.1659 104.058 24.3657C104.058 24.6412 103.86 24.9065 103.532 24.9065C103.331 24.9065 103.146 24.7549 102.62 24.6412C102.381 24.5896 102.07 24.5517 101.671 24.5517C100.496 24.5517 99.7956 25.1579 99.7956 26.1154C99.7956 26.9214 100.257 27.2245 101.032 27.4381C101.869 27.6792 103.068 27.755 103.758 28.22C104.345 28.6092 104.656 29.2016 104.656 30.0972C104.659 31.9124 103.372 32.9182 101.408 32.9182Z" fill="#0075BB"/>
<path d="M106.333 32.9182C106.019 32.9182 105.77 32.6668 105.77 32.3499V24.073C105.77 23.7699 106.019 23.5046 106.333 23.5046C106.644 23.5046 106.897 23.7699 106.897 24.073V32.3533C106.893 32.6668 106.644 32.9182 106.333 32.9182Z" fill="#0075BB"/>
<path d="M114.169 24.7137H111.805V32.35C111.805 32.6669 111.556 32.9183 111.242 32.9183C110.931 32.9183 110.678 32.6669 110.678 32.35V24.7137H108.315C108.014 24.7137 107.778 24.4726 107.778 24.173C107.778 23.8699 108.017 23.6184 108.315 23.6184H114.162C114.463 23.6184 114.712 23.8699 114.712 24.173C114.715 24.4761 114.466 24.7137 114.169 24.7137Z" fill="#0075BB"/>
<path d="M120.5 32.8047H116.152C115.852 32.8047 115.616 32.5636 115.616 32.2639V24.1592C115.616 23.8699 115.855 23.6184 116.152 23.6184H120.313C120.613 23.6184 120.849 23.8699 120.849 24.1592C120.849 24.4623 120.613 24.7 120.313 24.7H116.74V27.6863H120.002C120.289 27.6863 120.514 27.9274 120.514 28.2167C120.514 28.5061 120.289 28.7472 120.002 28.7472H116.74V31.7231H120.5C120.801 31.7231 121.037 31.9642 121.037 32.2639C121.037 32.5636 120.791 32.8047 120.5 32.8047ZM118.202 22.5472C118.065 22.7746 117.84 22.8503 117.628 22.7367C117.43 22.6368 117.317 22.3957 117.44 22.1683L118.379 20.4289C118.492 20.2154 118.755 20.0638 119.042 20.2154C119.305 20.3669 119.343 20.6562 119.23 20.8595L118.202 22.5472Z" fill="#0075BB"/>
<path d="M83.5919 21.1348C83.1786 21.1348 82.6458 21.0005 82.1881 20.6526V22.764C82.1881 22.9672 82.031 23.1222 81.8329 23.1222C81.6314 23.1222 81.4777 22.9638 81.4777 22.764V16.7432C81.4777 16.261 81.3991 16.1266 81.1532 16.013C81.0302 15.9578 80.9756 15.8545 80.9756 15.7443C80.9756 15.5204 81.1429 15.4067 81.3308 15.4067C81.4742 15.4067 81.686 15.486 81.8534 15.641C81.9422 15.7202 82.0105 15.8201 82.0651 15.9337C82.5228 15.5858 83.0557 15.4067 83.5577 15.4067C85.0059 15.4067 85.5729 16.2162 85.5729 17.6215V18.6893C85.5729 20.1118 85.0401 21.1348 83.5919 21.1348ZM84.8625 17.5836C84.8625 16.5709 84.5073 16.0543 83.4826 16.0543C83.0932 16.0543 82.6253 16.2231 82.1881 16.5951V19.8879C82.6014 20.3495 83.1479 20.4838 83.5133 20.4838C84.4594 20.4838 84.8625 19.8672 84.8625 18.765V17.5836Z" fill="black"/>
<path d="M88.3163 21.1348C86.7657 21.1348 86.1543 20.1015 86.1543 18.8443V17.6973C86.1543 16.4401 86.7657 15.4033 88.3163 15.4033C89.8636 15.4033 90.4784 16.4366 90.4784 17.6973V18.8443C90.4784 20.1015 89.867 21.1348 88.3163 21.1348ZM89.7645 17.6973C89.7645 16.7294 89.3513 16.0922 88.3163 16.0922C87.2678 16.0922 86.8545 16.7329 86.8545 17.6973V18.8443C86.8545 19.8225 87.2678 20.4632 88.3163 20.4632C89.3513 20.4632 89.7645 19.8225 89.7645 18.8443V17.6973Z" fill="black"/>
<path d="M95.6048 21.1348C95.4614 21.1348 95.2257 21.0453 95.0583 20.9006C94.9251 20.7663 94.8466 20.6078 94.8022 20.439C94.4128 20.8765 93.8458 21.1348 93.0432 21.1348C91.6496 21.1348 91.2363 20.2462 91.2363 19.1233V15.7615C91.2363 15.5721 91.4037 15.4033 91.5915 15.4033C91.7931 15.4033 91.9468 15.5721 91.9468 15.7615V19.0647C91.9468 19.9189 92.1824 20.4356 93.1388 20.4356C93.9415 20.4356 94.4435 20.0981 94.6997 19.5469V15.765C94.6997 15.5755 94.8568 15.4068 95.0549 15.4068C95.2564 15.4068 95.4101 15.5755 95.4101 15.765V19.7984C95.4101 20.2944 95.5229 20.4287 95.7654 20.5389C95.8883 20.5837 95.943 20.6836 95.943 20.8076C95.9498 21.0246 95.7961 21.1348 95.6048 21.1348Z" fill="black"/>
<path d="M99.3957 16.1818C99.2727 16.1473 99.1053 16.1025 98.7945 16.1025C98.3266 16.1025 97.6128 16.2472 97.4249 17.3046V20.7766C97.4249 20.9798 97.2575 21.1348 97.0697 21.1348C96.8682 21.1348 96.7145 20.9764 96.7145 20.7766V16.8086C96.7145 16.3264 96.5915 16.1921 96.3456 16.0784C96.2226 16.0233 96.168 15.92 96.168 15.8098C96.168 15.6065 96.3012 15.4722 96.5232 15.4722C96.5471 15.4722 96.5915 15.4825 96.6222 15.4825C97.056 15.5962 97.2575 15.8855 97.3463 16.2024C97.804 15.5067 98.4598 15.4033 98.8833 15.4033C99.2078 15.4033 99.4503 15.4481 99.6416 15.517C99.8294 15.5962 99.8875 15.8098 99.809 15.9785C99.7406 16.1232 99.5938 16.2369 99.3957 16.1818Z" fill="black"/>
<path d="M103.44 21.135C103.283 21.135 103.05 21.0454 102.893 20.9008C102.637 20.6631 102.538 20.329 102.538 19.9914V13.2921C102.538 13.0888 102.695 12.9338 102.893 12.9338C103.081 12.9338 103.238 13.0923 103.238 13.2921V19.7985C103.238 20.2945 103.361 20.4289 103.607 20.5391C103.73 20.5839 103.785 20.6838 103.785 20.8078C103.785 21.0248 103.631 21.135 103.44 21.135Z" fill="black"/>
<path d="M108.222 21.1348C108.054 21.1348 107.832 21.0453 107.689 20.9006C107.576 20.8007 107.511 20.6526 107.467 20.5079C107.064 21.0246 106.398 21.1383 105.896 21.1383C104.502 21.1383 103.979 20.3977 103.979 19.5297V19.4402C103.979 18.5653 104.536 17.8557 105.964 17.8557H107.357V17.5526C107.357 16.5296 107.135 16.0336 106.063 16.0336C105.506 16.0336 105.148 16.168 104.861 16.3368C104.482 16.5503 104.161 16.0233 104.526 15.7856C104.939 15.5273 105.462 15.4033 106.087 15.4033C107.668 15.4033 108.071 16.2128 108.071 17.594V19.7949C108.071 20.2772 108.16 20.4253 108.396 20.5355C108.519 20.5906 108.573 20.6802 108.573 20.8042C108.567 21.0246 108.409 21.1348 108.222 21.1348ZM107.351 18.4516H106.002C104.932 18.4516 104.687 18.9476 104.687 19.4402V19.5401C104.687 20.0464 104.943 20.5286 105.981 20.5286C106.849 20.5286 107.351 20.0912 107.351 19.1922V18.4516Z" fill="black"/>
<path d="M42.3526 0.285889H0.283203V42.7107H42.3526V0.285889Z" fill="white"/>
<path d="M0 43V0H42.6398V42.7107V42.9966H0V43ZM42.3529 42.7107V42.4248V42.7107ZM0.570398 42.4248H42.0694V0.571772H0.570398V42.4248Z" fill="black"/>
<path d="M41.1848 41.519V1.58447H1.44141V41.5568L41.1848 41.519Z" fill="#0075BB"/>
<path d="M22.2456 5.43522C21.7708 4.28823 21.0364 2.10792 17.1905 2.13203C13.3446 2.15615 12.1321 5.88988 12.0843 6.29632C12.0365 6.70276 12.2721 8.92785 11.5139 9.64773C10.7522 10.3642 8.33058 11.8039 7.09756 13.5503C5.86455 15.3 4.60421 19.0338 4.10553 20.0154C3.60686 20.9971 2.27821 21.9064 1.43457 21.9925V23.2738C1.43457 23.2738 6.45544 24.4725 7.30933 24.6619C8.16322 24.8548 9.73095 25.0684 10.0384 25.4266C10.3458 25.7882 11.0596 28.4439 11.0596 28.4439H13.6452L14.5025 30.359H18.5602L19.2945 28.995L15.0456 29.3532L14.6664 28.4198L15.3086 28.3957L15.855 27.1281L14.3829 27.2728C14.3829 27.2728 13.956 25.5712 15.8311 23.5115C17.7063 21.4517 20.4114 18.4826 20.8178 14.1978C20.8178 14.1978 21.3165 14.2701 21.6034 14.029C21.6034 14.029 21.6273 17.2599 23.0994 19.8948C24.5715 22.5298 26.6584 23.6079 28.2023 24.0626C29.4626 24.2624 28.6292 25.6401 28.3935 26.2188C28.1579 26.794 28.0622 27.1763 27.5397 27.1281C27.0171 27.0799 24.5237 26.8388 24.5237 26.8388L25.2342 28.0133H28.1545C28.1545 28.0133 28.7249 27.4381 29.3158 26.0982C29.9101 24.7584 30.2414 24.7342 30.9313 25.9295C31.2387 27.2211 31.003 28.7298 30.8357 29.088C30.6717 29.4496 30.1252 29.305 30.1252 29.305L26.9419 28.995L27.7719 30.359H31.1192C31.1192 30.359 31.307 30.6001 31.7374 28.6368C32.1643 26.6734 32.6869 26.4806 33.9916 26.36C35.2964 26.2395 37.3628 26.6493 38.4558 26.6493C39.5488 26.6493 40.6861 26.3841 41.1882 26.1706V24.996C41.1882 24.996 39.6205 25.3301 37.8649 20.2324C36.1093 15.1312 35.2793 14.2219 31.3378 10.1988C31.3378 10.1988 30.8869 9.93707 30.8869 9.19307C30.8869 8.44908 30.7195 4.47768 27.1605 3.54424C23.5981 2.61081 22.2456 5.43522 22.2456 5.43522Z" fill="white"/>
<path d="M22.3169 6.79934C22.0471 6.79934 21.1146 2.45939 17.7264 2.79349C14.3382 3.13104 12.9139 4.61214 12.6782 7.21267C12.726 8.75921 12.6065 9.47909 12.1795 9.93375C11.7526 10.3884 8.66834 12.4241 7.71882 13.8122C6.76929 15.2003 5.10592 19.5092 5.10592 19.5092C5.10592 19.5092 4.36816 21.8549 2.1378 22.4748C2.1378 22.4748 1.85431 22.716 2.58865 22.8365C3.323 22.9536 9.97308 24.7998 11.8482 24.5346C13.7234 24.2728 13.7473 24.1282 14.6251 22.6436C15.5029 21.1591 17.5215 20.9903 18.2353 16.2267C18.9457 11.4631 18.9936 11.749 19.4444 11.3907C19.8953 11.0291 20.3734 13.3782 20.633 13.5435C20.8926 13.7123 21.3913 13.9052 23.8846 12.3001C24.2399 12.0383 24.2877 11.8936 24.3833 11.9418C24.4789 11.9901 25.2167 13.5469 27.4471 13.4505C29.6808 13.3541 30.1078 13.2369 30.9856 14.5045C31.86 15.7755 31.9112 19.1269 31.9556 20.9696C32.0034 22.8124 32.0034 24.2281 32.5738 25.0616C33.1408 25.902 35.945 25.1339 37.2497 25.8056C37.2497 25.8056 40.2178 25.9985 40.17 25.5197C40.1222 25.0409 39.0053 25.2338 37.5332 21.4484C36.512 17.7629 35.3712 15.3656 32.3347 12.2071C32.3347 12.2071 30.603 10.4849 30.4118 10.0784C30.2205 9.67198 30.1044 8.81087 30.0805 8.23566C30.0566 7.66044 29.4862 4.2367 25.9476 4.02315C22.4125 4.28492 22.7438 6.79934 22.3169 6.79934Z" fill="black"/>
<path d="M21.9076 7.70862C21.9554 7.19884 21.6241 4.9462 19.9778 4.83598C19.1854 4.96342 19.0897 5.15631 18.1402 5.12531C17.1907 5.09431 16.6374 4.61209 16.2412 4.64654C16.2412 4.64654 16.1285 4.68098 16.6032 5.41464C17.078 6.1483 16.9038 7.36073 16.9038 7.36073C16.9038 7.36073 16.8423 8.73505 17.8362 9.48249C18.1539 9.92682 18.8814 9.36882 18.8814 9.36882C18.8814 9.36882 19.4176 9.54449 20.2135 9.08293C21.0025 8.61794 20.7019 8.54216 21.1459 8.25283C21.5899 7.9635 21.9076 7.70862 21.9076 7.70862Z" fill="white"/>
<path d="M20.8447 6.19303C20.9062 6.49613 20.7661 7.29524 20.2914 7.26079C19.8166 7.22979 20.2128 6.92669 19.7995 6.66835C19.3897 6.41347 19.0242 6.18958 18.0439 6.1758C18.0439 6.1758 17.5214 6.04836 18.1567 5.9347C18.7919 5.82447 19.3282 5.75903 19.8508 6.06214C20.3734 6.36525 20.1821 6.43069 20.5475 6.2378C20.9062 6.04836 20.8447 6.19303 20.8447 6.19303Z" fill="black"/>
<path d="M23.0928 10.1334C22.601 9.64083 22.6181 8.61784 22.6044 8.29751C22.5873 7.97718 22.0989 8.18729 21.9554 8.47662C21.812 8.76251 20.5448 10.1196 20.5141 11.6834C20.4833 13.2471 20.9718 13.2609 21.0503 13.2609C21.1289 13.2609 21.59 13.3263 23.2192 12.2724C24.8484 11.2184 24.8177 10.7396 24.4078 10.6948C23.9979 10.6466 23.4549 10.5019 23.0928 10.1334Z" fill="white"/>
<path d="M22.2078 9.01758C22.2624 9.42746 22.3 10.9637 23.7585 10.9809C23.7585 10.9809 24.1854 11.0601 23.5672 11.3977C22.949 11.7318 21.9858 12.0211 21.8594 11.1256C21.733 10.23 21.8594 9.08302 22.2078 9.01758Z" fill="black"/>
<path d="M22.3175 12.1313C21.9179 12.0555 21.3373 12.2587 21.3851 10.2954C21.3851 10.2954 20.8454 10.8224 20.941 11.6835C21.0367 12.5446 21.3373 12.9304 22.3175 12.1313Z" fill="black"/>
<path d="M25.8452 7.1024C25.0357 7.1024 22.9351 7.69139 23.0274 9.08293C23.1196 10.471 24.7351 10.409 24.7351 10.409C24.7351 10.409 25.0699 10.4263 25.1792 10.7741C25.4182 10.8361 26.6034 11.3321 28.0277 9.81659C28.8816 8.39405 29.0114 6.95773 28.8201 6.91296C28.6289 6.86474 28.1848 7.19884 27.4437 7.21607C26.7025 7.22984 25.8452 7.1024 25.8452 7.1024Z" fill="white"/>
<path d="M24.9911 7.83594C24.8784 8.0736 24.7213 8.71426 25.1175 9.00015C25.5103 9.28604 26.0807 8.71426 26.0807 8.71426C26.0807 8.71426 26.7296 8.28371 27.1258 8.20449C27.1258 8.20449 27.078 7.90138 26.0021 8.34916C24.9296 8.79348 24.9911 7.83594 24.9911 7.83594Z" fill="black"/>
<path d="M11.7049 27.5691C11.7049 27.5691 11.3019 26.3015 11.336 25.9778C11.336 25.9778 11.9645 25.7987 12.5212 26.2636C13.078 26.7286 13.3512 27.2935 13.3273 27.4106L11.7049 27.5691Z" fill="#0075BB"/>
<path d="M10.8036 32.2019H7.24121V39.1217H13.8435V36.5109H10.8036V32.2019Z" fill="white"/>
<path d="M19.0893 37.613V39.0976H15.5986V32.1536H21.8423C21.8423 32.1536 24.5269 32.1054 24.5269 34.885C24.5269 37.6612 22.0096 37.5923 22.0096 37.5923L19.0893 37.613Z" fill="white"/>
<path d="M20.5619 35.6497H19.0898V34.3064H20.4902C20.4902 34.3064 21.1323 34.3305 21.1323 34.9298C21.1323 35.5292 20.5619 35.6497 20.5619 35.6497Z" fill="#0075BB"/>
<path d="M30.7705 31.6506C27.092 31.6506 25.9512 33.3487 25.9512 35.5773C25.9512 37.8023 26.7607 39.6003 30.7227 39.6003C34.6882 39.6003 35.303 37.7335 35.303 35.6737C35.303 33.6139 34.2578 31.6506 30.7705 31.6506Z" fill="white"/>
<path d="M29.582 35.6255C29.582 36.8724 30.3198 37.0859 30.6511 37.0859C30.9858 37.0859 31.768 36.9412 31.768 35.6944C31.768 34.4509 30.9141 34.2581 30.6511 34.2581C30.3881 34.2581 29.582 34.4509 29.582 35.6255Z" fill="#0075BB"/>
</g>
<defs>
<clipPath id="clip0">
<rect width="121.037" height="43" fill="white"/>
</clipPath>
</defs>
</svg>
