<?xml version="1.0" encoding="UTF-8" standalone="no"?>
<!-- Created with Inkscape (http://www.inkscape.org/) -->

<svg
   xmlns:dc="http://purl.org/dc/elements/1.1/"
   xmlns:cc="http://creativecommons.org/ns#"
   xmlns:rdf="http://www.w3.org/1999/02/22-rdf-syntax-ns#"
   xmlns:svg="http://www.w3.org/2000/svg"
   xmlns="http://www.w3.org/2000/svg"
   xmlns:sodipodi="http://sodipodi.sourceforge.net/DTD/sodipodi-0.dtd"
   xmlns:inkscape="http://www.inkscape.org/namespaces/inkscape"
   width="135.46667mm"
   height="135.46667mm"
   viewBox="0 0 135.46667 135.46667"
   version="1.1"
   id="svg1178"
   inkscape:version="0.92.5 (2060ec1f9f, 2020-04-08)"
   sodipodi:docname="icon.svg">
  <defs
     id="defs1172">
    <mask
       id="mask0"
       mask-type="alpha"
       maskUnits="userSpaceOnUse"
       x="0"
       y="0"
       width="40"
       height="40">
      <circle
         style="fill:#c4c4c4"
         cx="20"
         cy="20"
         r="20"
         id="circle1120" />
    </mask>
  </defs>
  <sodipodi:namedview
     id="base"
     pagecolor="#ffffff"
     bordercolor="#666666"
     borderopacity="1.0"
     inkscape:pageopacity="0.0"
     inkscape:pageshadow="2"
     inkscape:zoom="0.0875"
     inkscape:cx="-1659.9102"
     inkscape:cy="-1894.5015"
     inkscape:document-units="mm"
     inkscape:current-layer="layer1"
     showgrid="false"
     fit-margin-top="0"
     fit-margin-left="0"
     fit-margin-right="0"
     fit-margin-bottom="0"
     inkscape:window-width="1920"
     inkscape:window-height="1080"
     inkscape:window-x="1920"
     inkscape:window-y="0"
     inkscape:window-maximized="0" />
  <metadata
     id="metadata1175">
    <rdf:RDF>
      <cc:Work
         rdf:about="">
        <dc:format>image/svg+xml</dc:format>
        <dc:type
           rdf:resource="http://purl.org/dc/dcmitype/StillImage" />
        <dc:title></dc:title>
      </cc:Work>
    </rdf:RDF>
  </metadata>
  <g
     inkscape:label="Calque 1"
     inkscape:groupmode="layer"
     id="layer1"
     transform="translate(-7.182,77.914587)">
    <g
       mask="url(#mask0)"
       id="g1127"
       transform="matrix(3.3866667,0,0,3.3866667,7.182,-77.914587)">
      <rect
         style="fill:#eb6a0a"
         y="0"
         x="0"
         width="40"
         height="40"
         id="rect1123-5" />
      <path
         style="clip-rule:evenodd;fill:#ffffff;fill-rule:evenodd"
         inkscape:connector-curvature="0"
         d="m 10.3814,16.9055 c 0,0.2871 0.2339,0.5198 0.5224,0.5198 0.2885,0 0.5225,-0.2327 0.5225,-0.5198 0,-0.287 -0.234,-0.5198 -0.5225,-0.5198 -0.2885,0 -0.5224,0.2328 -0.5224,0.5198 z m 8.8801,-4.357 c 0.4195,-0.1475 0.6801,-0.2391 0.8754,-0.2038 0.3895,0.0706 0.1513,0.8545 -0.7114,1.442 -0.692,0.4711 -2.1072,1.1188 -2.1072,1.1188 0,0 0.0679,0.5522 -1.1364,1.022 -0.1506,0.0588 -0.2862,0.1113 -0.4083,0.1586 -0.8543,0.3309 -1.0467,0.4054 -1.0674,0.5698 -0.0054,0.0431 0.0288,0.1044 0.0773,0.1916 0.1302,0.2337 0.364,0.6532 0.2178,1.406 -0.2006,1.0337 -0.2386,1.9672 0.3541,2.831 0.4293,0.6253 0.6998,0.9137 0.8501,1.0738 0.0233,0.0249 0.0437,0.0466 0.0614,0.0661 0.1704,0.1875 0.2013,0.5004 -0.0174,0.736 -0.0264,0.0284 -0.0661,0.0695 -0.1169,0.1223 -0.3574,0.3708 -1.269,1.3166 -2.0284,2.4658 -0.1096,0.1657 -0.2131,0.3291 -0.3132,0.4873 -0.5695,0.8991 -1.0307,1.6274 -1.8757,1.6271 -0.9934,-2e-4 -1.4709,-1.022 -1.6244,-2.9368 -0.0655,-0.8167 -0.0171,-1.5479 0.0279,-2.2273 0.0604,-0.9136 0.1146,-1.7336 -0.1224,-2.542 C 9.78325,18.5471 8.74438,18.4532 7.7763,18.5354 6.80823,18.6177 4.99014,19.0523 3.91594,19.4987 2.84159,19.9451 1.96788,20.4032 1.77903,20.5089 1.59004,20.6147 1.25959,20.503 1.73178,20.0655 2.20411,19.628 3.63245,18.782 5.54504,18.1126 6.29057,17.8515 6.83876,17.6869 7.24208,17.5658 7.87336,17.3762 8.14969,17.2932 8.27219,17.114 8.30337,17.0684 8.3411,16.9949 8.3893,16.9011 c 0.26193,-0.5097 0.83275,-1.6206 2.3385,-2.1365 1.5055,-0.5159 4.0804,-1.0904 5.8402,-1.483 0.3239,-0.0723 0.6202,-0.1384 0.8771,-0.1969 0.8243,-0.1874 1.399,-0.3895 1.8164,-0.5362 z m 5.0838,3.0431 c 0,0.2891 0.2344,0.5233 0.5233,0.5233 0.289,0 0.5233,-0.2342 0.5233,-0.5233 0,-0.2889 -0.2343,-0.5233 -0.5233,-0.5233 -0.2889,0 -0.5233,0.2344 -0.5233,0.5233 z m 7.6985,-3.2195 c 4.5944,0.1242 5.9666,1.8157 6.2972,2.377 0.2928,0.4966 0.2228,0.6032 -0.337,0.6562 -0.7822,0.0742 -4.7894,0.5381 -7.3438,1.3837 -2.4869,0.8232 -3.3586,1.212 -3.6758,1.9143 -0.236,0.5221 -0.2798,1.1367 0.3941,2.6621 0.6741,1.5256 1.0834,2.566 0.7914,3.7194 -0.2937,1.1593 -1.414,2.5778 -2.9394,2.5778 H 14.6777 c 0,0 -0.5852,0.0356 -0.4078,-0.7095 0.1773,-0.745 1.3481,-2.3947 2.9446,-3.9557 1.5964,-1.5609 3.5121,-2.8736 3.5121,-2.8736 0,0 0,-2.714 1.0467,-4.3283 1.0465,-1.6141 2.8203,-2.1641 3.9556,-1.756 0,0 1.7207,-1.7917 6.3149,-1.6674 z"
         id="path1125" />
    </g>
  </g>
</svg>
